<?xml version="1.0" encoding="utf-8"?>
<!-- Generator: Adobe Illustrator 27.2.0, SVG Export Plug-In . SVG Version: 6.00 Build 0)  -->
<svg version="1.1" xmlns="http://www.w3.org/2000/svg" xmlns:xlink="http://www.w3.org/1999/xlink" x="0px" y="0px"
	 viewBox="0 0 2250.5 1926.5" style="enable-background:new 0 0 2250.5 1926.5;" xml:space="preserve">
<style type="text/css">
	.st0{fill:#E8E6E6;stroke:#ADADAD;stroke-miterlimit:10;}
	.st1{fill:#F3F2F7;}
	.st2{fill:#030303;}
	.st3{fill:#353131;}
	.st4{fill:none;stroke:#ADADAD;stroke-width:2;stroke-miterlimit:10;}
	.st5{fill:none;stroke:#F3F2F7;stroke-width:2;stroke-miterlimit:10;}
	.st6{fill:#0A1205;}
	.st7{fill:#F3F2F7;stroke:#ADADAD;stroke-width:0.75;stroke-miterlimit:10;}
	.st8{fill:#ADADAD;}
	.st9{fill:#282828;}
	.st10{fill:#3A3A3A;}
	.st11{fill:#0A54A2;}
	.st12{fill:none;stroke:#E8E6E6;stroke-width:0.9742;stroke-miterlimit:10;}
	.st13{fill:#2E2E2E;}
	.st14{fill:#333333;}
	.st15{fill:#939393;stroke:#ADADAD;stroke-miterlimit:10;}
	.st16{fill:#D1D1D1;}
	.st17{fill:#191919;}
	.st18{fill:#666666;stroke:#ADADAD;stroke-miterlimit:10;}
	.st19{fill:#363636;}
	.st20{fill:none;stroke:#ADADAD;stroke-miterlimit:10;}
	.st21{fill:#121212;}
	.st22{fill:#0E0A12;}
	.st23{fill:#6E6E6E;}
	.st24{fill:#4E4E4E;}
	.st25{fill:#1E1E1E;}
	.st26{fill:#646464;}
	.st27{fill:#999999;}
	.st28{fill:#9E9E9E;}
	.st29{fill:#6D6D6D;}
	.st30{fill:#B5B5B5;}
	.st31{fill:#3E3E3E;}
	.st32{fill:#0D0F0C;}
	.st33{fill:none;stroke:#0E0A12;stroke-width:0.8371;stroke-miterlimit:10;}
	.st34{fill:#7D7D7D;}
	.st35{fill:#424242;}
	.st36{fill:#8A8A8A;}
	.st37{fill:#BCBCBC;stroke:#ADADAD;stroke-miterlimit:10;}
	.st38{fill:#8A8A8A;stroke:#6B6B6B;stroke-width:0.9619;stroke-miterlimit:10;}
	.st39{fill:none;stroke:#6B6B6B;stroke-width:0.7215;stroke-miterlimit:10;}
	.st40{fill:none;stroke:#A9A9AA;stroke-width:0.75;stroke-miterlimit:10;}
	.st41{fill:#484D4E;}
	.st42{fill:none;stroke:#111111;stroke-width:3;stroke-miterlimit:10;}
	.st43{fill:#282828;stroke:#0A0A0A;stroke-miterlimit:10;}
	.st44{fill:#F0221F;stroke:#BB1719;stroke-miterlimit:10;}
	.st45{fill:#BB1719;}
	.st46{fill:#FC7C88;stroke:#BB1719;stroke-miterlimit:10;}
	.st47{fill:none;stroke:#BB1719;stroke-width:3;stroke-miterlimit:10;}
	.st48{fill:#FC7C88;}
	.st49{fill:#FC7C88;stroke:#BB1719;stroke-width:3;stroke-miterlimit:10;}
	.st50{fill:#F0221F;}
	.st51{fill:#E8E6E6;stroke:#ADADAD;stroke-width:2;stroke-miterlimit:10;}
	.st52{opacity:0.59;fill:#F3F2F7;}
	.st53{fill:#080806;}
	.st54{fill:#9B9B9B;}
	.st55{fill:#2B2B2B;}
	.st56{fill:#C1BFBF;}
	.st57{fill:#D6D6D6;}
	.st58{fill:#4C4B4B;stroke:#A5A5A5;stroke-miterlimit:10;}
	.st59{fill:#444343;}
	.st60{fill:#727272;}
	.st61{fill:#A0A0A0;}
	.st62{fill:#999898;}
	.st63{fill:#444242;}
	.st64{fill:#157FCE;}
	.st65{fill:#134468;}
	.st66{fill:#092947;}
	.st67{fill:#D5D3D7;}
	.st68{fill:none;stroke:#134468;stroke-miterlimit:10;}
	.st69{fill:none;stroke:#0F63AD;stroke-miterlimit:10;}
	.st70{fill:#1672B7;}
	.st71{fill:#2066A0;}
	.st72{fill:#1B8ACE;}
	.st73{fill:none;stroke:#157FCE;stroke-miterlimit:10;}
	.st74{fill:none;stroke:#0A54A2;stroke-miterlimit:10;}
	.st75{fill:#3F3F3F;}
	.st76{fill:none;stroke:#282828;stroke-width:2;stroke-miterlimit:10;}
	.st77{fill:#7F7F7F;}
	.st78{fill:#2D2D2D;}
	.st79{fill:#4C4C4C;}
	.st80{fill:#383838;}
	.st81{fill:#9E9E9E;stroke:#0A55A3;stroke-miterlimit:10;}
	.st82{fill:none;stroke:#134468;stroke-width:0.75;stroke-miterlimit:10;}
	.st83{display:none;fill:#24242A;}
	.st84{display:none;fill:none;stroke:#848484;stroke-miterlimit:10;}
	.st85{display:none;fill:#30292D;}
	.st86{fill:#E8E6E6;}
	.st87{fill:#8C8C8C;}
	.st88{fill:#FCFCFC;stroke:#8C8C8C;stroke-miterlimit:10;}
	.st89{fill:#E8E6E6;stroke:#8C8C8C;stroke-miterlimit:10;}
	.st90{fill:#E8E6E6;stroke:#8C8C8C;stroke-width:2;stroke-miterlimit:10;}
	.st91{fill:none;stroke:#8C8C8C;stroke-width:2;stroke-miterlimit:10;}
	.st92{fill:none;stroke:#FCFCFC;stroke-width:3;stroke-miterlimit:10;}
	.st93{fill:#FCFCFC;}
	.st94{fill:#ADADAD;stroke:#8C8C8C;stroke-miterlimit:10;}
	.st95{fill:#FAFAFC;stroke:#ADADAD;stroke-width:0.75;stroke-miterlimit:10;}
	.st96{fill:none;stroke:#111111;stroke-width:3.6024;stroke-miterlimit:10;}
	.st97{fill:none;stroke:#111111;stroke-width:3.6093;stroke-miterlimit:10;}
	.st98{fill:none;stroke:#111111;stroke-width:3.5727;stroke-miterlimit:10;}
	.st99{fill:none;stroke:#111111;stroke-width:3.5263;stroke-miterlimit:10;}
	.st100{fill:none;stroke:#111111;stroke-width:3.4845;stroke-miterlimit:10;}
	.st101{fill:none;stroke:#111111;stroke-width:3.4337;stroke-miterlimit:10;}
	.st102{fill:none;stroke:#111111;stroke-width:3.3788;stroke-miterlimit:10;}
	.st103{fill:none;stroke:#111111;stroke-width:3.3233;stroke-miterlimit:10;}
	.st104{fill:none;stroke:#111111;stroke-width:3.2747;stroke-miterlimit:10;}
	.st105{fill:none;stroke:#111111;stroke-width:3.207;stroke-miterlimit:10;}
	.st106{fill:none;stroke:#111111;stroke-width:3.1652;stroke-miterlimit:10;}
	.st107{fill:none;stroke:#111111;stroke-width:3.099;stroke-miterlimit:10;}
	.st108{fill:none;stroke:#111111;stroke-width:3.0584;stroke-miterlimit:10;}
	.st109{fill:none;stroke:#111111;stroke-width:3.0299;stroke-miterlimit:10;}
</style>
<g id="original">
</g>
<g id="one">
</g>
<g id="two_00000026882943921159275490000004360688784792002186_">
</g>
<g id="three_00000113338737259881679640000015971704404683786636_">
</g>
<g id="four_00000049184186550712051260000002601905804867817144_">
</g>
<g id="five_00000179643197332058435300000007386453149388464260_">
</g>
<g id="six">
</g>
<g id="seven_00000062194613864970919320000012156796603096136882_">
</g>
<g id="eight">
	<g>
		<path class="st86" d="M1971.8,828.7c-0.9-1.5-5.8-8.5-17.3-9.1c-12.1-0.7-193.8-3.9-204.5-4.1c0-2.4,0.1-13.1,5.3-18.6
			c2.1-2.2,4.8-3.3,8-3.3c14.8,0,186.9,6.1,188.6,6.1c0.3,0,31.7,2.1,37.6,28.6L1971.8,828.7z"/>
		<path class="st87" d="M1763.3,794c14.8,0,186.9,6.1,188.6,6.1c0.1,0,8,0.5,16.6,4.3c11,4.9,17.9,12.7,20.4,23.3l-16.8,0.4
			c-1.3-2-6.3-8.5-17.5-9.1c-11.9-0.6-189.3-3.8-204.1-4.1c0-3,0.4-12.7,5.2-17.8C1757.7,795.1,1760.2,794,1763.3,794 M1763.3,793
			c-15,0-13.9,23-13.9,23s192.5,3.4,205,4.1c12.5,0.7,17,9.1,17,9.1l18.6-0.5c-5.7-27.7-38.2-29.5-38.2-29.5S1778.3,793,1763.3,793
			L1763.3,793z"/>
	</g>
	<path class="st88" d="M1954.3,806.6l-141.9-6.1l21.4,8l117.6,4.2c0,0,16.5-0.2,25.8,15.2h5.2C1982.4,828,1977.2,807.8,1954.3,806.6
		z"/>
	<path class="st89" d="M1749.5,816l-0.5,12l201,1.9c0,0,11,0,13.4,13.4c2.4,13.4,21.5,113,21.5,113l0.8,128.3l32.7-0.8
		c0,0,9.4,1.1,9.4-8.3c0-9.4,0-44.6,0-44.6s0.5-5.9-5.4-8.1v-45.6h-16c0,0-10.2,0.8-11.3-15.9c-1.2-16.8-22-124.3-22-124.3
		s-1.5-2.4-1.7-7.8c0,0-5.8-8.8-17-9.1C1943.2,819.7,1749.5,816,1749.5,816z"/>
	<path class="st2" d="M1990.1,828.7l25.2,136.1l-22.6-21.3L1973.2,837c0,0-1.8-3.5-1.7-7.8L1990.1,828.7z"/>
	<path class="st2" d="M2018.1,951.3c0,0,5.4,9.2,3.2,17.8h-3l0.8,7.9l-12.5,0.2c0,0-10.3,0.4-11.3-15.9l-2.4-17.8l22.6,21.3
		c0,0,5.4-5.7-0.4-13.3c0,0-2.1-1.9-4.6,0.3c-2.5,2.2-3.9-1.7,0-3.6S2018.1,951.3,2018.1,951.3z"/>
	<polygon class="st3" points="1977.4,829.2 2005.3,913.3 1990.1,828.7 	"/>
	<path class="st90" d="M1749,828c0,0-5.4,110.4-4.1,200.8l240.1-0.9l-0.1-71.6l-21.5-113c0,0-1.7-13.4-13.4-13.4
		C1938.3,829.9,1749,828,1749,828z"/>
	<path class="st91" d="M1766.6,898.5l-0.3-47.2c0,0-0.6-8.8,12.4-9.1c13-0.3,24.8,0,24.8,0s9.1-2.1,9.1,11.8s-0.3,45.7-0.3,45.7"/>
	<path class="st92" d="M1765.7,909.4l-0.3,31.6c0,0-1.5,7.4,7.4,7.4c8.8,0,33.9,0,33.9,0s5,2.7,5-6.2s0-26,0-26"/>
	<path class="st91" d="M1764.8,979l0.3,33.6c0,0-0.9,5.3,5.3,5.3c6.2,0,39.5-0.3,39.5-0.3s4.7,1.8,4.4-6.2c-0.3-8-0.6-33-0.6-33
		s0.6-6.2-6.2-6.2c-6.8,0-38.3,0.6-38.3,0.6S1764.8,972.3,1764.8,979z"/>
	<line class="st91" x1="1826.7" y1="828.6" x2="1826.7" y2="1028"/>
	<polygon class="st6" points="1833.2,976.7 1833.5,995 1853.5,994.7 1853.5,976.7 	"/>
	<path class="st93" d="M1834.1,1001.4c0,0-1.2,10,14.2,9.7c15.3-0.3,115.3,0,115.3,0l-48.4-5.9h-66.9c0,0,0.3-3.8-4.1-4.1
		C1839.7,1000.9,1834.1,1001.4,1834.1,1001.4z"/>
	<path class="st87" d="M1837,842.2l4.7,67.2l-0.3-62.8c0,0-2.1-6.8,13.6-6.5c15.6,0.3,89.9,0.6,89.9,0.6s7.1-1.8,9.4,17.1
		c2.4,18.9,4.7,36.9,4.7,36.9l-2.1-45.7c0,0,0.7-11.8-13.6-11.6c-14.3,0.2-97.4-0.8-97.4-0.8S1838,836.3,1837,842.2z"/>
	<path class="st93" d="M1962,912.4l7.6,32.9c0,0,2.6,12.9-9.2,13.4c-11.8,0.5-111.3-5.3-111.3-5.3s-9.5-2.6-10-11.3
		s-0.3-27.4-0.3-27.4l2.6,25.5c0,0,0.3,8.4,7.9,9.5s109.2,6.1,109.2,6.1s11.1,2.9,7.4-19.2S1962,912.4,1962,912.4z"/>
	<path class="st9" d="M1841.7,914.8l-0.3,25.5c0,0,0.1,8.6,7.9,9.5c7.8,0.8,109.2,6.1,109.2,6.1s10.8,2.4,7.4-19.2
		s-12.8-85.5-12.8-85.5s-1.2-10-8.1-10.4c-6.9-0.3-95.2-1-95.2-1s-8.7-1.3-8.7,5.9C1841,852.9,1841.7,914.8,1841.7,914.8z"/>
	<polygon class="st2" points="1933,831 1933,837.9 1950.2,838.4 1949.9,831 	"/>
	<path class="st10" d="M1841.3,864.2c0,0,96.3,16.1,107.9,91.5l9.3,0.1c0,0,10.8,1.4,7.4-19.2c-3.5-20.6-12.8-85.5-12.8-85.5
		s-1.4-10.2-8.1-10.4s-95.2-1-95.2-1s-8.6-0.9-8.7,5.9C1841,852.5,1841.3,864.2,1841.3,864.2z"/>
	<polygon class="st2" points="1939.7,837.2 1939.8,848.3 1943.3,848.2 1943.5,837.4 	"/>
	<path class="st2" d="M1935.5,848.4l0.7,93.5h7.2c0,0,6.1-6.3,6.1-15.6l-0.2-66c0,0-1.4-10.9-5.9-12.1L1935.5,848.4z"/>
	<polygon class="st2" points="1939.3,970.7 1939.3,941.5 1943.5,941.8 1943.5,970.1 	"/>
	<polygon class="st2" points="1946.9,969.8 1950.6,969.9 1950.6,976.3 1931.8,976.3 1931.8,969.9 	"/>
	<path class="st11" d="M1818.6,772.1l17.4,0.2v18.3c0,0-4.6,1.4-19.2,0v-18.5L1818.6,772.1z"/>
	<path class="st87" d="M1838.9,789.9l0.1,6l-24.3-0.5v-5.9C1814.8,789.5,1823.8,792.4,1838.9,789.9z"/>
	<path class="st0" d="M1744.9,1028.8l0.4,26.2H1851c0,0,49,1.9,59.1,28.8l75.7,0.9l-0.7-56.7L1744.9,1028.8z"/>
	<path class="st89" d="M1744.9,1028.8l0.4,26.2H1851c0,0,49,1.9,59.1,28.8l75.7,0.9l-0.7-56.7L1744.9,1028.8z"/>
	<polygon class="st6" points="1982.4,1048.4 1960.6,1027.8 1979,1027.9 1985,1033.9 1985,1051.3 	"/>
	<path class="st6" d="M1945.1,1028.4l27.3,26.4h-18l-26.2-26.2C1928.1,1028.6,1945.1,1028.4,1945.1,1028.4z"/>
	<path class="st6" d="M1911.8,1028.6l26.6,26.6h-17.6l-26.5-26.5C1894.3,1028.8,1911.7,1028.7,1911.8,1028.6z"/>
	<path class="st6" d="M1879.6,1028.6l26.6,26.6h-17.6l-26.5-26.5C1862.1,1028.8,1879.5,1028.7,1879.6,1028.6z"/>
	<path class="st6" d="M1845.8,1028.6l26.6,26.6h-17.6l-26.5-26.5C1828.3,1028.8,1845.8,1028.7,1845.8,1028.6z"/>
	<path class="st6" d="M1812.4,1028.6l26.6,25.8h-17.6l-26.5-25.7C1794.9,1028.8,1812.4,1028.7,1812.4,1028.6z"/>
	<path class="st6" d="M1778.7,1029.1l26.6,25.3h-17.6l-26.5-25.1C1761.2,1029.3,1778.6,1029.2,1778.7,1029.1z"/>
	<path class="st6" d="M1744.9,1028.8l25.9,25.9h-16.4l-8.7-8.7l-0.7-0.7C1745.1,1045.3,1744.9,1028.6,1744.9,1028.8z"/>
	<path class="st94" d="M2022.5,1022.9h-26.9l8,8l24.3,0C2027.9,1030.9,2028.9,1025.3,2022.5,1022.9z"/>
	<path class="st94" d="M1985,1027.9c0,0,5.7,1.4,6,6.4v41.2l36.9-0.1c0,0,1.1,8.3-9.4,8.3c-10.5,0-32.7,0.8-32.7,0.8L1985,1027.9z"
		/>
	<polygon class="st13" points="1934.9,1180.6 1985.4,1180.5 1985.4,1084.6 1910.1,1083.7 	"/>
	<polygon class="st0" points="1930,1112.7 1985.6,1112.7 1985.6,1117.8 1930.1,1117.8 	"/>
	<path class="st0" d="M1985.3,1144.9h-51.9v3.9h52.2C1985.6,1148.8,1985.3,1144.2,1985.3,1144.9z"/>
	<path class="st0" d="M1933.9,1175.6h51.2v4.4h-51.7C1933.4,1180,1934.3,1175.2,1933.9,1175.6z"/>
	<path class="st2" d="M1916.2,1142.9l-15.1,13.3c0,0-33.2-69.2-81.4-59.5c-48.3,9.7-70.3,61.6-70.3,61.6l-16.6-15.5l21.3-64.5
		l78.6-5.4l64.1,7.6l18,45.8L1916.2,1142.9z"/>
	<circle class="st14" cx="1825.2" cy="1172.2" r="78.7"/>
	<circle class="st15" cx="1825.5" cy="1170.1" r="48.8"/>
	<circle class="st12" cx="1825.5" cy="1170.1" r="48.8"/>
	<circle class="st16" cx="1825.2" cy="1169.5" r="42.8"/>
	<circle class="st17" cx="1825.8" cy="1170.6" r="18.4"/>
	<circle class="st18" cx="1813.7" cy="1149.5" r="2.5"/>
	<circle class="st18" cx="1825.7" cy="1146.5" r="2.5"/>
	<circle class="st18" cx="1838" cy="1150.2" r="2.5"/>
	<circle class="st18" cx="1846.4" cy="1158.4" r="2.5"/>
	<circle class="st18" cx="1849.1" cy="1170.8" r="2.5"/>
	<circle class="st18" cx="1846.6" cy="1182.7" r="2.5"/>
	<circle class="st18" cx="1838" cy="1191.4" r="2.5"/>
	<circle class="st18" cx="1826" cy="1194.5" r="2.5"/>
	<circle class="st18" cx="1812.9" cy="1190.9" r="2.5"/>
	<circle class="st18" cx="1804.8" cy="1182.4" r="2.5"/>
	<circle class="st18" cx="1801.7" cy="1170.4" r="2.5"/>
	<circle class="st18" cx="1804.5" cy="1158" r="2.5"/>
	<path class="st19" d="M1800.8,1134.6c0,0,4,14.9-10.7,11.3C1790.1,1145.9,1792.3,1139.7,1800.8,1134.6z"/>
	<path class="st19" d="M1817.3,1127.6c0,0,6.4,12,17.4,0.5C1834.7,1128.1,1826.9,1125.1,1817.3,1127.6z"/>
	<path class="st19" d="M1849.3,1134.6c0,0-3.1,14.6,11.7,11.7C1860.9,1146.2,1856.4,1137.9,1849.3,1134.6z"/>
	<path class="st19" d="M1867,1161.8c0,0-9.2,9.9-0.5,17.9C1866.5,1179.6,1869.6,1172.2,1867,1161.8z"/>
	<path class="st19" d="M1849.9,1204.5c0,0-0.9-11.3,10.3-10.7C1860.1,1193.8,1856.9,1199.7,1849.9,1204.5z"/>
	<path class="st19" d="M1833.4,1211.2c0,0-7.1-9.9-16.6,0.2C1816.8,1211.3,1823.9,1213.8,1833.4,1211.2z"/>
	<path class="st19" d="M1790.1,1193.8c0,0,12.1-1.7,11,10.7C1801.1,1204.5,1795.5,1201.5,1790.1,1193.8z"/>
	<path class="st19" d="M1783.2,1161.3c0,0,10.4,8.4,0.5,18.3C1783.7,1179.6,1781.2,1172.8,1783.2,1161.3z"/>
	<path d="M1899.4,1145.5c0,0,23.1,81.5-72,102.5c0,0-87.4-4.1-76.9-102c0,0-20.5,55.5,31,92c0,0,20.3,14.8,47,13
		c26.7-1.8,52.7-13.7,68.6-46.2C1906.4,1179.4,1905.4,1169.3,1899.4,1145.5z"/>
	<path class="st20" d="M1744.9,1028.8l0.4,26.2H1851c0,0,49,1.9,59.1,28.8l75.7,0.9l-0.7-56.7L1744.9,1028.8z"/>
	<circle class="st20" cx="1825.2" cy="1169.5" r="42.8"/>
	<path class="st0" d="M2012.1,1084l0.4,13.4c0,0,15.7,4.2,15.9,14.8v65c0,0,1.1,6.7-6.7,6.7c-7.8,0-36.3,0-36.3,0l0.3-99.2
		L2012.1,1084z"/>
	<path class="st95" d="M2018.1,1114.2v24c0,0-0.4,4.7,4.3,4.7c4.7,0,6.1,0,6.1,0l-0.2-30.7C2028.3,1112.2,2021.5,1110,2018.1,1114.2
		z"/>
	<path class="st95" d="M2028.4,1154.9c0,0-11.2-1.8-10.8,6.5c0.3,8.2,9.2,6.7,10.8,6.4V1154.9z"/>
	<path class="st94" d="M2027.1,1107.8c0,0-13.6-6.4-32.8-2.9l-0.7,74c0,0,29.9,4.5,34.7-1.8c0,0,1.8,6.5-6.7,6.7
		c-8.5,0.1-36.3,0-36.3,0l0.3-99.2l26.4-0.6l0.4,13.4C2012.5,1097.4,2025.1,1101.5,2027.1,1107.8z"/>
	<polygon class="st21" points="1013.4,1076.7 1013.4,1130.6 1195.9,1169.4 1237.4,1145.8 1599.7,1145.8 1741.4,1146.5 1754,1078.3 	
		"/>
	<circle class="st22" cx="1620.7" cy="1142.9" r="22.5"/>
	<circle class="st22" cx="1670" cy="1142.9" r="22.5"/>
	<path class="st23" d="M1634.9,1126c0,0-15-5.6-25.6,4.2c-10.6,9.8-10,20.6-10,20.6s-4.6-16.6,7.9-25.8S1633.3,1122.9,1634.9,1126z"
		/>
	<path class="st23" d="M1684,1126c0,0-15-5.6-25.6,4.2c-10.6,9.8-10,20.6-10,20.6s-4.6-16.6,7.9-25.8S1682.5,1122.9,1684,1126z"/>
	<path class="st24" d="M1392.5,1104.1v73.5h200.8v-73.8C1593.3,1103.8,1391.5,1104.1,1392.5,1104.1z"/>
	<path class="st25" d="M1543.6,1096.6v11.2h10.7v-11.2C1554.3,1096.6,1543.3,1096.6,1543.6,1096.6z"/>
	<polygon class="st26" points="1550.1,1101.2 1550.1,1107.8 1554.3,1107.8 1554.3,1096.6 1550,1096.6 	"/>
	<polygon class="st27" points="1398.3,1104.5 1398.3,1177.8 1392.5,1177.8 1392.5,1104.1 1398.3,1104.1 	"/>
	<path class="st28" d="M1418.3,1100.5v77.9h7.3v-77.8C1425.6,1100.6,1418.8,1100.5,1418.3,1100.5z"/>
	<path class="st28" d="M1491.2,1100.4v77.5h7.9v-77.5C1499.1,1100.4,1491.2,1100,1491.2,1100.4z"/>
	<path class="st28" d="M1564,1100.1v78.5h7.8v-78v-0.5C1571.8,1100,1563.8,1100.1,1564,1100.1z"/>
	<path class="st28" d="M1588.9,1103.8v73.6h4.3v-73.6C1593.3,1103.8,1588.9,1104.1,1588.9,1103.8z"/>
	<path class="st29" d="M1398.4,1120.1h19.8v5h-19.8C1398.4,1125.1,1398.2,1119.9,1398.4,1120.1z"/>
	<path class="st29" d="M1572,1120.1h16.7v5H1572C1572,1125.1,1571.8,1119.9,1572,1120.1z"/>
	<path class="st29" d="M1425.9,1120.1h64.9v5h-64.9C1425.9,1125.1,1425.3,1119.9,1425.9,1120.1z"/>
	<path class="st29" d="M1499.5,1120.1h64.5v5h-64.5C1499.5,1125.1,1498.9,1119.9,1499.5,1120.1z"/>
	<path class="st30" d="M1392.5,1120.1h5.9v4.9h-5.8C1392.6,1125.1,1392.5,1120,1392.5,1120.1z"/>
	<path class="st30" d="M1418.3,1120.1h7.3v5.8h-7.3C1418.3,1125.8,1418.3,1120.1,1418.3,1120.1z"/>
	<path class="st30" d="M1491.2,1120.1h7.9v5.8h-7.9C1491.2,1125.8,1491.1,1120.1,1491.2,1120.1z"/>
	<path class="st30" d="M1563.9,1120.1h8v5.8h-8C1563.9,1125.8,1563.8,1120.1,1563.9,1120.1z"/>
	<path class="st30" d="M1588.7,1120.3h4.5v4.9h-4.4C1588.8,1125.2,1588.7,1120.2,1588.7,1120.3z"/>
	<path class="st31" d="M1241.9,1154.1v-37.6c0,0,0.7-6.3,15.2-6.3c14.5,0,121.1,0,121.1,0s7.9-1,7.9,9.6s0,50.8,0,50.8
		s1.3,7.3-14.2,7.3s-121.8,0-121.8,0s-8.3,0.7-8.3-8.6S1241.9,1154.1,1241.9,1154.1z"/>
	<path class="st32" d="M1310.5,1138.9v12.2h8.8v-12.4C1319.3,1138.7,1310.4,1138.8,1310.5,1138.9z"/>
	<line class="st33" x1="1385.7" y1="1145.7" x2="1242.1" y2="1145.7"/>
	<circle class="st14" cx="1118.4" cy="1172.2" r="78.7"/>
	<circle class="st15" cx="1118.8" cy="1170.1" r="48.8"/>
	<circle class="st12" cx="1118.8" cy="1170.1" r="48.8"/>
	<circle class="st16" cx="1118.4" cy="1169.5" r="42.8"/>
	<circle class="st17" cx="1119" cy="1170.6" r="18.4"/>
	<circle class="st18" cx="1106.9" cy="1149.5" r="2.5"/>
	<circle class="st18" cx="1118.9" cy="1146.5" r="2.5"/>
	<circle class="st18" cx="1131.2" cy="1150.2" r="2.5"/>
	<circle class="st18" cx="1139.7" cy="1158.4" r="2.5"/>
	<circle class="st18" cx="1142.3" cy="1170.8" r="2.5"/>
	<circle class="st18" cx="1139.8" cy="1182.7" r="2.5"/>
	<circle class="st18" cx="1131.2" cy="1191.4" r="2.5"/>
	<circle class="st18" cx="1119.2" cy="1194.5" r="2.5"/>
	<circle class="st18" cx="1106.1" cy="1190.9" r="2.5"/>
	<circle class="st18" cx="1098.1" cy="1182.4" r="2.5"/>
	<circle class="st18" cx="1094.9" cy="1170.4" r="2.5"/>
	<circle class="st18" cx="1097.7" cy="1158" r="2.5"/>
	<path class="st19" d="M1094,1134.6c0,0,4,14.9-10.7,11.3C1083.3,1145.9,1085.5,1139.7,1094,1134.6z"/>
	<path class="st19" d="M1110.5,1127.6c0,0,6.4,12,17.4,0.5C1127.9,1128.1,1120.1,1125.1,1110.5,1127.6z"/>
	<path class="st19" d="M1142.5,1134.6c0,0-3.1,14.6,11.7,11.7C1154.1,1146.2,1149.6,1137.9,1142.5,1134.6z"/>
	<path class="st19" d="M1160.2,1161.8c0,0-9.2,9.9-0.5,17.9C1159.7,1179.6,1162.8,1172.2,1160.2,1161.8z"/>
	<path class="st19" d="M1143.1,1204.5c0,0-0.9-11.3,10.3-10.7C1153.4,1193.8,1150.1,1199.7,1143.1,1204.5z"/>
	<path class="st19" d="M1126.6,1211.2c0,0-7.1-9.9-16.6,0.2C1110,1211.3,1117.2,1213.8,1126.6,1211.2z"/>
	<path class="st19" d="M1083.3,1193.8c0,0,12.1-1.7,11,10.7C1094.3,1204.5,1088.7,1201.5,1083.3,1193.8z"/>
	<path class="st19" d="M1076.5,1161.3c0,0,10.4,8.4,0.5,18.3C1076.9,1179.6,1074.4,1172.8,1076.5,1161.3z"/>
	<path d="M1192.6,1145.5c0,0,23.1,81.5-72,102.5c0,0-87.4-4.1-76.9-102c0,0-20.5,55.5,31,92c0,0,20.3,14.8,47,13
		c26.7-1.8,52.7-13.7,68.6-46.2C1199.6,1179.4,1198.6,1169.3,1192.6,1145.5z"/>
	<circle class="st20" cx="1118.4" cy="1169.5" r="42.8"/>
	<path class="st34" d="M1206.7,1176.9c0,0,8.3-55.7-60.6-83.8c0,0-45.8-17.1-84.3,14.3c0,0-28.7,13.2-34.2,70c0,0-3.9,8.3-17.6,8.3
		h-10.8l0.9-54l13.4-1.1l17.1-35.8c0,0,5.9-17.9,30.8-17.9s126.4,0.3,126.4,0.3s17,0.3,23.2,26.4s14.7,29,26.1,29v53.4l-25.2-0.3
		C1211.7,1185.7,1206.4,1184.8,1206.7,1176.9z"/>
	<path class="st35" d="M1108.5,1083.6c0,0-63.8,0.4-76.5,41c-12.7,40.6-16.5,60.9-16.5,60.9s-11.6,0.8-16.4,0.2l0.9-54l13.4-1.1
		l17.1-35.8c0,0,6.3-18,30.8-17.9s126.4,0.3,126.4,0.3s19.4,0.1,23.2,26.4c6,24.5,13.5,25.8,26.9,28.3l-0.8,54.1l-25.2-0.3
		c0,0-5.3-0.8-5-8.8c0,0,16.9-3.9,10.2-39.3c0,0-14.5-9.1-15.5-27.4S1185.9,1083.9,1108.5,1083.6z"/>
	<path class="st36" d="M1736,1180.7c0,0-14.1-88.6,62.3-98.4l-55.9-0.4c0,0-23.4,26.1-24.5,67.9c-1.1,41.7-0.4,35.6-0.4,35.6
		S1733.1,1187.6,1736,1180.7z"/>
	<path class="st37" d="M1724.5,802.4l-0.3,37.4c0,0,8,1.6,14.8,0l-0.3-41.2L1724.5,802.4z"/>
	<ellipse class="st21" cx="1731.6" cy="800.6" rx="8.2" ry="8.5"/>
	<path class="st38" d="M1721,839.8c0,0,11.8,1.6,21.3-0.3v214.7c0,0-13.9,3.5-21.3-0.3V839.8z"/>
	<path class="st0" d="M1700.3,1102.7v24.7c0,0,5.9,8.8,12.9-0.2v-20.6c0,0-0.7-7,7-9.7c7.7-2.7,14.3-9.1,15.2-17.4
		c0.9-8.4,0.7-24,0.7-24s-6.9,1-13.4-0.3l-0.4,20c0,0-0.9,5.7-7.9,9.5S1700.8,1091.2,1700.3,1102.7z"/>
	<path class="st8" d="M1728.9,1056.2l-0.7,19.2c0,0-1.8,9.5-9,13c-7.3,3.5-12.3,8.2-12.3,15s-0.2,28-0.2,28s-4.8,1.5-6.4-3.9
		l0.4-27.9c0,0,0.2-8.4,11.7-13.9c11.5-5.5,9.9-10.6,9.9-10.6l0.4-20C1722.7,1055.1,1726.1,1056.2,1728.9,1056.2z"/>
	<path class="st39" d="M1742.1,844.9c0,0-8.2,2.4-21.1-0.2"/>
	<path class="st39" d="M1742.1,850.5c0,0-8.2,2.4-21.1-0.2"/>
	<path class="st39" d="M1742.1,855.8c0,0-8.2,2.4-21.1-0.2"/>
	<path class="st39" d="M1742.1,861.2c0,0-8.2,2.4-21.1-0.2"/>
	<path class="st39" d="M1742.1,866.8c0,0-8.2,2.4-21.1-0.2"/>
	<path class="st39" d="M1742.1,872.4c0,0-8.2,2.4-21.1-0.2"/>
	<path class="st39" d="M1741.9,878c0,0-8.2,2.4-21.1-0.2"/>
	<path class="st39" d="M1741.9,883.6c0,0-8.2,2.4-21.1-0.2"/>
	<path class="st39" d="M1741.9,889c0,0-8.2,2.4-21.1-0.2"/>
	<path class="st39" d="M1741.9,894.4c0,0-8.2,2.4-21.1-0.2"/>
	<path class="st39" d="M1741.9,900.2c0,0-8.2,2.4-21.1-0.2"/>
	<path class="st39" d="M1741.9,905.6c0,0-8.2,2.4-21.1-0.2"/>
	<path class="st39" d="M1741.9,911.8c0,0-8.2,2.4-21.1-0.2"/>
	<path class="st39" d="M1741.9,917.6c0,0-8.2,2.4-21.1-0.2"/>
	<path class="st39" d="M1741.9,923.2c0,0-8.2,2.4-21.1-0.2"/>
	<path class="st39" d="M1741.9,929.2c0,0-8.2,2.4-21.1-0.2"/>
	<path class="st39" d="M1741.9,935.1c0,0-8.2,2.4-21.1-0.2"/>
	<path class="st39" d="M1742.2,941.2c0,0-8.2,2.4-21.1-0.2"/>
	<path class="st39" d="M1742.2,947.9c0,0-8.2,2.4-21.1-0.2"/>
	<path class="st39" d="M1742,954c0,0-8.2,2.4-21.1-0.2"/>
	<path class="st39" d="M1742,960.5c0,0-8.2,2.4-21.1-0.2"/>
	<path class="st39" d="M1742,966.2c0,0-8.2,2.4-21.1-0.2"/>
	<path class="st39" d="M1742,972.5c0,0-8.2,2.4-21.1-0.2"/>
	<path class="st39" d="M1742,978.1c0,0-8.2,2.4-21.1-0.2"/>
	<path class="st39" d="M1742,985c0,0-8.2,2.4-21.1-0.2"/>
	<path class="st39" d="M1742,991.1c0,0-8.2,2.4-21.1-0.2"/>
	<path class="st39" d="M1742,996.6c0,0-8.2,2.4-21.1-0.2"/>
	<path class="st39" d="M1742,1002.4c0,0-8.2,2.4-21.1-0.2"/>
	<path class="st39" d="M1742,1008.3c0,0-8.2,2.4-21.1-0.2"/>
	<path class="st39" d="M1742,1014.6c0,0-8.2,2.4-21.1-0.2"/>
	<path class="st39" d="M1742,1021.7c0,0-8.2,2.4-21.1-0.2"/>
	<path class="st39" d="M1742,1028.4c0,0-8.2,2.4-21.1-0.2"/>
	<path class="st39" d="M1742,1034.9c0,0-8.2,2.4-21.1-0.2"/>
	<path class="st39" d="M1742,1041.4c0,0-8.2,2.4-21.1-0.2"/>
	<path class="st39" d="M1741.7,1048.3c0,0-8.2,2.4-21.1-0.2"/>
	<line class="st40" x1="1736.5" y1="840.4" x2="1736.5" y2="1055.4"/>
	<line class="st40" x1="1724.2" y1="839.8" x2="1724.2" y2="1055.1"/>
	<line class="st40" x1="1729.6" y1="840.8" x2="1729.6" y2="1056.2"/>
	<path class="st36" d="M1740,1054.3v28.2h113.9c0,0,58.2,1.1,58.2,55.2l-0.4,41c0,0-1.9,5.6,6.8,6c8.6,0.4,16.9,0,16.9,0l-1.7-59.2
		c0,0-7.4-69.5-78.8-70.2S1740,1054.3,1740,1054.3z"/>
	<path class="st41" d="M1770.9,1063.6l72.9-0.3c0,0,62.5-4.9,76.9,38.9c14.4,43.8,14.7,82.5,14.7,82.5l-1.7-59.2
		c0,0-5.2-70.5-82.7-70.5c-77.5,0-111-0.7-111-0.7l-0.2,10.5L1770.9,1063.6z"/>
	<path class="st11" d="M1689.4,768.8l0.3,20.9c0,0,5.5,1.3,18.6,0l-0.5-21.2L1689.4,768.8z"/>
	<path class="st87" d="M1710.8,789.1l0.1,4.4h-23.8l0.1-4.1C1687.2,789.5,1696.3,790.5,1710.8,789.1z"/>
	<polygon class="st89" points="1680.9,792.8 1637.5,892.7 1716,892.7 1716,792.8 	"/>
	<polygon class="st8" points="1644.5,876.4 1694.5,877 1715.8,845.6 1716,892.7 1637.5,892.7 	"/>
	<line class="st42" x1="1640.9" y1="883.2" x2="986.3" y2="631.4"/>
	<path class="st42" d="M952.7,665.5c0,0,7.4,106.1,8.9,117"/>
	<line class="st42" x1="993.1" y1="676.8" x2="983.3" y2="786.4"/>
	<polygon class="st43" points="1012.4,661.2 1100.6,695.4 1090.3,719.9 1007.5,686.7 	"/>
	<path class="st10" d="M1019,668.4c0,0,0.7,13.2,15.9,18.9c15.2,5.6,59.6,22.8,59.6,22.8l5-12.2c0,0-67.8-23.2-72.8-27.1
		c-5-4-6.9-5.1-6.9-5.1S1018.5,667.4,1019,668.4z"/>
	<circle class="st10" cx="973.1" cy="651.3" r="27.4"/>
	<circle class="st9" cx="973.7" cy="651.5" r="21.8"/>
	<path class="st44" d="M1020.1,658.5l-12.9,34.1c0,0-42.9-11.1-47-25.4c-4.2-14.3,1.8-26.3,5.1-34.1L1020.1,658.5z"/>
	<path class="st45" d="M981.2,676.9l22.7,9.6c0,0,5.2-20.7,16.2-28l-12.9,34.1c0,0-41.1-9.9-47-25.4c0,0-3.2-6.7,0.2-20.3
		c0,0-1.3,19.2,6.7,23.5C975.1,674.7,981.2,676.9,981.2,676.9z"/>
	<circle class="st46" cx="973.1" cy="650.4" r="5.4"/>
	<circle class="st10" cx="1148.4" cy="693.5" r="11.8"/>
	<circle class="st9" cx="1463" cy="827.7" r="18"/>
	<circle class="st10" cx="1463.3" cy="827.9" r="11.5"/>
	<polygon class="st44" points="1603.3,894.8 1105.1,685.2 1086.6,728 1336.4,835.5 1354.5,855.6 1541.2,940.2 	"/>
	<polyline class="st47" points="1580.4,897.4 1110.1,699.5 1100.5,723.1 	"/>
	<g>
		<polygon class="st48" points="1362.2,849.5 1342.1,829 1099.9,723.5 1102.4,717.6 1344.9,823.8 1366.8,846.1 1552.1,929.7 
			1547.6,933.3 		"/>
		<path class="st45" d="M1102.9,718.9l241.4,105.7l21.9,22.3l183.9,83l-2.7,2.2l-184.7-83.5l-20-20.4l-241.5-105.2L1102.9,718.9
			 M1101.9,716.3l-0.8,1.9l-1.7,4l-0.8,1.8l1.8,0.8l241.1,105.1l19.8,20.2l0.3,0.3l0.3,0.2l184.7,83.5l1.1,0.5l1-0.8l2.7-2.2l2.6-2
			l-3-1.3l-183.6-82.9l-21.7-22l-0.3-0.3l-0.4-0.2l-241.4-105.7L1101.9,716.3L1101.9,716.3z"/>
	</g>
	<circle class="st49" cx="1385.5" cy="837.9" r="6.6"/>
	<polygon class="st43" points="1373.5,864.2 1373.5,930 1394.7,930 1395,873.8 	"/>
	<polygon class="st10" points="1386.1,872.9 1386.8,929 1376.8,929 1376.8,867.4 1385.9,871.3 	"/>
	<path class="st43" d="M1369,929.4c0,0,10.4,0.4,31.1,0.1l-0.3,36.5h-31L1369,929.4z"/>
	<path class="st9" d="M971.2,795.8c0,0,2.1,5.5-1.4,6.9s-11.7,8.7-4.1,14.6S979,818.9,982,807c0,0-3.7,0.5-6.4,6.2
		c0,0-6.4,6.9-7.3-3.2c0,0,0-2.5,3.9-4.1c3.9-1.6,3.4-5.5,1.4-11.9L971.2,795.8z"/>
	<path class="st50" d="M964.6,764.2c0,0-1.9,14-5.8,20.2c0,0-2.3,4.7,0,6.2c2.3,1.6,10.5,5.8,10.5,5.8s1.9,3.9,7.4,0l8.2-6.2
		c0,0,2.7,0.4,1.2-5.4c-1.6-5.8-6.6-20.6-6.6-20.6H964.6z"/>
	<path class="st45" d="M977,766.6l6.2,17.4c0,0,1.7,2.5-0.2,4.7c-1.9,2.2-7.4,6.1-7.4,6.1s-2,1.7-4.6-0.2c-2.5-1.9-6.2-3.5-6.2-3.5
		l4.6,5.4c0,0,2.7,3.9,7.4,0c4.7-3.9,8.2-6.2,8.2-6.2s2.6,0.3,1.2-5.4c-1.4-5.7-6.6-20.6-6.6-20.6L977,766.6z"/>
	<g>
		<path class="st48" d="M958.9,790.5c-0.1,0-0.6-0.2-0.9-0.9c-0.3-0.8-0.4-2.2,1-5c2.9-5.7,4.8-12.4,5.8-20.1h14l-1.9,1.9l-10.7-0.2
			l0,0.2c0,0.2-1.4,16.8-6.3,20.1c-0.1,0.1-0.5,0.5-0.4,1.2c0.2,0.7,0.9,1.3,2.3,1.8c2.4,0.9,5.4,4.5,6.7,6.3L958.9,790.5z"/>
		<path class="st50" d="M978.2,764.7l-1.4,1.4l-10.4-0.2l-0.5,0l0,0.5c0,0.2-1.4,16.7-6.2,19.9l0,0l0,0c-0.2,0.2-0.5,0.7-0.4,1.4
			c0.2,0.8,1,1.5,2.4,2c1.9,0.7,4.3,3.4,5.8,5.2l-8.4-4.7l0,0l0,0c0,0-0.5-0.2-0.7-0.8c-0.3-0.7-0.3-2.1,1-4.7
			c2.8-5.6,4.8-12.4,5.8-20H978.2 M979.4,764.2h-14.8c-1.1,8.3-3.1,14.9-5.8,20.2s0,6.2,0,6.2l10.5,5.8c0,0-4.3-6.1-7.5-7.3
			c-3.2-1.2-1.9-2.5-1.9-2.5c5.1-3.4,6.4-20.3,6.4-20.3l10.6,0.2L979.4,764.2L979.4,764.2z"/>
	</g>
	<line class="st42" x1="971.7" y1="812.2" x2="971.7" y2="821.6"/>
	<polygon class="st51" points="969.4,821.7 974.3,821.7 974.3,858.8 969.7,858.8 	"/>
	<line class="st98" x1="971.9" y1="859.4" x2="972.9" y2="1134.1"/>
	<polygon class="st89" points="1716,892.7 1716,1080 992.2,1080 992.2,1026.7 1110.2,966.5 1514.9,966.5 1587.2,894.3 	"/>
	<path class="st6" d="M1680.9,1047.5l31.2,32.1h-19.5l-32.2-32.2C1660.4,1047.4,1681.2,1047.3,1680.9,1047.5z"/>
	<path class="st6" d="M1646.3,1047.5l31.2,32.1h-19.5l-32.2-32.2C1625.7,1047.4,1646.5,1047.3,1646.3,1047.5z"/>
	<path class="st6" d="M1612.3,1047.5l31.2,32.1H1624l-32.2-32.2C1591.8,1047.4,1612.6,1047.3,1612.3,1047.5z"/>
	<path class="st6" d="M1577,1047.5l31.2,32.1h-19.5l-32.2-32.2C1556.4,1047.4,1577.2,1047.3,1577,1047.5z"/>
	<path class="st6" d="M1542.6,1047.6l31.2,32h-19.5l-32.2-32.1C1522,1047.5,1542.8,1047.4,1542.6,1047.6z"/>
	<path class="st6" d="M1507.5,1047.9l31.2,31.7h-19.5l-32.2-31.8C1486.9,1047.8,1507.7,1047.7,1507.5,1047.9z"/>
	<path class="st6" d="M1472.8,1047.9l31.2,31.7h-19.5l-32.2-31.8C1452.2,1047.8,1473.1,1047.7,1472.8,1047.9z"/>
	<path class="st6" d="M1437.7,1047.9l31.2,31.7h-19.5l-32.2-31.8C1417.1,1047.8,1437.9,1047.7,1437.7,1047.9z"/>
	<path class="st6" d="M1403.3,1048.2l31.2,31.4h-19.5l-32.2-31.5C1382.7,1048.1,1403.5,1047.9,1403.3,1048.2z"/>
	<path class="st6" d="M1368.6,1048.2l31.2,31.4h-19.5l-32.2-31.5C1348.1,1048.1,1368.9,1047.9,1368.6,1048.2z"/>
	<path class="st6" d="M1333.8,1048.2l31.2,31.4h-19.5l-32.2-31.5C1313.2,1048.1,1334,1048,1333.8,1048.2z"/>
	<path class="st6" d="M1298.7,1048.3l31.2,31.3h-19.5l-32.2-31.4C1278.1,1048.2,1298.9,1048.1,1298.7,1048.3z"/>
	<path class="st6" d="M1264.2,1048.4l31.2,31.2h-19.5l-32.2-31.3C1243.7,1048.3,1264.5,1048.2,1264.2,1048.4z"/>
	<path class="st6" d="M1229.8,1048.4l31.2,31.2h-19.5l-32.2-31.3C1209.2,1048.3,1230.1,1048.2,1229.8,1048.4z"/>
	<path class="st6" d="M1194.2,1048.8l31.2,30.8h-19.5l-32.2-30.9C1173.7,1048.6,1194.5,1048.5,1194.2,1048.8z"/>
	<path class="st6" d="M1159.4,1048.8l31.2,30.8H1171l-32.2-30.9C1138.8,1048.6,1159.6,1048.5,1159.4,1048.8z"/>
	<path class="st6" d="M1124,1049l31.2,30.6h-19.5l-32.2-30.7C1103.4,1048.9,1124.3,1048.8,1124,1049z"/>
	<path class="st6" d="M1089.1,1049.1l31.2,30.5h-19.5l-32.2-30.6C1068.6,1049,1089.4,1048.9,1089.1,1049.1z"/>
	<path class="st6" d="M1054,1049.2l31.2,30.4h-19.5l-32.2-30.5C1033.4,1049.1,1054.3,1049,1054,1049.2z"/>
	<polygon class="st1" points="1695.3,915.7 1695.3,1056.2 1688.2,1046.9 1688.2,921.1 	"/>
	<polygon class="st87" points="1596.3,921.9 1688.2,921.1 1695.3,915.7 1592.2,915.7 1523.7,988.5 1111,988.5 1012.8,1037.6 
		1012.8,1057 1020.4,1049.1 1020.4,1043.3 1117,995.9 1527,995.9 	"/>
	<polyline class="st1" points="1688.2,1046.9 1020.4,1049.1 1012.8,1057 1695.3,1056.2 	"/>
	<path class="st91" d="M1601.7,938.3h74.3v98.1h-74.3C1601.7,1036.4,1602,938.6,1601.7,938.3z"/>
	<polygon class="st6" points="1628.9,1019.6 1628.9,1028.7 1650.9,1028.7 1650.9,1018.6 1628.7,1018.6 	"/>
	<g>
		<path class="st9" d="M960,1128.3c0,0-1.2,10.4,0.5,11.5c1.8,1.1,20.5-5,22-8.7C982.5,1131.1,968.8,1131.2,960,1128.3z"/>
		<path class="st53" d="M287.2,1152.7l133.9-1.2c0,0,16.3-56.8-50.4-76.5S282.9,1117.8,287.2,1152.7z"/>
		<polygon class="st53" points="865.3,1151.5 874.4,1151.2 893.8,1103.9 831.1,1065.2 758.4,1077.5 743.7,1137.7 751.3,1154.8 		"/>
		<circle class="st14" cx="812.4" cy="1141.6" r="53.9"/>
		<g>
			<g>
				<path class="st54" d="M812.5,1179.2c-2.5,0-4.9-0.3-7.4-0.8c-18.8-4-30.8-22.7-26.8-41.5c3.4-16,17.8-27.6,34.1-27.6
					c2.5,0,4.9,0.3,7.4,0.8c9.1,2,16.9,7.4,22,15.2s6.8,17.2,4.8,26.3C843.2,1167.6,828.8,1179.2,812.5,1179.2z"/>
				<path class="st55" d="M812.4,1110.8c2.3,0,4.7,0.2,7.1,0.8c18,3.9,29.5,21.6,25.6,39.7c-3.4,15.7-17.2,26.4-32.6,26.4
					c-2.3,0-4.7-0.2-7.1-0.8c-18-3.9-29.5-21.6-25.6-39.7C783.2,1121.5,797,1110.8,812.4,1110.8 M812.4,1107.8L812.4,1107.8
					c-17,0-32,12.1-35.6,28.8c-4.2,19.6,8.3,39,27.9,43.2c2.5,0.5,5.1,0.8,7.7,0.8c17,0,32-12.1,35.6-28.8
					c4.2-19.6-8.3-39-27.9-43.2C817.6,1108.1,815,1107.8,812.4,1107.8L812.4,1107.8z"/>
			</g>
			<g>
				<path class="st56" d="M812.4,1163.6c-1.3,0-2.7-0.1-4-0.4c-10.3-2.2-16.8-12.3-14.6-22.6c1.9-8.7,9.7-15,18.6-15
					c1.3,0,2.7,0.1,4,0.4c5,1.1,9.2,4,12,8.3c2.8,4.3,3.7,9.4,2.6,14.3C829.1,1157.3,821.3,1163.6,812.4,1163.6z"/>
				<path class="st57" d="M812.4,1126.6L812.4,1126.6c1.3,0,2.6,0.1,3.8,0.4c9.7,2.1,15.9,11.7,13.8,21.4
					c-1.8,8.3-9.2,14.2-17.6,14.2c-1.3,0-2.6-0.1-3.8-0.4c-9.7-2.1-15.9-11.7-13.8-21.4C796.6,1132.6,804,1126.6,812.4,1126.6
					 M812.4,1124.6c-9.2,0-17.5,6.4-19.6,15.8c-2.3,10.8,4.6,21.5,15.4,23.8c1.4,0.3,2.8,0.5,4.2,0.5c9.2,0,17.5-6.4,19.6-15.8
					c2.3-10.8-4.6-21.5-15.4-23.8C815.2,1124.7,813.8,1124.6,812.4,1124.6L812.4,1124.6z"/>
			</g>
			<circle class="st58" cx="812.7" cy="1144.6" r="6.7"/>
			<g>
				<path class="st59" d="M805.7,1121.6c-0.1,0-0.3,0-0.4,0c-0.6-0.1-1-0.4-1.3-0.9c-0.3-0.5-0.4-1-0.3-1.6c0.2-1,1.1-1.7,2.1-1.7
					c0.1,0,0.3,0,0.4,0c1.1,0.2,1.9,1.4,1.6,2.5C807.5,1120.9,806.7,1121.6,805.7,1121.6z"/>
				<path class="st60" d="M805.7,1117.6L805.7,1117.6c0.1,0,0.3,0,0.4,0c0.5,0.1,0.9,0.4,1.2,0.8c0.3,0.4,0.4,0.9,0.3,1.4
					c-0.2,0.9-0.9,1.5-1.8,1.5c-0.1,0-0.3,0-0.4,0c-0.5-0.1-0.9-0.4-1.2-0.8c-0.3-0.4-0.4-0.9-0.3-1.4
					C804,1118.2,804.8,1117.6,805.7,1117.6 M805.7,1117.1c-1.1,0-2.1,0.8-2.3,1.9c-0.3,1.3,0.5,2.5,1.8,2.8c0.2,0,0.3,0.1,0.5,0.1
					c1.1,0,2.1-0.8,2.3-1.9c0.3-1.3-0.5-2.5-1.8-2.8C806,1117.1,805.8,1117.1,805.7,1117.1L805.7,1117.1z"/>
			</g>
			<g>
				<path class="st59" d="M819.9,1121.5c-0.1,0-0.3,0-0.4,0c-0.6-0.1-1-0.4-1.3-0.9c-0.3-0.5-0.4-1-0.3-1.6c0.2-1,1.1-1.7,2.1-1.7
					c0.1,0,0.3,0,0.4,0c1.1,0.2,1.9,1.4,1.6,2.5C821.8,1120.8,820.9,1121.5,819.9,1121.5z"/>
				<g>
					<path class="st60" d="M819.9,1117.5L819.9,1117.5c0.1,0,0.3,0,0.4,0c0.5,0.1,0.9,0.4,1.2,0.8c0.3,0.4,0.4,0.9,0.3,1.4
						c-0.2,0.9-0.9,1.5-1.8,1.5c-0.1,0-0.3,0-0.4,0c-0.5-0.1-0.9-0.4-1.2-0.8c-0.3-0.4-0.4-0.9-0.3-1.4
						C818.3,1118.1,819.1,1117.5,819.9,1117.5 M819.9,1117c-1.1,0-2.1,0.8-2.3,1.9c-0.3,1.3,0.5,2.5,1.8,2.8c0.2,0,0.3,0.1,0.5,0.1
						c1.1,0,2.1-0.8,2.3-1.9c0.3-1.3-0.5-2.5-1.8-2.8C820.3,1117,820.1,1117,819.9,1117L819.9,1117z"/>
				</g>
			</g>
			<g>
				<path class="st61" d="M814.8,1134.2c-0.1,0-0.2,0-0.3,0c-0.3-0.1-0.6-0.3-0.8-0.6c-0.2-0.3-0.3-0.6-0.2-1c0.1-0.6,0.7-1,1.3-1
					c0.1,0,0.2,0,0.3,0c0.7,0.2,1.2,0.8,1,1.6C816,1133.7,815.5,1134.2,814.8,1134.2z"/>
				<g>
					<path class="st62" d="M814.8,1131.8L814.8,1131.8c0.1,0,0.1,0,0.2,0c0.3,0.1,0.5,0.2,0.7,0.5s0.2,0.5,0.1,0.8
						c-0.1,0.5-0.5,0.8-1,0.8c-0.1,0-0.1,0-0.2,0c-0.6-0.1-0.9-0.7-0.8-1.3C813.9,1132.1,814.3,1131.8,814.8,1131.8 M814.8,1131.3
						c-0.7,0-1.4,0.5-1.5,1.2c-0.2,0.8,0.4,1.7,1.2,1.9c0.1,0,0.2,0,0.3,0c0.7,0,1.4-0.5,1.5-1.2c0.2-0.8-0.4-1.7-1.2-1.9
						C815.1,1131.3,815,1131.3,814.8,1131.3L814.8,1131.3z"/>
				</g>
			</g>
			<g>
				<path class="st61" d="M823.7,1148c-0.1,0-0.2,0-0.3,0c-0.7-0.2-1.2-0.8-1-1.6c0.1-0.6,0.7-1,1.3-1c0.1,0,0.2,0,0.3,0
					c0.7,0.2,1.2,0.8,1,1.6C824.9,1147.5,824.4,1148,823.7,1148z"/>
				<g>
					<path class="st62" d="M823.7,1145.6L823.7,1145.6c0.1,0,0.1,0,0.2,0c0.6,0.1,0.9,0.7,0.8,1.3c-0.1,0.5-0.5,0.8-1,0.8
						c-0.1,0-0.1,0-0.2,0c-0.3-0.1-0.5-0.2-0.7-0.5s-0.2-0.5-0.1-0.8C822.8,1145.9,823.3,1145.6,823.7,1145.6 M823.7,1145.1
						c-0.7,0-1.4,0.5-1.5,1.2c-0.2,0.8,0.4,1.7,1.2,1.9c0.1,0,0.2,0,0.3,0c0.7,0,1.4-0.5,1.5-1.2c0.2-0.8-0.4-1.7-1.2-1.9
						C824,1145.1,823.9,1145.1,823.7,1145.1L823.7,1145.1z"/>
				</g>
			</g>
			<g>
				<path class="st61" d="M810.2,1156.5c-0.1,0-0.2,0-0.3,0c-0.3-0.1-0.6-0.3-0.8-0.6c-0.2-0.3-0.3-0.6-0.2-1c0.1-0.6,0.7-1,1.3-1
					c0.1,0,0.2,0,0.3,0c0.3,0.1,0.6,0.3,0.8,0.6c0.2,0.3,0.3,0.6,0.2,1C811.4,1156.1,810.8,1156.5,810.2,1156.5z"/>
				<g>
					<path class="st62" d="M810.2,1154.1L810.2,1154.1c0.1,0,0.1,0,0.2,0c0.6,0.1,0.9,0.7,0.8,1.3c-0.1,0.5-0.5,0.8-1,0.8
						c-0.1,0-0.1,0-0.2,0c-0.6-0.1-0.9-0.7-0.8-1.3C809.3,1154.5,809.7,1154.1,810.2,1154.1 M810.2,1153.6c-0.7,0-1.4,0.5-1.5,1.2
						c-0.2,0.8,0.4,1.7,1.2,1.9c0.1,0,0.2,0,0.3,0c0.7,0,1.4-0.5,1.5-1.2c0.2-0.8-0.4-1.7-1.2-1.9
						C810.4,1153.7,810.3,1153.6,810.2,1153.6L810.2,1153.6z"/>
				</g>
			</g>
			<g>
				<path class="st61" d="M800.9,1143.7c-0.1,0-0.2,0-0.3,0c-0.3-0.1-0.6-0.3-0.8-0.6c-0.2-0.3-0.3-0.6-0.2-1c0.1-0.6,0.7-1,1.3-1
					c0.1,0,0.2,0,0.3,0c0.7,0.2,1.2,0.8,1,1.6C802.1,1143.3,801.6,1143.7,800.9,1143.7z"/>
				<g>
					<path class="st62" d="M800.9,1141.4L800.9,1141.4c0.1,0,0.1,0,0.2,0c0.6,0.1,0.9,0.7,0.8,1.3c-0.1,0.5-0.5,0.8-1,0.8
						c-0.1,0-0.1,0-0.2,0c-0.3-0.1-0.5-0.2-0.7-0.5c-0.2-0.2-0.2-0.5-0.1-0.8C800,1141.7,800.4,1141.4,800.9,1141.4 M800.9,1140.9
						c-0.7,0-1.4,0.5-1.5,1.2c-0.2,0.8,0.4,1.7,1.2,1.9c0.1,0,0.2,0,0.3,0c0.7,0,1.4-0.5,1.5-1.2c0.2-0.8-0.4-1.7-1.2-1.9
						C801.2,1140.9,801,1140.9,800.9,1140.9L800.9,1140.9z"/>
				</g>
			</g>
			<g>
				<path class="st59" d="M832.8,1129.9c-0.1,0-0.3,0-0.4,0c-0.6-0.1-1-0.4-1.3-0.9c-0.3-0.5-0.4-1-0.3-1.6c0.2-1,1.1-1.7,2.1-1.7
					c0.1,0,0.3,0,0.4,0c1.1,0.2,1.9,1.4,1.6,2.5C834.6,1129.1,833.8,1129.9,832.8,1129.9z"/>
				<g>
					<path class="st60" d="M832.8,1125.9L832.8,1125.9c0.1,0,0.3,0,0.4,0c1,0.2,1.6,1.2,1.4,2.2c-0.2,0.9-0.9,1.5-1.8,1.5
						c-0.1,0-0.3,0-0.4,0c-0.5-0.1-0.9-0.4-1.2-0.8s-0.4-0.9-0.3-1.4C831.2,1126.5,831.9,1125.9,832.8,1125.9 M832.8,1125.4
						c-1.1,0-2.1,0.8-2.3,1.9c-0.3,1.3,0.5,2.5,1.8,2.8c0.2,0,0.3,0.1,0.5,0.1c1.1,0,2.1-0.8,2.3-1.9c0.3-1.3-0.5-2.5-1.8-2.8
						C833.1,1125.4,833,1125.4,832.8,1125.4L832.8,1125.4z"/>
				</g>
			</g>
			<g>
				<path class="st59" d="M838.2,1140.9c-0.1,0-0.3,0-0.4,0c-0.6-0.1-1-0.4-1.3-0.9c-0.3-0.5-0.4-1-0.3-1.6c0.2-1,1.1-1.7,2.1-1.7
					c0.1,0,0.3,0,0.4,0c0.6,0.1,1,0.4,1.3,0.9c0.3,0.5,0.4,1,0.3,1.6C840,1140.2,839.2,1140.9,838.2,1140.9z"/>
				<g>
					<path class="st60" d="M838.2,1136.9L838.2,1136.9c0.1,0,0.3,0,0.4,0c0.5,0.1,0.9,0.4,1.2,0.8c0.3,0.4,0.4,0.9,0.3,1.4
						c-0.2,0.9-0.9,1.5-1.8,1.5c-0.1,0-0.3,0-0.4,0c-0.5-0.1-0.9-0.4-1.2-0.8c-0.3-0.4-0.4-0.9-0.3-1.4
						C836.5,1137.5,837.3,1136.9,838.2,1136.9 M838.2,1136.4c-1.1,0-2.1,0.8-2.3,1.9c-0.3,1.3,0.5,2.5,1.8,2.8
						c0.2,0,0.3,0.1,0.5,0.1c1.1,0,2.1-0.8,2.3-1.9c0.3-1.3-0.5-2.5-1.8-2.8C838.5,1136.4,838.3,1136.4,838.2,1136.4L838.2,1136.4z"
						/>
				</g>
			</g>
			<g>
				<path class="st59" d="M837.5,1153.7c-0.1,0-0.3,0-0.4,0c-0.6-0.1-1-0.4-1.3-0.9c-0.3-0.5-0.4-1-0.3-1.6c0.2-1,1.1-1.7,2.1-1.7
					c0.1,0,0.3,0,0.4,0c0.6,0.1,1,0.4,1.3,0.9c0.3,0.5,0.4,1,0.3,1.6C839.3,1153,838.4,1153.7,837.5,1153.7z"/>
				<g>
					<path class="st60" d="M837.4,1149.8L837.4,1149.8c0.1,0,0.3,0,0.4,0c0.5,0.1,0.9,0.4,1.2,0.8c0.3,0.4,0.4,0.9,0.3,1.4
						c-0.2,0.9-0.9,1.5-1.8,1.5c-0.1,0-0.3,0-0.4,0c-0.5-0.1-0.9-0.4-1.2-0.8c-0.3-0.4-0.4-0.9-0.3-1.4
						C835.8,1150.4,836.6,1149.8,837.4,1149.8 M837.4,1149.3c-1.1,0-2.1,0.8-2.3,1.9c-0.3,1.3,0.5,2.5,1.8,2.8
						c0.2,0,0.3,0.1,0.5,0.1c1.1,0,2.1-0.8,2.3-1.9c0.3-1.3-0.5-2.5-1.8-2.8C837.8,1149.3,837.6,1149.3,837.4,1149.3L837.4,1149.3z"
						/>
				</g>
			</g>
			<g>
				<path class="st59" d="M831.3,1164.5c-0.1,0-0.3,0-0.4,0c-0.6-0.1-1-0.4-1.3-0.9c-0.3-0.5-0.4-1-0.3-1.6c0.2-1,1.1-1.7,2.1-1.7
					c0.1,0,0.3,0,0.4,0c1.1,0.2,1.9,1.4,1.6,2.5C833.2,1163.8,832.3,1164.5,831.3,1164.5z"/>
				<g>
					<path class="st60" d="M831.3,1160.5L831.3,1160.5c0.1,0,0.3,0,0.4,0c0.5,0.1,0.9,0.4,1.2,0.8c0.3,0.4,0.4,0.9,0.3,1.4
						c-0.2,0.9-0.9,1.5-1.8,1.5c-0.1,0-0.3,0-0.4,0c-0.5-0.1-0.9-0.4-1.2-0.8c-0.3-0.4-0.4-0.9-0.3-1.4
						C829.7,1161.2,830.5,1160.5,831.3,1160.5 M831.3,1160c-1.1,0-2.1,0.8-2.3,1.9c-0.3,1.3,0.5,2.5,1.8,2.8c0.2,0,0.3,0.1,0.5,0.1
						c1.1,0,2.1-0.8,2.3-1.9c0.3-1.3-0.5-2.5-1.8-2.8C831.7,1160.1,831.5,1160,831.3,1160L831.3,1160z"/>
				</g>
			</g>
			<g>
				<path class="st59" d="M820.1,1171.4c-0.1,0-0.3,0-0.4,0c-1.1-0.2-1.9-1.4-1.6-2.5c0.2-1,1.1-1.7,2.1-1.7c0.1,0,0.3,0,0.4,0
					c0.6,0.1,1,0.4,1.3,0.9c0.3,0.5,0.4,1,0.3,1.6C821.9,1170.7,821.1,1171.4,820.1,1171.4z"/>
				<g>
					<path class="st60" d="M820.1,1167.4L820.1,1167.4c0.1,0,0.3,0,0.4,0c0.5,0.1,0.9,0.4,1.2,0.8s0.4,0.9,0.3,1.4
						c-0.2,0.9-0.9,1.5-1.8,1.5c-0.1,0-0.3,0-0.4,0c-0.5-0.1-0.9-0.4-1.2-0.8s-0.4-0.9-0.3-1.4
						C818.4,1168,819.2,1167.4,820.1,1167.4 M820.1,1166.9c-1.1,0-2.1,0.8-2.3,1.9c-0.3,1.3,0.5,2.5,1.8,2.8c0.2,0,0.3,0.1,0.5,0.1
						c1.1,0,2.1-0.8,2.3-1.9c0.3-1.3-0.5-2.5-1.8-2.8C820.4,1166.9,820.2,1166.9,820.1,1166.9L820.1,1166.9z"/>
				</g>
			</g>
			<g>
				<path class="st59" d="M807,1172.7c-0.1,0-0.3,0-0.4,0c-1.1-0.2-1.9-1.4-1.6-2.5c0.2-1,1.1-1.7,2.1-1.7c0.1,0,0.3,0,0.4,0
					c1.1,0.2,1.9,1.4,1.6,2.5C808.9,1172,808,1172.7,807,1172.7z"/>
				<g>
					<path class="st60" d="M807,1168.7L807,1168.7c0.1,0,0.3,0,0.4,0c0.5,0.1,0.9,0.4,1.2,0.8c0.3,0.4,0.4,0.9,0.3,1.4
						c-0.2,0.9-0.9,1.5-1.8,1.5c-0.1,0-0.3,0-0.4,0c-0.5-0.1-0.9-0.4-1.2-0.8c-0.3-0.4-0.4-0.9-0.3-1.4
						C805.4,1169.3,806.1,1168.7,807,1168.7 M807,1168.2c-1.1,0-2.1,0.8-2.3,1.9c-0.3,1.3,0.5,2.5,1.8,2.8c0.2,0,0.3,0.1,0.5,0.1
						c1.1,0,2.1-0.8,2.3-1.9c0.3-1.3-0.5-2.5-1.8-2.8C807.3,1168.2,807.2,1168.2,807,1168.2L807,1168.2z"/>
				</g>
			</g>
			<g>
				<path class="st59" d="M796.3,1167.8c-0.1,0-0.3,0-0.4,0c-1.1-0.2-1.9-1.4-1.6-2.5c0.2-1,1.1-1.7,2.1-1.7c0.1,0,0.3,0,0.4,0
					c1.1,0.2,1.9,1.4,1.6,2.5C798.2,1167.1,797.3,1167.8,796.3,1167.8z"/>
				<g>
					<path class="st60" d="M796.3,1163.8L796.3,1163.8c0.1,0,0.3,0,0.4,0c0.5,0.1,0.9,0.4,1.2,0.8s0.4,0.9,0.3,1.4
						c-0.2,0.9-0.9,1.5-1.8,1.5c-0.1,0-0.3,0-0.4,0c-0.5-0.1-0.9-0.4-1.2-0.8s-0.4-0.9-0.3-1.4
						C794.7,1164.4,795.5,1163.8,796.3,1163.8 M796.3,1163.3c-1.1,0-2.1,0.8-2.3,1.9c-0.3,1.3,0.5,2.5,1.8,2.8
						c0.2,0,0.3,0.1,0.5,0.1c1.1,0,2.1-0.8,2.3-1.9c0.3-1.3-0.5-2.5-1.8-2.8C796.7,1163.3,796.5,1163.3,796.3,1163.3L796.3,1163.3z"
						/>
				</g>
			</g>
			<g>
				<path class="st59" d="M788.7,1158.1c-0.1,0-0.3,0-0.4,0c-0.6-0.1-1-0.4-1.3-0.9c-0.3-0.5-0.4-1-0.3-1.6c0.2-1,1.1-1.7,2.1-1.7
					c0.1,0,0.3,0,0.4,0c1.1,0.2,1.9,1.4,1.6,2.5C790.6,1157.4,789.7,1158.1,788.7,1158.1z"/>
				<g>
					<path class="st60" d="M788.7,1154.1L788.7,1154.1c0.1,0,0.3,0,0.4,0c0.5,0.1,0.9,0.4,1.2,0.8c0.3,0.4,0.4,0.9,0.3,1.4
						c-0.2,0.9-0.9,1.5-1.8,1.5c-0.1,0-0.3,0-0.4,0c-0.5-0.1-0.9-0.4-1.2-0.8c-0.3-0.4-0.4-0.9-0.3-1.4
						C787.1,1154.7,787.9,1154.1,788.7,1154.1 M788.7,1153.6c-1.1,0-2.1,0.8-2.3,1.9c-0.3,1.3,0.5,2.5,1.8,2.8
						c0.2,0,0.3,0.1,0.5,0.1c1.1,0,2.1-0.8,2.3-1.9c0.3-1.3-0.5-2.5-1.8-2.8C789.1,1153.6,788.9,1153.6,788.7,1153.6L788.7,1153.6z"
						/>
				</g>
			</g>
			<g>
				<path class="st59" d="M785.8,1146.4c-0.1,0-0.3,0-0.4,0c-1.1-0.2-1.9-1.4-1.6-2.5c0.2-1,1.1-1.7,2.1-1.7c0.1,0,0.3,0,0.4,0
					c1.1,0.2,1.9,1.4,1.6,2.5C787.6,1145.7,786.8,1146.4,785.8,1146.4z"/>
				<g>
					<path class="st60" d="M785.8,1142.5L785.8,1142.5c0.1,0,0.3,0,0.4,0c0.5,0.1,0.9,0.4,1.2,0.8c0.3,0.4,0.4,0.9,0.3,1.4
						c-0.2,0.9-0.9,1.5-1.8,1.5c-0.1,0-0.3,0-0.4,0c-0.5-0.1-0.9-0.4-1.2-0.8c-0.3-0.4-0.4-0.9-0.3-1.4
						C784.2,1143.1,784.9,1142.5,785.8,1142.5 M785.8,1142c-1.1,0-2.1,0.8-2.3,1.9c-0.3,1.3,0.5,2.5,1.8,2.8c0.2,0,0.3,0.1,0.5,0.1
						c1.1,0,2.1-0.8,2.3-1.9c0.3-1.3-0.5-2.5-1.8-2.8C786.1,1142,786,1142,785.8,1142L785.8,1142z"/>
				</g>
			</g>
			<g>
				<path class="st59" d="M787.8,1135.8c-0.1,0-0.3,0-0.4,0c-0.6-0.1-1-0.4-1.3-0.9c-0.3-0.5-0.4-1-0.3-1.6c0.2-1,1.1-1.7,2.1-1.7
					c0.1,0,0.3,0,0.4,0c0.6,0.1,1,0.4,1.3,0.9c0.3,0.5,0.4,1,0.3,1.6C789.7,1135.1,788.8,1135.8,787.8,1135.8z"/>
				<g>
					<path class="st60" d="M787.8,1131.8L787.8,1131.8c0.1,0,0.3,0,0.4,0c0.5,0.1,0.9,0.4,1.2,0.8c0.3,0.4,0.4,0.9,0.3,1.4
						c-0.2,0.9-0.9,1.5-1.8,1.5c-0.1,0-0.3,0-0.4,0c-1-0.2-1.6-1.2-1.4-2.2C786.2,1132.4,786.9,1131.8,787.8,1131.8 M787.8,1131.3
						c-1.1,0-2.1,0.8-2.3,1.9c-0.3,1.3,0.5,2.5,1.8,2.8c0.2,0,0.3,0.1,0.5,0.1c1.1,0,2.1-0.8,2.3-1.9c0.3-1.3-0.5-2.5-1.8-2.8
						C788.1,1131.3,788,1131.3,787.8,1131.3L787.8,1131.3z"/>
				</g>
			</g>
			<g>
				<path class="st59" d="M794.3,1126.6c-0.1,0-0.3,0-0.4,0c-1.1-0.2-1.9-1.4-1.6-2.5c0.2-1,1.1-1.7,2.1-1.7c0.1,0,0.3,0,0.4,0
					c0.6,0.1,1,0.4,1.3,0.9c0.3,0.5,0.4,1,0.3,1.6C796.2,1125.9,795.3,1126.6,794.3,1126.6z"/>
				<g>
					<path class="st60" d="M794.3,1122.6L794.3,1122.6c0.1,0,0.3,0,0.4,0c0.5,0.1,0.9,0.4,1.2,0.8s0.4,0.9,0.3,1.4
						c-0.2,0.9-0.9,1.5-1.8,1.5c-0.1,0-0.3,0-0.4,0c-1-0.2-1.6-1.2-1.4-2.2C792.7,1123.2,793.4,1122.6,794.3,1122.6 M794.3,1122.1
						c-1.1,0-2.1,0.8-2.3,1.9c-0.3,1.3,0.5,2.5,1.8,2.8c0.2,0,0.3,0.1,0.5,0.1c1.1,0,2.1-0.8,2.3-1.9c0.3-1.3-0.5-2.5-1.8-2.8
						C794.6,1122.1,794.5,1122.1,794.3,1122.1L794.3,1122.1z"/>
				</g>
			</g>
		</g>
		<path class="st63" d="M853,1176.9c0,0,27.8-48.7-17.3-78.2c0,0-26.9-12.2-47.3,0.3c-20.5,12.5-26.6,34.3-28.3,54
			c0,0-3.7-7-0.3-22.8c3.3-15.8,20.7-48.7,64-41.3c0,0,49.4,9.3,41.3,64C865.1,1153,862.7,1167,853,1176.9z"/>
		<path class="st11" d="M778.1,1013.4c0,0,159.5,18.9,163.3,47.9c0,0,6.9,5.9,8,17.6c0,0,17.5,5.2,14.5,24.3c0,0-2.1,29.6-1.1,37.9
			s-1.7,7.7-8,8.9s-53.2,2.5-80.3,1.4c0,0,11.3-47.5-37.1-71.3c0,0-26.4-11-50.1-0.2s-34.2,26.7-37.1,49.4
			c-2.9,22.8,1.2,25.6,1.2,25.6s-7.1,3.2-14.4-14.8l-2.2-0.2c0,0,11.9-70.8-7.3-110c0,0,24.6-2.8,32.5-13.6
			C759.9,1016.2,771.8,1013.1,778.1,1013.4z"/>
		<path class="st64" d="M759.9,1016.2l134,25.8c0,0,28.6,5.9,35,15.8l12.5,3.4c0,0-1.5-13.9-34.8-23s-56.9-14.4-128.5-24.8
			C778.1,1013.4,767.3,1013.6,759.9,1016.2z"/>
		<path class="st64" d="M963.1,1113.8c0,0-41.5-2.8-49.6-0.6c0,0,37.8-24.9,35.7-36.1l1.6,2.8c0,0,13.6,4.7,13.4,17.7
			C964.1,1110.4,963.1,1113.8,963.1,1113.8z"/>
		<path class="st65" d="M874.4,1151.2c0,0,4.9-7.6,17.7-7.6c12.8,0.1,67.3,0.2,71-4.5c0,0,3.2,10.9-8.3,10.7
			C943.2,1149.6,874.4,1151.2,874.4,1151.2z"/>
		<path class="st65" d="M963.1,1113.8l0.1,2.5c0,0-48.5-1.8-57.1,4.1c0,0-3.8,1.6-6.1,5.4c0,0,1.7-8.2,13.6-12.6
			C913.5,1113.2,924.3,1111.4,963.1,1113.8z"/>
		<path class="st64" d="M963,1139.1c0,0-1.4,1.4-5.2,1.7c-3.7,0.3-65.8-2.7-57.9-15.1c0,0,2.6-4,8-6.1c0,0-9,6.7-0.2,9.9
			S949.8,1139.6,963,1139.1z"/>
		<path class="st66" d="M963.2,1116.2c0,0-0.6,16.1-0.1,22.9c0,0-30.7-1.2-55.3-9.5c0,0-8.6-4.2,0.2-9.9
			C916.7,1114,963.2,1116.2,963.2,1116.2z"/>
		<path class="st28" d="M941.4,1061.2c0,0-6-1.6-15.1-3.7c-11.7-2.7-28.7-6.4-44.9-8.6c0,0-11.7,0.3-7,5
			c4.7,4.7,19.3,19.9,19.3,19.9l14.2,7.3c0,0,42.8,5.6,41.3-4C947.8,1067.4,941.4,1061.2,941.4,1061.2z"/>
		<path class="st67" d="M925.6,1060.3c0,0,10.8,12.8,1.3,22.1c0,0,23.9,3.3,22.4-5.4c-2-11.4-7.8-15.8-7.8-15.8l-28.6-6.8
			C912.9,1054.5,922.7,1056.6,925.6,1060.3z"/>
		<path class="st11" d="M759.9,1016.2c0,0-76-46.4-121.9-59.9l14.5-6.4c0,0-59.9-19.4-145.5-15.7c-85.6,3.8-142,20.4-142,20.4
			l14,4.8l-96.5,43.7l-19.3-2.2l-65.8,15.2c0,0-5.4,13.4-2.1,16.3l2.7-4.1c0,0,27.8,2.7,37.6,18.3c9.8,15.6,15.5,26.3,15.5,26.3
			s4.5,7.9,13.2,9.8c8.7,1.9,50.1,12.6,50.1,12.6s32.5-28.3,77.7-4l13.3-4.4l-30.9-47.4c0,0,0.2-12.7,3-15.7c2.8-3,4-8.3,4-8.3
			s-33.8-12-22.1-20.8c11.7-8.8,59.8-30.8,59.8-30.8s91.5-10.5,110.3-10.1c18.8,0.4,105.6,10,139.5,26.7s63.6,31.1,76.6,40.1
			c0,0,1.7,4.1-1.3,5.3C744.1,1025.9,755.9,1024.8,759.9,1016.2z"/>
		<path class="st68" d="M382,960.2c52.1-12.8,58.9-11,127.5-16.5S638,956.3,638,956.3"/>
		<path class="st69" d="M282.4,1003.2c0,0-27.1,12.2-62.3,15.9l-19.7,2.6l-2.3,6.6"/>
		<g>
			<path class="st70" d="M200.3,1021.8l174.8,8.1c0,0,0.3-3.4,2.3-6.2s3.4-6.1,4-8.3l-119.9-4.6
				C261.5,1010.9,239.7,1018.1,200.3,1021.8z"/>
		</g>
		<g>
			<path class="st71" d="M451.2,949c0,0-29.9,8.6-32.2,14.9l-59.8,30.8l10.1,15.9l-86.1-6.3C283.3,1004.2,364.8,953.5,451.2,949z"/>
		</g>
		<path class="st64" d="M578.4,954.7c0,0,45.5,5.1,67.6,4.1c0,0,51.8,19,99.2,48.9c0,0-0.4,7.1-7.9,8.3l-68.5-35.7
			c0,0-25.4-13.1-70.1-18.5l-25.9-4.5L578.4,954.7z"/>
		<path class="st11" d="M727.4,1029.8c0,0-315.7-10.5-346-14.4c0,0-1.2,5.2-4,8.3c0,0-2,3.2-2.3,6.2l-0.7,9.5l30.9,47.4l-13.3,4.4
			c0,0,34.9,22.7,25.3,64.3c0,0,1.3,1.6,12.8,1.4c11.5-0.1,321.1-2.2,321.1-2.2s-6.9,1.5-14.4-14.8l-2.2-0.2
			C734.7,1139.8,747.9,1071.6,727.4,1029.8z"/>
		<g>
			<path class="st70" d="M381.3,1030.6l351.8,14.5c0,0-2-8.3-5.7-15.3l-346-14.4c0,0-0.6,4.9-4,8.3c0,0-2.2,3.2-2.3,6.2
				L381.3,1030.6z"/>
		</g>
		<path class="st65" d="M405.3,1086.9l24,35.7c0,0,4.8,18.8,36.7,18.9c31.8,0.1,268.7-1.5,268.7-1.5l2.2,0.2c0,0,4.9,14.2,14.4,14.8
			l-321.1,2.2c0,0-9.9,0.7-12.8-1.4c0,0,10.6-37.7-25.3-64.3L405.3,1086.9z"/>
		<path class="st72" d="M561.3,1046.7c0,0-5.9,3.9,0.3,5c6.3,1.1,29.7,0.1,29.7,0.1s5.7-2.4-1.4-4.8L561.3,1046.7z"/>
		<path class="st72" d="M415.2,1043.8c0,0-5.9,3.9,0.3,5c6.3,1.1,29.7,0.1,29.7,0.1s5.7-2.4-1.4-4.8L415.2,1043.8z"/>
		<path class="st73" d="M584.7,1053.9c0,0-4.6,6.6-15.1-0.4"/>
		<path class="st74" d="M583.9,1045.4c0,0-6.4-6.9-14.6-0.3"/>
		<path class="st73" d="M438.2,1051.2c0,0-4.6,6.6-15.1-0.4"/>
		<path class="st74" d="M437.4,1042.6c0,0-6.4-6.9-14.6-0.3"/>
		<g>
			<path class="st71" d="M738.8,1098.4c0,0-7.4,25.3-27.2,24.9c-19.8-0.4-246.7-0.5-246.7-0.5s-30.3,1.7-49-20.3l13.4,20
				c0,0,3.7,18.4,36.7,18.9c33,0.4,268.7-1.5,268.7-1.5S737.5,1124.7,738.8,1098.4z"/>
		</g>
		<circle class="st14" cx="356.2" cy="1148.2" r="53.9"/>
		<g>
			<g>
				<path class="st54" d="M356.3,1185.7c-2.5,0-4.9-0.3-7.4-0.8c-9.1-2-16.9-7.4-22-15.2s-6.8-17.2-4.8-26.3
					c3.4-16,17.8-27.6,34.1-27.6c2.5,0,4.9,0.3,7.4,0.8c9.1,2,16.9,7.4,22,15.2c5.1,7.8,6.8,17.2,4.8,26.3
					C386.9,1174.1,372.6,1185.7,356.3,1185.7z"/>
				<path class="st55" d="M356.2,1117.4c2.3,0,4.7,0.2,7.1,0.8c18,3.9,29.5,21.6,25.6,39.7c-3.4,15.7-17.2,26.4-32.6,26.4
					c-2.3,0-4.7-0.2-7.1-0.8c-18-3.9-29.5-21.6-25.6-39.7C327,1128.1,340.8,1117.4,356.2,1117.4 M356.2,1114.4L356.2,1114.4
					c-17,0-32,12.1-35.6,28.8c-4.2,19.6,8.3,39,27.9,43.2c2.5,0.5,5.1,0.8,7.7,0.8c17,0,32-12.1,35.6-28.8
					c4.2-19.6-8.3-39-27.9-43.2C361.4,1114.7,358.8,1114.4,356.2,1114.4L356.2,1114.4z"/>
			</g>
			<g>
				<path class="st56" d="M356.2,1170.2c-1.3,0-2.7-0.1-4-0.4c-5-1.1-9.2-4-12-8.3c-2.8-4.3-3.7-9.4-2.6-14.3
					c1.9-8.7,9.7-15,18.6-15c1.3,0,2.7,0.1,4,0.4c5,1.1,9.2,4,12,8.3c2.8,4.3,3.7,9.4,2.6,14.3
					C372.9,1163.9,365.1,1170.2,356.2,1170.2z"/>
				<path class="st57" d="M356.2,1133.2L356.2,1133.2c1.3,0,2.6,0.1,3.8,0.4c4.7,1,8.7,3.8,11.4,7.8s3.5,8.9,2.5,13.6
					c-1.8,8.3-9.2,14.2-17.6,14.2c-1.3,0-2.6-0.1-3.8-0.4c-9.7-2.1-15.9-11.7-13.8-21.4C340.3,1139.1,347.7,1133.2,356.2,1133.2
					 M356.2,1131.2c-9.2,0-17.5,6.4-19.6,15.8c-2.3,10.8,4.6,21.5,15.4,23.8c1.4,0.3,2.8,0.5,4.2,0.5c9.2,0,17.5-6.4,19.6-15.8
					c2.3-10.8-4.6-21.5-15.4-23.8C359,1131.3,357.6,1131.2,356.2,1131.2L356.2,1131.2z"/>
			</g>
			<circle class="st58" cx="356.5" cy="1151.2" r="6.7"/>
			<g>
				<path class="st59" d="M349.5,1128.2c-0.1,0-0.3,0-0.4,0c-0.6-0.1-1-0.4-1.3-0.9c-0.3-0.5-0.4-1-0.3-1.6c0.2-1,1.1-1.7,2.1-1.7
					c0.1,0,0.3,0,0.4,0c1.1,0.2,1.9,1.4,1.6,2.5C351.3,1127.5,350.5,1128.2,349.5,1128.2z"/>
				<path class="st60" d="M349.5,1124.2L349.5,1124.2c0.1,0,0.3,0,0.4,0c0.5,0.1,0.9,0.4,1.2,0.8s0.4,0.9,0.3,1.4
					c-0.2,0.9-0.9,1.5-1.8,1.5c-0.1,0-0.3,0-0.4,0c-0.5-0.1-0.9-0.4-1.2-0.8s-0.4-0.9-0.3-1.4
					C347.8,1124.8,348.6,1124.2,349.5,1124.2 M349.5,1123.7c-1.1,0-2.1,0.8-2.3,1.9c-0.3,1.3,0.5,2.5,1.8,2.8c0.2,0,0.3,0.1,0.5,0.1
					c1.1,0,2.1-0.8,2.3-1.9c0.3-1.3-0.5-2.5-1.8-2.8C349.8,1123.7,349.6,1123.7,349.5,1123.7L349.5,1123.7z"/>
			</g>
			<g>
				<path class="st59" d="M363.7,1128.1c-0.1,0-0.3,0-0.4,0c-0.6-0.1-1-0.4-1.3-0.9c-0.3-0.5-0.4-1-0.3-1.6c0.2-1,1.1-1.7,2.1-1.7
					c0.1,0,0.3,0,0.4,0c1.1,0.2,1.9,1.4,1.6,2.5C365.6,1127.4,364.7,1128.1,363.7,1128.1z"/>
				<g>
					<path class="st60" d="M363.7,1124.1L363.7,1124.1c0.1,0,0.3,0,0.4,0c0.5,0.1,0.9,0.4,1.2,0.8s0.4,0.9,0.3,1.4
						c-0.2,0.9-0.9,1.5-1.8,1.5c-0.1,0-0.3,0-0.4,0c-1-0.2-1.6-1.2-1.4-2.2C362.1,1124.7,362.9,1124.1,363.7,1124.1 M363.7,1123.6
						c-1.1,0-2.1,0.8-2.3,1.9c-0.3,1.3,0.5,2.5,1.8,2.8c0.2,0,0.3,0.1,0.5,0.1c1.1,0,2.1-0.8,2.3-1.9c0.3-1.3-0.5-2.5-1.8-2.8
						C364.1,1123.6,363.9,1123.6,363.7,1123.6L363.7,1123.6z"/>
				</g>
			</g>
			<g>
				<path class="st61" d="M358.6,1140.7c-0.1,0-0.2,0-0.3,0c-0.7-0.2-1.2-0.8-1-1.6c0.1-0.6,0.7-1,1.3-1c0.1,0,0.2,0,0.3,0
					c0.3,0.1,0.6,0.3,0.8,0.6c0.2,0.3,0.3,0.6,0.2,1C359.8,1140.3,359.2,1140.7,358.6,1140.7z"/>
				<g>
					<path class="st62" d="M358.6,1138.4L358.6,1138.4c0.1,0,0.2,0,0.2,0c0.6,0.1,0.9,0.7,0.8,1.3c-0.1,0.5-0.5,0.8-1,0.8
						c-0.1,0-0.1,0-0.2,0c-0.6-0.1-0.9-0.7-0.8-1.3C357.7,1138.7,358.1,1138.4,358.6,1138.4 M358.6,1137.9c-0.7,0-1.4,0.5-1.5,1.2
						c-0.2,0.8,0.4,1.7,1.2,1.9c0.1,0,0.2,0,0.3,0c0.7,0,1.4-0.5,1.5-1.2c0.2-0.8-0.4-1.7-1.2-1.9
						C358.8,1137.9,358.7,1137.9,358.6,1137.9L358.6,1137.9z"/>
				</g>
			</g>
			<g>
				<path class="st61" d="M367.5,1154.5c-0.1,0-0.2,0-0.3,0c-0.7-0.2-1.2-0.8-1-1.6c0.1-0.6,0.7-1,1.3-1c0.1,0,0.2,0,0.3,0
					c0.3,0.1,0.6,0.3,0.8,0.6c0.2,0.3,0.3,0.6,0.2,1C368.7,1154.1,368.1,1154.5,367.5,1154.5z"/>
				<g>
					<path class="st62" d="M367.5,1152.2L367.5,1152.2c0.1,0,0.1,0,0.2,0c0.6,0.1,0.9,0.7,0.8,1.3c-0.1,0.5-0.5,0.8-1,0.8
						c-0.1,0-0.1,0-0.2,0c-0.3-0.1-0.5-0.2-0.7-0.5s-0.2-0.5-0.1-0.8C366.6,1152.5,367,1152.2,367.5,1152.2 M367.5,1151.7
						c-0.7,0-1.4,0.5-1.5,1.2c-0.2,0.8,0.4,1.7,1.2,1.9c0.1,0,0.2,0,0.3,0c0.7,0,1.4-0.5,1.5-1.2c0.2-0.8-0.4-1.7-1.2-1.9
						C367.8,1151.7,367.6,1151.7,367.5,1151.7L367.5,1151.7z"/>
				</g>
			</g>
			<g>
				<path class="st61" d="M354,1163.1c-0.1,0-0.2,0-0.3,0c-0.3-0.1-0.6-0.3-0.8-0.6c-0.2-0.3-0.3-0.6-0.2-1c0.1-0.6,0.7-1,1.3-1
					c0.1,0,0.2,0,0.3,0c0.3,0.1,0.6,0.3,0.8,0.6c0.2,0.3,0.3,0.6,0.2,1C355.2,1162.7,354.6,1163.1,354,1163.1z"/>
				<g>
					<path class="st62" d="M354,1160.7L354,1160.7c0.1,0,0.1,0,0.2,0c0.6,0.1,0.9,0.7,0.8,1.3c-0.1,0.5-0.5,0.8-1,0.8
						c-0.1,0-0.1,0-0.2,0c-0.3-0.1-0.5-0.2-0.7-0.5c-0.2-0.2-0.2-0.5-0.1-0.8C353.1,1161.1,353.5,1160.7,354,1160.7 M354,1160.2
						c-0.7,0-1.4,0.5-1.5,1.2c-0.2,0.8,0.4,1.7,1.2,1.9c0.1,0,0.2,0,0.3,0c0.7,0,1.4-0.5,1.5-1.2c0.2-0.8-0.4-1.7-1.2-1.9
						C354.2,1160.2,354.1,1160.2,354,1160.2L354,1160.2z"/>
				</g>
			</g>
			<g>
				<path class="st61" d="M344.7,1150.3c-0.1,0-0.2,0-0.3,0c-0.7-0.2-1.2-0.8-1-1.6c0.1-0.6,0.7-1,1.3-1c0.1,0,0.2,0,0.3,0
					c0.3,0.1,0.6,0.3,0.8,0.6c0.2,0.3,0.3,0.6,0.2,1C345.9,1149.9,345.3,1150.3,344.7,1150.3z"/>
				<g>
					<path class="st62" d="M344.7,1148L344.7,1148c0.1,0,0.1,0,0.2,0c0.3,0.1,0.5,0.2,0.7,0.5c0.2,0.2,0.2,0.5,0.1,0.8
						c-0.1,0.5-0.5,0.8-1,0.8c-0.1,0-0.1,0-0.2,0c-0.3-0.1-0.5-0.2-0.7-0.5s-0.2-0.5-0.1-0.8C343.8,1148.3,344.2,1148,344.7,1148
						 M344.7,1147.5c-0.7,0-1.4,0.5-1.5,1.2c-0.2,0.8,0.4,1.7,1.2,1.9c0.1,0,0.2,0,0.3,0c0.7,0,1.4-0.5,1.5-1.2
						c0.2-0.8-0.4-1.7-1.2-1.9C344.9,1147.5,344.8,1147.5,344.7,1147.5L344.7,1147.5z"/>
				</g>
			</g>
			<g>
				<path class="st59" d="M376.6,1136.4c-0.1,0-0.3,0-0.4,0c-0.6-0.1-1-0.4-1.3-0.9c-0.3-0.5-0.4-1-0.3-1.6c0.2-1,1.1-1.7,2.1-1.7
					c0.1,0,0.3,0,0.4,0c1.1,0.2,1.9,1.4,1.6,2.5C378.4,1135.7,377.6,1136.4,376.6,1136.4z"/>
				<g>
					<path class="st60" d="M376.6,1132.5L376.6,1132.5c0.1,0,0.3,0,0.4,0c0.5,0.1,0.9,0.4,1.2,0.8c0.3,0.4,0.4,0.9,0.3,1.4
						c-0.2,0.9-0.9,1.5-1.8,1.5c-0.1,0-0.3,0-0.4,0c-0.5-0.1-0.9-0.4-1.2-0.8s-0.4-0.9-0.3-1.4
						C374.9,1133.1,375.7,1132.5,376.6,1132.5 M376.6,1132c-1.1,0-2.1,0.8-2.3,1.9c-0.3,1.3,0.5,2.5,1.8,2.8c0.2,0,0.3,0.1,0.5,0.1
						c1.1,0,2.1-0.8,2.3-1.9c0.3-1.3-0.5-2.5-1.8-2.8C376.9,1132,376.7,1132,376.6,1132L376.6,1132z"/>
				</g>
			</g>
			<g>
				<path class="st59" d="M382,1147.5c-0.1,0-0.3,0-0.4,0c-0.6-0.1-1-0.4-1.3-0.9c-0.3-0.5-0.4-1-0.3-1.6c0.2-1,1.1-1.7,2.1-1.7
					c0.1,0,0.3,0,0.4,0c1.1,0.2,1.9,1.4,1.6,2.5C383.8,1146.8,382.9,1147.5,382,1147.5z"/>
				<g>
					<path class="st60" d="M382,1143.5L382,1143.5c0.1,0,0.3,0,0.4,0c1,0.2,1.6,1.2,1.4,2.2c-0.2,0.9-0.9,1.5-1.8,1.5
						c-0.1,0-0.3,0-0.4,0c-0.5-0.1-0.9-0.4-1.2-0.8s-0.4-0.9-0.3-1.4C380.3,1144.1,381.1,1143.5,382,1143.5 M382,1143
						c-1.1,0-2.1,0.8-2.3,1.9c-0.3,1.3,0.5,2.5,1.8,2.8c0.2,0,0.3,0.1,0.5,0.1c1.1,0,2.1-0.8,2.3-1.9c0.3-1.3-0.5-2.5-1.8-2.8
						C382.3,1143,382.1,1143,382,1143L382,1143z"/>
				</g>
			</g>
			<g>
				<path class="st59" d="M381.2,1160.3c-0.1,0-0.3,0-0.4,0c-0.6-0.1-1-0.4-1.3-0.9c-0.3-0.5-0.4-1-0.3-1.6c0.2-1,1.1-1.7,2.1-1.7
					c0.1,0,0.3,0,0.4,0c1.1,0.2,1.9,1.4,1.6,2.5C383.1,1159.6,382.2,1160.3,381.2,1160.3z"/>
				<g>
					<path class="st60" d="M381.2,1156.4L381.2,1156.4c0.1,0,0.3,0,0.4,0c0.5,0.1,0.9,0.4,1.2,0.8c0.3,0.4,0.4,0.9,0.3,1.4
						c-0.2,0.9-0.9,1.5-1.8,1.5c-0.1,0-0.3,0-0.4,0c-0.5-0.1-0.9-0.4-1.2-0.8c-0.3-0.4-0.4-0.9-0.3-1.4
						C379.6,1157,380.4,1156.4,381.2,1156.4 M381.2,1155.9c-1.1,0-2.1,0.8-2.3,1.9c-0.3,1.3,0.5,2.5,1.8,2.8c0.2,0,0.3,0.1,0.5,0.1
						c1.1,0,2.1-0.8,2.3-1.9c0.3-1.3-0.5-2.5-1.8-2.8C381.6,1155.9,381.4,1155.9,381.2,1155.9L381.2,1155.9z"/>
				</g>
			</g>
			<g>
				<path class="st59" d="M375.1,1171.1c-0.1,0-0.3,0-0.4,0c-1.1-0.2-1.9-1.4-1.6-2.5c0.2-1,1.1-1.7,2.1-1.7c0.1,0,0.3,0,0.4,0
					c1.1,0.2,1.9,1.4,1.6,2.5C377,1170.4,376.1,1171.1,375.1,1171.1z"/>
				<g>
					<path class="st60" d="M375.1,1167.1L375.1,1167.1c0.1,0,0.3,0,0.4,0c1,0.2,1.6,1.2,1.4,2.2c-0.2,0.9-0.9,1.5-1.8,1.5
						c-0.1,0-0.3,0-0.4,0c-1-0.2-1.6-1.2-1.4-2.2C373.5,1167.7,374.3,1167.1,375.1,1167.1 M375.1,1166.6c-1.1,0-2.1,0.8-2.3,1.9
						c-0.3,1.3,0.5,2.5,1.8,2.8c0.2,0,0.3,0.1,0.5,0.1c1.1,0,2.1-0.8,2.3-1.9c0.3-1.3-0.5-2.5-1.8-2.8
						C375.5,1166.6,375.3,1166.6,375.1,1166.6L375.1,1166.6z"/>
				</g>
			</g>
			<g>
				<path class="st59" d="M363.9,1178c-0.1,0-0.3,0-0.4,0c-0.6-0.1-1-0.4-1.3-0.9c-0.3-0.5-0.4-1-0.3-1.6c0.2-1,1.1-1.7,2.1-1.7
					c0.1,0,0.3,0,0.4,0c0.6,0.1,1,0.4,1.3,0.9c0.3,0.5,0.4,1,0.3,1.6C365.7,1177.3,364.9,1178,363.9,1178z"/>
				<g>
					<path class="st60" d="M363.9,1174c0.1,0,0.3,0,0.4,0c0.5,0.1,0.9,0.4,1.2,0.8c0.3,0.4,0.4,0.9,0.3,1.4
						c-0.2,0.9-0.9,1.5-1.8,1.5c-0.1,0-0.3,0-0.4,0c-0.5-0.1-0.9-0.4-1.2-0.8c-0.3-0.4-0.4-0.9-0.3-1.4
						C362.2,1174.6,363,1174,363.9,1174 M363.9,1173.5c-1.1,0-2.1,0.8-2.3,1.9c-0.3,1.3,0.5,2.5,1.8,2.8c0.2,0,0.3,0.1,0.5,0.1
						c1.1,0,2.1-0.8,2.3-1.9c0.3-1.3-0.5-2.5-1.8-2.8C364.2,1173.5,364,1173.5,363.9,1173.5L363.9,1173.5z"/>
				</g>
			</g>
			<g>
				<path class="st59" d="M350.8,1179.2c-0.1,0-0.3,0-0.4,0c-1.1-0.2-1.9-1.4-1.6-2.5c0.2-1,1.1-1.7,2.1-1.7c0.1,0,0.3,0,0.4,0
					c0.6,0.1,1,0.4,1.3,0.9c0.3,0.5,0.4,1,0.3,1.6C352.7,1178.5,351.8,1179.2,350.8,1179.2z"/>
				<g>
					<path class="st60" d="M350.8,1175.3L350.8,1175.3c0.1,0,0.3,0,0.4,0c0.5,0.1,0.9,0.4,1.2,0.8s0.4,0.9,0.3,1.4
						c-0.2,0.9-0.9,1.5-1.8,1.5c-0.1,0-0.3,0-0.4,0c-0.5-0.1-0.9-0.4-1.2-0.8c-0.3-0.4-0.4-0.9-0.3-1.4
						C349.2,1175.9,349.9,1175.3,350.8,1175.3 M350.8,1174.8c-1.1,0-2.1,0.8-2.3,1.9c-0.3,1.3,0.5,2.5,1.8,2.8
						c0.2,0,0.3,0.1,0.5,0.1c1.1,0,2.1-0.8,2.3-1.9c0.3-1.3-0.5-2.5-1.8-2.8C351.1,1174.8,351,1174.8,350.8,1174.8L350.8,1174.8z"/>
				</g>
			</g>
			<g>
				<path class="st59" d="M340.1,1174.3c-0.1,0-0.3,0-0.4,0c-1.1-0.2-1.9-1.4-1.6-2.5c0.2-1,1.1-1.7,2.1-1.7c0.1,0,0.3,0,0.4,0
					c0.6,0.1,1,0.4,1.3,0.9c0.3,0.5,0.4,1,0.3,1.6C342,1173.6,341.1,1174.3,340.1,1174.3z"/>
				<g>
					<path class="st60" d="M340.1,1170.4L340.1,1170.4c0.1,0,0.3,0,0.4,0c1,0.2,1.6,1.2,1.4,2.2c-0.2,0.9-0.9,1.5-1.8,1.5
						c-0.1,0-0.3,0-0.4,0c-0.5-0.1-0.9-0.4-1.2-0.8s-0.4-0.9-0.3-1.4C338.5,1171,339.3,1170.4,340.1,1170.4 M340.1,1169.9
						c-1.1,0-2.1,0.8-2.3,1.9c-0.3,1.3,0.5,2.5,1.8,2.8c0.2,0,0.3,0.1,0.5,0.1c1.1,0,2.1-0.8,2.3-1.9c0.3-1.3-0.5-2.5-1.8-2.8
						C340.5,1169.9,340.3,1169.9,340.1,1169.9L340.1,1169.9z"/>
				</g>
			</g>
			<g>
				<path class="st59" d="M332.5,1164.7c-0.1,0-0.3,0-0.4,0c-0.6-0.1-1-0.4-1.3-0.9c-0.3-0.5-0.4-1-0.3-1.6c0.2-1,1.1-1.7,2.1-1.7
					c0.1,0,0.3,0,0.4,0c1.1,0.2,1.9,1.4,1.6,2.5C334.4,1164,333.5,1164.7,332.5,1164.7z"/>
				<g>
					<path class="st60" d="M332.5,1160.7L332.5,1160.7c0.1,0,0.3,0,0.4,0c0.5,0.1,0.9,0.4,1.2,0.8c0.3,0.4,0.4,0.9,0.3,1.4
						c-0.2,0.9-0.9,1.5-1.8,1.5c-0.1,0-0.3,0-0.4,0c-0.5-0.1-0.9-0.4-1.2-0.8c-0.3-0.4-0.4-0.9-0.3-1.4
						C330.9,1161.3,331.7,1160.7,332.5,1160.7 M332.5,1160.2c-1.1,0-2.1,0.8-2.3,1.9c-0.3,1.3,0.5,2.5,1.8,2.8
						c0.2,0,0.3,0.1,0.5,0.1c1.1,0,2.1-0.8,2.3-1.9c0.3-1.3-0.5-2.5-1.8-2.8C332.9,1160.2,332.7,1160.2,332.5,1160.2L332.5,1160.2z"
						/>
				</g>
			</g>
			<g>
				<path class="st59" d="M329.6,1153c-0.1,0-0.3,0-0.4,0c-1.1-0.2-1.9-1.4-1.6-2.5c0.2-1,1.1-1.7,2.1-1.7c0.1,0,0.3,0,0.4,0
					c0.6,0.1,1,0.4,1.3,0.9c0.3,0.5,0.4,1,0.3,1.6C331.4,1152.3,330.6,1153,329.6,1153z"/>
				<g>
					<path class="st60" d="M329.6,1149L329.6,1149c0.1,0,0.3,0,0.4,0c0.5,0.1,0.9,0.4,1.2,0.8c0.3,0.4,0.4,0.9,0.3,1.4
						c-0.2,0.9-0.9,1.5-1.8,1.5c-0.1,0-0.3,0-0.4,0c-0.5-0.1-0.9-0.4-1.2-0.8c-0.3-0.4-0.4-0.9-0.3-1.4
						C328,1149.7,328.7,1149,329.6,1149 M329.6,1148.5c-1.1,0-2.1,0.8-2.3,1.9c-0.3,1.3,0.5,2.5,1.8,2.8c0.2,0,0.3,0.1,0.5,0.1
						c1.1,0,2.1-0.8,2.3-1.9c0.3-1.3-0.5-2.5-1.8-2.8C329.9,1148.6,329.7,1148.5,329.6,1148.5L329.6,1148.5z"/>
				</g>
			</g>
			<g>
				<path class="st59" d="M331.6,1142.4c-0.1,0-0.3,0-0.4,0c-0.6-0.1-1-0.4-1.3-0.9c-0.3-0.5-0.4-1-0.3-1.6c0.2-1,1.1-1.7,2.1-1.7
					c0.1,0,0.3,0,0.4,0c1.1,0.2,1.9,1.4,1.6,2.5C333.5,1141.7,332.6,1142.4,331.6,1142.4z"/>
				<g>
					<path class="st60" d="M331.6,1138.4L331.6,1138.4c0.1,0,0.3,0,0.4,0c0.5,0.1,0.9,0.4,1.2,0.8c0.3,0.4,0.4,0.9,0.3,1.4
						c-0.2,0.9-0.9,1.5-1.8,1.5c-0.1,0-0.3,0-0.4,0c-0.5-0.1-0.9-0.4-1.2-0.8c-0.3-0.4-0.4-0.9-0.3-1.4
						C330,1139,330.7,1138.4,331.6,1138.4 M331.6,1137.9c-1.1,0-2.1,0.8-2.3,1.9c-0.3,1.3,0.5,2.5,1.8,2.8c0.2,0,0.3,0.1,0.5,0.1
						c1.1,0,2.1-0.8,2.3-1.9c0.3-1.3-0.5-2.5-1.8-2.8C331.9,1137.9,331.8,1137.9,331.6,1137.9L331.6,1137.9z"/>
				</g>
			</g>
			<g>
				<path class="st59" d="M338.1,1133.2c-0.1,0-0.3,0-0.4,0c-0.6-0.1-1-0.4-1.3-0.9c-0.3-0.5-0.4-1-0.3-1.6c0.2-1,1.1-1.7,2.1-1.7
					c0.1,0,0.3,0,0.4,0c0.6,0.1,1,0.4,1.3,0.9c0.3,0.5,0.4,1,0.3,1.6C339.9,1132.5,339.1,1133.2,338.1,1133.2z"/>
				<g>
					<path class="st60" d="M338.1,1129.2L338.1,1129.2c0.1,0,0.3,0,0.4,0c0.5,0.1,0.9,0.4,1.2,0.8c0.3,0.4,0.4,0.9,0.3,1.4
						c-0.2,0.9-0.9,1.5-1.8,1.5c-0.1,0-0.3,0-0.4,0c-0.5-0.1-0.9-0.4-1.2-0.8c-0.3-0.4-0.4-0.9-0.3-1.4
						C336.5,1129.8,337.2,1129.2,338.1,1129.2 M338.1,1128.7c-1.1,0-2.1,0.8-2.3,1.9c-0.3,1.3,0.5,2.5,1.8,2.8
						c0.2,0,0.3,0.1,0.5,0.1c1.1,0,2.1-0.8,2.3-1.9c0.3-1.3-0.5-2.5-1.8-2.8C338.4,1128.7,338.3,1128.7,338.1,1128.7L338.1,1128.7z"
						/>
				</g>
			</g>
		</g>
		<path class="st63" d="M396.8,1183.5c0,0,27.8-48.8-17.3-78.2c0,0-26.9-12.2-47.3,0.3c-20.5,12.5-26.6,34.3-28.3,54
			c0,0-3.7-7-0.3-22.8c3.3-15.8,20.7-48.7,64-41.3c0,0,49.4,9.3,41.3,64C408.9,1159.6,406.4,1173.6,396.8,1183.5z"/>
		<path class="st68" d="M547.1,1022.9c0,0,13.9,52.6,8.6,117.8"/>
		<g>
			<path class="st70" d="M293.2,1153.8c-5.9-0.3-51.2-3.1-84-7.7c-8.5-1.2-15.2-5-20-11.4c-10.8-14.6-8.1-38-7.7-40.7l10.6-5.2
				l2.1-17.4l0.3-1.9c3.4,0.6,23.3,3.9,36.9,4.9c0.7,0.1,1.4,0.1,2.1,0.1c4.5,0,7.9-1.2,10.3-3.6c2-2,2.7-4.3,2.9-5.7l3.1,4.7
				c3.6,8.8,14.1,12.8,14.6,13l49,12.6C287.8,1115.9,292.3,1148.8,293.2,1153.8z"/>
			<g>
				<path class="st65" d="M246.8,1066.4l2.4,3.7c3.8,9,14.4,13.1,14.9,13.2l0,0l0.1,0l48,12.4c-13.8,11.4-18.4,26.4-19.8,37.2
					c-1.3,9.6-0.3,17.4,0.2,20.3c-8-0.5-51.5-3.2-83.3-7.7c-8.4-1.2-15-5-19.6-11.2c-5.9-7.9-7.6-18.5-8.1-26
					c-0.4-6.8,0.2-12.4,0.4-14.1l10.1-5l0.5-0.2l0.1-0.5l2.1-17.1l0.2-1.4c4.5,0.8,23.4,3.9,36.4,4.9c0.7,0.1,1.4,0.1,2.1,0.1
					c4.6,0,8.2-1.2,10.6-3.7C245.6,1069.7,246.4,1067.9,246.8,1066.4 M246.3,1063.7c0,0,0.1,10.2-12.9,10.2c-0.6,0-1.3,0-2-0.1
					c-15-1.1-37.3-5-37.3-5l-0.4,2.4l-2.1,17.2l-10.6,5.2c0,0-7.4,47.9,28,53c35.4,5,84.7,7.8,84.7,7.8s-7.9-37.1,20.6-59.1
					l-49.9-12.9c0,0-10.7-4-14.3-12.8L246.3,1063.7L246.3,1063.7z"/>
			</g>
		</g>
		<path class="st11" d="M238.7,1097.9c0,0,28.4,3.3,32.8-12.5l41.9,10.8c0,0-20.3,13.8-20.3,41.6l-102.7-0.3c0,0-12.8-13.1-9.3-43.8
			l10.6-5.2C191.6,1088.4,208.6,1098.4,238.7,1097.9z"/>
		<path class="st65" d="M293.8,1154.4l-0.7-16.6l-102.7-0.3c0,0,6.9,7.6,18.7,9.1C220.9,1148.1,293.8,1154.4,293.8,1154.4z"/>
		<path class="st10" d="M637.9,957.3c0,0,28.1,8,62.4,25.6c34.3,17.6,54.7,30.6,54.7,30.6s2.9,3,9.3,2.5c6.4-0.5,15.6-1.3,15.6-1.3
			s-67.5-46.8-126.5-64c0,0-2.5-1.3-5.4,0C645,951.9,637.9,957.3,637.9,957.3z"/>
		<path d="M737.1,1014.3c0,0,18.9,11.3,7.8,14.3l-16.8,2.1c0,0-7.3-0.4-15.1-1.1c-7.8-0.7-321.9-11.8-321.9-11.8s-17.6-0.9-28.3-8.6
			s-11.3-9.9-2.6-15.6c8.7-5.6,40.6-22.4,40.6-22.4s23.8-12.1,51.3-14.8c27.4-2.7,59.7-6.5,121.3-1.8S696,986.2,737.1,1014.3z"/>
		<path class="st75" d="M542.5,956.5l14.2,63.6l133.4,5.3l1.1-29.8c0,0,1.2-2.9-5.9-5.8C678.3,986.9,616.9,954.6,542.5,956.5z"/>
		<path class="st75" d="M526.7,956.9c0,0,3,38.7,9.1,61.8l-127.9-4l-3-22.8c0,0,2.1-20.3,22.9-26.5
			C453,957.9,526.7,956.9,526.7,956.9z"/>
		<path class="st76" d="M534.3,955.8c0,0,5.7,41,12.4,63.5"/>
		<path class="st77" d="M684.8,1002.1l-3.2,14.7c0,0,1.2,6.4,12.1,7.3s23.8-2,23.8-2s6.7-3.8,0.9-8.8s-10.4-9.8-23.7-12.9
			C686.7,998.5,684.8,1002.1,684.8,1002.1z"/>
		<path class="st78" d="M542.5,956.5l14.2,63.6c0,0,55.2-42.5,134-20.2l0.5-4.2c0,0,1-2.5-5.9-5.8
			C678.4,986.5,610.9,953.7,542.5,956.5z"/>
		<path class="st9" d="M637.9,957.3c0,0,80.1,19.7,142.1,57.5c0,0-64-45.4-126.5-64c0,0-3-1.6-7,0.9
			C642.5,954.3,637.9,957.3,637.9,957.3z"/>
		<path class="st79" d="M364.2,954.8l18,4.8c0,0-55.2,25.4-97.2,44.6l-22.3-3C262.8,1001.2,315.7,972.4,364.2,954.8z"/>
		<path class="st28" d="M193.3,1027.8l26.1,5.3c0,0,7.2,0,14.6,11s11.5,18.1,11.5,18.1s3.2,10.1-7,12s-45.7-3.5-45.7-3.5
			S187.9,1067.7,193.3,1027.8z"/>
		<path class="st67" d="M196.2,1044.8c0,0,36.1,6.1,40.6,3.2c0,0-6.1-13.1-17.3-15.5c-11.2-2.4-26.3-5.3-26.3-5.3l-1.5,16.4
			C191.7,1043.5,193.4,1044.2,196.2,1044.8z"/>
		<path class="st67" d="M244.3,1060c0,0-9.8,12.5-53.5-1.1c0,0-0.1,9.9,2.1,11.7c0,0,32.7,5.8,44.6,4.3
			C237.5,1074.9,252,1072.2,244.3,1060z"/>
		<path class="st80" d="M262.8,1001.2c0,0,65.1-33.5,92.9-29.5l29-11.4l-20.4-5.5C364.2,954.8,321.5,969,262.8,1001.2z"/>
		<path class="st78" d="M527.8,968.6c0,0-93.9,1.9-102.7,46.8l-17.2-0.7l-3-22.8c0,0-2.3-18.7,22.5-26.7c27.3-8.7,99.4-8.4,99.4-8.4
			L527.8,968.6z"/>
		<g>
			<path class="st71" d="M733.1,1045.1c0,0,81.9-0.4,141.3,8.8l19.3,19.9l14.2,7.3l-28-0.1c0,0-4.1-12.2-27.3-16.2s-53.3-3.2-94.4,8
				c0,0-7.9,1.3-12.5,25.4c-4.6,24-8.9,41.9-8.9,41.9l-2.2-0.2C734.7,1139.8,743.7,1086.5,733.1,1045.1z"/>
		</g>
		<path class="st81" d="M757.9,1052.1l-9.4,0.2c0,0-1.2,0.3-1.4,3.9c-0.2,3.6,0.1,4.3,4.2,4.1s8.2-0.4,8.2-0.4s2.8,1,2.1-5.5
			C761.6,1054.6,762.8,1051,757.9,1052.1z"/>
		<path class="st82" d="M285.1,1004.2c0,0-24.5,10.4-84.7,17.6l-0.8,6.4"/>
		<path class="st82" d="M381.4,1015.4c0,0-0.5,5.4-4,8.3c0,0-2.3,2.9-2.3,6.2s-0.8,7.7-0.7,9.5l30.9,47.4"/>
		<path class="st68" d="M728.1,1030.7c0,0,4.7,10.7,5,14.5c0.3,3.8,7.4,21.4,5.7,53.3c-1.7,31.8-1.9,41.6-1.9,41.6"/>
		<path class="st82" d="M949.4,1078.8c0,0-2.4,6.1-21.8,3.8s-65.3-1.3-83.4,0.2"/>
	</g>
</g>
<g id="nine">
</g>
<g id="ten_00000098906372602984753350000010503549982832515468_">
</g>
<g id="eleven_00000180345820641820120410000009044592103142380464_">
</g>
<g id="twelve">
</g>
<g id="thirteen_00000173859306950962761430000017419446578002950540_">
</g>
<g id="fourteen">
</g>
<g id="fifteen_00000103262623346785252190000005497341088573515404_">
</g>
<g id="sixteen_00000052784415532825981170000013120508718389060798_">
</g>
<g id="seventeen_00000052799129178776355750000005236059528330747796_">
</g>
<g id="eighteen_00000054256262866476431880000018286803152678894488_">
</g>
<g id="nineteen_00000107558268356232088990000008456042227242415802_">
</g>
<g id="twenty">
</g>
</svg>
