<?xml version="1.0" encoding="utf-8"?>
<!-- Generator: Adobe Illustrator 27.2.0, SVG Export Plug-In . SVG Version: 6.00 Build 0)  -->
<svg version="1.1" xmlns="http://www.w3.org/2000/svg" xmlns:xlink="http://www.w3.org/1999/xlink" x="0px" y="0px"
	 viewBox="0 0 2250.5 1926.5" style="enable-background:new 0 0 2250.5 1926.5;" xml:space="preserve">
<style type="text/css">
	.st0{fill:#E8E6E6;stroke:#ADADAD;stroke-miterlimit:10;}
	.st1{fill:#F3F2F7;}
	.st2{fill:#030303;}
	.st3{fill:#353131;}
	.st4{fill:none;stroke:#ADADAD;stroke-width:2;stroke-miterlimit:10;}
	.st5{fill:none;stroke:#F3F2F7;stroke-width:2;stroke-miterlimit:10;}
	.st6{fill:#0A1205;}
	.st7{fill:#F3F2F7;stroke:#ADADAD;stroke-width:0.75;stroke-miterlimit:10;}
	.st8{fill:#ADADAD;}
	.st9{fill:#282828;}
	.st10{fill:#3A3A3A;}
	.st11{fill:#0A54A2;}
	.st12{fill:none;stroke:#E8E6E6;stroke-width:0.9742;stroke-miterlimit:10;}
	.st13{fill:#2E2E2E;}
	.st14{fill:#333333;}
	.st15{fill:#939393;stroke:#ADADAD;stroke-miterlimit:10;}
	.st16{fill:#D1D1D1;}
	.st17{fill:#191919;}
	.st18{fill:#666666;stroke:#ADADAD;stroke-miterlimit:10;}
	.st19{fill:#363636;}
	.st20{fill:none;stroke:#ADADAD;stroke-miterlimit:10;}
	.st21{fill:#121212;}
	.st22{fill:#0E0A12;}
	.st23{fill:#6E6E6E;}
	.st24{fill:#4E4E4E;}
	.st25{fill:#1E1E1E;}
	.st26{fill:#646464;}
	.st27{fill:#999999;}
	.st28{fill:#9E9E9E;}
	.st29{fill:#6D6D6D;}
	.st30{fill:#B5B5B5;}
	.st31{fill:#3E3E3E;}
	.st32{fill:#0D0F0C;}
	.st33{fill:none;stroke:#0E0A12;stroke-width:0.8371;stroke-miterlimit:10;}
	.st34{fill:#7D7D7D;}
	.st35{fill:#424242;}
	.st36{fill:#8A8A8A;}
	.st37{fill:#BCBCBC;stroke:#ADADAD;stroke-miterlimit:10;}
	.st38{fill:#8A8A8A;stroke:#6B6B6B;stroke-width:0.9619;stroke-miterlimit:10;}
	.st39{fill:none;stroke:#6B6B6B;stroke-width:0.7215;stroke-miterlimit:10;}
	.st40{fill:none;stroke:#A9A9AA;stroke-width:0.75;stroke-miterlimit:10;}
	.st41{fill:#484D4E;}
	.st42{fill:none;stroke:#111111;stroke-width:3;stroke-miterlimit:10;}
	.st43{fill:#282828;stroke:#0A0A0A;stroke-miterlimit:10;}
	.st44{fill:#F0221F;stroke:#BB1719;stroke-miterlimit:10;}
	.st45{fill:#BB1719;}
	.st46{fill:#FC7C88;stroke:#BB1719;stroke-miterlimit:10;}
	.st47{fill:none;stroke:#BB1719;stroke-width:3;stroke-miterlimit:10;}
	.st48{fill:#FC7C88;}
	.st49{fill:#FC7C88;stroke:#BB1719;stroke-width:3;stroke-miterlimit:10;}
	.st50{fill:#F0221F;}
	.st51{fill:#E8E6E6;stroke:#ADADAD;stroke-width:2;stroke-miterlimit:10;}
	.st52{opacity:0.59;fill:#F3F2F7;}
	.st53{fill:#080806;}
	.st54{fill:#9B9B9B;}
	.st55{fill:#2B2B2B;}
	.st56{fill:#C1BFBF;}
	.st57{fill:#D6D6D6;}
	.st58{fill:#4C4B4B;stroke:#A5A5A5;stroke-miterlimit:10;}
	.st59{fill:#444343;}
	.st60{fill:#727272;}
	.st61{fill:#A0A0A0;}
	.st62{fill:#999898;}
	.st63{fill:#444242;}
	.st64{fill:#157FCE;}
	.st65{fill:#134468;}
	.st66{fill:#092947;}
	.st67{fill:#D5D3D7;}
	.st68{fill:none;stroke:#134468;stroke-miterlimit:10;}
	.st69{fill:none;stroke:#0F63AD;stroke-miterlimit:10;}
	.st70{fill:#1672B7;}
	.st71{fill:#2066A0;}
	.st72{fill:#1B8ACE;}
	.st73{fill:none;stroke:#157FCE;stroke-miterlimit:10;}
	.st74{fill:none;stroke:#0A54A2;stroke-miterlimit:10;}
	.st75{fill:#3F3F3F;}
	.st76{fill:none;stroke:#282828;stroke-width:2;stroke-miterlimit:10;}
	.st77{fill:#7F7F7F;}
	.st78{fill:#2D2D2D;}
	.st79{fill:#4C4C4C;}
	.st80{fill:#383838;}
	.st81{fill:#9E9E9E;stroke:#0A55A3;stroke-miterlimit:10;}
	.st82{fill:none;stroke:#134468;stroke-width:0.75;stroke-miterlimit:10;}
	.st83{display:none;fill:#24242A;}
	.st84{display:none;fill:none;stroke:#848484;stroke-miterlimit:10;}
	.st85{display:none;fill:#30292D;}
	.st86{fill:#E8E6E6;}
	.st87{fill:#8C8C8C;}
	.st88{fill:#FCFCFC;stroke:#8C8C8C;stroke-miterlimit:10;}
	.st89{fill:#E8E6E6;stroke:#8C8C8C;stroke-miterlimit:10;}
	.st90{fill:#E8E6E6;stroke:#8C8C8C;stroke-width:2;stroke-miterlimit:10;}
	.st91{fill:none;stroke:#8C8C8C;stroke-width:2;stroke-miterlimit:10;}
	.st92{fill:none;stroke:#FCFCFC;stroke-width:3;stroke-miterlimit:10;}
	.st93{fill:#FCFCFC;}
	.st94{fill:#ADADAD;stroke:#8C8C8C;stroke-miterlimit:10;}
	.st95{fill:#FAFAFC;stroke:#ADADAD;stroke-width:0.75;stroke-miterlimit:10;}
	.st96{fill:none;stroke:#111111;stroke-width:3.6024;stroke-miterlimit:10;}
	.st97{fill:none;stroke:#111111;stroke-width:3.6093;stroke-miterlimit:10;}
	.st98{fill:none;stroke:#111111;stroke-width:3.5727;stroke-miterlimit:10;}
	.st99{fill:none;stroke:#111111;stroke-width:3.5263;stroke-miterlimit:10;}
	.st100{fill:none;stroke:#111111;stroke-width:3.4845;stroke-miterlimit:10;}
	.st101{fill:none;stroke:#111111;stroke-width:3.4337;stroke-miterlimit:10;}
	.st102{fill:none;stroke:#111111;stroke-width:3.3788;stroke-miterlimit:10;}
	.st103{fill:none;stroke:#111111;stroke-width:3.3233;stroke-miterlimit:10;}
	.st104{fill:none;stroke:#111111;stroke-width:3.2747;stroke-miterlimit:10;}
	.st105{fill:none;stroke:#111111;stroke-width:3.207;stroke-miterlimit:10;}
	.st106{fill:none;stroke:#111111;stroke-width:3.1652;stroke-miterlimit:10;}
	.st107{fill:none;stroke:#111111;stroke-width:3.099;stroke-miterlimit:10;}
	.st108{fill:none;stroke:#111111;stroke-width:3.0584;stroke-miterlimit:10;}
	.st109{fill:none;stroke:#111111;stroke-width:3.0299;stroke-miterlimit:10;}
</style>
<g id="original">
</g>
<g id="one">
</g>
<g id="two_00000026882943921159275490000004360688784792002186_">
</g>
<g id="three_00000113338737259881679640000015971704404683786636_">
</g>
<g id="four_00000049184186550712051260000002601905804867817144_">
</g>
<g id="five_00000179643197332058435300000007386453149388464260_">
</g>
<g id="six">
</g>
<g id="seven_00000062194613864970919320000012156796603096136882_">
</g>
<g id="eight">
</g>
<g id="nine">
</g>
<g id="ten_00000098906372602984753350000010503549982832515468_">
</g>
<g id="eleven_00000180345820641820120410000009044592103142380464_">
</g>
<g id="twelve">
</g>
<g id="thirteen_00000173859306950962761430000017419446578002950540_">
	<g>
		<path class="st86" d="M1971.8,828.7c-0.9-1.5-5.8-8.5-17.3-9.1c-12.1-0.7-193.8-3.9-204.5-4.1c0-2.4,0.1-13.1,5.3-18.6
			c2.1-2.2,4.8-3.3,8-3.3c14.8,0,186.9,6.1,188.6,6.1c0.3,0,31.7,2.1,37.6,28.6L1971.8,828.7z"/>
		<path class="st87" d="M1763.3,794c14.8,0,186.9,6.1,188.6,6.1c0.1,0,8.1,0.5,16.7,4.3c11,4.9,17.8,12.7,20.3,23.3l-16.8,0.4
			c-1.3-2-6.3-8.5-17.5-9.1c-11.9-0.7-189.3-3.8-204.1-4.1c0-3,0.4-12.7,5.2-17.8C1757.7,795.1,1760.2,794,1763.3,794 M1763.3,793
			c-15,0-13.9,23-13.9,23s192.5,3.4,205,4.1c12.5,0.7,17,9.1,17,9.1l18.6-0.5c-5.7-27.7-38.2-29.5-38.2-29.5S1778.3,793,1763.3,793
			L1763.3,793z"/>
	</g>
	<path class="st88" d="M1954.3,806.6l-141.9-6.1l21.4,8l117.6,4.2c0,0,16.5-0.2,25.8,15.2h5.2C1982.4,828,1977.2,807.8,1954.3,806.6
		z"/>
	<path class="st89" d="M1749.5,816l-0.5,12l201,1.9c0,0,11,0,13.4,13.4c2.4,13.4,21.5,113,21.5,113l0.8,128.3l32.7-0.8
		c0,0,9.4,1.1,9.4-8.3c0-9.4,0-44.6,0-44.6s0.5-5.9-5.4-8.1v-45.6h-16c0,0-10.2,0.8-11.3-15.9c-1.2-16.8-22-124.3-22-124.3
		s-1.5-2.4-1.7-7.8c0,0-5.8-8.8-17-9.1C1943.2,819.7,1749.5,816,1749.5,816z"/>
	<path class="st2" d="M1990.1,828.7l25.2,136.1l-22.6-21.3L1973.2,837c0,0-1.8-3.5-1.7-7.8L1990.1,828.7z"/>
	<path class="st2" d="M2018.1,951.3c0,0,5.4,9.2,3.2,17.8h-3l0.8,7.9l-12.5,0.2c0,0-10.3,0.4-11.3-15.9l-2.4-17.8l22.6,21.3
		c0,0,5.4-5.7-0.4-13.3c0,0-2.1-1.9-4.6,0.3c-2.5,2.2-3.9-1.7,0-3.6S2018.1,951.3,2018.1,951.3z"/>
	<polygon class="st3" points="1977.4,829.2 2005.3,913.3 1990.1,828.7 	"/>
	<path class="st90" d="M1749,828c0,0-5.4,110.4-4.1,200.8l240.1-0.9l-0.1-71.6l-21.5-113c0,0-1.7-13.4-13.4-13.4
		C1938.3,829.9,1749,828,1749,828z"/>
	<path class="st91" d="M1766.6,898.5l-0.3-47.2c0,0-0.6-8.8,12.4-9.1c13-0.3,24.8,0,24.8,0s9.1-2.1,9.1,11.8s-0.3,45.7-0.3,45.7"/>
	<path class="st92" d="M1765.7,909.4l-0.3,31.6c0,0-1.5,7.4,7.4,7.4c8.8,0,33.9,0,33.9,0s5,2.7,5-6.2s0-26,0-26"/>
	<path class="st91" d="M1764.8,979l0.3,33.6c0,0-0.9,5.3,5.3,5.3c6.2,0,39.5-0.3,39.5-0.3s4.7,1.8,4.4-6.2c-0.3-8-0.6-33-0.6-33
		s0.6-6.2-6.2-6.2c-6.8,0-38.3,0.6-38.3,0.6S1764.8,972.3,1764.8,979z"/>
	<line class="st91" x1="1826.7" y1="828.6" x2="1826.7" y2="1028"/>
	<polygon class="st6" points="1833.2,976.7 1833.5,995 1853.5,994.7 1853.5,976.7 	"/>
	<path class="st93" d="M1834.1,1001.4c0,0-1.2,10,14.2,9.7c15.3-0.3,115.3,0,115.3,0l-48.4-5.9h-66.9c0,0,0.3-3.8-4.1-4.1
		C1839.7,1000.9,1834.1,1001.4,1834.1,1001.4z"/>
	<path class="st87" d="M1837,842.2l4.7,67.2l-0.3-62.8c0,0-2.1-6.8,13.6-6.5c15.6,0.3,89.9,0.6,89.9,0.6s7.1-1.8,9.4,17.1
		c2.4,18.9,4.7,36.9,4.7,36.9l-2.1-45.7c0,0,0.7-11.8-13.6-11.6c-14.3,0.2-97.4-0.8-97.4-0.8S1838,836.3,1837,842.2z"/>
	<path class="st93" d="M1962,912.4l7.6,32.9c0,0,2.6,12.9-9.2,13.4c-11.8,0.5-111.3-5.3-111.3-5.3s-9.5-2.6-10-11.3
		s-0.3-27.4-0.3-27.4l2.6,25.5c0,0,0.3,8.4,7.9,9.5s109.2,6.1,109.2,6.1s11.1,2.9,7.4-19.2S1962,912.4,1962,912.4z"/>
	<path class="st9" d="M1841.7,914.8l-0.3,25.5c0,0,0.1,8.6,7.9,9.5c7.8,0.8,109.2,6.1,109.2,6.1s10.8,2.4,7.4-19.2
		s-12.8-85.5-12.8-85.5s-1.2-10-8.1-10.4c-6.9-0.3-95.2-1-95.2-1s-8.7-1.3-8.7,5.9C1841,852.9,1841.7,914.8,1841.7,914.8z"/>
	<polygon class="st2" points="1933,831 1933,837.9 1950.2,838.4 1949.9,831 	"/>
	<path class="st10" d="M1841.3,864.2c0,0,96.3,16.1,107.9,91.5l9.3,0.1c0,0,10.8,1.4,7.4-19.2c-3.5-20.6-12.8-85.5-12.8-85.5
		s-1.4-10.2-8.1-10.4s-95.2-1-95.2-1s-8.6-0.9-8.7,5.9C1841,852.5,1841.3,864.2,1841.3,864.2z"/>
	<polygon class="st2" points="1939.7,837.2 1939.8,848.3 1943.3,848.2 1943.5,837.4 	"/>
	<path class="st2" d="M1935.5,848.4l0.7,93.5h7.2c0,0,6.1-6.3,6.1-15.6l-0.2-66c0,0-1.4-10.9-5.9-12.1L1935.5,848.4z"/>
	<polygon class="st2" points="1939.3,970.7 1939.3,941.5 1943.5,941.8 1943.5,970.1 	"/>
	<polygon class="st2" points="1946.9,969.8 1950.6,969.9 1950.6,976.3 1931.8,976.3 1931.8,969.9 	"/>
	<path class="st11" d="M1818.6,772.1l17.4,0.2v18.3c0,0-4.6,1.4-19.2,0v-18.5L1818.6,772.1z"/>
	<path class="st87" d="M1838.9,789.9l0.1,6l-24.3-0.5v-5.9C1814.8,789.5,1823.8,792.4,1838.9,789.9z"/>
	<path class="st0" d="M1744.9,1028.8l0.4,26.2H1851c0,0,49,1.9,59.1,28.8l75.7,0.9l-0.7-56.7L1744.9,1028.8z"/>
	<path class="st89" d="M1744.9,1028.8l0.4,26.2H1851c0,0,49,1.9,59.1,28.8l75.7,0.9l-0.7-56.7L1744.9,1028.8z"/>
	<polygon class="st6" points="1982.4,1048.4 1960.6,1027.8 1979,1027.9 1985,1033.9 1985,1051.3 	"/>
	<path class="st6" d="M1945.1,1028.4l27.3,26.4h-18l-26.2-26.2C1928.1,1028.6,1945.1,1028.4,1945.1,1028.4z"/>
	<path class="st6" d="M1911.8,1028.6l26.6,26.6h-17.6l-26.5-26.5C1894.3,1028.8,1911.7,1028.7,1911.8,1028.6z"/>
	<path class="st6" d="M1879.6,1028.6l26.6,26.6h-17.6l-26.5-26.5C1862.1,1028.8,1879.5,1028.7,1879.6,1028.6z"/>
	<path class="st6" d="M1845.8,1028.6l26.6,26.6h-17.6l-26.5-26.5C1828.3,1028.8,1845.8,1028.7,1845.8,1028.6z"/>
	<path class="st6" d="M1812.4,1028.6l26.6,25.8h-17.6l-26.5-25.7C1794.9,1028.8,1812.4,1028.7,1812.4,1028.6z"/>
	<path class="st6" d="M1778.7,1029.1l26.6,25.3h-17.6l-26.5-25.1C1761.2,1029.3,1778.6,1029.2,1778.7,1029.1z"/>
	<path class="st6" d="M1744.9,1028.8l25.9,25.9h-16.4l-8.7-8.7l-0.7-0.7C1745.1,1045.3,1744.9,1028.6,1744.9,1028.8z"/>
	<path class="st94" d="M2022.5,1022.9h-26.9l8,8l24.3,0C2027.9,1030.9,2028.9,1025.3,2022.5,1022.9z"/>
	<path class="st94" d="M1985,1027.9c0,0,5.7,1.4,6,6.4v41.2l36.9-0.1c0,0,1.1,8.3-9.4,8.3c-10.5,0-32.7,0.8-32.7,0.8L1985,1027.9z"
		/>
	<polygon class="st13" points="1934.9,1180.6 1985.4,1180.5 1985.4,1084.6 1910.1,1083.7 	"/>
	<polygon class="st0" points="1930,1112.7 1985.6,1112.7 1985.6,1117.8 1930.1,1117.8 	"/>
	<path class="st0" d="M1985.3,1144.9h-51.9v3.9h52.2C1985.6,1148.8,1985.3,1144.2,1985.3,1144.9z"/>
	<path class="st0" d="M1933.9,1175.6h51.2v4.4h-51.7C1933.4,1180,1934.3,1175.2,1933.9,1175.6z"/>
	<path class="st2" d="M1916.2,1142.9l-15.1,13.3c0,0-33.2-69.2-81.4-59.5c-48.3,9.7-70.3,61.6-70.3,61.6l-16.6-15.5l21.3-64.5
		l78.6-5.4l64.1,7.6l18,45.8L1916.2,1142.9z"/>
	<circle class="st14" cx="1825.2" cy="1172.2" r="78.7"/>
	<circle class="st15" cx="1825.5" cy="1170.1" r="48.8"/>
	<circle class="st12" cx="1825.5" cy="1170.1" r="48.8"/>
	<circle class="st16" cx="1825.2" cy="1169.5" r="42.8"/>
	<circle class="st17" cx="1825.8" cy="1170.6" r="18.4"/>
	<circle class="st18" cx="1813.7" cy="1149.5" r="2.5"/>
	<circle class="st18" cx="1825.7" cy="1146.5" r="2.5"/>
	<circle class="st18" cx="1838" cy="1150.2" r="2.5"/>
	<circle class="st18" cx="1846.4" cy="1158.4" r="2.5"/>
	<circle class="st18" cx="1849.1" cy="1170.8" r="2.5"/>
	<circle class="st18" cx="1846.6" cy="1182.7" r="2.5"/>
	<circle class="st18" cx="1838" cy="1191.4" r="2.5"/>
	<circle class="st18" cx="1826" cy="1194.5" r="2.5"/>
	<circle class="st18" cx="1812.9" cy="1190.9" r="2.5"/>
	<circle class="st18" cx="1804.8" cy="1182.4" r="2.5"/>
	<circle class="st18" cx="1801.7" cy="1170.4" r="2.5"/>
	<circle class="st18" cx="1804.5" cy="1158" r="2.5"/>
	<path class="st19" d="M1800.8,1134.6c0,0,4,14.9-10.7,11.3C1790.1,1145.9,1792.3,1139.7,1800.8,1134.6z"/>
	<path class="st19" d="M1817.3,1127.6c0,0,6.4,12,17.4,0.5C1834.7,1128.1,1826.9,1125.1,1817.3,1127.6z"/>
	<path class="st19" d="M1849.3,1134.6c0,0-3.1,14.6,11.7,11.7C1860.9,1146.2,1856.4,1137.9,1849.3,1134.6z"/>
	<path class="st19" d="M1867,1161.8c0,0-9.2,9.9-0.5,17.9C1866.5,1179.6,1869.6,1172.2,1867,1161.8z"/>
	<path class="st19" d="M1849.9,1204.5c0,0-0.9-11.3,10.3-10.7C1860.1,1193.8,1856.9,1199.7,1849.9,1204.5z"/>
	<path class="st19" d="M1833.4,1211.2c0,0-7.1-9.9-16.6,0.2C1816.8,1211.3,1823.9,1213.8,1833.4,1211.2z"/>
	<path class="st19" d="M1790.1,1193.8c0,0,12.1-1.7,11,10.7C1801.1,1204.5,1795.5,1201.5,1790.1,1193.8z"/>
	<path class="st19" d="M1783.2,1161.3c0,0,10.4,8.4,0.5,18.3C1783.7,1179.6,1781.2,1172.8,1783.2,1161.3z"/>
	<path d="M1899.4,1145.5c0,0,23.1,81.5-72,102.5c0,0-87.4-4.1-76.9-102c0,0-20.5,55.5,31,92c0,0,20.3,14.8,47,13
		c26.7-1.8,52.7-13.7,68.6-46.2C1906.4,1179.4,1905.4,1169.3,1899.4,1145.5z"/>
	<path class="st20" d="M1744.9,1028.8l0.4,26.2H1851c0,0,49,1.9,59.1,28.8l75.7,0.9l-0.7-56.7L1744.9,1028.8z"/>
	<circle class="st20" cx="1825.2" cy="1169.5" r="42.8"/>
	<path class="st0" d="M2012.1,1084l0.4,13.4c0,0,15.7,4.2,15.9,14.8v65c0,0,1.1,6.7-6.7,6.7c-7.8,0-36.3,0-36.3,0l0.3-99.2
		L2012.1,1084z"/>
	<path class="st95" d="M2018.1,1114.2v24c0,0-0.4,4.7,4.3,4.7c4.7,0,6.1,0,6.1,0l-0.2-30.7C2028.3,1112.2,2021.5,1110,2018.1,1114.2
		z"/>
	<path class="st95" d="M2028.4,1154.9c0,0-11.2-1.8-10.8,6.5c0.3,8.2,9.2,6.7,10.8,6.4V1154.9z"/>
	<path class="st94" d="M2027.1,1107.8c0,0-13.6-6.4-32.8-2.9l-0.7,74c0,0,29.9,4.5,34.7-1.8c0,0,1.8,6.5-6.7,6.7
		c-8.5,0.1-36.3,0-36.3,0l0.3-99.2l26.4-0.6l0.4,13.4C2012.5,1097.4,2025.1,1101.5,2027.1,1107.8z"/>
	<polygon class="st21" points="1013.4,1076.7 1013.4,1130.6 1195.9,1169.4 1237.4,1145.8 1599.7,1145.8 1741.4,1146.5 1754,1078.3 	
		"/>
	<circle class="st22" cx="1620.7" cy="1142.9" r="22.5"/>
	<circle class="st22" cx="1670" cy="1142.9" r="22.5"/>
	<path class="st23" d="M1634.9,1126c0,0-15-5.6-25.6,4.2c-10.6,9.8-10,20.6-10,20.6s-4.6-16.6,7.9-25.8S1633.3,1122.9,1634.9,1126z"
		/>
	<path class="st23" d="M1684,1126c0,0-15-5.6-25.6,4.2c-10.6,9.8-10,20.6-10,20.6s-4.6-16.6,7.9-25.8S1682.5,1122.9,1684,1126z"/>
	<path class="st24" d="M1392.5,1104.1v73.5h200.8v-73.8C1593.3,1103.8,1391.5,1104.1,1392.5,1104.1z"/>
	<path class="st25" d="M1543.6,1096.6v11.2h10.7v-11.2C1554.3,1096.6,1543.3,1096.6,1543.6,1096.6z"/>
	<polygon class="st26" points="1550.1,1101.2 1550.1,1107.8 1554.3,1107.8 1554.3,1096.6 1550,1096.6 	"/>
	<polygon class="st27" points="1398.3,1104.5 1398.3,1177.8 1392.5,1177.8 1392.5,1104.1 1398.3,1104.1 	"/>
	<path class="st28" d="M1418.3,1100.5v77.9h7.3v-77.8C1425.6,1100.6,1418.8,1100.5,1418.3,1100.5z"/>
	<path class="st28" d="M1491.2,1100.4v77.5h7.9v-77.5C1499.1,1100.4,1491.2,1100,1491.2,1100.4z"/>
	<path class="st28" d="M1564,1100.1v78.5h7.8v-78v-0.5C1571.8,1100,1563.8,1100.1,1564,1100.1z"/>
	<path class="st28" d="M1588.9,1103.8v73.6h4.3v-73.6C1593.3,1103.8,1588.9,1104.1,1588.9,1103.8z"/>
	<path class="st29" d="M1398.4,1120.1h19.8v5h-19.8C1398.4,1125.1,1398.2,1119.9,1398.4,1120.1z"/>
	<path class="st29" d="M1572,1120.1h16.7v5H1572C1572,1125.1,1571.8,1119.9,1572,1120.1z"/>
	<path class="st29" d="M1425.9,1120.1h64.9v5h-64.9C1425.9,1125.1,1425.3,1119.9,1425.9,1120.1z"/>
	<path class="st29" d="M1499.5,1120.1h64.5v5h-64.5C1499.5,1125.1,1498.9,1119.9,1499.5,1120.1z"/>
	<path class="st30" d="M1392.5,1120.1h5.9v4.9h-5.8C1392.6,1125.1,1392.5,1120,1392.5,1120.1z"/>
	<path class="st30" d="M1418.3,1120.1h7.3v5.8h-7.3C1418.3,1125.8,1418.3,1120.1,1418.3,1120.1z"/>
	<path class="st30" d="M1491.2,1120.1h7.9v5.8h-7.9C1491.2,1125.8,1491.1,1120.1,1491.2,1120.1z"/>
	<path class="st30" d="M1563.9,1120.1h8v5.8h-8C1563.9,1125.8,1563.8,1120.1,1563.9,1120.1z"/>
	<path class="st30" d="M1588.7,1120.3h4.5v4.9h-4.4C1588.8,1125.2,1588.7,1120.2,1588.7,1120.3z"/>
	<path class="st31" d="M1241.9,1154.1v-37.6c0,0,0.7-6.3,15.2-6.3c14.5,0,121.1,0,121.1,0s7.9-1,7.9,9.6s0,50.8,0,50.8
		s1.3,7.3-14.2,7.3s-121.8,0-121.8,0s-8.3,0.7-8.3-8.6S1241.9,1154.1,1241.9,1154.1z"/>
	<path class="st32" d="M1310.5,1138.9v12.2h8.8v-12.4C1319.3,1138.7,1310.4,1138.8,1310.5,1138.9z"/>
	<line class="st33" x1="1385.7" y1="1145.7" x2="1242.1" y2="1145.7"/>
	<circle class="st14" cx="1118.4" cy="1172.2" r="78.7"/>
	<circle class="st15" cx="1118.8" cy="1170.1" r="48.8"/>
	<circle class="st12" cx="1118.8" cy="1170.1" r="48.8"/>
	<circle class="st16" cx="1118.4" cy="1169.5" r="42.8"/>
	<circle class="st17" cx="1119" cy="1170.6" r="18.4"/>
	<circle class="st18" cx="1106.9" cy="1149.5" r="2.5"/>
	<circle class="st18" cx="1118.9" cy="1146.5" r="2.5"/>
	<circle class="st18" cx="1131.2" cy="1150.2" r="2.5"/>
	<circle class="st18" cx="1139.7" cy="1158.4" r="2.5"/>
	<circle class="st18" cx="1142.3" cy="1170.8" r="2.5"/>
	<circle class="st18" cx="1139.8" cy="1182.7" r="2.5"/>
	<circle class="st18" cx="1131.2" cy="1191.4" r="2.5"/>
	<circle class="st18" cx="1119.2" cy="1194.5" r="2.5"/>
	<circle class="st18" cx="1106.1" cy="1190.9" r="2.5"/>
	<circle class="st18" cx="1098.1" cy="1182.4" r="2.5"/>
	<circle class="st18" cx="1094.9" cy="1170.4" r="2.5"/>
	<circle class="st18" cx="1097.7" cy="1158" r="2.5"/>
	<path class="st19" d="M1094,1134.6c0,0,4,14.9-10.7,11.3C1083.3,1145.9,1085.5,1139.7,1094,1134.6z"/>
	<path class="st19" d="M1110.5,1127.6c0,0,6.4,12,17.4,0.5C1127.9,1128.1,1120.1,1125.1,1110.5,1127.6z"/>
	<path class="st19" d="M1142.5,1134.6c0,0-3.1,14.6,11.7,11.7C1154.1,1146.2,1149.6,1137.9,1142.5,1134.6z"/>
	<path class="st19" d="M1160.2,1161.8c0,0-9.2,9.9-0.5,17.9C1159.7,1179.6,1162.8,1172.2,1160.2,1161.8z"/>
	<path class="st19" d="M1143.1,1204.5c0,0-0.9-11.3,10.3-10.7C1153.4,1193.8,1150.1,1199.7,1143.1,1204.5z"/>
	<path class="st19" d="M1126.6,1211.2c0,0-7.1-9.9-16.6,0.2C1110,1211.3,1117.2,1213.8,1126.6,1211.2z"/>
	<path class="st19" d="M1083.3,1193.8c0,0,12.1-1.7,11,10.7C1094.3,1204.5,1088.7,1201.5,1083.3,1193.8z"/>
	<path class="st19" d="M1076.5,1161.3c0,0,10.4,8.4,0.5,18.3C1076.9,1179.6,1074.4,1172.8,1076.5,1161.3z"/>
	<path d="M1192.6,1145.5c0,0,23.1,81.5-72,102.5c0,0-87.4-4.1-76.9-102c0,0-20.5,55.5,31,92c0,0,20.3,14.8,47,13
		c26.7-1.8,52.7-13.7,68.6-46.2C1199.6,1179.4,1198.6,1169.3,1192.6,1145.5z"/>
	<circle class="st20" cx="1118.4" cy="1169.5" r="42.8"/>
	<path class="st34" d="M1206.7,1176.9c0,0,8.3-55.7-60.6-83.8c0,0-45.8-17.1-84.3,14.3c0,0-28.7,13.2-34.2,70c0,0-3.9,8.3-17.6,8.3
		h-10.8l0.9-54l13.4-1.1l17.1-35.8c0,0,5.9-17.9,30.8-17.9s126.4,0.3,126.4,0.3s17,0.3,23.2,26.4s14.7,29,26.1,29v53.4l-25.2-0.3
		C1211.7,1185.7,1206.4,1184.8,1206.7,1176.9z"/>
	<path class="st35" d="M1108.5,1083.6c0,0-63.8,0.4-76.5,41c-12.7,40.6-16.5,60.9-16.5,60.9s-11.6,0.8-16.4,0.2l0.9-54l13.4-1.1
		l17.1-35.8c0,0,6.3-18,30.8-17.9s126.4,0.3,126.4,0.3s19.4,0.1,23.2,26.4c6,24.5,13.5,25.8,26.9,28.3l-0.8,54.1l-25.2-0.3
		c0,0-5.3-0.8-5-8.8c0,0,16.9-3.9,10.2-39.3c0,0-14.5-9.1-15.5-27.4S1185.9,1083.9,1108.5,1083.6z"/>
	<path class="st36" d="M1736,1180.7c0,0-14.1-88.6,62.3-98.4l-55.9-0.4c0,0-23.4,26.1-24.5,67.9c-1.1,41.7-0.4,35.6-0.4,35.6
		S1733.1,1187.6,1736,1180.7z"/>
	<path class="st37" d="M1724.5,802.4l-0.3,37.4c0,0,8,1.6,14.8,0l-0.3-41.2L1724.5,802.4z"/>
	<ellipse class="st21" cx="1731.6" cy="800.6" rx="8.2" ry="8.5"/>
	<path class="st38" d="M1721,839.8c0,0,11.8,1.6,21.3-0.3v214.7c0,0-13.9,3.5-21.3-0.3V839.8z"/>
	<path class="st0" d="M1700.3,1102.7v24.7c0,0,5.9,8.8,12.9-0.2v-20.6c0,0-0.7-7,7-9.7c7.7-2.7,14.3-9.1,15.2-17.4
		c0.9-8.4,0.7-24,0.7-24s-6.9,1-13.4-0.3l-0.4,20c0,0-0.9,5.7-7.9,9.5S1700.8,1091.2,1700.3,1102.7z"/>
	<path class="st8" d="M1728.9,1056.2l-0.7,19.2c0,0-1.8,9.5-9,13c-7.3,3.5-12.3,8.2-12.3,15s-0.2,28-0.2,28s-4.8,1.5-6.4-3.9
		l0.4-27.9c0,0,0.2-8.4,11.7-13.9c11.5-5.5,9.9-10.6,9.9-10.6l0.4-20C1722.7,1055.1,1726.1,1056.2,1728.9,1056.2z"/>
	<path class="st39" d="M1742.1,844.9c0,0-8.2,2.4-21.1-0.2"/>
	<path class="st39" d="M1742.1,850.5c0,0-8.2,2.4-21.1-0.2"/>
	<path class="st39" d="M1742.1,855.8c0,0-8.2,2.4-21.1-0.2"/>
	<path class="st39" d="M1742.1,861.2c0,0-8.2,2.4-21.1-0.2"/>
	<path class="st39" d="M1742.1,866.8c0,0-8.2,2.4-21.1-0.2"/>
	<path class="st39" d="M1742.1,872.4c0,0-8.2,2.4-21.1-0.2"/>
	<path class="st39" d="M1741.9,878c0,0-8.2,2.4-21.1-0.2"/>
	<path class="st39" d="M1741.9,883.6c0,0-8.2,2.4-21.1-0.2"/>
	<path class="st39" d="M1741.9,889c0,0-8.2,2.4-21.1-0.2"/>
	<path class="st39" d="M1741.9,894.4c0,0-8.2,2.4-21.1-0.2"/>
	<path class="st39" d="M1741.9,900.2c0,0-8.2,2.4-21.1-0.2"/>
	<path class="st39" d="M1741.9,905.6c0,0-8.2,2.4-21.1-0.2"/>
	<path class="st39" d="M1741.9,911.8c0,0-8.2,2.4-21.1-0.2"/>
	<path class="st39" d="M1741.9,917.6c0,0-8.2,2.4-21.1-0.2"/>
	<path class="st39" d="M1741.9,923.2c0,0-8.2,2.4-21.1-0.2"/>
	<path class="st39" d="M1741.9,929.2c0,0-8.2,2.4-21.1-0.2"/>
	<path class="st39" d="M1741.9,935.1c0,0-8.2,2.4-21.1-0.2"/>
	<path class="st39" d="M1742.2,941.2c0,0-8.2,2.4-21.1-0.2"/>
	<path class="st39" d="M1742.2,947.9c0,0-8.2,2.4-21.1-0.2"/>
	<path class="st39" d="M1742,954c0,0-8.2,2.4-21.1-0.2"/>
	<path class="st39" d="M1742,960.5c0,0-8.2,2.4-21.1-0.2"/>
	<path class="st39" d="M1742,966.2c0,0-8.2,2.4-21.1-0.2"/>
	<path class="st39" d="M1742,972.5c0,0-8.2,2.4-21.1-0.2"/>
	<path class="st39" d="M1742,978.1c0,0-8.2,2.4-21.1-0.2"/>
	<path class="st39" d="M1742,985c0,0-8.2,2.4-21.1-0.2"/>
	<path class="st39" d="M1742,991.1c0,0-8.2,2.4-21.1-0.2"/>
	<path class="st39" d="M1742,996.6c0,0-8.2,2.4-21.1-0.2"/>
	<path class="st39" d="M1742,1002.4c0,0-8.2,2.4-21.1-0.2"/>
	<path class="st39" d="M1742,1008.3c0,0-8.2,2.4-21.1-0.2"/>
	<path class="st39" d="M1742,1014.6c0,0-8.2,2.4-21.1-0.2"/>
	<path class="st39" d="M1742,1021.7c0,0-8.2,2.4-21.1-0.2"/>
	<path class="st39" d="M1742,1028.4c0,0-8.2,2.4-21.1-0.2"/>
	<path class="st39" d="M1742,1034.9c0,0-8.2,2.4-21.1-0.2"/>
	<path class="st39" d="M1742,1041.4c0,0-8.2,2.4-21.1-0.2"/>
	<path class="st39" d="M1741.7,1048.3c0,0-8.2,2.4-21.1-0.2"/>
	<line class="st40" x1="1736.5" y1="840.4" x2="1736.5" y2="1055.4"/>
	<line class="st40" x1="1724.2" y1="839.8" x2="1724.2" y2="1055.1"/>
	<line class="st40" x1="1729.6" y1="840.8" x2="1729.6" y2="1056.2"/>
	<path class="st36" d="M1740,1054.3v28.2h113.9c0,0,58.2,1.1,58.2,55.2l-0.4,41c0,0-1.9,5.6,6.8,6c8.6,0.4,16.9,0,16.9,0l-1.7-59.2
		c0,0-7.4-69.5-78.8-70.2S1740,1054.3,1740,1054.3z"/>
	<path class="st41" d="M1770.9,1063.6l72.9-0.3c0,0,62.5-4.9,76.9,38.9c14.4,43.8,14.7,82.5,14.7,82.5l-1.7-59.2
		c0,0-5.2-70.5-82.7-70.5c-77.5,0-111-0.7-111-0.7l-0.2,10.5L1770.9,1063.6z"/>
	<path class="st11" d="M1689.4,768.8l0.3,20.9c0,0,5.5,1.3,18.6,0l-0.5-21.2L1689.4,768.8z"/>
	<path class="st87" d="M1710.8,789.1l0.1,4.4h-23.8l0.1-4.1C1687.2,789.5,1696.3,790.5,1710.8,789.1z"/>
	<polygon class="st89" points="1680.9,792.8 1637.5,892.7 1716,892.7 1716,792.8 	"/>
	<polygon class="st8" points="1644.5,876.4 1694.5,877 1715.8,845.6 1716,892.7 1637.5,892.7 	"/>
	<line class="st42" x1="1640.9" y1="883.2" x2="986.3" y2="631.4"/>
	<path class="st42" d="M952.7,665.5c0,0,7.4,106.1,8.9,117"/>
	<line class="st42" x1="993.1" y1="676.8" x2="983.3" y2="786.4"/>
	<polygon class="st43" points="1012.4,661.2 1100.6,695.4 1090.3,719.9 1007.5,686.7 	"/>
	<path class="st10" d="M1019,668.4c0,0,0.7,13.2,15.9,18.9c15.2,5.6,59.6,22.8,59.6,22.8l5-12.2c0,0-67.8-23.2-72.8-27.1
		c-5-4-6.9-5.1-6.9-5.1S1018.5,667.4,1019,668.4z"/>
	<circle class="st10" cx="973.1" cy="651.3" r="27.4"/>
	<circle class="st9" cx="973.7" cy="651.5" r="21.8"/>
	<path class="st44" d="M1020.1,658.5l-12.9,34.1c0,0-42.9-11.1-47-25.4c-4.2-14.3,1.8-26.3,5.1-34.1L1020.1,658.5z"/>
	<path class="st45" d="M981.2,676.9l22.7,9.6c0,0,5.2-20.7,16.2-28l-12.9,34.1c0,0-41.1-9.9-47-25.4c0,0-3.2-6.7,0.2-20.3
		c0,0-1.3,19.2,6.7,23.5C975.1,674.7,981.2,676.9,981.2,676.9z"/>
	<circle class="st46" cx="973.1" cy="650.4" r="5.4"/>
	<circle class="st10" cx="1148.4" cy="693.5" r="11.8"/>
	<circle class="st9" cx="1463" cy="827.7" r="18"/>
	<circle class="st10" cx="1463.3" cy="827.9" r="11.5"/>
	<polygon class="st44" points="1603.3,894.8 1105.1,685.2 1086.6,728 1336.4,835.5 1354.5,855.6 1541.2,940.2 	"/>
	<polyline class="st47" points="1580.4,897.4 1110.1,699.5 1100.5,723.1 	"/>
	<g>
		<polygon class="st48" points="1362.2,849.5 1342.1,829 1099.9,723.5 1102.4,717.6 1344.9,823.8 1366.8,846.1 1552.1,929.7 
			1547.6,933.3 		"/>
		<path class="st45" d="M1102.9,718.9l241.4,105.7l21.9,22.3l183.9,83l-2.7,2.2l-184.7-83.5l-20-20.4l-241.5-105.2L1102.9,718.9
			 M1101.9,716.3l-0.8,1.9l-1.7,4l-0.8,1.8l1.8,0.8l241.1,105.1l19.8,20.2l0.3,0.3l0.3,0.2l184.7,83.5l1.1,0.5l1-0.8l2.7-2.2l2.6-2
			l-3-1.3l-183.6-82.9l-21.7-22l-0.3-0.3l-0.4-0.2l-241.4-105.7L1101.9,716.3L1101.9,716.3z"/>
	</g>
	<circle class="st49" cx="1385.5" cy="837.9" r="6.6"/>
	<polygon class="st43" points="1373.5,864.2 1373.5,930 1394.7,930 1395,873.8 	"/>
	<polygon class="st10" points="1386.1,872.9 1386.8,929 1376.8,929 1376.8,867.4 1385.9,871.3 	"/>
	<path class="st43" d="M1369,929.4c0,0,10.4,0.4,31.1,0.1l-0.3,36.5h-31L1369,929.4z"/>
	<path class="st9" d="M971.2,795.8c0,0,2.1,5.5-1.4,6.9s-11.7,8.7-4.1,14.6S979,818.9,982,807c0,0-3.7,0.5-6.4,6.2
		c0,0-6.4,6.9-7.3-3.2c0,0,0-2.5,3.9-4.1c3.9-1.6,3.4-5.5,1.4-11.9L971.2,795.8z"/>
	<path class="st50" d="M964.6,764.2c0,0-1.9,14-5.8,20.2c0,0-2.3,4.7,0,6.2c2.3,1.6,10.5,5.8,10.5,5.8s1.9,3.9,7.4,0l8.2-6.2
		c0,0,2.7,0.4,1.2-5.4c-1.6-5.8-6.6-20.6-6.6-20.6H964.6z"/>
	<path class="st45" d="M977,766.6l6.2,17.4c0,0,1.7,2.5-0.2,4.7c-1.9,2.2-7.4,6.1-7.4,6.1s-2,1.7-4.6-0.2c-2.5-1.9-6.2-3.5-6.2-3.5
		l4.6,5.4c0,0,2.7,3.9,7.4,0c4.7-3.9,8.2-6.2,8.2-6.2s2.6,0.3,1.2-5.4c-1.4-5.7-6.6-20.6-6.6-20.6L977,766.6z"/>
	<g>
		<path class="st48" d="M958.9,790.5c-0.1,0-0.6-0.2-0.9-0.9c-0.3-0.8-0.4-2.2,1-5c2.9-5.7,4.8-12.4,5.8-20.1h14l-1.9,1.9l-10.7-0.2
			l0,0.2c0,0.2-1.4,16.8-6.3,20.1c-0.1,0.1-0.5,0.5-0.4,1.2c0.2,0.7,0.9,1.3,2.3,1.8c2.4,0.9,5.4,4.5,6.7,6.3L958.9,790.5z"/>
		<path class="st50" d="M978.2,764.7l-1.4,1.4l-10.4-0.2l-0.5,0l0,0.5c0,0.2-1.4,16.7-6.2,19.9l0,0l0,0c-0.2,0.2-0.5,0.7-0.4,1.4
			c0.2,0.8,1,1.5,2.4,2c1.9,0.7,4.3,3.4,5.8,5.2l-8.4-4.7l0,0l0,0c0,0-0.4-0.2-0.7-0.7c-0.3-0.7-0.4-2.1,1-4.8
			c2.8-5.6,4.8-12.4,5.8-20H978.2 M979.4,764.2h-14.8c-1.1,8.3-3.1,14.9-5.8,20.2c-2.7,5.4,0,6.2,0,6.2l10.5,5.8
			c0,0-4.3-6.1-7.5-7.3c-3.2-1.2-1.9-2.5-1.9-2.5c5.1-3.4,6.4-20.3,6.4-20.3l10.6,0.2L979.4,764.2L979.4,764.2z"/>
	</g>
	<line class="st42" x1="971.7" y1="812.2" x2="971.7" y2="821.6"/>
	<polygon class="st51" points="969.4,821.7 974.3,821.7 974.3,858.8 969.7,858.8 	"/>
	<line class="st103" x1="971.9" y1="859.4" x2="972.9" y2="1097.1"/>
	<polygon class="st89" points="1716,892.7 1716,1080 992.2,1080 992.2,1026.7 1110.2,966.5 1514.9,966.5 1587.2,894.3 	"/>
	<path class="st6" d="M1680.9,1047.5l31.2,32.1h-19.5l-32.2-32.2C1660.4,1047.4,1681.2,1047.3,1680.9,1047.5z"/>
	<path class="st6" d="M1646.3,1047.5l31.2,32.1h-19.5l-32.2-32.2C1625.7,1047.4,1646.5,1047.3,1646.3,1047.5z"/>
	<path class="st6" d="M1612.3,1047.5l31.2,32.1H1624l-32.2-32.2C1591.8,1047.4,1612.6,1047.3,1612.3,1047.5z"/>
	<path class="st6" d="M1577,1047.5l31.2,32.1h-19.5l-32.2-32.2C1556.4,1047.4,1577.2,1047.3,1577,1047.5z"/>
	<path class="st6" d="M1542.6,1047.6l31.2,32h-19.5l-32.2-32.1C1522,1047.5,1542.8,1047.4,1542.6,1047.6z"/>
	<path class="st6" d="M1507.5,1047.9l31.2,31.7h-19.5l-32.2-31.8C1486.9,1047.8,1507.7,1047.7,1507.5,1047.9z"/>
	<path class="st6" d="M1472.8,1047.9l31.2,31.7h-19.5l-32.2-31.8C1452.2,1047.8,1473.1,1047.7,1472.8,1047.9z"/>
	<path class="st6" d="M1437.7,1047.9l31.2,31.7h-19.5l-32.2-31.8C1417.1,1047.8,1437.9,1047.7,1437.7,1047.9z"/>
	<path class="st6" d="M1403.3,1048.2l31.2,31.4h-19.5l-32.2-31.5C1382.7,1048.1,1403.5,1047.9,1403.3,1048.2z"/>
	<path class="st6" d="M1368.6,1048.2l31.2,31.4h-19.5l-32.2-31.5C1348.1,1048.1,1368.9,1047.9,1368.6,1048.2z"/>
	<path class="st6" d="M1333.8,1048.2l31.2,31.4h-19.5l-32.2-31.5C1313.2,1048.1,1334,1048,1333.8,1048.2z"/>
	<path class="st6" d="M1298.7,1048.3l31.2,31.3h-19.5l-32.2-31.4C1278.1,1048.2,1298.9,1048.1,1298.7,1048.3z"/>
	<path class="st6" d="M1264.2,1048.4l31.2,31.2h-19.5l-32.2-31.3C1243.7,1048.3,1264.5,1048.2,1264.2,1048.4z"/>
	<path class="st6" d="M1229.8,1048.4l31.2,31.2h-19.5l-32.2-31.3C1209.2,1048.3,1230.1,1048.2,1229.8,1048.4z"/>
	<path class="st6" d="M1194.2,1048.8l31.2,30.8h-19.5l-32.2-30.9C1173.7,1048.6,1194.5,1048.5,1194.2,1048.8z"/>
	<path class="st6" d="M1159.4,1048.8l31.2,30.8H1171l-32.2-30.9C1138.8,1048.6,1159.6,1048.5,1159.4,1048.8z"/>
	<path class="st6" d="M1124,1049l31.2,30.6h-19.5l-32.2-30.7C1103.4,1048.9,1124.3,1048.8,1124,1049z"/>
	<path class="st6" d="M1089.1,1049.1l31.2,30.5h-19.5l-32.2-30.6C1068.6,1049,1089.4,1048.9,1089.1,1049.1z"/>
	<path class="st6" d="M1054,1049.2l31.2,30.4h-19.5l-32.2-30.5C1033.4,1049.1,1054.3,1049,1054,1049.2z"/>
	<polygon class="st1" points="1695.3,915.7 1695.3,1056.2 1688.2,1046.9 1688.2,921.1 	"/>
	<polygon class="st87" points="1596.3,921.9 1688.2,921.1 1695.3,915.7 1592.2,915.7 1523.7,988.5 1111,988.5 1012.8,1037.6 
		1012.8,1057 1020.4,1049.1 1020.4,1043.3 1117,995.9 1527,995.9 	"/>
	<polyline class="st1" points="1688.2,1046.9 1020.4,1049.1 1012.8,1057 1695.3,1056.2 	"/>
	<path class="st91" d="M1601.7,938.3h74.3v98.1h-74.3C1601.7,1036.4,1602,938.6,1601.7,938.3z"/>
	<polygon class="st6" points="1628.9,1019.6 1628.9,1028.7 1650.9,1028.7 1650.9,1018.6 1628.7,1018.6 	"/>
	<g>
		<path class="st9" d="M961.6,1092.8c0,0-0.3,10.5,1.6,11.4c1.9,0.9,19.9-6.9,21-10.7C984.3,1093.5,970.6,1094.9,961.6,1092.8z"/>
		<path class="st53" d="M294,1180.4l133.2-13.7c0,0,10.9-58.1-57.3-71.4S286.5,1146.1,294,1180.4z"/>
		<polygon class="st53" points="869.6,1124.9 878.5,1123.7 893.4,1074.9 827.4,1042.2 756.1,1061.2 747.1,1122.6 756.3,1138.9 		"/>
		<circle class="st14" cx="815.9" cy="1120" r="53.9"/>
		<g>
			<g>
				<path class="st54" d="M816.3,1157.5c-1.4,0-2.8-0.1-4.1-0.2c-9.3-1.1-17.5-5.7-23.3-13.1c-5.8-7.3-8.3-16.5-7.3-25.7
					c2.1-17.6,17-30.8,34.6-30.8c1.4,0,2.8,0.1,4.1,0.2c19.1,2.3,32.8,19.7,30.6,38.8C848.8,1144.3,833.9,1157.5,816.3,1157.5z"/>
				<path class="st55" d="M816.2,1089.2c1.3,0,2.6,0.1,4,0.2c18.3,2.2,31.4,18.8,29.2,37.1c-2,17-16.4,29.5-33.1,29.5
					c-1.3,0-2.6-0.1-4-0.2c-18.3-2.2-31.4-18.8-29.2-37.1C785.1,1101.7,799.5,1089.2,816.2,1089.2 M816.2,1086.2L816.2,1086.2
					c-18.4,0-33.9,13.8-36.1,32.1c-2.4,19.9,11.9,38.1,31.9,40.4c1.4,0.2,2.9,0.3,4.3,0.3c18.4,0,33.9-13.8,36.1-32.1
					c1.1-9.7-1.5-19.2-7.6-26.8c-6-7.6-14.7-12.5-24.3-13.6C819.1,1086.3,817.6,1086.2,816.2,1086.2L816.2,1086.2z"/>
			</g>
			<g>
				<path class="st56" d="M816.2,1142c-0.8,0-1.5,0-2.3-0.1c-5-0.6-9.6-3.1-12.7-7.1c-3.1-4-4.6-9-4-14c1.1-9.6,9.2-16.8,18.9-16.8
					c0.8,0,1.5,0,2.3,0.1c10.4,1.2,17.9,10.7,16.7,21.1C834,1134.8,825.8,1142,816.2,1142z"/>
				<path class="st57" d="M816.2,1103v2c0.7,0,1.4,0,2.1,0.1c4.8,0.6,9.1,3,12,6.7c3,3.8,4.3,8.5,3.7,13.3
					c-1.1,9.1-8.8,15.9-17.9,15.9c-0.7,0-1.4,0-2.1-0.1c-9.9-1.2-17-10.1-15.8-20c1.1-9.1,8.8-15.9,17.9-15.9L816.2,1103
					 M816.2,1103c-10,0-18.7,7.5-19.9,17.7c-1.3,11,6.6,20.9,17.5,22.2c0.8,0.1,1.6,0.1,2.4,0.1c10,0,18.7-7.5,19.9-17.7
					c1.3-11-6.6-20.9-17.5-22.2C817.7,1103,817,1103,816.2,1103L816.2,1103z"/>
			</g>
			<circle class="st58" cx="816.5" cy="1123" r="6.7"/>
			<g>
				<path class="st59" d="M807.1,1100.7c-0.1,0-0.2,0-0.3,0c-0.6-0.1-1.1-0.3-1.4-0.8s-0.5-1-0.4-1.6c0.1-1.1,1-1.9,2.1-1.9
					c0.1,0,0.2,0,0.2,0c1.2,0.1,2,1.2,1.8,2.3C809.1,1099.9,808.2,1100.7,807.1,1100.7z"/>
				<path class="st60" d="M807.1,1096.7L807.1,1096.7c0.1,0,0.1,0,0.2,0c0.5,0.1,0.9,0.3,1.2,0.7c0.3,0.4,0.4,0.9,0.4,1.4
					c-0.1,0.9-0.9,1.6-1.8,1.6c-0.1,0-0.1,0-0.2,0c-1-0.1-1.7-1-1.6-2.1C805.4,1097.4,806.2,1096.7,807.1,1096.7 M807.1,1096.2
					c-1.2,0-2.2,0.9-2.3,2.1c-0.2,1.3,0.8,2.5,2.1,2.6c0.1,0,0.2,0,0.3,0c1.2,0,2.2-0.9,2.3-2.1c0.2-1.3-0.8-2.5-2.1-2.6
					C807.3,1096.2,807.2,1096.2,807.1,1096.2L807.1,1096.2z"/>
			</g>
			<g>
				<path class="st59" d="M821.3,1099.3c-0.1,0-0.2,0-0.3,0c-1.2-0.1-2-1.2-1.8-2.3c0.1-1.1,1-1.9,2.1-1.9c0.1,0,0.2,0,0.3,0
					c0.6,0.1,1.1,0.3,1.4,0.8s0.5,1,0.4,1.6C823.3,1098.5,822.4,1099.3,821.3,1099.3z"/>
				<g>
					<path class="st60" d="M821.3,1095.3L821.3,1095.3c0.1,0,0.1,0,0.2,0c1,0.1,1.7,1,1.6,2.1c-0.1,0.9-0.9,1.6-1.8,1.6
						c-0.1,0-0.1,0-0.2,0c-1-0.1-1.7-1-1.6-2.1C819.6,1096,820.4,1095.3,821.3,1095.3 M821.3,1094.8c-1.2,0-2.2,0.9-2.3,2.1
						c-0.2,1.3,0.8,2.5,2.1,2.6c0.1,0,0.2,0,0.3,0c1.2,0,2.2-0.9,2.3-2.1c0.2-1.3-0.8-2.5-2.1-2.6
						C821.5,1094.8,821.4,1094.8,821.3,1094.8L821.3,1094.8z"/>
				</g>
			</g>
			<g>
				<path class="st61" d="M817.4,1112.3c-0.7-0.1-1.2-0.7-1.1-1.5c0.1-0.7,0.6-1.2,1.3-1.2c0.1,0,0.1,0,0.2,0c0.3,0,0.7,0.2,0.9,0.5
					c0.2,0.3,0.3,0.6,0.3,1c-0.1,0.7-0.6,1.2-1.3,1.2C817.5,1112.4,817.4,1112.4,817.4,1112.3z"/>
				<g>
					<path class="st62" d="M817.5,1110L817.5,1110c0,0,0.1,0,0.1,0c0.6,0.1,1,0.6,0.9,1.2c-0.1,0.5-0.5,0.9-1,0.9c0,0-0.1,0-0.1,0
						c-0.3,0-0.5-0.2-0.7-0.4s-0.3-0.5-0.2-0.8C816.5,1110.4,817,1110,817.5,1110 M817.5,1109.5c-0.8,0-1.5,0.6-1.5,1.4
						c-0.1,0.9,0.5,1.6,1.4,1.7c0.1,0,0.1,0,0.2,0c0.8,0,1.5-0.6,1.5-1.4c0.1-0.9-0.5-1.6-1.4-1.7
						C817.6,1109.5,817.6,1109.5,817.5,1109.5L817.5,1109.5z"/>
				</g>
			</g>
			<g>
				<path class="st61" d="M827.5,1125.2c-0.7-0.1-1.2-0.7-1.1-1.5c0.1-0.7,0.6-1.2,1.3-1.2c0.1,0,0.1,0,0.2,0
					c0.7,0.1,1.2,0.7,1.1,1.5c-0.1,0.7-0.6,1.2-1.3,1.2C827.6,1125.3,827.6,1125.3,827.5,1125.2z"/>
				<g>
					<path class="st62" d="M827.7,1122.9L827.7,1122.9c0,0,0.1,0,0.1,0c0.3,0,0.5,0.2,0.7,0.4c0.2,0.2,0.3,0.5,0.2,0.8
						c-0.1,0.5-0.5,0.9-1,0.9c0,0-0.1,0-0.1,0c-0.3,0-0.5-0.2-0.7-0.4c-0.2-0.2-0.3-0.5-0.2-0.8
						C826.7,1123.3,827.1,1122.9,827.7,1122.9 M827.7,1122.4c-0.8,0-1.5,0.6-1.5,1.4c-0.1,0.9,0.5,1.6,1.4,1.7c0.1,0,0.1,0,0.2,0
						c0.8,0,1.5-0.6,1.5-1.4c0.1-0.9-0.5-1.6-1.4-1.7C827.8,1122.4,827.7,1122.4,827.7,1122.4L827.7,1122.4z"/>
				</g>
			</g>
			<g>
				<path class="st61" d="M814.9,1135c-0.7-0.1-1.2-0.7-1.1-1.5c0.1-0.7,0.6-1.2,1.3-1.2c0.1,0,0.1,0,0.2,0c0.3,0,0.7,0.2,0.9,0.5
					c0.2,0.3,0.3,0.6,0.3,1c-0.1,0.7-0.6,1.2-1.3,1.2C815,1135,814.9,1135,814.9,1135z"/>
				<g>
					<path class="st62" d="M815,1132.7L815,1132.7c0,0,0.1,0,0.1,0c0.6,0.1,1,0.6,0.9,1.2c-0.1,0.5-0.5,0.9-1,0.9c0,0-0.1,0-0.1,0
						c-0.6-0.1-1-0.6-0.9-1.2C814,1133.1,814.5,1132.7,815,1132.7 M815,1132.2c-0.8,0-1.5,0.6-1.5,1.4c-0.1,0.9,0.5,1.6,1.4,1.7
						c0.1,0,0.1,0,0.2,0c0.8,0,1.5-0.6,1.5-1.4c0.1-0.9-0.5-1.6-1.4-1.7C815.1,1132.2,815.1,1132.2,815,1132.2L815,1132.2z"/>
				</g>
			</g>
			<g>
				<path class="st61" d="M804.4,1123.2c-0.7-0.1-1.2-0.7-1.1-1.5c0.1-0.7,0.6-1.2,1.3-1.2c0.1,0,0.1,0,0.2,0
					c0.7,0.1,1.2,0.7,1.1,1.5c-0.1,0.7-0.6,1.2-1.3,1.2C804.5,1123.2,804.5,1123.2,804.4,1123.2z"/>
				<g>
					<path class="st62" d="M804.6,1120.8L804.6,1120.8c0,0,0.1,0,0.1,0c0.6,0.1,1,0.6,0.9,1.2c-0.1,0.5-0.5,0.9-1,0.9
						c0,0-0.1,0-0.1,0c-0.3,0-0.5-0.2-0.7-0.4s-0.3-0.5-0.2-0.8C803.6,1121.2,804,1120.8,804.6,1120.8 M804.6,1120.3
						c-0.8,0-1.5,0.6-1.5,1.4c-0.1,0.9,0.5,1.6,1.4,1.7c0.1,0,0.1,0,0.2,0c0.8,0,1.5-0.6,1.5-1.4c0.1-0.9-0.5-1.6-1.4-1.7
						C804.7,1120.3,804.6,1120.3,804.6,1120.3L804.6,1120.3z"/>
				</g>
			</g>
			<g>
				<path class="st59" d="M834.9,1106.4c-0.1,0-0.2,0-0.3,0c-0.6-0.1-1.1-0.3-1.4-0.8s-0.5-1-0.4-1.6c0.1-1.1,1-1.9,2.1-1.9
					c0.1,0,0.2,0,0.2,0c1.2,0.1,2,1.2,1.8,2.3C836.9,1105.6,836,1106.4,834.9,1106.4z"/>
				<g>
					<path class="st60" d="M834.9,1102.4L834.9,1102.4c0.1,0,0.1,0,0.2,0c1,0.1,1.7,1,1.6,2.1c-0.1,0.9-0.9,1.6-1.8,1.6
						c-0.1,0-0.1,0-0.2,0c-1-0.1-1.7-1-1.6-2.1C833.2,1103.1,834,1102.4,834.9,1102.4 M834.9,1101.9c-1.2,0-2.2,0.9-2.3,2.1
						c-0.2,1.3,0.8,2.5,2.1,2.6c0.1,0,0.2,0,0.3,0c1.2,0,2.2-0.9,2.3-2.1c0.2-1.3-0.8-2.5-2.1-2.6
						C835.1,1101.9,835,1101.9,834.9,1101.9L834.9,1101.9z"/>
				</g>
			</g>
			<g>
				<path class="st59" d="M841.3,1116.9c-0.1,0-0.2,0-0.3,0c-0.6-0.1-1.1-0.3-1.4-0.8s-0.5-1-0.4-1.6c0.1-1.1,1-1.9,2.1-1.9
					c0.1,0,0.2,0,0.3,0c1.2,0.1,2,1.2,1.8,2.3C843.3,1116.1,842.4,1116.9,841.3,1116.9z"/>
				<g>
					<path class="st60" d="M841.3,1112.9L841.3,1112.9c0.1,0,0.1,0,0.2,0c0.5,0.1,0.9,0.3,1.2,0.7c0.3,0.4,0.4,0.9,0.4,1.4
						c-0.1,0.9-0.9,1.6-1.8,1.6c-0.1,0-0.1,0-0.2,0c-0.5-0.1-0.9-0.3-1.2-0.7c-0.3-0.4-0.4-0.9-0.4-1.4
						C839.6,1113.6,840.4,1112.9,841.3,1112.9 M841.3,1112.4c-1.2,0-2.2,0.9-2.3,2.1c-0.2,1.3,0.8,2.5,2.1,2.6c0.1,0,0.2,0,0.3,0
						c1.2,0,2.2-0.9,2.3-2.1c0.2-1.3-0.8-2.5-2.1-2.6C841.5,1112.4,841.4,1112.4,841.3,1112.4L841.3,1112.4z"/>
				</g>
			</g>
			<g>
				<path class="st59" d="M841.8,1129.7c-0.1,0-0.2,0-0.3,0c-1.2-0.1-2-1.2-1.8-2.3c0.1-1.1,1-1.9,2.1-1.9c0.1,0,0.2,0,0.3,0
					c0.6,0.1,1.1,0.3,1.4,0.8c0.3,0.4,0.5,1,0.4,1.6C843.8,1128.9,842.9,1129.7,841.8,1129.7z"/>
				<g>
					<path class="st60" d="M841.8,1125.8L841.8,1125.8c0.1,0,0.1,0,0.2,0c0.5,0.1,0.9,0.3,1.2,0.7c0.3,0.4,0.4,0.9,0.4,1.4
						c-0.1,0.9-0.9,1.6-1.8,1.6c-0.1,0-0.1,0-0.2,0c-0.5-0.1-0.9-0.3-1.2-0.7c-0.3-0.4-0.4-0.9-0.4-1.4
						C840.1,1126.5,840.8,1125.8,841.8,1125.8 M841.8,1125.3c-1.2,0-2.2,0.9-2.3,2.1c-0.2,1.3,0.8,2.5,2.1,2.6c0.1,0,0.2,0,0.3,0
						c1.2,0,2.2-0.9,2.3-2.1c0.2-1.3-0.8-2.5-2.1-2.6C842,1125.3,841.9,1125.3,841.8,1125.3L841.8,1125.3z"/>
				</g>
			</g>
			<g>
				<path class="st59" d="M836.7,1141c-0.1,0-0.2,0-0.3,0c-1.2-0.1-2-1.2-1.8-2.3c0.1-1.1,1-1.9,2.1-1.9c0.1,0,0.2,0,0.3,0
					c0.6,0.1,1.1,0.3,1.4,0.8c0.3,0.4,0.5,1,0.4,1.6C838.7,1140.2,837.8,1141,836.7,1141z"/>
				<g>
					<path class="st60" d="M836.7,1137.1L836.7,1137.1c0.1,0,0.1,0,0.2,0c0.5,0.1,0.9,0.3,1.2,0.7c0.3,0.4,0.4,0.9,0.4,1.4
						c-0.1,0.9-0.9,1.6-1.8,1.6c-0.1,0-0.1,0-0.2,0c-0.5-0.1-0.9-0.3-1.2-0.7c-0.3-0.4-0.4-0.9-0.4-1.4
						C835,1137.8,835.8,1137.1,836.7,1137.1 M836.7,1136.6c-1.2,0-2.2,0.9-2.3,2.1c-0.2,1.3,0.8,2.5,2.1,2.6c0.1,0,0.2,0,0.3,0
						c1.2,0,2.2-0.9,2.3-2.1c0.2-1.3-0.8-2.5-2.1-2.6C836.9,1136.6,836.8,1136.6,836.7,1136.6L836.7,1136.6z"/>
				</g>
			</g>
			<g>
				<path class="st59" d="M826.2,1148.9c-0.1,0-0.2,0-0.3,0c-0.6-0.1-1.1-0.3-1.4-0.8s-0.5-1-0.4-1.6c0.1-1.1,1-1.9,2.1-1.9
					c0.1,0,0.2,0,0.2,0c1.2,0.1,2,1.2,1.8,2.3C828.1,1148.1,827.2,1148.9,826.2,1148.9z"/>
				<g>
					<path class="st60" d="M826.2,1145L826.2,1145c0.1,0,0.1,0,0.2,0c1,0.1,1.7,1,1.6,2.1c-0.1,0.9-0.9,1.6-1.8,1.6
						c-0.1,0-0.1,0-0.2,0c-1-0.1-1.7-1-1.6-2.1C824.4,1145.7,825.2,1145,826.2,1145 M826.2,1144.5c-1.2,0-2.2,0.9-2.3,2.1
						c-0.2,1.3,0.8,2.5,2.1,2.6c0.1,0,0.2,0,0.3,0c1.2,0,2.2-0.9,2.3-2.1c0.2-1.3-0.8-2.5-2.1-2.6
						C826.3,1144.5,826.3,1144.5,826.2,1144.5L826.2,1144.5z"/>
				</g>
			</g>
			<g>
				<path class="st59" d="M813.3,1151.4c-0.1,0-0.2,0-0.3,0c-0.6-0.1-1.1-0.3-1.4-0.8s-0.5-1-0.4-1.6c0.1-1.1,1-1.9,2.1-1.9
					c0.1,0,0.2,0,0.3,0c0.6,0.1,1.1,0.3,1.4,0.8s0.5,1,0.4,1.6C815.2,1150.6,814.3,1151.4,813.3,1151.4z"/>
				<g>
					<path class="st60" d="M813.3,1147.5L813.3,1147.5c0.1,0,0.1,0,0.2,0c1,0.1,1.7,1,1.6,2.1c-0.1,0.9-0.9,1.6-1.8,1.6
						c-0.1,0-0.1,0-0.2,0c-0.5-0.1-0.9-0.3-1.2-0.7c-0.3-0.4-0.4-0.9-0.4-1.4C811.5,1148.2,812.3,1147.5,813.3,1147.5 M813.3,1147
						c-1.2,0-2.2,0.9-2.3,2.1c-0.2,1.3,0.8,2.5,2.1,2.6c0.1,0,0.2,0,0.3,0c1.2,0,2.2-0.9,2.3-2.1c0.2-1.3-0.8-2.5-2.1-2.6
						C813.5,1147,813.4,1147,813.3,1147L813.3,1147z"/>
				</g>
			</g>
			<g>
				<path class="st59" d="M802.2,1147.5c-0.1,0-0.2,0-0.3,0c-0.6-0.1-1.1-0.3-1.4-0.8c-0.3-0.4-0.5-1-0.4-1.6c0.1-1.1,1-1.9,2.1-1.9
					c0.1,0,0.2,0,0.3,0c0.6,0.1,1.1,0.3,1.4,0.8c0.3,0.4,0.5,1,0.4,1.6C804.1,1146.7,803.2,1147.5,802.2,1147.5z"/>
				<g>
					<path class="st60" d="M802.2,1143.6L802.2,1143.6c0.1,0,0.1,0,0.2,0c1,0.1,1.7,1,1.6,2.1c-0.1,0.9-0.9,1.6-1.8,1.6
						c-0.1,0-0.1,0-0.2,0c-1-0.1-1.7-1-1.6-2.1C800.4,1144.3,801.2,1143.6,802.2,1143.6 M802.2,1143.1c-1.2,0-2.2,0.9-2.3,2.1
						c-0.2,1.3,0.8,2.5,2.1,2.6c0.1,0,0.2,0,0.3,0c1.2,0,2.2-0.9,2.3-2.1c0.2-1.3-0.8-2.5-2.1-2.6
						C802.4,1143.1,802.3,1143.1,802.2,1143.1L802.2,1143.1z"/>
				</g>
			</g>
			<g>
				<path class="st59" d="M793.7,1138.6c-0.1,0-0.2,0-0.3,0c-0.6-0.1-1.1-0.3-1.4-0.8s-0.5-1-0.4-1.6c0.1-1.1,1-1.9,2.1-1.9
					c0.1,0,0.2,0,0.3,0c0.6,0.1,1.1,0.3,1.4,0.8s0.5,1,0.4,1.6C795.7,1137.8,794.8,1138.6,793.7,1138.6z"/>
				<g>
					<path class="st60" d="M793.7,1134.7L793.7,1134.7c0.1,0,0.1,0,0.2,0c0.5,0.1,0.9,0.3,1.2,0.7c0.3,0.4,0.4,0.9,0.4,1.4
						c-0.1,0.9-0.9,1.6-1.8,1.6c-0.1,0-0.1,0-0.2,0c-0.5-0.1-0.9-0.3-1.2-0.7s-0.4-0.9-0.4-1.4
						C792,1135.4,792.8,1134.7,793.7,1134.7 M793.7,1134.2c-1.2,0-2.2,0.9-2.3,2.1c-0.2,1.3,0.8,2.5,2.1,2.6c0.1,0,0.2,0,0.3,0
						c1.2,0,2.2-0.9,2.3-2.1c0.2-1.3-0.8-2.5-2.1-2.6C793.9,1134.2,793.8,1134.2,793.7,1134.2L793.7,1134.2z"/>
				</g>
			</g>
			<g>
				<path class="st59" d="M789.7,1127.3c-0.1,0-0.2,0-0.3,0c-1.2-0.1-2-1.2-1.8-2.3c0.1-1.1,1-1.9,2.1-1.9c0.1,0,0.2,0,0.2,0
					c0.6,0.1,1.1,0.3,1.4,0.8s0.5,1,0.4,1.6C791.6,1126.5,790.8,1127.3,789.7,1127.3z"/>
				<g>
					<path class="st60" d="M789.7,1123.3L789.7,1123.3c0.1,0,0.1,0,0.2,0c1,0.1,1.7,1,1.6,2.1c-0.1,0.9-0.9,1.6-1.8,1.6
						c-0.1,0-0.1,0-0.2,0c-1-0.1-1.7-1-1.6-2.1C787.9,1124,788.7,1123.3,789.7,1123.3 M789.7,1122.8c-1.2,0-2.2,0.9-2.3,2.1
						c-0.2,1.3,0.8,2.5,2.1,2.6c0.1,0,0.2,0,0.3,0c1.2,0,2.2-0.9,2.3-2.1c0.2-1.3-0.8-2.5-2.1-2.6
						C789.9,1122.8,789.8,1122.8,789.7,1122.8L789.7,1122.8z"/>
				</g>
			</g>
			<g>
				<path class="st59" d="M790.7,1116.5c-0.1,0-0.2,0-0.3,0c-0.6-0.1-1.1-0.3-1.4-0.8c-0.3-0.4-0.5-1-0.4-1.6c0.1-1.1,1-1.9,2.1-1.9
					c0.1,0,0.2,0,0.3,0c1.2,0.1,2,1.2,1.8,2.3C792.7,1115.7,791.8,1116.5,790.7,1116.5z"/>
				<g>
					<path class="st60" d="M790.7,1112.6L790.7,1112.6c0.1,0,0.1,0,0.2,0c0.5,0.1,0.9,0.3,1.2,0.7c0.3,0.4,0.4,0.9,0.4,1.4
						c-0.1,0.9-0.9,1.6-1.8,1.6c-0.1,0-0.1,0-0.2,0c-0.5-0.1-0.9-0.3-1.2-0.7c-0.3-0.4-0.4-0.9-0.4-1.4
						C789,1113.3,789.7,1112.6,790.7,1112.6 M790.7,1112.1c-1.2,0-2.2,0.9-2.3,2.1c-0.2,1.3,0.8,2.5,2.1,2.6c0.1,0,0.2,0,0.3,0
						c1.2,0,2.2-0.9,2.3-2.1c0.2-1.3-0.8-2.5-2.1-2.6C790.9,1112.1,790.8,1112.1,790.7,1112.1L790.7,1112.1z"/>
				</g>
			</g>
			<g>
				<path class="st59" d="M796.3,1106.7c-0.1,0-0.2,0-0.3,0c-0.6-0.1-1.1-0.3-1.4-0.8c-0.3-0.4-0.5-1-0.4-1.6c0.1-1.1,1-1.9,2.1-1.9
					c0.1,0,0.2,0,0.3,0c0.6,0.1,1.1,0.3,1.4,0.8c0.3,0.4,0.5,1,0.4,1.6C798.3,1105.9,797.4,1106.7,796.3,1106.7z"/>
				<g>
					<path class="st60" d="M796.3,1102.8L796.3,1102.8c0.1,0,0.1,0,0.2,0c1,0.1,1.7,1,1.6,2.1c-0.1,0.9-0.9,1.6-1.8,1.6
						c-0.1,0-0.1,0-0.2,0c-0.5-0.1-0.9-0.3-1.2-0.7c-0.3-0.4-0.4-0.9-0.4-1.4C794.6,1103.5,795.3,1102.8,796.3,1102.8 M796.3,1102.3
						c-1.2,0-2.2,0.9-2.3,2.1c-0.2,1.3,0.8,2.5,2.1,2.6c0.1,0,0.2,0,0.3,0c1.2,0,2.2-0.9,2.3-2.1c0.2-1.3-0.8-2.5-2.1-2.6
						C796.5,1102.3,796.4,1102.3,796.3,1102.3L796.3,1102.3z"/>
				</g>
			</g>
		</g>
		<path class="st63" d="M859.6,1151.4c0,0,23.1-51.1-24.5-76.2c0,0-27.9-9.6-47.1,4.8c-19.2,14.4-23.3,36.7-23.1,56.4
			c0,0-4.3-6.6-2.5-22.6c1.8-16,16.1-50.4,59.8-47.2c0,0,50.1,4.7,47.2,59.8C869.4,1126.4,868.3,1140.6,859.6,1151.4z"/>
		<path class="st11" d="M769.7,995.5c0,0,160.6,3.8,167.1,32.3c0,0,7.4,5.2,9.6,16.7c0,0,17.9,3.5,16.7,22.8c0,0,0.6,29.7,2.4,37.8
			c1.8,8.2-0.9,7.8-7.2,9.6c-6.2,1.7-52.8,7.5-79.8,8.9c0,0,6.8-48.3-43.6-67.5c0,0-27.3-8.4-49.9,4.5c-22.7,13-31.5,29.8-32.3,52.7
			c-0.8,23,3.6,25.4,3.6,25.4s-6.8,3.9-15.7-13.4l-2.2,0c0,0,5.2-71.6-17.6-108.8c0,0,24.2-5.1,31.1-16.6
			C751.8,1000.1,763.4,995.8,769.7,995.5z"/>
		<path class="st64" d="M751.8,1000.1l135.8,13.1c0,0,29,3.1,36.3,12.4l12.8,2.2c0,0-2.8-13.7-36.8-19.7c-34-6-58-9-130.3-12.6
			C769.7,995.5,759,996.8,751.8,1000.1z"/>
		<path class="st64" d="M963.3,1078.1c0,0-41.5,1.1-49.4,4.1c0,0,35.3-28.4,32.2-39.3l1.9,2.6c0,0,13.9,3.4,15,16.3
			C964.1,1074.7,963.3,1078.1,963.3,1078.1z"/>
		<path class="st65" d="M878.5,1123.7c0,0,4.2-8.1,16.9-9.2c12.7-1.1,67-6.1,70.2-11.2c0,0,4.2,10.6-7.3,11.4
			C946.9,1115.7,878.5,1123.7,878.5,1123.7z"/>
		<path class="st65" d="M963.3,1078.1l0.3,2.4c0,0-48.4,2.8-56.4,9.5c0,0-3.6,1.9-5.6,5.9c0,0,0.9-8.3,12.3-13.8
			C913.9,1082.2,924.5,1079.4,963.3,1078.1z"/>
		<path class="st64" d="M965.7,1103.4c0,0-1.3,1.5-5,2.1s-65.7,3.5-59.1-9.5c0,0,2.2-4.2,7.4-6.8c0,0-8.3,7.5,0.7,9.9
			C918.8,1101.4,952.5,1105.1,965.7,1103.4z"/>
		<path class="st66" d="M963.6,1080.6c0,0,0.9,16.1,2,22.8c0,0-30.7,1.7-55.9-4.3c0,0-9-3.4-0.7-9.9S963.6,1080.6,963.6,1080.6z"/>
		<path class="st28" d="M936.8,1027.9c0,0-6.1-1-15.4-2.3c-11.9-1.6-29.2-3.6-45.5-4.3c0,0-11.7,1.4-6.5,5.6s21.1,18,21.1,18
			l14.8,5.9c0,0,43.2,1.6,40.8-7.9C943.7,1033.4,936.8,1027.9,936.8,1027.9z"/>
		<path class="st67" d="M920.9,1028.4c0,0,12,11.7,3.4,21.9c0,0,24.1,1,21.8-7.5c-3-11.2-9.2-15-9.2-15l-29.1-4.1
			C907.8,1023.8,917.7,1025,920.9,1028.4z"/>
		<path class="st11" d="M751.8,1000.1c0,0-80-39-127-48.2l13.8-7.7c0,0-61.5-13.7-146.4-1.9C407.4,954.2,352.9,976,352.9,976
			l14.4,3.5l-92,52.6l-19.4-0.3l-64.1,21.3c0,0-4.1,13.8-0.5,16.4l2.3-4.4c0,0,27.9,0.1,39.1,14.7c11.2,14.6,17.9,24.7,17.9,24.7
			s5.2,7.4,14.1,8.5c8.8,1,51,7.8,51,7.8s29.6-31.2,77-11.3l12.9-5.6l-35.3-44.3c0,0-1-12.7,1.5-15.9c2.5-3.3,3.2-8.6,3.2-8.6
			s-34.8-8.8-24-18.6c10.8-9.8,56.6-36.3,56.6-36.3s90.1-19.1,108.9-20.5c18.8-1.4,106.1,0,141.4,13.5s66.2,25,80,32.8
			c0,0,2.1,4-0.8,5.4C737,1011.2,748.7,1009,751.8,1000.1z"/>
		<path class="st68" d="M370.3,979.9c50.7-17.6,57.6-16.5,125.4-28.4c67.7-11.8,129.2,0.4,129.2,0.4"/>
		<path class="st69" d="M275.3,1032.1c0,0-25.8,14.7-60.6,21.7l-19.4,4.5l-1.7,6.8"/>
		<g>
			<path class="st70" d="M195.3,1058.3l174.8-8.4c0,0,0-3.4,1.7-6.4c1.7-3,2.8-6.3,3.2-8.6l-119.8,6.7
				C255.2,1041.6,234.1,1050.9,195.3,1058.3z"/>
		</g>
		<g>
			<path class="st71" d="M438.2,962.1c0,0-28.9,11.4-30.6,17.8l-56.6,36.3l11.6,14.8l-86.3,1.8
				C276.3,1032.9,352.6,974.8,438.2,962.1z"/>
		</g>
		<path class="st64" d="M565.4,956c0,0,45.8,0.8,67.7-2.2c0,0,53.4,14.1,103.4,39.4c0,0,0.2,7.1-7.1,9L657.9,973
			c0,0-26.5-10.7-71.5-11.8l-26.2-2L565.4,956z"/>
		<path class="st11" d="M720.8,1016.7c0,0-315.3,19.2-345.9,18.2c0,0-0.7,5.3-3.2,8.6c0,0-1.7,3.4-1.7,6.4l0.2,9.5l35.3,44.3
			l-12.9,5.6c0,0,36.9,19.3,31.2,61.7c0,0,1.4,1.5,12.9,0.2c11.5-1.2,319.5-32.4,319.5-32.4s-6.7,2.2-15.7-13.4l-2.2,0
			C738.4,1125.5,745.1,1056.4,720.8,1016.7z"/>
		<g>
			<path class="st70" d="M376.3,1050l351.6-18.6c0,0-2.8-8.1-7.1-14.7l-345.9,18.2c0,0-0.2,5-3.2,8.6c0,0-1.9,3.4-1.7,6.4
				L376.3,1050z"/>
		</g>
		<path class="st65" d="M405.5,1103.7l27.2,33.2c0,0,6.6,18.3,38.3,15.3s267.3-26.8,267.3-26.8l2.2,0c0,0,6.2,13.7,15.7,13.4
			l-319.5,32.4c0,0-9.8,1.6-12.9-0.2c0,0,7-38.5-31.2-61.7L405.5,1103.7z"/>
		<path class="st72" d="M557,1049.1c0,0-5.6,4.4,0.8,4.9c6.4,0.5,29.6-2.7,29.6-2.7s5.4-2.9-1.9-4.7L557,1049.1z"/>
		<path class="st72" d="M411.2,1060c0,0-5.6,4.4,0.8,4.9c6.4,0.5,29.6-2.7,29.6-2.7s5.4-2.9-1.9-4.7L411.2,1060z"/>
		<path class="st73" d="M580.9,1054.1c0,0-3.9,7-15.1,1.1"/>
		<path class="st74" d="M579.4,1045.7c0,0-7-6.2-14.6,1.1"/>
		<path class="st73" d="M434.9,1065.1c0,0-3.9,7-15.1,1.1"/>
		<path class="st74" d="M433.3,1056.7c0,0-7-6.2-14.6,1.1"/>
		<g>
			<path class="st71" d="M738.6,1083.9c0,0-5,25.9-24.7,27.4c-19.7,1.5-245.7,22.7-245.7,22.7s-30,4.5-50.7-15.6l15.2,18.6
				c0,0,5.4,18,38.3,15.3s267.3-26.8,267.3-26.8S739.8,1110.2,738.6,1083.9z"/>
		</g>
		<circle class="st14" cx="362.3" cy="1169.5" r="53.9"/>
		<g>
			<g>
				<path class="st54" d="M362.7,1207c-1.4,0-2.8-0.1-4.1-0.2c-19.1-2.3-32.8-19.7-30.6-38.8c2.1-17.6,17-30.8,34.6-30.8
					c1.4,0,2.8,0.1,4.1,0.2c9.3,1.1,17.5,5.7,23.3,13.1c5.8,7.3,8.3,16.5,7.3,25.7C395.2,1193.7,380.4,1207,362.7,1207z"/>
				<path class="st55" d="M362.6,1138.6c1.3,0,2.6,0.1,4,0.2c18.3,2.2,31.4,18.8,29.2,37.1c-2,17-16.4,29.5-33.1,29.5
					c-1.3,0-2.6-0.1-4-0.2c-18.3-2.2-31.4-18.8-29.2-37.1C331.5,1151.1,345.9,1138.6,362.6,1138.6 M362.6,1135.6L362.6,1135.6
					c-18.4,0-33.9,13.8-36.1,32.1c-1.1,9.7,1.5,19.2,7.6,26.8c6,7.6,14.7,12.5,24.3,13.6c1.4,0.2,2.9,0.3,4.3,0.3
					c18.4,0,33.9-13.8,36.1-32.1c1.1-9.7-1.5-19.2-7.6-26.8c-6-7.6-14.7-12.5-24.3-13.6C365.5,1135.7,364.1,1135.6,362.6,1135.6
					L362.6,1135.6z"/>
			</g>
			<g>
				<path class="st56" d="M362.6,1191.4c-0.8,0-1.5,0-2.3-0.1c-5-0.6-9.6-3.1-12.7-7.1c-3.1-4-4.6-9-4-14
					c1.1-9.6,9.2-16.8,18.9-16.8c0.8,0,1.5,0,2.3,0.1c5,0.6,9.6,3.1,12.7,7.1c3.1,4,4.6,9,4,14
					C380.4,1184.2,372.3,1191.4,362.6,1191.4z"/>
				<path class="st57" d="M362.6,1154.4L362.6,1154.4c0.7,0,1.4,0,2.1,0.1c9.9,1.2,17,10.1,15.8,20c-1.1,9.1-8.8,15.9-17.9,15.9
					c-0.7,0-1.4,0-2.1-0.1c-4.8-0.6-9.1-3-12-6.7c-3-3.8-4.3-8.5-3.7-13.3C345.8,1161.2,353.5,1154.4,362.6,1154.4 M362.6,1152.4
					c-10,0-18.7,7.5-19.9,17.7c-1.3,11,6.6,20.9,17.5,22.2c0.8,0.1,1.6,0.1,2.4,0.1c10,0,18.7-7.5,19.9-17.7
					c1.3-11-6.6-20.9-17.5-22.2C364.2,1152.4,363.4,1152.4,362.6,1152.4L362.6,1152.4z"/>
			</g>
			<circle class="st58" cx="362.9" cy="1172.4" r="6.7"/>
			<g>
				<path class="st59" d="M353.6,1150.1c-0.1,0-0.2,0-0.3,0c-1.2-0.1-2-1.2-1.8-2.3c0.1-1.1,1-1.9,2.1-1.9c0.1,0,0.2,0,0.3,0
					c0.6,0.1,1.1,0.3,1.4,0.8c0.3,0.4,0.5,1,0.4,1.6C355.5,1149.3,354.6,1150.1,353.6,1150.1z"/>
				<path class="st60" d="M353.6,1146.2L353.6,1146.2c0.1,0,0.1,0,0.2,0c0.5,0.1,0.9,0.3,1.2,0.7c0.3,0.4,0.4,0.9,0.4,1.4
					c-0.1,0.9-0.9,1.6-1.8,1.6c-0.1,0-0.1,0-0.2,0c-1-0.1-1.7-1-1.6-2.1C351.8,1146.9,352.6,1146.2,353.6,1146.2 M353.6,1145.7
					c-1.2,0-2.2,0.9-2.3,2.1c-0.2,1.3,0.8,2.5,2.1,2.6c0.1,0,0.2,0,0.3,0c1.2,0,2.2-0.9,2.3-2.1c0.2-1.3-0.8-2.5-2.1-2.6
					C353.8,1145.7,353.7,1145.7,353.6,1145.7L353.6,1145.7z"/>
			</g>
			<g>
				<path class="st59" d="M367.8,1148.7c-0.1,0-0.2,0-0.3,0c-0.6-0.1-1.1-0.3-1.4-0.8s-0.5-1-0.4-1.6c0.1-1.1,1-1.9,2.1-1.9
					c0.1,0,0.2,0,0.2,0c1.2,0.1,2,1.2,1.8,2.3C369.7,1147.9,368.8,1148.7,367.8,1148.7z"/>
				<g>
					<path class="st60" d="M367.8,1144.7L367.8,1144.7c0.1,0,0.1,0,0.2,0c0.5,0.1,0.9,0.3,1.2,0.7c0.3,0.4,0.4,0.9,0.4,1.4
						c-0.1,0.9-0.9,1.6-1.8,1.6c-0.1,0-0.1,0-0.2,0c-0.5-0.1-0.9-0.3-1.2-0.7c-0.3-0.4-0.4-0.9-0.4-1.4
						C366,1145.4,366.8,1144.7,367.8,1144.7 M367.8,1144.2c-1.2,0-2.2,0.9-2.3,2.1c-0.2,1.3,0.8,2.5,2.1,2.6c0.1,0,0.2,0,0.3,0
						c1.2,0,2.2-0.9,2.3-2.1c0.2-1.3-0.8-2.5-2.1-2.6C367.9,1144.2,367.8,1144.2,367.8,1144.2L367.8,1144.2z"/>
				</g>
			</g>
			<g>
				<path class="st61" d="M363.8,1161.8c-0.3,0-0.7-0.2-0.9-0.5s-0.3-0.6-0.3-1c0.1-0.7,0.6-1.2,1.3-1.2c0.1,0,0.1,0,0.2,0
					c0.7,0.1,1.2,0.7,1.1,1.5c-0.1,0.7-0.6,1.2-1.3,1.2C363.9,1161.8,363.8,1161.8,363.8,1161.8z"/>
				<g>
					<path class="st62" d="M363.9,1159.4L363.9,1159.4c0,0,0.1,0,0.1,0c0.6,0.1,1,0.6,0.9,1.2c-0.1,0.5-0.5,0.9-1,0.9
						c0,0-0.1,0-0.1,0c-0.3,0-0.5-0.2-0.7-0.4s-0.3-0.5-0.2-0.8C363,1159.8,363.4,1159.4,363.9,1159.4 M363.9,1158.9
						c-0.8,0-1.5,0.6-1.5,1.4c-0.1,0.9,0.5,1.6,1.4,1.7c0.1,0,0.1,0,0.2,0c0.8,0,1.5-0.6,1.5-1.4c0.1-0.9-0.5-1.6-1.4-1.7
						C364.1,1158.9,364,1158.9,363.9,1158.9L363.9,1158.9z"/>
				</g>
			</g>
			<g>
				<path class="st61" d="M374,1174.7c-0.3,0-0.7-0.2-0.9-0.5c-0.2-0.3-0.3-0.6-0.3-1c0.1-0.7,0.6-1.2,1.3-1.2c0.1,0,0.1,0,0.2,0
					c0.3,0,0.7,0.2,0.9,0.5c0.2,0.3,0.3,0.6,0.3,1c-0.1,0.7-0.6,1.2-1.3,1.2C374.1,1174.7,374,1174.7,374,1174.7z"/>
				<g>
					<path class="st62" d="M374.1,1172.3L374.1,1172.3c0,0,0.1,0,0.1,0c0.6,0.1,1,0.6,0.9,1.2c-0.1,0.5-0.5,0.9-1,0.9
						c0,0-0.1,0-0.1,0c-0.6-0.1-1-0.6-0.9-1.2C373.1,1172.7,373.6,1172.3,374.1,1172.3 M374.1,1171.8c-0.8,0-1.5,0.6-1.5,1.4
						c-0.1,0.9,0.5,1.6,1.4,1.7c0.1,0,0.1,0,0.2,0c0.8,0,1.5-0.6,1.5-1.4c0.1-0.9-0.5-1.6-1.4-1.7
						C374.2,1171.8,374.2,1171.8,374.1,1171.8L374.1,1171.8z"/>
				</g>
			</g>
			<g>
				<path class="st61" d="M361.3,1184.5c-0.3,0-0.7-0.2-0.9-0.5c-0.2-0.3-0.3-0.6-0.3-1c0.1-0.7,0.6-1.2,1.3-1.2c0.1,0,0.1,0,0.2,0
					c0.3,0,0.7,0.2,0.9,0.5c0.2,0.3,0.3,0.6,0.3,1c-0.1,0.7-0.6,1.2-1.3,1.2C361.4,1184.5,361.4,1184.5,361.3,1184.5z"/>
				<g>
					<path class="st62" d="M361.5,1182.1L361.5,1182.1c0,0,0.1,0,0.1,0c0.3,0,0.5,0.2,0.7,0.4c0.2,0.2,0.3,0.5,0.2,0.8
						c-0.1,0.5-0.5,0.9-1,0.9c0,0-0.1,0-0.1,0c-0.3,0-0.5-0.2-0.7-0.4s-0.3-0.5-0.2-0.8C360.5,1182.5,360.9,1182.1,361.5,1182.1
						 M361.5,1181.6c-0.8,0-1.5,0.6-1.5,1.4c-0.1,0.9,0.5,1.6,1.4,1.7c0.1,0,0.1,0,0.2,0c0.8,0,1.5-0.6,1.5-1.4
						c0.1-0.9-0.5-1.6-1.4-1.7C361.6,1181.6,361.5,1181.6,361.5,1181.6L361.5,1181.6z"/>
				</g>
			</g>
			<g>
				<path class="st61" d="M350.9,1172.6c-0.3,0-0.7-0.2-0.9-0.5c-0.2-0.3-0.3-0.6-0.3-1c0.1-0.7,0.6-1.2,1.3-1.2c0.1,0,0.1,0,0.2,0
					c0.3,0,0.7,0.2,0.9,0.5c0.2,0.3,0.3,0.6,0.3,1c-0.1,0.7-0.6,1.2-1.3,1.2C351,1172.6,350.9,1172.6,350.9,1172.6z"/>
				<g>
					<path class="st62" d="M351,1170.3L351,1170.3c0,0,0.1,0,0.1,0c0.6,0.1,1,0.6,0.9,1.2c-0.1,0.5-0.5,0.9-1,0.9c0,0-0.1,0-0.1,0
						c-0.3,0-0.5-0.2-0.7-0.4s-0.3-0.5-0.2-0.8C350,1170.7,350.5,1170.3,351,1170.3 M351,1169.8c-0.8,0-1.5,0.6-1.5,1.4
						c-0.1,0.9,0.5,1.6,1.4,1.7c0.1,0,0.1,0,0.2,0c0.8,0,1.5-0.6,1.5-1.4c0.1-0.9-0.5-1.6-1.4-1.7
						C351.1,1169.8,351.1,1169.8,351,1169.8L351,1169.8z"/>
				</g>
			</g>
			<g>
				<path class="st59" d="M381.3,1155.8c-0.1,0-0.2,0-0.3,0c-1.2-0.1-2-1.2-1.8-2.3c0.1-1.1,1-1.9,2.1-1.9c0.1,0,0.2,0,0.3,0
					c0.6,0.1,1.1,0.3,1.4,0.8c0.3,0.4,0.5,1,0.4,1.6C383.3,1155,382.4,1155.8,381.3,1155.8z"/>
				<g>
					<path class="st60" d="M381.3,1151.9L381.3,1151.9c0.1,0,0.1,0,0.2,0c0.5,0.1,0.9,0.3,1.2,0.7c0.3,0.4,0.4,0.9,0.4,1.4
						c-0.1,0.9-0.9,1.6-1.8,1.6c-0.1,0-0.1,0-0.2,0c-0.5-0.1-0.9-0.3-1.2-0.7c-0.3-0.4-0.4-0.9-0.4-1.4
						C379.6,1152.6,380.4,1151.9,381.3,1151.9 M381.3,1151.4c-1.2,0-2.2,0.9-2.3,2.1c-0.2,1.3,0.8,2.5,2.1,2.6c0.1,0,0.2,0,0.3,0
						c1.2,0,2.2-0.9,2.3-2.1c0.2-1.3-0.8-2.5-2.1-2.6C381.5,1151.4,381.4,1151.4,381.3,1151.4L381.3,1151.4z"/>
				</g>
			</g>
			<g>
				<path class="st59" d="M387.7,1166.3c-0.1,0-0.2,0-0.3,0c-1.2-0.1-2-1.2-1.8-2.3c0.1-1.1,1-1.9,2.1-1.9c0.1,0,0.2,0,0.2,0
					c0.6,0.1,1.1,0.3,1.4,0.8s0.5,1,0.4,1.6C389.7,1165.5,388.8,1166.3,387.7,1166.3z"/>
				<g>
					<path class="st60" d="M387.7,1162.3L387.7,1162.3c0.1,0,0.1,0,0.2,0c1,0.1,1.7,1,1.6,2.1c-0.1,0.9-0.9,1.6-1.8,1.6
						c-0.1,0-0.1,0-0.2,0c-1-0.1-1.7-1-1.6-2.1C386,1163,386.8,1162.3,387.7,1162.3 M387.7,1161.8c-1.2,0-2.2,0.9-2.3,2.1
						c-0.2,1.3,0.8,2.5,2.1,2.6c0.1,0,0.2,0,0.3,0c1.2,0,2.2-0.9,2.3-2.1c0.2-1.3-0.8-2.5-2.1-2.6
						C387.9,1161.8,387.8,1161.8,387.7,1161.8L387.7,1161.8z"/>
				</g>
			</g>
			<g>
				<path class="st59" d="M388.2,1179.2c-0.1,0-0.2,0-0.3,0c-0.6-0.1-1.1-0.3-1.4-0.8c-0.3-0.4-0.5-1-0.4-1.6c0.1-1.1,1-1.9,2.1-1.9
					c0.1,0,0.2,0,0.3,0c1.2,0.1,2,1.2,1.8,2.3C390.2,1178.4,389.3,1179.2,388.2,1179.2z"/>
				<g>
					<path class="st60" d="M388.2,1175.2L388.2,1175.2c0.1,0,0.1,0,0.2,0c0.5,0.1,0.9,0.3,1.2,0.7c0.3,0.4,0.4,0.9,0.4,1.4
						c-0.1,0.9-0.9,1.6-1.8,1.6c-0.1,0-0.1,0-0.2,0c-0.5-0.1-0.9-0.3-1.2-0.7c-0.3-0.4-0.4-0.9-0.4-1.4
						C386.5,1175.9,387.3,1175.2,388.2,1175.2 M388.2,1174.7c-1.2,0-2.2,0.9-2.3,2.1c-0.2,1.3,0.8,2.5,2.1,2.6c0.1,0,0.2,0,0.3,0
						c1.2,0,2.2-0.9,2.3-2.1c0.2-1.3-0.8-2.5-2.1-2.6C388.4,1174.7,388.3,1174.7,388.2,1174.7L388.2,1174.7z"/>
				</g>
			</g>
			<g>
				<path class="st59" d="M383.2,1190.5c-0.1,0-0.2,0-0.3,0c-0.6-0.1-1.1-0.3-1.4-0.8c-0.3-0.4-0.5-1-0.4-1.6c0.1-1.1,1-1.9,2.1-1.9
					c0.1,0,0.2,0,0.3,0c1.2,0.1,2,1.2,1.8,2.3C385.1,1189.7,384.2,1190.5,383.2,1190.5z"/>
				<g>
					<path class="st60" d="M383.1,1186.5L383.1,1186.5c0.1,0,0.1,0,0.2,0c1,0.1,1.7,1,1.6,2.1c-0.1,0.9-0.9,1.6-1.8,1.6
						c-0.1,0-0.1,0-0.2,0c-1-0.1-1.7-1-1.6-2.1C381.4,1187.2,382.2,1186.5,383.1,1186.5 M383.1,1186c-1.2,0-2.2,0.9-2.3,2.1
						c-0.2,1.3,0.8,2.5,2.1,2.6c0.1,0,0.2,0,0.3,0c1.2,0,2.2-0.9,2.3-2.1c0.2-1.3-0.8-2.5-2.1-2.6C383.3,1186,383.2,1186,383.1,1186
						L383.1,1186z"/>
				</g>
			</g>
			<g>
				<path class="st59" d="M372.6,1198.4c-0.1,0-0.2,0-0.3,0c-1.2-0.1-2-1.2-1.8-2.3c0.1-1.1,1-1.9,2.1-1.9c0.1,0,0.2,0,0.3,0
					c0.6,0.1,1.1,0.3,1.4,0.8c0.3,0.4,0.5,1,0.4,1.6C374.6,1197.6,373.7,1198.4,372.6,1198.4z"/>
				<g>
					<path class="st60" d="M372.6,1194.4L372.6,1194.4c0.1,0,0.1,0,0.2,0c0.5,0.1,0.9,0.3,1.2,0.7c0.3,0.4,0.4,0.9,0.4,1.4
						c-0.1,0.9-0.9,1.6-1.8,1.6c-0.1,0-0.1,0-0.2,0c-0.5-0.1-0.9-0.3-1.2-0.7c-0.3-0.4-0.4-0.9-0.4-1.4
						C370.9,1195.1,371.6,1194.4,372.6,1194.4 M372.6,1193.9c-1.2,0-2.2,0.9-2.3,2.1c-0.2,1.3,0.8,2.5,2.1,2.6c0.1,0,0.2,0,0.3,0
						c1.2,0,2.2-0.9,2.3-2.1c0.2-1.3-0.8-2.5-2.1-2.6C372.8,1193.9,372.7,1193.9,372.6,1193.9L372.6,1193.9z"/>
				</g>
			</g>
			<g>
				<path class="st59" d="M359.7,1200.9c-0.1,0-0.2,0-0.3,0c-0.6-0.1-1.1-0.3-1.4-0.8c-0.3-0.4-0.5-1-0.4-1.6c0.1-1.1,1-1.9,2.1-1.9
					c0.1,0,0.2,0,0.3,0c0.6,0.1,1.1,0.3,1.4,0.8c0.3,0.4,0.5,1,0.4,1.6C361.7,1200.1,360.8,1200.9,359.7,1200.9z"/>
				<g>
					<path class="st60" d="M359.7,1196.9L359.7,1196.9c0.1,0,0.1,0,0.2,0c1,0.1,1.7,1,1.6,2.1c-0.1,0.9-0.9,1.6-1.8,1.6
						c-0.1,0-0.1,0-0.2,0c-1-0.1-1.7-1-1.6-2.1C358,1197.6,358.8,1196.9,359.7,1196.9 M359.7,1196.4c-1.2,0-2.2,0.9-2.3,2.1
						c-0.2,1.3,0.8,2.5,2.1,2.6c0.1,0,0.2,0,0.3,0c1.2,0,2.2-0.9,2.3-2.1c0.2-1.3-0.8-2.5-2.1-2.6
						C359.9,1196.4,359.8,1196.4,359.7,1196.4L359.7,1196.4z"/>
				</g>
			</g>
			<g>
				<path class="st59" d="M348.6,1197c-0.1,0-0.2,0-0.3,0c-0.6-0.1-1.1-0.3-1.4-0.8s-0.5-1-0.4-1.6c0.1-1.1,1-1.9,2.1-1.9
					c0.1,0,0.2,0,0.3,0c0.6,0.1,1.1,0.3,1.4,0.8s0.5,1,0.4,1.6C350.6,1196.2,349.7,1197,348.6,1197z"/>
				<g>
					<path class="st60" d="M348.6,1193L348.6,1193c0.1,0,0.1,0,0.2,0c1,0.1,1.7,1,1.6,2.1c-0.1,0.9-0.9,1.6-1.8,1.6
						c-0.1,0-0.1,0-0.2,0c-1-0.1-1.7-1-1.6-2.1C346.9,1193.7,347.7,1193,348.6,1193 M348.6,1192.5c-1.2,0-2.2,0.9-2.3,2.1
						c-0.2,1.3,0.8,2.5,2.1,2.6c0.1,0,0.2,0,0.3,0c1.2,0,2.2-0.9,2.3-2.1c0.2-1.3-0.8-2.5-2.1-2.6
						C348.8,1192.5,348.7,1192.5,348.6,1192.5L348.6,1192.5z"/>
				</g>
			</g>
			<g>
				<path class="st59" d="M340.1,1188.1c-0.1,0-0.2,0-0.3,0c-0.6-0.1-1.1-0.3-1.4-0.8c-0.3-0.4-0.5-1-0.4-1.6c0.1-1.1,1-1.9,2.1-1.9
					c0.1,0,0.2,0,0.3,0c0.6,0.1,1.1,0.3,1.4,0.8c0.3,0.4,0.5,1,0.4,1.6C342.1,1187.3,341.2,1188.1,340.1,1188.1z"/>
				<g>
					<path class="st60" d="M340.1,1184.1L340.1,1184.1c0.1,0,0.1,0,0.2,0c1,0.1,1.7,1,1.6,2.1c-0.1,0.9-0.9,1.6-1.8,1.6
						c-0.1,0-0.1,0-0.2,0c-1-0.1-1.7-1-1.6-2.1C338.4,1184.8,339.2,1184.1,340.1,1184.1 M340.1,1183.6c-1.2,0-2.2,0.9-2.3,2.1
						c-0.2,1.3,0.8,2.5,2.1,2.6c0.1,0,0.2,0,0.3,0c1.2,0,2.2-0.9,2.3-2.1c0.2-1.3-0.8-2.5-2.1-2.6
						C340.3,1183.6,340.2,1183.6,340.1,1183.6L340.1,1183.6z"/>
				</g>
			</g>
			<g>
				<path class="st59" d="M336.1,1176.7c-0.1,0-0.2,0-0.3,0c-0.6-0.1-1.1-0.3-1.4-0.8c-0.3-0.4-0.5-1-0.4-1.6c0.1-1.1,1-1.9,2.1-1.9
					c0.1,0,0.2,0,0.3,0c0.6,0.1,1.1,0.3,1.4,0.8c0.3,0.4,0.5,1,0.4,1.6C338.1,1175.9,337.2,1176.7,336.1,1176.7z"/>
				<g>
					<path class="st60" d="M336.1,1172.8L336.1,1172.8c0.1,0,0.1,0,0.2,0c0.5,0.1,0.9,0.3,1.2,0.7s0.4,0.9,0.4,1.4
						c-0.1,0.9-0.9,1.6-1.8,1.6c-0.1,0-0.1,0-0.2,0c-0.5-0.1-0.9-0.3-1.2-0.7c-0.3-0.4-0.4-0.9-0.4-1.4
						C334.4,1173.5,335.2,1172.8,336.1,1172.8 M336.1,1172.3c-1.2,0-2.2,0.9-2.3,2.1c-0.2,1.3,0.8,2.5,2.1,2.6c0.1,0,0.2,0,0.3,0
						c1.2,0,2.2-0.9,2.3-2.1c0.2-1.3-0.8-2.5-2.1-2.6C336.3,1172.3,336.2,1172.3,336.1,1172.3L336.1,1172.3z"/>
				</g>
			</g>
			<g>
				<path class="st59" d="M337.1,1166c-0.1,0-0.2,0-0.3,0c-1.2-0.1-2-1.2-1.8-2.3c0.1-1.1,1-1.9,2.1-1.9c0.1,0,0.2,0,0.3,0
					c0.6,0.1,1.1,0.3,1.4,0.8c0.3,0.4,0.5,1,0.4,1.6C339.1,1165.2,338.2,1166,337.1,1166z"/>
				<g>
					<path class="st60" d="M337.1,1162L337.1,1162c0.1,0,0.1,0,0.2,0c0.5,0.1,0.9,0.3,1.2,0.7c0.3,0.4,0.4,0.9,0.4,1.4
						c-0.1,0.9-0.9,1.6-1.8,1.6c-0.1,0-0.1,0-0.2,0c-1-0.1-1.7-1-1.6-2.1C335.4,1162.7,336.2,1162,337.1,1162 M337.1,1161.5
						c-1.2,0-2.2,0.9-2.3,2.1c-0.2,1.3,0.8,2.5,2.1,2.6c0.1,0,0.2,0,0.3,0c1.2,0,2.2-0.9,2.3-2.1c0.2-1.3-0.8-2.5-2.1-2.6
						C337.3,1161.5,337.2,1161.5,337.1,1161.5L337.1,1161.5z"/>
				</g>
			</g>
			<g>
				<path class="st59" d="M342.7,1156.2c-0.1,0-0.2,0-0.3,0c-0.6-0.1-1.1-0.3-1.4-0.8s-0.5-1-0.4-1.6c0.1-1.1,1-1.9,2.1-1.9
					c0.1,0,0.2,0,0.3,0c0.6,0.1,1.1,0.3,1.4,0.8s0.5,1,0.4,1.6C344.7,1155.4,343.8,1156.2,342.7,1156.2z"/>
				<g>
					<path class="st60" d="M342.7,1152.2L342.7,1152.2c0.1,0,0.1,0,0.2,0c1,0.1,1.7,1,1.6,2.1c-0.1,0.9-0.9,1.6-1.8,1.6
						c-0.1,0-0.1,0-0.2,0c-1-0.1-1.7-1-1.6-2.1C341,1152.9,341.8,1152.2,342.7,1152.2 M342.7,1151.7c-1.2,0-2.2,0.9-2.3,2.1
						c-0.2,1.3,0.8,2.5,2.1,2.6c0.1,0,0.2,0,0.3,0c1.2,0,2.2-0.9,2.3-2.1c0.2-1.3-0.8-2.5-2.1-2.6
						C342.9,1151.7,342.8,1151.7,342.7,1151.7L342.7,1151.7z"/>
				</g>
			</g>
		</g>
		<path class="st63" d="M406.1,1200.8c0,0,23.1-51.1-24.5-76.2c0,0-27.9-9.6-47.1,4.8s-23.3,36.7-23.1,56.4c0,0-4.3-6.6-2.5-22.6
			c1.8-16,16.1-50.4,59.8-47.2c0,0,50.1,4.7,47.2,59.8C415.8,1175.8,414.8,1190,406.1,1200.8z"/>
		<path class="st68" d="M540.6,1026.7c0,0,18.7,51,19.6,116.5"/>
		<g>
			<path class="st70" d="M250.8,1181.8c-13.4,0-25.2-0.2-35-0.7c-8.6-0.4-15.6-3.6-20.9-9.5c-12.1-13.5-11.6-37.1-11.5-39.8l10-6.2
				l0.4-17.5l0.1-1.9c3.2,0.2,20.3,1.5,33.6,1.5c1.2,0,2.4,0,3.5,0c5.3-0.1,9.3-1.6,11.7-4.3c2-2.2,2.5-4.7,2.6-6.3l3.5,4.4
				c4.4,8.4,15.3,11.4,15.7,11.5l49.9,8c-23.4,22.7-15.8,55-14.5,59.9C296.2,1181.1,274.5,1181.8,250.8,1181.8z"/>
			<g>
				<path class="st65" d="M245.8,1098.3l2.7,3.4c4.6,8.6,15.6,11.7,16,11.8l0.1,0l0.1,0l48.9,7.8c-12.6,12.7-15.8,28-16.2,38.9
					c-0.4,9.7,1.3,17.3,2.1,20.2c-5.3,0.2-26.1,0.8-48.7,0.8c-13.4,0-25.2-0.2-35-0.7c-8.4-0.4-15.4-3.5-20.6-9.3
					c-6.6-7.3-9.3-17.7-10.5-25.1c-1-6.8-1-12.4-0.9-14.1l9.6-5.9l0.5-0.3l0-0.5l0.4-17.2l0.1-1.4c4.2,0.3,20.5,1.4,33.2,1.4
					c1.2,0,2.4,0,3.5,0c5.5-0.1,9.5-1.6,12.1-4.5C244.8,1101.9,245.5,1099.9,245.8,1098.3 M245,1095.7c0,0,1.1,11.2-13.9,11.5
					c-1.1,0-2.3,0-3.5,0c-14.8,0-34.1-1.5-34.1-1.5l-0.1,2.4l-0.4,17.3l-10,6.2c0,0-2.8,48.4,32.9,50.1c11,0.5,23.3,0.7,35,0.7
					c26.4,0,50-0.9,50-0.9s-11.4-36.2,14.9-60.7l-50.9-8.1c0,0-11-3-15.5-11.4L245,1095.7L245,1095.7z"/>
			</g>
		</g>
		<path class="st11" d="M240.6,1130.4c0,0,28.6,0.6,31.5-15.5l42.7,6.8c0,0-18.9,15.6-16.3,43.3l-102.3,9.4c0,0-14-11.8-13.4-42.8
			l10-6.2C192.9,1125.4,210.7,1133.7,240.6,1130.4z"/>
		<path class="st65" d="M300.8,1181.4l-2.3-16.5l-102.3,9.4c0,0,7.6,6.9,19.5,7.3S300.8,1181.4,300.8,1181.4z"/>
		<path class="st10" d="M624.8,952.9c0,0,28.7,5.3,64.5,19.6c35.8,14.3,57.3,25.3,57.3,25.3s3.2,2.7,9.5,1.7
			c6.3-1.1,15.5-2.8,15.5-2.8s-71.6-40.3-132-51.8c0,0-2.6-1-5.4,0.5C631.4,946.9,624.8,952.9,624.8,952.9z"/>
		<path d="M729,1000.3c0,0,19.9,9.5,9.1,13.5l-16.6,3.7c0,0-7.3,0.3-15.1,0.3s-321.6,18.5-321.6,18.5s-17.6,0.7-29-5.9
			c-11.4-6.6-12.2-8.8-4-15.3S390,989,390,989s22.6-14.3,49.6-19.5c27.1-5.3,58.8-12.1,120.6-13.2S685.4,976.2,729,1000.3z"/>
		<path class="st75" d="M529.8,961.1l20.1,62l133.3-7.2l-1.7-29.7c0,0,0.9-2.9-6.4-5.2C667.9,978.5,603.7,952.2,529.8,961.1z"/>
		<path class="st75" d="M514.1,962.9c0,0,6.6,38.2,14.9,60.7l-127.7,8.1l-5.2-22.4c0,0,0.2-20.4,20.3-28.5
			C440.9,970.9,514.1,962.9,514.1,962.9z"/>
		<path class="st76" d="M521.6,961.2c0,0,9.5,40.3,18.3,62"/>
		<path class="st77" d="M675.7,993.1L674,1008c0,0,1.8,6.3,12.8,6.2s23.5-4.2,23.5-4.2s6.3-4.4,0.1-8.8c-6.2-4.5-11.3-8.8-24.8-10.6
			C677.3,989.4,675.7,993.1,675.7,993.1z"/>
		<path class="st78" d="M529.8,961.1l20.1,62c0,0,50.9-47.5,131.5-32.7l0.1-4.3c0,0,0.8-2.6-6.4-5.2
			C667.9,978.2,597.6,951.9,529.8,961.1z"/>
		<path class="st9" d="M624.8,952.9c0,0,81.6,12.1,146.8,43.9c0,0-68-39.2-132-51.8c0,0-3.1-1.3-6.9,1.6
			C629.1,949.5,624.8,952.9,624.8,952.9z"/>
		<path class="st79" d="M352.2,976.1l18.4,3.1c0,0-52.6,30.4-92.6,53.6l-22.5-0.9C255.5,1031.9,305.5,998.2,352.2,976.1z"/>
		<path class="st28" d="M188.9,1064.8l26.5,2.8c0,0,7.2-0.6,15.5,9.6c8.4,10.3,13.1,16.9,13.1,16.9s4.1,9.7-5.8,12.6
			c-9.9,2.8-45.8,0.8-45.8,0.8S187.2,1105.1,188.9,1064.8z"/>
		<path class="st67" d="M193.4,1081.5c0,0,36.5,2.7,40.7-0.6c0,0-7.3-12.5-18.7-13.8c-11.4-1.4-26.7-2.8-26.7-2.8l0,16.5
			C188.8,1080.7,190.5,1081.2,193.4,1081.5z"/>
		<path class="st67" d="M242.6,1092.2c0,0-8.6,13.3-53.3,3.9c0,0,0.8,9.9,3.2,11.5c0,0,33.1,2.7,44.8,0.1
			C237.3,1107.7,251.5,1103.6,242.6,1092.2z"/>
		<path class="st80" d="M255.5,1031.9c0,0,61.7-39.4,89.7-38.1l27.8-14.1l-20.8-3.5C352.2,976.1,310.9,994.3,255.5,1031.9z"/>
		<path class="st78" d="M516.3,974.5c0,0-93.3,10.8-97.8,56.2l-17.2,0.9l-5.2-22.4c0,0-4-18.4,19.9-28.7
			c26.3-11.3,98.1-17.7,98.1-17.7L516.3,974.5z"/>
		<g>
			<path class="st71" d="M727.9,1031.4c0,0,81.5-8,141.5-4.6l21.1,18l14.8,5.9l-27.9,2.5c0,0-5.2-11.7-28.7-13.6
				c-23.5-1.9-53.3,1.8-93.2,16.9c0,0-7.8,2.1-10,26.4s-4.9,42.6-4.9,42.6l-2.2,0C738.4,1125.5,742.4,1071.6,727.9,1031.4z"/>
		</g>
		<path class="st81" d="M753.3,1036l-9.3,1.1c0,0-1.2,0.4-1,4.1c0.1,3.6,0.5,4.3,4.6,3.7c4.1-0.6,8.1-1.2,8.1-1.2s2.9,0.7,1.6-5.6
			C757.1,1038.1,758,1034.5,753.3,1036z"/>
		<path class="st82" d="M278,1032.8c0,0-23.4,12.7-82.7,25.5l-0.2,6.4"/>
		<path class="st82" d="M374.9,1034.9c0,0,0,5.4-3.2,8.6c0,0-2,3.1-1.7,6.4c0.3,3.3-0.1,7.8,0.2,9.5l35.3,44.3"/>
		<path class="st68" d="M721.5,1017.5c0,0,5.7,10.2,6.3,13.9c0.7,3.8,9.4,20.6,10.7,52.5c1.3,31.8,2,41.6,2,41.6"/>
		<path class="st82" d="M946.4,1044.6c0,0-1.8,6.3-21.3,5.9c-19.5-0.5-65.1,4.9-83,8"/>
	</g>
</g>
<g id="fourteen">
</g>
<g id="fifteen_00000103262623346785252190000005497341088573515404_">
</g>
<g id="sixteen_00000052784415532825981170000013120508718389060798_">
</g>
<g id="seventeen_00000052799129178776355750000005236059528330747796_">
</g>
<g id="eighteen_00000054256262866476431880000018286803152678894488_">
</g>
<g id="nineteen_00000107558268356232088990000008456042227242415802_">
</g>
<g id="twenty">
</g>
</svg>
