<?xml version="1.0" encoding="utf-8"?>
<!-- Generator: Adobe Illustrator 27.2.0, SVG Export Plug-In . SVG Version: 6.00 Build 0)  -->
<svg version="1.1" xmlns="http://www.w3.org/2000/svg" xmlns:xlink="http://www.w3.org/1999/xlink" x="0px" y="0px"
	 viewBox="0 0 2250.5 1926.5" style="enable-background:new 0 0 2250.5 1926.5;" xml:space="preserve">
<style type="text/css">
	.st0{fill:#E8E6E6;stroke:#ADADAD;stroke-miterlimit:10;}
	.st1{fill:#F3F2F7;}
	.st2{fill:#030303;}
	.st3{fill:#353131;}
	.st4{fill:none;stroke:#ADADAD;stroke-width:2;stroke-miterlimit:10;}
	.st5{fill:none;stroke:#F3F2F7;stroke-width:2;stroke-miterlimit:10;}
	.st6{fill:#0A1205;}
	.st7{fill:#F3F2F7;stroke:#ADADAD;stroke-width:0.75;stroke-miterlimit:10;}
	.st8{fill:#ADADAD;}
	.st9{fill:#282828;}
	.st10{fill:#3A3A3A;}
	.st11{fill:#0A54A2;}
	.st12{fill:none;stroke:#E8E6E6;stroke-width:0.9742;stroke-miterlimit:10;}
	.st13{fill:#2E2E2E;}
	.st14{fill:#333333;}
	.st15{fill:#939393;stroke:#ADADAD;stroke-miterlimit:10;}
	.st16{fill:#D1D1D1;}
	.st17{fill:#191919;}
	.st18{fill:#666666;stroke:#ADADAD;stroke-miterlimit:10;}
	.st19{fill:#363636;}
	.st20{fill:none;stroke:#ADADAD;stroke-miterlimit:10;}
	.st21{fill:#121212;}
	.st22{fill:#0E0A12;}
	.st23{fill:#6E6E6E;}
	.st24{fill:#4E4E4E;}
	.st25{fill:#1E1E1E;}
	.st26{fill:#646464;}
	.st27{fill:#999999;}
	.st28{fill:#9E9E9E;}
	.st29{fill:#6D6D6D;}
	.st30{fill:#B5B5B5;}
	.st31{fill:#3E3E3E;}
	.st32{fill:#0D0F0C;}
	.st33{fill:none;stroke:#0E0A12;stroke-width:0.8371;stroke-miterlimit:10;}
	.st34{fill:#7D7D7D;}
	.st35{fill:#424242;}
	.st36{fill:#8A8A8A;}
	.st37{fill:#BCBCBC;stroke:#ADADAD;stroke-miterlimit:10;}
	.st38{fill:#8A8A8A;stroke:#6B6B6B;stroke-width:0.9619;stroke-miterlimit:10;}
	.st39{fill:none;stroke:#6B6B6B;stroke-width:0.7215;stroke-miterlimit:10;}
	.st40{fill:none;stroke:#A9A9AA;stroke-width:0.75;stroke-miterlimit:10;}
	.st41{fill:#484D4E;}
	.st42{fill:none;stroke:#111111;stroke-width:3;stroke-miterlimit:10;}
	.st43{fill:#282828;stroke:#0A0A0A;stroke-miterlimit:10;}
	.st44{fill:#F0221F;stroke:#BB1719;stroke-miterlimit:10;}
	.st45{fill:#BB1719;}
	.st46{fill:#FC7C88;stroke:#BB1719;stroke-miterlimit:10;}
	.st47{fill:none;stroke:#BB1719;stroke-width:3;stroke-miterlimit:10;}
	.st48{fill:#FC7C88;}
	.st49{fill:#FC7C88;stroke:#BB1719;stroke-width:3;stroke-miterlimit:10;}
	.st50{fill:#F0221F;}
	.st51{fill:#E8E6E6;stroke:#ADADAD;stroke-width:2;stroke-miterlimit:10;}
	.st52{opacity:0.59;fill:#F3F2F7;}
	.st53{fill:#080806;}
	.st54{fill:#9B9B9B;}
	.st55{fill:#2B2B2B;}
	.st56{fill:#C1BFBF;}
	.st57{fill:#D6D6D6;}
	.st58{fill:#4C4B4B;stroke:#A5A5A5;stroke-miterlimit:10;}
	.st59{fill:#444343;}
	.st60{fill:#727272;}
	.st61{fill:#A0A0A0;}
	.st62{fill:#999898;}
	.st63{fill:#444242;}
	.st64{fill:#157FCE;}
	.st65{fill:#134468;}
	.st66{fill:#092947;}
	.st67{fill:#D5D3D7;}
	.st68{fill:none;stroke:#134468;stroke-miterlimit:10;}
	.st69{fill:none;stroke:#0F63AD;stroke-miterlimit:10;}
	.st70{fill:#1672B7;}
	.st71{fill:#2066A0;}
	.st72{fill:#1B8ACE;}
	.st73{fill:none;stroke:#157FCE;stroke-miterlimit:10;}
	.st74{fill:none;stroke:#0A54A2;stroke-miterlimit:10;}
	.st75{fill:#3F3F3F;}
	.st76{fill:none;stroke:#282828;stroke-width:2;stroke-miterlimit:10;}
	.st77{fill:#7F7F7F;}
	.st78{fill:#2D2D2D;}
	.st79{fill:#4C4C4C;}
	.st80{fill:#383838;}
	.st81{fill:#9E9E9E;stroke:#0A55A3;stroke-miterlimit:10;}
	.st82{fill:none;stroke:#134468;stroke-width:0.75;stroke-miterlimit:10;}
	.st83{display:none;fill:#24242A;}
	.st84{display:none;fill:none;stroke:#848484;stroke-miterlimit:10;}
	.st85{display:none;fill:#30292D;}
	.st86{fill:#E8E6E6;}
	.st87{fill:#8C8C8C;}
	.st88{fill:#FCFCFC;stroke:#8C8C8C;stroke-miterlimit:10;}
	.st89{fill:#E8E6E6;stroke:#8C8C8C;stroke-miterlimit:10;}
	.st90{fill:#E8E6E6;stroke:#8C8C8C;stroke-width:2;stroke-miterlimit:10;}
	.st91{fill:none;stroke:#8C8C8C;stroke-width:2;stroke-miterlimit:10;}
	.st92{fill:none;stroke:#FCFCFC;stroke-width:3;stroke-miterlimit:10;}
	.st93{fill:#FCFCFC;}
	.st94{fill:#ADADAD;stroke:#8C8C8C;stroke-miterlimit:10;}
	.st95{fill:#FAFAFC;stroke:#ADADAD;stroke-width:0.75;stroke-miterlimit:10;}
	.st96{fill:none;stroke:#111111;stroke-width:3.6024;stroke-miterlimit:10;}
	.st97{fill:none;stroke:#111111;stroke-width:3.6093;stroke-miterlimit:10;}
	.st98{fill:none;stroke:#111111;stroke-width:3.5727;stroke-miterlimit:10;}
	.st99{fill:none;stroke:#111111;stroke-width:3.5263;stroke-miterlimit:10;}
	.st100{fill:none;stroke:#111111;stroke-width:3.4845;stroke-miterlimit:10;}
	.st101{fill:none;stroke:#111111;stroke-width:3.4337;stroke-miterlimit:10;}
	.st102{fill:none;stroke:#111111;stroke-width:3.3788;stroke-miterlimit:10;}
	.st103{fill:none;stroke:#111111;stroke-width:3.3233;stroke-miterlimit:10;}
	.st104{fill:none;stroke:#111111;stroke-width:3.2747;stroke-miterlimit:10;}
	.st105{fill:none;stroke:#111111;stroke-width:3.207;stroke-miterlimit:10;}
	.st106{fill:none;stroke:#111111;stroke-width:3.1652;stroke-miterlimit:10;}
	.st107{fill:none;stroke:#111111;stroke-width:3.099;stroke-miterlimit:10;}
	.st108{fill:none;stroke:#111111;stroke-width:3.0584;stroke-miterlimit:10;}
	.st109{fill:none;stroke:#111111;stroke-width:3.0299;stroke-miterlimit:10;}
</style>
<g id="original">
</g>
<g id="one">
</g>
<g id="two_00000026882943921159275490000004360688784792002186_">
</g>
<g id="three_00000113338737259881679640000015971704404683786636_">
</g>
<g id="four_00000049184186550712051260000002601905804867817144_">
</g>
<g id="five_00000179643197332058435300000007386453149388464260_">
</g>
<g id="six">
</g>
<g id="seven_00000062194613864970919320000012156796603096136882_">
</g>
<g id="eight">
</g>
<g id="nine">
</g>
<g id="ten_00000098906372602984753350000010503549982832515468_">
</g>
<g id="eleven_00000180345820641820120410000009044592103142380464_">
</g>
<g id="twelve">
</g>
<g id="thirteen_00000173859306950962761430000017419446578002950540_">
</g>
<g id="fourteen">
</g>
<g id="fifteen_00000103262623346785252190000005497341088573515404_">
</g>
<g id="sixteen_00000052784415532825981170000013120508718389060798_">
	<g>
		<path class="st86" d="M1971.8,828.7c-0.9-1.5-5.8-8.5-17.3-9.1c-12.1-0.7-193.8-3.9-204.5-4.1c0-2.4,0.1-13.1,5.3-18.6
			c2.1-2.2,4.8-3.3,8-3.3c14.8,0,186.9,6.1,188.6,6.1c0.3,0,31.7,2.1,37.6,28.6L1971.8,828.7z"/>
		<path class="st87" d="M1763.3,794c14.8,0,186.9,6.1,188.6,6.1c0.1,0,8.1,0.5,16.7,4.3c11,4.9,17.8,12.7,20.3,23.3l-16.8,0.4
			c-1.3-2-6.3-8.5-17.5-9.1c-11.9-0.7-189.3-3.8-204.1-4.1c0-3,0.4-12.7,5.2-17.8C1757.7,795.1,1760.2,794,1763.3,794 M1763.3,793
			c-15,0-13.9,23-13.9,23s192.5,3.4,205,4.1c12.5,0.7,17,9.1,17,9.1l18.6-0.5c-5.7-27.7-38.2-29.5-38.2-29.5S1778.3,793,1763.3,793
			L1763.3,793z"/>
	</g>
	<path class="st88" d="M1954.3,806.6l-141.9-6.1l21.4,8l117.6,4.2c0,0,16.5-0.2,25.8,15.2h5.2C1982.4,828,1977.2,807.8,1954.3,806.6
		z"/>
	<path class="st89" d="M1749.5,816l-0.5,12l201,1.9c0,0,11,0,13.4,13.4c2.4,13.4,21.5,113,21.5,113l0.8,128.3l32.7-0.8
		c0,0,9.4,1.1,9.4-8.3c0-9.4,0-44.6,0-44.6s0.5-5.9-5.4-8.1v-45.6h-16c0,0-10.2,0.8-11.3-15.9c-1.2-16.8-22-124.3-22-124.3
		s-1.5-2.4-1.7-7.8c0,0-5.8-8.8-17-9.1C1943.2,819.7,1749.5,816,1749.5,816z"/>
	<path class="st2" d="M1990.1,828.7l25.2,136.1l-22.6-21.3L1973.2,837c0,0-1.8-3.5-1.7-7.8L1990.1,828.7z"/>
	<path class="st2" d="M2018.1,951.3c0,0,5.4,9.2,3.2,17.8h-3l0.8,7.9l-12.5,0.2c0,0-10.3,0.4-11.3-15.9l-2.4-17.8l22.6,21.3
		c0,0,5.4-5.7-0.4-13.3c0,0-2.1-1.9-4.6,0.3c-2.5,2.2-3.9-1.7,0-3.6S2018.1,951.3,2018.1,951.3z"/>
	<polygon class="st3" points="1977.4,829.2 2005.3,913.3 1990.1,828.7 	"/>
	<path class="st90" d="M1749,828c0,0-5.4,110.4-4.1,200.8l240.1-0.9l-0.1-71.6l-21.5-113c0,0-1.7-13.4-13.4-13.4
		C1938.3,829.9,1749,828,1749,828z"/>
	<path class="st91" d="M1766.6,898.5l-0.3-47.2c0,0-0.6-8.8,12.4-9.1c13-0.3,24.8,0,24.8,0s9.1-2.1,9.1,11.8s-0.3,45.7-0.3,45.7"/>
	<path class="st92" d="M1765.7,909.4l-0.3,31.6c0,0-1.5,7.4,7.4,7.4c8.8,0,33.9,0,33.9,0s5,2.7,5-6.2s0-26,0-26"/>
	<path class="st91" d="M1764.8,979l0.3,33.6c0,0-0.9,5.3,5.3,5.3c6.2,0,39.5-0.3,39.5-0.3s4.7,1.8,4.4-6.2c-0.3-8-0.6-33-0.6-33
		s0.6-6.2-6.2-6.2c-6.8,0-38.3,0.6-38.3,0.6S1764.8,972.3,1764.8,979z"/>
	<line class="st91" x1="1826.7" y1="828.6" x2="1826.7" y2="1028"/>
	<polygon class="st6" points="1833.2,976.7 1833.5,995 1853.5,994.7 1853.5,976.7 	"/>
	<path class="st93" d="M1834.1,1001.4c0,0-1.2,10,14.2,9.7c15.3-0.3,115.3,0,115.3,0l-48.4-5.9h-66.9c0,0,0.3-3.8-4.1-4.1
		C1839.7,1000.9,1834.1,1001.4,1834.1,1001.4z"/>
	<path class="st87" d="M1837,842.2l4.7,67.2l-0.3-62.8c0,0-2.1-6.8,13.6-6.5c15.6,0.3,89.9,0.6,89.9,0.6s7.1-1.8,9.4,17.1
		c2.4,18.9,4.7,36.9,4.7,36.9l-2.1-45.7c0,0,0.7-11.8-13.6-11.6c-14.3,0.2-97.4-0.8-97.4-0.8S1838,836.3,1837,842.2z"/>
	<path class="st93" d="M1962,912.4l7.6,32.9c0,0,2.6,12.9-9.2,13.4c-11.8,0.5-111.3-5.3-111.3-5.3s-9.5-2.6-10-11.3
		s-0.3-27.4-0.3-27.4l2.6,25.5c0,0,0.3,8.4,7.9,9.5s109.2,6.1,109.2,6.1s11.1,2.9,7.4-19.2S1962,912.4,1962,912.4z"/>
	<path class="st9" d="M1841.7,914.8l-0.3,25.5c0,0,0.1,8.6,7.9,9.5c7.8,0.8,109.2,6.1,109.2,6.1s10.8,2.4,7.4-19.2
		s-12.8-85.5-12.8-85.5s-1.2-10-8.1-10.4c-6.9-0.3-95.2-1-95.2-1s-8.7-1.3-8.7,5.9C1841,852.9,1841.7,914.8,1841.7,914.8z"/>
	<polygon class="st2" points="1933,831 1933,837.9 1950.2,838.4 1949.9,831 	"/>
	<path class="st10" d="M1841.3,864.2c0,0,96.3,16.1,107.9,91.5l9.3,0.1c0,0,10.8,1.4,7.4-19.2c-3.5-20.6-12.8-85.5-12.8-85.5
		s-1.4-10.2-8.1-10.4s-95.2-1-95.2-1s-8.6-0.9-8.7,5.9C1841,852.5,1841.3,864.2,1841.3,864.2z"/>
	<polygon class="st2" points="1939.7,837.2 1939.8,848.3 1943.3,848.2 1943.5,837.4 	"/>
	<path class="st2" d="M1935.5,848.4l0.7,93.5h7.2c0,0,6.1-6.3,6.1-15.6l-0.2-66c0,0-1.4-10.9-5.9-12.1L1935.5,848.4z"/>
	<polygon class="st2" points="1939.3,970.7 1939.3,941.5 1943.5,941.8 1943.5,970.1 	"/>
	<polygon class="st2" points="1946.9,969.8 1950.6,969.9 1950.6,976.3 1931.8,976.3 1931.8,969.9 	"/>
	<path class="st11" d="M1818.6,772.1l17.4,0.2v18.3c0,0-4.6,1.4-19.2,0v-18.5L1818.6,772.1z"/>
	<path class="st87" d="M1838.9,789.9l0.1,6l-24.3-0.5v-5.9C1814.8,789.5,1823.8,792.4,1838.9,789.9z"/>
	<path class="st0" d="M1744.9,1028.8l0.4,26.2H1851c0,0,49,1.9,59.1,28.8l75.7,0.9l-0.7-56.7L1744.9,1028.8z"/>
	<path class="st89" d="M1744.9,1028.8l0.4,26.2H1851c0,0,49,1.9,59.1,28.8l75.7,0.9l-0.7-56.7L1744.9,1028.8z"/>
	<polygon class="st6" points="1982.4,1048.4 1960.6,1027.8 1979,1027.9 1985,1033.9 1985,1051.3 	"/>
	<path class="st6" d="M1945.1,1028.4l27.3,26.4h-18l-26.2-26.2C1928.1,1028.6,1945.1,1028.4,1945.1,1028.4z"/>
	<path class="st6" d="M1911.8,1028.6l26.6,26.6h-17.6l-26.5-26.5C1894.3,1028.8,1911.7,1028.7,1911.8,1028.6z"/>
	<path class="st6" d="M1879.6,1028.6l26.6,26.6h-17.6l-26.5-26.5C1862.1,1028.8,1879.5,1028.7,1879.6,1028.6z"/>
	<path class="st6" d="M1845.8,1028.6l26.6,26.6h-17.6l-26.5-26.5C1828.3,1028.8,1845.8,1028.7,1845.8,1028.6z"/>
	<path class="st6" d="M1812.4,1028.6l26.6,25.8h-17.6l-26.5-25.7C1794.9,1028.8,1812.4,1028.7,1812.4,1028.6z"/>
	<path class="st6" d="M1778.7,1029.1l26.6,25.3h-17.6l-26.5-25.1C1761.2,1029.3,1778.6,1029.2,1778.7,1029.1z"/>
	<path class="st6" d="M1744.9,1028.8l25.9,25.9h-16.4l-8.7-8.7l-0.7-0.7C1745.1,1045.3,1744.9,1028.6,1744.9,1028.8z"/>
	<path class="st94" d="M2022.5,1022.9h-26.9l8,8l24.3,0C2027.9,1030.9,2028.9,1025.3,2022.5,1022.9z"/>
	<path class="st94" d="M1985,1027.9c0,0,5.7,1.4,6,6.4v41.2l36.9-0.1c0,0,1.1,8.3-9.4,8.3c-10.5,0-32.7,0.8-32.7,0.8L1985,1027.9z"
		/>
	<polygon class="st13" points="1934.9,1180.6 1985.4,1180.5 1985.4,1084.6 1910.1,1083.7 	"/>
	<polygon class="st0" points="1930,1112.7 1985.6,1112.7 1985.6,1117.8 1930.1,1117.8 	"/>
	<path class="st0" d="M1985.3,1144.9h-51.9v3.9h52.2C1985.6,1148.8,1985.3,1144.2,1985.3,1144.9z"/>
	<path class="st0" d="M1933.9,1175.6h51.2v4.4h-51.7C1933.4,1180,1934.3,1175.2,1933.9,1175.6z"/>
	<path class="st2" d="M1916.2,1142.9l-15.1,13.3c0,0-33.2-69.2-81.4-59.5c-48.3,9.7-70.3,61.6-70.3,61.6l-16.6-15.5l21.3-64.5
		l78.6-5.4l64.1,7.6l18,45.8L1916.2,1142.9z"/>
	<circle class="st14" cx="1825.2" cy="1172.2" r="78.7"/>
	<circle class="st15" cx="1825.5" cy="1170.1" r="48.8"/>
	<circle class="st12" cx="1825.5" cy="1170.1" r="48.8"/>
	<circle class="st16" cx="1825.2" cy="1169.5" r="42.8"/>
	<circle class="st17" cx="1825.8" cy="1170.6" r="18.4"/>
	<circle class="st18" cx="1813.7" cy="1149.5" r="2.5"/>
	<circle class="st18" cx="1825.7" cy="1146.5" r="2.5"/>
	<circle class="st18" cx="1838" cy="1150.2" r="2.5"/>
	<circle class="st18" cx="1846.4" cy="1158.4" r="2.5"/>
	<circle class="st18" cx="1849.1" cy="1170.8" r="2.5"/>
	<circle class="st18" cx="1846.6" cy="1182.7" r="2.5"/>
	<circle class="st18" cx="1838" cy="1191.4" r="2.5"/>
	<circle class="st18" cx="1826" cy="1194.5" r="2.5"/>
	<circle class="st18" cx="1812.9" cy="1190.9" r="2.5"/>
	<circle class="st18" cx="1804.8" cy="1182.4" r="2.5"/>
	<circle class="st18" cx="1801.7" cy="1170.4" r="2.5"/>
	<circle class="st18" cx="1804.5" cy="1158" r="2.5"/>
	<path class="st19" d="M1800.8,1134.6c0,0,4,14.9-10.7,11.3C1790.1,1145.9,1792.3,1139.7,1800.8,1134.6z"/>
	<path class="st19" d="M1817.3,1127.6c0,0,6.4,12,17.4,0.5C1834.7,1128.1,1826.9,1125.1,1817.3,1127.6z"/>
	<path class="st19" d="M1849.3,1134.6c0,0-3.1,14.6,11.7,11.7C1860.9,1146.2,1856.4,1137.9,1849.3,1134.6z"/>
	<path class="st19" d="M1867,1161.8c0,0-9.2,9.9-0.5,17.9C1866.5,1179.6,1869.6,1172.2,1867,1161.8z"/>
	<path class="st19" d="M1849.9,1204.5c0,0-0.9-11.3,10.3-10.7C1860.1,1193.8,1856.9,1199.7,1849.9,1204.5z"/>
	<path class="st19" d="M1833.4,1211.2c0,0-7.1-9.9-16.6,0.2C1816.8,1211.3,1823.9,1213.8,1833.4,1211.2z"/>
	<path class="st19" d="M1790.1,1193.8c0,0,12.1-1.7,11,10.7C1801.1,1204.5,1795.5,1201.5,1790.1,1193.8z"/>
	<path class="st19" d="M1783.2,1161.3c0,0,10.4,8.4,0.5,18.3C1783.7,1179.6,1781.2,1172.8,1783.2,1161.3z"/>
	<path d="M1899.4,1145.5c0,0,23.1,81.5-72,102.5c0,0-87.4-4.1-76.9-102c0,0-20.5,55.5,31,92c0,0,20.3,14.8,47,13
		c26.7-1.8,52.7-13.7,68.6-46.2C1906.4,1179.4,1905.4,1169.3,1899.4,1145.5z"/>
	<path class="st20" d="M1744.9,1028.8l0.4,26.2H1851c0,0,49,1.9,59.1,28.8l75.7,0.9l-0.7-56.7L1744.9,1028.8z"/>
	<circle class="st20" cx="1825.2" cy="1169.5" r="42.8"/>
	<path class="st0" d="M2012.1,1084l0.4,13.4c0,0,15.7,4.2,15.9,14.8v65c0,0,1.1,6.7-6.7,6.7c-7.8,0-36.3,0-36.3,0l0.3-99.2
		L2012.1,1084z"/>
	<path class="st95" d="M2018.1,1114.2v24c0,0-0.4,4.7,4.3,4.7c4.7,0,6.1,0,6.1,0l-0.2-30.7C2028.3,1112.2,2021.5,1110,2018.1,1114.2
		z"/>
	<path class="st95" d="M2028.4,1154.9c0,0-11.2-1.8-10.8,6.5c0.3,8.2,9.2,6.7,10.8,6.4V1154.9z"/>
	<path class="st94" d="M2027.1,1107.8c0,0-13.6-6.4-32.8-2.9l-0.7,74c0,0,29.9,4.5,34.7-1.8c0,0,1.8,6.5-6.7,6.7
		c-8.5,0.1-36.3,0-36.3,0l0.3-99.2l26.4-0.6l0.4,13.4C2012.5,1097.4,2025.1,1101.5,2027.1,1107.8z"/>
	<polygon class="st21" points="1013.4,1076.7 1013.4,1130.6 1195.9,1169.4 1237.4,1145.8 1599.7,1145.8 1741.4,1146.5 1754,1078.3 	
		"/>
	<circle class="st22" cx="1620.7" cy="1142.9" r="22.5"/>
	<circle class="st22" cx="1670" cy="1142.9" r="22.5"/>
	<path class="st23" d="M1634.9,1126c0,0-15-5.6-25.6,4.2c-10.6,9.8-10,20.6-10,20.6s-4.6-16.6,7.9-25.8S1633.3,1122.9,1634.9,1126z"
		/>
	<path class="st23" d="M1684,1126c0,0-15-5.6-25.6,4.2c-10.6,9.8-10,20.6-10,20.6s-4.6-16.6,7.9-25.8S1682.5,1122.9,1684,1126z"/>
	<path class="st24" d="M1392.5,1104.1v73.5h200.8v-73.8C1593.3,1103.8,1391.5,1104.1,1392.5,1104.1z"/>
	<path class="st25" d="M1543.6,1096.6v11.2h10.7v-11.2C1554.3,1096.6,1543.3,1096.6,1543.6,1096.6z"/>
	<polygon class="st26" points="1550.1,1101.2 1550.1,1107.8 1554.3,1107.8 1554.3,1096.6 1550,1096.6 	"/>
	<polygon class="st27" points="1398.3,1104.5 1398.3,1177.8 1392.5,1177.8 1392.5,1104.1 1398.3,1104.1 	"/>
	<path class="st28" d="M1418.3,1100.5v77.9h7.3v-77.8C1425.6,1100.6,1418.8,1100.5,1418.3,1100.5z"/>
	<path class="st28" d="M1491.2,1100.4v77.5h7.9v-77.5C1499.1,1100.4,1491.2,1100,1491.2,1100.4z"/>
	<path class="st28" d="M1564,1100.1v78.5h7.8v-78v-0.5C1571.8,1100,1563.8,1100.1,1564,1100.1z"/>
	<path class="st28" d="M1588.9,1103.8v73.6h4.3v-73.6C1593.3,1103.8,1588.9,1104.1,1588.9,1103.8z"/>
	<path class="st29" d="M1398.4,1120.1h19.8v5h-19.8C1398.4,1125.1,1398.2,1119.9,1398.4,1120.1z"/>
	<path class="st29" d="M1572,1120.1h16.7v5H1572C1572,1125.1,1571.8,1119.9,1572,1120.1z"/>
	<path class="st29" d="M1425.9,1120.1h64.9v5h-64.9C1425.9,1125.1,1425.3,1119.9,1425.9,1120.1z"/>
	<path class="st29" d="M1499.5,1120.1h64.5v5h-64.5C1499.5,1125.1,1498.9,1119.9,1499.5,1120.1z"/>
	<path class="st30" d="M1392.5,1120.1h5.9v4.9h-5.8C1392.6,1125.1,1392.5,1120,1392.5,1120.1z"/>
	<path class="st30" d="M1418.3,1120.1h7.3v5.8h-7.3C1418.3,1125.8,1418.3,1120.1,1418.3,1120.1z"/>
	<path class="st30" d="M1491.2,1120.1h7.9v5.8h-7.9C1491.2,1125.8,1491.1,1120.1,1491.2,1120.1z"/>
	<path class="st30" d="M1563.9,1120.1h8v5.8h-8C1563.9,1125.8,1563.8,1120.1,1563.9,1120.1z"/>
	<path class="st30" d="M1588.7,1120.3h4.5v4.9h-4.4C1588.8,1125.2,1588.7,1120.2,1588.7,1120.3z"/>
	<path class="st31" d="M1241.9,1154.1v-37.6c0,0,0.7-6.3,15.2-6.3c14.5,0,121.1,0,121.1,0s7.9-1,7.9,9.6s0,50.8,0,50.8
		s1.3,7.3-14.2,7.3s-121.8,0-121.8,0s-8.3,0.7-8.3-8.6S1241.9,1154.1,1241.9,1154.1z"/>
	<path class="st32" d="M1310.5,1138.9v12.2h8.8v-12.4C1319.3,1138.7,1310.4,1138.8,1310.5,1138.9z"/>
	<line class="st33" x1="1385.7" y1="1145.7" x2="1242.1" y2="1145.7"/>
	<circle class="st14" cx="1118.4" cy="1172.2" r="78.7"/>
	<circle class="st15" cx="1118.8" cy="1170.1" r="48.8"/>
	<circle class="st12" cx="1118.8" cy="1170.1" r="48.8"/>
	<circle class="st16" cx="1118.4" cy="1169.5" r="42.8"/>
	<circle class="st17" cx="1119" cy="1170.6" r="18.4"/>
	<circle class="st18" cx="1106.9" cy="1149.5" r="2.5"/>
	<circle class="st18" cx="1118.9" cy="1146.5" r="2.5"/>
	<circle class="st18" cx="1131.2" cy="1150.2" r="2.5"/>
	<circle class="st18" cx="1139.7" cy="1158.4" r="2.5"/>
	<circle class="st18" cx="1142.3" cy="1170.8" r="2.5"/>
	<circle class="st18" cx="1139.8" cy="1182.7" r="2.5"/>
	<circle class="st18" cx="1131.2" cy="1191.4" r="2.5"/>
	<circle class="st18" cx="1119.2" cy="1194.5" r="2.5"/>
	<circle class="st18" cx="1106.1" cy="1190.9" r="2.5"/>
	<circle class="st18" cx="1098.1" cy="1182.4" r="2.5"/>
	<circle class="st18" cx="1094.9" cy="1170.4" r="2.5"/>
	<circle class="st18" cx="1097.7" cy="1158" r="2.5"/>
	<path class="st19" d="M1094,1134.6c0,0,4,14.9-10.7,11.3C1083.3,1145.9,1085.5,1139.7,1094,1134.6z"/>
	<path class="st19" d="M1110.5,1127.6c0,0,6.4,12,17.4,0.5C1127.9,1128.1,1120.1,1125.1,1110.5,1127.6z"/>
	<path class="st19" d="M1142.5,1134.6c0,0-3.1,14.6,11.7,11.7C1154.1,1146.2,1149.6,1137.9,1142.5,1134.6z"/>
	<path class="st19" d="M1160.2,1161.8c0,0-9.2,9.9-0.5,17.9C1159.7,1179.6,1162.8,1172.2,1160.2,1161.8z"/>
	<path class="st19" d="M1143.1,1204.5c0,0-0.9-11.3,10.3-10.7C1153.4,1193.8,1150.1,1199.7,1143.1,1204.5z"/>
	<path class="st19" d="M1126.6,1211.2c0,0-7.1-9.9-16.6,0.2C1110,1211.3,1117.2,1213.8,1126.6,1211.2z"/>
	<path class="st19" d="M1083.3,1193.8c0,0,12.1-1.7,11,10.7C1094.3,1204.5,1088.7,1201.5,1083.3,1193.8z"/>
	<path class="st19" d="M1076.5,1161.3c0,0,10.4,8.4,0.5,18.3C1076.9,1179.6,1074.4,1172.8,1076.5,1161.3z"/>
	<path d="M1192.6,1145.5c0,0,23.1,81.5-72,102.5c0,0-87.4-4.1-76.9-102c0,0-20.5,55.5,31,92c0,0,20.3,14.8,47,13
		c26.7-1.8,52.7-13.7,68.6-46.2C1199.6,1179.4,1198.6,1169.3,1192.6,1145.5z"/>
	<circle class="st20" cx="1118.4" cy="1169.5" r="42.8"/>
	<path class="st34" d="M1206.7,1176.9c0,0,8.3-55.7-60.6-83.8c0,0-45.8-17.1-84.3,14.3c0,0-28.7,13.2-34.2,70c0,0-3.9,8.3-17.6,8.3
		h-10.8l0.9-54l13.4-1.1l17.1-35.8c0,0,5.9-17.9,30.8-17.9s126.4,0.3,126.4,0.3s17,0.3,23.2,26.4s14.7,29,26.1,29v53.4l-25.2-0.3
		C1211.7,1185.7,1206.4,1184.8,1206.7,1176.9z"/>
	<path class="st35" d="M1108.5,1083.6c0,0-63.8,0.4-76.5,41c-12.7,40.6-16.5,60.9-16.5,60.9s-11.6,0.8-16.4,0.2l0.9-54l13.4-1.1
		l17.1-35.8c0,0,6.3-18,30.8-17.9s126.4,0.3,126.4,0.3s19.4,0.1,23.2,26.4c6,24.5,13.5,25.8,26.9,28.3l-0.8,54.1l-25.2-0.3
		c0,0-5.3-0.8-5-8.8c0,0,16.9-3.9,10.2-39.3c0,0-14.5-9.1-15.5-27.4S1185.9,1083.9,1108.5,1083.6z"/>
	<path class="st36" d="M1736,1180.7c0,0-14.1-88.6,62.3-98.4l-55.9-0.4c0,0-23.4,26.1-24.5,67.9c-1.1,41.7-0.4,35.6-0.4,35.6
		S1733.1,1187.6,1736,1180.7z"/>
	<path class="st37" d="M1724.5,802.4l-0.3,37.4c0,0,8,1.6,14.8,0l-0.3-41.2L1724.5,802.4z"/>
	<ellipse class="st21" cx="1731.6" cy="800.6" rx="8.2" ry="8.5"/>
	<path class="st38" d="M1721,839.8c0,0,11.8,1.6,21.3-0.3v214.7c0,0-13.9,3.5-21.3-0.3V839.8z"/>
	<path class="st0" d="M1700.3,1102.7v24.7c0,0,5.9,8.8,12.9-0.2v-20.6c0,0-0.7-7,7-9.7c7.7-2.7,14.3-9.1,15.2-17.4
		c0.9-8.4,0.7-24,0.7-24s-6.9,1-13.4-0.3l-0.4,20c0,0-0.9,5.7-7.9,9.5S1700.8,1091.2,1700.3,1102.7z"/>
	<path class="st8" d="M1728.9,1056.2l-0.7,19.2c0,0-1.8,9.5-9,13c-7.3,3.5-12.3,8.2-12.3,15s-0.2,28-0.2,28s-4.8,1.5-6.4-3.9
		l0.4-27.9c0,0,0.2-8.4,11.7-13.9c11.5-5.5,9.9-10.6,9.9-10.6l0.4-20C1722.7,1055.1,1726.1,1056.2,1728.9,1056.2z"/>
	<path class="st39" d="M1742.1,844.9c0,0-8.2,2.4-21.1-0.2"/>
	<path class="st39" d="M1742.1,850.5c0,0-8.2,2.4-21.1-0.2"/>
	<path class="st39" d="M1742.1,855.8c0,0-8.2,2.4-21.1-0.2"/>
	<path class="st39" d="M1742.1,861.2c0,0-8.2,2.4-21.1-0.2"/>
	<path class="st39" d="M1742.1,866.8c0,0-8.2,2.4-21.1-0.2"/>
	<path class="st39" d="M1742.1,872.4c0,0-8.2,2.4-21.1-0.2"/>
	<path class="st39" d="M1741.9,878c0,0-8.2,2.4-21.1-0.2"/>
	<path class="st39" d="M1741.9,883.6c0,0-8.2,2.4-21.1-0.2"/>
	<path class="st39" d="M1741.9,889c0,0-8.2,2.4-21.1-0.2"/>
	<path class="st39" d="M1741.9,894.4c0,0-8.2,2.4-21.1-0.2"/>
	<path class="st39" d="M1741.9,900.2c0,0-8.2,2.4-21.1-0.2"/>
	<path class="st39" d="M1741.9,905.6c0,0-8.2,2.4-21.1-0.2"/>
	<path class="st39" d="M1741.9,911.8c0,0-8.2,2.4-21.1-0.2"/>
	<path class="st39" d="M1741.9,917.6c0,0-8.2,2.4-21.1-0.2"/>
	<path class="st39" d="M1741.9,923.2c0,0-8.2,2.4-21.1-0.2"/>
	<path class="st39" d="M1741.9,929.2c0,0-8.2,2.4-21.1-0.2"/>
	<path class="st39" d="M1741.9,935.1c0,0-8.2,2.4-21.1-0.2"/>
	<path class="st39" d="M1742.2,941.2c0,0-8.2,2.4-21.1-0.2"/>
	<path class="st39" d="M1742.2,947.9c0,0-8.2,2.4-21.1-0.2"/>
	<path class="st39" d="M1742,954c0,0-8.2,2.4-21.1-0.2"/>
	<path class="st39" d="M1742,960.5c0,0-8.2,2.4-21.1-0.2"/>
	<path class="st39" d="M1742,966.2c0,0-8.2,2.4-21.1-0.2"/>
	<path class="st39" d="M1742,972.5c0,0-8.2,2.4-21.1-0.2"/>
	<path class="st39" d="M1742,978.1c0,0-8.2,2.4-21.1-0.2"/>
	<path class="st39" d="M1742,985c0,0-8.2,2.4-21.1-0.2"/>
	<path class="st39" d="M1742,991.1c0,0-8.2,2.4-21.1-0.2"/>
	<path class="st39" d="M1742,996.6c0,0-8.2,2.4-21.1-0.2"/>
	<path class="st39" d="M1742,1002.4c0,0-8.2,2.4-21.1-0.2"/>
	<path class="st39" d="M1742,1008.3c0,0-8.2,2.4-21.1-0.2"/>
	<path class="st39" d="M1742,1014.6c0,0-8.2,2.4-21.1-0.2"/>
	<path class="st39" d="M1742,1021.7c0,0-8.2,2.4-21.1-0.2"/>
	<path class="st39" d="M1742,1028.4c0,0-8.2,2.4-21.1-0.2"/>
	<path class="st39" d="M1742,1034.9c0,0-8.2,2.4-21.1-0.2"/>
	<path class="st39" d="M1742,1041.4c0,0-8.2,2.4-21.1-0.2"/>
	<path class="st39" d="M1741.7,1048.3c0,0-8.2,2.4-21.1-0.2"/>
	<line class="st40" x1="1736.5" y1="840.4" x2="1736.5" y2="1055.4"/>
	<line class="st40" x1="1724.2" y1="839.8" x2="1724.2" y2="1055.1"/>
	<line class="st40" x1="1729.6" y1="840.8" x2="1729.6" y2="1056.2"/>
	<path class="st36" d="M1740,1054.3v28.2h113.9c0,0,58.2,1.1,58.2,55.2l-0.4,41c0,0-1.9,5.6,6.8,6c8.6,0.4,16.9,0,16.9,0l-1.7-59.2
		c0,0-7.4-69.5-78.8-70.2S1740,1054.3,1740,1054.3z"/>
	<path class="st41" d="M1770.9,1063.6l72.9-0.3c0,0,62.5-4.9,76.9,38.9c14.4,43.8,14.7,82.5,14.7,82.5l-1.7-59.2
		c0,0-5.2-70.5-82.7-70.5c-77.5,0-111-0.7-111-0.7l-0.2,10.5L1770.9,1063.6z"/>
	<path class="st11" d="M1689.4,768.8l0.3,20.9c0,0,5.5,1.3,18.6,0l-0.5-21.2L1689.4,768.8z"/>
	<path class="st87" d="M1710.8,789.1l0.1,4.4h-23.8l0.1-4.1C1687.2,789.5,1696.3,790.5,1710.8,789.1z"/>
	<polygon class="st89" points="1680.9,792.8 1637.5,892.7 1716,892.7 1716,792.8 	"/>
	<polygon class="st8" points="1644.5,876.4 1694.5,877 1715.8,845.6 1716,892.7 1637.5,892.7 	"/>
	<line class="st42" x1="1640.9" y1="883.2" x2="986.3" y2="631.4"/>
	<path class="st42" d="M952.7,665.5c0,0,7.4,106.1,8.9,117"/>
	<line class="st42" x1="993.1" y1="676.8" x2="983.3" y2="786.4"/>
	<polygon class="st43" points="1012.4,661.2 1100.6,695.4 1090.3,719.9 1007.5,686.7 	"/>
	<path class="st10" d="M1019,668.4c0,0,0.7,13.2,15.9,18.9c15.2,5.6,59.6,22.8,59.6,22.8l5-12.2c0,0-67.8-23.2-72.8-27.1
		c-5-4-6.9-5.1-6.9-5.1S1018.5,667.4,1019,668.4z"/>
	<circle class="st10" cx="973.1" cy="651.3" r="27.4"/>
	<circle class="st9" cx="973.7" cy="651.5" r="21.8"/>
	<path class="st44" d="M1020.1,658.5l-12.9,34.1c0,0-42.9-11.1-47-25.4c-4.2-14.3,1.8-26.3,5.1-34.1L1020.1,658.5z"/>
	<path class="st45" d="M981.2,676.9l22.7,9.6c0,0,5.2-20.7,16.2-28l-12.9,34.1c0,0-41.1-9.9-47-25.4c0,0-3.2-6.7,0.2-20.3
		c0,0-1.3,19.2,6.7,23.5C975.1,674.7,981.2,676.9,981.2,676.9z"/>
	<circle class="st46" cx="973.1" cy="650.4" r="5.4"/>
	<circle class="st10" cx="1148.4" cy="693.5" r="11.8"/>
	<circle class="st9" cx="1463" cy="827.7" r="18"/>
	<circle class="st10" cx="1463.3" cy="827.9" r="11.5"/>
	<polygon class="st44" points="1603.3,894.8 1105.1,685.2 1086.6,728 1336.4,835.5 1354.5,855.6 1541.2,940.2 	"/>
	<polyline class="st47" points="1580.4,897.4 1110.1,699.5 1100.5,723.1 	"/>
	<g>
		<polygon class="st48" points="1362.2,849.5 1342.1,829 1099.9,723.5 1102.4,717.6 1344.9,823.8 1366.8,846.1 1552.1,929.7 
			1547.6,933.3 		"/>
		<path class="st45" d="M1102.9,718.9l241.4,105.7l21.9,22.3l183.9,83l-2.7,2.2l-184.7-83.5l-20-20.4l-241.5-105.2L1102.9,718.9
			 M1101.9,716.3l-0.8,1.9l-1.7,4l-0.8,1.8l1.8,0.8l241.1,105.1l19.8,20.2l0.3,0.3l0.3,0.2l184.7,83.5l1.1,0.5l1-0.8l2.7-2.2l2.6-2
			l-3-1.3l-183.6-82.9l-21.7-22l-0.3-0.3l-0.4-0.2l-241.4-105.7L1101.9,716.3L1101.9,716.3z"/>
	</g>
	<circle class="st49" cx="1385.5" cy="837.9" r="6.6"/>
	<polygon class="st43" points="1373.5,864.2 1373.5,930 1394.7,930 1395,873.8 	"/>
	<polygon class="st10" points="1386.1,872.9 1386.8,929 1376.8,929 1376.8,867.4 1385.9,871.3 	"/>
	<path class="st43" d="M1369,929.4c0,0,10.4,0.4,31.1,0.1l-0.3,36.5h-31L1369,929.4z"/>
	<path class="st9" d="M971.2,795.8c0,0,2.1,5.5-1.4,6.9s-11.7,8.7-4.1,14.6S979,818.9,982,807c0,0-3.7,0.5-6.4,6.2
		c0,0-6.4,6.9-7.3-3.2c0,0,0-2.5,3.9-4.1c3.9-1.6,3.4-5.5,1.4-11.9L971.2,795.8z"/>
	<path class="st50" d="M964.6,764.2c0,0-1.9,14-5.8,20.2c0,0-2.3,4.7,0,6.2c2.3,1.6,10.5,5.8,10.5,5.8s1.9,3.9,7.4,0l8.2-6.2
		c0,0,2.7,0.4,1.2-5.4c-1.6-5.8-6.6-20.6-6.6-20.6H964.6z"/>
	<path class="st45" d="M977,766.6l6.2,17.4c0,0,1.7,2.5-0.2,4.7c-1.9,2.2-7.4,6.1-7.4,6.1s-2,1.7-4.6-0.2c-2.5-1.9-6.2-3.5-6.2-3.5
		l4.6,5.4c0,0,2.7,3.9,7.4,0c4.7-3.9,8.2-6.2,8.2-6.2s2.6,0.3,1.2-5.4c-1.4-5.7-6.6-20.6-6.6-20.6L977,766.6z"/>
	<g>
		<path class="st48" d="M958.9,790.5c-0.1,0-0.6-0.2-0.9-0.9c-0.3-0.8-0.4-2.2,1-5c2.9-5.7,4.8-12.4,5.8-20.1h14l-1.9,1.9l-10.7-0.2
			l0,0.2c0,0.2-1.4,16.8-6.3,20.1c-0.1,0.1-0.5,0.5-0.4,1.2c0.2,0.7,0.9,1.3,2.3,1.8c2.4,0.9,5.4,4.5,6.7,6.3L958.9,790.5z"/>
		<path class="st50" d="M978.2,764.7l-1.4,1.4l-10.4-0.2l-0.5,0l0,0.5c0,0.2-1.4,16.7-6.2,19.9l0,0l0,0c-0.2,0.2-0.5,0.7-0.4,1.4
			c0.2,0.8,1,1.5,2.4,2c1.9,0.7,4.3,3.4,5.8,5.2l-8.4-4.7l0,0l0,0c0,0-0.5-0.2-0.7-0.8c-0.3-0.7-0.3-2.1,1-4.7
			c2.8-5.6,4.8-12.4,5.8-20H978.2 M979.4,764.2h-14.8c-1.1,8.3-3.1,14.9-5.8,20.2s0,6.2,0,6.2l10.5,5.8c0,0-4.3-6.1-7.5-7.3
			s-1.9-2.5-1.9-2.5c5.1-3.4,6.4-20.3,6.4-20.3l10.6,0.2L979.4,764.2L979.4,764.2z"/>
	</g>
	<line class="st42" x1="971.7" y1="812.2" x2="971.7" y2="821.6"/>
	<polygon class="st51" points="969.4,821.7 974.3,821.7 974.3,858.8 969.7,858.8 	"/>
	<line class="st106" x1="971.9" y1="859.4" x2="972.9" y2="1075"/>
	<polygon class="st89" points="1716,892.7 1716,1080 992.2,1080 992.2,1026.7 1110.2,966.5 1514.9,966.5 1587.2,894.3 	"/>
	<path class="st6" d="M1680.9,1047.5l31.2,32.1h-19.5l-32.2-32.2C1660.4,1047.4,1681.2,1047.3,1680.9,1047.5z"/>
	<path class="st6" d="M1646.3,1047.5l31.2,32.1h-19.5l-32.2-32.2C1625.7,1047.4,1646.5,1047.3,1646.3,1047.5z"/>
	<path class="st6" d="M1612.3,1047.5l31.2,32.1H1624l-32.2-32.2C1591.8,1047.4,1612.6,1047.3,1612.3,1047.5z"/>
	<path class="st6" d="M1577,1047.5l31.2,32.1h-19.5l-32.2-32.2C1556.4,1047.4,1577.2,1047.3,1577,1047.5z"/>
	<path class="st6" d="M1542.6,1047.6l31.2,32h-19.5l-32.2-32.1C1522,1047.5,1542.8,1047.4,1542.6,1047.6z"/>
	<path class="st6" d="M1507.5,1047.9l31.2,31.7h-19.5l-32.2-31.8C1486.9,1047.8,1507.7,1047.7,1507.5,1047.9z"/>
	<path class="st6" d="M1472.8,1047.9l31.2,31.7h-19.5l-32.2-31.8C1452.2,1047.8,1473.1,1047.7,1472.8,1047.9z"/>
	<path class="st6" d="M1437.7,1047.9l31.2,31.7h-19.5l-32.2-31.8C1417.1,1047.8,1437.9,1047.7,1437.7,1047.9z"/>
	<path class="st6" d="M1403.3,1048.2l31.2,31.4h-19.5l-32.2-31.5C1382.7,1048.1,1403.5,1047.9,1403.3,1048.2z"/>
	<path class="st6" d="M1368.6,1048.2l31.2,31.4h-19.5l-32.2-31.5C1348.1,1048.1,1368.9,1047.9,1368.6,1048.2z"/>
	<path class="st6" d="M1333.8,1048.2l31.2,31.4h-19.5l-32.2-31.5C1313.2,1048.1,1334,1048,1333.8,1048.2z"/>
	<path class="st6" d="M1298.7,1048.3l31.2,31.3h-19.5l-32.2-31.4C1278.1,1048.2,1298.9,1048.1,1298.7,1048.3z"/>
	<path class="st6" d="M1264.2,1048.4l31.2,31.2h-19.5l-32.2-31.3C1243.7,1048.3,1264.5,1048.2,1264.2,1048.4z"/>
	<path class="st6" d="M1229.8,1048.4l31.2,31.2h-19.5l-32.2-31.3C1209.2,1048.3,1230.1,1048.2,1229.8,1048.4z"/>
	<path class="st6" d="M1194.2,1048.8l31.2,30.8h-19.5l-32.2-30.9C1173.7,1048.6,1194.5,1048.5,1194.2,1048.8z"/>
	<path class="st6" d="M1159.4,1048.8l31.2,30.8H1171l-32.2-30.9C1138.8,1048.6,1159.6,1048.5,1159.4,1048.8z"/>
	<path class="st6" d="M1124,1049l31.2,30.6h-19.5l-32.2-30.7C1103.4,1048.9,1124.3,1048.8,1124,1049z"/>
	<path class="st6" d="M1089.1,1049.1l31.2,30.5h-19.5l-32.2-30.6C1068.6,1049,1089.4,1048.9,1089.1,1049.1z"/>
	<path class="st6" d="M1054,1049.2l31.2,30.4h-19.5l-32.2-30.5C1033.4,1049.1,1054.3,1049,1054,1049.2z"/>
	<polygon class="st1" points="1695.3,915.7 1695.3,1056.2 1688.2,1046.9 1688.2,921.1 	"/>
	<polygon class="st87" points="1596.3,921.9 1688.2,921.1 1695.3,915.7 1592.2,915.7 1523.7,988.5 1111,988.5 1012.8,1037.6 
		1012.8,1057 1020.4,1049.1 1020.4,1043.3 1117,995.9 1527,995.9 	"/>
	<polyline class="st1" points="1688.2,1046.9 1020.4,1049.1 1012.8,1057 1695.3,1056.2 	"/>
	<path class="st91" d="M1601.7,938.3h74.3v98.1h-74.3C1601.7,1036.4,1602,938.6,1601.7,938.3z"/>
	<polygon class="st6" points="1628.9,1019.6 1628.9,1028.7 1650.9,1028.7 1650.9,1018.6 1628.7,1018.6 	"/>
	<g>
		<path class="st9" d="M960.9,1070c0,0,0.4,10.5,2.3,11.3c1.9,0.8,19.5-8.1,20.4-12C983.5,1069.3,970,1071.5,960.9,1070z"/>
		<path class="st53" d="M299.8,1197.9l132.1-21.8c0,0,7.3-58.7-61.6-67.8S290.3,1164.1,299.8,1197.9z"/>
		<polygon class="st53" points="870.9,1107.5 879.8,1105.9 891.7,1056.2 823.8,1027.5 753.9,1050.9 748.6,1112.7 758.7,1128.4 		"/>
		<circle class="st14" cx="817.1" cy="1106" r="53.9"/>
		<g>
			<g>
				<path class="st54" d="M817.6,1143.4c-0.7,0-1.3,0-2-0.1c-19.2-1.1-34-17.6-32.9-36.8c1.1-18.5,16.3-32.9,34.8-32.9
					c0.7,0,1.3,0,2,0.1c9.3,0.5,17.9,4.7,24.1,11.6c6.2,7,9.3,15.9,8.8,25.2C851.4,1129,836.1,1143.4,817.6,1143.4z"/>
				<path class="st55" d="M817.5,1075.1c0.6,0,1.3,0,1.9,0.1c18.4,1.1,32.5,16.8,31.4,35.3c-1,17.8-15.7,31.5-33.3,31.5
					c-0.6,0-1.3,0-1.9-0.1c-18.4-1.1-32.5-16.8-31.4-35.3C785.2,1088.8,800,1075.1,817.5,1075.1 M817.5,1072.1L817.5,1072.1
					c-19.3,0-35.2,15.1-36.3,34.3c-0.6,9.7,2.7,19.1,9.2,26.3c6.5,7.3,15.4,11.6,25.1,12.1c0.7,0,1.4,0.1,2.1,0.1
					c19.3,0,35.2-15.1,36.3-34.3c1.1-20-14.2-37.3-34.3-38.4C818.9,1072.1,818.2,1072.1,817.5,1072.1L817.5,1072.1z"/>
			</g>
			<g>
				<path class="st56" d="M817.6,1127.9c-0.4,0-0.7,0-1.1,0c-10.5-0.6-18.5-9.6-17.9-20.1c0.6-10.1,8.9-17.9,19-17.9
					c0.4,0,0.7,0,1.1,0c10.5,0.6,18.5,9.6,17.9,20.1C836,1120,827.6,1127.9,817.6,1127.9z"/>
				<path class="st57" d="M817.5,1090.9L817.5,1090.9c0.3,0,0.7,0,1,0c4.8,0.3,9.2,2.4,12.4,6c3.2,3.6,4.8,8.2,4.5,13
					c-0.5,9.5-8.4,17-18,17c-0.3,0-0.7,0-1,0c-4.8-0.3-9.2-2.4-12.4-6c-3.2-3.6-4.8-8.2-4.5-13
					C800.1,1098.3,808,1090.9,817.5,1090.9 M817.5,1088.9c-10.5,0-19.4,8.2-20,18.9c-0.6,11,7.8,20.5,18.9,21.1c0.4,0,0.8,0,1.2,0
					c10.5,0,19.4-8.2,20-18.9c0.6-11-7.8-20.5-18.9-21.1C818.3,1088.9,817.9,1088.9,817.5,1088.9L817.5,1088.9z"/>
			</g>
			<circle class="st58" cx="817.9" cy="1108.9" r="6.7"/>
			<g>
				<path class="st59" d="M806.9,1087.2c-0.6,0-1.1-0.3-1.5-0.7s-0.6-1-0.5-1.5c0.1-1.1,1-2,2.1-2l0.1,0c0.6,0,1.1,0.3,1.5,0.7
					s0.6,1,0.5,1.5c-0.1,1.1-1,2-2.1,2L806.9,1087.2z"/>
				<path class="st60" d="M807,1083.2L807,1083.2c0,0,0.1,0,0.1,0c1,0.1,1.8,0.9,1.7,2c-0.1,1-0.9,1.8-1.9,1.8c0,0-0.1,0-0.1,0
					c-1-0.1-1.8-0.9-1.7-2C805.2,1084,806.1,1083.2,807,1083.2 M807,1082.7c-1.2,0-2.3,1-2.4,2.2c-0.1,1.3,0.9,2.4,2.2,2.5
					c0,0,0.1,0,0.1,0c1.2,0,2.3-1,2.4-2.2c0.1-1.3-0.9-2.4-2.2-2.5C807.1,1082.7,807.1,1082.7,807,1082.7L807,1082.7z"/>
			</g>
			<g>
				<path class="st59" d="M821,1084.9c-1.2-0.1-2.1-1.1-2-2.2c0.1-1.1,1-2,2.1-2l0.1,0c1.2,0.1,2.1,1.1,2,2.2c-0.1,1.1-1,2-2.1,2
					L821,1084.9z"/>
				<g>
					<path class="st60" d="M821.1,1081L821.1,1081c0,0,0.1,0,0.1,0c1,0.1,1.8,0.9,1.7,2c-0.1,1-0.9,1.8-1.9,1.8c0,0-0.1,0-0.1,0
						c-0.5,0-1-0.2-1.3-0.6s-0.5-0.8-0.5-1.3C819.3,1081.7,820.1,1081,821.1,1081 M821.1,1080.5c-1.2,0-2.3,1-2.4,2.2
						c-0.1,1.3,0.9,2.4,2.2,2.5c0,0,0.1,0,0.1,0c1.2,0,2.3-1,2.4-2.2c0.1-1.3-0.9-2.4-2.2-2.5
						C821.2,1080.5,821.2,1080.5,821.1,1080.5L821.1,1080.5z"/>
				</g>
			</g>
			<g>
				<path class="st61" d="M818.1,1098.2c-0.7,0-1.3-0.7-1.2-1.4c0-0.7,0.6-1.2,1.3-1.2c0.8,0,1.3,0.7,1.3,1.4
					C819.4,1097.7,818.9,1098.2,818.1,1098.2L818.1,1098.2z"/>
				<g>
					<path class="st62" d="M818.2,1095.8L818.2,1095.8c0.6,0,1.1,0.5,1.1,1.1c0,0.6-0.5,1-1.1,1l-0.1,0c-0.3,0-0.5-0.1-0.7-0.4
						c-0.2-0.2-0.3-0.5-0.3-0.8C817.1,1096.3,817.6,1095.8,818.2,1095.8 M818.2,1095.3c-0.8,0-1.5,0.6-1.6,1.5
						c0,0.9,0.6,1.6,1.5,1.6c0,0,0.1,0,0.1,0c0.8,0,1.5-0.6,1.6-1.5C819.8,1096.1,819.1,1095.4,818.2,1095.3
						C818.2,1095.3,818.2,1095.3,818.2,1095.3L818.2,1095.3z"/>
				</g>
			</g>
			<g>
				<path class="st61" d="M829,1110.5c-0.7,0-1.3-0.7-1.2-1.4c0-0.7,0.6-1.2,1.3-1.2c0.4,0,0.7,0.2,1,0.4s0.3,0.6,0.3,0.9
					C830.3,1109.9,829.8,1110.5,829,1110.5L829,1110.5z"/>
				<g>
					<path class="st62" d="M829.1,1108.1L829.1,1108.1c0.6,0,1.1,0.5,1.1,1.1c0,0.6-0.5,1-1.1,1l-0.1,0c-0.6,0-1-0.5-1-1.1
						C828.1,1108.5,828.5,1108.1,829.1,1108.1 M829.1,1107.6c-0.8,0-1.5,0.6-1.6,1.5c0,0.9,0.6,1.6,1.5,1.6c0,0,0.1,0,0.1,0
						c0.8,0,1.5-0.6,1.6-1.5C830.7,1108.4,830,1107.6,829.1,1107.6C829.1,1107.6,829.1,1107.6,829.1,1107.6L829.1,1107.6z"/>
				</g>
			</g>
			<g>
				<path class="st61" d="M817,1121c-0.7,0-1.3-0.7-1.2-1.4c0-0.7,0.6-1.2,1.3-1.2c0.8,0,1.3,0.7,1.3,1.4
					C818.3,1120.5,817.7,1121,817,1121L817,1121z"/>
				<g>
					<path class="st62" d="M817,1118.6L817,1118.6L817,1118.6c0.6,0,1.1,0.5,1.1,1.1c0,0.6-0.5,1-1.1,1l-0.1,0c-0.6,0-1-0.5-1-1.1
						C816,1119.1,816.5,1118.6,817,1118.6 M817,1118.1c-0.8,0-1.5,0.6-1.6,1.5c0,0.9,0.6,1.6,1.5,1.6c0,0,0.1,0,0.1,0
						c0.8,0,1.5-0.6,1.6-1.5C818.6,1118.9,818,1118.2,817,1118.1C817.1,1118.1,817.1,1118.1,817,1118.1L817,1118.1z"/>
				</g>
			</g>
			<g>
				<path class="st61" d="M805.8,1109.8c-0.7,0-1.3-0.7-1.2-1.4c0-0.7,0.6-1.2,1.3-1.2c0.8,0,1.3,0.7,1.3,1.4
					C807.2,1109.3,806.6,1109.8,805.8,1109.8L805.8,1109.8z"/>
				<g>
					<path class="st62" d="M805.9,1107.5L805.9,1107.5c0.6,0,1.1,0.5,1.1,1.1c0,0.6-0.5,1-1.1,1l-0.1,0c-0.6,0-1-0.5-1-1.1
						C804.9,1107.9,805.3,1107.5,805.9,1107.5 M805.9,1107c-0.8,0-1.5,0.6-1.6,1.5c0,0.9,0.6,1.6,1.5,1.6c0,0,0.1,0,0.1,0
						c0.8,0,1.5-0.6,1.6-1.5C807.5,1107.7,806.8,1107,805.9,1107C806,1107,805.9,1107,805.9,1107L805.9,1107z"/>
				</g>
			</g>
			<g>
				<path class="st59" d="M835,1091.2c-1.2-0.1-2.1-1.1-2-2.2c0.1-1.1,1-2,2.1-2l0.1,0c1.2,0.1,2.1,1.1,2,2.2c-0.1,1.1-1,2-2.1,2
					L835,1091.2z"/>
				<g>
					<path class="st60" d="M835.1,1087.2L835.1,1087.2c0,0,0.1,0,0.1,0c0.5,0,1,0.2,1.3,0.6s0.5,0.8,0.5,1.3c-0.1,1-0.9,1.8-1.9,1.8
						c0,0-0.1,0-0.1,0c-1-0.1-1.8-0.9-1.7-2C833.3,1088,834.1,1087.2,835.1,1087.2 M835.1,1086.7c-1.2,0-2.3,1-2.4,2.2
						c-0.1,1.3,0.9,2.4,2.2,2.5c0,0,0.1,0,0.1,0c1.2,0,2.3-1,2.4-2.2c0.1-1.3-0.9-2.4-2.2-2.5
						C835.2,1086.7,835.1,1086.7,835.1,1086.7L835.1,1086.7z"/>
				</g>
			</g>
			<g>
				<path class="st59" d="M842,1101.3c-1.2-0.1-2.1-1.1-2-2.2c0.1-1.1,1-2,2.1-2l0.1,0c1.2,0.1,2.1,1.1,2,2.2c-0.1,1.1-1,2-2.1,2
					L842,1101.3z"/>
				<g>
					<path class="st60" d="M842.1,1097.3L842.1,1097.3c0,0,0.1,0,0.1,0c0.5,0,1,0.2,1.3,0.6s0.5,0.8,0.5,1.3c-0.1,1-0.9,1.8-1.9,1.8
						c0,0-0.1,0-0.1,0c-1-0.1-1.8-0.9-1.7-2C840.3,1098.1,841.1,1097.3,842.1,1097.3 M842.1,1096.8c-1.2,0-2.3,1-2.4,2.2
						c-0.1,1.3,0.9,2.4,2.2,2.5c0,0,0.1,0,0.1,0c1.2,0,2.3-1,2.4-2.2c0.1-1.3-0.9-2.4-2.2-2.5
						C842.2,1096.8,842.2,1096.8,842.1,1096.8L842.1,1096.8z"/>
				</g>
			</g>
			<g>
				<path class="st59" d="M843.3,1114.1c-1.2-0.1-2.1-1.1-2-2.2c0.1-1.1,1-2,2.1-2l0.1,0c1.2,0.1,2.1,1.1,2,2.2c-0.1,1.1-1,2-2.1,2
					L843.3,1114.1z"/>
				<g>
					<path class="st60" d="M843.4,1110.1L843.4,1110.1c0,0,0.1,0,0.1,0c1,0.1,1.8,0.9,1.7,2c-0.1,1-0.9,1.8-1.9,1.8c0,0-0.1,0-0.1,0
						c-0.5,0-1-0.2-1.3-0.6c-0.3-0.4-0.5-0.8-0.5-1.3C841.6,1110.9,842.4,1110.1,843.4,1110.1 M843.4,1109.6c-1.2,0-2.3,1-2.4,2.2
						c-0.1,1.3,0.9,2.4,2.2,2.5c0,0,0.1,0,0.1,0c1.2,0,2.3-1,2.4-2.2c0.1-1.3-0.9-2.4-2.2-2.5
						C843.5,1109.6,843.4,1109.6,843.4,1109.6L843.4,1109.6z"/>
				</g>
			</g>
			<g>
				<path class="st59" d="M838.9,1125.7c-1.2-0.1-2.1-1.1-2-2.2c0.1-1.1,1-2,2.1-2l0.1,0c1.2,0.1,2.1,1.1,2,2.2c-0.1,1.1-1,2-2.1,2
					L838.9,1125.7z"/>
				<g>
					<path class="st60" d="M839,1121.7L839,1121.7c0,0,0.1,0,0.1,0c1,0.1,1.8,0.9,1.7,2c-0.1,1-0.9,1.8-1.9,1.8c0,0-0.1,0-0.1,0
						c-0.5,0-1-0.2-1.3-0.6c-0.3-0.4-0.5-0.8-0.5-1.3C837.2,1122.5,838,1121.7,839,1121.7 M839,1121.2c-1.2,0-2.3,1-2.4,2.2
						c-0.1,1.3,0.9,2.4,2.2,2.5c0,0,0.1,0,0.1,0c1.2,0,2.3-1,2.4-2.2c0.1-1.3-0.9-2.4-2.2-2.5C839.1,1121.2,839.1,1121.2,839,1121.2
						L839,1121.2z"/>
				</g>
			</g>
			<g>
				<path class="st59" d="M828.8,1134.2c-0.6,0-1.1-0.3-1.5-0.7s-0.6-1-0.5-1.5c0.1-1.1,1-2,2.1-2l0.1,0c0.6,0,1.1,0.3,1.5,0.7
					s0.6,1,0.5,1.5c-0.1,1.1-1,2-2.1,2L828.8,1134.2z"/>
				<g>
					<path class="st60" d="M828.9,1130.2L828.9,1130.2c0,0,0.1,0,0.1,0c1,0.1,1.8,0.9,1.7,2c-0.1,1-0.9,1.8-1.9,1.8c0,0-0.1,0-0.1,0
						c-1-0.1-1.8-0.9-1.7-2C827.2,1131,828,1130.2,828.9,1130.2 M828.9,1129.7c-1.2,0-2.3,1-2.4,2.2c-0.1,1.3,0.9,2.4,2.2,2.5
						c0,0,0.1,0,0.1,0c1.2,0,2.3-1,2.4-2.2c0.1-1.3-0.9-2.4-2.2-2.5C829,1129.7,829,1129.7,828.9,1129.7L828.9,1129.7z"/>
				</g>
			</g>
			<g>
				<path class="st59" d="M816.1,1137.5c-0.6,0-1.1-0.3-1.5-0.7s-0.6-1-0.5-1.5c0.1-1.1,1-2,2.1-2l0.1,0c0.6,0,1.1,0.3,1.5,0.7
					s0.6,1,0.5,1.5c-0.1,1.1-1,2-2.1,2L816.1,1137.5z"/>
				<g>
					<path class="st60" d="M816.2,1133.5L816.2,1133.5c0,0,0.1,0,0.1,0c0.5,0,1,0.2,1.3,0.6s0.5,0.8,0.5,1.3c-0.1,1-0.9,1.8-1.9,1.8
						c0,0-0.1,0-0.1,0c-1-0.1-1.8-0.9-1.7-2C814.4,1134.3,815.2,1133.5,816.2,1133.5 M816.2,1133c-1.2,0-2.3,1-2.4,2.2
						c-0.1,1.3,0.9,2.4,2.2,2.5c0,0,0.1,0,0.1,0c1.2,0,2.3-1,2.4-2.2c0.1-1.3-0.9-2.4-2.2-2.5C816.3,1133,816.3,1133,816.2,1133
						L816.2,1133z"/>
				</g>
			</g>
			<g>
				<path class="st59" d="M804.8,1134.3c-0.6,0-1.1-0.3-1.5-0.7s-0.6-1-0.5-1.5c0.1-1.1,1-2,2.1-2l0.1,0c1.2,0.1,2.1,1.1,2,2.2
					c-0.1,1.1-1,2-2.1,2L804.8,1134.3z"/>
				<g>
					<path class="st60" d="M804.9,1130.3L804.9,1130.3c0,0,0.1,0,0.1,0c0.5,0,1,0.2,1.3,0.6c0.3,0.4,0.5,0.8,0.5,1.3
						c-0.1,1-0.9,1.8-1.9,1.8c0,0-0.1,0-0.1,0c-0.5,0-1-0.2-1.3-0.6c-0.3-0.4-0.5-0.8-0.5-1.3
						C803.1,1131.1,803.9,1130.3,804.9,1130.3 M804.9,1129.8c-1.2,0-2.3,1-2.4,2.2c-0.1,1.3,0.9,2.4,2.2,2.5c0,0,0.1,0,0.1,0
						c1.2,0,2.3-1,2.4-2.2c0.1-1.3-0.9-2.4-2.2-2.5C805,1129.8,805,1129.8,804.9,1129.8L804.9,1129.8z"/>
				</g>
			</g>
			<g>
				<path class="st59" d="M795.8,1125.9c-1.2-0.1-2.1-1.1-2-2.2c0.1-1.1,1-2,2.1-2l0.1,0c1.2,0.1,2.1,1.1,2,2.2c-0.1,1.1-1,2-2.1,2
					L795.8,1125.9z"/>
				<g>
					<path class="st60" d="M795.9,1121.9L795.9,1121.9c0,0,0.1,0,0.1,0c0.5,0,1,0.2,1.3,0.6c0.3,0.4,0.5,0.8,0.5,1.3
						c-0.1,1-0.9,1.8-1.9,1.8c0,0-0.1,0-0.1,0c-1-0.1-1.8-0.9-1.7-2C794.1,1122.7,794.9,1121.9,795.9,1121.9 M795.9,1121.4
						c-1.2,0-2.3,1-2.4,2.2c-0.1,1.3,0.9,2.4,2.2,2.5c0,0,0.1,0,0.1,0c1.2,0,2.3-1,2.4-2.2c0.1-1.3-0.9-2.4-2.2-2.5
						C796,1121.4,796,1121.4,795.9,1121.4L795.9,1121.4z"/>
				</g>
			</g>
			<g>
				<path class="st59" d="M791.1,1114.8c-0.6,0-1.1-0.3-1.5-0.7s-0.6-1-0.5-1.5c0.1-1.1,1-2,2.1-2l0.1,0c0.6,0,1.1,0.3,1.5,0.7
					s0.6,1,0.5,1.5c-0.1,1.1-1,2-2.1,2L791.1,1114.8z"/>
				<g>
					<path class="st60" d="M791.2,1110.8L791.2,1110.8c0,0,0.1,0,0.1,0c0.5,0,1,0.2,1.3,0.6c0.3,0.4,0.5,0.8,0.5,1.3
						c-0.1,1-0.9,1.8-1.9,1.8c0,0-0.1,0-0.1,0c-0.5,0-1-0.2-1.3-0.6c-0.3-0.4-0.5-0.8-0.5-1.3
						C789.4,1111.6,790.2,1110.8,791.2,1110.8 M791.2,1110.3c-1.2,0-2.3,1-2.4,2.2c-0.1,1.3,0.9,2.4,2.2,2.5c0,0,0.1,0,0.1,0
						c1.2,0,2.3-1,2.4-2.2c0.1-1.3-0.9-2.4-2.2-2.5C791.3,1110.4,791.3,1110.3,791.2,1110.3L791.2,1110.3z"/>
				</g>
			</g>
			<g>
				<path class="st59" d="M791.5,1104c-1.2-0.1-2.1-1.1-2-2.2c0.1-1.1,1-2,2.1-2l0.1,0c1.2,0.1,2.1,1.1,2,2.2c-0.1,1.1-1,2-2.1,2
					L791.5,1104z"/>
				<g>
					<path class="st60" d="M791.6,1100L791.6,1100c0,0,0.1,0,0.1,0c0.5,0,1,0.2,1.3,0.6s0.5,0.8,0.5,1.3c-0.1,1-0.9,1.8-1.9,1.8
						c0,0-0.1,0-0.1,0c-0.5,0-1-0.2-1.3-0.6s-0.5-0.8-0.5-1.3C789.8,1100.8,790.6,1100,791.6,1100 M791.6,1099.5
						c-1.2,0-2.3,1-2.4,2.2c-0.1,1.3,0.9,2.4,2.2,2.5c0,0,0.1,0,0.1,0c1.2,0,2.3-1,2.4-2.2c0.1-1.3-0.9-2.4-2.2-2.5
						C791.7,1099.5,791.6,1099.5,791.6,1099.5L791.6,1099.5z"/>
				</g>
			</g>
			<g>
				<path class="st59" d="M796.5,1093.9c-1.2-0.1-2.1-1.1-2-2.2c0.1-1.1,1-2,2.1-2l0.1,0c1.2,0.1,2.1,1.1,2,2.2c-0.1,1.1-1,2-2.1,2
					L796.5,1093.9z"/>
				<g>
					<path class="st60" d="M796.6,1089.9L796.6,1089.9c0,0,0.1,0,0.1,0c0.5,0,1,0.2,1.3,0.6s0.5,0.8,0.5,1.3c-0.1,1-0.9,1.8-1.9,1.8
						c0,0-0.1,0-0.1,0c-0.5,0-1-0.2-1.3-0.6s-0.5-0.8-0.5-1.3C794.8,1090.7,795.6,1089.9,796.6,1089.9 M796.6,1089.4
						c-1.2,0-2.3,1-2.4,2.2c-0.1,1.3,0.9,2.4,2.2,2.5c0,0,0.1,0,0.1,0c1.2,0,2.3-1,2.4-2.2c0.1-1.3-0.9-2.4-2.2-2.5
						C796.7,1089.4,796.6,1089.4,796.6,1089.4L796.6,1089.4z"/>
				</g>
			</g>
		</g>
		<path class="st63" d="M862.6,1134.6c0,0,20-52.5-29.1-74.6c0,0-28.4-7.9-46.7,7.6s-21,38-19.7,57.7c0,0-4.7-6.3-3.8-22.4
			c0.9-16.1,13-51.3,56.9-50.7c0,0,50.2,1.6,50.7,56.9C870.9,1109,870.7,1123.3,862.6,1134.6z"/>
		<path class="st11" d="M763.4,984.5c0,0,160.5-5.9,168.7,22.1c0,0,7.7,4.7,10.6,16.1c0,0,18.1,2.4,18.1,21.7c0,0,2.4,29.6,4.7,37.6
			s-0.5,7.9-6.6,10s-52.2,10.7-79.1,13.8c0,0,3.9-48.6-47.6-64.7c0,0-27.7-6.8-49.6,7.5c-21.8,14.3-29.6,31.6-29,54.6
			c0.6,23,5.1,25.1,5.1,25.1s-6.5,4.3-16.5-12.4l-2.2,0.1c0,0,0.8-71.7-24.2-107.6c0,0,23.9-6.6,30-18.5
			C745.9,990.1,757.2,985.2,763.4,984.5z"/>
		<path class="st64" d="M745.9,990.1l136.4,4.8c0,0,29.1,1.4,37,10.2l12.9,1.5c0,0-3.6-13.5-37.9-17.4c-34.3-3.9-58.4-5.4-130.8-4.7
			C763.4,984.5,752.8,986.5,745.9,990.1z"/>
		<path class="st64" d="M961.7,1055.2c0,0-41.4,3.6-49.1,7c0,0,33.5-30.5,29.7-41.2l2,2.5c0,0,14.1,2.6,16,15.4
			C962.2,1051.7,961.7,1055.2,961.7,1055.2z"/>
		<path class="st65" d="M879.8,1105.9c0,0,3.7-8.3,16.3-10.2c12.6-1.9,66.5-10.1,69.4-15.4c0,0,4.9,10.3-6.6,11.8
			C947.5,1093.7,879.8,1105.9,879.8,1105.9z"/>
		<path class="st65" d="M961.7,1055.2l0.4,2.4c0,0-48.1,5.7-55.7,12.9c0,0-3.5,2.1-5.2,6.3c0,0,0.4-8.3,11.5-14.5
			C912.6,1062.2,923,1058.9,961.7,1055.2z"/>
		<path class="st64" d="M965.5,1080.3c0,0-1.2,1.6-4.9,2.4c-3.6,0.8-65.4,7.5-59.5-5.9c0,0,1.9-4.3,7-7.2c0,0-7.9,8,1.3,9.8
			C918.7,1081.2,952.6,1082.7,965.5,1080.3z"/>
		<path class="st66" d="M962.1,1057.6c0,0,1.8,16,3.4,22.6c0,0-30.5,3.5-56.1-0.9c0,0-9.1-2.8-1.3-9.8S962.1,1057.6,962.1,1057.6z"
			/>
		<path class="st28" d="M932.2,1006.6c0,0-6.1-0.7-15.5-1.4c-12-0.9-29.3-1.9-45.7-1.5c0,0-11.5,2.1-6.2,6s22.2,16.7,22.2,16.7
			l15.1,5c0,0,43.2-1,40.2-10.3C939.4,1011.8,932.2,1006.6,932.2,1006.6z"/>
		<path class="st67" d="M916.4,1008.2c0,0,12.7,11,4.7,21.7c0,0,24.1-0.4,21.3-8.8c-3.7-11-10.1-14.4-10.1-14.4l-29.3-2.3
			C902.9,1004.4,912.9,1004.9,916.4,1008.2z"/>
		<path class="st11" d="M745.9,990.1c0,0-82.2-34.1-129.6-40.4l13.3-8.5c0,0-62.2-10-146.2,7c-84,16.9-137.2,42.1-137.2,42.1
			l14.6,2.6l-88.6,58.1l-19.4,0.8l-62.7,25.1c0,0-3.3,14.1,0.5,16.4l2-4.5c0,0,27.9-1.6,39.9,12.3c12,13.9,19.3,23.6,19.3,23.6
			s5.7,7.1,14.5,7.6c8.9,0.5,51.4,4.7,51.4,4.7s27.7-32.9,76.1-16l12.5-6.4l-37.9-42.1c0,0-1.8-12.6,0.6-16s2.6-8.8,2.6-8.8
			s-35.3-6.6-25-17.1c10.2-10.5,54.3-39.7,54.3-39.7s88.7-24.5,107.4-27c18.7-2.5,105.9-6.4,142,4.9c36.1,11.3,67.6,21,81.8,27.8
			c0,0,2.4,3.8-0.5,5.5C731.8,1002.1,743.3,999.2,745.9,990.1z"/>
		<path class="st68" d="M363.8,993.1c49.5-20.6,56.5-20,123.4-35.9c66.9-15.9,129-7.4,129-7.4"/>
		<path class="st69" d="M272.1,1051c0,0-24.9,16.2-59.1,25.4l-19.1,5.6l-1.3,6.9"/>
		<g>
			<path class="st70" d="M193.9,1082l173.9-19c0,0-0.2-3.4,1.3-6.5s2.4-6.5,2.6-8.8l-119.1,14C252.6,1061.7,232.2,1072.2,193.9,1082
				z"/>
		</g>
		<g>
			<path class="st71" d="M430.5,971.3c0,0-28.2,13.1-29.5,19.7l-54.3,39.7l12.4,14.1l-86,7C273.2,1051.8,345.8,989.1,430.5,971.3z"
				/>
		</g>
		<path class="st64" d="M557.1,957.4c0,0,45.8-2,67.4-6.3c0,0,54.2,10.8,105.6,33.1c0,0,0.7,7.1-6.5,9.5l-73.2-24.8
			c0,0-27.1-9.1-72.1-7.4L552,961L557.1,957.4z"/>
		<path class="st11" d="M715.9,1008.6c0,0-313.5,38.3-344.1,39.1c0,0-0.4,5.3-2.6,8.8c0,0-1.5,3.5-1.3,6.5l0.8,9.5l37.9,42.1
			L394,1121c0,0,38,17,34.9,59.7c0,0,1.5,1.4,12.9-0.6c11.4-1.9,316.9-51.7,316.9-51.7s-6.6,2.6-16.5-12.4l-2.2,0.1
			C740,1116.2,742.5,1046.8,715.9,1008.6z"/>
		<g>
			<path class="st70" d="M374,1062.8l349.8-39.9c0,0-3.3-7.9-8-14.2l-344.1,39.1c0,0,0.1,5-2.6,8.8c0,0-1.7,3.5-1.3,6.5L374,1062.8z
				"/>
		</g>
		<path class="st65" d="M406.5,1114.6l29.2,31.5c0,0,7.7,17.8,39.2,13s265.2-42.9,265.2-42.9l2.2-0.1c0,0,7,13.3,16.5,12.4
			l-316.9,51.7c0,0-9.7,2.2-12.9,0.6c0,0,4.7-38.9-34.9-59.7L406.5,1114.6z"/>
		<path class="st72" d="M554.3,1050.9c0,0-5.3,4.7,1.1,4.9c6.4,0.1,29.4-4.5,29.4-4.5s5.3-3.2-2.2-4.5L554.3,1050.9z"/>
		<path class="st72" d="M409.5,1070.6c0,0-5.3,4.7,1.1,4.9s29.4-4.5,29.4-4.5s5.3-3.2-2.2-4.5L409.5,1070.6z"/>
		<path class="st73" d="M578.6,1054.4c0,0-3.5,7.2-15,2"/>
		<path class="st74" d="M576.5,1046.1c0,0-7.4-5.8-14.5,2"/>
		<path class="st73" d="M433.4,1074.3c0,0-3.5,7.2-15,2"/>
		<path class="st74" d="M431.3,1066c0,0-7.4-5.8-14.5,2"/>
		<g>
			<path class="st71" d="M737.7,1074.6c0,0-3.4,26.1-23,28.8c-19.6,2.7-243.8,37.5-243.8,37.5s-29.7,6.3-51.5-12.5l16.3,17.7
				c0,0,6.5,17.6,39.2,13s265.2-42.9,265.2-42.9S740.5,1100.7,737.7,1074.6z"/>
		</g>
		<circle class="st14" cx="367.4" cy="1182.8" r="53.9"/>
		<g>
			<g>
				<path class="st54" d="M367.9,1220.3c-0.7,0-1.3,0-2-0.1c-19.2-1.1-34-17.6-32.9-36.8c1.1-18.5,16.3-32.9,34.8-32.9
					c0.7,0,1.3,0,2,0.1c9.3,0.5,17.9,4.7,24.1,11.6c6.2,7,9.3,15.9,8.8,25.2C401.6,1205.8,386.3,1220.3,367.9,1220.3z"/>
				<path class="st55" d="M367.8,1152c0.6,0,1.3,0,1.9,0.1c18.4,1.1,32.5,16.8,31.4,35.3c-1,17.8-15.7,31.5-33.3,31.5
					c-0.6,0-1.3,0-1.9-0.1c-18.4-1.1-32.5-16.8-31.4-35.3C335.5,1165.7,350.2,1152,367.8,1152 M367.8,1149L367.8,1149
					c-19.3,0-35.2,15.1-36.3,34.3c-0.6,9.7,2.7,19.1,9.2,26.3c6.5,7.3,15.4,11.6,25.1,12.1c0.7,0,1.4,0.1,2.1,0.1
					c19.3,0,35.2-15.1,36.3-34.3c1.1-20-14.2-37.3-34.3-38.4C369.2,1149,368.5,1149,367.8,1149L367.8,1149z"/>
			</g>
			<g>
				<path class="st56" d="M367.8,1204.8c-0.4,0-0.7,0-1.1,0c-10.5-0.6-18.5-9.6-17.9-20.1c0.6-10.1,8.9-17.9,19-17.9
					c0.4,0,0.7,0,1.1,0c10.5,0.6,18.5,9.6,17.9,20.1C386.2,1196.9,377.9,1204.8,367.8,1204.8z"/>
				<path class="st57" d="M367.8,1167.7L367.8,1167.7c0.3,0,0.7,0,1,0c4.8,0.3,9.2,2.4,12.4,6s4.8,8.2,4.5,13c-0.5,9.5-8.4,17-18,17
					c-0.3,0-0.7,0-1,0c-4.8-0.3-9.2-2.4-12.4-6s-4.8-8.2-4.5-13C350.4,1175.2,358.3,1167.7,367.8,1167.7 M367.8,1165.7
					c-10.5,0-19.4,8.2-20,18.9c-0.6,11,7.8,20.5,18.9,21.1c0.4,0,0.8,0,1.2,0c10.5,0,19.4-8.2,20-18.9c0.6-11-7.8-20.5-18.9-21.1
					C368.6,1165.7,368.2,1165.7,367.8,1165.7L367.8,1165.7z"/>
			</g>
			<circle class="st58" cx="368.1" cy="1185.7" r="6.7"/>
			<g>
				<path class="st59" d="M357.2,1164.1c-1.2-0.1-2.1-1.1-2-2.2c0.1-1.1,1-2,2.1-2l0.1,0c0.6,0,1.1,0.3,1.5,0.7
					c0.4,0.4,0.6,1,0.5,1.5c-0.1,1.1-1,2-2.1,2L357.2,1164.1z"/>
				<path class="st60" d="M357.3,1160.1L357.3,1160.1c0,0,0.1,0,0.1,0c1,0.1,1.8,0.9,1.7,2c-0.1,1-0.9,1.8-1.9,1.8c0,0-0.1,0-0.1,0
					c-1-0.1-1.8-0.9-1.7-2C355.5,1160.9,356.3,1160.1,357.3,1160.1 M357.3,1159.6c-1.2,0-2.3,1-2.4,2.2c-0.1,1.3,0.9,2.4,2.2,2.5
					c0,0,0.1,0,0.1,0c1.2,0,2.3-1,2.4-2.2c0.1-1.3-0.9-2.4-2.2-2.5C357.4,1159.6,357.3,1159.6,357.3,1159.6L357.3,1159.6z"/>
			</g>
			<g>
				<path class="st59" d="M371.3,1161.8c-1.2-0.1-2.1-1.1-2-2.2c0.1-1.1,1-2,2.1-2l0.1,0c1.2,0.1,2.1,1.1,2,2.2c-0.1,1.1-1,2-2.1,2
					L371.3,1161.8z"/>
				<g>
					<path class="st60" d="M371.4,1157.8L371.4,1157.8c0,0,0.1,0,0.1,0c0.5,0,1,0.2,1.3,0.6c0.3,0.4,0.5,0.8,0.5,1.3
						c-0.1,1-0.9,1.8-1.9,1.8c0,0-0.1,0-0.1,0c-0.5,0-1-0.2-1.3-0.6s-0.5-0.8-0.5-1.3C369.6,1158.6,370.4,1157.8,371.4,1157.8
						 M371.4,1157.3c-1.2,0-2.3,1-2.4,2.2c-0.1,1.3,0.9,2.4,2.2,2.5c0,0,0.1,0,0.1,0c1.2,0,2.3-1,2.4-2.2c0.1-1.3-0.9-2.4-2.2-2.5
						C371.5,1157.3,371.4,1157.3,371.4,1157.3L371.4,1157.3z"/>
				</g>
			</g>
			<g>
				<path class="st61" d="M368.3,1175.1c-0.7,0-1.3-0.7-1.2-1.4c0-0.7,0.6-1.2,1.3-1.2c0.8,0,1.3,0.7,1.3,1.4
					C369.7,1174.5,369.1,1175.1,368.3,1175.1L368.3,1175.1z"/>
				<g>
					<path class="st62" d="M368.4,1172.7L368.4,1172.7c0.6,0,1.1,0.5,1.1,1.1c0,0.6-0.5,1-1.1,1l-0.1,0c-0.3,0-0.5-0.1-0.7-0.4
						c-0.2-0.2-0.3-0.5-0.3-0.8C367.4,1173.1,367.9,1172.7,368.4,1172.7 M368.4,1172.2c-0.8,0-1.5,0.6-1.6,1.5
						c0,0.9,0.6,1.6,1.5,1.6c0,0,0.1,0,0.1,0c0.8,0,1.5-0.6,1.6-1.5C370,1173,369.4,1172.2,368.4,1172.2
						C368.5,1172.2,368.4,1172.2,368.4,1172.2L368.4,1172.2z"/>
				</g>
			</g>
			<g>
				<path class="st61" d="M379.3,1187.3c-0.3,0-0.7-0.2-0.9-0.4c-0.2-0.3-0.3-0.6-0.3-0.9c0-0.7,0.6-1.2,1.3-1.2
					c0.4,0,0.7,0.2,1,0.4c0.2,0.3,0.3,0.6,0.3,0.9C380.6,1186.8,380,1187.3,379.3,1187.3L379.3,1187.3z"/>
				<g>
					<path class="st62" d="M379.3,1185L379.3,1185c0.6,0,1.1,0.5,1.1,1.1c0,0.6-0.5,1-1.1,1l-0.1,0c-0.6,0-1-0.5-1-1.1
						C378.3,1185.4,378.8,1185,379.3,1185 M379.3,1184.5c-0.8,0-1.5,0.6-1.6,1.5c0,0.9,0.6,1.6,1.5,1.6c0,0,0.1,0,0.1,0
						c0.8,0,1.5-0.6,1.6-1.5C380.9,1185.2,380.3,1184.5,379.3,1184.5C379.4,1184.5,379.4,1184.5,379.3,1184.5L379.3,1184.5z"/>
				</g>
			</g>
			<g>
				<path class="st61" d="M367.2,1197.9c-0.7,0-1.3-0.7-1.2-1.4c0-0.7,0.6-1.2,1.3-1.2c0.8,0,1.3,0.7,1.3,1.4
					C368.6,1197.3,368,1197.9,367.2,1197.9L367.2,1197.9z"/>
				<g>
					<path class="st62" d="M367.3,1195.5L367.3,1195.5L367.3,1195.5c0.6,0,1.1,0.5,1.1,1.1c0,0.6-0.5,1-1.1,1l-0.1,0
						c-0.6,0-1-0.5-1-1.1C366.3,1195.9,366.7,1195.5,367.3,1195.5 M367.3,1195c-0.8,0-1.5,0.6-1.6,1.5c0,0.9,0.6,1.6,1.5,1.6
						c0,0,0.1,0,0.1,0c0.8,0,1.5-0.6,1.6-1.5C368.9,1195.8,368.3,1195,367.3,1195C367.4,1195,367.3,1195,367.3,1195L367.3,1195z"/>
				</g>
			</g>
			<g>
				<path class="st61" d="M356.1,1186.7c-0.7,0-1.3-0.7-1.2-1.4c0-0.7,0.6-1.2,1.3-1.2c0.8,0,1.3,0.7,1.3,1.4
					C357.4,1186.1,356.9,1186.7,356.1,1186.7L356.1,1186.7z"/>
				<g>
					<path class="st62" d="M356.2,1184.3L356.2,1184.3c0.6,0,1.1,0.5,1.1,1.1c0,0.6-0.5,1-1.1,1l-0.1,0c-0.6,0-1-0.5-1-1.1
						C355.1,1184.7,355.6,1184.3,356.2,1184.3 M356.2,1183.8c-0.8,0-1.5,0.6-1.6,1.5c0,0.9,0.6,1.6,1.5,1.6c0,0,0.1,0,0.1,0
						c0.8,0,1.5-0.6,1.6-1.5C357.8,1184.6,357.1,1183.9,356.2,1183.8C356.2,1183.8,356.2,1183.8,356.2,1183.8L356.2,1183.8z"/>
				</g>
			</g>
			<g>
				<path class="st59" d="M385.2,1168c-1.2-0.1-2.1-1.1-2-2.2c0.1-1.1,1-2,2.1-2l0.1,0c1.2,0.1,2.1,1.1,2,2.2c-0.1,1.1-1,2-2.1,2
					L385.2,1168z"/>
				<g>
					<path class="st60" d="M385.4,1164.1L385.4,1164.1c0,0,0.1,0,0.1,0c0.5,0,1,0.2,1.3,0.6s0.5,0.8,0.5,1.3c-0.1,1-0.9,1.8-1.9,1.8
						c0,0-0.1,0-0.1,0c-1-0.1-1.8-0.9-1.7-2C383.6,1164.9,384.4,1164.1,385.4,1164.1 M385.4,1163.6c-1.2,0-2.3,1-2.4,2.2
						c-0.1,1.3,0.9,2.4,2.2,2.5c0,0,0.1,0,0.1,0c1.2,0,2.3-1,2.4-2.2c0.1-1.3-0.9-2.4-2.2-2.5
						C385.5,1163.6,385.4,1163.6,385.4,1163.6L385.4,1163.6z"/>
				</g>
			</g>
			<g>
				<path class="st59" d="M392.3,1178.1c-0.6,0-1.1-0.3-1.5-0.7c-0.4-0.4-0.6-1-0.5-1.5c0.1-1.1,1-2,2.1-2l0.1,0
					c0.6,0,1.1,0.3,1.5,0.7s0.6,1,0.5,1.5c-0.1,1.1-1,2-2.1,2L392.3,1178.1z"/>
				<g>
					<path class="st60" d="M392.4,1174.2L392.4,1174.2c0,0,0.1,0,0.1,0c0.5,0,1,0.2,1.3,0.6c0.3,0.4,0.5,0.8,0.5,1.3
						c-0.1,1-0.9,1.8-1.9,1.8c0,0-0.1,0-0.1,0c-1-0.1-1.8-0.9-1.7-2C390.6,1174.9,391.4,1174.2,392.4,1174.2 M392.4,1173.7
						c-1.2,0-2.3,1-2.4,2.2c-0.1,1.3,0.9,2.4,2.2,2.5c0,0,0.1,0,0.1,0c1.2,0,2.3-1,2.4-2.2c0.1-1.3-0.9-2.4-2.2-2.5
						C392.5,1173.7,392.4,1173.7,392.4,1173.7L392.4,1173.7z"/>
				</g>
			</g>
			<g>
				<path class="st59" d="M393.5,1190.9c-1.2-0.1-2.1-1.1-2-2.2c0.1-1.1,1-2,2.1-2l0.1,0c1.2,0.1,2.1,1.1,2,2.2c-0.1,1.1-1,2-2.1,2
					L393.5,1190.9z"/>
				<g>
					<path class="st60" d="M393.6,1187L393.6,1187c0,0,0.1,0,0.1,0c1,0.1,1.8,0.9,1.7,2c-0.1,1-0.9,1.8-1.9,1.8c0,0-0.1,0-0.1,0
						c-0.5,0-1-0.2-1.3-0.6s-0.5-0.8-0.5-1.3C391.9,1187.7,392.7,1187,393.6,1187 M393.6,1186.5c-1.2,0-2.3,1-2.4,2.2
						c-0.1,1.3,0.9,2.4,2.2,2.5c0,0,0.1,0,0.1,0c1.2,0,2.3-1,2.4-2.2c0.1-1.3-0.9-2.4-2.2-2.5
						C393.7,1186.5,393.7,1186.5,393.6,1186.5L393.6,1186.5z"/>
				</g>
			</g>
			<g>
				<path class="st59" d="M389.2,1202.5c-1.2-0.1-2.1-1.1-2-2.2c0.1-1.1,1-2,2.1-2l0.1,0c1.2,0.1,2.1,1.1,2,2.2c-0.1,1.1-1,2-2.1,2
					L389.2,1202.5z"/>
				<g>
					<path class="st60" d="M389.3,1198.6L389.3,1198.6c0,0,0.1,0,0.1,0c0.5,0,1,0.2,1.3,0.6s0.5,0.8,0.5,1.3c-0.1,1-0.9,1.8-1.9,1.8
						c0,0-0.1,0-0.1,0c-0.5,0-1-0.2-1.3-0.6c-0.3-0.4-0.5-0.8-0.5-1.3C387.5,1199.3,388.3,1198.6,389.3,1198.6 M389.3,1198.1
						c-1.2,0-2.3,1-2.4,2.2c-0.1,1.3,0.9,2.4,2.2,2.5c0,0,0.1,0,0.1,0c1.2,0,2.3-1,2.4-2.2c0.1-1.3-0.9-2.4-2.2-2.5
						C389.4,1198.1,389.3,1198.1,389.3,1198.1L389.3,1198.1z"/>
				</g>
			</g>
			<g>
				<path class="st59" d="M379.1,1211.1c-0.6,0-1.1-0.3-1.5-0.7c-0.4-0.4-0.6-1-0.5-1.5c0.1-1.1,1-2,2.1-2l0.1,0
					c1.2,0.1,2.1,1.1,2,2.2c-0.1,1.1-1,2-2.1,2L379.1,1211.1z"/>
				<g>
					<path class="st60" d="M379.2,1207.1L379.2,1207.1c0,0,0.1,0,0.1,0c1,0.1,1.8,0.9,1.7,2c-0.1,1-0.9,1.8-1.9,1.8c0,0-0.1,0-0.1,0
						c-1-0.1-1.8-0.9-1.7-2C377.4,1207.9,378.2,1207.1,379.2,1207.1 M379.2,1206.6c-1.2,0-2.3,1-2.4,2.2c-0.1,1.3,0.9,2.4,2.2,2.5
						c0,0,0.1,0,0.1,0c1.2,0,2.3-1,2.4-2.2c0.1-1.3-0.9-2.4-2.2-2.5C379.3,1206.6,379.3,1206.6,379.2,1206.6L379.2,1206.6z"/>
				</g>
			</g>
			<g>
				<path class="st59" d="M366.4,1214.3c-0.6,0-1.1-0.3-1.5-0.7c-0.4-0.4-0.6-1-0.5-1.5c0.1-1.1,1-2,2.1-2l0.1,0
					c0.6,0,1.1,0.3,1.5,0.7c0.4,0.4,0.6,1,0.5,1.5c-0.1,1.1-1,2-2.1,2L366.4,1214.3z"/>
				<g>
					<path class="st60" d="M366.5,1210.4L366.5,1210.4c0,0,0.1,0,0.1,0c1,0.1,1.8,0.9,1.7,2c-0.1,1-0.9,1.8-1.9,1.8c0,0-0.1,0-0.1,0
						c-1-0.1-1.8-0.9-1.7-2C364.7,1211.1,365.5,1210.4,366.5,1210.4 M366.5,1209.9c-1.2,0-2.3,1-2.4,2.2c-0.1,1.3,0.9,2.4,2.2,2.5
						c0,0,0.1,0,0.1,0c1.2,0,2.3-1,2.4-2.2c0.1-1.3-0.9-2.4-2.2-2.5C366.6,1209.9,366.5,1209.9,366.5,1209.9L366.5,1209.9z"/>
				</g>
			</g>
			<g>
				<path class="st59" d="M355.1,1211.1c-1.2-0.1-2.1-1.1-2-2.2c0.1-1.1,1-2,2.1-2l0.1,0c0.6,0,1.1,0.3,1.5,0.7
					c0.4,0.4,0.6,1,0.5,1.5c-0.1,1.1-1,2-2.1,2L355.1,1211.1z"/>
				<g>
					<path class="st60" d="M355.2,1207.2L355.2,1207.2c0,0,0.1,0,0.1,0c0.5,0,1,0.2,1.3,0.6c0.3,0.4,0.5,0.8,0.5,1.3
						c-0.1,1-0.9,1.8-1.9,1.8c0,0-0.1,0-0.1,0c-0.5,0-1-0.2-1.3-0.6c-0.3-0.4-0.5-0.8-0.5-1.3
						C353.4,1207.9,354.2,1207.2,355.2,1207.2 M355.2,1206.7c-1.2,0-2.3,1-2.4,2.2c-0.1,1.3,0.9,2.4,2.2,2.5c0,0,0.1,0,0.1,0
						c1.2,0,2.3-1,2.4-2.2c0.1-1.3-0.9-2.4-2.2-2.5C355.3,1206.7,355.2,1206.7,355.2,1206.7L355.2,1206.7z"/>
				</g>
			</g>
			<g>
				<path class="st59" d="M346.1,1202.7c-1.2-0.1-2.1-1.1-2-2.2c0.1-1.1,1-2,2.1-2l0.1,0c1.2,0.1,2.1,1.1,2,2.2c-0.1,1.1-1,2-2.1,2
					L346.1,1202.7z"/>
				<g>
					<path class="st60" d="M346.2,1198.8L346.2,1198.8c0,0,0.1,0,0.1,0c0.5,0,1,0.2,1.3,0.6c0.3,0.4,0.5,0.8,0.5,1.3
						c-0.1,1-0.9,1.8-1.9,1.8c0,0-0.1,0-0.1,0c-1-0.1-1.8-0.9-1.7-2C344.4,1199.5,345.2,1198.8,346.2,1198.8 M346.2,1198.3
						c-1.2,0-2.3,1-2.4,2.2c-0.1,1.3,0.9,2.4,2.2,2.5c0,0,0.1,0,0.1,0c1.2,0,2.3-1,2.4-2.2c0.1-1.3-0.9-2.4-2.2-2.5
						C346.3,1198.3,346.2,1198.3,346.2,1198.3L346.2,1198.3z"/>
				</g>
			</g>
			<g>
				<path class="st59" d="M341.4,1191.7c-0.6,0-1.1-0.3-1.5-0.7c-0.4-0.4-0.6-1-0.5-1.5c0.1-1.1,1-2,2.1-2l0.1,0
					c1.2,0.1,2.1,1.1,2,2.2c-0.1,1.1-1,2-2.1,2L341.4,1191.7z"/>
				<g>
					<path class="st60" d="M341.5,1187.7L341.5,1187.7c0,0,0.1,0,0.1,0c0.5,0,1,0.2,1.3,0.6s0.5,0.8,0.5,1.3c-0.1,1-0.9,1.8-1.9,1.8
						c0,0-0.1,0-0.1,0c-0.5,0-1-0.2-1.3-0.6c-0.3-0.4-0.5-0.8-0.5-1.3C339.7,1188.5,340.5,1187.7,341.5,1187.7 M341.5,1187.2
						c-1.2,0-2.3,1-2.4,2.2c-0.1,1.3,0.9,2.4,2.2,2.5c0,0,0.1,0,0.1,0c1.2,0,2.3-1,2.4-2.2c0.1-1.3-0.9-2.4-2.2-2.5
						C341.6,1187.2,341.5,1187.2,341.5,1187.2L341.5,1187.2z"/>
				</g>
			</g>
			<g>
				<path class="st59" d="M341.7,1180.9c-1.2-0.1-2.1-1.1-2-2.2c0.1-1.1,1-2,2.1-2l0.1,0c1.2,0.1,2.1,1.1,2,2.2c-0.1,1.1-1,2-2.1,2
					L341.7,1180.9z"/>
				<g>
					<path class="st60" d="M341.8,1176.9L341.8,1176.9c0,0,0.1,0,0.1,0c0.5,0,1,0.2,1.3,0.6s0.5,0.8,0.5,1.3c-0.1,1-0.9,1.8-1.9,1.8
						c0,0-0.1,0-0.1,0c-1-0.1-1.8-0.9-1.7-2C340,1177.7,340.9,1176.9,341.8,1176.9 M341.8,1176.4c-1.2,0-2.3,1-2.4,2.2
						c-0.1,1.3,0.9,2.4,2.2,2.5c0,0,0.1,0,0.1,0c1.2,0,2.3-1,2.4-2.2c0.1-1.3-0.9-2.4-2.2-2.5
						C341.9,1176.4,341.9,1176.4,341.8,1176.4L341.8,1176.4z"/>
				</g>
			</g>
			<g>
				<path class="st59" d="M346.7,1170.7c-0.6,0-1.1-0.3-1.5-0.7c-0.4-0.4-0.6-1-0.5-1.5c0.1-1.1,1-2,2.1-2l0.1,0
					c1.2,0.1,2.1,1.1,2,2.2c-0.1,1.1-1,2-2.1,2L346.7,1170.7z"/>
				<g>
					<path class="st60" d="M346.8,1166.8L346.8,1166.8c0,0,0.1,0,0.1,0c0.5,0,1,0.2,1.3,0.6s0.5,0.8,0.5,1.3c-0.1,1-0.9,1.8-1.9,1.8
						c0,0-0.1,0-0.1,0c-0.5,0-1-0.2-1.3-0.6s-0.5-0.8-0.5-1.3C345,1167.6,345.9,1166.8,346.8,1166.8 M346.8,1166.3
						c-1.2,0-2.3,1-2.4,2.2c-0.1,1.3,0.9,2.4,2.2,2.5c0,0,0.1,0,0.1,0c1.2,0,2.3-1,2.4-2.2c0.1-1.3-0.9-2.4-2.2-2.5
						C346.9,1166.3,346.9,1166.3,346.8,1166.3L346.8,1166.3z"/>
				</g>
			</g>
		</g>
		<path class="st63" d="M412.9,1211.4c0,0,20-52.5-29.1-74.6c0,0-28.4-7.9-46.7,7.6c-18.3,15.6-21,38-19.7,57.7
			c0,0-4.7-6.3-3.8-22.4c0.9-16.1,13-51.3,56.9-50.7c0,0,50.2,1.6,50.7,56.9C421.1,1185.9,420.9,1200.1,412.9,1211.4z"/>
		<path class="st68" d="M536.6,1029.5c0,0,21.8,49.8,26.6,115.1"/>
		<g>
			<path class="st70" d="M221.2,1203.4c-33,0-34.7-43.5-34.8-47.2l9.6-6.8l-0.6-17.5l0-1.9c1.2,0,4.3,0.1,8.4,0.1
				c8.2,0,19.9-0.2,28.8-0.9c5.3-0.4,9.1-2.1,11.4-5c1.8-2.3,2.2-4.9,2.2-6.4l3.8,4.2c4.9,8.1,15.9,10.5,16.4,10.6l50.3,4.9
				c-22,24.1-12.5,55.9-10.8,60.7c-5.9,0.6-51,4.8-84.2,5.3L221.2,1203.4z"/>
			<g>
				<path class="st65" d="M246.7,1118.9l2.9,3.3c5.1,8.3,16.3,10.7,16.7,10.8l0.1,0l0.1,0l49.3,4.8c-11.8,13.4-14.1,28.9-13.8,39.8
					c0.2,9.7,2.4,17.2,3.3,20.1c-7.9,0.8-51.4,4.8-83.5,5.2c-0.2,0-0.4,0-0.5,0c-14.1,0-24.2-7.8-29.9-23.3
					c-3.8-10.3-4.3-20.8-4.4-23.2l9.2-6.5l0.4-0.3l0-0.5l-0.6-17.2l0-1.4c1.4,0,4.3,0,7.9,0c8.2,0,19.9-0.2,28.8-0.9
					c5.4-0.4,9.4-2.2,11.8-5.2C245.9,1122.5,246.5,1120.5,246.7,1118.9 M245.7,1116.3c0,0,1.8,11.1-13.2,12.3
					c-9,0.7-20.8,0.9-28.7,0.9c-5.3,0-8.9-0.1-8.9-0.1l0,2.4l0.6,17.3l-9.6,6.8c0,0,0.1,48,35.3,48c0.2,0,0.4,0,0.6,0
					c35.8-0.5,84.9-5.4,84.9-5.4s-13.6-35.4,11.2-61.5l-51.3-5c0,0-11.2-2.3-16.1-10.4L245.7,1116.3L245.7,1116.3z"/>
			</g>
		</g>
		<path class="st11" d="M243.5,1151.2c0,0,28.6-1.1,30.5-17.4l43,4.2c0,0-17.9,16.7-13.6,44.2l-101.5,15.6c0,0-14.7-10.9-16-41.9
			l9.6-6.8C195.5,1149.1,213.8,1156.3,243.5,1151.2z"/>
		<path class="st65" d="M306.6,1198.5l-3.3-16.3l-101.5,15.6c0,0,8,6.4,19.9,6.1S306.6,1198.5,306.6,1198.5z"/>
		<path class="st10" d="M616.2,950.7c0,0,29,3.6,65.6,15.7c36.6,12.1,58.7,21.8,58.7,21.8s3.4,2.5,9.6,1.1s15.3-3.7,15.3-3.7
			s-73.9-35.9-134.9-43.7c0,0-2.6-0.9-5.4,0.8C622.4,944.4,616.2,950.7,616.2,950.7z"/>
		<path d="M723.1,991.7c0,0,20.4,8.3,9.9,12.9l-16.3,4.7c0,0-7.3,0.7-15.1,1.2c-7.8,0.5-319.9,38-319.9,38s-17.6,1.8-29.3-4.1
			s-12.7-8.1-4.9-15c7.8-6.9,36.6-28.4,36.6-28.4s21.7-15.6,48.4-22.5c26.7-6.9,58-15.6,119.5-20.5S678.1,970.3,723.1,991.7z"/>
		<path class="st75" d="M521.8,964.7l23.8,60.6l132.7-15.3l-3.5-29.6c0,0,0.7-3-6.7-4.8C660.7,973.7,595.1,951.4,521.8,964.7z"/>
		<path class="st75" d="M506.3,967.4c0,0,9,37.7,18.5,59.7l-127,15.8l-6.5-22c0,0-1-20.4,18.6-29.7
			C433.7,979.9,506.3,967.4,506.3,967.4z"/>
		<path class="st76" d="M513.7,965.3c0,0,11.9,39.7,22.1,60.8"/>
		<path class="st77" d="M669.5,987.8l-0.9,15c0,0,2.2,6.1,13.1,5.4c10.9-0.8,23.2-5.6,23.2-5.6s6.1-4.7-0.4-8.8s-11.8-8.1-25.4-9.1
			C670.9,983.9,669.5,987.8,669.5,987.8z"/>
		<path class="st78" d="M521.8,964.7l23.8,60.6c0,0,48-50.5,129.3-40.6l-0.1-4.3c0,0,0.7-2.6-6.7-4.8
			C660.8,973.3,589,951.4,521.8,964.7z"/>
		<path class="st9" d="M616.2,950.7c0,0,82.2,7.1,149.2,34.9c0,0-70.2-35-134.9-43.7c0,0-3.2-1.1-6.8,2
			C620.3,947,616.2,950.7,616.2,950.7z"/>
		<path class="st79" d="M345.5,990.5l18.6,1.9c0,0-50.6,33.6-89.2,59.1l-22.5,0.5C252.4,1052,300.3,1015.3,345.5,990.5z"/>
		<path class="st28" d="M187.9,1088.9l26.7,1.2c0,0,7.1-1.1,16.1,8.7c9,9.7,14.1,16.1,14.1,16.1s4.7,9.5-5,12.9
			c-9.7,3.4-45.7,3.5-45.7,3.5S188.6,1129.2,187.9,1088.9z"/>
		<path class="st67" d="M193.4,1105.3c0,0,36.6,0.5,40.6-3.1c0,0-8.1-12-19.5-12.7c-11.4-0.7-26.8-1.2-26.8-1.2l1,16.4
			C188.7,1104.8,190.5,1105.1,193.4,1105.3z"/>
		<path class="st67" d="M243.2,1112.9c0,0-7.7,13.8-53,7.2c0,0,1.4,9.8,3.8,11.3c0,0,33.2,0.7,44.7-2.6
			C238.8,1128.7,252.7,1123.8,243.2,1112.9z"/>
		<path class="st80" d="M252.4,1052c0,0,59.2-43.1,87.2-43.5l26.9-15.8l-21-2.3C345.5,990.5,305.4,1011.1,252.4,1052z"/>
		<path class="st78" d="M509.2,978.9c0,0-92.4,16.4-94.2,62l-17.1,1.9l-6.5-22c0,0-5.1-18.2,18.1-29.8
			c25.6-12.8,96.9-23.6,96.9-23.6L509.2,978.9z"/>
		<g>
			<path class="st71" d="M723.8,1022.9c0,0,80.8-13,141-13.1l22.2,16.7l15.1,5l-27.7,4.2c0,0-5.9-11.4-29.5-11.8s-53.1,5-92,22.5
				c0,0-7.6,2.6-8.4,27s-2.3,42.8-2.3,42.8l-2.2,0.1C740,1116.2,740.8,1062.1,723.8,1022.9z"/>
		</g>
		<path class="st81" d="M749.5,1025.9l-9.2,1.7c0,0-1.1,0.5-0.8,4.1s0.7,4.2,4.8,3.4c4.1-0.8,8-1.7,8-1.7s3,0.5,1.2-5.7
			C753.5,1027.8,754.1,1024.1,749.5,1025.9z"/>
		<path class="st82" d="M274.9,1051.5c0,0-22.6,14.1-81,30.5l0.2,6.4"/>
		<path class="st82" d="M371.8,1047.7c0,0,0.3,5.4-2.6,8.8c0,0-1.8,3.2-1.3,6.5c0.5,3.3,0.4,7.8,0.8,9.5l37.9,42.1"/>
		<path class="st68" d="M716.7,1009.3c0,0,6.3,9.8,7.2,13.5s10.6,20,13.9,51.7c3.3,31.7,4.5,41.4,4.5,41.4"/>
		<path class="st82" d="M942.8,1022.7c0,0-1.4,6.4-20.9,7.2s-64.7,8.8-82.3,13"/>
	</g>
</g>
<g id="seventeen_00000052799129178776355750000005236059528330747796_">
</g>
<g id="eighteen_00000054256262866476431880000018286803152678894488_">
</g>
<g id="nineteen_00000107558268356232088990000008456042227242415802_">
</g>
<g id="twenty">
</g>
</svg>
