<?xml version="1.0" encoding="utf-8"?>
<!-- Generator: Adobe Illustrator 27.2.0, SVG Export Plug-In . SVG Version: 6.00 Build 0)  -->
<svg version="1.1" xmlns="http://www.w3.org/2000/svg" xmlns:xlink="http://www.w3.org/1999/xlink" x="0px" y="0px"
	 viewBox="0 0 2250.5 1926.5" style="enable-background:new 0 0 2250.5 1926.5;" xml:space="preserve">
<style type="text/css">
	.st0{fill:#E8E6E6;stroke:#ADADAD;stroke-miterlimit:10;}
	.st1{fill:#F3F2F7;}
	.st2{fill:#030303;}
	.st3{fill:#353131;}
	.st4{fill:none;stroke:#ADADAD;stroke-width:2;stroke-miterlimit:10;}
	.st5{fill:none;stroke:#F3F2F7;stroke-width:2;stroke-miterlimit:10;}
	.st6{fill:#0A1205;}
	.st7{fill:#F3F2F7;stroke:#ADADAD;stroke-width:0.75;stroke-miterlimit:10;}
	.st8{fill:#ADADAD;}
	.st9{fill:#282828;}
	.st10{fill:#3A3A3A;}
	.st11{fill:#0A54A2;}
	.st12{fill:none;stroke:#E8E6E6;stroke-width:0.9742;stroke-miterlimit:10;}
	.st13{fill:#2E2E2E;}
	.st14{fill:#333333;}
	.st15{fill:#939393;stroke:#ADADAD;stroke-miterlimit:10;}
	.st16{fill:#D1D1D1;}
	.st17{fill:#191919;}
	.st18{fill:#666666;stroke:#ADADAD;stroke-miterlimit:10;}
	.st19{fill:#363636;}
	.st20{fill:none;stroke:#ADADAD;stroke-miterlimit:10;}
	.st21{fill:#121212;}
	.st22{fill:#0E0A12;}
	.st23{fill:#6E6E6E;}
	.st24{fill:#4E4E4E;}
	.st25{fill:#1E1E1E;}
	.st26{fill:#646464;}
	.st27{fill:#999999;}
	.st28{fill:#9E9E9E;}
	.st29{fill:#6D6D6D;}
	.st30{fill:#B5B5B5;}
	.st31{fill:#3E3E3E;}
	.st32{fill:#0D0F0C;}
	.st33{fill:none;stroke:#0E0A12;stroke-width:0.8371;stroke-miterlimit:10;}
	.st34{fill:#7D7D7D;}
	.st35{fill:#424242;}
	.st36{fill:#8A8A8A;}
	.st37{fill:#BCBCBC;stroke:#ADADAD;stroke-miterlimit:10;}
	.st38{fill:#8A8A8A;stroke:#6B6B6B;stroke-width:0.9619;stroke-miterlimit:10;}
	.st39{fill:none;stroke:#6B6B6B;stroke-width:0.7215;stroke-miterlimit:10;}
	.st40{fill:none;stroke:#A9A9AA;stroke-width:0.75;stroke-miterlimit:10;}
	.st41{fill:#484D4E;}
	.st42{fill:none;stroke:#111111;stroke-width:3;stroke-miterlimit:10;}
	.st43{fill:#282828;stroke:#0A0A0A;stroke-miterlimit:10;}
	.st44{fill:#F0221F;stroke:#BB1719;stroke-miterlimit:10;}
	.st45{fill:#BB1719;}
	.st46{fill:#FC7C88;stroke:#BB1719;stroke-miterlimit:10;}
	.st47{fill:none;stroke:#BB1719;stroke-width:3;stroke-miterlimit:10;}
	.st48{fill:#FC7C88;}
	.st49{fill:#FC7C88;stroke:#BB1719;stroke-width:3;stroke-miterlimit:10;}
	.st50{fill:#F0221F;}
	.st51{fill:#E8E6E6;stroke:#ADADAD;stroke-width:2;stroke-miterlimit:10;}
	.st52{opacity:0.59;fill:#F3F2F7;}
	.st53{fill:#080806;}
	.st54{fill:#9B9B9B;}
	.st55{fill:#2B2B2B;}
	.st56{fill:#C1BFBF;}
	.st57{fill:#D6D6D6;}
	.st58{fill:#4C4B4B;stroke:#A5A5A5;stroke-miterlimit:10;}
	.st59{fill:#444343;}
	.st60{fill:#727272;}
	.st61{fill:#A0A0A0;}
	.st62{fill:#999898;}
	.st63{fill:#444242;}
	.st64{fill:#157FCE;}
	.st65{fill:#134468;}
	.st66{fill:#092947;}
	.st67{fill:#D5D3D7;}
	.st68{fill:none;stroke:#134468;stroke-miterlimit:10;}
	.st69{fill:none;stroke:#0F63AD;stroke-miterlimit:10;}
	.st70{fill:#1672B7;}
	.st71{fill:#2066A0;}
	.st72{fill:#1B8ACE;}
	.st73{fill:none;stroke:#157FCE;stroke-miterlimit:10;}
	.st74{fill:none;stroke:#0A54A2;stroke-miterlimit:10;}
	.st75{fill:#3F3F3F;}
	.st76{fill:none;stroke:#282828;stroke-width:2;stroke-miterlimit:10;}
	.st77{fill:#7F7F7F;}
	.st78{fill:#2D2D2D;}
	.st79{fill:#4C4C4C;}
	.st80{fill:#383838;}
	.st81{fill:#9E9E9E;stroke:#0A55A3;stroke-miterlimit:10;}
	.st82{fill:none;stroke:#134468;stroke-width:0.75;stroke-miterlimit:10;}
	.st83{display:none;fill:#24242A;}
	.st84{display:none;fill:none;stroke:#848484;stroke-miterlimit:10;}
	.st85{display:none;fill:#30292D;}
	.st86{fill:#E8E6E6;}
	.st87{fill:#8C8C8C;}
	.st88{fill:#FCFCFC;stroke:#8C8C8C;stroke-miterlimit:10;}
	.st89{fill:#E8E6E6;stroke:#8C8C8C;stroke-miterlimit:10;}
	.st90{fill:#E8E6E6;stroke:#8C8C8C;stroke-width:2;stroke-miterlimit:10;}
	.st91{fill:none;stroke:#8C8C8C;stroke-width:2;stroke-miterlimit:10;}
	.st92{fill:none;stroke:#FCFCFC;stroke-width:3;stroke-miterlimit:10;}
	.st93{fill:#FCFCFC;}
	.st94{fill:#ADADAD;stroke:#8C8C8C;stroke-miterlimit:10;}
	.st95{fill:#FAFAFC;stroke:#ADADAD;stroke-width:0.75;stroke-miterlimit:10;}
	.st96{fill:none;stroke:#111111;stroke-width:3.6024;stroke-miterlimit:10;}
	.st97{fill:none;stroke:#111111;stroke-width:3.6093;stroke-miterlimit:10;}
	.st98{fill:none;stroke:#111111;stroke-width:3.5727;stroke-miterlimit:10;}
	.st99{fill:none;stroke:#111111;stroke-width:3.5263;stroke-miterlimit:10;}
	.st100{fill:none;stroke:#111111;stroke-width:3.4845;stroke-miterlimit:10;}
	.st101{fill:none;stroke:#111111;stroke-width:3.4337;stroke-miterlimit:10;}
	.st102{fill:none;stroke:#111111;stroke-width:3.3788;stroke-miterlimit:10;}
	.st103{fill:none;stroke:#111111;stroke-width:3.3233;stroke-miterlimit:10;}
	.st104{fill:none;stroke:#111111;stroke-width:3.2747;stroke-miterlimit:10;}
	.st105{fill:none;stroke:#111111;stroke-width:3.207;stroke-miterlimit:10;}
	.st106{fill:none;stroke:#111111;stroke-width:3.1652;stroke-miterlimit:10;}
	.st107{fill:none;stroke:#111111;stroke-width:3.099;stroke-miterlimit:10;}
	.st108{fill:none;stroke:#111111;stroke-width:3.0584;stroke-miterlimit:10;}
	.st109{fill:none;stroke:#111111;stroke-width:3.0299;stroke-miterlimit:10;}
</style>
<g id="original">
</g>
<g id="one">
</g>
<g id="two_00000026882943921159275490000004360688784792002186_">
</g>
<g id="three_00000113338737259881679640000015971704404683786636_">
</g>
<g id="four_00000049184186550712051260000002601905804867817144_">
</g>
<g id="five_00000179643197332058435300000007386453149388464260_">
</g>
<g id="six">
</g>
<g id="seven_00000062194613864970919320000012156796603096136882_">
</g>
<g id="eight">
</g>
<g id="nine">
</g>
<g id="ten_00000098906372602984753350000010503549982832515468_">
</g>
<g id="eleven_00000180345820641820120410000009044592103142380464_">
</g>
<g id="twelve">
	<g>
		<path class="st86" d="M1971.8,828.7c-0.9-1.5-5.8-8.5-17.3-9.1c-12.1-0.7-193.8-3.9-204.5-4.1c0-2.4,0.1-13.1,5.3-18.6
			c2.1-2.2,4.8-3.3,8-3.3c14.8,0,186.9,6.1,188.6,6.1c0.3,0,31.7,2.1,37.6,28.6L1971.8,828.7z"/>
		<path class="st87" d="M1763.3,794c14.8,0,186.9,6.1,188.6,6.1c0.1,0,8.1,0.5,16.7,4.3c11,4.9,17.8,12.7,20.3,23.3l-16.8,0.4
			c-1.3-2-6.3-8.5-17.5-9.1c-11.9-0.7-189.3-3.8-204.1-4.1c0-3,0.4-12.7,5.2-17.8C1757.7,795.1,1760.2,794,1763.3,794 M1763.3,793
			c-15,0-13.9,23-13.9,23s192.5,3.4,205,4.1c12.5,0.7,17,9.1,17,9.1l18.6-0.5c-5.7-27.7-38.2-29.5-38.2-29.5S1778.3,793,1763.3,793
			L1763.3,793z"/>
	</g>
	<path class="st88" d="M1954.3,806.6l-141.9-6.1l21.4,8l117.6,4.2c0,0,16.5-0.2,25.8,15.2h5.2C1982.4,828,1977.2,807.8,1954.3,806.6
		z"/>
	<path class="st89" d="M1749.5,816l-0.5,12l201,1.9c0,0,11,0,13.4,13.4c2.4,13.4,21.5,113,21.5,113l0.8,128.3l32.7-0.8
		c0,0,9.4,1.1,9.4-8.3c0-9.4,0-44.6,0-44.6s0.5-5.9-5.4-8.1v-45.6h-16c0,0-10.2,0.8-11.3-15.9c-1.2-16.8-22-124.3-22-124.3
		s-1.5-2.4-1.7-7.8c0,0-5.8-8.8-17-9.1C1943.2,819.7,1749.5,816,1749.5,816z"/>
	<path class="st2" d="M1990.1,828.7l25.2,136.1l-22.6-21.3L1973.2,837c0,0-1.8-3.5-1.7-7.8L1990.1,828.7z"/>
	<path class="st2" d="M2018.1,951.3c0,0,5.4,9.2,3.2,17.8h-3l0.8,7.9l-12.5,0.2c0,0-10.3,0.4-11.3-15.9l-2.4-17.8l22.6,21.3
		c0,0,5.4-5.7-0.4-13.3c0,0-2.1-1.9-4.6,0.3c-2.5,2.2-3.9-1.7,0-3.6S2018.1,951.3,2018.1,951.3z"/>
	<polygon class="st3" points="1977.4,829.2 2005.3,913.3 1990.1,828.7 	"/>
	<path class="st90" d="M1749,828c0,0-5.4,110.4-4.1,200.8l240.1-0.9l-0.1-71.6l-21.5-113c0,0-1.7-13.4-13.4-13.4
		C1938.3,829.9,1749,828,1749,828z"/>
	<path class="st91" d="M1766.6,898.5l-0.3-47.2c0,0-0.6-8.8,12.4-9.1c13-0.3,24.8,0,24.8,0s9.1-2.1,9.1,11.8s-0.3,45.7-0.3,45.7"/>
	<path class="st92" d="M1765.7,909.4l-0.3,31.6c0,0-1.5,7.4,7.4,7.4c8.8,0,33.9,0,33.9,0s5,2.7,5-6.2s0-26,0-26"/>
	<path class="st91" d="M1764.8,979l0.3,33.6c0,0-0.9,5.3,5.3,5.3c6.2,0,39.5-0.3,39.5-0.3s4.7,1.8,4.4-6.2c-0.3-8-0.6-33-0.6-33
		s0.6-6.2-6.2-6.2c-6.8,0-38.3,0.6-38.3,0.6S1764.8,972.3,1764.8,979z"/>
	<line class="st91" x1="1826.7" y1="828.6" x2="1826.7" y2="1028"/>
	<polygon class="st6" points="1833.2,976.7 1833.5,995 1853.5,994.7 1853.5,976.7 	"/>
	<path class="st93" d="M1834.1,1001.4c0,0-1.2,10,14.2,9.7c15.3-0.3,115.3,0,115.3,0l-48.4-5.9h-66.9c0,0,0.3-3.8-4.1-4.1
		C1839.7,1000.9,1834.1,1001.4,1834.1,1001.4z"/>
	<path class="st87" d="M1837,842.2l4.7,67.2l-0.3-62.8c0,0-2.1-6.8,13.6-6.5c15.6,0.3,89.9,0.6,89.9,0.6s7.1-1.8,9.4,17.1
		c2.4,18.9,4.7,36.9,4.7,36.9l-2.1-45.7c0,0,0.7-11.8-13.6-11.6c-14.3,0.2-97.4-0.8-97.4-0.8S1838,836.3,1837,842.2z"/>
	<path class="st93" d="M1962,912.4l7.6,32.9c0,0,2.6,12.9-9.2,13.4c-11.8,0.5-111.3-5.3-111.3-5.3s-9.5-2.6-10-11.3
		s-0.3-27.4-0.3-27.4l2.6,25.5c0,0,0.3,8.4,7.9,9.5s109.2,6.1,109.2,6.1s11.1,2.9,7.4-19.2S1962,912.4,1962,912.4z"/>
	<path class="st9" d="M1841.7,914.8l-0.3,25.5c0,0,0.1,8.6,7.9,9.5c7.8,0.8,109.2,6.1,109.2,6.1s10.8,2.4,7.4-19.2
		s-12.8-85.5-12.8-85.5s-1.2-10-8.1-10.4c-6.9-0.3-95.2-1-95.2-1s-8.7-1.3-8.7,5.9C1841,852.9,1841.7,914.8,1841.7,914.8z"/>
	<polygon class="st2" points="1933,831 1933,837.9 1950.2,838.4 1949.9,831 	"/>
	<path class="st10" d="M1841.3,864.2c0,0,96.3,16.1,107.9,91.5l9.3,0.1c0,0,10.8,1.4,7.4-19.2c-3.5-20.6-12.8-85.5-12.8-85.5
		s-1.4-10.2-8.1-10.4s-95.2-1-95.2-1s-8.6-0.9-8.7,5.9C1841,852.5,1841.3,864.2,1841.3,864.2z"/>
	<polygon class="st2" points="1939.7,837.2 1939.8,848.3 1943.3,848.2 1943.5,837.4 	"/>
	<path class="st2" d="M1935.5,848.4l0.7,93.5h7.2c0,0,6.1-6.3,6.1-15.6l-0.2-66c0,0-1.4-10.9-5.9-12.1L1935.5,848.4z"/>
	<polygon class="st2" points="1939.3,970.7 1939.3,941.5 1943.5,941.8 1943.5,970.1 	"/>
	<polygon class="st2" points="1946.9,969.8 1950.6,969.9 1950.6,976.3 1931.8,976.3 1931.8,969.9 	"/>
	<path class="st11" d="M1818.6,772.1l17.4,0.2v18.3c0,0-4.6,1.4-19.2,0v-18.5L1818.6,772.1z"/>
	<path class="st87" d="M1838.9,789.9l0.1,6l-24.3-0.5v-5.9C1814.8,789.5,1823.8,792.4,1838.9,789.9z"/>
	<path class="st0" d="M1744.9,1028.8l0.4,26.2H1851c0,0,49,1.9,59.1,28.8l75.7,0.9l-0.7-56.7L1744.9,1028.8z"/>
	<path class="st89" d="M1744.9,1028.8l0.4,26.2H1851c0,0,49,1.9,59.1,28.8l75.7,0.9l-0.7-56.7L1744.9,1028.8z"/>
	<polygon class="st6" points="1982.4,1048.4 1960.6,1027.8 1979,1027.9 1985,1033.9 1985,1051.3 	"/>
	<path class="st6" d="M1945.1,1028.4l27.3,26.4h-18l-26.2-26.2C1928.1,1028.6,1945.1,1028.4,1945.1,1028.4z"/>
	<path class="st6" d="M1911.8,1028.6l26.6,26.6h-17.6l-26.5-26.5C1894.3,1028.8,1911.7,1028.7,1911.8,1028.6z"/>
	<path class="st6" d="M1879.6,1028.6l26.6,26.6h-17.6l-26.5-26.5C1862.1,1028.8,1879.5,1028.7,1879.6,1028.6z"/>
	<path class="st6" d="M1845.8,1028.6l26.6,26.6h-17.6l-26.5-26.5C1828.3,1028.8,1845.8,1028.7,1845.8,1028.6z"/>
	<path class="st6" d="M1812.4,1028.6l26.6,25.8h-17.6l-26.5-25.7C1794.9,1028.8,1812.4,1028.7,1812.4,1028.6z"/>
	<path class="st6" d="M1778.7,1029.1l26.6,25.3h-17.6l-26.5-25.1C1761.2,1029.3,1778.6,1029.2,1778.7,1029.1z"/>
	<path class="st6" d="M1744.9,1028.8l25.9,25.9h-16.4l-8.7-8.7l-0.7-0.7C1745.1,1045.3,1744.9,1028.6,1744.9,1028.8z"/>
	<path class="st94" d="M2022.5,1022.9h-26.9l8,8l24.3,0C2027.9,1030.9,2028.9,1025.3,2022.5,1022.9z"/>
	<path class="st94" d="M1985,1027.9c0,0,5.7,1.4,6,6.4v41.2l36.9-0.1c0,0,1.1,8.3-9.4,8.3c-10.5,0-32.7,0.8-32.7,0.8L1985,1027.9z"
		/>
	<polygon class="st13" points="1934.9,1180.6 1985.4,1180.5 1985.4,1084.6 1910.1,1083.7 	"/>
	<polygon class="st0" points="1930,1112.7 1985.6,1112.7 1985.6,1117.8 1930.1,1117.8 	"/>
	<path class="st0" d="M1985.3,1144.9h-51.9v3.9h52.2C1985.6,1148.8,1985.3,1144.2,1985.3,1144.9z"/>
	<path class="st0" d="M1933.9,1175.6h51.2v4.4h-51.7C1933.4,1180,1934.3,1175.2,1933.9,1175.6z"/>
	<path class="st2" d="M1916.2,1142.9l-15.1,13.3c0,0-33.2-69.2-81.4-59.5c-48.3,9.7-70.3,61.6-70.3,61.6l-16.6-15.5l21.3-64.5
		l78.6-5.4l64.1,7.6l18,45.8L1916.2,1142.9z"/>
	<circle class="st14" cx="1825.2" cy="1172.2" r="78.7"/>
	<circle class="st15" cx="1825.5" cy="1170.1" r="48.8"/>
	<circle class="st12" cx="1825.5" cy="1170.1" r="48.8"/>
	<circle class="st16" cx="1825.2" cy="1169.5" r="42.8"/>
	<circle class="st17" cx="1825.8" cy="1170.6" r="18.4"/>
	<circle class="st18" cx="1813.7" cy="1149.5" r="2.5"/>
	<circle class="st18" cx="1825.7" cy="1146.5" r="2.5"/>
	<circle class="st18" cx="1838" cy="1150.2" r="2.5"/>
	<circle class="st18" cx="1846.4" cy="1158.4" r="2.5"/>
	<circle class="st18" cx="1849.1" cy="1170.8" r="2.5"/>
	<circle class="st18" cx="1846.6" cy="1182.7" r="2.5"/>
	<circle class="st18" cx="1838" cy="1191.4" r="2.5"/>
	<circle class="st18" cx="1826" cy="1194.5" r="2.5"/>
	<circle class="st18" cx="1812.9" cy="1190.9" r="2.5"/>
	<circle class="st18" cx="1804.8" cy="1182.4" r="2.5"/>
	<circle class="st18" cx="1801.7" cy="1170.4" r="2.5"/>
	<circle class="st18" cx="1804.5" cy="1158" r="2.5"/>
	<path class="st19" d="M1800.8,1134.6c0,0,4,14.9-10.7,11.3C1790.1,1145.9,1792.3,1139.7,1800.8,1134.6z"/>
	<path class="st19" d="M1817.3,1127.6c0,0,6.4,12,17.4,0.5C1834.7,1128.1,1826.9,1125.1,1817.3,1127.6z"/>
	<path class="st19" d="M1849.3,1134.6c0,0-3.1,14.6,11.7,11.7C1860.9,1146.2,1856.4,1137.9,1849.3,1134.6z"/>
	<path class="st19" d="M1867,1161.8c0,0-9.2,9.9-0.5,17.9C1866.5,1179.6,1869.6,1172.2,1867,1161.8z"/>
	<path class="st19" d="M1849.9,1204.5c0,0-0.9-11.3,10.3-10.7C1860.1,1193.8,1856.9,1199.7,1849.9,1204.5z"/>
	<path class="st19" d="M1833.4,1211.2c0,0-7.1-9.9-16.6,0.2C1816.8,1211.3,1823.9,1213.8,1833.4,1211.2z"/>
	<path class="st19" d="M1790.1,1193.8c0,0,12.1-1.7,11,10.7C1801.1,1204.5,1795.5,1201.5,1790.1,1193.8z"/>
	<path class="st19" d="M1783.2,1161.3c0,0,10.4,8.4,0.5,18.3C1783.7,1179.6,1781.2,1172.8,1783.2,1161.3z"/>
	<path d="M1899.4,1145.5c0,0,23.1,81.5-72,102.5c0,0-87.4-4.1-76.9-102c0,0-20.5,55.5,31,92c0,0,20.3,14.8,47,13
		c26.7-1.8,52.7-13.7,68.6-46.2C1906.4,1179.4,1905.4,1169.3,1899.4,1145.5z"/>
	<path class="st20" d="M1744.9,1028.8l0.4,26.2H1851c0,0,49,1.9,59.1,28.8l75.7,0.9l-0.7-56.7L1744.9,1028.8z"/>
	<circle class="st20" cx="1825.2" cy="1169.5" r="42.8"/>
	<path class="st0" d="M2012.1,1084l0.4,13.4c0,0,15.7,4.2,15.9,14.8v65c0,0,1.1,6.7-6.7,6.7c-7.8,0-36.3,0-36.3,0l0.3-99.2
		L2012.1,1084z"/>
	<path class="st95" d="M2018.1,1114.2v24c0,0-0.4,4.7,4.3,4.7c4.7,0,6.1,0,6.1,0l-0.2-30.7C2028.3,1112.2,2021.5,1110,2018.1,1114.2
		z"/>
	<path class="st95" d="M2028.4,1154.9c0,0-11.2-1.8-10.8,6.5c0.3,8.2,9.2,6.7,10.8,6.4V1154.9z"/>
	<path class="st94" d="M2027.1,1107.8c0,0-13.6-6.4-32.8-2.9l-0.7,74c0,0,29.9,4.5,34.7-1.8c0,0,1.8,6.5-6.7,6.7
		c-8.5,0.1-36.3,0-36.3,0l0.3-99.2l26.4-0.6l0.4,13.4C2012.5,1097.4,2025.1,1101.5,2027.1,1107.8z"/>
	<polygon class="st21" points="1013.4,1076.7 1013.4,1130.6 1195.9,1169.4 1237.4,1145.8 1599.7,1145.8 1741.4,1146.5 1754,1078.3 	
		"/>
	<circle class="st22" cx="1620.7" cy="1142.9" r="22.5"/>
	<circle class="st22" cx="1670" cy="1142.9" r="22.5"/>
	<path class="st23" d="M1634.9,1126c0,0-15-5.6-25.6,4.2c-10.6,9.8-10,20.6-10,20.6s-4.6-16.6,7.9-25.8S1633.3,1122.9,1634.9,1126z"
		/>
	<path class="st23" d="M1684,1126c0,0-15-5.6-25.6,4.2c-10.6,9.8-10,20.6-10,20.6s-4.6-16.6,7.9-25.8S1682.5,1122.9,1684,1126z"/>
	<path class="st24" d="M1392.5,1104.1v73.5h200.8v-73.8C1593.3,1103.8,1391.5,1104.1,1392.5,1104.1z"/>
	<path class="st25" d="M1543.6,1096.6v11.2h10.7v-11.2C1554.3,1096.6,1543.3,1096.6,1543.6,1096.6z"/>
	<polygon class="st26" points="1550.1,1101.2 1550.1,1107.8 1554.3,1107.8 1554.3,1096.6 1550,1096.6 	"/>
	<polygon class="st27" points="1398.3,1104.5 1398.3,1177.8 1392.5,1177.8 1392.5,1104.1 1398.3,1104.1 	"/>
	<path class="st28" d="M1418.3,1100.5v77.9h7.3v-77.8C1425.6,1100.6,1418.8,1100.5,1418.3,1100.5z"/>
	<path class="st28" d="M1491.2,1100.4v77.5h7.9v-77.5C1499.1,1100.4,1491.2,1100,1491.2,1100.4z"/>
	<path class="st28" d="M1564,1100.1v78.5h7.8v-78v-0.5C1571.8,1100,1563.8,1100.1,1564,1100.1z"/>
	<path class="st28" d="M1588.9,1103.8v73.6h4.3v-73.6C1593.3,1103.8,1588.9,1104.1,1588.9,1103.8z"/>
	<path class="st29" d="M1398.4,1120.1h19.8v5h-19.8C1398.4,1125.1,1398.2,1119.9,1398.4,1120.1z"/>
	<path class="st29" d="M1572,1120.1h16.7v5H1572C1572,1125.1,1571.8,1119.9,1572,1120.1z"/>
	<path class="st29" d="M1425.9,1120.1h64.9v5h-64.9C1425.9,1125.1,1425.3,1119.9,1425.9,1120.1z"/>
	<path class="st29" d="M1499.5,1120.1h64.5v5h-64.5C1499.5,1125.1,1498.9,1119.9,1499.5,1120.1z"/>
	<path class="st30" d="M1392.5,1120.1h5.9v4.9h-5.8C1392.6,1125.1,1392.5,1120,1392.5,1120.1z"/>
	<path class="st30" d="M1418.3,1120.1h7.3v5.8h-7.3C1418.3,1125.8,1418.3,1120.1,1418.3,1120.1z"/>
	<path class="st30" d="M1491.2,1120.1h7.9v5.8h-7.9C1491.2,1125.8,1491.1,1120.1,1491.2,1120.1z"/>
	<path class="st30" d="M1563.9,1120.1h8v5.8h-8C1563.9,1125.8,1563.8,1120.1,1563.9,1120.1z"/>
	<path class="st30" d="M1588.7,1120.3h4.5v4.9h-4.4C1588.8,1125.2,1588.7,1120.2,1588.7,1120.3z"/>
	<path class="st31" d="M1241.9,1154.1v-37.6c0,0,0.7-6.3,15.2-6.3c14.5,0,121.1,0,121.1,0s7.9-1,7.9,9.6s0,50.8,0,50.8
		s1.3,7.3-14.2,7.3s-121.8,0-121.8,0s-8.3,0.7-8.3-8.6S1241.9,1154.1,1241.9,1154.1z"/>
	<path class="st32" d="M1310.5,1138.9v12.2h8.8v-12.4C1319.3,1138.7,1310.4,1138.8,1310.5,1138.9z"/>
	<line class="st33" x1="1385.7" y1="1145.7" x2="1242.1" y2="1145.7"/>
	<circle class="st14" cx="1118.4" cy="1172.2" r="78.7"/>
	<circle class="st15" cx="1118.8" cy="1170.1" r="48.8"/>
	<circle class="st12" cx="1118.8" cy="1170.1" r="48.8"/>
	<circle class="st16" cx="1118.4" cy="1169.5" r="42.8"/>
	<circle class="st17" cx="1119" cy="1170.6" r="18.4"/>
	<circle class="st18" cx="1106.9" cy="1149.5" r="2.5"/>
	<circle class="st18" cx="1118.9" cy="1146.5" r="2.5"/>
	<circle class="st18" cx="1131.2" cy="1150.2" r="2.5"/>
	<circle class="st18" cx="1139.7" cy="1158.4" r="2.5"/>
	<circle class="st18" cx="1142.3" cy="1170.8" r="2.5"/>
	<circle class="st18" cx="1139.8" cy="1182.7" r="2.5"/>
	<circle class="st18" cx="1131.2" cy="1191.4" r="2.5"/>
	<circle class="st18" cx="1119.2" cy="1194.5" r="2.5"/>
	<circle class="st18" cx="1106.1" cy="1190.9" r="2.5"/>
	<circle class="st18" cx="1098.1" cy="1182.4" r="2.5"/>
	<circle class="st18" cx="1094.9" cy="1170.4" r="2.5"/>
	<circle class="st18" cx="1097.7" cy="1158" r="2.5"/>
	<path class="st19" d="M1094,1134.6c0,0,4,14.9-10.7,11.3C1083.3,1145.9,1085.5,1139.7,1094,1134.6z"/>
	<path class="st19" d="M1110.5,1127.6c0,0,6.4,12,17.4,0.5C1127.9,1128.1,1120.1,1125.1,1110.5,1127.6z"/>
	<path class="st19" d="M1142.5,1134.6c0,0-3.1,14.6,11.7,11.7C1154.1,1146.2,1149.6,1137.9,1142.5,1134.6z"/>
	<path class="st19" d="M1160.2,1161.8c0,0-9.2,9.9-0.5,17.9C1159.7,1179.6,1162.8,1172.2,1160.2,1161.8z"/>
	<path class="st19" d="M1143.1,1204.5c0,0-0.9-11.3,10.3-10.7C1153.4,1193.8,1150.1,1199.7,1143.1,1204.5z"/>
	<path class="st19" d="M1126.6,1211.2c0,0-7.1-9.9-16.6,0.2C1110,1211.3,1117.2,1213.8,1126.6,1211.2z"/>
	<path class="st19" d="M1083.3,1193.8c0,0,12.1-1.7,11,10.7C1094.3,1204.5,1088.7,1201.5,1083.3,1193.8z"/>
	<path class="st19" d="M1076.5,1161.3c0,0,10.4,8.4,0.5,18.3C1076.9,1179.6,1074.4,1172.8,1076.5,1161.3z"/>
	<path d="M1192.6,1145.5c0,0,23.1,81.5-72,102.5c0,0-87.4-4.1-76.9-102c0,0-20.5,55.5,31,92c0,0,20.3,14.8,47,13
		c26.7-1.8,52.7-13.7,68.6-46.2C1199.6,1179.4,1198.6,1169.3,1192.6,1145.5z"/>
	<circle class="st20" cx="1118.4" cy="1169.5" r="42.8"/>
	<path class="st34" d="M1206.7,1176.9c0,0,8.3-55.7-60.6-83.8c0,0-45.8-17.1-84.3,14.3c0,0-28.7,13.2-34.2,70c0,0-3.9,8.3-17.6,8.3
		h-10.8l0.9-54l13.4-1.1l17.1-35.8c0,0,5.9-17.9,30.8-17.9s126.4,0.3,126.4,0.3s17,0.3,23.2,26.4s14.7,29,26.1,29v53.4l-25.2-0.3
		C1211.7,1185.7,1206.4,1184.8,1206.7,1176.9z"/>
	<path class="st35" d="M1108.5,1083.6c0,0-63.8,0.4-76.5,41c-12.7,40.6-16.5,60.9-16.5,60.9s-11.6,0.8-16.4,0.2l0.9-54l13.4-1.1
		l17.1-35.8c0,0,6.3-18,30.8-17.9s126.4,0.3,126.4,0.3s19.4,0.1,23.2,26.4c6,24.5,13.5,25.8,26.9,28.3l-0.8,54.1l-25.2-0.3
		c0,0-5.3-0.8-5-8.8c0,0,16.9-3.9,10.2-39.3c0,0-14.5-9.1-15.5-27.4S1185.9,1083.9,1108.5,1083.6z"/>
	<path class="st36" d="M1736,1180.7c0,0-14.1-88.6,62.3-98.4l-55.9-0.4c0,0-23.4,26.1-24.5,67.9c-1.1,41.7-0.4,35.6-0.4,35.6
		S1733.1,1187.6,1736,1180.7z"/>
	<path class="st37" d="M1724.5,802.4l-0.3,37.4c0,0,8,1.6,14.8,0l-0.3-41.2L1724.5,802.4z"/>
	<ellipse class="st21" cx="1731.6" cy="800.6" rx="8.2" ry="8.5"/>
	<path class="st38" d="M1721,839.8c0,0,11.8,1.6,21.3-0.3v214.7c0,0-13.9,3.5-21.3-0.3V839.8z"/>
	<path class="st0" d="M1700.3,1102.7v24.7c0,0,5.9,8.8,12.9-0.2v-20.6c0,0-0.7-7,7-9.7c7.7-2.7,14.3-9.1,15.2-17.4
		c0.9-8.4,0.7-24,0.7-24s-6.9,1-13.4-0.3l-0.4,20c0,0-0.9,5.7-7.9,9.5S1700.8,1091.2,1700.3,1102.7z"/>
	<path class="st8" d="M1728.9,1056.2l-0.7,19.2c0,0-1.8,9.5-9,13c-7.3,3.5-12.3,8.2-12.3,15s-0.2,28-0.2,28s-4.8,1.5-6.4-3.9
		l0.4-27.9c0,0,0.2-8.4,11.7-13.9c11.5-5.5,9.9-10.6,9.9-10.6l0.4-20C1722.7,1055.1,1726.1,1056.2,1728.9,1056.2z"/>
	<path class="st39" d="M1742.1,844.9c0,0-8.2,2.4-21.1-0.2"/>
	<path class="st39" d="M1742.1,850.5c0,0-8.2,2.4-21.1-0.2"/>
	<path class="st39" d="M1742.1,855.8c0,0-8.2,2.4-21.1-0.2"/>
	<path class="st39" d="M1742.1,861.2c0,0-8.2,2.4-21.1-0.2"/>
	<path class="st39" d="M1742.1,866.8c0,0-8.2,2.4-21.1-0.2"/>
	<path class="st39" d="M1742.1,872.4c0,0-8.2,2.4-21.1-0.2"/>
	<path class="st39" d="M1741.9,878c0,0-8.2,2.4-21.1-0.2"/>
	<path class="st39" d="M1741.9,883.6c0,0-8.2,2.4-21.1-0.2"/>
	<path class="st39" d="M1741.9,889c0,0-8.2,2.4-21.1-0.2"/>
	<path class="st39" d="M1741.9,894.4c0,0-8.2,2.4-21.1-0.2"/>
	<path class="st39" d="M1741.9,900.2c0,0-8.2,2.4-21.1-0.2"/>
	<path class="st39" d="M1741.9,905.6c0,0-8.2,2.4-21.1-0.2"/>
	<path class="st39" d="M1741.9,911.8c0,0-8.2,2.4-21.1-0.2"/>
	<path class="st39" d="M1741.9,917.6c0,0-8.2,2.4-21.1-0.2"/>
	<path class="st39" d="M1741.9,923.2c0,0-8.2,2.4-21.1-0.2"/>
	<path class="st39" d="M1741.9,929.2c0,0-8.2,2.4-21.1-0.2"/>
	<path class="st39" d="M1741.9,935.1c0,0-8.2,2.4-21.1-0.2"/>
	<path class="st39" d="M1742.2,941.2c0,0-8.2,2.4-21.1-0.2"/>
	<path class="st39" d="M1742.2,947.9c0,0-8.2,2.4-21.1-0.2"/>
	<path class="st39" d="M1742,954c0,0-8.2,2.4-21.1-0.2"/>
	<path class="st39" d="M1742,960.5c0,0-8.2,2.4-21.1-0.2"/>
	<path class="st39" d="M1742,966.2c0,0-8.2,2.4-21.1-0.2"/>
	<path class="st39" d="M1742,972.5c0,0-8.2,2.4-21.1-0.2"/>
	<path class="st39" d="M1742,978.1c0,0-8.2,2.4-21.1-0.2"/>
	<path class="st39" d="M1742,985c0,0-8.2,2.4-21.1-0.2"/>
	<path class="st39" d="M1742,991.1c0,0-8.2,2.4-21.1-0.2"/>
	<path class="st39" d="M1742,996.6c0,0-8.2,2.4-21.1-0.2"/>
	<path class="st39" d="M1742,1002.4c0,0-8.2,2.4-21.1-0.2"/>
	<path class="st39" d="M1742,1008.3c0,0-8.2,2.4-21.1-0.2"/>
	<path class="st39" d="M1742,1014.6c0,0-8.2,2.4-21.1-0.2"/>
	<path class="st39" d="M1742,1021.7c0,0-8.2,2.4-21.1-0.2"/>
	<path class="st39" d="M1742,1028.4c0,0-8.2,2.4-21.1-0.2"/>
	<path class="st39" d="M1742,1034.9c0,0-8.2,2.4-21.1-0.2"/>
	<path class="st39" d="M1742,1041.4c0,0-8.2,2.4-21.1-0.2"/>
	<path class="st39" d="M1741.7,1048.3c0,0-8.2,2.4-21.1-0.2"/>
	<line class="st40" x1="1736.5" y1="840.4" x2="1736.5" y2="1055.4"/>
	<line class="st40" x1="1724.2" y1="839.8" x2="1724.2" y2="1055.1"/>
	<line class="st40" x1="1729.6" y1="840.8" x2="1729.6" y2="1056.2"/>
	<path class="st36" d="M1740,1054.3v28.2h113.9c0,0,58.2,1.1,58.2,55.2l-0.4,41c0,0-1.9,5.6,6.8,6c8.6,0.4,16.9,0,16.9,0l-1.7-59.2
		c0,0-7.4-69.5-78.8-70.2S1740,1054.3,1740,1054.3z"/>
	<path class="st41" d="M1770.9,1063.6l72.9-0.3c0,0,62.5-4.9,76.9,38.9c14.4,43.8,14.7,82.5,14.7,82.5l-1.7-59.2
		c0,0-5.2-70.5-82.7-70.5c-77.5,0-111-0.7-111-0.7l-0.2,10.5L1770.9,1063.6z"/>
	<path class="st11" d="M1689.4,768.8l0.3,20.9c0,0,5.5,1.3,18.6,0l-0.5-21.2L1689.4,768.8z"/>
	<path class="st87" d="M1710.8,789.1l0.1,4.4h-23.8l0.1-4.1C1687.2,789.5,1696.3,790.5,1710.8,789.1z"/>
	<polygon class="st89" points="1680.9,792.8 1637.5,892.7 1716,892.7 1716,792.8 	"/>
	<polygon class="st8" points="1644.5,876.4 1694.5,877 1715.8,845.6 1716,892.7 1637.5,892.7 	"/>
	<line class="st42" x1="1640.9" y1="883.2" x2="986.3" y2="631.4"/>
	<path class="st42" d="M952.7,665.5c0,0,7.4,106.1,8.9,117"/>
	<line class="st42" x1="993.1" y1="676.8" x2="983.3" y2="786.4"/>
	<polygon class="st43" points="1012.4,661.2 1100.6,695.4 1090.3,719.9 1007.5,686.7 	"/>
	<path class="st10" d="M1019,668.4c0,0,0.7,13.2,15.9,18.9c15.2,5.6,59.6,22.8,59.6,22.8l5-12.2c0,0-67.8-23.2-72.8-27.1
		c-5-4-6.9-5.1-6.9-5.1S1018.5,667.4,1019,668.4z"/>
	<circle class="st10" cx="973.1" cy="651.3" r="27.4"/>
	<circle class="st9" cx="973.7" cy="651.5" r="21.8"/>
	<path class="st44" d="M1020.1,658.5l-12.9,34.1c0,0-42.9-11.1-47-25.4c-4.2-14.3,1.8-26.3,5.1-34.1L1020.1,658.5z"/>
	<path class="st45" d="M981.2,676.9l22.7,9.6c0,0,5.2-20.7,16.2-28l-12.9,34.1c0,0-41.1-9.9-47-25.4c0,0-3.2-6.7,0.2-20.3
		c0,0-1.3,19.2,6.7,23.5C975.1,674.7,981.2,676.9,981.2,676.9z"/>
	<circle class="st46" cx="973.1" cy="650.4" r="5.4"/>
	<circle class="st10" cx="1148.4" cy="693.5" r="11.8"/>
	<circle class="st9" cx="1463" cy="827.7" r="18"/>
	<circle class="st10" cx="1463.3" cy="827.9" r="11.5"/>
	<polygon class="st44" points="1603.3,894.8 1105.1,685.2 1086.6,728 1336.4,835.5 1354.5,855.6 1541.2,940.2 	"/>
	<polyline class="st47" points="1580.4,897.4 1110.1,699.5 1100.5,723.1 	"/>
	<g>
		<polygon class="st48" points="1362.2,849.5 1342.1,829 1099.9,723.5 1102.4,717.6 1344.9,823.8 1366.8,846.1 1552.1,929.7 
			1547.6,933.3 		"/>
		<path class="st45" d="M1102.9,718.9l241.4,105.7l21.9,22.3l183.9,83l-2.7,2.2l-184.7-83.5l-20-20.4l-241.5-105.2L1102.9,718.9
			 M1101.9,716.3l-0.8,1.9l-1.7,4l-0.8,1.8l1.8,0.8l241.1,105.1l19.8,20.2l0.3,0.3l0.3,0.2l184.7,83.5l1.1,0.5l1-0.8l2.7-2.2l2.6-2
			l-3-1.3l-183.6-82.9l-21.7-22l-0.3-0.3l-0.4-0.2l-241.4-105.7L1101.9,716.3L1101.9,716.3z"/>
	</g>
	<circle class="st49" cx="1385.5" cy="837.9" r="6.6"/>
	<polygon class="st43" points="1373.5,864.2 1373.5,930 1394.7,930 1395,873.8 	"/>
	<polygon class="st10" points="1386.1,872.9 1386.8,929 1376.8,929 1376.8,867.4 1385.9,871.3 	"/>
	<path class="st43" d="M1369,929.4c0,0,10.4,0.4,31.1,0.1l-0.3,36.5h-31L1369,929.4z"/>
	<path class="st9" d="M971.2,795.8c0,0,2.1,5.5-1.4,6.9s-11.7,8.7-4.1,14.6S979,818.9,982,807c0,0-3.7,0.5-6.4,6.2
		c0,0-6.4,6.9-7.3-3.2c0,0,0-2.5,3.9-4.1c3.9-1.6,3.4-5.5,1.4-11.9L971.2,795.8z"/>
	<path class="st50" d="M964.6,764.2c0,0-1.9,14-5.8,20.2c0,0-2.3,4.7,0,6.2c2.3,1.6,10.5,5.8,10.5,5.8s1.9,3.9,7.4,0l8.2-6.2
		c0,0,2.7,0.4,1.2-5.4c-1.6-5.8-6.6-20.6-6.6-20.6H964.6z"/>
	<path class="st45" d="M977,766.6l6.2,17.4c0,0,1.7,2.5-0.2,4.7c-1.9,2.2-7.4,6.1-7.4,6.1s-2,1.7-4.6-0.2c-2.5-1.9-6.2-3.5-6.2-3.5
		l4.6,5.4c0,0,2.7,3.9,7.4,0c4.7-3.9,8.2-6.2,8.2-6.2s2.6,0.3,1.2-5.4c-1.4-5.7-6.6-20.6-6.6-20.6L977,766.6z"/>
	<g>
		<path class="st48" d="M958.9,790.5c-0.1,0-0.6-0.2-0.9-0.9c-0.3-0.8-0.4-2.2,1-5c2.9-5.7,4.8-12.4,5.8-20.1h14l-1.9,1.9l-10.7-0.2
			l0,0.2c0,0.2-1.4,16.8-6.3,20.1c-0.1,0.1-0.5,0.5-0.4,1.2c0.2,0.7,0.9,1.3,2.3,1.8c2.4,0.9,5.4,4.5,6.7,6.3L958.9,790.5z"/>
		<path class="st50" d="M978.2,764.7l-1.4,1.4l-10.4-0.2l-0.5,0l0,0.5c0,0.2-1.4,16.7-6.2,19.9l0,0l0,0c-0.2,0.2-0.5,0.7-0.4,1.4
			c0.2,0.8,1,1.5,2.4,2c1.9,0.7,4.3,3.4,5.8,5.2l-8.4-4.7l0,0l0,0c0,0-0.5-0.2-0.7-0.8c-0.3-0.7-0.3-2.1,1-4.7
			c2.8-5.6,4.8-12.4,5.8-20H978.2 M979.4,764.2h-14.8c-1.1,8.3-3.1,14.9-5.8,20.2c-2.7,5.4,0,6.2,0,6.2l10.5,5.8
			c0,0-4.3-6.1-7.5-7.3c-3.2-1.2-1.9-2.5-1.9-2.5c5.1-3.4,6.4-20.3,6.4-20.3l10.6,0.2L979.4,764.2L979.4,764.2z"/>
	</g>
	<line class="st42" x1="971.7" y1="812.2" x2="971.7" y2="821.6"/>
	<polygon class="st51" points="969.4,821.7 974.3,821.7 974.3,858.8 969.7,858.8 	"/>
	<line class="st102" x1="971.9" y1="859.4" x2="972.9" y2="1105.1"/>
	<polygon class="st89" points="1716,892.7 1716,1080 992.2,1080 992.2,1026.7 1110.2,966.5 1514.9,966.5 1587.2,894.3 	"/>
	<path class="st6" d="M1680.9,1047.5l31.2,32.1h-19.5l-32.2-32.2C1660.4,1047.4,1681.2,1047.3,1680.9,1047.5z"/>
	<path class="st6" d="M1646.3,1047.5l31.2,32.1h-19.5l-32.2-32.2C1625.7,1047.4,1646.5,1047.3,1646.3,1047.5z"/>
	<path class="st6" d="M1612.3,1047.5l31.2,32.1H1624l-32.2-32.2C1591.8,1047.4,1612.6,1047.3,1612.3,1047.5z"/>
	<path class="st6" d="M1577,1047.5l31.2,32.1h-19.5l-32.2-32.2C1556.4,1047.4,1577.2,1047.3,1577,1047.5z"/>
	<path class="st6" d="M1542.6,1047.6l31.2,32h-19.5l-32.2-32.1C1522,1047.5,1542.8,1047.4,1542.6,1047.6z"/>
	<path class="st6" d="M1507.5,1047.9l31.2,31.7h-19.5l-32.2-31.8C1486.9,1047.8,1507.7,1047.7,1507.5,1047.9z"/>
	<path class="st6" d="M1472.8,1047.9l31.2,31.7h-19.5l-32.2-31.8C1452.2,1047.8,1473.1,1047.7,1472.8,1047.9z"/>
	<path class="st6" d="M1437.7,1047.9l31.2,31.7h-19.5l-32.2-31.8C1417.1,1047.8,1437.9,1047.7,1437.7,1047.9z"/>
	<path class="st6" d="M1403.3,1048.2l31.2,31.4h-19.5l-32.2-31.5C1382.7,1048.1,1403.5,1047.9,1403.3,1048.2z"/>
	<path class="st6" d="M1368.6,1048.2l31.2,31.4h-19.5l-32.2-31.5C1348.1,1048.1,1368.9,1047.9,1368.6,1048.2z"/>
	<path class="st6" d="M1333.8,1048.2l31.2,31.4h-19.5l-32.2-31.5C1313.2,1048.1,1334,1048,1333.8,1048.2z"/>
	<path class="st6" d="M1298.7,1048.3l31.2,31.3h-19.5l-32.2-31.4C1278.1,1048.2,1298.9,1048.1,1298.7,1048.3z"/>
	<path class="st6" d="M1264.2,1048.4l31.2,31.2h-19.5l-32.2-31.3C1243.7,1048.3,1264.5,1048.2,1264.2,1048.4z"/>
	<path class="st6" d="M1229.8,1048.4l31.2,31.2h-19.5l-32.2-31.3C1209.2,1048.3,1230.1,1048.2,1229.8,1048.4z"/>
	<path class="st6" d="M1194.2,1048.8l31.2,30.8h-19.5l-32.2-30.9C1173.7,1048.6,1194.5,1048.5,1194.2,1048.8z"/>
	<path class="st6" d="M1159.4,1048.8l31.2,30.8H1171l-32.2-30.9C1138.8,1048.6,1159.6,1048.5,1159.4,1048.8z"/>
	<path class="st6" d="M1124,1049l31.2,30.6h-19.5l-32.2-30.7C1103.4,1048.9,1124.3,1048.8,1124,1049z"/>
	<path class="st6" d="M1089.1,1049.1l31.2,30.5h-19.5l-32.2-30.6C1068.6,1049,1089.4,1048.9,1089.1,1049.1z"/>
	<path class="st6" d="M1054,1049.2l31.2,30.4h-19.5l-32.2-30.5C1033.4,1049.1,1054.3,1049,1054,1049.2z"/>
	<polygon class="st1" points="1695.3,915.7 1695.3,1056.2 1688.2,1046.9 1688.2,921.1 	"/>
	<polygon class="st87" points="1596.3,921.9 1688.2,921.1 1695.3,915.7 1592.2,915.7 1523.7,988.5 1111,988.5 1012.8,1037.6 
		1012.8,1057 1020.4,1049.1 1020.4,1043.3 1117,995.9 1527,995.9 	"/>
	<polyline class="st1" points="1688.2,1046.9 1020.4,1049.1 1012.8,1057 1695.3,1056.2 	"/>
	<path class="st91" d="M1601.7,938.3h74.3v98.1h-74.3C1601.7,1036.4,1602,938.6,1601.7,938.3z"/>
	<polygon class="st6" points="1628.9,1019.6 1628.9,1028.7 1650.9,1028.7 1650.9,1018.6 1628.7,1018.6 	"/>
	<g>
		<path class="st9" d="M961.5,1101.1c0,0-0.5,10.5,1.4,11.4c1.9,0.9,20.1-6.4,21.3-10.2C984.2,1102.3,970.5,1103.3,961.5,1101.1z"/>
		<path class="st53" d="M292.2,1174.1l133.5-10.8c0,0,12.1-57.9-55.8-72.6S285.5,1139.5,292.2,1174.1z"/>
		<polygon class="st53" points="868.8,1131.1 877.8,1130.2 893.7,1081.6 828.5,1047.5 756.8,1065 746.5,1126.2 755.2,1142.7 		"/>
		<circle class="st14" cx="815.3" cy="1125.1" r="53.9"/>
		<g>
			<g>
				<path class="st54" d="M815.6,1162.6c-1.6,0-3.3-0.1-4.9-0.3c-9.2-1.3-17.4-6.1-23-13.6c-5.6-7.4-8-16.6-6.7-25.9
					c2.4-17.1,17.2-30.1,34.5-30.1c1.6,0,3.3,0.1,4.9,0.3c19.1,2.7,32.4,20.4,29.7,39.4C847.7,1149.7,832.9,1162.6,815.6,1162.6z"/>
				<path class="st55" d="M815.5,1094.3c1.5,0,3.1,0.1,4.7,0.3c18.3,2.6,31,19.5,28.4,37.7c-2.3,16.7-16.7,28.8-33,28.8
					c-1.5,0-3.1-0.1-4.7-0.3c-18.3-2.6-31-19.5-28.4-37.7C784.8,1106.3,799.1,1094.3,815.5,1094.3 M815.5,1091.3L815.5,1091.3
					c-18,0-33.5,13.5-36,31.3c-1.4,9.6,1.1,19.2,7,27c5.9,7.8,14.4,12.8,24,14.1c1.7,0.2,3.4,0.4,5.1,0.4c18,0,33.5-13.5,36-31.3
					c1.4-9.6-1.1-19.2-7-27c-5.9-7.8-14.4-12.8-24-14.1C818.9,1091.4,817.2,1091.3,815.5,1091.3L815.5,1091.3z"/>
			</g>
			<g>
				<path class="st56" d="M815.5,1147.1c-0.9,0-1.8-0.1-2.7-0.2c-10.4-1.5-17.7-11.1-16.2-21.5c1.3-9.3,9.4-16.4,18.8-16.4
					c0.9,0,1.8,0.1,2.7,0.2c5,0.7,9.5,3.3,12.5,7.4c3.1,4.1,4.4,9.1,3.6,14.1C833,1140,824.9,1147.1,815.5,1147.1z"/>
				<path class="st57" d="M815.5,1110L815.5,1110c0.8,0,1.7,0.1,2.5,0.2c4.8,0.7,9,3.2,11.9,7c2.9,3.8,4.1,8.6,3.5,13.4
					c-1.2,8.8-8.9,15.5-17.8,15.5c-0.8,0-1.7-0.1-2.5-0.2c-4.8-0.7-9-3.2-11.9-7c-2.9-3.8-4.1-8.6-3.5-13.4
					C798.9,1116.7,806.6,1110,815.5,1110 M815.5,1108c-9.8,0-18.4,7.2-19.8,17.2c-1.5,11,6.1,21.1,17,22.6c0.9,0.1,1.9,0.2,2.8,0.2
					c9.8,0,18.4-7.2,19.8-17.2c1.5-11-6.1-21.1-17-22.6C817.3,1108.1,816.4,1108,815.5,1108L815.5,1108z"/>
			</g>
			<circle class="st58" cx="815.8" cy="1128.1" r="6.7"/>
			<g>
				<path class="st59" d="M807,1105.6c-0.1,0-0.2,0-0.3,0c-0.6-0.1-1.1-0.4-1.4-0.8c-0.3-0.4-0.5-1-0.4-1.6c0.1-1,1-1.8,2.1-1.8
					c0.1,0,0.2,0,0.3,0c0.6,0.1,1.1,0.4,1.4,0.8c0.3,0.4,0.5,1,0.4,1.6C808.9,1104.8,808,1105.6,807,1105.6z"/>
				<path class="st60" d="M807,1101.6L807,1101.6c0.1,0,0.2,0,0.3,0c0.5,0.1,0.9,0.3,1.2,0.7c0.3,0.4,0.4,0.9,0.4,1.4
					c-0.1,0.9-0.9,1.6-1.8,1.6c-0.1,0-0.2,0-0.3,0c-0.5-0.1-0.9-0.3-1.2-0.7c-0.3-0.4-0.4-0.9-0.4-1.4
					C805.3,1102.3,806.1,1101.6,807,1101.6 M807,1101.1c-1.2,0-2.2,0.9-2.3,2c-0.2,1.3,0.7,2.5,2,2.7c0.1,0,0.2,0,0.3,0
					c1.2,0,2.2-0.9,2.3-2c0.2-1.3-0.7-2.5-2-2.7C807.2,1101.1,807.1,1101.1,807,1101.1L807,1101.1z"/>
			</g>
			<g>
				<path class="st59" d="M821.2,1104.4c-0.1,0-0.2,0-0.3,0c-0.6-0.1-1.1-0.4-1.4-0.8c-0.3-0.4-0.5-1-0.4-1.6c0.1-1,1-1.8,2.1-1.8
					c0.1,0,0.2,0,0.3,0c0.6,0.1,1.1,0.4,1.4,0.8c0.3,0.4,0.5,1,0.4,1.6C823.1,1103.7,822.2,1104.4,821.2,1104.4z"/>
				<g>
					<path class="st60" d="M821.2,1100.5L821.2,1100.5c0.1,0,0.2,0,0.3,0c0.5,0.1,0.9,0.3,1.2,0.7s0.4,0.9,0.4,1.4
						c-0.1,0.9-0.9,1.6-1.8,1.6c-0.1,0-0.2,0-0.3,0c-0.5-0.1-0.9-0.3-1.2-0.7c-0.3-0.4-0.4-0.9-0.4-1.4
						C819.5,1101.2,820.3,1100.5,821.2,1100.5 M821.2,1100c-1.2,0-2.2,0.9-2.3,2c-0.2,1.3,0.7,2.5,2,2.7c0.1,0,0.2,0,0.3,0
						c1.2,0,2.2-0.9,2.3-2c0.2-1.3-0.7-2.5-2-2.7C821.4,1100,821.3,1100,821.2,1100L821.2,1100z"/>
				</g>
			</g>
			<g>
				<path class="st61" d="M817.1,1117.4c-0.1,0-0.1,0-0.2,0c-0.3,0-0.7-0.2-0.9-0.5s-0.3-0.6-0.3-1c0.1-0.6,0.6-1.1,1.3-1.1
					c0.1,0,0.1,0,0.2,0c0.7,0.1,1.2,0.8,1.1,1.5C818.3,1117,817.7,1117.4,817.1,1117.4z"/>
				<g>
					<path class="st62" d="M817.1,1115.1L817.1,1115.1c0,0,0.1,0,0.1,0c0.3,0,0.5,0.2,0.7,0.4c0.2,0.2,0.2,0.5,0.2,0.8
						c-0.1,0.5-0.5,0.9-1,0.9c0,0-0.1,0-0.1,0c-0.6-0.1-1-0.6-0.9-1.2C816.1,1115.5,816.6,1115.1,817.1,1115.1 M817.1,1114.6
						c-0.8,0-1.4,0.6-1.5,1.3c-0.1,0.9,0.5,1.6,1.3,1.8c0.1,0,0.1,0,0.2,0c0.8,0,1.4-0.6,1.5-1.3c0.1-0.9-0.5-1.6-1.3-1.8
						C817.2,1114.6,817.2,1114.6,817.1,1114.6L817.1,1114.6z"/>
				</g>
			</g>
			<g>
				<path class="st61" d="M827,1130.6c-0.1,0-0.1,0-0.2,0c-0.3,0-0.7-0.2-0.9-0.5s-0.3-0.6-0.3-1c0.1-0.6,0.6-1.1,1.3-1.1
					c0.1,0,0.1,0,0.2,0c0.3,0,0.7,0.2,0.9,0.5c0.2,0.3,0.3,0.6,0.3,1C828.2,1130.1,827.6,1130.6,827,1130.6z"/>
				<g>
					<path class="st62" d="M827,1128.2L827,1128.2c0,0,0.1,0,0.1,0c0.3,0,0.5,0.2,0.7,0.4c0.2,0.2,0.2,0.5,0.2,0.8
						c-0.1,0.5-0.5,0.9-1,0.9c0,0-0.1,0-0.1,0c-0.3,0-0.5-0.2-0.7-0.4c-0.2-0.2-0.2-0.5-0.2-0.8C826,1128.6,826.4,1128.2,827,1128.2
						 M827,1127.7c-0.8,0-1.4,0.6-1.5,1.3c-0.1,0.9,0.5,1.6,1.3,1.8c0.1,0,0.1,0,0.2,0c0.8,0,1.4-0.6,1.5-1.3
						c0.1-0.9-0.5-1.6-1.3-1.8C827.1,1127.7,827,1127.7,827,1127.7L827,1127.7z"/>
				</g>
			</g>
			<g>
				<path class="st61" d="M814.1,1140.1c-0.1,0-0.1,0-0.2,0c-0.3,0-0.7-0.2-0.9-0.5s-0.3-0.6-0.3-1c0.1-0.6,0.6-1.1,1.3-1.1
					c0.1,0,0.1,0,0.2,0c0.3,0,0.7,0.2,0.9,0.5c0.2,0.3,0.3,0.6,0.3,1C815.3,1139.6,814.7,1140.1,814.1,1140.1z"/>
				<g>
					<path class="st62" d="M814.1,1137.7L814.1,1137.7c0,0,0.1,0,0.1,0c0.3,0,0.5,0.2,0.7,0.4s0.2,0.5,0.2,0.8
						c-0.1,0.5-0.5,0.9-1,0.9c0,0-0.1,0-0.1,0c-0.3,0-0.5-0.2-0.7-0.4s-0.2-0.5-0.2-0.8C813.1,1138.1,813.6,1137.7,814.1,1137.7
						 M814.1,1137.2c-0.8,0-1.4,0.6-1.5,1.3c-0.1,0.9,0.5,1.6,1.3,1.8c0.1,0,0.1,0,0.2,0c0.8,0,1.4-0.6,1.5-1.3
						c0.1-0.9-0.5-1.6-1.3-1.8C814.2,1137.2,814.2,1137.2,814.1,1137.2L814.1,1137.2z"/>
				</g>
			</g>
			<g>
				<path class="st61" d="M803.9,1128c-0.1,0-0.1,0-0.2,0c-0.7-0.1-1.2-0.8-1.1-1.5c0.1-0.6,0.6-1.1,1.3-1.1c0.1,0,0.1,0,0.2,0
					c0.7,0.1,1.2,0.8,1.1,1.5C805.1,1127.5,804.6,1128,803.9,1128z"/>
				<g>
					<path class="st62" d="M803.9,1125.6L803.9,1125.6c0,0,0.1,0,0.1,0c0.3,0,0.5,0.2,0.7,0.4s0.2,0.5,0.2,0.8
						c-0.1,0.5-0.5,0.9-1,0.9c0,0-0.1,0-0.1,0c-0.3,0-0.5-0.2-0.7-0.4s-0.2-0.5-0.2-0.8C802.9,1126,803.4,1125.6,803.9,1125.6
						 M803.9,1125.1c-0.8,0-1.4,0.6-1.5,1.3c-0.1,0.9,0.5,1.6,1.3,1.8c0.1,0,0.1,0,0.2,0c0.8,0,1.4-0.6,1.5-1.3
						c0.1-0.9-0.5-1.6-1.3-1.8C804.1,1125.1,804,1125.1,803.9,1125.1L803.9,1125.1z"/>
				</g>
			</g>
			<g>
				<path class="st59" d="M834.6,1111.9c-0.1,0-0.2,0-0.3,0c-0.6-0.1-1.1-0.4-1.4-0.8c-0.3-0.4-0.5-1-0.4-1.6c0.1-1,1-1.8,2.1-1.8
					c0.1,0,0.2,0,0.3,0c0.6,0.1,1.1,0.4,1.4,0.8c0.3,0.4,0.5,1,0.4,1.6C836.6,1111.1,835.7,1111.9,834.6,1111.9z"/>
				<g>
					<path class="st60" d="M834.6,1107.9L834.6,1107.9c0.1,0,0.2,0,0.3,0c0.5,0.1,0.9,0.3,1.2,0.7c0.3,0.4,0.4,0.9,0.4,1.4
						c-0.1,0.9-0.9,1.6-1.8,1.6c-0.1,0-0.2,0-0.3,0c-0.5-0.1-0.9-0.3-1.2-0.7c-0.3-0.4-0.4-0.9-0.4-1.4
						C832.9,1108.6,833.7,1107.9,834.6,1107.9 M834.6,1107.4c-1.2,0-2.2,0.9-2.3,2c-0.2,1.3,0.7,2.5,2,2.7c0.1,0,0.2,0,0.3,0
						c1.2,0,2.2-0.9,2.3-2c0.2-1.3-0.7-2.5-2-2.7C834.8,1107.4,834.7,1107.4,834.6,1107.4L834.6,1107.4z"/>
				</g>
			</g>
			<g>
				<path class="st59" d="M840.8,1122.5c-0.1,0-0.2,0-0.3,0c-0.6-0.1-1.1-0.4-1.4-0.8s-0.5-1-0.4-1.6c0.1-1,1-1.8,2.1-1.8
					c0.1,0,0.2,0,0.3,0c1.2,0.2,2,1.2,1.8,2.4C842.7,1121.7,841.8,1122.5,840.8,1122.5z"/>
				<g>
					<path class="st60" d="M840.8,1118.5L840.8,1118.5c0.1,0,0.2,0,0.3,0c0.5,0.1,0.9,0.3,1.2,0.7c0.3,0.4,0.4,0.9,0.4,1.4
						c-0.1,0.9-0.9,1.6-1.8,1.6c-0.1,0-0.2,0-0.3,0c-0.5-0.1-0.9-0.3-1.2-0.7s-0.4-0.9-0.4-1.4
						C839.1,1119.2,839.9,1118.5,840.8,1118.5 M840.8,1118c-1.2,0-2.2,0.9-2.3,2c-0.2,1.3,0.7,2.5,2,2.7c0.1,0,0.2,0,0.3,0
						c1.2,0,2.2-0.9,2.3-2c0.2-1.3-0.7-2.5-2-2.7C841,1118,840.9,1118,840.8,1118L840.8,1118z"/>
				</g>
			</g>
			<g>
				<path class="st59" d="M841,1135.3c-0.1,0-0.2,0-0.3,0c-0.6-0.1-1.1-0.4-1.4-0.8c-0.3-0.4-0.5-1-0.4-1.6c0.1-1,1-1.8,2.1-1.8
					c0.1,0,0.2,0,0.3,0c0.6,0.1,1.1,0.4,1.4,0.8c0.3,0.4,0.5,1,0.4,1.6C842.9,1134.6,842,1135.3,841,1135.3z"/>
				<g>
					<path class="st60" d="M841,1131.4L841,1131.4c0.1,0,0.2,0,0.3,0c0.5,0.1,0.9,0.3,1.2,0.7c0.3,0.4,0.4,0.9,0.4,1.4
						c-0.1,0.9-0.9,1.6-1.8,1.6c-0.1,0-0.2,0-0.3,0c-0.5-0.1-0.9-0.3-1.2-0.7c-0.3-0.4-0.4-0.9-0.4-1.4
						C839.3,1132.1,840.1,1131.4,841,1131.4 M841,1130.9c-1.2,0-2.2,0.9-2.3,2c-0.2,1.3,0.7,2.5,2,2.7c0.1,0,0.2,0,0.3,0
						c1.2,0,2.2-0.9,2.3-2c0.2-1.3-0.7-2.5-2-2.7C841.2,1130.9,841.1,1130.9,841,1130.9L841,1130.9z"/>
				</g>
			</g>
			<g>
				<path class="st59" d="M835.7,1146.5c-0.1,0-0.2,0-0.3,0c-0.6-0.1-1.1-0.4-1.4-0.8c-0.3-0.4-0.5-1-0.4-1.6c0.1-1,1-1.8,2.1-1.8
					c0.1,0,0.2,0,0.3,0c1.2,0.2,2,1.2,1.8,2.4C837.6,1145.7,836.7,1146.5,835.7,1146.5z"/>
				<g>
					<path class="st60" d="M835.7,1142.6L835.7,1142.6c0.1,0,0.2,0,0.3,0c0.5,0.1,0.9,0.3,1.2,0.7c0.3,0.4,0.4,0.9,0.4,1.4
						c-0.1,0.9-0.9,1.6-1.8,1.6c-0.1,0-0.2,0-0.3,0c-0.5-0.1-0.9-0.3-1.2-0.7c-0.3-0.4-0.4-0.9-0.4-1.4
						C834,1143.3,834.7,1142.6,835.7,1142.6 M835.7,1142.1c-1.2,0-2.2,0.9-2.3,2c-0.2,1.3,0.7,2.5,2,2.7c0.1,0,0.2,0,0.3,0
						c1.2,0,2.2-0.9,2.3-2c0.2-1.3-0.7-2.5-2-2.7C835.9,1142.1,835.8,1142.1,835.7,1142.1L835.7,1142.1z"/>
				</g>
			</g>
			<g>
				<path class="st59" d="M824.9,1154.2c-0.1,0-0.2,0-0.3,0c-0.6-0.1-1.1-0.4-1.4-0.8c-0.3-0.4-0.5-1-0.4-1.6c0.1-1,1-1.8,2.1-1.8
					c0.1,0,0.2,0,0.3,0c0.6,0.1,1.1,0.4,1.4,0.8s0.5,1,0.4,1.6C826.9,1153.4,826,1154.2,824.9,1154.2z"/>
				<g>
					<path class="st60" d="M824.9,1150.2L824.9,1150.2c0.1,0,0.2,0,0.3,0c1,0.1,1.7,1.1,1.6,2.1c-0.1,0.9-0.9,1.6-1.8,1.6
						c-0.1,0-0.2,0-0.3,0c-0.5-0.1-0.9-0.3-1.2-0.7s-0.4-0.9-0.4-1.4C823.2,1150.9,824,1150.2,824.9,1150.2 M824.9,1149.7
						c-1.2,0-2.2,0.9-2.3,2c-0.2,1.3,0.7,2.5,2,2.7c0.1,0,0.2,0,0.3,0c1.2,0,2.2-0.9,2.3-2c0.2-1.3-0.7-2.5-2-2.7
						C825.2,1149.7,825,1149.7,824.9,1149.7L824.9,1149.7z"/>
				</g>
			</g>
			<g>
				<path class="st59" d="M812,1156.4c-0.1,0-0.2,0-0.3,0c-0.6-0.1-1.1-0.4-1.4-0.8c-0.3-0.4-0.5-1-0.4-1.6c0.1-1,1-1.8,2.1-1.8
					c0.1,0,0.2,0,0.3,0c0.6,0.1,1.1,0.4,1.4,0.8s0.5,1,0.4,1.6C813.9,1155.6,813,1156.4,812,1156.4z"/>
				<g>
					<path class="st60" d="M812,1152.4L812,1152.4c0.1,0,0.2,0,0.3,0c0.5,0.1,0.9,0.3,1.2,0.7c0.3,0.4,0.4,0.9,0.4,1.4
						c-0.1,0.9-0.9,1.6-1.8,1.6c-0.1,0-0.2,0-0.3,0c-0.5-0.1-0.9-0.3-1.2-0.7c-0.3-0.4-0.4-0.9-0.4-1.4
						C810.3,1153.1,811.1,1152.4,812,1152.4 M812,1151.9c-1.2,0-2.2,0.9-2.3,2c-0.2,1.3,0.7,2.5,2,2.7c0.1,0,0.2,0,0.3,0
						c1.2,0,2.2-0.9,2.3-2c0.2-1.3-0.7-2.5-2-2.7C812.2,1152,812.1,1151.9,812,1151.9L812,1151.9z"/>
				</g>
			</g>
			<g>
				<path class="st59" d="M801,1152.3c-0.1,0-0.2,0-0.3,0c-1.2-0.2-2-1.2-1.8-2.4c0.1-1,1-1.8,2.1-1.8c0.1,0,0.2,0,0.3,0
					c0.6,0.1,1.1,0.4,1.4,0.8s0.5,1,0.4,1.6C802.9,1151.5,802,1152.3,801,1152.3z"/>
				<g>
					<path class="st60" d="M801,1148.3L801,1148.3c0.1,0,0.2,0,0.3,0c0.5,0.1,0.9,0.3,1.2,0.7c0.3,0.4,0.4,0.9,0.4,1.4
						c-0.1,0.9-0.9,1.6-1.8,1.6c-0.1,0-0.2,0-0.3,0c-0.5-0.1-0.9-0.3-1.2-0.7c-0.3-0.4-0.4-0.9-0.4-1.4
						C799.3,1149,800.1,1148.3,801,1148.3 M801,1147.8c-1.2,0-2.2,0.9-2.3,2c-0.2,1.3,0.7,2.5,2,2.7c0.1,0,0.2,0,0.3,0
						c1.2,0,2.2-0.9,2.3-2c0.2-1.3-0.7-2.5-2-2.7C801.2,1147.8,801.1,1147.8,801,1147.8L801,1147.8z"/>
				</g>
			</g>
			<g>
				<path class="st59" d="M792.7,1143.2c-0.1,0-0.2,0-0.3,0c-1.2-0.2-2-1.2-1.8-2.4c0.1-1,1-1.8,2.1-1.8c0.1,0,0.2,0,0.3,0
					c1.2,0.2,2,1.2,1.8,2.4C794.7,1142.4,793.8,1143.2,792.7,1143.2z"/>
				<g>
					<path class="st60" d="M792.7,1139.2L792.7,1139.2c0.1,0,0.2,0,0.3,0c0.5,0.1,0.9,0.3,1.2,0.7c0.3,0.4,0.4,0.9,0.4,1.4
						c-0.1,0.9-0.9,1.6-1.8,1.6c-0.1,0-0.2,0-0.3,0c-0.5-0.1-0.9-0.3-1.2-0.7c-0.3-0.4-0.4-0.9-0.4-1.4
						C791,1139.9,791.8,1139.2,792.7,1139.2 M792.7,1138.7c-1.2,0-2.2,0.9-2.3,2c-0.2,1.3,0.7,2.5,2,2.7c0.1,0,0.2,0,0.3,0
						c1.2,0,2.2-0.9,2.3-2c0.2-1.3-0.7-2.5-2-2.7C792.9,1138.7,792.8,1138.7,792.7,1138.7L792.7,1138.7z"/>
				</g>
			</g>
			<g>
				<path class="st59" d="M788.9,1131.8c-0.1,0-0.2,0-0.3,0c-1.2-0.2-2-1.2-1.8-2.4c0.1-1,1-1.8,2.1-1.8c0.1,0,0.2,0,0.3,0
					c0.6,0.1,1.1,0.4,1.4,0.8s0.5,1,0.4,1.6C790.9,1131,790,1131.8,788.9,1131.8z"/>
				<g>
					<path class="st60" d="M788.9,1127.8L788.9,1127.8c0.1,0,0.2,0,0.3,0c0.5,0.1,0.9,0.3,1.2,0.7c0.3,0.4,0.4,0.9,0.4,1.4
						c-0.1,0.9-0.9,1.6-1.8,1.6c-0.1,0-0.2,0-0.3,0c-0.5-0.1-0.9-0.3-1.2-0.7c-0.3-0.4-0.4-0.9-0.4-1.4
						C787.2,1128.5,788,1127.8,788.9,1127.8 M788.9,1127.3c-1.2,0-2.2,0.9-2.3,2c-0.2,1.3,0.7,2.5,2,2.7c0.1,0,0.2,0,0.3,0
						c1.2,0,2.2-0.9,2.3-2c0.2-1.3-0.7-2.5-2-2.7C789.2,1127.3,789,1127.3,788.9,1127.3L788.9,1127.3z"/>
				</g>
			</g>
			<g>
				<path class="st59" d="M790.2,1121c-0.1,0-0.2,0-0.3,0c-0.6-0.1-1.1-0.4-1.4-0.8s-0.5-1-0.4-1.6c0.1-1,1-1.8,2.1-1.8
					c0.1,0,0.2,0,0.3,0c1.2,0.2,2,1.2,1.8,2.4C792.1,1120.2,791.2,1121,790.2,1121z"/>
				<g>
					<path class="st60" d="M790.2,1117.1L790.2,1117.1c0.1,0,0.2,0,0.3,0c1,0.1,1.7,1.1,1.6,2.1c-0.1,0.9-0.9,1.6-1.8,1.6
						c-0.1,0-0.2,0-0.3,0c-0.5-0.1-0.9-0.3-1.2-0.7s-0.4-0.9-0.4-1.4C788.5,1117.7,789.3,1117.1,790.2,1117.1 M790.2,1116.6
						c-1.2,0-2.2,0.9-2.3,2c-0.2,1.3,0.7,2.5,2,2.7c0.1,0,0.2,0,0.3,0c1.2,0,2.2-0.9,2.3-2c0.2-1.3-0.7-2.5-2-2.7
						C790.4,1116.6,790.3,1116.6,790.2,1116.6L790.2,1116.6z"/>
				</g>
			</g>
			<g>
				<path class="st59" d="M796,1111.4c-0.1,0-0.2,0-0.3,0c-1.2-0.2-2-1.2-1.8-2.4c0.1-1,1-1.8,2.1-1.8c0.1,0,0.2,0,0.3,0
					c1.2,0.2,2,1.2,1.8,2.4C797.9,1110.6,797,1111.4,796,1111.4z"/>
				<g>
					<path class="st60" d="M796,1107.4L796,1107.4c0.1,0,0.2,0,0.3,0c0.5,0.1,0.9,0.3,1.2,0.7c0.3,0.4,0.4,0.9,0.4,1.4
						c-0.1,0.9-0.9,1.6-1.8,1.6c-0.1,0-0.2,0-0.3,0c-0.5-0.1-0.9-0.3-1.2-0.7c-0.3-0.4-0.4-0.9-0.4-1.4
						C794.3,1108.1,795.1,1107.4,796,1107.4 M796,1106.9c-1.2,0-2.2,0.9-2.3,2c-0.2,1.3,0.7,2.5,2,2.7c0.1,0,0.2,0,0.3,0
						c1.2,0,2.2-0.9,2.3-2c0.2-1.3-0.7-2.5-2-2.7C796.2,1106.9,796.1,1106.9,796,1106.9L796,1106.9z"/>
				</g>
			</g>
		</g>
		<path class="st63" d="M858.3,1157.4c0,0,24.2-50.6-22.9-76.7c0,0-27.7-10.3-47.2,3.7c-19.5,14-24.1,36.2-24.4,55.9
			c0,0-4.2-6.7-2-22.7c2.2-16,17.2-50.1,60.9-45.9c0,0,49.9,5.8,45.9,60.9C868.6,1132.6,867.2,1146.7,858.3,1157.4z"/>
		<path class="st11" d="M771.8,999.6c0,0,160.4,7.3,166.3,35.9c0,0,7.3,5.3,9.2,16.9c0,0,17.9,3.9,16.2,23.2c0,0,0,29.7,1.6,37.9
			c1.6,8.2-1.1,7.8-7.4,9.4c-6.3,1.6-52.9,6.3-80,7.2c0,0,7.9-48.2-42.1-68.4c0,0-27.1-9-50,3.4s-32.2,29.1-33.5,52
			c-1.3,22.9,3,25.5,3,25.5s-6.9,3.7-15.4-13.7l-2.2,0c0,0,6.7-71.4-15.2-109.2c0,0,24.3-4.6,31.4-16
			C753.8,1003.8,765.5,999.8,771.8,999.6z"/>
		<path class="st64" d="M753.8,1003.8l135.5,16.1c0,0,28.9,3.8,36.1,13.2l12.8,2.5c0,0-2.5-13.7-36.3-20.5s-57.8-10.2-130-15.5
			C771.8,999.6,761.1,1000.7,753.8,1003.8z"/>
		<path class="st64" d="M963.6,1086.4c0,0-41.6,0.2-49.5,3c0,0,35.9-27.6,33-38.6l1.8,2.7c0,0,13.9,3.7,14.7,16.7
			C964.4,1083,963.6,1086.4,963.6,1086.4z"/>
		<path class="st65" d="M877.8,1130.2c0,0,4.3-8,17.1-8.8c12.7-0.8,67.1-4.6,70.5-9.6c0,0,4,10.6-7.5,11.3
			S877.8,1130.2,877.8,1130.2z"/>
		<path class="st65" d="M963.6,1086.4l0.2,2.4c0,0-48.5,1.7-56.6,8.3c0,0-3.7,1.8-5.7,5.8c0,0,1.1-8.3,12.6-13.5
			C914.1,1089.4,924.7,1086.9,963.6,1086.4z"/>
		<path class="st64" d="M965.3,1111.7c0,0-1.3,1.5-5,2c-3.7,0.5-65.8,2.1-58.8-10.8c0,0,2.3-4.2,7.5-6.6c0,0-8.5,7.3,0.5,9.9
			C918.6,1108.7,952.2,1113.1,965.3,1111.7z"/>
		<path class="st66" d="M963.8,1088.9c0,0,0.5,16.1,1.5,22.9c0,0-30.7,1-55.8-5.5c0,0-8.9-3.6-0.5-9.9
			C917.4,1090,963.8,1088.9,963.8,1088.9z"/>
		<path class="st28" d="M938.2,1035.6c0,0-6.1-1.2-15.3-2.6c-11.9-1.9-29.1-4.3-45.4-5.3c0,0-11.7,1.1-6.7,5.5
			c5,4.3,20.7,18.5,20.7,18.5l14.7,6.2c0,0,43.1,2.5,40.9-7S938.2,1035.6,938.2,1035.6z"/>
		<path class="st67" d="M922.3,1035.8c0,0,11.7,12,2.9,22c0,0,24,1.5,21.9-7c-2.8-11.3-8.9-15.2-8.9-15.2l-29-4.7
			C909.2,1030.9,919.1,1032.3,922.3,1035.8z"/>
		<path class="st11" d="M753.8,1003.8c0,0-79.1-40.8-125.9-50.9l14-7.4c0,0-61.1-15.1-146.3-5.1S355.5,971,355.5,971l14.3,3.8
			l-93.1,50.6l-19.4-0.8l-64.5,19.9c0,0-4.4,13.8-0.9,16.4l2.4-4.3c0,0,27.9,0.7,38.8,15.5c10.9,14.8,17.3,25.1,17.3,25.1
			s5.1,7.5,13.9,8.8c8.8,1.2,50.9,8.9,50.9,8.9s30.3-30.6,77.2-9.6l13-5.4l-34.3-45.1c0,0-0.7-12.7,1.9-15.9
			c2.6-3.2,3.4-8.5,3.4-8.5s-34.6-9.5-23.6-19.1c11.1-9.6,57.4-35.1,57.4-35.1s90.5-17.1,109.3-18.1c18.8-0.9,106.1,2.3,141.1,16.6
			c35,14.3,65.6,26.5,79.3,34.5c0,0,2,4-1,5.4C738.8,1014.6,750.5,1012.6,753.8,1003.8z"/>
		<path class="st68" d="M372.9,975.2c51.1-16.5,58-15.3,126-25.6s129.2,3.2,129.2,3.2"/>
		<path class="st69" d="M276.7,1025.3c0,0-26.2,14.1-61,20.4l-19.5,4.1l-1.9,6.7"/>
		<g>
			<path class="st70" d="M196.2,1049.8l174.9-4.5c0,0,0.1-3.4,1.8-6.4c1.8-3,2.9-6.3,3.4-8.5l-119.9,4.1
				C256.4,1034.4,235.2,1043.2,196.2,1049.8z"/>
		</g>
		<g>
			<path class="st71" d="M441.1,959c0,0-29.2,10.8-31,17.2l-57.4,35.1l11.2,15.1l-86.3-0.1C277.7,1026.2,355.3,969.7,441.1,959z"/>
		</g>
		<path class="st64" d="M568.4,955.6c0,0,45.8,1.8,67.7-0.7c0,0,53.1,15.2,102.5,41.7c0,0,0.1,7.1-7.3,8.9l-70.9-30.7
			c0,0-26.2-11.3-71.3-13.3l-26.2-2.6L568.4,955.6z"/>
		<path class="st11" d="M722.4,1019.7c0,0-315.6,12.3-346.2,10.6c0,0-0.8,5.3-3.4,8.5c0,0-1.8,3.4-1.8,6.4l0,9.5l34.3,45.1l-13,5.4
			c0,0,36.5,20.1,29.9,62.3c0,0,1.4,1.5,12.9,0.5c11.5-1,320.1-25.4,320.1-25.4s-6.8,2-15.4-13.7l-2.2,0
			C737.6,1128.9,745.9,1059.9,722.4,1019.7z"/>
		<g>
			<path class="st70" d="M377.3,1045.5l351.9-10.9c0,0-2.6-8.1-6.8-14.9l-346.2,10.6c0,0-0.3,5-3.4,8.5c0,0-2,3.4-1.8,6.4
				L377.3,1045.5z"/>
		</g>
		<path class="st65" d="M405.3,1099.8l26.5,33.8c0,0,6.2,18.4,37.9,16.2s267.9-20.9,267.9-20.9l2.2,0c0,0,5.9,13.8,15.4,13.7
			l-320.1,25.4c0,0-9.8,1.4-12.9-0.5c0,0,7.9-38.4-29.9-62.3L405.3,1099.8z"/>
		<path class="st72" d="M557.9,1048.5c0,0-5.7,4.3,0.7,4.9c6.4,0.7,29.7-2.1,29.7-2.1s5.5-2.8-1.8-4.7L557.9,1048.5z"/>
		<path class="st72" d="M412,1056.2c0,0-5.7,4.3,0.7,4.9c6.4,0.7,29.7-2.1,29.7-2.1s5.5-2.8-1.8-4.7L412,1056.2z"/>
		<path class="st73" d="M581.8,1054c0,0-4.1,6.9-15.1,0.7"/>
		<path class="st74" d="M580.4,1045.5c0,0-6.9-6.4-14.6,0.8"/>
		<path class="st73" d="M435.5,1061.9c0,0-4.1,6.9-15.1,0.7"/>
		<path class="st74" d="M434.1,1053.4c0,0-6.9-6.4-14.6,0.8"/>
		<g>
			<path class="st71" d="M738.8,1087.3c0,0-5.5,25.7-25.3,26.8c-19.8,1.1-246.1,17.3-246.1,17.3s-30.1,3.8-50.3-16.7l14.8,19
				c0,0,5,18.1,37.9,16.2s267.9-20.9,267.9-20.9S739.4,1113.6,738.8,1087.3z"/>
		</g>
		<circle class="st14" cx="360.7" cy="1164.6" r="53.9"/>
		<g>
			<g>
				<path class="st54" d="M361,1202.1c-1.6,0-3.3-0.1-4.9-0.3c-9.2-1.3-17.4-6.1-23-13.6c-5.6-7.4-8-16.6-6.7-25.9
					c2.4-17.1,17.2-30.1,34.5-30.1c1.6,0,3.3,0.1,4.9,0.3c19.1,2.7,32.4,20.4,29.7,39.4C393.2,1189.2,378.3,1202.1,361,1202.1z"/>
				<path class="st55" d="M361,1133.8c1.5,0,3.1,0.1,4.7,0.3c18.3,2.6,31,19.5,28.4,37.7c-2.3,16.7-16.7,28.8-33,28.8
					c-1.5,0-3.1-0.1-4.7-0.3c-18.3-2.6-31-19.5-28.4-37.7C330.3,1145.8,344.6,1133.8,361,1133.8 M361,1130.8L361,1130.8
					c-18,0-33.5,13.5-36,31.3c-1.4,9.6,1.1,19.2,7,27c5.9,7.8,14.4,12.8,24,14.1c1.7,0.2,3.4,0.4,5.1,0.4c18,0,33.5-13.5,36-31.3
					c1.4-9.6-1.1-19.2-7-27c-5.9-7.8-14.4-12.8-24-14.1C364.4,1130.9,362.7,1130.8,361,1130.8L361,1130.8z"/>
			</g>
			<g>
				<path class="st56" d="M361,1186.6c-0.9,0-1.8-0.1-2.7-0.2c-10.4-1.5-17.7-11.1-16.2-21.5c1.3-9.3,9.4-16.4,18.8-16.4
					c0.9,0,1.8,0.1,2.7,0.2c10.4,1.5,17.7,11.1,16.2,21.5C378.5,1179.5,370.4,1186.6,361,1186.6z"/>
				<path class="st57" d="M360.9,1149.5L360.9,1149.5c0.8,0,1.7,0.1,2.5,0.2c9.8,1.4,16.7,10.5,15.3,20.4
					c-1.2,8.8-8.9,15.5-17.8,15.5c-0.8,0-1.7-0.1-2.5-0.2c-4.8-0.7-9-3.2-11.9-7s-4.1-8.6-3.5-13.4
					C344.3,1156.2,352,1149.5,360.9,1149.5 M360.9,1147.5c-9.8,0-18.4,7.2-19.8,17.2c-1.5,11,6.1,21.1,17,22.6
					c0.9,0.1,1.9,0.2,2.8,0.2c9.8,0,18.4-7.2,19.8-17.2c1.5-11-6.1-21.1-17-22.6C362.8,1147.6,361.9,1147.5,360.9,1147.5
					L360.9,1147.5z"/>
			</g>
			<circle class="st58" cx="361.3" cy="1167.6" r="6.7"/>
			<g>
				<path class="st59" d="M352.4,1145.1c-0.1,0-0.2,0-0.3,0c-0.6-0.1-1.1-0.4-1.4-0.8c-0.3-0.4-0.5-1-0.4-1.6c0.1-1,1-1.8,2.1-1.8
					c0.1,0,0.2,0,0.3,0c1.2,0.2,2,1.2,1.8,2.4C354.4,1144.3,353.5,1145.1,352.4,1145.1z"/>
				<path class="st60" d="M352.4,1141.1L352.4,1141.1c0.1,0,0.2,0,0.3,0c0.5,0.1,0.9,0.3,1.2,0.7c0.3,0.4,0.4,0.9,0.4,1.4
					c-0.1,0.9-0.9,1.6-1.8,1.6c-0.1,0-0.2,0-0.3,0c-0.5-0.1-0.9-0.3-1.2-0.7c-0.3-0.4-0.4-0.9-0.4-1.4
					C350.7,1141.8,351.5,1141.1,352.4,1141.1 M352.4,1140.6c-1.2,0-2.2,0.9-2.3,2c-0.2,1.3,0.7,2.5,2,2.7c0.1,0,0.2,0,0.3,0
					c1.2,0,2.2-0.9,2.3-2c0.2-1.3-0.7-2.5-2-2.7C352.7,1140.6,352.5,1140.6,352.4,1140.6L352.4,1140.6z"/>
			</g>
			<g>
				<path class="st59" d="M366.7,1144c-0.1,0-0.2,0-0.3,0c-1.2-0.2-2-1.2-1.8-2.4c0.1-1,1-1.8,2.1-1.8c0.1,0,0.2,0,0.3,0
					c1.2,0.2,2,1.2,1.8,2.4C368.6,1143.2,367.7,1144,366.7,1144z"/>
				<g>
					<path class="st60" d="M366.6,1140L366.6,1140c0.1,0,0.2,0,0.3,0c0.5,0.1,0.9,0.3,1.2,0.7c0.3,0.4,0.4,0.9,0.4,1.4
						c-0.1,0.9-0.9,1.6-1.8,1.6c-0.1,0-0.2,0-0.3,0c-0.5-0.1-0.9-0.3-1.2-0.7c-0.3-0.4-0.4-0.9-0.4-1.4
						C364.9,1140.7,365.7,1140,366.6,1140 M366.6,1139.5c-1.2,0-2.2,0.9-2.3,2c-0.2,1.3,0.7,2.5,2,2.7c0.1,0,0.2,0,0.3,0
						c1.2,0,2.2-0.9,2.3-2c0.2-1.3-0.7-2.5-2-2.7C366.9,1139.5,366.8,1139.5,366.6,1139.5L366.6,1139.5z"/>
				</g>
			</g>
			<g>
				<path class="st61" d="M362.5,1156.9c-0.1,0-0.1,0-0.2,0c-0.7-0.1-1.2-0.8-1.1-1.5c0.1-0.6,0.6-1.1,1.3-1.1c0.1,0,0.1,0,0.2,0
					c0.3,0,0.7,0.2,0.9,0.5c0.2,0.3,0.3,0.6,0.3,1C363.7,1156.5,363.2,1156.9,362.5,1156.9z"/>
				<g>
					<path class="st62" d="M362.5,1154.6L362.5,1154.6c0,0,0.1,0,0.1,0c0.3,0,0.5,0.2,0.7,0.4c0.2,0.2,0.2,0.5,0.2,0.8
						c-0.1,0.5-0.5,0.9-1,0.9c0,0-0.1,0-0.1,0c-0.6-0.1-1-0.6-0.9-1.2C361.6,1155,362,1154.6,362.5,1154.6 M362.5,1154.1
						c-0.8,0-1.4,0.6-1.5,1.3c-0.1,0.9,0.5,1.6,1.3,1.8c0.1,0,0.1,0,0.2,0c0.8,0,1.4-0.6,1.5-1.3c0.1-0.9-0.5-1.6-1.3-1.8
						C362.7,1154.1,362.6,1154.1,362.5,1154.1L362.5,1154.1z"/>
				</g>
			</g>
			<g>
				<path class="st61" d="M372.4,1170.1c-0.1,0-0.1,0-0.2,0c-0.3,0-0.7-0.2-0.9-0.5c-0.2-0.3-0.3-0.6-0.3-1c0.1-0.6,0.6-1.1,1.3-1.1
					c0.1,0,0.1,0,0.2,0c0.7,0.1,1.2,0.8,1.1,1.5C373.6,1169.6,373.1,1170.1,372.4,1170.1z"/>
				<g>
					<path class="st62" d="M372.4,1167.7L372.4,1167.7c0,0,0.1,0,0.1,0c0.3,0,0.5,0.2,0.7,0.4c0.2,0.2,0.2,0.5,0.2,0.8
						c-0.1,0.5-0.5,0.9-1,0.9c0,0-0.1,0-0.1,0c-0.3,0-0.5-0.2-0.7-0.4c-0.2-0.2-0.2-0.5-0.2-0.8
						C371.4,1168.1,371.9,1167.7,372.4,1167.7 M372.4,1167.2c-0.8,0-1.4,0.6-1.5,1.3c-0.1,0.9,0.5,1.6,1.3,1.8c0.1,0,0.1,0,0.2,0
						c0.8,0,1.4-0.6,1.5-1.3c0.1-0.9-0.5-1.6-1.3-1.8C372.6,1167.2,372.5,1167.2,372.4,1167.2L372.4,1167.2z"/>
				</g>
			</g>
			<g>
				<path class="st61" d="M359.6,1179.6c-0.1,0-0.1,0-0.2,0c-0.3,0-0.7-0.2-0.9-0.5c-0.2-0.3-0.3-0.6-0.3-1c0.1-0.6,0.6-1.1,1.3-1.1
					c0.1,0,0.1,0,0.2,0c0.7,0.1,1.2,0.8,1.1,1.5C360.8,1179.1,360.2,1179.6,359.6,1179.6z"/>
				<g>
					<path class="st62" d="M359.5,1177.2L359.5,1177.2c0,0,0.1,0,0.1,0c0.3,0,0.5,0.2,0.7,0.4c0.2,0.2,0.2,0.5,0.2,0.8
						c-0.1,0.5-0.5,0.9-1,0.9c0,0-0.1,0-0.1,0c-0.6-0.1-1-0.6-0.9-1.2C358.6,1177.6,359,1177.2,359.5,1177.2 M359.5,1176.7
						c-0.8,0-1.4,0.6-1.5,1.3c-0.1,0.9,0.5,1.6,1.3,1.8c0.1,0,0.1,0,0.2,0c0.8,0,1.4-0.6,1.5-1.3c0.1-0.9-0.5-1.6-1.3-1.8
						C359.7,1176.7,359.6,1176.7,359.5,1176.7L359.5,1176.7z"/>
				</g>
			</g>
			<g>
				<path class="st61" d="M349.4,1167.5c-0.1,0-0.1,0-0.2,0c-0.3,0-0.7-0.2-0.9-0.5c-0.2-0.3-0.3-0.6-0.3-1c0.1-0.6,0.6-1.1,1.3-1.1
					c0.1,0,0.1,0,0.2,0c0.3,0,0.7,0.2,0.9,0.5c0.2,0.3,0.3,0.6,0.3,1C350.6,1167,350,1167.5,349.4,1167.5z"/>
				<g>
					<path class="st62" d="M349.4,1165.1L349.4,1165.1c0,0,0.1,0,0.1,0c0.3,0,0.5,0.2,0.7,0.4c0.2,0.2,0.2,0.5,0.2,0.8
						c-0.1,0.5-0.5,0.9-1,0.9c0,0-0.1,0-0.1,0c-0.3,0-0.5-0.2-0.7-0.4c-0.2-0.2-0.2-0.5-0.2-0.8
						C348.4,1165.5,348.8,1165.1,349.4,1165.1 M349.4,1164.6c-0.8,0-1.4,0.6-1.5,1.3c-0.1,0.9,0.5,1.6,1.3,1.8c0.1,0,0.1,0,0.2,0
						c0.8,0,1.4-0.6,1.5-1.3c0.1-0.9-0.5-1.6-1.3-1.8C349.5,1164.6,349.4,1164.6,349.4,1164.6L349.4,1164.6z"/>
				</g>
			</g>
			<g>
				<path class="st59" d="M380.1,1151.4c-0.1,0-0.2,0-0.3,0c-0.6-0.1-1.1-0.4-1.4-0.8c-0.3-0.4-0.5-1-0.4-1.6c0.1-1,1-1.8,2.1-1.8
					c0.1,0,0.2,0,0.3,0c1.2,0.2,2,1.2,1.8,2.4C382,1150.6,381.1,1151.4,380.1,1151.4z"/>
				<g>
					<path class="st60" d="M380.1,1147.4L380.1,1147.4c0.1,0,0.2,0,0.3,0c0.5,0.1,0.9,0.3,1.2,0.7c0.3,0.4,0.4,0.9,0.4,1.4
						c-0.1,0.9-0.9,1.6-1.8,1.6c-0.1,0-0.2,0-0.3,0c-0.5-0.1-0.9-0.3-1.2-0.7c-0.3-0.4-0.4-0.9-0.4-1.4
						C378.4,1148.1,379.2,1147.4,380.1,1147.4 M380.1,1146.9c-1.2,0-2.2,0.9-2.3,2c-0.2,1.3,0.7,2.5,2,2.7c0.1,0,0.2,0,0.3,0
						c1.2,0,2.2-0.9,2.3-2c0.2-1.3-0.7-2.5-2-2.7C380.3,1146.9,380.2,1146.9,380.1,1146.9L380.1,1146.9z"/>
				</g>
			</g>
			<g>
				<path class="st59" d="M386.2,1162c-0.1,0-0.2,0-0.3,0c-1.2-0.2-2-1.2-1.8-2.4c0.1-1,1-1.8,2.1-1.8c0.1,0,0.2,0,0.3,0
					c0.6,0.1,1.1,0.4,1.4,0.8c0.3,0.4,0.5,1,0.4,1.6C388.2,1161.2,387.3,1162,386.2,1162z"/>
				<g>
					<path class="st60" d="M386.2,1158L386.2,1158c0.1,0,0.2,0,0.3,0c0.5,0.1,0.9,0.3,1.2,0.7c0.3,0.4,0.4,0.9,0.4,1.4
						c-0.1,0.9-0.9,1.6-1.8,1.6c-0.1,0-0.2,0-0.3,0c-1-0.1-1.7-1.1-1.6-2.1C384.5,1158.7,385.3,1158,386.2,1158 M386.2,1157.5
						c-1.2,0-2.2,0.9-2.3,2c-0.2,1.3,0.7,2.5,2,2.7c0.1,0,0.2,0,0.3,0c1.2,0,2.2-0.9,2.3-2c0.2-1.3-0.7-2.5-2-2.7
						C386.4,1157.5,386.3,1157.5,386.2,1157.5L386.2,1157.5z"/>
				</g>
			</g>
			<g>
				<path class="st59" d="M386.4,1174.9c-0.1,0-0.2,0-0.3,0c-1.2-0.2-2-1.2-1.8-2.4c0.1-1,1-1.8,2.1-1.8c0.1,0,0.2,0,0.3,0
					c1.2,0.2,2,1.2,1.8,2.4C388.4,1174.1,387.5,1174.9,386.4,1174.9z"/>
				<g>
					<path class="st60" d="M386.4,1170.9L386.4,1170.9c0.1,0,0.2,0,0.3,0c0.5,0.1,0.9,0.3,1.2,0.7c0.3,0.4,0.4,0.9,0.4,1.4
						c-0.1,0.9-0.9,1.6-1.8,1.6c-0.1,0-0.2,0-0.3,0c-0.5-0.1-0.9-0.3-1.2-0.7c-0.3-0.4-0.4-0.9-0.4-1.4
						C384.7,1171.6,385.5,1170.9,386.4,1170.9 M386.4,1170.4c-1.2,0-2.2,0.9-2.3,2c-0.2,1.3,0.7,2.5,2,2.7c0.1,0,0.2,0,0.3,0
						c1.2,0,2.2-0.9,2.3-2c0.2-1.3-0.7-2.5-2-2.7C386.7,1170.4,386.5,1170.4,386.4,1170.4L386.4,1170.4z"/>
				</g>
			</g>
			<g>
				<path class="st59" d="M381.1,1186c-0.1,0-0.2,0-0.3,0c-1.2-0.2-2-1.2-1.8-2.4c0.1-1,1-1.8,2.1-1.8c0.1,0,0.2,0,0.3,0
					c1.2,0.2,2,1.2,1.8,2.4C383.1,1185.3,382.2,1186,381.1,1186z"/>
				<g>
					<path class="st60" d="M381.1,1182.1L381.1,1182.1c0.1,0,0.2,0,0.3,0c0.5,0.1,0.9,0.3,1.2,0.7c0.3,0.4,0.4,0.9,0.4,1.4
						c-0.1,0.9-0.9,1.6-1.8,1.6c-0.1,0-0.2,0-0.3,0c-0.5-0.1-0.9-0.3-1.2-0.7c-0.3-0.4-0.4-0.9-0.4-1.4
						C379.4,1182.8,380.2,1182.1,381.1,1182.1 M381.1,1181.6c-1.2,0-2.2,0.9-2.3,2c-0.2,1.3,0.7,2.5,2,2.7c0.1,0,0.2,0,0.3,0
						c1.2,0,2.2-0.9,2.3-2c0.2-1.3-0.7-2.5-2-2.7C381.3,1181.6,381.2,1181.6,381.1,1181.6L381.1,1181.6z"/>
				</g>
			</g>
			<g>
				<path class="st59" d="M370.4,1193.7c-0.1,0-0.2,0-0.3,0c-1.2-0.2-2-1.2-1.8-2.4c0.1-1,1-1.8,2.1-1.8c0.1,0,0.2,0,0.3,0
					c0.6,0.1,1.1,0.4,1.4,0.8c0.3,0.4,0.5,1,0.4,1.6C372.3,1192.9,371.4,1193.7,370.4,1193.7z"/>
				<g>
					<path class="st60" d="M370.4,1189.7L370.4,1189.7c0.1,0,0.2,0,0.3,0c1,0.1,1.7,1.1,1.6,2.1c-0.1,0.9-0.9,1.6-1.8,1.6
						c-0.1,0-0.2,0-0.3,0c-0.5-0.1-0.9-0.3-1.2-0.7s-0.4-0.9-0.4-1.4C368.7,1190.4,369.5,1189.7,370.4,1189.7 M370.4,1189.2
						c-1.2,0-2.2,0.9-2.3,2c-0.2,1.3,0.7,2.5,2,2.7c0.1,0,0.2,0,0.3,0c1.2,0,2.2-0.9,2.3-2c0.2-1.3-0.7-2.5-2-2.7
						C370.6,1189.3,370.5,1189.2,370.4,1189.2L370.4,1189.2z"/>
				</g>
			</g>
			<g>
				<path class="st59" d="M357.5,1195.9c-0.1,0-0.2,0-0.3,0c-1.2-0.2-2-1.2-1.8-2.4c0.1-1,1-1.8,2.1-1.8c0.1,0,0.2,0,0.3,0
					c1.2,0.2,2,1.2,1.8,2.4C359.4,1195.1,358.5,1195.9,357.5,1195.9z"/>
				<g>
					<path class="st60" d="M357.4,1192L357.4,1192c0.1,0,0.2,0,0.3,0c0.5,0.1,0.9,0.3,1.2,0.7c0.3,0.4,0.4,0.9,0.4,1.4
						c-0.1,0.9-0.9,1.6-1.8,1.6c-0.1,0-0.2,0-0.3,0c-0.5-0.1-0.9-0.3-1.2-0.7c-0.3-0.4-0.4-0.9-0.4-1.4
						C355.7,1192.6,356.5,1192,357.4,1192 M357.4,1191.5c-1.2,0-2.2,0.9-2.3,2c-0.2,1.3,0.7,2.5,2,2.7c0.1,0,0.2,0,0.3,0
						c1.2,0,2.2-0.9,2.3-2c0.2-1.3-0.7-2.5-2-2.7C357.7,1191.5,357.6,1191.5,357.4,1191.5L357.4,1191.5z"/>
				</g>
			</g>
			<g>
				<path class="st59" d="M346.4,1191.8c-0.1,0-0.2,0-0.3,0c-1.2-0.2-2-1.2-1.8-2.4c0.1-1,1-1.8,2.1-1.8c0.1,0,0.2,0,0.3,0
					c1.2,0.2,2,1.2,1.8,2.4C348.4,1191,347.5,1191.8,346.4,1191.8z"/>
				<g>
					<path class="st60" d="M346.4,1187.8L346.4,1187.8c0.1,0,0.2,0,0.3,0c0.5,0.1,0.9,0.3,1.2,0.7s0.4,0.9,0.4,1.4
						c-0.1,0.9-0.9,1.6-1.8,1.6c-0.1,0-0.2,0-0.3,0c-1-0.1-1.7-1.1-1.6-2.1C344.7,1188.5,345.5,1187.8,346.4,1187.8 M346.4,1187.3
						c-1.2,0-2.2,0.9-2.3,2c-0.2,1.3,0.7,2.5,2,2.7c0.1,0,0.2,0,0.3,0c1.2,0,2.2-0.9,2.3-2c0.2-1.3-0.7-2.5-2-2.7
						C346.7,1187.3,346.6,1187.3,346.4,1187.3L346.4,1187.3z"/>
				</g>
			</g>
			<g>
				<path class="st59" d="M338.2,1182.7c-0.1,0-0.2,0-0.3,0c-0.6-0.1-1.1-0.4-1.4-0.8s-0.5-1-0.4-1.6c0.1-1,1-1.8,2.1-1.8
					c0.1,0,0.2,0,0.3,0c1.2,0.2,2,1.2,1.8,2.4C340.1,1181.9,339.2,1182.7,338.2,1182.7z"/>
				<g>
					<path class="st60" d="M338.2,1178.7L338.2,1178.7c0.1,0,0.2,0,0.3,0c0.5,0.1,0.9,0.3,1.2,0.7c0.3,0.4,0.4,0.9,0.4,1.4
						c-0.1,0.9-0.9,1.6-1.8,1.6c-0.1,0-0.2,0-0.3,0c-0.5-0.1-0.9-0.3-1.2-0.7c-0.3-0.4-0.4-0.9-0.4-1.4
						C336.5,1179.4,337.3,1178.7,338.2,1178.7 M338.2,1178.2c-1.2,0-2.2,0.9-2.3,2c-0.2,1.3,0.7,2.5,2,2.7c0.1,0,0.2,0,0.3,0
						c1.2,0,2.2-0.9,2.3-2c0.2-1.3-0.7-2.5-2-2.7C338.4,1178.2,338.3,1178.2,338.2,1178.2L338.2,1178.2z"/>
				</g>
			</g>
			<g>
				<path class="st59" d="M334.4,1171.3c-0.1,0-0.2,0-0.3,0c-0.6-0.1-1.1-0.4-1.4-0.8c-0.3-0.4-0.5-1-0.4-1.6c0.1-1,1-1.8,2.1-1.8
					c0.1,0,0.2,0,0.3,0c0.6,0.1,1.1,0.4,1.4,0.8c0.3,0.4,0.5,1,0.4,1.6C336.3,1170.5,335.4,1171.3,334.4,1171.3z"/>
				<g>
					<path class="st60" d="M334.4,1167.3L334.4,1167.3c0.1,0,0.2,0,0.3,0c0.5,0.1,0.9,0.3,1.2,0.7c0.3,0.4,0.4,0.9,0.4,1.4
						c-0.1,0.9-0.9,1.6-1.8,1.6c-0.1,0-0.2,0-0.3,0c-0.5-0.1-0.9-0.3-1.2-0.7c-0.3-0.4-0.4-0.9-0.4-1.4
						C332.7,1168,333.5,1167.3,334.4,1167.3 M334.4,1166.8c-1.2,0-2.2,0.9-2.3,2c-0.2,1.3,0.7,2.5,2,2.7c0.1,0,0.2,0,0.3,0
						c1.2,0,2.2-0.9,2.3-2c0.2-1.3-0.7-2.5-2-2.7C334.6,1166.8,334.5,1166.8,334.4,1166.8L334.4,1166.8z"/>
				</g>
			</g>
			<g>
				<path class="st59" d="M335.6,1160.5c-0.1,0-0.2,0-0.3,0c-1.2-0.2-2-1.2-1.8-2.4c0.1-1,1-1.8,2.1-1.8c0.1,0,0.2,0,0.3,0
					c1.2,0.2,2,1.2,1.8,2.4C337.6,1159.8,336.7,1160.5,335.6,1160.5z"/>
				<g>
					<path class="st60" d="M335.6,1156.6L335.6,1156.6c0.1,0,0.2,0,0.3,0c0.5,0.1,0.9,0.3,1.2,0.7c0.3,0.4,0.4,0.9,0.4,1.4
						c-0.1,0.9-0.9,1.6-1.8,1.6c-0.1,0-0.2,0-0.3,0c-0.5-0.1-0.9-0.3-1.2-0.7c-0.3-0.4-0.4-0.9-0.4-1.4
						C333.9,1157.3,334.7,1156.6,335.6,1156.6 M335.6,1156.1c-1.2,0-2.2,0.9-2.3,2c-0.2,1.3,0.7,2.5,2,2.7c0.1,0,0.2,0,0.3,0
						c1.2,0,2.2-0.9,2.3-2c0.2-1.3-0.7-2.5-2-2.7C335.9,1156.1,335.7,1156.1,335.6,1156.1L335.6,1156.1z"/>
				</g>
			</g>
			<g>
				<path class="st59" d="M341.5,1150.9c-0.1,0-0.2,0-0.3,0c-1.2-0.2-2-1.2-1.8-2.4c0.1-1,1-1.8,2.1-1.8c0.1,0,0.2,0,0.3,0
					c0.6,0.1,1.1,0.4,1.4,0.8c0.3,0.4,0.5,1,0.4,1.6C343.4,1150.1,342.5,1150.9,341.5,1150.9z"/>
				<g>
					<path class="st60" d="M341.4,1146.9L341.4,1146.9c0.1,0,0.2,0,0.3,0c0.5,0.1,0.9,0.3,1.2,0.7c0.3,0.4,0.4,0.9,0.4,1.4
						c-0.1,0.9-0.9,1.6-1.8,1.6c-0.1,0-0.2,0-0.3,0c-1-0.1-1.7-1.1-1.6-2.1C339.7,1147.6,340.5,1146.9,341.4,1146.9 M341.4,1146.4
						c-1.2,0-2.2,0.9-2.3,2c-0.2,1.3,0.7,2.5,2,2.7c0.1,0,0.2,0,0.3,0c1.2,0,2.2-0.9,2.3-2c0.2-1.3-0.7-2.5-2-2.7
						C341.7,1146.4,341.6,1146.4,341.4,1146.4L341.4,1146.4z"/>
				</g>
			</g>
		</g>
		<path class="st63" d="M403.8,1196.9c0,0,24.2-50.6-22.9-76.7c0,0-27.7-10.3-47.2,3.7c-19.5,14-24.1,36.2-24.4,55.9
			c0,0-4.2-6.7-2-22.7c2.2-16,17.2-50.1,60.9-45.9c0,0,49.9,5.8,45.9,60.9C414.1,1172.1,412.7,1186.3,403.8,1196.9z"/>
		<path class="st68" d="M542.1,1025.8c0,0,17.6,51.4,17.1,116.9"/>
		<g>
			<path class="st70" d="M279.9,1174.8c-18.3,0-44.6-0.3-66-1.8c-8.6-0.6-15.5-3.9-20.7-10c-11.8-13.7-10.8-37.3-10.6-40l10.2-6
				l0.8-17.5l0.2-1.9c3.4,0.3,23.5,2.2,37.1,2.3c5.4,0,9.3-1.4,11.8-4.1c2-2.2,2.6-4.7,2.8-6.2l3.4,4.5c4.2,8.5,15,11.8,15.5,11.9
				l49.7,9.1c-23.9,22.2-17,54.7-15.8,59.6C296.2,1174.8,289.3,1174.8,279.9,1174.8z"/>
			<g>
				<path class="st65" d="M245.7,1090.9l2.6,3.5c4.4,8.7,15.3,12,15.8,12.1l0.1,0l0.1,0l48.7,8.9c-12.9,12.4-16.4,27.7-17,38.5
					c-0.6,9.7,1,17.4,1.7,20.3c-2.6,0-9.1,0.1-17.7,0.1c-18.3,0-44.6-0.3-66-1.8c-8.4-0.6-15.3-3.9-20.4-9.8
					c-6.4-7.5-9-17.9-9.9-25.3c-0.9-6.8-0.7-12.4-0.6-14.1l9.7-5.7l0.5-0.3l0-0.5l0.8-17.2l0.1-1.4c4.6,0.4,23.6,2.2,36.7,2.2h0.1
					c5.4,0,9.5-1.4,12.1-4.2C244.7,1094.4,245.4,1092.5,245.7,1090.9 M245,1088.2c0,0,0.9,11.2-14,11.2c0,0-0.1,0-0.1,0
					c-15,0-37.6-2.3-37.6-2.3l-0.2,2.4l-0.8,17.3l-10.2,6c0,0-3.9,48.4,31.8,50.8c21.7,1.5,48.4,1.8,66,1.8c11.4,0,19-0.1,19-0.1
					s-10.6-36.4,16.2-60.4l-50.7-9.2c0,0-11-3.2-15.2-11.7L245,1088.2L245,1088.2z"/>
			</g>
		</g>
		<path class="st11" d="M239.9,1122.9c0,0,28.6,1.2,31.8-14.9l42.5,7.7c0,0-19.3,15.2-17.2,42.9l-102.4,7.1c0,0-13.8-12.1-12.4-43
			l10.2-6C192.3,1116.8,209.9,1125.5,239.9,1122.9z"/>
		<path class="st65" d="M298.9,1175.2l-1.9-16.5l-102.4,7.1c0,0,7.4,7.1,19.3,7.8S298.9,1175.2,298.9,1175.2z"/>
		<path class="st10" d="M627.9,953.8c0,0,28.6,6,64.1,21c35.5,15.1,56.7,26.6,56.7,26.6s3.2,2.8,9.5,1.9c6.3-0.9,15.5-2.4,15.5-2.4
			s-70.7-41.8-130.8-54.7c0,0-2.6-1.1-5.4,0.4C634.6,948,627.9,953.8,627.9,953.8z"/>
		<path d="M731,1003.5c0,0,19.7,9.9,8.8,13.7l-16.7,3.3c0,0-7.3,0.1-15.1,0c-7.8-0.2-321.9,11.5-321.9,11.5s-17.7,0.4-28.9-6.5
			c-11.2-6.9-12-9.1-3.7-15.4s38.8-25.3,38.8-25.3s22.9-13.8,50.1-18.4c27.2-4.7,59.1-10.8,120.8-10.6
			C625,955.9,687.9,978.5,731,1003.5z"/>
		<path class="st75" d="M532.7,959.9l18.7,62.4l133.5-4.3l-1-29.8c0,0,1-2.9-6.3-5.4S606.8,952.7,532.7,959.9z"/>
		<path class="st75" d="M517,961.4c0,0,5.8,38.3,13.6,61l-127.9,5.3l-4.7-22.5c0,0,0.7-20.4,20.9-28.1
			C443.6,967.8,517,961.4,517,961.4z"/>
		<path class="st76" d="M524.5,959.8c0,0,8.6,40.5,17,62.4"/>
		<path class="st77" d="M677.9,995.1l-2.1,14.9c0,0,1.7,6.3,12.6,6.4s23.6-3.7,23.6-3.7s6.4-4.2,0.3-8.8s-11.1-9-24.6-11.2
			C679.6,991.4,677.9,995.1,677.9,995.1z"/>
		<path class="st78" d="M532.7,959.9l18.7,62.4c0,0,52-46.4,132.2-29.8l0.2-4.3c0,0,0.9-2.5-6.3-5.4S600.7,952.2,532.7,959.9z"/>
		<path class="st9" d="M627.9,953.8c0,0,81.3,13.8,145.9,47.1c0,0-67.1-40.6-130.8-54.7c0,0-3.1-1.4-6.9,1.5
			S627.9,953.8,627.9,953.8z"/>
		<path class="st79" d="M354.8,971.1l18.3,3.5c0,0-53.2,29.3-93.7,51.5l-22.5-1.4C256.9,1024.7,307.7,992.1,354.8,971.1z"/>
		<path class="st28" d="M189.6,1056.2l26.5,3.4c0,0,7.2-0.5,15.3,10s12.7,17.2,12.7,17.2s3.9,9.8-6.1,12.5
			c-10,2.6-45.8-0.2-45.8-0.2S187,1096.4,189.6,1056.2z"/>
		<path class="st67" d="M193.7,1073c0,0,36.4,3.5,40.7,0.3c0,0-7-12.6-18.4-14.3c-11.3-1.6-26.6-3.4-26.6-3.4l-0.3,16.5
			C189.1,1072.1,190.8,1072.6,193.7,1073z"/>
		<path class="st67" d="M242.7,1084.7c0,0-8.9,13.1-53.4,2.8c0,0,0.6,9.9,2.9,11.5c0,0,33,3.5,44.8,1.1
			C237,1100.1,251.4,1096.3,242.7,1084.7z"/>
		<path class="st80" d="M256.9,1024.7c0,0,62.5-38.1,90.5-36.1l28.1-13.5l-20.8-4C354.8,971.1,313.2,988.4,256.9,1024.7z"/>
		<path class="st78" d="M518.9,973.1c0,0-93.5,8.7-99,54.1l-17.2,0.5l-4.7-22.5c0,0-3.6-18.5,20.5-28.2
			c26.6-10.7,98.5-15.5,98.5-15.5L518.9,973.1z"/>
		<g>
			<path class="st71" d="M729.2,1034.6c0,0,81.6-6.3,141.6-1.5l20.7,18.5l14.7,6.2l-27.9,1.9c0,0-5-11.8-28.4-14.2
				c-23.4-2.4-53.4,0.6-93.6,14.8c0,0-7.8,1.9-10.6,26.2c-2.8,24.3-5.8,42.4-5.8,42.4l-2.2,0
				C737.6,1128.9,742.8,1075.1,729.2,1034.6z"/>
		</g>
		<path class="st81" d="M754.5,1039.7l-9.3,0.9c0,0-1.2,0.4-1.1,4c0,3.6,0.4,4.3,4.5,3.8c4.1-0.5,8.1-1,8.1-1s2.9,0.8,1.7-5.6
			C758.3,1041.9,759.2,1038.3,754.5,1039.7z"/>
		<path class="st82" d="M279.4,1026.1c0,0-23.7,12.2-83.2,23.7l-0.4,6.4"/>
		<path class="st82" d="M376.3,1030.3c0,0-0.1,5.4-3.4,8.5c0,0-2.1,3-1.8,6.4c0.2,3.4-0.2,7.8,0,9.5l34.3,45.1"/>
		<path class="st68" d="M723.2,1020.5c0,0,5.5,10.3,6,14.1c0.6,3.8,8.9,20.8,9.6,52.7c0.6,31.9,1.1,41.7,1.1,41.7"/>
		<path class="st82" d="M947.4,1052.5c0,0-2,6.3-21.4,5.4s-65.2,3.5-83.1,6.2"/>
	</g>
</g>
<g id="thirteen_00000173859306950962761430000017419446578002950540_">
</g>
<g id="fourteen">
</g>
<g id="fifteen_00000103262623346785252190000005497341088573515404_">
</g>
<g id="sixteen_00000052784415532825981170000013120508718389060798_">
</g>
<g id="seventeen_00000052799129178776355750000005236059528330747796_">
</g>
<g id="eighteen_00000054256262866476431880000018286803152678894488_">
</g>
<g id="nineteen_00000107558268356232088990000008456042227242415802_">
</g>
<g id="twenty">
</g>
</svg>
