<?xml version="1.0" encoding="utf-8"?>
<!-- Generator: Adobe Illustrator 27.2.0, SVG Export Plug-In . SVG Version: 6.00 Build 0)  -->
<svg version="1.1" xmlns="http://www.w3.org/2000/svg" xmlns:xlink="http://www.w3.org/1999/xlink" x="0px" y="0px"
	 viewBox="0 0 2250.5 1926.5" style="enable-background:new 0 0 2250.5 1926.5;" xml:space="preserve">
<style type="text/css">
	.st0{fill:#E8E6E6;stroke:#ADADAD;stroke-miterlimit:10;}
	.st1{fill:#F3F2F7;}
	.st2{fill:#030303;}
	.st3{fill:#353131;}
	.st4{fill:none;stroke:#ADADAD;stroke-width:2;stroke-miterlimit:10;}
	.st5{fill:none;stroke:#F3F2F7;stroke-width:2;stroke-miterlimit:10;}
	.st6{fill:#0A1205;}
	.st7{fill:#F3F2F7;stroke:#ADADAD;stroke-width:0.75;stroke-miterlimit:10;}
	.st8{fill:#ADADAD;}
	.st9{fill:#282828;}
	.st10{fill:#3A3A3A;}
	.st11{fill:#0A54A2;}
	.st12{fill:none;stroke:#E8E6E6;stroke-width:0.9742;stroke-miterlimit:10;}
	.st13{fill:#2E2E2E;}
	.st14{fill:#333333;}
	.st15{fill:#939393;stroke:#ADADAD;stroke-miterlimit:10;}
	.st16{fill:#D1D1D1;}
	.st17{fill:#191919;}
	.st18{fill:#666666;stroke:#ADADAD;stroke-miterlimit:10;}
	.st19{fill:#363636;}
	.st20{fill:none;stroke:#ADADAD;stroke-miterlimit:10;}
	.st21{fill:#121212;}
	.st22{fill:#0E0A12;}
	.st23{fill:#6E6E6E;}
	.st24{fill:#4E4E4E;}
	.st25{fill:#1E1E1E;}
	.st26{fill:#646464;}
	.st27{fill:#999999;}
	.st28{fill:#9E9E9E;}
	.st29{fill:#6D6D6D;}
	.st30{fill:#B5B5B5;}
	.st31{fill:#3E3E3E;}
	.st32{fill:#0D0F0C;}
	.st33{fill:none;stroke:#0E0A12;stroke-width:0.8371;stroke-miterlimit:10;}
	.st34{fill:#7D7D7D;}
	.st35{fill:#424242;}
	.st36{fill:#8A8A8A;}
	.st37{fill:#BCBCBC;stroke:#ADADAD;stroke-miterlimit:10;}
	.st38{fill:#8A8A8A;stroke:#6B6B6B;stroke-width:0.9619;stroke-miterlimit:10;}
	.st39{fill:none;stroke:#6B6B6B;stroke-width:0.7215;stroke-miterlimit:10;}
	.st40{fill:none;stroke:#A9A9AA;stroke-width:0.75;stroke-miterlimit:10;}
	.st41{fill:#484D4E;}
	.st42{fill:none;stroke:#111111;stroke-width:3;stroke-miterlimit:10;}
	.st43{fill:#282828;stroke:#0A0A0A;stroke-miterlimit:10;}
	.st44{fill:#F0221F;stroke:#BB1719;stroke-miterlimit:10;}
	.st45{fill:#BB1719;}
	.st46{fill:#FC7C88;stroke:#BB1719;stroke-miterlimit:10;}
	.st47{fill:none;stroke:#BB1719;stroke-width:3;stroke-miterlimit:10;}
	.st48{fill:#FC7C88;}
	.st49{fill:#FC7C88;stroke:#BB1719;stroke-width:3;stroke-miterlimit:10;}
	.st50{fill:#F0221F;}
	.st51{fill:#E8E6E6;stroke:#ADADAD;stroke-width:2;stroke-miterlimit:10;}
	.st52{opacity:0.59;fill:#F3F2F7;}
	.st53{fill:#080806;}
	.st54{fill:#9B9B9B;}
	.st55{fill:#2B2B2B;}
	.st56{fill:#C1BFBF;}
	.st57{fill:#D6D6D6;}
	.st58{fill:#4C4B4B;stroke:#A5A5A5;stroke-miterlimit:10;}
	.st59{fill:#444343;}
	.st60{fill:#727272;}
	.st61{fill:#A0A0A0;}
	.st62{fill:#999898;}
	.st63{fill:#444242;}
	.st64{fill:#157FCE;}
	.st65{fill:#134468;}
	.st66{fill:#092947;}
	.st67{fill:#D5D3D7;}
	.st68{fill:none;stroke:#134468;stroke-miterlimit:10;}
	.st69{fill:none;stroke:#0F63AD;stroke-miterlimit:10;}
	.st70{fill:#1672B7;}
	.st71{fill:#2066A0;}
	.st72{fill:#1B8ACE;}
	.st73{fill:none;stroke:#157FCE;stroke-miterlimit:10;}
	.st74{fill:none;stroke:#0A54A2;stroke-miterlimit:10;}
	.st75{fill:#3F3F3F;}
	.st76{fill:none;stroke:#282828;stroke-width:2;stroke-miterlimit:10;}
	.st77{fill:#7F7F7F;}
	.st78{fill:#2D2D2D;}
	.st79{fill:#4C4C4C;}
	.st80{fill:#383838;}
	.st81{fill:#9E9E9E;stroke:#0A55A3;stroke-miterlimit:10;}
	.st82{fill:none;stroke:#134468;stroke-width:0.75;stroke-miterlimit:10;}
	.st83{display:none;fill:#24242A;}
	.st84{display:none;fill:none;stroke:#848484;stroke-miterlimit:10;}
	.st85{display:none;fill:#30292D;}
	.st86{fill:#E8E6E6;}
	.st87{fill:#8C8C8C;}
	.st88{fill:#FCFCFC;stroke:#8C8C8C;stroke-miterlimit:10;}
	.st89{fill:#E8E6E6;stroke:#8C8C8C;stroke-miterlimit:10;}
	.st90{fill:#E8E6E6;stroke:#8C8C8C;stroke-width:2;stroke-miterlimit:10;}
	.st91{fill:none;stroke:#8C8C8C;stroke-width:2;stroke-miterlimit:10;}
	.st92{fill:none;stroke:#FCFCFC;stroke-width:3;stroke-miterlimit:10;}
	.st93{fill:#FCFCFC;}
	.st94{fill:#ADADAD;stroke:#8C8C8C;stroke-miterlimit:10;}
	.st95{fill:#FAFAFC;stroke:#ADADAD;stroke-width:0.75;stroke-miterlimit:10;}
	.st96{fill:none;stroke:#111111;stroke-width:3.6024;stroke-miterlimit:10;}
	.st97{fill:none;stroke:#111111;stroke-width:3.6093;stroke-miterlimit:10;}
	.st98{fill:none;stroke:#111111;stroke-width:3.5727;stroke-miterlimit:10;}
	.st99{fill:none;stroke:#111111;stroke-width:3.5263;stroke-miterlimit:10;}
	.st100{fill:none;stroke:#111111;stroke-width:3.4845;stroke-miterlimit:10;}
	.st101{fill:none;stroke:#111111;stroke-width:3.4337;stroke-miterlimit:10;}
	.st102{fill:none;stroke:#111111;stroke-width:3.3788;stroke-miterlimit:10;}
	.st103{fill:none;stroke:#111111;stroke-width:3.3233;stroke-miterlimit:10;}
	.st104{fill:none;stroke:#111111;stroke-width:3.2747;stroke-miterlimit:10;}
	.st105{fill:none;stroke:#111111;stroke-width:3.207;stroke-miterlimit:10;}
	.st106{fill:none;stroke:#111111;stroke-width:3.1652;stroke-miterlimit:10;}
	.st107{fill:none;stroke:#111111;stroke-width:3.099;stroke-miterlimit:10;}
	.st108{fill:none;stroke:#111111;stroke-width:3.0584;stroke-miterlimit:10;}
	.st109{fill:none;stroke:#111111;stroke-width:3.0299;stroke-miterlimit:10;}
</style>
<g id="original">
</g>
<g id="one">
</g>
<g id="two_00000026882943921159275490000004360688784792002186_">
</g>
<g id="three_00000113338737259881679640000015971704404683786636_">
</g>
<g id="four_00000049184186550712051260000002601905804867817144_">
</g>
<g id="five_00000179643197332058435300000007386453149388464260_">
</g>
<g id="six">
</g>
<g id="seven_00000062194613864970919320000012156796603096136882_">
</g>
<g id="eight">
</g>
<g id="nine">
</g>
<g id="ten_00000098906372602984753350000010503549982832515468_">
</g>
<g id="eleven_00000180345820641820120410000009044592103142380464_">
</g>
<g id="twelve">
</g>
<g id="thirteen_00000173859306950962761430000017419446578002950540_">
</g>
<g id="fourteen">
</g>
<g id="fifteen_00000103262623346785252190000005497341088573515404_">
</g>
<g id="sixteen_00000052784415532825981170000013120508718389060798_">
</g>
<g id="seventeen_00000052799129178776355750000005236059528330747796_">
	<g>
		<path class="st86" d="M1971.8,828.7c-0.9-1.5-5.8-8.5-17.3-9.1c-12.1-0.7-193.8-3.9-204.5-4.1c0-2.4,0.1-13.1,5.3-18.6
			c2.1-2.2,4.8-3.3,8-3.3c14.8,0,186.9,6.1,188.6,6.1c0.3,0,31.7,2.1,37.6,28.6L1971.8,828.7z"/>
		<path class="st87" d="M1763.3,794c14.8,0,186.9,6.1,188.6,6.1c0.1,0,8.1,0.5,16.7,4.3c11,4.9,17.8,12.7,20.3,23.3l-16.8,0.4
			c-1.3-2-6.3-8.5-17.5-9.1c-11.9-0.7-189.3-3.8-204.1-4.1c0-3,0.4-12.7,5.2-17.8C1757.7,795.1,1760.2,794,1763.3,794 M1763.3,793
			c-15,0-13.9,23-13.9,23s192.5,3.4,205,4.1c12.5,0.7,17,9.1,17,9.1l18.6-0.5c-5.7-27.7-38.2-29.5-38.2-29.5S1778.3,793,1763.3,793
			L1763.3,793z"/>
	</g>
	<path class="st88" d="M1954.3,806.6l-141.9-6.1l21.4,8l117.6,4.2c0,0,16.5-0.2,25.8,15.2h5.2C1982.4,828,1977.2,807.8,1954.3,806.6
		z"/>
	<path class="st89" d="M1749.5,816l-0.5,12l201,1.9c0,0,11,0,13.4,13.4c2.4,13.4,21.5,113,21.5,113l0.8,128.3l32.7-0.8
		c0,0,9.4,1.1,9.4-8.3c0-9.4,0-44.6,0-44.6s0.5-5.9-5.4-8.1v-45.6h-16c0,0-10.2,0.8-11.3-15.9c-1.2-16.8-22-124.3-22-124.3
		s-1.5-2.4-1.7-7.8c0,0-5.8-8.8-17-9.1C1943.2,819.7,1749.5,816,1749.5,816z"/>
	<path class="st2" d="M1990.1,828.7l25.2,136.1l-22.6-21.3L1973.2,837c0,0-1.8-3.5-1.7-7.8L1990.1,828.7z"/>
	<path class="st2" d="M2018.1,951.3c0,0,5.4,9.2,3.2,17.8h-3l0.8,7.9l-12.5,0.2c0,0-10.3,0.4-11.3-15.9l-2.4-17.8l22.6,21.3
		c0,0,5.4-5.7-0.4-13.3c0,0-2.1-1.9-4.6,0.3c-2.5,2.2-3.9-1.7,0-3.6S2018.1,951.3,2018.1,951.3z"/>
	<polygon class="st3" points="1977.4,829.2 2005.3,913.3 1990.1,828.7 	"/>
	<path class="st90" d="M1749,828c0,0-5.4,110.4-4.1,200.8l240.1-0.9l-0.1-71.6l-21.5-113c0,0-1.7-13.4-13.4-13.4
		C1938.3,829.9,1749,828,1749,828z"/>
	<path class="st91" d="M1766.6,898.5l-0.3-47.2c0,0-0.6-8.8,12.4-9.1c13-0.3,24.8,0,24.8,0s9.1-2.1,9.1,11.8s-0.3,45.7-0.3,45.7"/>
	<path class="st92" d="M1765.7,909.4l-0.3,31.6c0,0-1.5,7.4,7.4,7.4c8.8,0,33.9,0,33.9,0s5,2.7,5-6.2s0-26,0-26"/>
	<path class="st91" d="M1764.8,979l0.3,33.6c0,0-0.9,5.3,5.3,5.3c6.2,0,39.5-0.3,39.5-0.3s4.7,1.8,4.4-6.2c-0.3-8-0.6-33-0.6-33
		s0.6-6.2-6.2-6.2c-6.8,0-38.3,0.6-38.3,0.6S1764.8,972.3,1764.8,979z"/>
	<line class="st91" x1="1826.7" y1="828.6" x2="1826.7" y2="1028"/>
	<polygon class="st6" points="1833.2,976.7 1833.5,995 1853.5,994.7 1853.5,976.7 	"/>
	<path class="st93" d="M1834.1,1001.4c0,0-1.2,10,14.2,9.7c15.3-0.3,115.3,0,115.3,0l-48.4-5.9h-66.9c0,0,0.3-3.8-4.1-4.1
		C1839.7,1000.9,1834.1,1001.4,1834.1,1001.4z"/>
	<path class="st87" d="M1837,842.2l4.7,67.2l-0.3-62.8c0,0-2.1-6.8,13.6-6.5c15.6,0.3,89.9,0.6,89.9,0.6s7.1-1.8,9.4,17.1
		c2.4,18.9,4.7,36.9,4.7,36.9l-2.1-45.7c0,0,0.7-11.8-13.6-11.6c-14.3,0.2-97.4-0.8-97.4-0.8S1838,836.3,1837,842.2z"/>
	<path class="st93" d="M1962,912.4l7.6,32.9c0,0,2.6,12.9-9.2,13.4c-11.8,0.5-111.3-5.3-111.3-5.3s-9.5-2.6-10-11.3
		s-0.3-27.4-0.3-27.4l2.6,25.5c0,0,0.3,8.4,7.9,9.5s109.2,6.1,109.2,6.1s11.1,2.9,7.4-19.2S1962,912.4,1962,912.4z"/>
	<path class="st9" d="M1841.7,914.8l-0.3,25.5c0,0,0.1,8.6,7.9,9.5c7.8,0.8,109.2,6.1,109.2,6.1s10.8,2.4,7.4-19.2
		s-12.8-85.5-12.8-85.5s-1.2-10-8.1-10.4c-6.9-0.3-95.2-1-95.2-1s-8.7-1.3-8.7,5.9C1841,852.9,1841.7,914.8,1841.7,914.8z"/>
	<polygon class="st2" points="1933,831 1933,837.9 1950.2,838.4 1949.9,831 	"/>
	<path class="st10" d="M1841.3,864.2c0,0,96.3,16.1,107.9,91.5l9.3,0.1c0,0,10.8,1.4,7.4-19.2c-3.5-20.6-12.8-85.5-12.8-85.5
		s-1.4-10.2-8.1-10.4s-95.2-1-95.2-1s-8.6-0.9-8.7,5.9C1841,852.5,1841.3,864.2,1841.3,864.2z"/>
	<polygon class="st2" points="1939.7,837.2 1939.8,848.3 1943.3,848.2 1943.5,837.4 	"/>
	<path class="st2" d="M1935.5,848.4l0.7,93.5h7.2c0,0,6.1-6.3,6.1-15.6l-0.2-66c0,0-1.4-10.9-5.9-12.1L1935.5,848.4z"/>
	<polygon class="st2" points="1939.3,970.7 1939.3,941.5 1943.5,941.8 1943.5,970.1 	"/>
	<polygon class="st2" points="1946.9,969.8 1950.6,969.9 1950.6,976.3 1931.8,976.3 1931.8,969.9 	"/>
	<path class="st11" d="M1818.6,772.1l17.4,0.2v18.3c0,0-4.6,1.4-19.2,0v-18.5L1818.6,772.1z"/>
	<path class="st87" d="M1838.9,789.9l0.1,6l-24.3-0.5v-5.9C1814.8,789.5,1823.8,792.4,1838.9,789.9z"/>
	<path class="st0" d="M1744.9,1028.8l0.4,26.2H1851c0,0,49,1.9,59.1,28.8l75.7,0.9l-0.7-56.7L1744.9,1028.8z"/>
	<path class="st89" d="M1744.9,1028.8l0.4,26.2H1851c0,0,49,1.9,59.1,28.8l75.7,0.9l-0.7-56.7L1744.9,1028.8z"/>
	<polygon class="st6" points="1982.4,1048.4 1960.6,1027.8 1979,1027.9 1985,1033.9 1985,1051.3 	"/>
	<path class="st6" d="M1945.1,1028.4l27.3,26.4h-18l-26.2-26.2C1928.1,1028.6,1945.1,1028.4,1945.1,1028.4z"/>
	<path class="st6" d="M1911.8,1028.6l26.6,26.6h-17.6l-26.5-26.5C1894.3,1028.8,1911.7,1028.7,1911.8,1028.6z"/>
	<path class="st6" d="M1879.6,1028.6l26.6,26.6h-17.6l-26.5-26.5C1862.1,1028.8,1879.5,1028.7,1879.6,1028.6z"/>
	<path class="st6" d="M1845.8,1028.6l26.6,26.6h-17.6l-26.5-26.5C1828.3,1028.8,1845.8,1028.7,1845.8,1028.6z"/>
	<path class="st6" d="M1812.4,1028.6l26.6,25.8h-17.6l-26.5-25.7C1794.9,1028.8,1812.4,1028.7,1812.4,1028.6z"/>
	<path class="st6" d="M1778.7,1029.1l26.6,25.3h-17.6l-26.5-25.1C1761.2,1029.3,1778.6,1029.2,1778.7,1029.1z"/>
	<path class="st6" d="M1744.9,1028.8l25.9,25.9h-16.4l-8.7-8.7l-0.7-0.7C1745.1,1045.3,1744.9,1028.6,1744.9,1028.8z"/>
	<path class="st94" d="M2022.5,1022.9h-26.9l8,8l24.3,0C2027.9,1030.9,2028.9,1025.3,2022.5,1022.9z"/>
	<path class="st94" d="M1985,1027.9c0,0,5.7,1.4,6,6.4v41.2l36.9-0.1c0,0,1.1,8.3-9.4,8.3c-10.5,0-32.7,0.8-32.7,0.8L1985,1027.9z"
		/>
	<polygon class="st13" points="1934.9,1180.6 1985.4,1180.5 1985.4,1084.6 1910.1,1083.7 	"/>
	<polygon class="st0" points="1930,1112.7 1985.6,1112.7 1985.6,1117.8 1930.1,1117.8 	"/>
	<path class="st0" d="M1985.3,1144.9h-51.9v3.9h52.2C1985.6,1148.8,1985.3,1144.2,1985.3,1144.9z"/>
	<path class="st0" d="M1933.9,1175.6h51.2v4.4h-51.7C1933.4,1180,1934.3,1175.2,1933.9,1175.6z"/>
	<path class="st2" d="M1916.2,1142.9l-15.1,13.3c0,0-33.2-69.2-81.4-59.5c-48.3,9.7-70.3,61.6-70.3,61.6l-16.6-15.5l21.3-64.5
		l78.6-5.4l64.1,7.6l18,45.8L1916.2,1142.9z"/>
	<circle class="st14" cx="1825.2" cy="1172.2" r="78.7"/>
	<circle class="st15" cx="1825.5" cy="1170.1" r="48.8"/>
	<circle class="st12" cx="1825.5" cy="1170.1" r="48.8"/>
	<circle class="st16" cx="1825.2" cy="1169.5" r="42.8"/>
	<circle class="st17" cx="1825.8" cy="1170.6" r="18.4"/>
	<circle class="st18" cx="1813.7" cy="1149.5" r="2.5"/>
	<circle class="st18" cx="1825.7" cy="1146.5" r="2.5"/>
	<circle class="st18" cx="1838" cy="1150.2" r="2.5"/>
	<circle class="st18" cx="1846.4" cy="1158.4" r="2.5"/>
	<circle class="st18" cx="1849.1" cy="1170.8" r="2.5"/>
	<circle class="st18" cx="1846.6" cy="1182.7" r="2.5"/>
	<circle class="st18" cx="1838" cy="1191.4" r="2.5"/>
	<circle class="st18" cx="1826" cy="1194.5" r="2.5"/>
	<circle class="st18" cx="1812.9" cy="1190.9" r="2.5"/>
	<circle class="st18" cx="1804.8" cy="1182.4" r="2.5"/>
	<circle class="st18" cx="1801.7" cy="1170.4" r="2.5"/>
	<circle class="st18" cx="1804.5" cy="1158" r="2.5"/>
	<path class="st19" d="M1800.8,1134.6c0,0,4,14.9-10.7,11.3C1790.1,1145.9,1792.3,1139.7,1800.8,1134.6z"/>
	<path class="st19" d="M1817.3,1127.6c0,0,6.4,12,17.4,0.5C1834.7,1128.1,1826.9,1125.1,1817.3,1127.6z"/>
	<path class="st19" d="M1849.3,1134.6c0,0-3.1,14.6,11.7,11.7C1860.9,1146.2,1856.4,1137.9,1849.3,1134.6z"/>
	<path class="st19" d="M1867,1161.8c0,0-9.2,9.9-0.5,17.9C1866.5,1179.6,1869.6,1172.2,1867,1161.8z"/>
	<path class="st19" d="M1849.9,1204.5c0,0-0.9-11.3,10.3-10.7C1860.1,1193.8,1856.9,1199.7,1849.9,1204.5z"/>
	<path class="st19" d="M1833.4,1211.2c0,0-7.1-9.9-16.6,0.2C1816.8,1211.3,1823.9,1213.8,1833.4,1211.2z"/>
	<path class="st19" d="M1790.1,1193.8c0,0,12.1-1.7,11,10.7C1801.1,1204.5,1795.5,1201.5,1790.1,1193.8z"/>
	<path class="st19" d="M1783.2,1161.3c0,0,10.4,8.4,0.5,18.3C1783.7,1179.6,1781.2,1172.8,1783.2,1161.3z"/>
	<path d="M1899.4,1145.5c0,0,23.1,81.5-72,102.5c0,0-87.4-4.1-76.9-102c0,0-20.5,55.5,31,92c0,0,20.3,14.8,47,13
		c26.7-1.8,52.7-13.7,68.6-46.2C1906.4,1179.4,1905.4,1169.3,1899.4,1145.5z"/>
	<path class="st20" d="M1744.9,1028.8l0.4,26.2H1851c0,0,49,1.9,59.1,28.8l75.7,0.9l-0.7-56.7L1744.9,1028.8z"/>
	<circle class="st20" cx="1825.2" cy="1169.5" r="42.8"/>
	<path class="st0" d="M2012.1,1084l0.4,13.4c0,0,15.7,4.2,15.9,14.8v65c0,0,1.1,6.7-6.7,6.7c-7.8,0-36.3,0-36.3,0l0.3-99.2
		L2012.1,1084z"/>
	<path class="st95" d="M2018.1,1114.2v24c0,0-0.4,4.7,4.3,4.7c4.7,0,6.1,0,6.1,0l-0.2-30.7C2028.3,1112.2,2021.5,1110,2018.1,1114.2
		z"/>
	<path class="st95" d="M2028.4,1154.9c0,0-11.2-1.8-10.8,6.5c0.3,8.2,9.2,6.7,10.8,6.4V1154.9z"/>
	<path class="st94" d="M2027.1,1107.8c0,0-13.6-6.4-32.8-2.9l-0.7,74c0,0,29.9,4.5,34.7-1.8c0,0,1.8,6.5-6.7,6.7
		c-8.5,0.1-36.3,0-36.3,0l0.3-99.2l26.4-0.6l0.4,13.4C2012.5,1097.4,2025.1,1101.5,2027.1,1107.8z"/>
	<polygon class="st21" points="1013.4,1076.7 1013.4,1130.6 1195.9,1169.4 1237.4,1145.8 1599.7,1145.8 1741.4,1146.5 1754,1078.3 	
		"/>
	<circle class="st22" cx="1620.7" cy="1142.9" r="22.5"/>
	<circle class="st22" cx="1670" cy="1142.9" r="22.5"/>
	<path class="st23" d="M1634.9,1126c0,0-15-5.6-25.6,4.2c-10.6,9.8-10,20.6-10,20.6s-4.6-16.6,7.9-25.8S1633.3,1122.9,1634.9,1126z"
		/>
	<path class="st23" d="M1684,1126c0,0-15-5.6-25.6,4.2c-10.6,9.8-10,20.6-10,20.6s-4.6-16.6,7.9-25.8S1682.5,1122.9,1684,1126z"/>
	<path class="st24" d="M1392.5,1104.1v73.5h200.8v-73.8C1593.3,1103.8,1391.5,1104.1,1392.5,1104.1z"/>
	<path class="st25" d="M1543.6,1096.6v11.2h10.7v-11.2C1554.3,1096.6,1543.3,1096.6,1543.6,1096.6z"/>
	<polygon class="st26" points="1550.1,1101.2 1550.1,1107.8 1554.3,1107.8 1554.3,1096.6 1550,1096.6 	"/>
	<polygon class="st27" points="1398.3,1104.5 1398.3,1177.8 1392.5,1177.8 1392.5,1104.1 1398.3,1104.1 	"/>
	<path class="st28" d="M1418.3,1100.5v77.9h7.3v-77.8C1425.6,1100.6,1418.8,1100.5,1418.3,1100.5z"/>
	<path class="st28" d="M1491.2,1100.4v77.5h7.9v-77.5C1499.1,1100.4,1491.2,1100,1491.2,1100.4z"/>
	<path class="st28" d="M1564,1100.1v78.5h7.8v-78v-0.5C1571.8,1100,1563.8,1100.1,1564,1100.1z"/>
	<path class="st28" d="M1588.9,1103.8v73.6h4.3v-73.6C1593.3,1103.8,1588.9,1104.1,1588.9,1103.8z"/>
	<path class="st29" d="M1398.4,1120.1h19.8v5h-19.8C1398.4,1125.1,1398.2,1119.9,1398.4,1120.1z"/>
	<path class="st29" d="M1572,1120.1h16.7v5H1572C1572,1125.1,1571.8,1119.9,1572,1120.1z"/>
	<path class="st29" d="M1425.9,1120.1h64.9v5h-64.9C1425.9,1125.1,1425.3,1119.9,1425.9,1120.1z"/>
	<path class="st29" d="M1499.5,1120.1h64.5v5h-64.5C1499.5,1125.1,1498.9,1119.9,1499.5,1120.1z"/>
	<path class="st30" d="M1392.5,1120.1h5.9v4.9h-5.8C1392.6,1125.1,1392.5,1120,1392.5,1120.1z"/>
	<path class="st30" d="M1418.3,1120.1h7.3v5.8h-7.3C1418.3,1125.8,1418.3,1120.1,1418.3,1120.1z"/>
	<path class="st30" d="M1491.2,1120.1h7.9v5.8h-7.9C1491.2,1125.8,1491.1,1120.1,1491.2,1120.1z"/>
	<path class="st30" d="M1563.9,1120.1h8v5.8h-8C1563.9,1125.8,1563.8,1120.1,1563.9,1120.1z"/>
	<path class="st30" d="M1588.7,1120.3h4.5v4.9h-4.4C1588.8,1125.2,1588.7,1120.2,1588.7,1120.3z"/>
	<path class="st31" d="M1241.9,1154.1v-37.6c0,0,0.7-6.3,15.2-6.3c14.5,0,121.1,0,121.1,0s7.9-1,7.9,9.6s0,50.8,0,50.8
		s1.3,7.3-14.2,7.3s-121.8,0-121.8,0s-8.3,0.7-8.3-8.6S1241.9,1154.1,1241.9,1154.1z"/>
	<path class="st32" d="M1310.5,1138.9v12.2h8.8v-12.4C1319.3,1138.7,1310.4,1138.8,1310.5,1138.9z"/>
	<line class="st33" x1="1385.7" y1="1145.7" x2="1242.1" y2="1145.7"/>
	<circle class="st14" cx="1118.4" cy="1172.2" r="78.7"/>
	<circle class="st15" cx="1118.8" cy="1170.1" r="48.8"/>
	<circle class="st12" cx="1118.8" cy="1170.1" r="48.8"/>
	<circle class="st16" cx="1118.4" cy="1169.5" r="42.8"/>
	<circle class="st17" cx="1119" cy="1170.6" r="18.4"/>
	<circle class="st18" cx="1106.9" cy="1149.5" r="2.5"/>
	<circle class="st18" cx="1118.9" cy="1146.5" r="2.5"/>
	<circle class="st18" cx="1131.2" cy="1150.2" r="2.5"/>
	<circle class="st18" cx="1139.7" cy="1158.4" r="2.5"/>
	<circle class="st18" cx="1142.3" cy="1170.8" r="2.5"/>
	<circle class="st18" cx="1139.8" cy="1182.7" r="2.5"/>
	<circle class="st18" cx="1131.2" cy="1191.4" r="2.5"/>
	<circle class="st18" cx="1119.2" cy="1194.5" r="2.5"/>
	<circle class="st18" cx="1106.1" cy="1190.9" r="2.5"/>
	<circle class="st18" cx="1098.1" cy="1182.4" r="2.5"/>
	<circle class="st18" cx="1094.9" cy="1170.4" r="2.5"/>
	<circle class="st18" cx="1097.7" cy="1158" r="2.5"/>
	<path class="st19" d="M1094,1134.6c0,0,4,14.9-10.7,11.3C1083.3,1145.9,1085.5,1139.7,1094,1134.6z"/>
	<path class="st19" d="M1110.5,1127.6c0,0,6.4,12,17.4,0.5C1127.9,1128.1,1120.1,1125.1,1110.5,1127.6z"/>
	<path class="st19" d="M1142.5,1134.6c0,0-3.1,14.6,11.7,11.7C1154.1,1146.2,1149.6,1137.9,1142.5,1134.6z"/>
	<path class="st19" d="M1160.2,1161.8c0,0-9.2,9.9-0.5,17.9C1159.7,1179.6,1162.8,1172.2,1160.2,1161.8z"/>
	<path class="st19" d="M1143.1,1204.5c0,0-0.9-11.3,10.3-10.7C1153.4,1193.8,1150.1,1199.7,1143.1,1204.5z"/>
	<path class="st19" d="M1126.6,1211.2c0,0-7.1-9.9-16.6,0.2C1110,1211.3,1117.2,1213.8,1126.6,1211.2z"/>
	<path class="st19" d="M1083.3,1193.8c0,0,12.1-1.7,11,10.7C1094.3,1204.5,1088.7,1201.5,1083.3,1193.8z"/>
	<path class="st19" d="M1076.5,1161.3c0,0,10.4,8.4,0.5,18.3C1076.9,1179.6,1074.4,1172.8,1076.5,1161.3z"/>
	<path d="M1192.6,1145.5c0,0,23.1,81.5-72,102.5c0,0-87.4-4.1-76.9-102c0,0-20.5,55.5,31,92c0,0,20.3,14.8,47,13
		c26.7-1.8,52.7-13.7,68.6-46.2C1199.6,1179.4,1198.6,1169.3,1192.6,1145.5z"/>
	<circle class="st20" cx="1118.4" cy="1169.5" r="42.8"/>
	<path class="st34" d="M1206.7,1176.9c0,0,8.3-55.7-60.6-83.8c0,0-45.8-17.1-84.3,14.3c0,0-28.7,13.2-34.2,70c0,0-3.9,8.3-17.6,8.3
		h-10.8l0.9-54l13.4-1.1l17.1-35.8c0,0,5.9-17.9,30.8-17.9s126.4,0.3,126.4,0.3s17,0.3,23.2,26.4s14.7,29,26.1,29v53.4l-25.2-0.3
		C1211.7,1185.7,1206.4,1184.8,1206.7,1176.9z"/>
	<path class="st35" d="M1108.5,1083.6c0,0-63.8,0.4-76.5,41c-12.7,40.6-16.5,60.9-16.5,60.9s-11.6,0.8-16.4,0.2l0.9-54l13.4-1.1
		l17.1-35.8c0,0,6.3-18,30.8-17.9s126.4,0.3,126.4,0.3s19.4,0.1,23.2,26.4c6,24.5,13.5,25.8,26.9,28.3l-0.8,54.1l-25.2-0.3
		c0,0-5.3-0.8-5-8.8c0,0,16.9-3.9,10.2-39.3c0,0-14.5-9.1-15.5-27.4S1185.9,1083.9,1108.5,1083.6z"/>
	<path class="st36" d="M1736,1180.7c0,0-14.1-88.6,62.3-98.4l-55.9-0.4c0,0-23.4,26.1-24.5,67.9c-1.1,41.7-0.4,35.6-0.4,35.6
		S1733.1,1187.6,1736,1180.7z"/>
	<path class="st37" d="M1724.5,802.4l-0.3,37.4c0,0,8,1.6,14.8,0l-0.3-41.2L1724.5,802.4z"/>
	<ellipse class="st21" cx="1731.6" cy="800.6" rx="8.2" ry="8.5"/>
	<path class="st38" d="M1721,839.8c0,0,11.8,1.6,21.3-0.3v214.7c0,0-13.9,3.5-21.3-0.3V839.8z"/>
	<path class="st0" d="M1700.3,1102.7v24.7c0,0,5.9,8.8,12.9-0.2v-20.6c0,0-0.7-7,7-9.7c7.7-2.7,14.3-9.1,15.2-17.4
		c0.9-8.4,0.7-24,0.7-24s-6.9,1-13.4-0.3l-0.4,20c0,0-0.9,5.7-7.9,9.5S1700.8,1091.2,1700.3,1102.7z"/>
	<path class="st8" d="M1728.9,1056.2l-0.7,19.2c0,0-1.8,9.5-9,13c-7.3,3.5-12.3,8.2-12.3,15s-0.2,28-0.2,28s-4.8,1.5-6.4-3.9
		l0.4-27.9c0,0,0.2-8.4,11.7-13.9c11.5-5.5,9.9-10.6,9.9-10.6l0.4-20C1722.7,1055.1,1726.1,1056.2,1728.9,1056.2z"/>
	<path class="st39" d="M1742.1,844.9c0,0-8.2,2.4-21.1-0.2"/>
	<path class="st39" d="M1742.1,850.5c0,0-8.2,2.4-21.1-0.2"/>
	<path class="st39" d="M1742.1,855.8c0,0-8.2,2.4-21.1-0.2"/>
	<path class="st39" d="M1742.1,861.2c0,0-8.2,2.4-21.1-0.2"/>
	<path class="st39" d="M1742.1,866.8c0,0-8.2,2.4-21.1-0.2"/>
	<path class="st39" d="M1742.1,872.4c0,0-8.2,2.4-21.1-0.2"/>
	<path class="st39" d="M1741.9,878c0,0-8.2,2.4-21.1-0.2"/>
	<path class="st39" d="M1741.9,883.6c0,0-8.2,2.4-21.1-0.2"/>
	<path class="st39" d="M1741.9,889c0,0-8.2,2.4-21.1-0.2"/>
	<path class="st39" d="M1741.9,894.4c0,0-8.2,2.4-21.1-0.2"/>
	<path class="st39" d="M1741.9,900.2c0,0-8.2,2.4-21.1-0.2"/>
	<path class="st39" d="M1741.9,905.6c0,0-8.2,2.4-21.1-0.2"/>
	<path class="st39" d="M1741.9,911.8c0,0-8.2,2.4-21.1-0.2"/>
	<path class="st39" d="M1741.9,917.6c0,0-8.2,2.4-21.1-0.2"/>
	<path class="st39" d="M1741.9,923.2c0,0-8.2,2.4-21.1-0.2"/>
	<path class="st39" d="M1741.9,929.2c0,0-8.2,2.4-21.1-0.2"/>
	<path class="st39" d="M1741.9,935.1c0,0-8.2,2.4-21.1-0.2"/>
	<path class="st39" d="M1742.2,941.2c0,0-8.2,2.4-21.1-0.2"/>
	<path class="st39" d="M1742.2,947.9c0,0-8.2,2.4-21.1-0.2"/>
	<path class="st39" d="M1742,954c0,0-8.2,2.4-21.1-0.2"/>
	<path class="st39" d="M1742,960.5c0,0-8.2,2.4-21.1-0.2"/>
	<path class="st39" d="M1742,966.2c0,0-8.2,2.4-21.1-0.2"/>
	<path class="st39" d="M1742,972.5c0,0-8.2,2.4-21.1-0.2"/>
	<path class="st39" d="M1742,978.1c0,0-8.2,2.4-21.1-0.2"/>
	<path class="st39" d="M1742,985c0,0-8.2,2.4-21.1-0.2"/>
	<path class="st39" d="M1742,991.1c0,0-8.2,2.4-21.1-0.2"/>
	<path class="st39" d="M1742,996.6c0,0-8.2,2.4-21.1-0.2"/>
	<path class="st39" d="M1742,1002.4c0,0-8.2,2.4-21.1-0.2"/>
	<path class="st39" d="M1742,1008.3c0,0-8.2,2.4-21.1-0.2"/>
	<path class="st39" d="M1742,1014.6c0,0-8.2,2.4-21.1-0.2"/>
	<path class="st39" d="M1742,1021.7c0,0-8.2,2.4-21.1-0.2"/>
	<path class="st39" d="M1742,1028.4c0,0-8.2,2.4-21.1-0.2"/>
	<path class="st39" d="M1742,1034.9c0,0-8.2,2.4-21.1-0.2"/>
	<path class="st39" d="M1742,1041.4c0,0-8.2,2.4-21.1-0.2"/>
	<path class="st39" d="M1741.7,1048.3c0,0-8.2,2.4-21.1-0.2"/>
	<line class="st40" x1="1736.5" y1="840.4" x2="1736.5" y2="1055.4"/>
	<line class="st40" x1="1724.2" y1="839.8" x2="1724.2" y2="1055.1"/>
	<line class="st40" x1="1729.6" y1="840.8" x2="1729.6" y2="1056.2"/>
	<path class="st36" d="M1740,1054.3v28.2h113.9c0,0,58.2,1.1,58.2,55.2l-0.4,41c0,0-1.9,5.6,6.8,6c8.6,0.4,16.9,0,16.9,0l-1.7-59.2
		c0,0-7.4-69.5-78.8-70.2S1740,1054.3,1740,1054.3z"/>
	<path class="st41" d="M1770.9,1063.6l72.9-0.3c0,0,62.5-4.9,76.9,38.9c14.4,43.8,14.7,82.5,14.7,82.5l-1.7-59.2
		c0,0-5.2-70.5-82.7-70.5c-77.5,0-111-0.7-111-0.7l-0.2,10.5L1770.9,1063.6z"/>
	<path class="st11" d="M1689.4,768.8l0.3,20.9c0,0,5.5,1.3,18.6,0l-0.5-21.2L1689.4,768.8z"/>
	<path class="st87" d="M1710.8,789.1l0.1,4.4h-23.8l0.1-4.1C1687.2,789.5,1696.3,790.5,1710.8,789.1z"/>
	<polygon class="st89" points="1680.9,792.8 1637.5,892.7 1716,892.7 1716,792.8 	"/>
	<polygon class="st8" points="1644.5,876.4 1694.5,877 1715.8,845.6 1716,892.7 1637.5,892.7 	"/>
	<line class="st42" x1="1640.9" y1="883.2" x2="986.3" y2="631.4"/>
	<path class="st42" d="M952.7,665.5c0,0,7.4,106.1,8.9,117"/>
	<line class="st42" x1="993.1" y1="676.8" x2="983.3" y2="786.4"/>
	<polygon class="st43" points="1012.4,661.2 1100.6,695.4 1090.3,719.9 1007.5,686.7 	"/>
	<path class="st10" d="M1019,668.4c0,0,0.7,13.2,15.9,18.9c15.2,5.6,59.6,22.8,59.6,22.8l5-12.2c0,0-67.8-23.2-72.8-27.1
		c-5-4-6.9-5.1-6.9-5.1S1018.5,667.4,1019,668.4z"/>
	<circle class="st10" cx="973.1" cy="651.3" r="27.4"/>
	<circle class="st9" cx="973.7" cy="651.5" r="21.8"/>
	<path class="st44" d="M1020.1,658.5l-12.9,34.1c0,0-42.9-11.1-47-25.4c-4.2-14.3,1.8-26.3,5.1-34.1L1020.1,658.5z"/>
	<path class="st45" d="M981.2,676.9l22.7,9.6c0,0,5.2-20.7,16.2-28l-12.9,34.1c0,0-41.1-9.9-47-25.4c0,0-3.2-6.7,0.2-20.3
		c0,0-1.3,19.2,6.7,23.5C975.1,674.7,981.2,676.9,981.2,676.9z"/>
	<circle class="st46" cx="973.1" cy="650.4" r="5.4"/>
	<circle class="st10" cx="1148.4" cy="693.5" r="11.8"/>
	<circle class="st9" cx="1463" cy="827.7" r="18"/>
	<circle class="st10" cx="1463.3" cy="827.9" r="11.5"/>
	<polygon class="st44" points="1603.3,894.8 1105.1,685.2 1086.6,728 1336.4,835.5 1354.5,855.6 1541.2,940.2 	"/>
	<polyline class="st47" points="1580.4,897.4 1110.1,699.5 1100.5,723.1 	"/>
	<g>
		<polygon class="st48" points="1362.2,849.5 1342.1,829 1099.9,723.5 1102.4,717.6 1344.9,823.8 1366.8,846.1 1552.1,929.7 
			1547.6,933.3 		"/>
		<path class="st45" d="M1102.9,718.9l241.4,105.7l21.9,22.3l183.9,83l-2.7,2.2l-184.7-83.5l-20-20.4l-241.5-105.2L1102.9,718.9
			 M1101.9,716.3l-0.8,1.9l-1.7,4l-0.8,1.8l1.8,0.8l241.1,105.1l19.8,20.2l0.3,0.3l0.3,0.2l184.7,83.5l1.1,0.5l1-0.8l2.7-2.2l2.6-2
			l-3-1.3l-183.6-82.9l-21.7-22l-0.3-0.3l-0.4-0.2l-241.4-105.7L1101.9,716.3L1101.9,716.3z"/>
	</g>
	<circle class="st49" cx="1385.5" cy="837.9" r="6.6"/>
	<polygon class="st43" points="1373.5,864.2 1373.5,930 1394.7,930 1395,873.8 	"/>
	<polygon class="st10" points="1386.1,872.9 1386.8,929 1376.8,929 1376.8,867.4 1385.9,871.3 	"/>
	<path class="st43" d="M1369,929.4c0,0,10.4,0.4,31.1,0.1l-0.3,36.5h-31L1369,929.4z"/>
	<path class="st9" d="M971.2,795.8c0,0,2.1,5.5-1.4,6.9s-11.7,8.7-4.1,14.6S979,818.9,982,807c0,0-3.7,0.5-6.4,6.2
		c0,0-6.4,6.9-7.3-3.2c0,0,0-2.5,3.9-4.1c3.9-1.6,3.4-5.5,1.4-11.9L971.2,795.8z"/>
	<path class="st50" d="M964.6,764.2c0,0-1.9,14-5.8,20.2c0,0-2.3,4.7,0,6.2c2.3,1.6,10.5,5.8,10.5,5.8s1.9,3.9,7.4,0l8.2-6.2
		c0,0,2.7,0.4,1.2-5.4c-1.6-5.8-6.6-20.6-6.6-20.6H964.6z"/>
	<path class="st45" d="M977,766.6l6.2,17.4c0,0,1.7,2.5-0.2,4.7c-1.9,2.2-7.4,6.1-7.4,6.1s-2,1.7-4.6-0.2c-2.5-1.9-6.2-3.5-6.2-3.5
		l4.6,5.4c0,0,2.7,3.9,7.4,0c4.7-3.9,8.2-6.2,8.2-6.2s2.6,0.3,1.2-5.4c-1.4-5.7-6.6-20.6-6.6-20.6L977,766.6z"/>
	<g>
		<path class="st48" d="M958.9,790.5c-0.1,0-0.6-0.2-0.9-0.9c-0.3-0.8-0.4-2.2,1-5c2.9-5.7,4.8-12.4,5.8-20.1h14l-1.9,1.9l-10.7-0.2
			l0,0.2c0,0.2-1.4,16.8-6.3,20.1c-0.1,0.1-0.5,0.5-0.4,1.2c0.2,0.7,0.9,1.3,2.3,1.8c2.4,0.9,5.4,4.5,6.7,6.3L958.9,790.5z"/>
		<path class="st50" d="M978.2,764.7l-1.4,1.4l-10.4-0.2l-0.5,0l0,0.5c0,0.2-1.4,16.7-6.2,19.9l0,0l0,0c-0.2,0.2-0.5,0.7-0.4,1.4
			c0.2,0.8,1,1.5,2.4,2c1.9,0.7,4.3,3.4,5.8,5.2l-8.4-4.7l0,0l0,0c0,0-0.5-0.2-0.7-0.8c-0.3-0.7-0.3-2.1,1-4.7
			c2.8-5.6,4.8-12.4,5.8-20H978.2 M979.4,764.2h-14.8c-1.1,8.3-3.1,14.9-5.8,20.2c-2.7,5.4,0,6.2,0,6.2l10.5,5.8
			c0,0-4.3-6.1-7.5-7.3s-1.9-2.5-1.9-2.5c5.1-3.4,6.4-20.3,6.4-20.3l10.6,0.2L979.4,764.2L979.4,764.2z"/>
	</g>
	<line class="st42" x1="971.7" y1="812.2" x2="971.7" y2="821.6"/>
	<polygon class="st51" points="969.4,821.7 974.3,821.7 974.3,858.8 969.7,858.8 	"/>
	<line class="st107" x1="971.9" y1="859.4" x2="972.9" y2="1066.1"/>
	<polygon class="st89" points="1716,892.7 1716,1080 992.2,1080 992.2,1026.7 1110.2,966.5 1514.9,966.5 1587.2,894.3 	"/>
	<path class="st6" d="M1680.9,1047.5l31.2,32.1h-19.5l-32.2-32.2C1660.4,1047.4,1681.2,1047.3,1680.9,1047.5z"/>
	<path class="st6" d="M1646.3,1047.5l31.2,32.1h-19.5l-32.2-32.2C1625.7,1047.4,1646.5,1047.3,1646.3,1047.5z"/>
	<path class="st6" d="M1612.3,1047.5l31.2,32.1H1624l-32.2-32.2C1591.8,1047.4,1612.6,1047.3,1612.3,1047.5z"/>
	<path class="st6" d="M1577,1047.5l31.2,32.1h-19.5l-32.2-32.2C1556.4,1047.4,1577.2,1047.3,1577,1047.5z"/>
	<path class="st6" d="M1542.6,1047.6l31.2,32h-19.5l-32.2-32.1C1522,1047.5,1542.8,1047.4,1542.6,1047.6z"/>
	<path class="st6" d="M1507.5,1047.9l31.2,31.7h-19.5l-32.2-31.8C1486.9,1047.8,1507.7,1047.7,1507.5,1047.9z"/>
	<path class="st6" d="M1472.8,1047.9l31.2,31.7h-19.5l-32.2-31.8C1452.2,1047.8,1473.1,1047.7,1472.8,1047.9z"/>
	<path class="st6" d="M1437.7,1047.9l31.2,31.7h-19.5l-32.2-31.8C1417.1,1047.8,1437.9,1047.7,1437.7,1047.9z"/>
	<path class="st6" d="M1403.3,1048.2l31.2,31.4h-19.5l-32.2-31.5C1382.7,1048.1,1403.5,1047.9,1403.3,1048.2z"/>
	<path class="st6" d="M1368.6,1048.2l31.2,31.4h-19.5l-32.2-31.5C1348.1,1048.1,1368.9,1047.9,1368.6,1048.2z"/>
	<path class="st6" d="M1333.8,1048.2l31.2,31.4h-19.5l-32.2-31.5C1313.2,1048.1,1334,1048,1333.8,1048.2z"/>
	<path class="st6" d="M1298.7,1048.3l31.2,31.3h-19.5l-32.2-31.4C1278.1,1048.2,1298.9,1048.1,1298.7,1048.3z"/>
	<path class="st6" d="M1264.2,1048.4l31.2,31.2h-19.5l-32.2-31.3C1243.7,1048.3,1264.5,1048.2,1264.2,1048.4z"/>
	<path class="st6" d="M1229.8,1048.4l31.2,31.2h-19.5l-32.2-31.3C1209.2,1048.3,1230.1,1048.2,1229.8,1048.4z"/>
	<path class="st6" d="M1194.2,1048.8l31.2,30.8h-19.5l-32.2-30.9C1173.7,1048.6,1194.5,1048.5,1194.2,1048.8z"/>
	<path class="st6" d="M1159.4,1048.8l31.2,30.8H1171l-32.2-30.9C1138.8,1048.6,1159.6,1048.5,1159.4,1048.8z"/>
	<path class="st6" d="M1124,1049l31.2,30.6h-19.5l-32.2-30.7C1103.4,1048.9,1124.3,1048.8,1124,1049z"/>
	<path class="st6" d="M1089.1,1049.1l31.2,30.5h-19.5l-32.2-30.6C1068.6,1049,1089.4,1048.9,1089.1,1049.1z"/>
	<path class="st6" d="M1054,1049.2l31.2,30.4h-19.5l-32.2-30.5C1033.4,1049.1,1054.3,1049,1054,1049.2z"/>
	<polygon class="st1" points="1695.3,915.7 1695.3,1056.2 1688.2,1046.9 1688.2,921.1 	"/>
	<polygon class="st87" points="1596.3,921.9 1688.2,921.1 1695.3,915.7 1592.2,915.7 1523.7,988.5 1111,988.5 1012.8,1037.6 
		1012.8,1057 1020.4,1049.1 1020.4,1043.3 1117,995.9 1527,995.9 	"/>
	<polyline class="st1" points="1688.2,1046.9 1020.4,1049.1 1012.8,1057 1695.3,1056.2 	"/>
	<path class="st91" d="M1601.7,938.3h74.3v98.1h-74.3C1601.7,1036.4,1602,938.6,1601.7,938.3z"/>
	<polygon class="st6" points="1628.9,1019.6 1628.9,1028.7 1650.9,1028.7 1650.9,1018.6 1628.7,1018.6 	"/>
	<g>
		<path class="st9" d="M960.5,1064.2c0,0,0.5,10.5,2.5,11.2c1.9,0.7,19.4-8.4,20.2-12.3C983.1,1063.1,969.6,1065.5,960.5,1064.2z"/>
		<path class="st53" d="M301.5,1202.3l131.8-23.8c0,0,6.4-58.8-62.6-66.8S291.4,1168.6,301.5,1202.3z"/>
		<polygon class="st53" points="871.1,1103.1 880,1101.3 891.1,1051.4 822.8,1023.9 753.2,1048.3 748.9,1110.2 759.2,1125.7 		"/>
		<circle class="st14" cx="817.3" cy="1102.4" r="53.9"/>
		<g>
			<g>
				<path class="st54" d="M817.8,1139.8c-0.5,0-1,0-1.5,0c-19.2-0.8-34.2-17.1-33.4-36.3c0.8-18.8,16.1-33.5,34.9-33.5
					c0.5,0,1,0,1.5,0c19.2,0.8,34.2,17.1,33.4,36.3C851.9,1125.1,836.6,1139.8,817.8,1139.8z"/>
				<path class="st55" d="M817.8,1071.5c0.5,0,0.9,0,1.4,0c18.4,0.8,32.8,16.3,32,34.8c-0.7,18-15.5,32-33.4,32c-0.5,0-0.9,0-1.4,0
					c-18.4-0.8-32.8-16.3-32-34.8C785.1,1085.6,799.9,1071.5,817.8,1071.5 M817.8,1068.5L817.8,1068.5c-19.6,0-35.5,15.3-36.4,34.9
					c-0.4,9.7,3,19,9.6,26.2s15.6,11.3,25.3,11.7c0.5,0,1,0,1.5,0c19.6,0,35.5-15.3,36.4-34.9c0.4-9.7-3-19-9.6-26.2
					s-15.6-11.3-25.3-11.7C818.8,1068.5,818.3,1068.5,817.8,1068.5L817.8,1068.5z"/>
			</g>
			<g>
				<path class="st56" d="M817.8,1124.3c-0.3,0-0.5,0-0.8,0c-5.1-0.2-9.8-2.4-13.2-6.1s-5.2-8.6-5-13.7c0.4-10.2,8.8-18.2,19-18.2
					c0.3,0,0.5,0,0.8,0c5.1,0.2,9.8,2.4,13.2,6.1s5.2,8.6,5,13.7C836.4,1116.3,828,1124.3,817.8,1124.3z"/>
				<path class="st57" d="M817.8,1085.3v2c0.3,0,0.5,0,0.8,0c9.9,0.4,17.7,8.8,17.3,18.8c-0.4,9.7-8.3,17.3-18,17.3
					c-0.3,0-0.5,0-0.8,0c-9.9-0.4-17.7-8.8-17.3-18.8c0.4-9.7,8.3-17.3,18-17.3L817.8,1085.3 M817.8,1085.3
					c-10.7,0-19.5,8.4-20,19.2c-0.5,11.1,8.1,20.4,19.2,20.8c0.3,0,0.6,0,0.8,0c10.7,0,19.5-8.4,20-19.2
					c0.5-11.1-8.1-20.4-19.2-20.8C818.3,1085.3,818,1085.3,817.8,1085.3L817.8,1085.3z"/>
			</g>
			<circle class="st58" cx="818.1" cy="1105.3" r="6.7"/>
			<g>
				<path class="st59" d="M806.8,1083.8c-0.6,0-1.1-0.3-1.5-0.7c-0.4-0.4-0.6-1-0.6-1.5c0-1.1,1-2,2.1-2c1.3,0.1,2.2,1,2.1,2.2
					C808.9,1082.9,808,1083.8,806.8,1083.8L806.8,1083.8z"/>
				<path class="st60" d="M806.9,1079.8L806.9,1079.8L806.9,1079.8c1.1,0,1.9,0.9,1.9,1.9c0,1-0.9,1.8-1.9,1.8l-0.1,0
					c-0.5,0-1-0.2-1.3-0.6c-0.3-0.4-0.5-0.8-0.5-1.3C805.1,1080.6,805.9,1079.8,806.9,1079.8 M806.9,1079.3c-1.3,0-2.3,1-2.4,2.3
					c-0.1,1.3,1,2.4,2.3,2.5c0,0,0.1,0,0.1,0c1.3,0,2.3-1,2.4-2.3C809.3,1080.4,808.3,1079.3,806.9,1079.3
					C807,1079.3,806.9,1079.3,806.9,1079.3L806.9,1079.3z"/>
			</g>
			<g>
				<path class="st59" d="M820.8,1081.3c-1.2,0-2.1-1-2-2.2c0-1.1,1-2,2.1-2c0.7,0,1.2,0.3,1.6,0.7c0.4,0.4,0.6,1,0.6,1.5
					C823,1080.4,822.1,1081.3,820.8,1081.3L820.8,1081.3z"/>
				<g>
					<path class="st60" d="M820.9,1077.3L820.9,1077.3L820.9,1077.3c1.1,0,1.9,0.9,1.9,1.9c0,1-0.9,1.8-1.9,1.8l-0.1,0
						c-1,0-1.8-0.9-1.8-1.9C819.1,1078.1,819.9,1077.3,820.9,1077.3 M820.9,1076.8c-1.3,0-2.3,1-2.4,2.3c-0.1,1.3,1,2.4,2.3,2.5
						c0,0,0.1,0,0.1,0c1.3,0,2.3-1,2.4-2.3C823.3,1078,822.3,1076.9,820.9,1076.8C821,1076.8,821,1076.8,820.9,1076.8L820.9,1076.8z
						"/>
				</g>
			</g>
			<g>
				<path class="st61" d="M818.1,1094.6c-0.7,0-1.3-0.6-1.3-1.4c0-0.7,0.6-1.3,1.3-1.3c0.8,0,1.3,0.6,1.3,1.4
					C819.5,1094,818.9,1094.6,818.1,1094.6L818.1,1094.6z"/>
				<g>
					<path class="st62" d="M818.2,1091.7l0,0.5c0.3,0,0.5,0.1,0.7,0.3c0.2,0.2,0.3,0.5,0.3,0.8c0,0.6-0.5,1-1.1,1c0,0,0,0,0,0
						c-0.3,0-0.5-0.1-0.7-0.3c-0.2-0.2-0.3-0.5-0.3-0.8c0-0.6,0.5-1,1.1-1V1091.7 M818.2,1091.7c-0.8,0-1.5,0.7-1.6,1.5
						c0,0.9,0.6,1.6,1.5,1.6c0,0,0,0,0.1,0c0.8,0,1.5-0.7,1.6-1.5C819.8,1092.5,819.1,1091.8,818.2,1091.7
						C818.2,1091.7,818.2,1091.7,818.2,1091.7L818.2,1091.7z"/>
				</g>
			</g>
			<g>
				<path class="st61" d="M829.2,1106.7c-0.7,0-1.3-0.6-1.3-1.4c0-0.7,0.6-1.3,1.3-1.3c0.4,0,0.7,0.2,1,0.4c0.2,0.3,0.4,0.6,0.3,0.9
					C830.6,1106.1,830,1106.7,829.2,1106.7L829.2,1106.7z"/>
				<g>
					<path class="st62" d="M829.3,1103.8l0,0.5c0.6,0,1,0.5,1,1.1c0,0.6-0.5,1-1.1,1c0,0,0,0,0,0c-0.3,0-0.5-0.1-0.7-0.3
						c-0.2-0.2-0.3-0.5-0.3-0.8c0-0.6,0.5-1,1.1-1V1103.8 M829.3,1103.8c-0.8,0-1.5,0.7-1.6,1.5c0,0.9,0.6,1.6,1.5,1.6
						c0,0,0,0,0.1,0c0.8,0,1.5-0.7,1.6-1.5C830.9,1104.6,830.2,1103.9,829.3,1103.8C829.3,1103.8,829.3,1103.8,829.3,1103.8
						L829.3,1103.8z"/>
				</g>
			</g>
			<g>
				<path class="st61" d="M817.4,1117.4c-0.3,0-0.7-0.2-0.9-0.4s-0.4-0.6-0.3-0.9c0-0.7,0.6-1.3,1.3-1.3c0.4,0,0.7,0.2,1,0.4
					c0.2,0.3,0.4,0.6,0.3,0.9C818.7,1116.9,818.1,1117.4,817.4,1117.4L817.4,1117.4z"/>
				<g>
					<path class="st62" d="M817.4,1114.5l0,0.5c0.6,0,1,0.5,1,1.1c0,0.6-0.5,1-1.1,1c0,0,0,0,0,0c-0.6,0-1-0.5-1-1.1
						c0-0.6,0.5-1,1.1-1V1114.5 M817.4,1114.5c-0.8,0-1.5,0.7-1.6,1.5c0,0.9,0.6,1.6,1.5,1.6c0,0,0,0,0.1,0c0.8,0,1.5-0.7,1.6-1.5
						C819,1115.3,818.3,1114.6,817.4,1114.5C817.5,1114.5,817.4,1114.5,817.4,1114.5L817.4,1114.5z"/>
				</g>
			</g>
			<g>
				<path class="st61" d="M806.1,1106.4c-0.7,0-1.3-0.6-1.3-1.4c0-0.7,0.6-1.3,1.3-1.3c0.8,0,1.3,0.6,1.3,1.4
					C807.4,1105.8,806.8,1106.4,806.1,1106.4L806.1,1106.4z"/>
				<g>
					<path class="st62" d="M806.1,1103.5l0,0.5c0.3,0,0.5,0.1,0.7,0.3c0.2,0.2,0.3,0.5,0.3,0.8c0,0.6-0.5,1-1.1,1c0,0,0,0,0,0
						c-0.3,0-0.5-0.1-0.7-0.3c-0.2-0.2-0.3-0.5-0.3-0.8c0-0.6,0.5-1,1.1-1V1103.5 M806.1,1103.5c-0.8,0-1.5,0.7-1.6,1.5
						c0,0.9,0.6,1.6,1.5,1.6c0,0,0,0,0.1,0c0.8,0,1.5-0.7,1.6-1.5C807.7,1104.3,807,1103.6,806.1,1103.5
						C806.1,1103.5,806.1,1103.5,806.1,1103.5L806.1,1103.5z"/>
				</g>
			</g>
			<g>
				<path class="st59" d="M834.9,1087.3c-0.6,0-1.1-0.3-1.5-0.7c-0.4-0.4-0.6-1-0.6-1.5c0-1.1,1-2,2.1-2c1.3,0.1,2.2,1,2.1,2.2
					C837.1,1086.4,836.1,1087.3,834.9,1087.3L834.9,1087.3z"/>
				<g>
					<path class="st60" d="M835,1083.4L835,1083.4L835,1083.4c1.1,0,1.9,0.9,1.9,1.9c0,1-0.9,1.8-1.9,1.8l-0.1,0
						c-1,0-1.8-0.9-1.8-1.9C833.2,1084.1,834,1083.4,835,1083.4 M835,1082.9c-1.3,0-2.3,1-2.4,2.3c-0.1,1.3,1,2.4,2.3,2.5
						c0,0,0.1,0,0.1,0c1.3,0,2.3-1,2.4-2.3C837.4,1084,836.4,1082.9,835,1082.9C835.1,1082.9,835,1082.9,835,1082.9L835,1082.9z"/>
				</g>
			</g>
			<g>
				<path class="st59" d="M842.1,1097.3c-1.2,0-2.1-1-2-2.2c0-1.1,1-2,2.1-2c1.3,0.1,2.2,1,2.1,2.2
					C844.2,1096.4,843.3,1097.3,842.1,1097.3L842.1,1097.3z"/>
				<g>
					<path class="st60" d="M842.2,1093.3L842.2,1093.3L842.2,1093.3c1.1,0,1.9,0.9,1.9,1.9c0,1-0.9,1.8-1.9,1.8l-0.1,0
						c-0.5,0-1-0.2-1.3-0.6s-0.5-0.8-0.5-1.3C840.4,1094.1,841.2,1093.3,842.2,1093.3 M842.2,1092.8c-1.3,0-2.3,1-2.4,2.3
						c-0.1,1.3,1,2.4,2.3,2.5c0,0,0.1,0,0.1,0c1.3,0,2.3-1,2.4-2.3C844.6,1094,843.6,1092.9,842.2,1092.8
						C842.2,1092.8,842.2,1092.8,842.2,1092.8L842.2,1092.8z"/>
				</g>
			</g>
			<g>
				<path class="st59" d="M843.6,1110.1c-1.2,0-2.1-1-2-2.2c0-1.1,1-2,2.1-2c0.7,0,1.2,0.3,1.6,0.7c0.4,0.4,0.6,1,0.6,1.5
					C845.7,1109.2,844.8,1110.1,843.6,1110.1L843.6,1110.1z"/>
				<g>
					<path class="st60" d="M843.6,1106.1L843.6,1106.1L843.6,1106.1c0.6,0,1,0.2,1.4,0.6c0.3,0.4,0.5,0.8,0.5,1.3
						c0,1-0.9,1.8-1.9,1.8l-0.1,0c-1,0-1.8-0.9-1.8-1.9C841.8,1106.9,842.6,1106.1,843.6,1106.1 M843.6,1105.6c-1.3,0-2.3,1-2.4,2.3
						c-0.1,1.3,1,2.4,2.3,2.5c0,0,0.1,0,0.1,0c1.3,0,2.3-1,2.4-2.3C846.1,1106.8,845,1105.7,843.6,1105.6
						C843.7,1105.6,843.7,1105.6,843.6,1105.6L843.6,1105.6z"/>
				</g>
			</g>
			<g>
				<path class="st59" d="M839.4,1121.7c-0.6,0-1.1-0.3-1.5-0.7c-0.4-0.4-0.6-1-0.6-1.5c0-1.1,1-2,2.1-2c1.2,0.1,2.2,1,2.1,2.2
					C841.5,1120.8,840.6,1121.7,839.4,1121.7L839.4,1121.7z"/>
				<g>
					<path class="st60" d="M839.4,1117.8L839.4,1117.8L839.4,1117.8c0.6,0,1,0.2,1.4,0.6s0.5,0.8,0.5,1.3c0,1-0.9,1.8-1.9,1.8
						l-0.1,0c-1,0-1.8-0.9-1.8-1.9C837.6,1118.5,838.4,1117.8,839.4,1117.8 M839.4,1117.3c-1.3,0-2.3,1-2.4,2.3
						c-0.1,1.3,1,2.4,2.3,2.5c0,0,0.1,0,0.1,0c1.3,0,2.3-1,2.4-2.3C841.9,1118.4,840.8,1117.3,839.4,1117.3
						C839.5,1117.3,839.5,1117.3,839.4,1117.3L839.4,1117.3z"/>
				</g>
			</g>
			<g>
				<path class="st59" d="M829.4,1130.4c-0.6,0-1.1-0.3-1.5-0.7c-0.4-0.4-0.6-1-0.6-1.5c0-1.1,1-2,2.1-2c1.3,0.1,2.2,1,2.1,2.2
					C831.6,1129.5,830.7,1130.4,829.4,1130.4L829.4,1130.4z"/>
				<g>
					<path class="st60" d="M829.5,1126.4L829.5,1126.4L829.5,1126.4c1.1,0,1.9,0.9,1.9,1.9c0,1-0.9,1.8-1.9,1.8l-0.1,0
						c-1,0-1.8-0.9-1.8-1.9C827.7,1127.2,828.5,1126.4,829.5,1126.4 M829.5,1125.9c-1.3,0-2.3,1-2.4,2.3c-0.1,1.3,1,2.4,2.3,2.5
						c0,0,0.1,0,0.1,0c1.3,0,2.3-1,2.4-2.3C831.9,1127.1,830.9,1126,829.5,1125.9C829.6,1126,829.5,1125.9,829.5,1125.9
						L829.5,1125.9z"/>
				</g>
			</g>
			<g>
				<path class="st59" d="M816.8,1133.9c-0.6,0-1.1-0.3-1.5-0.7c-0.4-0.4-0.6-1-0.6-1.5c0-1.1,1-2,2.1-2c0.7,0,1.2,0.3,1.6,0.7
					c0.4,0.4,0.6,1,0.6,1.5C818.9,1133,818,1133.9,816.8,1133.9L816.8,1133.9z"/>
				<g>
					<path class="st60" d="M816.9,1129.9L816.9,1129.9L816.9,1129.9c0.6,0,1,0.2,1.4,0.6s0.5,0.8,0.5,1.3c0,1-0.9,1.8-1.9,1.8
						l-0.1,0c-1,0-1.8-0.9-1.8-1.9C815,1130.7,815.9,1129.9,816.9,1129.9 M816.9,1129.4c-1.3,0-2.3,1-2.4,2.3
						c-0.1,1.3,1,2.4,2.3,2.5c0,0,0.1,0,0.1,0c1.3,0,2.3-1,2.4-2.3C819.3,1130.6,818.3,1129.5,816.9,1129.4
						C816.9,1129.4,816.9,1129.4,816.9,1129.4L816.9,1129.4z"/>
				</g>
			</g>
			<g>
				<path class="st59" d="M805.4,1130.9c-0.6,0-1.1-0.3-1.5-0.7c-0.4-0.4-0.6-1-0.6-1.5c0-1.1,1-2,2.1-2c1.3,0.1,2.2,1,2.1,2.2
					C807.6,1130,806.6,1130.9,805.4,1130.9L805.4,1130.9z"/>
				<g>
					<path class="st60" d="M805.5,1126.9L805.5,1126.9L805.5,1126.9c1.1,0,1.9,0.9,1.9,1.9c0,1-0.9,1.8-1.9,1.8l-0.1,0
						c-1,0-1.8-0.9-1.8-1.9C803.7,1127.7,804.5,1126.9,805.5,1126.9 M805.5,1126.4c-1.3,0-2.3,1-2.4,2.3c-0.1,1.3,1,2.4,2.3,2.5
						c0,0,0.1,0,0.1,0c1.3,0,2.3-1,2.4-2.3C807.9,1127.5,806.9,1126.4,805.5,1126.4C805.6,1126.4,805.5,1126.4,805.5,1126.4
						L805.5,1126.4z"/>
				</g>
			</g>
			<g>
				<path class="st59" d="M796.3,1122.6c-1.2,0-2.1-1-2-2.2c0-1.1,1-2,2.1-2c1.3,0.1,2.2,1,2.1,2.2
					C798.4,1121.7,797.5,1122.6,796.3,1122.6L796.3,1122.6z"/>
				<g>
					<path class="st60" d="M796.4,1118.6L796.4,1118.6L796.4,1118.6c1.1,0,1.9,0.9,1.9,1.9c0,1-0.9,1.8-1.9,1.8l-0.1,0
						c-0.5,0-1-0.2-1.3-0.6s-0.5-0.8-0.5-1.3C794.6,1119.4,795.4,1118.6,796.4,1118.6 M796.4,1118.1c-1.3,0-2.3,1-2.4,2.3
						c-0.1,1.3,1,2.4,2.3,2.5c0,0,0.1,0,0.1,0c1.3,0,2.3-1,2.4-2.3C798.8,1119.3,797.8,1118.2,796.4,1118.1
						C796.4,1118.1,796.4,1118.1,796.4,1118.1L796.4,1118.1z"/>
				</g>
			</g>
			<g>
				<path class="st59" d="M791.4,1111.6c-1.2,0-2.1-1-2-2.2c0-1.1,1-2,2.1-2c0.7,0,1.2,0.3,1.6,0.7c0.4,0.4,0.6,1,0.6,1.5
					C793.6,1110.7,792.6,1111.6,791.4,1111.6L791.4,1111.6z"/>
				<g>
					<path class="st60" d="M791.5,1107.7L791.5,1107.7L791.5,1107.7c1.1,0,1.9,0.9,1.9,1.9c0,1-0.9,1.8-1.9,1.8l-0.1,0
						c-1,0-1.8-0.9-1.8-1.9C789.7,1108.4,790.5,1107.7,791.5,1107.7 M791.5,1107.2c-1.3,0-2.3,1-2.4,2.3c-0.1,1.3,1,2.4,2.3,2.5
						c0,0,0.1,0,0.1,0c1.3,0,2.3-1,2.4-2.3C793.9,1108.3,792.9,1107.2,791.5,1107.2C791.6,1107.2,791.5,1107.2,791.5,1107.2
						L791.5,1107.2z"/>
				</g>
			</g>
			<g>
				<path class="st59" d="M791.6,1100.8c-1.2,0-2.1-1-2-2.2c0-1.1,1-2,2.1-2c0.7,0,1.2,0.3,1.6,0.7c0.4,0.4,0.6,1,0.6,1.5
					C793.7,1099.9,792.8,1100.8,791.6,1100.8L791.6,1100.8z"/>
				<g>
					<path class="st60" d="M791.7,1096.8L791.7,1096.8L791.7,1096.8c1.1,0,1.9,0.9,1.9,1.9c0,1-0.9,1.8-1.9,1.8l-0.1,0
						c-1,0-1.8-0.9-1.8-1.9C789.9,1097.6,790.7,1096.8,791.7,1096.8 M791.7,1096.3c-1.3,0-2.3,1-2.4,2.3c-0.1,1.3,1,2.4,2.3,2.5
						c0,0,0.1,0,0.1,0c1.3,0,2.3-1,2.4-2.3C794.1,1097.5,793.1,1096.4,791.7,1096.3C791.7,1096.3,791.7,1096.3,791.7,1096.3
						L791.7,1096.3z"/>
				</g>
			</g>
			<g>
				<path class="st59" d="M796.4,1090.6c-0.6,0-1.1-0.3-1.5-0.7c-0.4-0.4-0.6-1-0.6-1.5c0-1.1,1-2,2.1-2c1.3,0.1,2.2,1,2.1,2.2
					C798.6,1089.7,797.7,1090.6,796.4,1090.6L796.4,1090.6z"/>
				<g>
					<path class="st60" d="M796.5,1086.7L796.5,1086.7L796.5,1086.7c1.1,0,1.9,0.9,1.9,1.9c0,1-0.9,1.8-1.9,1.8l-0.1,0
						c-0.5,0-1-0.2-1.3-0.6s-0.5-0.8-0.5-1.3C794.7,1087.4,795.5,1086.7,796.5,1086.7 M796.5,1086.2c-1.3,0-2.3,1-2.4,2.3
						c-0.1,1.3,1,2.4,2.3,2.5c0,0,0.1,0,0.1,0c1.3,0,2.3-1,2.4-2.3C798.9,1087.3,797.9,1086.2,796.5,1086.2
						C796.6,1086.2,796.6,1086.2,796.5,1086.2L796.5,1086.2z"/>
				</g>
			</g>
		</g>
		<path class="st63" d="M863.2,1130.3c0,0,19.1-52.8-30.3-74.1c0,0-28.5-7.5-46.6,8.3c-18.1,15.8-20.4,38.3-18.8,58
			c0,0-4.8-6.2-4.2-22.4s12.2-51.5,56.1-51.6c0,0,50.3,0.8,51.6,56.1C871.1,1104.6,871.1,1118.8,863.2,1130.3z"/>
		<path class="st11" d="M761.7,981.8c0,0,160.4-8.4,169.1,19.5c0,0,7.8,4.6,10.8,15.9c0,0,18.2,2.2,18.4,21.5c0,0,2.9,29.5,5.3,37.5
			s-0.3,7.9-6.4,10.1c-6.1,2.2-52,11.5-78.9,15c0,0,3.1-48.7-48.6-63.9c0,0-27.8-6.3-49.4,8.3s-29.2,32.1-28.2,55
			c1,23,5.5,25.1,5.5,25.1s-6.5,4.4-16.7-12.2l-2.2,0.2c0,0-0.3-71.7-25.8-107.2c0,0,23.7-6.9,29.7-18.9
			C744.3,987.6,755.5,982.5,761.7,981.8z"/>
		<path class="st64" d="M744.3,987.6l136.4,2.7c0,0,29.2,0.9,37.2,9.6l12.9,1.3c0,0-3.8-13.4-38.2-16.8
			c-34.3-3.4-58.5-4.5-130.9-2.7C761.7,981.8,751.1,983.9,744.3,987.6z"/>
		<path class="st64" d="M961.1,1049.4c0,0-41.3,4.2-49,7.8c0,0,33-31,29.1-41.6l2.1,2.5c0,0,14.2,2.4,16.2,15.1
			C961.5,1045.9,961.1,1049.4,961.1,1049.4z"/>
		<path class="st65" d="M880,1101.3c0,0,3.5-8.4,16.1-10.4s66.4-11.2,69.2-16.5c0,0,5,10.2-6.4,11.9
			C947.5,1088,880,1101.3,880,1101.3z"/>
		<path class="st65" d="M961.1,1049.4l0.5,2.4c0,0-48.1,6.5-55.5,13.8c0,0-3.5,2.2-5.1,6.3c0,0,0.3-8.3,11.2-14.7
			C912.1,1057.2,922.5,1053.6,961.1,1049.4z"/>
		<path class="st64" d="M965.3,1074.4c0,0-1.2,1.6-4.8,2.5c-3.6,0.9-65.3,8.5-59.6-5c0,0,1.9-4.4,6.9-7.3c0,0-7.7,8.1,1.5,9.8
			C918.4,1076,952.3,1077,965.3,1074.4z"/>
		<path class="st66" d="M961.5,1051.8c0,0,2.1,16,3.8,22.6c0,0-30.5,4-56.1,0c0,0-9.2-2.7-1.5-9.8S961.5,1051.8,961.5,1051.8z"/>
		<path class="st28" d="M930.8,1001.3c0,0-6.1-0.6-15.5-1.1c-12-0.7-29.4-1.4-45.7-0.8c0,0-11.5,2.3-6.1,6.1
			c5.4,3.8,22.4,16.3,22.4,16.3l15.2,4.7c0,0,43.2-1.7,40.1-10.9C938.1,1006.3,930.8,1001.3,930.8,1001.3z"/>
		<path class="st67" d="M915,1003.1c0,0,12.8,10.8,5.1,21.6c0,0,24.1-0.8,21.1-9.1c-3.9-10.9-10.3-14.2-10.3-14.2l-29.3-1.9
			C901.5,999.4,911.5,999.9,915,1003.1z"/>
		<path class="st11" d="M744.3,987.6c0,0-82.7-32.8-130.3-38.4l13.2-8.7c0,0-62.3-9-146.1,9.2S344.6,994,344.6,994l14.6,2.4
			l-87.7,59.4l-19.4,1.1l-62.3,26.1c0,0-3.1,14.1,0.7,16.4l2-4.5c0,0,27.9-2,40.1,11.6c12.3,13.7,19.7,23.3,19.7,23.3
			s5.8,7,14.7,7.4c8.9,0.4,51.5,3.9,51.5,3.9s27.2-33.4,75.9-17.1l12.4-6.6l-38.5-41.5c0,0-2-12.6,0.3-16c2.3-3.5,2.5-8.8,2.5-8.8
			s-35.4-6.1-25.3-16.7c10.1-10.6,53.7-40.5,53.7-40.5s88.4-25.9,107-28.7c18.6-2.8,105.8-8.1,142,2.7s67.9,19.9,82.3,26.6
			c0,0,2.4,3.8-0.4,5.5C730.3,999.9,741.8,996.8,744.3,987.6z"/>
		<path class="st68" d="M362.3,996.5c49.2-21.4,56.2-20.9,122.8-37.8c66.6-17,128.9-9.4,128.9-9.4"/>
		<path class="st69" d="M271.5,1055.8c0,0-24.6,16.6-58.7,26.3l-19,5.9l-1.2,6.9"/>
		<g>
			<path class="st70" d="M193.8,1088l173.6-21.6c0,0-0.2-3.4,1.2-6.5c1.5-3.2,2.3-6.5,2.5-8.8l-118.9,15.8
				C252.2,1066.9,231.9,1077.7,193.8,1088z"/>
		</g>
		<g>
			<path class="st71" d="M428.7,973.7c0,0-28,13.6-29.2,20.1l-53.7,40.5l12.7,13.9l-85.9,8.4C272.6,1056.6,344.3,992.8,428.7,973.7z
				"/>
		</g>
		<path class="st64" d="M555,957.8c0,0,45.7-2.7,67.3-7.4c0,0,54.3,10,106.1,31.4c0,0,0.8,7-6.4,9.6l-73.5-23.6
			c0,0-27.2-8.6-72.2-6.3l-26.3,0L555,957.8z"/>
		<path class="st11" d="M714.6,1006.6c0,0-312.9,43.1-343.5,44.5c0,0-0.3,5.3-2.5,8.8c0,0-1.5,3.5-1.2,6.5l0.9,9.5l38.5,41.5
			l-12.4,6.6c0,0,38.3,16.4,35.8,59.1c0,0,1.6,1.4,12.9-0.8s316.1-56.6,316.1-56.6s-6.5,2.7-16.7-12.2l-2.2,0.2
			C740.4,1113.8,741.8,1044.3,714.6,1006.6z"/>
		<g>
			<path class="st70" d="M373.6,1066l349.2-45.3c0,0-3.4-7.9-8.2-14.1L371.1,1051c0,0,0.2,5-2.5,8.8c0,0-1.6,3.6-1.2,6.5L373.6,1066
				z"/>
		</g>
		<path class="st65" d="M406.8,1117.4l29.7,31.1c0,0,8,17.7,39.3,12.4c31.4-5.3,264.5-47,264.5-47l2.2-0.2c0,0,7.2,13.2,16.7,12.2
			l-316.1,56.6c0,0-9.7,2.3-12.9,0.8c0,0,4.1-38.9-35.8-59.1L406.8,1117.4z"/>
		<path class="st72" d="M553.7,1051.4c0,0-5.2,4.8,1.2,4.8c6.4,0,29.3-5,29.3-5s5.2-3.3-2.2-4.5L553.7,1051.4z"/>
		<path class="st72" d="M409.2,1073.3c0,0-5.2,4.8,1.2,4.8c6.4,0,29.3-5,29.3-5s5.2-3.3-2.2-4.5L409.2,1073.3z"/>
		<path class="st73" d="M578,1054.5c0,0-3.4,7.3-14.9,2.2"/>
		<path class="st74" d="M575.7,1046.2c0,0-7.4-5.7-14.4,2.2"/>
		<path class="st73" d="M433.1,1076.6c0,0-3.4,7.3-14.9,2.2"/>
		<path class="st74" d="M430.9,1068.3c0,0-7.4-5.7-14.4,2.2"/>
		<g>
			<path class="st71" d="M737.4,1072.2c0,0-3,26.2-22.5,29.2c-19.6,3-243.2,41.3-243.2,41.3s-29.6,6.8-51.7-11.7l16.6,17.4
				c0,0,6.8,17.5,39.3,12.4c32.6-5.2,264.5-47,264.5-47S740.6,1098.3,737.4,1072.2z"/>
		</g>
		<circle class="st14" cx="368.8" cy="1186.2" r="53.9"/>
		<g>
			<g>
				<path class="st54" d="M369.3,1223.6c-0.5,0-1,0-1.5,0c-9.3-0.4-17.9-4.4-24.2-11.2c-6.3-6.9-9.6-15.8-9.2-25.1
					c0.8-18.8,16.1-33.5,34.9-33.5c0.5,0,1,0,1.5,0c19.2,0.8,34.2,17.1,33.4,36.3C403.4,1208.9,388.1,1223.6,369.3,1223.6z"/>
				<path class="st55" d="M369.3,1155.3c0.5,0,0.9,0,1.4,0c18.4,0.8,32.8,16.3,32,34.8c-0.7,18-15.5,32-33.4,32c-0.5,0-0.9,0-1.4,0
					c-18.4-0.8-32.8-16.3-32-34.8C336.7,1169.4,351.4,1155.3,369.3,1155.3 M369.3,1152.3L369.3,1152.3c-19.6,0-35.5,15.3-36.4,34.9
					c-0.8,20.1,14.8,37.1,34.9,37.9c0.5,0,1,0,1.5,0c19.6,0,35.5-15.3,36.4-34.9c0.4-9.7-3-19-9.6-26.2s-15.6-11.3-25.3-11.7
					C370.3,1152.3,369.8,1152.3,369.3,1152.3L369.3,1152.3z"/>
			</g>
			<g>
				<path class="st56" d="M369.3,1208.1c-0.3,0-0.5,0-0.8,0c-5.1-0.2-9.8-2.4-13.2-6.1c-3.4-3.7-5.2-8.6-5-13.7
					c0.4-10.2,8.8-18.2,19-18.2c0.3,0,0.5,0,0.8,0c5.1,0.2,9.8,2.4,13.2,6.1c3.4,3.7,5.2,8.6,5,13.7
					C387.9,1200.1,379.5,1208.1,369.3,1208.1z"/>
				<path class="st57" d="M369.3,1169.1v2c0.3,0,0.5,0,0.8,0c9.9,0.4,17.7,8.8,17.3,18.8c-0.4,9.7-8.3,17.3-18,17.3
					c-0.3,0-0.5,0-0.8,0c-4.8-0.2-9.3-2.3-12.5-5.8c-3.3-3.5-4.9-8.1-4.7-13c0.4-9.7,8.3-17.3,18-17.3L369.3,1169.1 M369.3,1169.1
					c-10.7,0-19.5,8.4-20,19.2c-0.5,11.1,8.1,20.4,19.2,20.8c0.3,0,0.6,0,0.8,0c10.7,0,19.5-8.4,20-19.2
					c0.5-11.1-8.1-20.4-19.2-20.8C369.8,1169.1,369.5,1169.1,369.3,1169.1L369.3,1169.1z"/>
			</g>
			<circle class="st58" cx="369.6" cy="1189.1" r="6.7"/>
			<g>
				<path class="st59" d="M358.3,1167.6c-1.2,0-2.1-1-2-2.2c0-1.1,1-2,2.1-2c0.7,0,1.2,0.3,1.6,0.7c0.4,0.4,0.6,1,0.6,1.5
					C360.5,1166.7,359.5,1167.6,358.3,1167.6L358.3,1167.6z"/>
				<path class="st60" d="M358.4,1163.6L358.4,1163.6L358.4,1163.6c1.1,0,1.9,0.9,1.9,1.9c0,1-0.9,1.8-1.9,1.8l-0.1,0
					c-1,0-1.8-0.9-1.8-1.9C356.6,1164.4,357.4,1163.6,358.4,1163.6 M358.4,1163.1c-1.3,0-2.3,1-2.4,2.3c-0.1,1.3,1,2.4,2.3,2.5
					c0,0,0.1,0,0.1,0c1.3,0,2.3-1,2.4-2.3C360.8,1164.3,359.8,1163.2,358.4,1163.1C358.5,1163.1,358.4,1163.1,358.4,1163.1
					L358.4,1163.1z"/>
			</g>
			<g>
				<path class="st59" d="M372.3,1165.1c-0.6,0-1.1-0.3-1.5-0.7c-0.4-0.4-0.6-1-0.6-1.5c0-1.1,1-2,2.1-2c1.3,0.1,2.2,1,2.1,2.2
					C374.5,1164.2,373.6,1165.1,372.3,1165.1L372.3,1165.1z"/>
				<g>
					<path class="st60" d="M372.4,1161.1L372.4,1161.1L372.4,1161.1c1.1,0,1.9,0.9,1.9,1.9c0,1-0.9,1.8-1.9,1.8l-0.1,0
						c-0.5,0-1-0.2-1.3-0.6s-0.5-0.8-0.5-1.3C370.6,1161.9,371.4,1161.1,372.4,1161.1 M372.4,1160.6c-1.3,0-2.3,1-2.4,2.3
						c-0.1,1.3,1,2.4,2.3,2.5c0,0,0.1,0,0.1,0c1.3,0,2.3-1,2.4-2.3C374.8,1161.8,373.8,1160.7,372.4,1160.6
						C372.5,1160.6,372.5,1160.6,372.4,1160.6L372.4,1160.6z"/>
				</g>
			</g>
			<g>
				<path class="st61" d="M369.6,1178.4c-0.7,0-1.3-0.6-1.3-1.4c0-0.7,0.6-1.3,1.3-1.3c0.4,0,0.7,0.2,1,0.4c0.2,0.3,0.4,0.6,0.3,0.9
					C371,1177.8,370.4,1178.4,369.6,1178.4L369.6,1178.4z"/>
				<g>
					<path class="st62" d="M369.7,1175.5l0,0.5c0.6,0,1,0.5,1,1.1c0,0.6-0.5,1-1.1,1c0,0,0,0,0,0c-0.6,0-1-0.5-1-1.1
						c0-0.6,0.5-1,1.1-1V1175.5 M369.7,1175.5c-0.8,0-1.5,0.7-1.6,1.5c0,0.9,0.6,1.6,1.5,1.6c0,0,0,0,0.1,0c0.8,0,1.5-0.7,1.6-1.5
						C371.3,1176.3,370.6,1175.6,369.7,1175.5C369.7,1175.5,369.7,1175.5,369.7,1175.5L369.7,1175.5z"/>
				</g>
			</g>
			<g>
				<path class="st61" d="M380.7,1190.5c-0.3,0-0.7-0.2-0.9-0.4c-0.2-0.3-0.4-0.6-0.3-0.9c0-0.7,0.6-1.3,1.3-1.3
					c0.4,0,0.7,0.2,1,0.4s0.4,0.6,0.3,0.9C382.1,1189.9,381.5,1190.5,380.7,1190.5L380.7,1190.5z"/>
				<g>
					<path class="st62" d="M380.8,1187.6l0,0.5c0.6,0,1,0.5,1,1.1c0,0.6-0.5,1-1.1,1c0,0,0,0,0,0c-0.6,0-1-0.5-1-1.1
						c0-0.6,0.5-1,1.1-1V1187.6 M380.8,1187.6c-0.8,0-1.5,0.7-1.6,1.5c0,0.9,0.6,1.6,1.5,1.6c0,0,0,0,0.1,0c0.8,0,1.5-0.7,1.6-1.5
						C382.4,1188.4,381.7,1187.7,380.8,1187.6C380.8,1187.6,380.8,1187.6,380.8,1187.6L380.8,1187.6z"/>
				</g>
			</g>
			<g>
				<path class="st61" d="M368.9,1201.2c-0.7,0-1.3-0.6-1.3-1.4c0-0.7,0.6-1.3,1.3-1.3c0.8,0,1.3,0.6,1.3,1.4
					C370.2,1200.7,369.6,1201.2,368.9,1201.2L368.9,1201.2z"/>
				<g>
					<path class="st62" d="M368.9,1198.3l0,0.5c0.3,0,0.5,0.1,0.7,0.3c0.2,0.2,0.3,0.5,0.3,0.8c0,0.6-0.5,1-1.1,1c0,0,0,0,0,0
						c-0.3,0-0.5-0.1-0.7-0.3c-0.2-0.2-0.3-0.5-0.3-0.8c0-0.6,0.5-1,1.1-1V1198.3 M368.9,1198.3c-0.8,0-1.5,0.7-1.6,1.5
						c0,0.9,0.6,1.6,1.5,1.6c0,0,0,0,0.1,0c0.8,0,1.5-0.7,1.6-1.5C370.5,1199.1,369.9,1198.4,368.9,1198.3
						C369,1198.3,368.9,1198.3,368.9,1198.3L368.9,1198.3z"/>
				</g>
			</g>
			<g>
				<path class="st61" d="M357.6,1190.2c-0.7,0-1.3-0.6-1.3-1.4c0-0.7,0.6-1.3,1.3-1.3c0.8,0,1.3,0.6,1.3,1.4
					C358.9,1189.7,358.3,1190.2,357.6,1190.2L357.6,1190.2z"/>
				<g>
					<path class="st62" d="M357.6,1187.3l0,0.5c0.3,0,0.5,0.1,0.7,0.3c0.2,0.2,0.3,0.5,0.3,0.8c0,0.6-0.5,1-1.1,1c0,0,0,0,0,0
						c-0.3,0-0.5-0.1-0.7-0.3c-0.2-0.2-0.3-0.5-0.3-0.8c0-0.6,0.5-1,1.1-1V1187.3 M357.6,1187.3c-0.8,0-1.5,0.7-1.6,1.5
						c0,0.9,0.6,1.6,1.5,1.6c0,0,0,0,0.1,0c0.8,0,1.5-0.7,1.6-1.5C359.2,1188.1,358.5,1187.4,357.6,1187.3
						C357.7,1187.3,357.6,1187.3,357.6,1187.3L357.6,1187.3z"/>
				</g>
			</g>
			<g>
				<path class="st59" d="M386.4,1171.1c-1.2,0-2.1-1-2-2.2c0-1.1,1-2,2.1-2c0.7,0,1.2,0.3,1.6,0.7c0.4,0.4,0.6,1,0.6,1.5
					C388.6,1170.2,387.6,1171.1,386.4,1171.1L386.4,1171.1z"/>
				<g>
					<path class="st60" d="M386.5,1167.2L386.5,1167.2L386.5,1167.2c0.6,0,1,0.2,1.4,0.6s0.5,0.8,0.5,1.3c0,1-0.9,1.8-1.9,1.8
						l-0.1,0c-1,0-1.8-0.9-1.8-1.9C384.7,1167.9,385.5,1167.2,386.5,1167.2 M386.5,1166.7c-1.3,0-2.3,1-2.4,2.3
						c-0.1,1.3,1,2.4,2.3,2.5c0,0,0.1,0,0.1,0c1.3,0,2.3-1,2.4-2.3C388.9,1167.8,387.9,1166.7,386.5,1166.7
						C386.6,1166.7,386.5,1166.7,386.5,1166.7L386.5,1166.7z"/>
				</g>
			</g>
			<g>
				<path class="st59" d="M393.6,1181.1c-0.6,0-1.1-0.3-1.5-0.7c-0.4-0.4-0.6-1-0.6-1.5c0-1.1,1-2,2.1-2c1.3,0.1,2.2,1,2.1,2.2
					C395.7,1180.2,394.8,1181.1,393.6,1181.1L393.6,1181.1z"/>
				<g>
					<path class="st60" d="M393.7,1177.1L393.7,1177.1L393.7,1177.1c1.1,0,1.9,0.9,1.9,1.9c0,1-0.9,1.8-1.9,1.8l-0.1,0
						c-1,0-1.8-0.9-1.8-1.9C391.9,1177.9,392.7,1177.1,393.7,1177.1 M393.7,1176.6c-1.3,0-2.3,1-2.4,2.3c-0.1,1.3,1,2.4,2.3,2.5
						c0,0,0.1,0,0.1,0c1.3,0,2.3-1,2.4-2.3C396.1,1177.8,395.1,1176.7,393.7,1176.6C393.7,1176.6,393.7,1176.6,393.7,1176.6
						L393.7,1176.6z"/>
				</g>
			</g>
			<g>
				<path class="st59" d="M395.1,1193.9c-0.6,0-1.1-0.3-1.5-0.7c-0.4-0.4-0.6-1-0.6-1.5c0-1.1,1-2,2.1-2c1.3,0.1,2.2,1,2.1,2.2
					C397.2,1193,396.3,1193.9,395.1,1193.9L395.1,1193.9z"/>
				<g>
					<path class="st60" d="M395.1,1189.9L395.1,1189.9L395.1,1189.9c0.6,0,1,0.2,1.4,0.6c0.3,0.4,0.5,0.8,0.5,1.3
						c0,1-0.9,1.8-1.9,1.8l-0.1,0c-1,0-1.8-0.9-1.8-1.9C393.3,1190.7,394.1,1189.9,395.1,1189.9 M395.1,1189.4c-1.3,0-2.3,1-2.4,2.3
						c-0.1,1.3,1,2.4,2.3,2.5c0,0,0.1,0,0.1,0c1.3,0,2.3-1,2.4-2.3C397.6,1190.6,396.5,1189.5,395.1,1189.4
						C395.2,1189.4,395.2,1189.4,395.1,1189.4L395.1,1189.4z"/>
				</g>
			</g>
			<g>
				<path class="st59" d="M390.9,1205.5c-1.2,0-2.1-1-2-2.2c0-1.1,1-2,2.1-2c0.7,0,1.2,0.3,1.6,0.7c0.4,0.4,0.6,1,0.6,1.5
					C393,1204.6,392.1,1205.5,390.9,1205.5L390.9,1205.5z"/>
				<g>
					<path class="st60" d="M391,1201.6L391,1201.6L391,1201.6c1.1,0,1.9,0.9,1.9,1.9c0,1-0.9,1.8-1.9,1.8l-0.1,0
						c-0.5,0-1-0.2-1.3-0.6s-0.5-0.8-0.5-1.3C389.1,1202.4,390,1201.6,391,1201.6 M391,1201.1c-1.3,0-2.3,1-2.4,2.3
						c-0.1,1.3,1,2.4,2.3,2.5c0,0,0.1,0,0.1,0c1.3,0,2.3-1,2.4-2.3C393.4,1202.2,392.4,1201.1,391,1201.1
						C391,1201.1,391,1201.1,391,1201.1L391,1201.1z"/>
				</g>
			</g>
			<g>
				<path class="st59" d="M380.9,1214.2c-1.2,0-2.1-1-2-2.2c0-1.1,1-2,2.1-2c0.7,0,1.2,0.3,1.6,0.7c0.4,0.4,0.6,1,0.6,1.5
					C383.1,1213.3,382.2,1214.2,380.9,1214.2L380.9,1214.2z"/>
				<g>
					<path class="st60" d="M381,1210.3L381,1210.3L381,1210.3c1.1,0,1.9,0.9,1.9,1.9c0,1-0.9,1.8-1.9,1.8l-0.1,0
						c-0.5,0-1-0.2-1.3-0.6s-0.5-0.8-0.5-1.3C379.2,1211,380,1210.3,381,1210.3 M381,1209.8c-1.3,0-2.3,1-2.4,2.3
						c-0.1,1.3,1,2.4,2.3,2.5c0,0,0.1,0,0.1,0c1.3,0,2.3-1,2.4-2.3C383.4,1210.9,382.4,1209.8,381,1209.8
						C381.1,1209.8,381.1,1209.8,381,1209.8L381,1209.8z"/>
				</g>
			</g>
			<g>
				<path class="st59" d="M368.3,1217.7c-0.6,0-1.1-0.3-1.5-0.7c-0.4-0.4-0.6-1-0.6-1.5c0-1.1,1-2,2.1-2c1.3,0.1,2.2,1,2.1,2.2
					C370.4,1216.8,369.5,1217.7,368.3,1217.7L368.3,1217.7z"/>
				<g>
					<path class="st60" d="M368.4,1213.7L368.4,1213.7L368.4,1213.7c0.6,0,1,0.2,1.4,0.6s0.5,0.8,0.5,1.3c0,1-0.9,1.8-1.9,1.8
						l-0.1,0c-1,0-1.8-0.9-1.8-1.9C366.5,1214.5,367.4,1213.7,368.4,1213.7 M368.4,1213.2c-1.3,0-2.3,1-2.4,2.3
						c-0.1,1.3,1,2.4,2.3,2.5c0,0,0.1,0,0.1,0c1.3,0,2.3-1,2.4-2.3C370.8,1214.4,369.8,1213.3,368.4,1213.2
						C368.4,1213.2,368.4,1213.2,368.4,1213.2L368.4,1213.2z"/>
				</g>
			</g>
			<g>
				<path class="st59" d="M356.9,1214.7c-1.2,0-2.1-1-2-2.2c0-1.1,1-2,2.1-2c0.7,0,1.2,0.3,1.6,0.7c0.4,0.4,0.6,1,0.6,1.5
					C359.1,1213.8,358.1,1214.7,356.9,1214.7L356.9,1214.7z"/>
				<g>
					<path class="st60" d="M357,1210.7L357,1210.7L357,1210.7c1.1,0,1.9,0.9,1.9,1.9c0,1-0.9,1.8-1.9,1.8l-0.1,0
						c-1,0-1.8-0.9-1.8-1.9C355.2,1211.5,356,1210.7,357,1210.7 M357,1210.2c-1.3,0-2.3,1-2.4,2.3c-0.1,1.3,1,2.4,2.3,2.5
						c0,0,0.1,0,0.1,0c1.3,0,2.3-1,2.4-2.3C359.4,1211.3,358.4,1210.2,357,1210.2C357.1,1210.2,357,1210.2,357,1210.2L357,1210.2z"
						/>
				</g>
			</g>
			<g>
				<path class="st59" d="M347.8,1206.4c-0.6,0-1.1-0.3-1.5-0.7c-0.4-0.4-0.6-1-0.6-1.5c0-1.1,1-2,2.1-2c1.3,0.1,2.2,1,2.1,2.2
					C349.9,1205.5,349,1206.4,347.8,1206.4L347.8,1206.4z"/>
				<g>
					<path class="st60" d="M347.9,1202.4L347.9,1202.4L347.9,1202.4c1.1,0,1.9,0.9,1.9,1.9c0,1-0.9,1.8-1.9,1.8l-0.1,0
						c-0.5,0-1-0.2-1.3-0.6s-0.5-0.8-0.5-1.3C346.1,1203.2,346.9,1202.4,347.9,1202.4 M347.9,1201.9c-1.3,0-2.3,1-2.4,2.3
						c-0.1,1.3,1,2.4,2.3,2.5c0,0,0.1,0,0.1,0c1.3,0,2.3-1,2.4-2.3C350.3,1203.1,349.3,1202,347.9,1201.9
						C347.9,1201.9,347.9,1201.9,347.9,1201.9L347.9,1201.9z"/>
				</g>
			</g>
			<g>
				<path class="st59" d="M342.9,1195.4c-0.6,0-1.1-0.3-1.5-0.7c-0.4-0.4-0.6-1-0.6-1.5c0-1.1,1-2,2.1-2c1.3,0.1,2.2,1,2.1,2.2
					C345.1,1194.5,344.1,1195.4,342.9,1195.4L342.9,1195.4z"/>
				<g>
					<path class="st60" d="M343,1191.5L343,1191.5L343,1191.5c0.6,0,1,0.2,1.4,0.6s0.5,0.8,0.5,1.3c0,1-0.9,1.8-1.9,1.8l-0.1,0
						c-1,0-1.8-0.9-1.8-1.9C341.2,1192.2,342,1191.5,343,1191.5 M343,1191c-1.3,0-2.3,1-2.4,2.3c-0.1,1.3,1,2.4,2.3,2.5
						c0,0,0.1,0,0.1,0c1.3,0,2.3-1,2.4-2.3C345.4,1192.1,344.4,1191,343,1191C343.1,1191,343,1191,343,1191L343,1191z"/>
				</g>
			</g>
			<g>
				<path class="st59" d="M343.1,1184.6c-0.6,0-1.1-0.3-1.5-0.7c-0.4-0.4-0.6-1-0.6-1.5c0-1.1,1-2,2.1-2c1.3,0.1,2.2,1,2.1,2.2
					C345.2,1183.7,344.3,1184.6,343.1,1184.6L343.1,1184.6z"/>
				<g>
					<path class="st60" d="M343.2,1180.6L343.2,1180.6L343.2,1180.6c0.6,0,1,0.2,1.4,0.6s0.5,0.8,0.5,1.3c0,1-0.9,1.8-1.9,1.8
						l-0.1,0c-1,0-1.8-0.9-1.8-1.9C341.4,1181.4,342.2,1180.6,343.2,1180.6 M343.2,1180.1c-1.3,0-2.3,1-2.4,2.3
						c-0.1,1.3,1,2.4,2.3,2.5c0,0,0.1,0,0.1,0c1.3,0,2.3-1,2.4-2.3C345.6,1181.3,344.6,1180.2,343.2,1180.1
						C343.3,1180.1,343.2,1180.1,343.2,1180.1L343.2,1180.1z"/>
				</g>
			</g>
			<g>
				<path class="st59" d="M347.9,1174.4c-1.2,0-2.1-1-2-2.2c0-1.1,1-2,2.1-2c0.7,0,1.2,0.3,1.6,0.7c0.4,0.4,0.6,1,0.6,1.5
					C350.1,1173.5,349.2,1174.4,347.9,1174.4L347.9,1174.4z"/>
				<g>
					<path class="st60" d="M348,1170.5L348,1170.5L348,1170.5c1.1,0,1.9,0.9,1.9,1.9c0,1-0.9,1.8-1.9,1.8l-0.1,0
						c-0.5,0-1-0.2-1.3-0.6c-0.3-0.4-0.5-0.8-0.5-1.3C346.2,1171.2,347,1170.5,348,1170.5 M348,1170c-1.3,0-2.3,1-2.4,2.3
						c-0.1,1.3,1,2.4,2.3,2.5c0,0,0.1,0,0.1,0c1.3,0,2.3-1,2.4-2.3C350.4,1171.1,349.4,1170,348,1170
						C348.1,1170,348.1,1170,348,1170L348,1170z"/>
				</g>
			</g>
		</g>
		<path class="st63" d="M414.8,1214.1c0,0,19.1-52.8-30.3-74.1c0,0-28.5-7.5-46.6,8.3c-18.1,15.8-20.4,38.3-18.8,58
			c0,0-4.8-6.2-4.2-22.4s12.2-51.5,56.1-51.6c0,0,50.3,0.8,51.6,56.1C422.6,1188.4,422.6,1202.6,414.8,1214.1z"/>
		<path class="st68" d="M535.6,1030.3c0,0,22.6,49.5,28.4,114.6"/>
		<g>
			<path class="st70" d="M222.4,1209c-32.4,0-34.8-43-35-46.7l9.5-6.9l-0.9-17.5l0-1.9c3.3,0,23.5-0.1,37.2-1.4
				c5.3-0.5,9.1-2.3,11.4-5.2c1.8-2.4,2.1-4.9,2.1-6.4l3.8,4.2c5.1,8.1,16.1,10.2,16.6,10.3l50.4,4.2c-21.6,24.4-11.6,56.1-9.9,60.8
				c-5.9,0.7-51,5.6-84.1,6.6C223.1,1209,222.7,1209,222.4,1209C222.4,1209,222.4,1209,222.4,1209z"/>
			<g>
				<path class="st65" d="M247.1,1124.1l3,3.2c5.2,8.2,16.4,10.4,16.9,10.5l0.1,0l0.1,0l49.4,4.1c-11.6,13.6-13.6,29.1-13.2,40
					c0.4,9.7,2.6,17.2,3.6,20c-7.9,0.9-51.3,5.6-83.4,6.5c-0.4,0-0.8,0-1.1,0c-13.9,0-23.9-7.8-29.8-23c-3.9-10.2-4.6-20.5-4.7-22.9
					l9.1-6.6l0.4-0.3l0-0.5l-0.9-17.2l0-1.4c4.5,0,23.6-0.1,36.7-1.4c5.4-0.5,9.4-2.3,11.7-5.4
					C246.4,1127.7,246.9,1125.7,247.1,1124.1 M246.1,1121.5c0,0,2,11.1-13,12.5c-14,1.3-34.9,1.4-37.4,1.4c-0.2,0-0.2,0-0.2,0l0,2.4
					l0.9,17.3l-9.5,6.9c0,0,0.8,47.5,35.5,47.5c0.4,0,0.8,0,1.2,0c35.8-1.1,84.8-6.7,84.8-6.7s-14.1-35.2,10.2-61.7l-51.4-4.2
					c0,0-11.2-2.1-16.3-10.2L246.1,1121.5L246.1,1121.5z"/>
			</g>
		</g>
		<path class="st11" d="M244.4,1156.5c0,0,28.6-1.6,30.2-17.9l43.1,3.5c0,0-17.7,17-13,44.4l-101.2,17.1c0,0-14.9-10.7-16.6-41.6
			l9.5-6.9C196.4,1155.1,214.8,1162.1,244.4,1156.5z"/>
		<path class="st65" d="M308.3,1202.8l-3.5-16.3l-101.2,17.1c0,0,8.1,6.3,20,5.8C235.4,1209,308.3,1202.8,308.3,1202.8z"/>
		<path class="st10" d="M614,950.2c0,0,29.1,3.1,65.9,14.7s59.1,20.9,59.1,20.9s3.4,2.5,9.6,0.9c6.2-1.6,15.2-3.9,15.2-3.9
			s-74.4-34.7-135.5-41.6c0,0-2.6-0.8-5.4,0.9C620.1,943.8,614,950.2,614,950.2z"/>
		<path d="M721.5,989.6c0,0,20.5,7.9,10.1,12.8l-16.3,4.9c0,0-7.3,0.9-15,1.5c-7.8,0.6-319.3,43-319.3,43s-17.5,2.1-29.4-3.7
			c-11.9-5.7-12.8-7.9-5.2-14.9s36.2-29,36.2-29s21.4-15.9,48-23.2c26.6-7.3,57.7-16.5,119.2-22.4S676.2,968.9,721.5,989.6z"/>
		<path class="st75" d="M519.8,965.6l24.8,60.3l132.4-17.4l-3.9-29.5c0,0,0.7-3-6.8-4.7S592.9,951.2,519.8,965.6z"/>
		<path class="st75" d="M504.4,968.7c0,0,9.5,37.6,19.5,59.4l-126.7,17.8l-6.9-21.9c0,0-1.3-20.4,18.1-30
			C431.9,982.2,504.4,968.7,504.4,968.7z"/>
		<path class="st76" d="M511.7,966.4c0,0,12.5,39.5,23,60.5"/>
		<path class="st77" d="M667.8,986.5l-0.6,15c0,0,2.3,6.1,13.2,5.2c10.9-0.9,23.1-6,23.1-6s6-4.8-0.6-8.8c-6.5-4-11.9-7.9-25.5-8.7
			C669.2,982.6,667.8,986.5,667.8,986.5z"/>
		<path class="st78" d="M519.8,965.6l24.8,60.3c0,0,47.2-51.3,128.7-42.6l-0.2-4.3c0,0,0.6-2.6-6.8-4.7
			C658.9,972.2,586.8,951.3,519.8,965.6z"/>
		<path class="st9" d="M614,950.2c0,0,82.3,5.8,149.8,32.6c0,0-70.8-33.9-135.5-41.6c0,0-3.2-1.1-6.7,2.1S614,950.2,614,950.2z"/>
		<path class="st79" d="M343.9,994.2l18.6,1.6c0,0-50.1,34.4-88.2,60.5l-22.5,0.8C251.8,1057.1,299.1,1019.7,343.9,994.2z"/>
		<path class="st28" d="M187.8,1095.1l26.7,0.8c0,0,7.1-1.2,16.2,8.4c9.1,9.6,14.4,15.9,14.4,15.9s4.8,9.4-4.8,13
			c-9.7,3.6-45.6,4.2-45.6,4.2S189.2,1135.3,187.8,1095.1z"/>
		<path class="st67" d="M193.6,1111.3c0,0,36.6-0.1,40.6-3.7c0,0-8.2-11.9-19.7-12.4s-26.8-0.8-26.8-0.8l1.3,16.4
			C188.9,1110.9,190.7,1111.2,193.6,1111.3z"/>
		<path class="st67" d="M243.5,1118.2c0,0-7.5,13.9-52.9,8c0,0,1.5,9.8,4,11.2c0,0,33.2,0.2,44.7-3.3
			C239.4,1134.1,253.3,1128.9,243.5,1118.2z"/>
		<path class="st80" d="M251.8,1057.1c0,0,58.5-44,86.5-44.8l26.7-16.2l-21.1-1.9C343.9,994.2,304.2,1015.4,251.8,1057.1z"/>
		<path class="st78" d="M507.4,980.1c0,0-92.2,17.8-93.3,63.5l-17,2.2l-6.9-21.9c0,0-5.4-18.1,17.6-30.1
			c25.4-13.2,96.5-25.1,96.5-25.1L507.4,980.1z"/>
		<g>
			<path class="st71" d="M722.7,1020.7c0,0,80.6-14.2,140.7-15.3l22.4,16.3l15.2,4.7l-27.6,4.6c0,0-6.1-11.3-29.7-11.4
				c-23.6-0.1-53,5.8-91.7,23.9c0,0-7.6,2.7-8,27.1s-1.6,42.8-1.6,42.8l-2.2,0.2C740.4,1113.8,740.2,1059.7,722.7,1020.7z"/>
		</g>
		<path class="st81" d="M748.4,1023.4l-9.2,1.8c0,0-1.1,0.5-0.7,4.1c0.4,3.6,0.8,4.2,4.9,3.3c4.1-0.9,8-1.8,8-1.8s3,0.5,1.1-5.7
			C752.4,1025.2,753,1021.5,748.4,1023.4z"/>
		<path class="st82" d="M274.3,1056.3c0,0-22.4,14.4-80.5,31.7l0.2,6.4"/>
		<path class="st82" d="M371.1,1051c0,0,0.4,5.4-2.5,8.8c0,0-1.8,3.2-1.2,6.5c0.6,3.3,0.5,7.8,0.9,9.5l38.5,41.5"/>
		<path class="st68" d="M715.3,1007.3c0,0,6.4,9.7,7.4,13.4c1,3.7,10.9,19.9,14.7,51.5c3.8,31.7,5.2,41.4,5.2,41.4"/>
		<path class="st82" d="M941.6,1017.2c0,0-1.3,6.5-20.8,7.5c-19.5,1-64.6,9.8-82.1,14.3"/>
	</g>
</g>
<g id="eighteen_00000054256262866476431880000018286803152678894488_">
</g>
<g id="nineteen_00000107558268356232088990000008456042227242415802_">
</g>
<g id="twenty">
</g>
</svg>
