<?xml version="1.0" encoding="utf-8"?>
<!-- Generator: Adobe Illustrator 27.2.0, SVG Export Plug-In . SVG Version: 6.00 Build 0)  -->
<svg version="1.1" xmlns="http://www.w3.org/2000/svg" xmlns:xlink="http://www.w3.org/1999/xlink" x="0px" y="0px"
	 viewBox="0 0 2250.5 1926.5" style="enable-background:new 0 0 2250.5 1926.5;" xml:space="preserve">
<style type="text/css">
	.st0{fill:#E8E6E6;stroke:#ADADAD;stroke-miterlimit:10;}
	.st1{fill:#F3F2F7;}
	.st2{fill:#030303;}
	.st3{fill:#353131;}
	.st4{fill:none;stroke:#ADADAD;stroke-width:2;stroke-miterlimit:10;}
	.st5{fill:none;stroke:#F3F2F7;stroke-width:2;stroke-miterlimit:10;}
	.st6{fill:#0A1205;}
	.st7{fill:#F3F2F7;stroke:#ADADAD;stroke-width:0.75;stroke-miterlimit:10;}
	.st8{fill:#ADADAD;}
	.st9{fill:#282828;}
	.st10{fill:#3A3A3A;}
	.st11{fill:#0A54A2;}
	.st12{fill:none;stroke:#E8E6E6;stroke-width:0.9742;stroke-miterlimit:10;}
	.st13{fill:#2E2E2E;}
	.st14{fill:#333333;}
	.st15{fill:#939393;stroke:#ADADAD;stroke-miterlimit:10;}
	.st16{fill:#D1D1D1;}
	.st17{fill:#191919;}
	.st18{fill:#666666;stroke:#ADADAD;stroke-miterlimit:10;}
	.st19{fill:#363636;}
	.st20{fill:none;stroke:#ADADAD;stroke-miterlimit:10;}
	.st21{fill:#121212;}
	.st22{fill:#0E0A12;}
	.st23{fill:#6E6E6E;}
	.st24{fill:#4E4E4E;}
	.st25{fill:#1E1E1E;}
	.st26{fill:#646464;}
	.st27{fill:#999999;}
	.st28{fill:#9E9E9E;}
	.st29{fill:#6D6D6D;}
	.st30{fill:#B5B5B5;}
	.st31{fill:#3E3E3E;}
	.st32{fill:#0D0F0C;}
	.st33{fill:none;stroke:#0E0A12;stroke-width:0.8371;stroke-miterlimit:10;}
	.st34{fill:#7D7D7D;}
	.st35{fill:#424242;}
	.st36{fill:#8A8A8A;}
	.st37{fill:#BCBCBC;stroke:#ADADAD;stroke-miterlimit:10;}
	.st38{fill:#8A8A8A;stroke:#6B6B6B;stroke-width:0.9619;stroke-miterlimit:10;}
	.st39{fill:none;stroke:#6B6B6B;stroke-width:0.7215;stroke-miterlimit:10;}
	.st40{fill:none;stroke:#A9A9AA;stroke-width:0.75;stroke-miterlimit:10;}
	.st41{fill:#484D4E;}
	.st42{fill:none;stroke:#111111;stroke-width:3;stroke-miterlimit:10;}
	.st43{fill:#282828;stroke:#0A0A0A;stroke-miterlimit:10;}
	.st44{fill:#F0221F;stroke:#BB1719;stroke-miterlimit:10;}
	.st45{fill:#BB1719;}
	.st46{fill:#FC7C88;stroke:#BB1719;stroke-miterlimit:10;}
	.st47{fill:none;stroke:#BB1719;stroke-width:3;stroke-miterlimit:10;}
	.st48{fill:#FC7C88;}
	.st49{fill:#FC7C88;stroke:#BB1719;stroke-width:3;stroke-miterlimit:10;}
	.st50{fill:#F0221F;}
	.st51{fill:#E8E6E6;stroke:#ADADAD;stroke-width:2;stroke-miterlimit:10;}
	.st52{opacity:0.59;fill:#F3F2F7;}
	.st53{fill:#080806;}
	.st54{fill:#9B9B9B;}
	.st55{fill:#2B2B2B;}
	.st56{fill:#C1BFBF;}
	.st57{fill:#D6D6D6;}
	.st58{fill:#4C4B4B;stroke:#A5A5A5;stroke-miterlimit:10;}
	.st59{fill:#444343;}
	.st60{fill:#727272;}
	.st61{fill:#A0A0A0;}
	.st62{fill:#999898;}
	.st63{fill:#444242;}
	.st64{fill:#157FCE;}
	.st65{fill:#134468;}
	.st66{fill:#092947;}
	.st67{fill:#D5D3D7;}
	.st68{fill:none;stroke:#134468;stroke-miterlimit:10;}
	.st69{fill:none;stroke:#0F63AD;stroke-miterlimit:10;}
	.st70{fill:#1672B7;}
	.st71{fill:#2066A0;}
	.st72{fill:#1B8ACE;}
	.st73{fill:none;stroke:#157FCE;stroke-miterlimit:10;}
	.st74{fill:none;stroke:#0A54A2;stroke-miterlimit:10;}
	.st75{fill:#3F3F3F;}
	.st76{fill:none;stroke:#282828;stroke-width:2;stroke-miterlimit:10;}
	.st77{fill:#7F7F7F;}
	.st78{fill:#2D2D2D;}
	.st79{fill:#4C4C4C;}
	.st80{fill:#383838;}
	.st81{fill:#9E9E9E;stroke:#0A55A3;stroke-miterlimit:10;}
	.st82{fill:none;stroke:#134468;stroke-width:0.75;stroke-miterlimit:10;}
	.st83{display:none;fill:#24242A;}
	.st84{display:none;fill:none;stroke:#848484;stroke-miterlimit:10;}
	.st85{display:none;fill:#30292D;}
	.st86{fill:#E8E6E6;}
	.st87{fill:#8C8C8C;}
	.st88{fill:#FCFCFC;stroke:#8C8C8C;stroke-miterlimit:10;}
	.st89{fill:#E8E6E6;stroke:#8C8C8C;stroke-miterlimit:10;}
	.st90{fill:#E8E6E6;stroke:#8C8C8C;stroke-width:2;stroke-miterlimit:10;}
	.st91{fill:none;stroke:#8C8C8C;stroke-width:2;stroke-miterlimit:10;}
	.st92{fill:none;stroke:#FCFCFC;stroke-width:3;stroke-miterlimit:10;}
	.st93{fill:#FCFCFC;}
	.st94{fill:#ADADAD;stroke:#8C8C8C;stroke-miterlimit:10;}
	.st95{fill:#FAFAFC;stroke:#ADADAD;stroke-width:0.75;stroke-miterlimit:10;}
	.st96{fill:none;stroke:#111111;stroke-width:3.6024;stroke-miterlimit:10;}
	.st97{fill:none;stroke:#111111;stroke-width:3.6093;stroke-miterlimit:10;}
	.st98{fill:none;stroke:#111111;stroke-width:3.5727;stroke-miterlimit:10;}
	.st99{fill:none;stroke:#111111;stroke-width:3.5263;stroke-miterlimit:10;}
	.st100{fill:none;stroke:#111111;stroke-width:3.4845;stroke-miterlimit:10;}
	.st101{fill:none;stroke:#111111;stroke-width:3.4337;stroke-miterlimit:10;}
	.st102{fill:none;stroke:#111111;stroke-width:3.3788;stroke-miterlimit:10;}
	.st103{fill:none;stroke:#111111;stroke-width:3.3233;stroke-miterlimit:10;}
	.st104{fill:none;stroke:#111111;stroke-width:3.2747;stroke-miterlimit:10;}
	.st105{fill:none;stroke:#111111;stroke-width:3.207;stroke-miterlimit:10;}
	.st106{fill:none;stroke:#111111;stroke-width:3.1652;stroke-miterlimit:10;}
	.st107{fill:none;stroke:#111111;stroke-width:3.099;stroke-miterlimit:10;}
	.st108{fill:none;stroke:#111111;stroke-width:3.0584;stroke-miterlimit:10;}
	.st109{fill:none;stroke:#111111;stroke-width:3.0299;stroke-miterlimit:10;}
</style>
<g id="original">
</g>
<g id="one">
</g>
<g id="two_00000026882943921159275490000004360688784792002186_">
</g>
<g id="three_00000113338737259881679640000015971704404683786636_">
</g>
<g id="four_00000049184186550712051260000002601905804867817144_">
</g>
<g id="five_00000179643197332058435300000007386453149388464260_">
</g>
<g id="six">
</g>
<g id="seven_00000062194613864970919320000012156796603096136882_">
</g>
<g id="eight">
</g>
<g id="nine">
</g>
<g id="ten_00000098906372602984753350000010503549982832515468_">
	<g>
		<path class="st86" d="M1971.8,828.7c-0.9-1.5-5.8-8.5-17.3-9.1c-12.1-0.7-193.8-3.9-204.5-4.1c0-2.4,0.1-13.1,5.3-18.6
			c2.1-2.2,4.8-3.3,8-3.3c14.8,0,186.9,6.1,188.6,6.1c0.3,0,31.7,2.1,37.6,28.6L1971.8,828.7z"/>
		<path class="st87" d="M1763.3,794c14.8,0,186.9,6.1,188.6,6.1c0.1,0,8,0.5,16.6,4.3c11,4.9,17.9,12.7,20.4,23.3l-16.8,0.4
			c-1.3-2-6.3-8.5-17.5-9.1c-11.9-0.6-189.3-3.8-204.1-4.1c0-3,0.4-12.7,5.2-17.8C1757.7,795.1,1760.2,794,1763.3,794 M1763.3,793
			c-15,0-13.9,23-13.9,23s192.5,3.4,205,4.1c12.5,0.7,17,9.1,17,9.1l18.6-0.5c-5.7-27.7-38.2-29.5-38.2-29.5S1778.3,793,1763.3,793
			L1763.3,793z"/>
	</g>
	<path class="st88" d="M1954.3,806.6l-141.9-6.1l21.4,8l117.6,4.2c0,0,16.5-0.2,25.8,15.2h5.2C1982.4,828,1977.2,807.8,1954.3,806.6
		z"/>
	<path class="st89" d="M1749.5,816l-0.5,12l201,1.9c0,0,11,0,13.4,13.4c2.4,13.4,21.5,113,21.5,113l0.8,128.3l32.7-0.8
		c0,0,9.4,1.1,9.4-8.3c0-9.4,0-44.6,0-44.6s0.5-5.9-5.4-8.1v-45.6h-16c0,0-10.2,0.8-11.3-15.9c-1.2-16.8-22-124.3-22-124.3
		s-1.5-2.4-1.7-7.8c0,0-5.8-8.8-17-9.1C1943.2,819.7,1749.5,816,1749.5,816z"/>
	<path class="st2" d="M1990.1,828.7l25.2,136.1l-22.6-21.3L1973.2,837c0,0-1.8-3.5-1.7-7.8L1990.1,828.7z"/>
	<path class="st2" d="M2018.1,951.3c0,0,5.4,9.2,3.2,17.8h-3l0.8,7.9l-12.5,0.2c0,0-10.3,0.4-11.3-15.9l-2.4-17.8l22.6,21.3
		c0,0,5.4-5.7-0.4-13.3c0,0-2.1-1.9-4.6,0.3c-2.5,2.2-3.9-1.7,0-3.6S2018.1,951.3,2018.1,951.3z"/>
	<polygon class="st3" points="1977.4,829.2 2005.3,913.3 1990.1,828.7 	"/>
	<path class="st90" d="M1749,828c0,0-5.4,110.4-4.1,200.8l240.1-0.9l-0.1-71.6l-21.5-113c0,0-1.7-13.4-13.4-13.4
		C1938.3,829.9,1749,828,1749,828z"/>
	<path class="st91" d="M1766.6,898.5l-0.3-47.2c0,0-0.6-8.8,12.4-9.1c13-0.3,24.8,0,24.8,0s9.1-2.1,9.1,11.8s-0.3,45.7-0.3,45.7"/>
	<path class="st92" d="M1765.7,909.4l-0.3,31.6c0,0-1.5,7.4,7.4,7.4c8.8,0,33.9,0,33.9,0s5,2.7,5-6.2s0-26,0-26"/>
	<path class="st91" d="M1764.8,979l0.3,33.6c0,0-0.9,5.3,5.3,5.3c6.2,0,39.5-0.3,39.5-0.3s4.7,1.8,4.4-6.2c-0.3-8-0.6-33-0.6-33
		s0.6-6.2-6.2-6.2c-6.8,0-38.3,0.6-38.3,0.6S1764.8,972.3,1764.8,979z"/>
	<line class="st91" x1="1826.7" y1="828.6" x2="1826.7" y2="1028"/>
	<polygon class="st6" points="1833.2,976.7 1833.5,995 1853.5,994.7 1853.5,976.7 	"/>
	<path class="st93" d="M1834.1,1001.4c0,0-1.2,10,14.2,9.7c15.3-0.3,115.3,0,115.3,0l-48.4-5.9h-66.9c0,0,0.3-3.8-4.1-4.1
		C1839.7,1000.9,1834.1,1001.4,1834.1,1001.4z"/>
	<path class="st87" d="M1837,842.2l4.7,67.2l-0.3-62.8c0,0-2.1-6.8,13.6-6.5c15.6,0.3,89.9,0.6,89.9,0.6s7.1-1.8,9.4,17.1
		c2.4,18.9,4.7,36.9,4.7,36.9l-2.1-45.7c0,0,0.7-11.8-13.6-11.6c-14.3,0.2-97.4-0.8-97.4-0.8S1838,836.3,1837,842.2z"/>
	<path class="st93" d="M1962,912.4l7.6,32.9c0,0,2.6,12.9-9.2,13.4c-11.8,0.5-111.3-5.3-111.3-5.3s-9.5-2.6-10-11.3
		s-0.3-27.4-0.3-27.4l2.6,25.5c0,0,0.3,8.4,7.9,9.5s109.2,6.1,109.2,6.1s11.1,2.9,7.4-19.2S1962,912.4,1962,912.4z"/>
	<path class="st9" d="M1841.7,914.8l-0.3,25.5c0,0,0.1,8.6,7.9,9.5c7.8,0.8,109.2,6.1,109.2,6.1s10.8,2.4,7.4-19.2
		s-12.8-85.5-12.8-85.5s-1.2-10-8.1-10.4c-6.9-0.3-95.2-1-95.2-1s-8.7-1.3-8.7,5.9C1841,852.9,1841.7,914.8,1841.7,914.8z"/>
	<polygon class="st2" points="1933,831 1933,837.9 1950.2,838.4 1949.9,831 	"/>
	<path class="st10" d="M1841.3,864.2c0,0,96.3,16.1,107.9,91.5l9.3,0.1c0,0,10.8,1.4,7.4-19.2c-3.5-20.6-12.8-85.5-12.8-85.5
		s-1.4-10.2-8.1-10.4s-95.2-1-95.2-1s-8.6-0.9-8.7,5.9C1841,852.5,1841.3,864.2,1841.3,864.2z"/>
	<polygon class="st2" points="1939.7,837.2 1939.8,848.3 1943.3,848.2 1943.5,837.4 	"/>
	<path class="st2" d="M1935.5,848.4l0.7,93.5h7.2c0,0,6.1-6.3,6.1-15.6l-0.2-66c0,0-1.4-10.9-5.9-12.1L1935.5,848.4z"/>
	<polygon class="st2" points="1939.3,970.7 1939.3,941.5 1943.5,941.8 1943.5,970.1 	"/>
	<polygon class="st2" points="1946.9,969.8 1950.6,969.9 1950.6,976.3 1931.8,976.3 1931.8,969.9 	"/>
	<path class="st11" d="M1818.6,772.1l17.4,0.2v18.3c0,0-4.6,1.4-19.2,0v-18.5L1818.6,772.1z"/>
	<path class="st87" d="M1838.9,789.9l0.1,6l-24.3-0.5v-5.9C1814.8,789.5,1823.8,792.4,1838.9,789.9z"/>
	<path class="st0" d="M1744.9,1028.8l0.4,26.2H1851c0,0,49,1.9,59.1,28.8l75.7,0.9l-0.7-56.7L1744.9,1028.8z"/>
	<path class="st89" d="M1744.9,1028.8l0.4,26.2H1851c0,0,49,1.9,59.1,28.8l75.7,0.9l-0.7-56.7L1744.9,1028.8z"/>
	<polygon class="st6" points="1982.4,1048.4 1960.6,1027.8 1979,1027.9 1985,1033.9 1985,1051.3 	"/>
	<path class="st6" d="M1945.1,1028.4l27.3,26.4h-18l-26.2-26.2C1928.1,1028.6,1945.1,1028.4,1945.1,1028.4z"/>
	<path class="st6" d="M1911.8,1028.6l26.6,26.6h-17.6l-26.5-26.5C1894.3,1028.8,1911.7,1028.7,1911.8,1028.6z"/>
	<path class="st6" d="M1879.6,1028.6l26.6,26.6h-17.6l-26.5-26.5C1862.1,1028.8,1879.5,1028.7,1879.6,1028.6z"/>
	<path class="st6" d="M1845.8,1028.6l26.6,26.6h-17.6l-26.5-26.5C1828.3,1028.8,1845.8,1028.7,1845.8,1028.6z"/>
	<path class="st6" d="M1812.4,1028.6l26.6,25.8h-17.6l-26.5-25.7C1794.9,1028.8,1812.4,1028.7,1812.4,1028.6z"/>
	<path class="st6" d="M1778.7,1029.1l26.6,25.3h-17.6l-26.5-25.1C1761.2,1029.3,1778.6,1029.2,1778.7,1029.1z"/>
	<path class="st6" d="M1744.9,1028.8l25.9,25.9h-16.4l-8.7-8.7l-0.7-0.7C1745.1,1045.3,1744.9,1028.6,1744.9,1028.8z"/>
	<path class="st94" d="M2022.5,1022.9h-26.9l8,8l24.3,0C2027.9,1030.9,2028.9,1025.3,2022.5,1022.9z"/>
	<path class="st94" d="M1985,1027.9c0,0,5.7,1.4,6,6.4v41.2l36.9-0.1c0,0,1.1,8.3-9.4,8.3c-10.5,0-32.7,0.8-32.7,0.8L1985,1027.9z"
		/>
	<polygon class="st13" points="1934.9,1180.6 1985.4,1180.5 1985.4,1084.6 1910.1,1083.7 	"/>
	<polygon class="st0" points="1930,1112.7 1985.6,1112.7 1985.6,1117.8 1930.1,1117.8 	"/>
	<path class="st0" d="M1985.3,1144.9h-51.9v3.9h52.2C1985.6,1148.8,1985.3,1144.2,1985.3,1144.9z"/>
	<path class="st0" d="M1933.9,1175.6h51.2v4.4h-51.7C1933.4,1180,1934.3,1175.2,1933.9,1175.6z"/>
	<path class="st2" d="M1916.2,1142.9l-15.1,13.3c0,0-33.2-69.2-81.4-59.5c-48.3,9.7-70.3,61.6-70.3,61.6l-16.6-15.5l21.3-64.5
		l78.6-5.4l64.1,7.6l18,45.8L1916.2,1142.9z"/>
	<circle class="st14" cx="1825.2" cy="1172.2" r="78.7"/>
	<circle class="st15" cx="1825.5" cy="1170.1" r="48.8"/>
	<circle class="st12" cx="1825.5" cy="1170.1" r="48.8"/>
	<circle class="st16" cx="1825.2" cy="1169.5" r="42.8"/>
	<circle class="st17" cx="1825.8" cy="1170.6" r="18.4"/>
	<circle class="st18" cx="1813.7" cy="1149.5" r="2.5"/>
	<circle class="st18" cx="1825.7" cy="1146.5" r="2.5"/>
	<circle class="st18" cx="1838" cy="1150.2" r="2.5"/>
	<circle class="st18" cx="1846.4" cy="1158.4" r="2.5"/>
	<circle class="st18" cx="1849.1" cy="1170.8" r="2.5"/>
	<circle class="st18" cx="1846.6" cy="1182.7" r="2.5"/>
	<circle class="st18" cx="1838" cy="1191.4" r="2.5"/>
	<circle class="st18" cx="1826" cy="1194.5" r="2.5"/>
	<circle class="st18" cx="1812.9" cy="1190.9" r="2.5"/>
	<circle class="st18" cx="1804.8" cy="1182.4" r="2.5"/>
	<circle class="st18" cx="1801.7" cy="1170.4" r="2.5"/>
	<circle class="st18" cx="1804.5" cy="1158" r="2.5"/>
	<path class="st19" d="M1800.8,1134.6c0,0,4,14.9-10.7,11.3C1790.1,1145.9,1792.3,1139.7,1800.8,1134.6z"/>
	<path class="st19" d="M1817.3,1127.6c0,0,6.4,12,17.4,0.5C1834.7,1128.1,1826.9,1125.1,1817.3,1127.6z"/>
	<path class="st19" d="M1849.3,1134.6c0,0-3.1,14.6,11.7,11.7C1860.9,1146.2,1856.4,1137.9,1849.3,1134.6z"/>
	<path class="st19" d="M1867,1161.8c0,0-9.2,9.9-0.5,17.9C1866.5,1179.6,1869.6,1172.2,1867,1161.8z"/>
	<path class="st19" d="M1849.9,1204.5c0,0-0.9-11.3,10.3-10.7C1860.1,1193.8,1856.9,1199.7,1849.9,1204.5z"/>
	<path class="st19" d="M1833.4,1211.2c0,0-7.1-9.9-16.6,0.2C1816.8,1211.3,1823.9,1213.8,1833.4,1211.2z"/>
	<path class="st19" d="M1790.1,1193.8c0,0,12.1-1.7,11,10.7C1801.1,1204.5,1795.5,1201.5,1790.1,1193.8z"/>
	<path class="st19" d="M1783.2,1161.3c0,0,10.4,8.4,0.5,18.3C1783.7,1179.6,1781.2,1172.8,1783.2,1161.3z"/>
	<path d="M1899.4,1145.5c0,0,23.1,81.5-72,102.5c0,0-87.4-4.1-76.9-102c0,0-20.5,55.5,31,92c0,0,20.3,14.8,47,13
		c26.7-1.8,52.7-13.7,68.6-46.2C1906.4,1179.4,1905.4,1169.3,1899.4,1145.5z"/>
	<path class="st20" d="M1744.9,1028.8l0.4,26.2H1851c0,0,49,1.9,59.1,28.8l75.7,0.9l-0.7-56.7L1744.9,1028.8z"/>
	<circle class="st20" cx="1825.2" cy="1169.5" r="42.8"/>
	<path class="st0" d="M2012.1,1084l0.4,13.4c0,0,15.7,4.2,15.9,14.8v65c0,0,1.1,6.7-6.7,6.7c-7.8,0-36.3,0-36.3,0l0.3-99.2
		L2012.1,1084z"/>
	<path class="st95" d="M2018.1,1114.2v24c0,0-0.4,4.7,4.3,4.7c4.7,0,6.1,0,6.1,0l-0.2-30.7C2028.3,1112.2,2021.5,1110,2018.1,1114.2
		z"/>
	<path class="st95" d="M2028.4,1154.9c0,0-11.2-1.8-10.8,6.5c0.3,8.2,9.2,6.7,10.8,6.4V1154.9z"/>
	<path class="st94" d="M2027.1,1107.8c0,0-13.6-6.4-32.8-2.9l-0.7,74c0,0,29.9,4.5,34.7-1.8c0,0,1.8,6.5-6.7,6.7
		c-8.5,0.1-36.3,0-36.3,0l0.3-99.2l26.4-0.6l0.4,13.4C2012.5,1097.4,2025.1,1101.5,2027.1,1107.8z"/>
	<polygon class="st21" points="1013.4,1076.7 1013.4,1130.6 1195.9,1169.4 1237.4,1145.8 1599.7,1145.8 1741.4,1146.5 1754,1078.3 	
		"/>
	<circle class="st22" cx="1620.7" cy="1142.9" r="22.5"/>
	<circle class="st22" cx="1670" cy="1142.9" r="22.5"/>
	<path class="st23" d="M1634.9,1126c0,0-15-5.6-25.6,4.2c-10.6,9.8-10,20.6-10,20.6s-4.6-16.6,7.9-25.8S1633.3,1122.9,1634.9,1126z"
		/>
	<path class="st23" d="M1684,1126c0,0-15-5.6-25.6,4.2c-10.6,9.8-10,20.6-10,20.6s-4.6-16.6,7.9-25.8S1682.5,1122.9,1684,1126z"/>
	<path class="st24" d="M1392.5,1104.1v73.5h200.8v-73.8C1593.3,1103.8,1391.5,1104.1,1392.5,1104.1z"/>
	<path class="st25" d="M1543.6,1096.6v11.2h10.7v-11.2C1554.3,1096.6,1543.3,1096.6,1543.6,1096.6z"/>
	<polygon class="st26" points="1550.1,1101.2 1550.1,1107.8 1554.3,1107.8 1554.3,1096.6 1550,1096.6 	"/>
	<polygon class="st27" points="1398.3,1104.5 1398.3,1177.8 1392.5,1177.8 1392.5,1104.1 1398.3,1104.1 	"/>
	<path class="st28" d="M1418.3,1100.5v77.9h7.3v-77.8C1425.6,1100.6,1418.8,1100.5,1418.3,1100.5z"/>
	<path class="st28" d="M1491.2,1100.4v77.5h7.9v-77.5C1499.1,1100.4,1491.2,1100,1491.2,1100.4z"/>
	<path class="st28" d="M1564,1100.1v78.5h7.8v-78v-0.5C1571.8,1100,1563.8,1100.1,1564,1100.1z"/>
	<path class="st28" d="M1588.9,1103.8v73.6h4.3v-73.6C1593.3,1103.8,1588.9,1104.1,1588.9,1103.8z"/>
	<path class="st29" d="M1398.4,1120.1h19.8v5h-19.8C1398.4,1125.1,1398.2,1119.9,1398.4,1120.1z"/>
	<path class="st29" d="M1572,1120.1h16.7v5H1572C1572,1125.1,1571.8,1119.9,1572,1120.1z"/>
	<path class="st29" d="M1425.9,1120.1h64.9v5h-64.9C1425.9,1125.1,1425.3,1119.9,1425.9,1120.1z"/>
	<path class="st29" d="M1499.5,1120.1h64.5v5h-64.5C1499.5,1125.1,1498.9,1119.9,1499.5,1120.1z"/>
	<path class="st30" d="M1392.5,1120.1h5.9v4.9h-5.8C1392.6,1125.1,1392.5,1120,1392.5,1120.1z"/>
	<path class="st30" d="M1418.3,1120.1h7.3v5.8h-7.3C1418.3,1125.8,1418.3,1120.1,1418.3,1120.1z"/>
	<path class="st30" d="M1491.2,1120.1h7.9v5.8h-7.9C1491.2,1125.8,1491.1,1120.1,1491.2,1120.1z"/>
	<path class="st30" d="M1563.9,1120.1h8v5.8h-8C1563.9,1125.8,1563.8,1120.1,1563.9,1120.1z"/>
	<path class="st30" d="M1588.7,1120.3h4.5v4.9h-4.4C1588.8,1125.2,1588.7,1120.2,1588.7,1120.3z"/>
	<path class="st31" d="M1241.9,1154.1v-37.6c0,0,0.7-6.3,15.2-6.3c14.5,0,121.1,0,121.1,0s7.9-1,7.9,9.6s0,50.8,0,50.8
		s1.3,7.3-14.2,7.3s-121.8,0-121.8,0s-8.3,0.7-8.3-8.6S1241.9,1154.1,1241.9,1154.1z"/>
	<path class="st32" d="M1310.5,1138.9v12.2h8.8v-12.4C1319.3,1138.7,1310.4,1138.8,1310.5,1138.9z"/>
	<line class="st33" x1="1385.7" y1="1145.7" x2="1242.1" y2="1145.7"/>
	<circle class="st14" cx="1118.4" cy="1172.2" r="78.7"/>
	<circle class="st15" cx="1118.8" cy="1170.1" r="48.8"/>
	<circle class="st12" cx="1118.8" cy="1170.1" r="48.8"/>
	<circle class="st16" cx="1118.4" cy="1169.5" r="42.8"/>
	<circle class="st17" cx="1119" cy="1170.6" r="18.4"/>
	<circle class="st18" cx="1106.9" cy="1149.5" r="2.5"/>
	<circle class="st18" cx="1118.9" cy="1146.5" r="2.5"/>
	<circle class="st18" cx="1131.2" cy="1150.2" r="2.5"/>
	<circle class="st18" cx="1139.7" cy="1158.4" r="2.5"/>
	<circle class="st18" cx="1142.3" cy="1170.8" r="2.5"/>
	<circle class="st18" cx="1139.8" cy="1182.7" r="2.5"/>
	<circle class="st18" cx="1131.2" cy="1191.4" r="2.5"/>
	<circle class="st18" cx="1119.2" cy="1194.5" r="2.5"/>
	<circle class="st18" cx="1106.1" cy="1190.9" r="2.5"/>
	<circle class="st18" cx="1098.1" cy="1182.4" r="2.5"/>
	<circle class="st18" cx="1094.9" cy="1170.4" r="2.5"/>
	<circle class="st18" cx="1097.7" cy="1158" r="2.5"/>
	<path class="st19" d="M1094,1134.6c0,0,4,14.9-10.7,11.3C1083.3,1145.9,1085.5,1139.7,1094,1134.6z"/>
	<path class="st19" d="M1110.5,1127.6c0,0,6.4,12,17.4,0.5C1127.9,1128.1,1120.1,1125.1,1110.5,1127.6z"/>
	<path class="st19" d="M1142.5,1134.6c0,0-3.1,14.6,11.7,11.7C1154.1,1146.2,1149.6,1137.9,1142.5,1134.6z"/>
	<path class="st19" d="M1160.2,1161.8c0,0-9.2,9.9-0.5,17.9C1159.7,1179.6,1162.8,1172.2,1160.2,1161.8z"/>
	<path class="st19" d="M1143.1,1204.5c0,0-0.9-11.3,10.3-10.7C1153.4,1193.8,1150.1,1199.7,1143.1,1204.5z"/>
	<path class="st19" d="M1126.6,1211.2c0,0-7.1-9.9-16.6,0.2C1110,1211.3,1117.2,1213.8,1126.6,1211.2z"/>
	<path class="st19" d="M1083.3,1193.8c0,0,12.1-1.7,11,10.7C1094.3,1204.5,1088.7,1201.5,1083.3,1193.8z"/>
	<path class="st19" d="M1076.5,1161.3c0,0,10.4,8.4,0.5,18.3C1076.9,1179.6,1074.4,1172.8,1076.5,1161.3z"/>
	<path d="M1192.6,1145.5c0,0,23.1,81.5-72,102.5c0,0-87.4-4.1-76.9-102c0,0-20.5,55.5,31,92c0,0,20.3,14.8,47,13
		c26.7-1.8,52.7-13.7,68.6-46.2C1199.6,1179.4,1198.6,1169.3,1192.6,1145.5z"/>
	<circle class="st20" cx="1118.4" cy="1169.5" r="42.8"/>
	<path class="st34" d="M1206.7,1176.9c0,0,8.3-55.7-60.6-83.8c0,0-45.8-17.1-84.3,14.3c0,0-28.7,13.2-34.2,70c0,0-3.9,8.3-17.6,8.3
		h-10.8l0.9-54l13.4-1.1l17.1-35.8c0,0,5.9-17.9,30.8-17.9s126.4,0.3,126.4,0.3s17,0.3,23.2,26.4s14.7,29,26.1,29v53.4l-25.2-0.3
		C1211.7,1185.7,1206.4,1184.8,1206.7,1176.9z"/>
	<path class="st35" d="M1108.5,1083.6c0,0-63.8,0.4-76.5,41c-12.7,40.6-16.5,60.9-16.5,60.9s-11.6,0.8-16.4,0.2l0.9-54l13.4-1.1
		l17.1-35.8c0,0,6.3-18,30.8-17.9s126.4,0.3,126.4,0.3s19.4,0.1,23.2,26.4c6,24.5,13.5,25.8,26.9,28.3l-0.8,54.1l-25.2-0.3
		c0,0-5.3-0.8-5-8.8c0,0,16.9-3.9,10.2-39.3c0,0-14.5-9.1-15.5-27.4S1185.9,1083.9,1108.5,1083.6z"/>
	<path class="st36" d="M1736,1180.7c0,0-14.1-88.6,62.3-98.4l-55.9-0.4c0,0-23.4,26.1-24.5,67.9c-1.1,41.7-0.4,35.6-0.4,35.6
		S1733.1,1187.6,1736,1180.7z"/>
	<path class="st37" d="M1724.5,802.4l-0.3,37.4c0,0,8,1.6,14.8,0l-0.3-41.2L1724.5,802.4z"/>
	<ellipse class="st21" cx="1731.6" cy="800.6" rx="8.2" ry="8.5"/>
	<path class="st38" d="M1721,839.8c0,0,11.8,1.6,21.3-0.3v214.7c0,0-13.9,3.5-21.3-0.3V839.8z"/>
	<path class="st0" d="M1700.3,1102.7v24.7c0,0,5.9,8.8,12.9-0.2v-20.6c0,0-0.7-7,7-9.7c7.7-2.7,14.3-9.1,15.2-17.4
		c0.9-8.4,0.7-24,0.7-24s-6.9,1-13.4-0.3l-0.4,20c0,0-0.9,5.7-7.9,9.5S1700.8,1091.2,1700.3,1102.7z"/>
	<path class="st8" d="M1728.9,1056.2l-0.7,19.2c0,0-1.8,9.5-9,13c-7.3,3.5-12.3,8.2-12.3,15s-0.2,28-0.2,28s-4.8,1.5-6.4-3.9
		l0.4-27.9c0,0,0.2-8.4,11.7-13.9c11.5-5.5,9.9-10.6,9.9-10.6l0.4-20C1722.7,1055.1,1726.1,1056.2,1728.9,1056.2z"/>
	<path class="st39" d="M1742.1,844.9c0,0-8.2,2.4-21.1-0.2"/>
	<path class="st39" d="M1742.1,850.5c0,0-8.2,2.4-21.1-0.2"/>
	<path class="st39" d="M1742.1,855.8c0,0-8.2,2.4-21.1-0.2"/>
	<path class="st39" d="M1742.1,861.2c0,0-8.2,2.4-21.1-0.2"/>
	<path class="st39" d="M1742.1,866.8c0,0-8.2,2.4-21.1-0.2"/>
	<path class="st39" d="M1742.1,872.4c0,0-8.2,2.4-21.1-0.2"/>
	<path class="st39" d="M1741.9,878c0,0-8.2,2.4-21.1-0.2"/>
	<path class="st39" d="M1741.9,883.6c0,0-8.2,2.4-21.1-0.2"/>
	<path class="st39" d="M1741.9,889c0,0-8.2,2.4-21.1-0.2"/>
	<path class="st39" d="M1741.9,894.4c0,0-8.2,2.4-21.1-0.2"/>
	<path class="st39" d="M1741.9,900.2c0,0-8.2,2.4-21.1-0.2"/>
	<path class="st39" d="M1741.9,905.6c0,0-8.2,2.4-21.1-0.2"/>
	<path class="st39" d="M1741.9,911.8c0,0-8.2,2.4-21.1-0.2"/>
	<path class="st39" d="M1741.9,917.6c0,0-8.2,2.4-21.1-0.2"/>
	<path class="st39" d="M1741.9,923.2c0,0-8.2,2.4-21.1-0.2"/>
	<path class="st39" d="M1741.9,929.2c0,0-8.2,2.4-21.1-0.2"/>
	<path class="st39" d="M1741.9,935.1c0,0-8.2,2.4-21.1-0.2"/>
	<path class="st39" d="M1742.2,941.2c0,0-8.2,2.4-21.1-0.2"/>
	<path class="st39" d="M1742.2,947.9c0,0-8.2,2.4-21.1-0.2"/>
	<path class="st39" d="M1742,954c0,0-8.2,2.4-21.1-0.2"/>
	<path class="st39" d="M1742,960.5c0,0-8.2,2.4-21.1-0.2"/>
	<path class="st39" d="M1742,966.2c0,0-8.2,2.4-21.1-0.2"/>
	<path class="st39" d="M1742,972.5c0,0-8.2,2.4-21.1-0.2"/>
	<path class="st39" d="M1742,978.1c0,0-8.2,2.4-21.1-0.2"/>
	<path class="st39" d="M1742,985c0,0-8.2,2.4-21.1-0.2"/>
	<path class="st39" d="M1742,991.1c0,0-8.2,2.4-21.1-0.2"/>
	<path class="st39" d="M1742,996.6c0,0-8.2,2.4-21.1-0.2"/>
	<path class="st39" d="M1742,1002.4c0,0-8.2,2.4-21.1-0.2"/>
	<path class="st39" d="M1742,1008.3c0,0-8.2,2.4-21.1-0.2"/>
	<path class="st39" d="M1742,1014.6c0,0-8.2,2.4-21.1-0.2"/>
	<path class="st39" d="M1742,1021.7c0,0-8.2,2.4-21.1-0.2"/>
	<path class="st39" d="M1742,1028.4c0,0-8.2,2.4-21.1-0.2"/>
	<path class="st39" d="M1742,1034.9c0,0-8.2,2.4-21.1-0.2"/>
	<path class="st39" d="M1742,1041.4c0,0-8.2,2.4-21.1-0.2"/>
	<path class="st39" d="M1741.7,1048.3c0,0-8.2,2.4-21.1-0.2"/>
	<line class="st40" x1="1736.5" y1="840.4" x2="1736.5" y2="1055.4"/>
	<line class="st40" x1="1724.2" y1="839.8" x2="1724.2" y2="1055.1"/>
	<line class="st40" x1="1729.6" y1="840.8" x2="1729.6" y2="1056.2"/>
	<path class="st36" d="M1740,1054.3v28.2h113.9c0,0,58.2,1.1,58.2,55.2l-0.4,41c0,0-1.9,5.6,6.8,6c8.6,0.4,16.9,0,16.9,0l-1.7-59.2
		c0,0-7.4-69.5-78.8-70.2S1740,1054.3,1740,1054.3z"/>
	<path class="st41" d="M1770.9,1063.6l72.9-0.3c0,0,62.5-4.9,76.9,38.9c14.4,43.8,14.7,82.5,14.7,82.5l-1.7-59.2
		c0,0-5.2-70.5-82.7-70.5c-77.5,0-111-0.7-111-0.7l-0.2,10.5L1770.9,1063.6z"/>
	<path class="st11" d="M1689.4,768.8l0.3,20.9c0,0,5.5,1.3,18.6,0l-0.5-21.2L1689.4,768.8z"/>
	<path class="st87" d="M1710.8,789.1l0.1,4.4h-23.8l0.1-4.1C1687.2,789.5,1696.3,790.5,1710.8,789.1z"/>
	<polygon class="st89" points="1680.9,792.8 1637.5,892.7 1716,892.7 1716,792.8 	"/>
	<polygon class="st8" points="1644.5,876.4 1694.5,877 1715.8,845.6 1716,892.7 1637.5,892.7 	"/>
	<line class="st42" x1="1640.9" y1="883.2" x2="986.3" y2="631.4"/>
	<path class="st42" d="M952.7,665.5c0,0,7.4,106.1,8.9,117"/>
	<line class="st42" x1="993.1" y1="676.8" x2="983.3" y2="786.4"/>
	<polygon class="st43" points="1012.4,661.2 1100.6,695.4 1090.3,719.9 1007.5,686.7 	"/>
	<path class="st10" d="M1019,668.4c0,0,0.7,13.2,15.9,18.9c15.2,5.6,59.6,22.8,59.6,22.8l5-12.2c0,0-67.8-23.2-72.8-27.1
		c-5-4-6.9-5.1-6.9-5.1S1018.5,667.4,1019,668.4z"/>
	<circle class="st10" cx="973.1" cy="651.3" r="27.4"/>
	<circle class="st9" cx="973.7" cy="651.5" r="21.8"/>
	<path class="st44" d="M1020.1,658.5l-12.9,34.1c0,0-42.9-11.1-47-25.4c-4.2-14.3,1.8-26.3,5.1-34.1L1020.1,658.5z"/>
	<path class="st45" d="M981.2,676.9l22.7,9.6c0,0,5.2-20.7,16.2-28l-12.9,34.1c0,0-41.1-9.9-47-25.4c0,0-3.2-6.7,0.2-20.3
		c0,0-1.3,19.2,6.7,23.5C975.1,674.7,981.2,676.9,981.2,676.9z"/>
	<circle class="st46" cx="973.1" cy="650.4" r="5.4"/>
	<circle class="st10" cx="1148.4" cy="693.5" r="11.8"/>
	<circle class="st9" cx="1463" cy="827.7" r="18"/>
	<circle class="st10" cx="1463.3" cy="827.9" r="11.5"/>
	<polygon class="st44" points="1603.3,894.8 1105.1,685.2 1086.6,728 1336.4,835.5 1354.5,855.6 1541.2,940.2 	"/>
	<polyline class="st47" points="1580.4,897.4 1110.1,699.5 1100.5,723.1 	"/>
	<g>
		<polygon class="st48" points="1362.2,849.5 1342.1,829 1099.9,723.5 1102.4,717.6 1344.9,823.8 1366.8,846.1 1552.1,929.7 
			1547.6,933.3 		"/>
		<path class="st45" d="M1102.9,718.9l241.4,105.7l21.9,22.3l183.9,83l-2.7,2.2l-184.7-83.5l-20-20.4l-241.5-105.2L1102.9,718.9
			 M1101.9,716.3l-0.8,1.9l-1.7,4l-0.8,1.8l1.8,0.8l241.1,105.1l19.8,20.2l0.3,0.3l0.3,0.2l184.7,83.5l1.1,0.5l1-0.8l2.7-2.2l2.6-2
			l-3-1.3l-183.6-82.9l-21.7-22l-0.3-0.3l-0.4-0.2l-241.4-105.7L1101.9,716.3L1101.9,716.3z"/>
	</g>
	<circle class="st49" cx="1385.5" cy="837.9" r="6.6"/>
	<polygon class="st43" points="1373.5,864.2 1373.5,930 1394.7,930 1395,873.8 	"/>
	<polygon class="st10" points="1386.1,872.9 1386.8,929 1376.8,929 1376.8,867.4 1385.9,871.3 	"/>
	<path class="st43" d="M1369,929.4c0,0,10.4,0.4,31.1,0.1l-0.3,36.5h-31L1369,929.4z"/>
	<path class="st9" d="M971.2,795.8c0,0,2.1,5.5-1.4,6.9s-11.7,8.7-4.1,14.6S979,818.9,982,807c0,0-3.7,0.5-6.4,6.2
		c0,0-6.4,6.9-7.3-3.2c0,0,0-2.5,3.9-4.1c3.9-1.6,3.4-5.5,1.4-11.9L971.2,795.8z"/>
	<path class="st50" d="M964.6,764.2c0,0-1.9,14-5.8,20.2c0,0-2.3,4.7,0,6.2c2.3,1.6,10.5,5.8,10.5,5.8s1.9,3.9,7.4,0l8.2-6.2
		c0,0,2.7,0.4,1.2-5.4c-1.6-5.8-6.6-20.6-6.6-20.6H964.6z"/>
	<path class="st45" d="M977,766.6l6.2,17.4c0,0,1.7,2.5-0.2,4.7c-1.9,2.2-7.4,6.1-7.4,6.1s-2,1.7-4.6-0.2c-2.5-1.9-6.2-3.5-6.2-3.5
		l4.6,5.4c0,0,2.7,3.9,7.4,0c4.7-3.9,8.2-6.2,8.2-6.2s2.6,0.3,1.2-5.4c-1.4-5.7-6.6-20.6-6.6-20.6L977,766.6z"/>
	<g>
		<path class="st48" d="M958.9,790.5c-0.1,0-0.6-0.2-0.9-0.9c-0.3-0.8-0.4-2.2,1-5c2.9-5.7,4.8-12.4,5.8-20.1h14l-1.9,1.9l-10.7-0.2
			l0,0.2c0,0.2-1.4,16.8-6.3,20.1c-0.1,0.1-0.5,0.5-0.4,1.2c0.2,0.7,0.9,1.3,2.3,1.8c2.4,0.9,5.4,4.5,6.7,6.3L958.9,790.5z"/>
		<path class="st50" d="M978.2,764.7l-1.4,1.4l-10.4-0.2l-0.5,0l0,0.5c0,0.2-1.4,16.7-6.2,19.9l0,0l0,0c-0.2,0.2-0.5,0.7-0.4,1.4
			c0.2,0.8,1,1.5,2.4,2c1.9,0.7,4.3,3.4,5.8,5.2l-8.4-4.7l0,0l0,0c0,0-0.4-0.2-0.7-0.7c-0.3-0.7-0.4-2.1,1-4.8
			c2.8-5.6,4.8-12.4,5.8-20H978.2 M979.4,764.2h-14.8c-1.1,8.3-3.1,14.9-5.8,20.2c-2.7,5.4,0,6.2,0,6.2l10.5,5.8
			c0,0-4.3-6.1-7.5-7.3c-3.2-1.2-1.9-2.5-1.9-2.5c5.1-3.4,6.4-20.3,6.4-20.3l10.6,0.2L979.4,764.2L979.4,764.2z"/>
	</g>
	<line class="st42" x1="971.7" y1="812.2" x2="971.7" y2="821.6"/>
	<polygon class="st51" points="969.4,821.7 974.3,821.7 974.3,858.8 969.7,858.8 	"/>
	<line class="st100" x1="971.9" y1="859.4" x2="972.9" y2="1120.7"/>
	<polygon class="st89" points="1716,892.7 1716,1080 992.2,1080 992.2,1026.7 1110.2,966.5 1514.9,966.5 1587.2,894.3 	"/>
	<path class="st6" d="M1680.9,1047.5l31.2,32.1h-19.5l-32.2-32.2C1660.4,1047.4,1681.2,1047.3,1680.9,1047.5z"/>
	<path class="st6" d="M1646.3,1047.5l31.2,32.1h-19.5l-32.2-32.2C1625.7,1047.4,1646.5,1047.3,1646.3,1047.5z"/>
	<path class="st6" d="M1612.3,1047.5l31.2,32.1H1624l-32.2-32.2C1591.8,1047.4,1612.6,1047.3,1612.3,1047.5z"/>
	<path class="st6" d="M1577,1047.5l31.2,32.1h-19.5l-32.2-32.2C1556.4,1047.4,1577.2,1047.3,1577,1047.5z"/>
	<path class="st6" d="M1542.6,1047.6l31.2,32h-19.5l-32.2-32.1C1522,1047.5,1542.8,1047.4,1542.6,1047.6z"/>
	<path class="st6" d="M1507.5,1047.9l31.2,31.7h-19.5l-32.2-31.8C1486.9,1047.8,1507.7,1047.7,1507.5,1047.9z"/>
	<path class="st6" d="M1472.8,1047.9l31.2,31.7h-19.5l-32.2-31.8C1452.2,1047.8,1473.1,1047.7,1472.8,1047.9z"/>
	<path class="st6" d="M1437.7,1047.9l31.2,31.7h-19.5l-32.2-31.8C1417.1,1047.8,1437.9,1047.7,1437.7,1047.9z"/>
	<path class="st6" d="M1403.3,1048.2l31.2,31.4h-19.5l-32.2-31.5C1382.7,1048.1,1403.5,1047.9,1403.3,1048.2z"/>
	<path class="st6" d="M1368.6,1048.2l31.2,31.4h-19.5l-32.2-31.5C1348.1,1048.1,1368.9,1047.9,1368.6,1048.2z"/>
	<path class="st6" d="M1333.8,1048.2l31.2,31.4h-19.5l-32.2-31.5C1313.2,1048.1,1334,1048,1333.8,1048.2z"/>
	<path class="st6" d="M1298.7,1048.3l31.2,31.3h-19.5l-32.2-31.4C1278.1,1048.2,1298.9,1048.1,1298.7,1048.3z"/>
	<path class="st6" d="M1264.2,1048.4l31.2,31.2h-19.5l-32.2-31.3C1243.7,1048.3,1264.5,1048.2,1264.2,1048.4z"/>
	<path class="st6" d="M1229.8,1048.4l31.2,31.2h-19.5l-32.2-31.3C1209.2,1048.3,1230.1,1048.2,1229.8,1048.4z"/>
	<path class="st6" d="M1194.2,1048.8l31.2,30.8h-19.5l-32.2-30.9C1173.7,1048.6,1194.5,1048.5,1194.2,1048.8z"/>
	<path class="st6" d="M1159.4,1048.8l31.2,30.8H1171l-32.2-30.9C1138.8,1048.6,1159.6,1048.5,1159.4,1048.8z"/>
	<path class="st6" d="M1124,1049l31.2,30.6h-19.5l-32.2-30.7C1103.4,1048.9,1124.3,1048.8,1124,1049z"/>
	<path class="st6" d="M1089.1,1049.1l31.2,30.5h-19.5l-32.2-30.6C1068.6,1049,1089.4,1048.9,1089.1,1049.1z"/>
	<path class="st6" d="M1054,1049.2l31.2,30.4h-19.5l-32.2-30.5C1033.4,1049.1,1054.3,1049,1054,1049.2z"/>
	<polygon class="st1" points="1695.3,915.7 1695.3,1056.2 1688.2,1046.9 1688.2,921.1 	"/>
	<polygon class="st87" points="1596.3,921.9 1688.2,921.1 1695.3,915.7 1592.2,915.7 1523.7,988.5 1111,988.5 1012.8,1037.6 
		1012.8,1057 1020.4,1049.1 1020.4,1043.3 1117,995.9 1527,995.9 	"/>
	<polyline class="st1" points="1688.2,1046.9 1020.4,1049.1 1012.8,1057 1695.3,1056.2 	"/>
	<path class="st91" d="M1601.7,938.3h74.3v98.1h-74.3C1601.7,1036.4,1602,938.6,1601.7,938.3z"/>
	<polygon class="st6" points="1628.9,1019.6 1628.9,1028.7 1650.9,1028.7 1650.9,1018.6 1628.7,1018.6 	"/>
	<g>
		<path class="st9" d="M961,1115.5c0,0-0.9,10.5,0.9,11.5c1.8,1,20.3-5.7,21.7-9.4C983.5,1117.6,969.8,1118.1,961,1115.5z"/>
		<path class="st53" d="M289.3,1162.8l133.8-5.7c0,0,14.3-57.4-52.9-74.7S283.9,1128,289.3,1162.8z"/>
		<polygon class="st53" points="867.2,1142 876.2,1141.4 893.9,1093.5 830,1056.9 757.8,1071.6 745.1,1132.3 753.2,1149.2 		"/>
		<circle class="st14" cx="813.9" cy="1133.9" r="53.9"/>
		<g>
			<g>
				<path class="st54" d="M814.1,1171.4c-2.1,0-4.2-0.2-6.2-0.6c-18.9-3.4-31.6-21.6-28.2-40.5c3-16.6,17.4-28.7,34.3-28.7
					c2.1,0,4.2,0.2,6.2,0.6c9.2,1.7,17.2,6.8,22.5,14.4c5.3,7.7,7.3,16.9,5.7,26.1C845.4,1159.3,831,1171.4,814.1,1171.4z"/>
				<path class="st55" d="M814,1103.1c2,0,4,0.2,6,0.5c18.2,3.3,30.2,20.6,27,38.8c-2.9,16.2-17,27.5-32.8,27.5c-2,0-4-0.2-6-0.5
					c-18.2-3.3-30.2-20.6-27-38.8C784.1,1114.4,798.2,1103.1,814,1103.1 M814,1100.1L814,1100.1c-17.6,0-32.7,12.6-35.8,30
					c-3.6,19.8,9.6,38.7,29.4,42.3c2.1,0.4,4.3,0.6,6.5,0.6c17.6,0,32.7-12.6,35.8-30c1.7-9.6-0.4-19.2-5.9-27.2
					c-5.6-8-13.9-13.3-23.4-15.1C818.4,1100.3,816.2,1100.1,814,1100.1L814,1100.1z"/>
			</g>
			<g>
				<path class="st56" d="M814,1155.9c-1.1,0-2.3-0.1-3.4-0.3c-10.3-1.9-17.2-11.8-15.4-22.1c1.6-9.1,9.5-15.7,18.7-15.7
					c1.1,0,2.3,0.1,3.4,0.3c10.3,1.9,17.2,11.8,15.4,22.1C831.1,1149.3,823.2,1155.9,814,1155.9z"/>
				<path class="st57" d="M814,1116.8v2c1.1,0,2.2,0.1,3.2,0.3c4.7,0.9,8.9,3.5,11.6,7.5c2.7,4,3.8,8.7,2.9,13.5
					c-1.5,8.6-9,14.8-17.7,14.8c-1.1,0-2.2-0.1-3.2-0.3c-4.7-0.9-8.9-3.5-11.6-7.5c-2.7-4-3.8-8.7-2.9-13.5
					c1.5-8.6,9-14.8,17.7-14.8L814,1116.8 M814,1116.8c-9.5,0-17.9,6.8-19.7,16.5c-2,10.9,5.3,21.3,16.2,23.3
					c1.2,0.2,2.4,0.3,3.6,0.3c9.5,0,17.9-6.8,19.7-16.5c2-10.9-5.3-21.3-16.2-23.3C816.3,1116.9,815.2,1116.8,814,1116.8L814,1116.8
					z"/>
			</g>
			<circle class="st58" cx="814.3" cy="1136.9" r="6.7"/>
			<g>
				<path class="st59" d="M806.4,1114.1c-0.1,0-0.2,0-0.4,0c-1.1-0.2-1.9-1.3-1.7-2.4c0.2-1,1.1-1.7,2.1-1.7c0.1,0,0.2,0,0.4,0
					c0.6,0.1,1,0.4,1.4,0.9c0.3,0.5,0.4,1,0.3,1.6C808.3,1113.3,807.5,1114.1,806.4,1114.1z"/>
				<path class="st60" d="M806.4,1109.6v0.5c0.1,0,0.2,0,0.3,0c0.5,0.1,0.9,0.4,1.2,0.8c0.3,0.4,0.4,0.9,0.3,1.4
					c-0.2,0.9-0.9,1.5-1.8,1.5c-0.1,0-0.2,0-0.3,0c-1-0.2-1.7-1.1-1.5-2.2c0.2-0.9,0.9-1.5,1.8-1.5V1109.6 M806.4,1109.6
					c-1.1,0-2.1,0.8-2.3,1.9c-0.2,1.3,0.6,2.5,1.9,2.7c0.1,0,0.3,0,0.4,0c1.1,0,2.1-0.8,2.3-1.9c0.2-1.3-0.6-2.5-1.9-2.7
					C806.7,1109.6,806.6,1109.6,806.4,1109.6L806.4,1109.6z"/>
			</g>
			<g>
				<path class="st59" d="M820.7,1113.5c-0.1,0-0.2,0-0.4,0c-0.6-0.1-1-0.4-1.4-0.9c-0.3-0.5-0.4-1-0.3-1.6c0.2-1,1.1-1.7,2.1-1.7
					c0.1,0,0.2,0,0.4,0c1.1,0.2,1.9,1.3,1.7,2.4C822.6,1112.8,821.7,1113.5,820.7,1113.5z"/>
				<g>
					<path class="st60" d="M820.7,1109v0.5c0.1,0,0.2,0,0.3,0c1,0.2,1.7,1.1,1.5,2.2c-0.2,0.9-0.9,1.5-1.8,1.5c-0.1,0-0.2,0-0.3,0
						c-0.5-0.1-0.9-0.4-1.2-0.8c-0.3-0.4-0.4-0.9-0.3-1.4c0.2-0.9,0.9-1.5,1.8-1.5V1109 M820.7,1109c-1.1,0-2.1,0.8-2.3,1.9
						c-0.2,1.3,0.6,2.5,1.9,2.7c0.1,0,0.3,0,0.4,0c1.1,0,2.1-0.8,2.3-1.9c0.2-1.3-0.6-2.5-1.9-2.7C821,1109.1,820.8,1109,820.7,1109
						L820.7,1109z"/>
				</g>
			</g>
			<g>
				<path class="st61" d="M816,1126.3c-0.1,0-0.2,0-0.2,0c-0.3-0.1-0.6-0.3-0.8-0.5c-0.2-0.3-0.3-0.6-0.2-1c0.1-0.6,0.7-1.1,1.3-1.1
					c0.1,0,0.2,0,0.2,0c0.3,0.1,0.6,0.3,0.8,0.5c0.2,0.3,0.3,0.6,0.2,1C817.2,1125.9,816.7,1126.3,816,1126.3z"/>
				<g>
					<path class="st62" d="M816,1124L816,1124c0.1,0,0.1,0,0.2,0c0.6,0.1,1,0.7,0.9,1.2c-0.1,0.5-0.5,0.9-1,0.9c-0.1,0-0.1,0-0.2,0
						c-0.3,0-0.5-0.2-0.7-0.4s-0.2-0.5-0.2-0.8C815.1,1124.3,815.5,1124,816,1124 M816,1123.5c-0.7,0-1.4,0.5-1.5,1.3
						c-0.2,0.8,0.4,1.7,1.3,1.8c0.1,0,0.2,0,0.3,0c0.7,0,1.4-0.5,1.5-1.3c0.2-0.8-0.4-1.7-1.3-1.8
						C816.2,1123.5,816.1,1123.5,816,1123.5L816,1123.5z"/>
				</g>
			</g>
			<g>
				<path class="st61" d="M825.4,1139.8c-0.1,0-0.2,0-0.2,0c-0.3-0.1-0.6-0.3-0.8-0.5c-0.2-0.3-0.3-0.6-0.2-1
					c0.1-0.6,0.7-1.1,1.3-1.1c0.1,0,0.2,0,0.2,0c0.7,0.1,1.2,0.8,1.1,1.5C826.6,1139.4,826,1139.8,825.4,1139.8z"/>
				<g>
					<path class="st62" d="M825.4,1137.5L825.4,1137.5c0.1,0,0.1,0,0.2,0c0.6,0.1,1,0.7,0.9,1.2c-0.1,0.5-0.5,0.9-1,0.9
						c-0.1,0-0.1,0-0.2,0c-0.3,0-0.5-0.2-0.7-0.4c-0.2-0.2-0.2-0.5-0.2-0.8C824.5,1137.8,824.9,1137.5,825.4,1137.5 M825.4,1137
						c-0.7,0-1.4,0.5-1.5,1.3c-0.2,0.8,0.4,1.7,1.3,1.8c0.1,0,0.2,0,0.3,0c0.7,0,1.4-0.5,1.5-1.3c0.2-0.8-0.4-1.7-1.3-1.8
						C825.6,1137,825.5,1137,825.4,1137L825.4,1137z"/>
				</g>
			</g>
			<g>
				<path class="st61" d="M812.2,1148.8c-0.1,0-0.2,0-0.2,0c-0.3-0.1-0.6-0.3-0.8-0.5c-0.2-0.3-0.3-0.6-0.2-1
					c0.1-0.6,0.7-1.1,1.3-1.1c0.1,0,0.2,0,0.2,0c0.3,0.1,0.6,0.3,0.8,0.5c0.2,0.3,0.3,0.6,0.2,1
					C813.4,1148.4,812.8,1148.8,812.2,1148.8z"/>
				<g>
					<path class="st62" d="M812.2,1146.5L812.2,1146.5c0.1,0,0.1,0,0.2,0c0.3,0,0.5,0.2,0.7,0.4c0.2,0.2,0.2,0.5,0.2,0.8
						c-0.1,0.5-0.5,0.9-1,0.9c-0.1,0-0.1,0-0.2,0c-0.6-0.1-1-0.7-0.9-1.2C811.2,1146.8,811.7,1146.5,812.2,1146.5 M812.2,1146
						c-0.7,0-1.4,0.5-1.5,1.3c-0.2,0.8,0.4,1.7,1.3,1.8c0.1,0,0.2,0,0.3,0c0.7,0,1.4-0.5,1.5-1.3c0.2-0.8-0.4-1.7-1.3-1.8
						C812.4,1146,812.3,1146,812.2,1146L812.2,1146z"/>
				</g>
			</g>
			<g>
				<path class="st61" d="M802.5,1136.4c-0.1,0-0.2,0-0.2,0c-0.3-0.1-0.6-0.3-0.8-0.5c-0.2-0.3-0.3-0.6-0.2-1
					c0.1-0.6,0.7-1.1,1.3-1.1c0.1,0,0.2,0,0.2,0c0.7,0.1,1.2,0.8,1.1,1.5C803.6,1135.9,803.1,1136.4,802.5,1136.4z"/>
				<g>
					<path class="st62" d="M802.5,1134L802.5,1134c0.1,0,0.1,0,0.2,0c0.3,0,0.5,0.2,0.7,0.4s0.2,0.5,0.2,0.8c-0.1,0.5-0.5,0.9-1,0.9
						c-0.1,0-0.1,0-0.2,0c-0.3,0-0.5-0.2-0.7-0.4s-0.2-0.5-0.2-0.8C801.5,1134.4,802,1134,802.5,1134 M802.5,1133.5
						c-0.7,0-1.4,0.5-1.5,1.3c-0.2,0.8,0.4,1.7,1.3,1.8c0.1,0,0.2,0,0.3,0c0.7,0,1.4-0.5,1.5-1.3c0.2-0.8-0.4-1.7-1.3-1.8
						C802.7,1133.5,802.6,1133.5,802.5,1133.5L802.5,1133.5z"/>
				</g>
			</g>
			<g>
				<path class="st59" d="M833.8,1121.4c-0.1,0-0.3,0-0.4,0c-0.6-0.1-1-0.4-1.4-0.9c-0.3-0.5-0.4-1-0.3-1.6c0.2-1,1.1-1.7,2.1-1.7
					c0.1,0,0.3,0,0.4,0c0.6,0.1,1,0.4,1.4,0.9c0.3,0.5,0.4,1,0.3,1.6C835.7,1120.7,834.8,1121.4,833.8,1121.4z"/>
				<g>
					<path class="st60" d="M833.8,1117.5L833.8,1117.5c0.1,0,0.2,0,0.3,0c0.5,0.1,0.9,0.4,1.2,0.8c0.3,0.4,0.4,0.9,0.3,1.4
						c-0.2,0.9-0.9,1.5-1.8,1.5c-0.1,0-0.2,0-0.3,0c-0.5-0.1-0.9-0.4-1.2-0.8s-0.4-0.9-0.3-1.4
						C832.1,1118.1,832.9,1117.5,833.8,1117.5 M833.8,1117c-1.1,0-2.1,0.8-2.3,1.9c-0.2,1.3,0.6,2.5,1.9,2.7c0.1,0,0.3,0,0.4,0
						c1.1,0,2.1-0.8,2.3-1.9c0.2-1.3-0.6-2.5-1.9-2.7C834.1,1117,833.9,1117,833.8,1117L833.8,1117z"/>
				</g>
			</g>
			<g>
				<path class="st59" d="M839.6,1132.3c-0.1,0-0.2,0-0.4,0c-1.1-0.2-1.9-1.3-1.7-2.4c0.2-1,1.1-1.7,2.1-1.7c0.1,0,0.3,0,0.4,0
					c0.6,0.1,1,0.4,1.4,0.9c0.3,0.5,0.4,1,0.3,1.6C841.4,1131.6,840.6,1132.3,839.6,1132.3z"/>
				<g>
					<path class="st60" d="M839.6,1128.3L839.6,1128.3c0.1,0,0.2,0,0.3,0c0.5,0.1,0.9,0.4,1.2,0.8s0.4,0.9,0.3,1.4
						c-0.2,0.9-0.9,1.5-1.8,1.5c-0.1,0-0.2,0-0.3,0c-1-0.2-1.7-1.1-1.5-2.2C837.9,1129,838.7,1128.3,839.6,1128.3 M839.6,1127.8
						c-1.1,0-2.1,0.8-2.3,1.9c-0.2,1.3,0.6,2.5,1.9,2.7c0.1,0,0.3,0,0.4,0c1.1,0,2.1-0.8,2.3-1.9c0.2-1.3-0.6-2.5-1.9-2.7
						C839.8,1127.8,839.7,1127.8,839.6,1127.8L839.6,1127.8z"/>
				</g>
			</g>
			<g>
				<path class="st59" d="M839.3,1145.2c-0.1,0-0.2,0-0.4,0c-0.6-0.1-1-0.4-1.4-0.9c-0.3-0.5-0.4-1-0.3-1.6c0.2-1,1.1-1.7,2.1-1.7
					c0.1,0,0.2,0,0.4,0c1.1,0.2,1.9,1.3,1.7,2.4C841.2,1144.4,840.3,1145.2,839.3,1145.2z"/>
				<g>
					<path class="st60" d="M839.3,1141.2L839.3,1141.2c0.1,0,0.2,0,0.3,0c0.5,0.1,0.9,0.4,1.2,0.8s0.4,0.9,0.3,1.4
						c-0.2,0.9-0.9,1.5-1.8,1.5c-0.1,0-0.2,0-0.3,0c-0.5-0.1-0.9-0.4-1.2-0.8s-0.4-0.9-0.3-1.4
						C837.6,1141.8,838.4,1141.2,839.3,1141.2 M839.3,1140.7c-1.1,0-2.1,0.8-2.3,1.9c-0.2,1.3,0.6,2.5,1.9,2.7c0.1,0,0.3,0,0.4,0
						c1.1,0,2.1-0.8,2.3-1.9c0.2-1.3-0.6-2.5-1.9-2.7C839.5,1140.7,839.4,1140.7,839.3,1140.7L839.3,1140.7z"/>
				</g>
			</g>
			<g>
				<path class="st59" d="M833.5,1156.1c-0.1,0-0.2,0-0.4,0c-1.1-0.2-1.9-1.3-1.7-2.4c0.2-1,1.1-1.7,2.1-1.7c0.1,0,0.2,0,0.4,0
					c0.6,0.1,1,0.4,1.4,0.9c0.3,0.5,0.4,1,0.3,1.6C835.4,1155.4,834.6,1156.1,833.5,1156.1z"/>
				<g>
					<path class="st60" d="M833.5,1151.7v0.5c0.1,0,0.2,0,0.3,0c0.5,0.1,0.9,0.4,1.2,0.8c0.3,0.4,0.4,0.9,0.3,1.4
						c-0.2,0.9-0.9,1.5-1.8,1.5c-0.1,0-0.2,0-0.3,0c-1-0.2-1.7-1.1-1.5-2.2c0.2-0.9,0.9-1.5,1.8-1.5V1151.7 M833.5,1151.7
						c-1.1,0-2.1,0.8-2.3,1.9c-0.2,1.3,0.6,2.5,1.9,2.7c0.1,0,0.3,0,0.4,0c1.1,0,2.1-0.8,2.3-1.9c0.2-1.3-0.6-2.5-1.9-2.7
						C833.8,1151.7,833.7,1151.7,833.5,1151.7L833.5,1151.7z"/>
				</g>
			</g>
			<g>
				<path class="st59" d="M822.5,1163.4c-0.1,0-0.2,0-0.4,0c-0.6-0.1-1-0.4-1.4-0.9c-0.3-0.5-0.4-1-0.3-1.6c0.2-1,1.1-1.7,2.1-1.7
					c0.1,0,0.2,0,0.4,0c0.6,0.1,1,0.4,1.4,0.9c0.3,0.5,0.4,1,0.3,1.6C824.4,1162.6,823.5,1163.4,822.5,1163.4z"/>
				<g>
					<path class="st60" d="M822.5,1158.9v0.5c0.1,0,0.2,0,0.3,0c1,0.2,1.7,1.1,1.5,2.2c-0.2,0.9-0.9,1.5-1.8,1.5c-0.1,0-0.2,0-0.3,0
						c-1-0.2-1.7-1.1-1.5-2.2c0.2-0.9,0.9-1.5,1.8-1.5V1158.9 M822.5,1158.9c-1.1,0-2.1,0.8-2.3,1.9c-0.2,1.3,0.6,2.5,1.9,2.7
						c0.1,0,0.3,0,0.4,0c1.1,0,2.1-0.8,2.3-1.9c0.2-1.3-0.6-2.5-1.9-2.7C822.8,1158.9,822.6,1158.9,822.5,1158.9L822.5,1158.9z"/>
				</g>
			</g>
			<g>
				<path class="st59" d="M809.5,1165.1c-0.1,0-0.2,0-0.4,0c-0.6-0.1-1-0.4-1.4-0.9c-0.3-0.5-0.4-1-0.3-1.6c0.2-1,1.1-1.7,2.1-1.7
					c0.1,0,0.2,0,0.4,0c0.6,0.1,1,0.4,1.4,0.9c0.3,0.5,0.4,1,0.3,1.6C811.4,1164.4,810.5,1165.1,809.5,1165.1z"/>
				<g>
					<path class="st60" d="M809.5,1161.1L809.5,1161.1c0.1,0,0.2,0,0.3,0c1,0.2,1.7,1.1,1.5,2.2c-0.2,0.9-0.9,1.5-1.8,1.5
						c-0.1,0-0.2,0-0.3,0c-0.5-0.1-0.9-0.4-1.2-0.8s-0.4-0.9-0.3-1.4C807.8,1161.8,808.6,1161.1,809.5,1161.1 M809.5,1160.6
						c-1.1,0-2.1,0.8-2.3,1.9c-0.2,1.3,0.6,2.5,1.9,2.7c0.1,0,0.3,0,0.4,0c1.1,0,2.1-0.8,2.3-1.9c0.2-1.3-0.6-2.5-1.9-2.7
						C809.8,1160.6,809.6,1160.6,809.5,1160.6L809.5,1160.6z"/>
				</g>
			</g>
			<g>
				<path class="st59" d="M798.7,1160.5c-0.1,0-0.2,0-0.4,0c-0.6-0.1-1-0.4-1.4-0.9c-0.3-0.5-0.4-1-0.3-1.6c0.2-1,1.1-1.7,2.1-1.7
					c0.1,0,0.2,0,0.4,0c1.1,0.2,1.9,1.3,1.7,2.4C800.6,1159.8,799.7,1160.5,798.7,1160.5z"/>
				<g>
					<path class="st60" d="M798.7,1156.1v0.5c0.1,0,0.2,0,0.3,0c0.5,0.1,0.9,0.4,1.2,0.8c0.3,0.4,0.4,0.9,0.3,1.4
						c-0.2,0.9-0.9,1.5-1.8,1.5c-0.1,0-0.2,0-0.3,0c-1-0.2-1.7-1.1-1.5-2.2c0.2-0.9,0.9-1.5,1.8-1.5V1156.1 M798.7,1156.1
						c-1.1,0-2.1,0.8-2.3,1.9c-0.2,1.3,0.6,2.5,1.9,2.7c0.1,0,0.3,0,0.4,0c1.1,0,2.1-0.8,2.3-1.9c0.2-1.3-0.6-2.5-1.9-2.7
						C798.9,1156.1,798.8,1156.1,798.7,1156.1L798.7,1156.1z"/>
				</g>
			</g>
			<g>
				<path class="st59" d="M790.7,1151.1c-0.1,0-0.2,0-0.4,0c-0.6-0.1-1-0.4-1.4-0.9c-0.3-0.5-0.4-1-0.3-1.6c0.2-1,1.1-1.7,2.1-1.7
					c0.1,0,0.2,0,0.4,0c0.6,0.1,1,0.4,1.4,0.9c0.3,0.5,0.4,1,0.3,1.6C792.6,1150.4,791.8,1151.1,790.7,1151.1z"/>
				<g>
					<path class="st60" d="M790.7,1147.2L790.7,1147.2c0.1,0,0.2,0,0.3,0c1,0.2,1.7,1.1,1.5,2.2c-0.2,0.9-0.9,1.5-1.8,1.5
						c-0.1,0-0.2,0-0.3,0c-0.5-0.1-0.9-0.4-1.2-0.8c-0.3-0.4-0.4-0.9-0.3-1.4C789.1,1147.8,789.8,1147.2,790.7,1147.2 M790.7,1146.7
						c-1.1,0-2.1,0.8-2.3,1.9c-0.2,1.3,0.6,2.5,1.9,2.7c0.1,0,0.3,0,0.4,0c1.1,0,2.1-0.8,2.3-1.9c0.2-1.3-0.6-2.5-1.9-2.7
						C791,1146.7,790.9,1146.7,790.7,1146.7L790.7,1146.7z"/>
				</g>
			</g>
			<g>
				<path class="st59" d="M787.4,1139.6c-0.1,0-0.2,0-0.4,0c-0.6-0.1-1-0.4-1.4-0.9c-0.3-0.5-0.4-1-0.3-1.6c0.2-1,1.1-1.7,2.1-1.7
					c0.1,0,0.2,0,0.4,0c1.1,0.2,1.9,1.3,1.7,2.4C789.3,1138.9,788.4,1139.6,787.4,1139.6z"/>
				<g>
					<path class="st60" d="M787.4,1135.1v0.5c0.1,0,0.2,0,0.3,0c1,0.2,1.7,1.1,1.5,2.2c-0.2,0.9-0.9,1.5-1.8,1.5c-0.1,0-0.2,0-0.3,0
						c-0.5-0.1-0.9-0.4-1.2-0.8c-0.3-0.4-0.4-0.9-0.3-1.4c0.2-0.9,0.9-1.5,1.8-1.5V1135.1 M787.4,1135.1c-1.1,0-2.1,0.8-2.3,1.9
						c-0.2,1.3,0.6,2.5,1.9,2.7c0.1,0,0.3,0,0.4,0c1.1,0,2.1-0.8,2.3-1.9c0.2-1.3-0.6-2.5-1.9-2.7
						C787.7,1135.1,787.5,1135.1,787.4,1135.1L787.4,1135.1z"/>
				</g>
			</g>
			<g>
				<path class="st59" d="M789.1,1128.9c-0.1,0-0.2,0-0.4,0c-0.6-0.1-1-0.4-1.4-0.9c-0.3-0.5-0.4-1-0.3-1.6c0.2-1,1.1-1.7,2.1-1.7
					c0.1,0,0.2,0,0.4,0c0.6,0.1,1,0.4,1.4,0.9c0.3,0.5,0.4,1,0.3,1.6C791,1128.2,790.1,1128.9,789.1,1128.9z"/>
				<g>
					<path class="st60" d="M789.1,1124.4v0.5c0.1,0,0.2,0,0.3,0c1,0.2,1.7,1.1,1.5,2.2c-0.2,0.9-0.9,1.5-1.8,1.5c-0.1,0-0.2,0-0.3,0
						c-1-0.2-1.7-1.1-1.5-2.2c0.2-0.9,0.9-1.5,1.8-1.5V1124.4 M789.1,1124.4c-1.1,0-2.1,0.8-2.3,1.9c-0.2,1.3,0.6,2.5,1.9,2.7
						c0.1,0,0.3,0,0.4,0c1.1,0,2.1-0.8,2.3-1.9c0.2-1.3-0.6-2.5-1.9-2.7C789.3,1124.4,789.2,1124.4,789.1,1124.4L789.1,1124.4z"/>
				</g>
			</g>
			<g>
				<path class="st59" d="M795.2,1119.5c-0.1,0-0.2,0-0.4,0c-0.6-0.1-1-0.4-1.4-0.9c-0.3-0.5-0.4-1-0.3-1.6c0.2-1,1.1-1.7,2.1-1.7
					c0.1,0,0.2,0,0.4,0c0.6,0.1,1,0.4,1.4,0.9c0.3,0.5,0.4,1,0.3,1.6C797.1,1118.7,796.3,1119.5,795.2,1119.5z"/>
				<g>
					<path class="st60" d="M795.2,1115v0.5c0.1,0,0.2,0,0.3,0c0.5,0.1,0.9,0.4,1.2,0.8c0.3,0.4,0.4,0.9,0.3,1.4
						c-0.2,0.9-0.9,1.5-1.8,1.5c-0.1,0-0.2,0-0.3,0c-1-0.2-1.7-1.1-1.5-2.2c0.2-0.9,0.9-1.5,1.8-1.5V1115 M795.2,1115
						c-1.1,0-2.1,0.8-2.3,1.9c-0.2,1.3,0.6,2.5,1.9,2.7c0.1,0,0.3,0,0.4,0c1.1,0,2.1-0.8,2.3-1.9c0.2-1.3-0.6-2.5-1.9-2.7
						C795.5,1115,795.4,1115,795.2,1115L795.2,1115z"/>
				</g>
			</g>
		</g>
		<path class="st63" d="M855.7,1167.8c0,0,26.1-49.7-19.9-77.5c0,0-27.3-11.3-47.3,1.9c-20,13.2-25.4,35.2-26.5,54.9
			c0,0-3.9-6.8-1.1-22.7c2.8-15.9,19.1-49.4,62.6-43.5c0,0,49.7,7.7,43.5,62.6C866.9,1143.5,865,1157.5,855.7,1167.8z"/>
		<path class="st11" d="M775.3,1006.9c0,0,160,13.5,164.8,42.3c0,0,7.1,5.6,8.6,17.3c0,0,17.7,4.6,15.3,23.8c0,0-1.1,29.7,0.1,37.9
			c1.3,8.3-1.4,7.8-7.7,9.1s-53.1,4.3-80.2,4.1c0,0,9.7-47.8-39.5-70c0,0-26.7-10.1-50.1,1.5c-23.4,11.6-33.2,27.8-35.4,50.7
			c-2.2,22.9,2,25.6,2,25.6s-7,3.4-14.9-14.3l-2.2-0.1c0,0,9.5-71.1-11-109.7c0,0,24.5-3.6,32-14.7
			C757.2,1010.3,769,1006.8,775.3,1006.9z"/>
		<path class="st64" d="M757.2,1010.3l134.8,21.2c0,0,28.8,4.9,35.5,14.6l12.6,3c0,0-2-13.8-35.5-21.9c-33.6-8-57.3-12.5-129.3-20.5
			C775.3,1006.9,764.5,1007.5,757.2,1010.3z"/>
		<path class="st64" d="M963.6,1101c0,0-41.5-1.4-49.6,1.1c0,0,36.9-26.2,34.5-37.3l1.7,2.7c0,0,13.7,4.3,14,17.2
			C964.5,1097.6,963.6,1101,963.6,1101z"/>
		<path class="st65" d="M876.2,1141.4c0,0,4.6-7.8,17.4-8.1c12.8-0.3,67.3-2,70.8-6.9c0,0,3.6,10.8-8,11
			C944.9,1137.4,876.2,1141.4,876.2,1141.4z"/>
		<path class="st65" d="M963.6,1101l0.1,2.5c0,0-48.5-0.1-56.9,6.1c0,0-3.7,1.7-5.9,5.6c0,0,1.4-8.2,13.1-13
			C914,1102,924.7,1099.9,963.6,1101z"/>
		<path class="st64" d="M964.4,1126.3c0,0-1.4,1.4-5.1,1.8c-3.7,0.4-65.8-0.5-58.4-13.1c0,0,2.4-4.1,7.8-6.3c0,0-8.8,7,0.2,9.9
			C917.7,1121.5,951.2,1127.2,964.4,1126.3z"/>
		<path class="st66" d="M963.7,1103.4c0,0-0.1,16.1,0.7,22.9c0,0-30.7-0.2-55.6-7.7c0,0-8.7-3.9-0.2-9.9
			C917.2,1102.8,963.7,1103.4,963.7,1103.4z"/>
		<path class="st28" d="M940.1,1049.2c0,0-6-1.4-15.2-3.2c-11.8-2.3-28.9-5.4-45.2-7c0,0-11.7,0.7-6.9,5.2s20,19.2,20,19.2l14.4,6.8
			c0,0,43,4.2,41.2-5.4S940.1,1049.2,940.1,1049.2z"/>
		<path class="st67" d="M924.2,1048.8c0,0,11.3,12.4,2.1,22.1c0,0,24,2.5,22.2-6.1c-2.3-11.4-8.3-15.5-8.3-15.5l-28.8-5.9
			C911.4,1043.4,921.2,1045.2,924.2,1048.8z"/>
		<path class="st11" d="M757.2,1010.3c0,0-77.5-43.8-123.8-55.7l14.2-6.8c0,0-60.5-17.4-146-10.7s-141.2,25.2-141.2,25.2l14.2,4.3
			l-95,46.9l-19.3-1.5l-65.2,17.4c0,0-5,13.6-1.5,16.4l2.6-4.2c0,0,27.9,1.8,38.2,17c10.3,15.2,16.3,25.7,16.3,25.7
			s4.8,7.7,13.5,9.3c8.8,1.6,50.5,10.9,50.5,10.9s31.5-29.4,77.5-6.7l13.2-4.9l-32.5-46.4c0,0-0.2-12.7,2.5-15.8
			c2.7-3.1,3.7-8.4,3.7-8.4s-34.2-10.9-22.8-20s58.7-32.8,58.7-32.8s91.1-13.6,109.9-13.9c18.8-0.2,105.9,6.4,140.3,22
			c34.4,15.6,64.6,29,77.9,37.5c0,0,1.9,4.1-1.2,5.4C741.7,1020.5,753.5,1019,757.2,1010.3z"/>
		<path class="st68" d="M377.6,967.2c51.7-14.5,58.5-13,126.8-20.8s128.9,8.2,128.9,8.2"/>
		<path class="st69" d="M279.5,1013.5c0,0-26.7,13.1-61.8,18l-19.6,3.3l-2.1,6.7"/>
		<g>
			<path class="st70" d="M198.1,1034.9l174.9,2.2c0,0,0.2-3.4,2.1-6.3c1.9-2.9,3.2-6.2,3.7-8.4l-119.9-0.5
				C258.9,1021.9,237.3,1029.8,198.1,1034.9z"/>
		</g>
		<g>
			<path class="st71" d="M446.4,953.6c0,0-29.5,9.6-31.7,16l-58.7,32.8l10.7,15.5l-86.2-3.4C280.5,1014.5,360.2,961,446.4,953.6z"/>
		</g>
		<path class="st64" d="M573.8,955c0,0,45.7,3.6,67.7,1.9c0,0,52.5,17.3,100.8,45.6c0,0-0.2,7.1-7.6,8.6L665,977.7
			c0,0-25.8-12.3-70.7-16.1l-26.1-3.6L573.8,955z"/>
		<path class="st11" d="M725.2,1025c0,0-315.8,0.2-346.3-2.7c0,0-1,5.2-3.7,8.4c0,0-1.9,3.3-2.1,6.3l-0.4,9.5l32.5,46.4l-13.2,4.9
			c0,0,35.7,21.5,27.5,63.4c0,0,1.4,1.6,12.9,1c11.5-0.5,320.8-13.1,320.8-13.1s-6.8,1.8-14.9-14.3l-2.2-0.1
			C736.2,1134.7,747,1066.1,725.2,1025z"/>
		<g>
			<path class="st70" d="M379.3,1037.6l352.1,2.6c0,0-2.3-8.2-6.2-15.1l-346.3-2.7c0,0-0.5,4.9-3.7,8.4c0,0-2.1,3.3-2.1,6.3
				L379.3,1037.6z"/>
		</g>
		<path class="st65" d="M405.2,1092.9l25.2,34.8c0,0,5.5,18.6,37.3,17.6c31.8-1,268.5-10.6,268.5-10.6l2.2,0.1c0,0,5.4,14,14.9,14.3
			l-320.8,13.1c0,0-9.9,1-12.9-1c0,0,9.3-38-27.5-63.4L405.2,1092.9z"/>
		<path class="st72" d="M559.7,1047.5c0,0-5.8,4.1,0.5,5s29.7-0.9,29.7-0.9s5.6-2.6-1.6-4.8L559.7,1047.5z"/>
		<path class="st72" d="M413.6,1049.6c0,0-5.8,4.1,0.5,5s29.7-0.9,29.7-0.9s5.6-2.6-1.6-4.8L413.6,1049.6z"/>
		<path class="st73" d="M583.3,1053.9c0,0-4.3,6.8-15.1,0.1"/>
		<path class="st74" d="M582.3,1045.4c0,0-6.6-6.6-14.6,0.2"/>
		<path class="st73" d="M436.8,1056.2c0,0-4.3,6.8-15.1,0.1"/>
		<path class="st74" d="M435.8,1047.7c0,0-6.6-6.6-14.6,0.2"/>
		<g>
			<path class="st71" d="M738.9,1093.2c0,0-6.5,25.5-26.3,25.8c-19.8,0.3-246.6,7.8-246.6,7.8s-30.3,2.7-49.6-18.6l14,19.5
				c0,0,4.3,18.3,37.3,17.6s268.5-10.6,268.5-10.6S738.5,1119.5,738.9,1093.2z"/>
		</g>
		<circle class="st14" cx="358.2" cy="1155.9" r="53.9"/>
		<g>
			<g>
				<path class="st54" d="M358.4,1193.4c-2.1,0-4.2-0.2-6.2-0.6c-9.2-1.7-17.2-6.8-22.5-14.4s-7.3-16.9-5.7-26.1
					c3-16.6,17.4-28.7,34.3-28.7c2.1,0,4.2,0.2,6.2,0.6c9.2,1.7,17.2,6.8,22.5,14.4c5.3,7.7,7.3,16.9,5.7,26.1
					C389.7,1181.4,375.3,1193.4,358.4,1193.4z"/>
				<path class="st55" d="M358.3,1125.1c2,0,4,0.2,6,0.5c18.2,3.3,30.2,20.6,27,38.8c-2.9,16.2-17,27.5-32.8,27.5c-2,0-4-0.2-6-0.5
					c-18.2-3.3-30.2-20.6-27-38.8C328.4,1136.5,342.4,1125.1,358.3,1125.1 M358.3,1122.1L358.3,1122.1c-17.6,0-32.7,12.6-35.8,30
					c-1.7,9.6,0.4,19.2,5.9,27.2c5.6,8,13.9,13.3,23.4,15.1c2.1,0.4,4.3,0.6,6.5,0.6c17.6,0,32.7-12.6,35.8-30
					c1.7-9.6-0.4-19.2-5.9-27.2c-5.6-8-13.9-13.3-23.4-15.1C362.6,1122.3,360.5,1122.1,358.3,1122.1L358.3,1122.1z"/>
			</g>
			<g>
				<path class="st56" d="M358.3,1177.9c-1.1,0-2.3-0.1-3.4-0.3c-5-0.9-9.4-3.7-12.3-7.9c-2.9-4.2-4-9.2-3.1-14.2
					c1.6-9.1,9.5-15.7,18.7-15.7c1.1,0,2.3,0.1,3.4,0.3c10.3,1.9,17.2,11.8,15.4,22.1C375.4,1171.3,367.5,1177.9,358.3,1177.9z"/>
				<path class="st57" d="M358.3,1140.9L358.3,1140.9c1.1,0,2.2,0.1,3.2,0.3c4.7,0.9,8.9,3.5,11.6,7.5c2.7,4,3.8,8.7,2.9,13.5
					c-1.5,8.6-9,14.8-17.7,14.8c-1.1,0-2.2-0.1-3.2-0.3c-4.7-0.9-8.9-3.5-11.6-7.5c-2.7-4-3.8-8.7-2.9-13.5
					C342.1,1147.1,349.5,1140.9,358.3,1140.9 M358.3,1138.9c-9.5,0-17.9,6.8-19.7,16.5c-2,10.9,5.3,21.3,16.2,23.3
					c1.2,0.2,2.4,0.3,3.6,0.3c9.5,0,17.9-6.8,19.7-16.5c2-10.9-5.3-21.3-16.2-23.3C360.6,1139,359.4,1138.9,358.3,1138.9
					L358.3,1138.9z"/>
			</g>
			<circle class="st58" cx="358.6" cy="1158.9" r="6.7"/>
			<g>
				<path class="st59" d="M350.7,1136.1c-0.1,0-0.2,0-0.4,0c-0.6-0.1-1-0.4-1.4-0.9c-0.3-0.5-0.4-1-0.3-1.6c0.2-1,1.1-1.7,2.1-1.7
					c0.1,0,0.2,0,0.4,0c0.6,0.1,1,0.4,1.4,0.9c0.3,0.5,0.4,1,0.3,1.6C352.6,1135.4,351.7,1136.1,350.7,1136.1z"/>
				<path class="st60" d="M350.7,1132.1c0.1,0,0.2,0,0.3,0c0.5,0.1,0.9,0.4,1.2,0.8c0.3,0.4,0.4,0.9,0.3,1.4
					c-0.2,0.9-0.9,1.5-1.8,1.5c-0.1,0-0.2,0-0.3,0c-1-0.2-1.7-1.1-1.5-2.2C349,1132.8,349.8,1132.1,350.7,1132.1 M350.7,1131.6
					c-1.1,0-2.1,0.8-2.3,1.9c-0.2,1.3,0.6,2.5,1.9,2.7c0.1,0,0.3,0,0.4,0c1.1,0,2.1-0.8,2.3-1.9c0.2-1.3-0.6-2.5-1.9-2.7
					C351,1131.7,350.8,1131.6,350.7,1131.6L350.7,1131.6z"/>
			</g>
			<g>
				<path class="st59" d="M365,1135.5c-0.1,0-0.2,0-0.4,0c-1.1-0.2-1.9-1.3-1.7-2.4c0.2-1,1.1-1.7,2.1-1.7c0.1,0,0.2,0,0.4,0
					c0.6,0.1,1,0.4,1.4,0.9c0.3,0.5,0.4,1,0.3,1.6C366.8,1134.8,366,1135.5,365,1135.5z"/>
				<g>
					<path class="st60" d="M365,1131.1v0.5c0.1,0,0.2,0,0.3,0c0.5,0.1,0.9,0.4,1.2,0.8c0.3,0.4,0.4,0.9,0.3,1.4
						c-0.2,0.9-0.9,1.5-1.8,1.5c-0.1,0-0.2,0-0.3,0c-1-0.2-1.7-1.1-1.5-2.2c0.2-0.9,0.9-1.5,1.8-1.5V1131.1 M365,1131.1
						c-1.1,0-2.1,0.8-2.3,1.9c-0.2,1.3,0.6,2.5,1.9,2.7c0.1,0,0.3,0,0.4,0c1.1,0,2.1-0.8,2.3-1.9c0.2-1.3-0.6-2.5-1.9-2.7
						C365.2,1131.1,365.1,1131.1,365,1131.1L365,1131.1z"/>
				</g>
			</g>
			<g>
				<path class="st61" d="M360.3,1148.4c-0.1,0-0.2,0-0.2,0c-0.3-0.1-0.6-0.3-0.8-0.5c-0.2-0.3-0.3-0.6-0.2-1
					c0.1-0.6,0.7-1.1,1.3-1.1c0.1,0,0.2,0,0.2,0c0.3,0.1,0.6,0.3,0.8,0.5c0.2,0.3,0.3,0.6,0.2,1
					C361.5,1147.9,361,1148.4,360.3,1148.4z"/>
				<g>
					<path class="st62" d="M360.3,1146L360.3,1146c0.1,0,0.1,0,0.2,0c0.3,0,0.5,0.2,0.7,0.4c0.2,0.2,0.2,0.5,0.2,0.8
						c-0.1,0.5-0.5,0.9-1,0.9c-0.1,0-0.1,0-0.2,0c-0.3,0-0.5-0.2-0.7-0.4s-0.2-0.5-0.2-0.8C359.4,1146.4,359.8,1146,360.3,1146
						 M360.3,1145.5c-0.7,0-1.4,0.5-1.5,1.3c-0.2,0.8,0.4,1.7,1.3,1.8c0.1,0,0.2,0,0.3,0c0.7,0,1.4-0.5,1.5-1.3
						c0.2-0.8-0.4-1.7-1.3-1.8C360.5,1145.5,360.4,1145.5,360.3,1145.5L360.3,1145.5z"/>
				</g>
			</g>
			<g>
				<path class="st61" d="M369.7,1161.9c-0.1,0-0.2,0-0.2,0c-0.3-0.1-0.6-0.3-0.8-0.5c-0.2-0.3-0.3-0.6-0.2-1
					c0.1-0.6,0.7-1.1,1.3-1.1c0.1,0,0.2,0,0.2,0c0.3,0.1,0.6,0.3,0.8,0.5c0.2,0.3,0.3,0.6,0.2,1
					C370.9,1161.4,370.3,1161.9,369.7,1161.9z"/>
				<g>
					<path class="st62" d="M369.7,1159.5L369.7,1159.5c0.1,0,0.1,0,0.2,0c0.3,0,0.5,0.2,0.7,0.4c0.2,0.2,0.2,0.5,0.2,0.8
						c-0.1,0.5-0.5,0.9-1,0.9c-0.1,0-0.1,0-0.2,0c-0.3,0-0.5-0.2-0.7-0.4s-0.2-0.5-0.2-0.8C368.7,1159.9,369.2,1159.5,369.7,1159.5
						 M369.7,1159c-0.7,0-1.4,0.5-1.5,1.3c-0.2,0.8,0.4,1.7,1.3,1.8c0.1,0,0.2,0,0.3,0c0.7,0,1.4-0.5,1.5-1.3
						c0.2-0.8-0.4-1.7-1.3-1.8C369.9,1159,369.8,1159,369.7,1159L369.7,1159z"/>
				</g>
			</g>
			<g>
				<path class="st61" d="M356.5,1170.9c-0.1,0-0.2,0-0.2,0c-0.3-0.1-0.6-0.3-0.8-0.5c-0.2-0.3-0.3-0.6-0.2-1
					c0.1-0.6,0.7-1.1,1.3-1.1c0.1,0,0.2,0,0.2,0c0.3,0.1,0.6,0.3,0.8,0.5c0.2,0.3,0.3,0.6,0.2,1
					C357.6,1170.4,357.1,1170.9,356.5,1170.9z"/>
				<g>
					<path class="st62" d="M356.5,1168.5L356.5,1168.5c0.1,0,0.1,0,0.2,0c0.3,0,0.5,0.2,0.7,0.4c0.2,0.2,0.2,0.5,0.2,0.8
						c-0.1,0.5-0.5,0.9-1,0.9c-0.1,0-0.1,0-0.2,0c-0.3,0-0.5-0.2-0.7-0.4c-0.2-0.2-0.2-0.5-0.2-0.8
						C355.5,1168.9,355.9,1168.5,356.5,1168.5 M356.5,1168c-0.7,0-1.4,0.5-1.5,1.3c-0.2,0.8,0.4,1.7,1.3,1.8c0.1,0,0.2,0,0.3,0
						c0.7,0,1.4-0.5,1.5-1.3c0.2-0.8-0.4-1.7-1.3-1.8C356.6,1168,356.6,1168,356.5,1168L356.5,1168z"/>
				</g>
			</g>
			<g>
				<path class="st61" d="M346.7,1158.4c-0.1,0-0.2,0-0.2,0c-0.7-0.1-1.2-0.8-1.1-1.5c0.1-0.6,0.7-1.1,1.3-1.1c0.1,0,0.2,0,0.2,0
					c0.3,0.1,0.6,0.3,0.8,0.5c0.2,0.3,0.3,0.6,0.2,1C347.9,1158,347.4,1158.4,346.7,1158.4z"/>
				<g>
					<path class="st62" d="M346.7,1156.1L346.7,1156.1c0.1,0,0.1,0,0.2,0c0.3,0,0.5,0.2,0.7,0.4c0.2,0.2,0.2,0.5,0.2,0.8
						c-0.1,0.5-0.5,0.9-1,0.9c-0.1,0-0.1,0-0.2,0c-0.6-0.1-1-0.7-0.9-1.2C345.8,1156.4,346.2,1156.1,346.7,1156.1 M346.7,1155.6
						c-0.7,0-1.4,0.5-1.5,1.3c-0.2,0.8,0.4,1.7,1.3,1.8c0.1,0,0.2,0,0.3,0c0.7,0,1.4-0.5,1.5-1.3c0.2-0.8-0.4-1.7-1.3-1.8
						C346.9,1155.6,346.8,1155.6,346.7,1155.6L346.7,1155.6z"/>
				</g>
			</g>
			<g>
				<path class="st59" d="M378.1,1143.5c-0.1,0-0.2,0-0.4,0c-0.6-0.1-1-0.4-1.4-0.9c-0.3-0.5-0.4-1-0.3-1.6c0.2-1,1.1-1.7,2.1-1.7
					c0.1,0,0.2,0,0.4,0c0.6,0.1,1,0.4,1.4,0.9c0.3,0.5,0.4,1,0.3,1.6C380,1142.7,379.1,1143.5,378.1,1143.5z"/>
				<g>
					<path class="st60" d="M378.1,1139.5L378.1,1139.5c0.1,0,0.2,0,0.3,0c1,0.2,1.7,1.1,1.5,2.2c-0.2,0.9-0.9,1.5-1.8,1.5
						c-0.1,0-0.2,0-0.3,0c-0.5-0.1-0.9-0.4-1.2-0.8s-0.4-0.9-0.3-1.4C376.4,1140.1,377.2,1139.5,378.1,1139.5 M378.1,1139
						c-1.1,0-2.1,0.8-2.3,1.9c-0.2,1.3,0.6,2.5,1.9,2.7c0.1,0,0.3,0,0.4,0c1.1,0,2.1-0.8,2.3-1.9c0.2-1.3-0.6-2.5-1.9-2.7
						C378.4,1139,378.2,1139,378.1,1139L378.1,1139z"/>
				</g>
			</g>
			<g>
				<path class="st59" d="M383.8,1154.3c-0.1,0-0.2,0-0.4,0c-0.6-0.1-1-0.4-1.4-0.9c-0.3-0.5-0.4-1-0.3-1.6c0.2-1,1.1-1.7,2.1-1.7
					c0.1,0,0.2,0,0.4,0c0.6,0.1,1,0.4,1.4,0.9c0.3,0.5,0.4,1,0.3,1.6C385.7,1153.6,384.9,1154.3,383.8,1154.3z"/>
				<g>
					<path class="st60" d="M383.8,1150.3L383.8,1150.3c0.1,0,0.2,0,0.3,0c0.5,0.1,0.9,0.4,1.2,0.8s0.4,0.9,0.3,1.4
						c-0.2,0.9-0.9,1.5-1.8,1.5c-0.1,0-0.2,0-0.3,0c-0.5-0.1-0.9-0.4-1.2-0.8c-0.3-0.4-0.4-0.9-0.3-1.4
						C382.2,1151,382.9,1150.3,383.8,1150.3 M383.8,1149.8c-1.1,0-2.1,0.8-2.3,1.9c-0.2,1.3,0.6,2.5,1.9,2.7c0.1,0,0.3,0,0.4,0
						c1.1,0,2.1-0.8,2.3-1.9c0.2-1.3-0.6-2.5-1.9-2.7C384.1,1149.9,384,1149.8,383.8,1149.8L383.8,1149.8z"/>
				</g>
			</g>
			<g>
				<path class="st59" d="M383.5,1167.2c-0.1,0-0.3,0-0.4,0c-0.6-0.1-1-0.4-1.4-0.9c-0.3-0.5-0.4-1-0.3-1.6c0.2-1,1.1-1.7,2.1-1.7
					c0.1,0,0.2,0,0.4,0c1.1,0.2,1.9,1.3,1.7,2.4C385.4,1166.5,384.6,1167.2,383.5,1167.2z"/>
				<g>
					<path class="st60" d="M383.5,1163.2L383.5,1163.2c0.1,0,0.2,0,0.3,0c1,0.2,1.7,1.1,1.5,2.2c-0.2,0.9-0.9,1.5-1.8,1.5
						c-0.1,0-0.2,0-0.3,0c-1-0.2-1.7-1.1-1.5-2.2C381.9,1163.9,382.6,1163.2,383.5,1163.2 M383.5,1162.7c-1.1,0-2.1,0.8-2.3,1.9
						c-0.2,1.3,0.6,2.5,1.9,2.7c0.1,0,0.3,0,0.4,0c1.1,0,2.1-0.8,2.3-1.9c0.2-1.3-0.6-2.5-1.9-2.7
						C383.8,1162.7,383.7,1162.7,383.5,1162.7L383.5,1162.7z"/>
				</g>
			</g>
			<g>
				<path class="st59" d="M377.8,1178.2c-0.1,0-0.2,0-0.4,0c-0.6-0.1-1-0.4-1.4-0.9c-0.3-0.5-0.4-1-0.3-1.6c0.2-1,1.1-1.7,2.1-1.7
					c0.1,0,0.2,0,0.4,0c1.1,0.2,1.9,1.3,1.7,2.4C379.7,1177.4,378.8,1178.2,377.8,1178.2z"/>
				<g>
					<path class="st60" d="M377.8,1174.2c0.1,0,0.2,0,0.3,0c0.5,0.1,0.9,0.4,1.2,0.8c0.3,0.4,0.4,0.9,0.3,1.4
						c-0.2,0.9-0.9,1.5-1.8,1.5c-0.1,0-0.2,0-0.3,0c-1-0.2-1.7-1.1-1.5-2.2C376.1,1174.8,376.9,1174.2,377.8,1174.2 M377.8,1173.7
						c-1.1,0-2.1,0.8-2.3,1.9c-0.2,1.3,0.6,2.5,1.9,2.7c0.1,0,0.3,0,0.4,0c1.1,0,2.1-0.8,2.3-1.9c0.2-1.3-0.6-2.5-1.9-2.7
						C378.1,1173.7,377.9,1173.7,377.8,1173.7L377.8,1173.7z"/>
				</g>
			</g>
			<g>
				<path class="st59" d="M366.8,1185.4c-0.1,0-0.2,0-0.4,0c-0.6-0.1-1-0.4-1.4-0.9c-0.3-0.5-0.4-1-0.3-1.6c0.2-1,1.1-1.7,2.1-1.7
					c0.1,0,0.2,0,0.4,0c0.6,0.1,1,0.4,1.4,0.9c0.3,0.5,0.4,1,0.3,1.6C368.7,1184.7,367.8,1185.4,366.8,1185.4z"/>
				<g>
					<path class="st60" d="M366.8,1180.9v0.5c0.1,0,0.2,0,0.3,0c0.5,0.1,0.9,0.4,1.2,0.8c0.3,0.4,0.4,0.9,0.3,1.4
						c-0.2,0.9-0.9,1.5-1.8,1.5c-0.1,0-0.2,0-0.3,0c-1-0.2-1.7-1.1-1.5-2.2c0.2-0.9,0.9-1.5,1.8-1.5V1180.9 M366.8,1180.9
						c-1.1,0-2.1,0.8-2.3,1.9c-0.2,1.3,0.6,2.5,1.9,2.7c0.1,0,0.3,0,0.4,0c1.1,0,2.1-0.8,2.3-1.9c0.2-1.3-0.6-2.5-1.9-2.7
						C367.1,1181,366.9,1180.9,366.8,1180.9L366.8,1180.9z"/>
				</g>
			</g>
			<g>
				<path class="st59" d="M353.8,1187.1c-0.1,0-0.3,0-0.4,0c-1.1-0.2-1.9-1.3-1.7-2.4c0.2-1,1.1-1.7,2.1-1.7c0.1,0,0.2,0,0.4,0
					c1.1,0.2,1.9,1.3,1.7,2.4C355.7,1186.4,354.8,1187.1,353.8,1187.1z"/>
				<g>
					<path class="st60" d="M353.8,1183.2L353.8,1183.2c0.1,0,0.2,0,0.3,0c1,0.2,1.7,1.1,1.5,2.2c-0.2,0.9-0.9,1.5-1.8,1.5
						c-0.1,0-0.2,0-0.3,0c-0.5-0.1-0.9-0.4-1.2-0.8s-0.4-0.9-0.3-1.4C352.1,1183.8,352.9,1183.2,353.8,1183.2 M353.8,1182.7
						c-1.1,0-2.1,0.8-2.3,1.9c-0.2,1.3,0.6,2.5,1.9,2.7c0.1,0,0.3,0,0.4,0c1.1,0,2.1-0.8,2.3-1.9c0.2-1.3-0.6-2.5-1.9-2.7
						C354,1182.7,353.9,1182.7,353.8,1182.7L353.8,1182.7z"/>
				</g>
			</g>
			<g>
				<path class="st59" d="M342.9,1182.6c-0.1,0-0.2,0-0.4,0c-1.1-0.2-1.9-1.3-1.7-2.4c0.2-1,1.1-1.7,2.1-1.7c0.1,0,0.3,0,0.4,0
					c0.6,0.1,1,0.4,1.4,0.9c0.3,0.5,0.4,1,0.3,1.6C344.8,1181.8,344,1182.6,342.9,1182.6z"/>
				<g>
					<path class="st60" d="M342.9,1178.6L342.9,1178.6c0.1,0,0.2,0,0.3,0c0.5,0.1,0.9,0.4,1.2,0.8c0.3,0.4,0.4,0.9,0.3,1.4
						c-0.2,0.9-0.9,1.5-1.8,1.5c-0.1,0-0.2,0-0.3,0c-1-0.2-1.7-1.1-1.5-2.2C341.3,1179.3,342,1178.6,342.9,1178.6 M342.9,1178.1
						c-1.1,0-2.1,0.8-2.3,1.9c-0.2,1.3,0.6,2.5,1.9,2.7c0.1,0,0.3,0,0.4,0c1.1,0,2.1-0.8,2.3-1.9c0.2-1.3-0.6-2.5-1.9-2.7
						C343.2,1178.1,343.1,1178.1,342.9,1178.1L342.9,1178.1z"/>
				</g>
			</g>
			<g>
				<path class="st59" d="M335,1173.2c-0.1,0-0.2,0-0.4,0c-0.6-0.1-1-0.4-1.4-0.9c-0.3-0.5-0.4-1-0.3-1.6c0.2-1,1.1-1.7,2.1-1.7
					c0.1,0,0.2,0,0.4,0c1.1,0.2,1.9,1.3,1.7,2.4C336.9,1172.4,336,1173.2,335,1173.2z"/>
				<g>
					<path class="st60" d="M335,1168.7v0.5c0.1,0,0.2,0,0.3,0c1,0.2,1.7,1.1,1.5,2.2c-0.2,0.9-0.9,1.5-1.8,1.5c-0.1,0-0.2,0-0.3,0
						c-0.5-0.1-0.9-0.4-1.2-0.8c-0.3-0.4-0.4-0.9-0.3-1.4c0.2-0.9,0.9-1.5,1.8-1.5V1168.7 M335,1168.7c-1.1,0-2.1,0.8-2.3,1.9
						c-0.2,1.3,0.6,2.5,1.9,2.7c0.1,0,0.3,0,0.4,0c1.1,0,2.1-0.8,2.3-1.9c0.2-1.3-0.6-2.5-1.9-2.7
						C335.3,1168.7,335.2,1168.7,335,1168.7L335,1168.7z"/>
				</g>
			</g>
			<g>
				<path class="st59" d="M331.7,1161.6c-0.1,0-0.2,0-0.4,0c-1.1-0.2-1.9-1.3-1.7-2.4c0.2-1,1.1-1.7,2.1-1.7c0.1,0,0.2,0,0.4,0
					c0.6,0.1,1,0.4,1.4,0.9c0.3,0.5,0.4,1,0.3,1.6C333.6,1160.9,332.7,1161.6,331.7,1161.6z"/>
				<g>
					<path class="st60" d="M331.7,1157.1v0.5c0.1,0,0.2,0,0.3,0c0.5,0.1,0.9,0.4,1.2,0.8c0.3,0.4,0.4,0.9,0.3,1.4
						c-0.2,0.9-0.9,1.5-1.8,1.5c-0.1,0-0.2,0-0.3,0c-1-0.2-1.7-1.1-1.5-2.2c0.2-0.9,0.9-1.5,1.8-1.5V1157.1 M331.7,1157.1
						c-1.1,0-2.1,0.8-2.3,1.9c-0.2,1.3,0.6,2.5,1.9,2.7c0.1,0,0.3,0,0.4,0c1.1,0,2.1-0.8,2.3-1.9c0.2-1.3-0.6-2.5-1.9-2.7
						C332,1157.2,331.8,1157.1,331.7,1157.1L331.7,1157.1z"/>
				</g>
			</g>
			<g>
				<path class="st59" d="M333.3,1150.9c-0.1,0-0.2,0-0.4,0c-1.1-0.2-1.9-1.3-1.7-2.4c0.2-1,1.1-1.7,2.1-1.7c0.1,0,0.3,0,0.4,0
					c0.6,0.1,1,0.4,1.4,0.9c0.3,0.5,0.4,1,0.3,1.6C335.2,1150.2,334.4,1150.9,333.3,1150.9z"/>
				<g>
					<path class="st60" d="M333.3,1147L333.3,1147c0.1,0,0.2,0,0.3,0c0.5,0.1,0.9,0.4,1.2,0.8c0.3,0.4,0.4,0.9,0.3,1.4
						c-0.2,0.9-0.9,1.5-1.8,1.5c-0.1,0-0.2,0-0.3,0c-1-0.2-1.7-1.1-1.5-2.2C331.7,1147.6,332.4,1147,333.3,1147 M333.3,1146.5
						c-1.1,0-2.1,0.8-2.3,1.9c-0.2,1.3,0.6,2.5,1.9,2.7c0.1,0,0.3,0,0.4,0c1.1,0,2.1-0.8,2.3-1.9c0.2-1.3-0.6-2.5-1.9-2.7
						C333.6,1146.5,333.5,1146.5,333.3,1146.5L333.3,1146.5z"/>
				</g>
			</g>
			<g>
				<path class="st59" d="M339.5,1141.5c-0.1,0-0.2,0-0.4,0c-1.1-0.2-1.9-1.3-1.7-2.4c0.2-1,1.1-1.7,2.1-1.7c0.1,0,0.3,0,0.4,0
					c0.6,0.1,1,0.4,1.4,0.9c0.3,0.5,0.4,1,0.3,1.6C341.4,1140.8,340.5,1141.5,339.5,1141.5z"/>
				<g>
					<path class="st60" d="M339.5,1137.5L339.5,1137.5c0.1,0,0.2,0,0.3,0c0.5,0.1,0.9,0.4,1.2,0.8c0.3,0.4,0.4,0.9,0.3,1.4
						c-0.2,0.9-0.9,1.5-1.8,1.5c-0.1,0-0.2,0-0.3,0c-1-0.2-1.7-1.1-1.5-2.2C337.8,1138.2,338.6,1137.5,339.5,1137.5 M339.5,1137
						c-1.1,0-2.1,0.8-2.3,1.9c-0.2,1.3,0.6,2.5,1.9,2.7c0.1,0,0.3,0,0.4,0c1.1,0,2.1-0.8,2.3-1.9c0.2-1.3-0.6-2.5-1.9-2.7
						C339.8,1137,339.6,1137,339.5,1137L339.5,1137z"/>
				</g>
			</g>
		</g>
		<path class="st63" d="M399.9,1189.8c0,0,26.1-49.7-19.9-77.5c0,0-27.3-11.3-47.3,1.9s-25.4,35.2-26.5,54.9c0,0-3.9-6.8-1.1-22.7
			s19.1-49.4,62.6-43.5c0,0,49.7,7.7,43.5,62.6C411.2,1165.5,409.3,1179.6,399.9,1189.8z"/>
		<path class="st68" d="M544.7,1024.2c0,0,15.6,52.1,12.6,117.4"/>
		<g>
			<path class="st70" d="M295.4,1163.7c-5.9-0.1-51.3-1.4-84.2-4.9c-8.5-0.9-15.4-4.5-20.3-10.7c-11.3-14.2-9.3-37.7-9.1-40.4
				l10.4-5.6l1.5-17.5l0.2-1.9c3.4,0.5,23.4,3.1,37,3.7c0.4,0,0.8,0,1.2,0c4.8,0,8.5-1.3,10.9-3.8c2-2.1,2.6-4.4,2.9-5.9l3.2,4.6
				c3.9,8.7,14.6,12.3,15,12.5l49.4,11C288.7,1126,294.3,1158.7,295.4,1163.7z"/>
			<g>
				<path class="st65" d="M246.1,1077.9l2.5,3.6c4.1,8.9,14.9,12.6,15.3,12.7l0,0l0.1,0l48.3,10.7c-13.4,11.9-17.4,27-18.5,37.8
					c-0.9,9.6,0.3,17.4,0.9,20.3c-8-0.2-51.6-1.5-83.5-4.9c-8.4-0.9-15.1-4.4-20-10.6c-6.2-7.7-8.3-18.2-8.9-25.7
					c-0.6-6.8-0.2-12.4-0.1-14.1l9.9-5.3l0.5-0.3l0-0.5l1.5-17.2l0.2-1.4c4.5,0.6,23.5,3.1,36.6,3.6c0.4,0,0.8,0,1.2,0
					c5,0,8.8-1.3,11.3-3.9C244.9,1081.3,245.7,1079.4,246.1,1077.9 M245.4,1075.2c0,0,0.4,10.7-13.4,10.7c-0.4,0-0.8,0-1.2,0
					c-15-0.6-37.5-3.7-37.5-3.7l-0.3,2.4l-1.5,17.2l-10.4,5.6c0,0-5.8,48.2,29.8,52c35.6,3.8,84.9,4.9,84.9,4.9s-9.2-36.8,18.5-59.7
					l-50.3-11.2c0,0-10.8-3.6-14.8-12.3L245.4,1075.2L245.4,1075.2z"/>
			</g>
		</g>
		<path class="st11" d="M239,1109.6c0,0,28.5,2.3,32.3-13.6l42.2,9.3c0,0-19.8,14.4-18.9,42.3l-102.6,3.2c0,0-13.3-12.6-10.8-43.5
			l10.4-5.6C191.7,1101.7,208.9,1111.1,239,1109.6z"/>
		<path class="st65" d="M296,1164.2l-1.3-16.6l-102.6,3.2c0,0,7.1,7.3,19,8.5C223,1160.4,296,1164.2,296,1164.2z"/>
		<path class="st10" d="M633.2,955.6c0,0,28.4,7.1,63.3,23.5c34.9,16.4,55.7,28.7,55.7,28.7s3.1,2.9,9.4,2.2s15.6-1.8,15.6-1.8
			s-69-44.5-128.6-59.7c0,0-2.5-1.2-5.4,0.2C640.2,950,633.2,955.6,633.2,955.6z"/>
		<path d="M734.4,1009.2c0,0,19.3,10.7,8.3,14l-16.8,2.6c0,0-7.3-0.1-15.1-0.6c-7.8-0.5-322.1-0.9-322.1-0.9s-17.7-0.3-28.6-7.6
			c-11-7.3-11.6-9.6-3.1-15.5c8.5-5.9,39.8-23.8,39.8-23.8s23.4-12.9,50.7-16.5s59.4-8.5,121.1-6S692.3,982.5,734.4,1009.2z"/>
		<path class="st75" d="M537.8,958l16.3,63.1l133.5,0.8l0.1-29.8c0,0,1.1-2.9-6.1-5.6C674.6,983.8,612.2,953.6,537.8,958z"/>
		<path class="st75" d="M522.1,958.9c0,0,4.3,38.5,11.2,61.5l-128,0.4l-3.8-22.7c0,0,1.4-20.4,22-27.3
			C448.5,962.5,522.1,958.9,522.1,958.9z"/>
		<path class="st76" d="M529.6,957.6c0,0,7,40.8,14.6,63"/>
		<path class="st77" d="M681.6,998.8l-2.7,14.8c0,0,1.4,6.4,12.4,6.9c10.9,0.6,23.7-2.8,23.7-2.8s6.6-4,0.6-8.8
			c-5.9-4.8-10.7-9.4-24.1-12.1C683.5,995.1,681.6,998.8,681.6,998.8z"/>
		<path class="st78" d="M537.8,958l16.3,63.1c0,0,53.7-44.4,133.3-24.7l0.4-4.3c0,0,1-2.5-6.1-5.6S606.1,952.9,537.8,958z"/>
		<path class="st9" d="M633.2,955.6c0,0,80.7,16.9,143.9,52.6c0,0-65.5-43.2-128.6-59.7c0,0-3.1-1.5-7,1.2
			C637.7,952.4,633.2,955.6,633.2,955.6z"/>
		<path class="st79" d="M359.6,962.3l18.2,4.2c0,0-54.3,27.2-95.6,47.9l-22.4-2.3C259.8,1012.2,311.8,981.6,359.6,962.3z"/>
		<path class="st28" d="M191.3,1041.1l26.3,4.4c0,0,7.2-0.2,14.9,10.5s12.1,17.7,12.1,17.7s3.5,10-6.6,12.2c-10.1,2.2-45.8-2-45.8-2
			S187.2,1081.1,191.3,1041.1z"/>
		<path class="st67" d="M194.8,1058c0,0,36.3,4.9,40.7,1.9c0,0-6.6-12.9-17.8-14.9s-26.4-4.4-26.4-4.4l-1,16.4
			C190.2,1056.9,191.9,1057.4,194.8,1058z"/>
		<path class="st67" d="M243.3,1071.6c0,0-9.4,12.8-53.5,0.7c0,0,0.2,9.9,2.5,11.6c0,0,32.9,4.7,44.7,2.8
			C237,1086.7,251.5,1083.5,243.3,1071.6z"/>
		<path class="st80" d="M259.8,1012.2c0,0,63.9-35.7,91.8-32.6l28.6-12.4l-20.6-4.8C359.6,962.3,317.4,978,259.8,1012.2z"/>
		<path class="st78" d="M523.6,970.6c0,0-93.7,5.1-101,50.2l-17.2-0.1l-3.8-22.7c0,0-2.9-18.7,21.6-27.4c27-9.7,99-11.7,99-11.7
			L523.6,970.6z"/>
		<g>
			<path class="st71" d="M731.4,1040.2c0,0,81.8-3.1,141.5,4l20,19.2l14.4,6.8l-28,0.8c0,0-4.5-12-27.8-15.3s-53.3-1.4-94.1,11.2
				c0,0-7.9,1.6-11.6,25.8c-3.7,24.2-7.4,42.2-7.4,42.2l-2.2-0.1C736.2,1134.7,743.4,1081.1,731.4,1040.2z"/>
		</g>
		<path class="st81" d="M756.4,1046.3l-9.4,0.6c0,0-1.2,0.3-1.3,4s0.2,4.3,4.4,4c4.2-0.3,8.1-0.7,8.1-0.7s2.9,0.9,1.9-5.5
			C760.2,1048.6,761.2,1045,756.4,1046.3z"/>
		<path class="st82" d="M282.2,1014.4c0,0-24.1,11.3-84.1,20.5l-0.6,6.4"/>
		<path class="st82" d="M378.8,1022.4c0,0-0.3,5.4-3.7,8.4c0,0-2.2,3-2.1,6.3c0.1,3.4-0.5,7.8-0.4,9.5l32.5,46.4"/>
		<path class="st68" d="M725.9,1025.8c0,0,5.1,10.5,5.5,14.3s8.1,21.2,7.5,53c-0.6,31.9-0.5,41.7-0.5,41.7"/>
		<path class="st82" d="M948.7,1066.4c0,0-2.2,6.2-21.6,4.6c-19.4-1.6-65.3,1-83.3,3"/>
	</g>
</g>
<g id="eleven_00000180345820641820120410000009044592103142380464_">
</g>
<g id="twelve">
</g>
<g id="thirteen_00000173859306950962761430000017419446578002950540_">
</g>
<g id="fourteen">
</g>
<g id="fifteen_00000103262623346785252190000005497341088573515404_">
</g>
<g id="sixteen_00000052784415532825981170000013120508718389060798_">
</g>
<g id="seventeen_00000052799129178776355750000005236059528330747796_">
</g>
<g id="eighteen_00000054256262866476431880000018286803152678894488_">
</g>
<g id="nineteen_00000107558268356232088990000008456042227242415802_">
</g>
<g id="twenty">
</g>
</svg>
