<?xml version="1.0" encoding="utf-8"?>
<!-- Generator: Adobe Illustrator 27.2.0, SVG Export Plug-In . SVG Version: 6.00 Build 0)  -->
<svg version="1.1" xmlns="http://www.w3.org/2000/svg" xmlns:xlink="http://www.w3.org/1999/xlink" x="0px" y="0px"
	 viewBox="0 0 2250.5 1926.5" style="enable-background:new 0 0 2250.5 1926.5;" xml:space="preserve">
<style type="text/css">
	.st0{fill:#E8E6E6;stroke:#ADADAD;stroke-miterlimit:10;}
	.st1{fill:#F3F2F7;}
	.st2{fill:#030303;}
	.st3{fill:#353131;}
	.st4{fill:none;stroke:#ADADAD;stroke-width:2;stroke-miterlimit:10;}
	.st5{fill:none;stroke:#F3F2F7;stroke-width:2;stroke-miterlimit:10;}
	.st6{fill:#0A1205;}
	.st7{fill:#F3F2F7;stroke:#ADADAD;stroke-width:0.75;stroke-miterlimit:10;}
	.st8{fill:#ADADAD;}
	.st9{fill:#282828;}
	.st10{fill:#3A3A3A;}
	.st11{fill:#0A54A2;}
	.st12{fill:none;stroke:#E8E6E6;stroke-width:0.9742;stroke-miterlimit:10;}
	.st13{fill:#2E2E2E;}
	.st14{fill:#333333;}
	.st15{fill:#939393;stroke:#ADADAD;stroke-miterlimit:10;}
	.st16{fill:#D1D1D1;}
	.st17{fill:#191919;}
	.st18{fill:#666666;stroke:#ADADAD;stroke-miterlimit:10;}
	.st19{fill:#363636;}
	.st20{fill:none;stroke:#ADADAD;stroke-miterlimit:10;}
	.st21{fill:#121212;}
	.st22{fill:#0E0A12;}
	.st23{fill:#6E6E6E;}
	.st24{fill:#4E4E4E;}
	.st25{fill:#1E1E1E;}
	.st26{fill:#646464;}
	.st27{fill:#999999;}
	.st28{fill:#9E9E9E;}
	.st29{fill:#6D6D6D;}
	.st30{fill:#B5B5B5;}
	.st31{fill:#3E3E3E;}
	.st32{fill:#0D0F0C;}
	.st33{fill:none;stroke:#0E0A12;stroke-width:0.8371;stroke-miterlimit:10;}
	.st34{fill:#7D7D7D;}
	.st35{fill:#424242;}
	.st36{fill:#8A8A8A;}
	.st37{fill:#BCBCBC;stroke:#ADADAD;stroke-miterlimit:10;}
	.st38{fill:#8A8A8A;stroke:#6B6B6B;stroke-width:0.9619;stroke-miterlimit:10;}
	.st39{fill:none;stroke:#6B6B6B;stroke-width:0.7215;stroke-miterlimit:10;}
	.st40{fill:none;stroke:#A9A9AA;stroke-width:0.75;stroke-miterlimit:10;}
	.st41{fill:#484D4E;}
	.st42{fill:none;stroke:#111111;stroke-width:3;stroke-miterlimit:10;}
	.st43{fill:#282828;stroke:#0A0A0A;stroke-miterlimit:10;}
	.st44{fill:#F0221F;stroke:#BB1719;stroke-miterlimit:10;}
	.st45{fill:#BB1719;}
	.st46{fill:#FC7C88;stroke:#BB1719;stroke-miterlimit:10;}
	.st47{fill:none;stroke:#BB1719;stroke-width:3;stroke-miterlimit:10;}
	.st48{fill:#FC7C88;}
	.st49{fill:#FC7C88;stroke:#BB1719;stroke-width:3;stroke-miterlimit:10;}
	.st50{fill:#F0221F;}
	.st51{fill:#E8E6E6;stroke:#ADADAD;stroke-width:2;stroke-miterlimit:10;}
	.st52{opacity:0.59;fill:#F3F2F7;}
	.st53{fill:#080806;}
	.st54{fill:#9B9B9B;}
	.st55{fill:#2B2B2B;}
	.st56{fill:#C1BFBF;}
	.st57{fill:#D6D6D6;}
	.st58{fill:#4C4B4B;stroke:#A5A5A5;stroke-miterlimit:10;}
	.st59{fill:#444343;}
	.st60{fill:#727272;}
	.st61{fill:#A0A0A0;}
	.st62{fill:#999898;}
	.st63{fill:#444242;}
	.st64{fill:#157FCE;}
	.st65{fill:#134468;}
	.st66{fill:#092947;}
	.st67{fill:#D5D3D7;}
	.st68{fill:none;stroke:#134468;stroke-miterlimit:10;}
	.st69{fill:none;stroke:#0F63AD;stroke-miterlimit:10;}
	.st70{fill:#1672B7;}
	.st71{fill:#2066A0;}
	.st72{fill:#1B8ACE;}
	.st73{fill:none;stroke:#157FCE;stroke-miterlimit:10;}
	.st74{fill:none;stroke:#0A54A2;stroke-miterlimit:10;}
	.st75{fill:#3F3F3F;}
	.st76{fill:none;stroke:#282828;stroke-width:2;stroke-miterlimit:10;}
	.st77{fill:#7F7F7F;}
	.st78{fill:#2D2D2D;}
	.st79{fill:#4C4C4C;}
	.st80{fill:#383838;}
	.st81{fill:#9E9E9E;stroke:#0A55A3;stroke-miterlimit:10;}
	.st82{fill:none;stroke:#134468;stroke-width:0.75;stroke-miterlimit:10;}
	.st83{display:none;fill:#24242A;}
	.st84{display:none;fill:none;stroke:#848484;stroke-miterlimit:10;}
	.st85{display:none;fill:#30292D;}
	.st86{fill:#E8E6E6;}
	.st87{fill:#8C8C8C;}
	.st88{fill:#FCFCFC;stroke:#8C8C8C;stroke-miterlimit:10;}
	.st89{fill:#E8E6E6;stroke:#8C8C8C;stroke-miterlimit:10;}
	.st90{fill:#E8E6E6;stroke:#8C8C8C;stroke-width:2;stroke-miterlimit:10;}
	.st91{fill:none;stroke:#8C8C8C;stroke-width:2;stroke-miterlimit:10;}
	.st92{fill:none;stroke:#FCFCFC;stroke-width:3;stroke-miterlimit:10;}
	.st93{fill:#FCFCFC;}
	.st94{fill:#ADADAD;stroke:#8C8C8C;stroke-miterlimit:10;}
	.st95{fill:#FAFAFC;stroke:#ADADAD;stroke-width:0.75;stroke-miterlimit:10;}
	.st96{fill:none;stroke:#111111;stroke-width:3.6024;stroke-miterlimit:10;}
	.st97{fill:none;stroke:#111111;stroke-width:3.6093;stroke-miterlimit:10;}
	.st98{fill:none;stroke:#111111;stroke-width:3.5727;stroke-miterlimit:10;}
	.st99{fill:none;stroke:#111111;stroke-width:3.5263;stroke-miterlimit:10;}
	.st100{fill:none;stroke:#111111;stroke-width:3.4845;stroke-miterlimit:10;}
	.st101{fill:none;stroke:#111111;stroke-width:3.4337;stroke-miterlimit:10;}
	.st102{fill:none;stroke:#111111;stroke-width:3.3788;stroke-miterlimit:10;}
	.st103{fill:none;stroke:#111111;stroke-width:3.3233;stroke-miterlimit:10;}
	.st104{fill:none;stroke:#111111;stroke-width:3.2747;stroke-miterlimit:10;}
	.st105{fill:none;stroke:#111111;stroke-width:3.207;stroke-miterlimit:10;}
	.st106{fill:none;stroke:#111111;stroke-width:3.1652;stroke-miterlimit:10;}
	.st107{fill:none;stroke:#111111;stroke-width:3.099;stroke-miterlimit:10;}
	.st108{fill:none;stroke:#111111;stroke-width:3.0584;stroke-miterlimit:10;}
	.st109{fill:none;stroke:#111111;stroke-width:3.0299;stroke-miterlimit:10;}
</style>
<g id="original">
</g>
<g id="one">
</g>
<g id="two_00000026882943921159275490000004360688784792002186_">
</g>
<g id="three_00000113338737259881679640000015971704404683786636_">
</g>
<g id="four_00000049184186550712051260000002601905804867817144_">
</g>
<g id="five_00000179643197332058435300000007386453149388464260_">
</g>
<g id="six">
</g>
<g id="seven_00000062194613864970919320000012156796603096136882_">
</g>
<g id="eight">
</g>
<g id="nine">
</g>
<g id="ten_00000098906372602984753350000010503549982832515468_">
</g>
<g id="eleven_00000180345820641820120410000009044592103142380464_">
</g>
<g id="twelve">
</g>
<g id="thirteen_00000173859306950962761430000017419446578002950540_">
</g>
<g id="fourteen">
</g>
<g id="fifteen_00000103262623346785252190000005497341088573515404_">
</g>
<g id="sixteen_00000052784415532825981170000013120508718389060798_">
</g>
<g id="seventeen_00000052799129178776355750000005236059528330747796_">
</g>
<g id="eighteen_00000054256262866476431880000018286803152678894488_">
	<g>
		<path class="st86" d="M1971.8,828.7c-0.9-1.5-5.8-8.5-17.3-9.1c-12.1-0.7-193.8-3.9-204.5-4.1c0-2.4,0.1-13.1,5.3-18.6
			c2.1-2.2,4.8-3.3,8-3.3c14.8,0,186.9,6.1,188.6,6.1c0.3,0,31.7,2.1,37.6,28.6L1971.8,828.7z"/>
		<path class="st87" d="M1763.3,794c14.8,0,186.9,6.1,188.6,6.1c0.1,0,8.1,0.5,16.7,4.3c11,4.9,17.8,12.7,20.3,23.3l-16.8,0.4
			c-1.3-2-6.3-8.5-17.5-9.1c-11.9-0.7-189.3-3.8-204.1-4.1c0-3,0.4-12.7,5.2-17.8C1757.7,795.1,1760.2,794,1763.3,794 M1763.3,793
			c-15,0-13.9,23-13.9,23s192.5,3.4,205,4.1c12.5,0.7,17,9.1,17,9.1l18.6-0.5c-5.7-27.7-38.2-29.5-38.2-29.5S1778.3,793,1763.3,793
			L1763.3,793z"/>
	</g>
	<path class="st88" d="M1954.3,806.6l-141.9-6.1l21.4,8l117.6,4.2c0,0,16.5-0.2,25.8,15.2h5.2C1982.4,828,1977.2,807.8,1954.3,806.6
		z"/>
	<path class="st89" d="M1749.5,816l-0.5,12l201,1.9c0,0,11,0,13.4,13.4c2.4,13.4,21.5,113,21.5,113l0.8,128.3l32.7-0.8
		c0,0,9.4,1.1,9.4-8.3c0-9.4,0-44.6,0-44.6s0.5-5.9-5.4-8.1v-45.6h-16c0,0-10.2,0.8-11.3-15.9c-1.2-16.8-22-124.3-22-124.3
		s-1.5-2.4-1.7-7.8c0,0-5.8-8.8-17-9.1C1943.2,819.7,1749.5,816,1749.5,816z"/>
	<path class="st2" d="M1990.1,828.7l25.2,136.1l-22.6-21.3L1973.2,837c0,0-1.8-3.5-1.7-7.8L1990.1,828.7z"/>
	<path class="st2" d="M2018.1,951.3c0,0,5.4,9.2,3.2,17.8h-3l0.8,7.9l-12.5,0.2c0,0-10.3,0.4-11.3-15.9l-2.4-17.8l22.6,21.3
		c0,0,5.4-5.7-0.4-13.3c0,0-2.1-1.9-4.6,0.3c-2.5,2.2-3.9-1.7,0-3.6S2018.1,951.3,2018.1,951.3z"/>
	<polygon class="st3" points="1977.4,829.2 2005.3,913.3 1990.1,828.7 	"/>
	<path class="st90" d="M1749,828c0,0-5.4,110.4-4.1,200.8l240.1-0.9l-0.1-71.6l-21.5-113c0,0-1.7-13.4-13.4-13.4
		C1938.3,829.9,1749,828,1749,828z"/>
	<path class="st91" d="M1766.6,898.5l-0.3-47.2c0,0-0.6-8.8,12.4-9.1c13-0.3,24.8,0,24.8,0s9.1-2.1,9.1,11.8s-0.3,45.7-0.3,45.7"/>
	<path class="st92" d="M1765.7,909.4l-0.3,31.6c0,0-1.5,7.4,7.4,7.4c8.8,0,33.9,0,33.9,0s5,2.7,5-6.2s0-26,0-26"/>
	<path class="st91" d="M1764.8,979l0.3,33.6c0,0-0.9,5.3,5.3,5.3c6.2,0,39.5-0.3,39.5-0.3s4.7,1.8,4.4-6.2c-0.3-8-0.6-33-0.6-33
		s0.6-6.2-6.2-6.2c-6.8,0-38.3,0.6-38.3,0.6S1764.8,972.3,1764.8,979z"/>
	<line class="st91" x1="1826.7" y1="828.6" x2="1826.7" y2="1028"/>
	<polygon class="st6" points="1833.2,976.7 1833.5,995 1853.5,994.7 1853.5,976.7 	"/>
	<path class="st93" d="M1834.1,1001.4c0,0-1.2,10,14.2,9.7c15.3-0.3,115.3,0,115.3,0l-48.4-5.9h-66.9c0,0,0.3-3.8-4.1-4.1
		C1839.7,1000.9,1834.1,1001.4,1834.1,1001.4z"/>
	<path class="st87" d="M1837,842.2l4.7,67.2l-0.3-62.8c0,0-2.1-6.8,13.6-6.5c15.6,0.3,89.9,0.6,89.9,0.6s7.1-1.8,9.4,17.1
		c2.4,18.9,4.7,36.9,4.7,36.9l-2.1-45.7c0,0,0.7-11.8-13.6-11.6c-14.3,0.2-97.4-0.8-97.4-0.8S1838,836.3,1837,842.2z"/>
	<path class="st93" d="M1962,912.4l7.6,32.9c0,0,2.6,12.9-9.2,13.4c-11.8,0.5-111.3-5.3-111.3-5.3s-9.5-2.6-10-11.3
		s-0.3-27.4-0.3-27.4l2.6,25.5c0,0,0.3,8.4,7.9,9.5s109.2,6.1,109.2,6.1s11.1,2.9,7.4-19.2S1962,912.4,1962,912.4z"/>
	<path class="st9" d="M1841.7,914.8l-0.3,25.5c0,0,0.1,8.6,7.9,9.5c7.8,0.8,109.2,6.1,109.2,6.1s10.8,2.4,7.4-19.2
		s-12.8-85.5-12.8-85.5s-1.2-10-8.1-10.4c-6.9-0.3-95.2-1-95.2-1s-8.7-1.3-8.7,5.9C1841,852.9,1841.7,914.8,1841.7,914.8z"/>
	<polygon class="st2" points="1933,831 1933,837.9 1950.2,838.4 1949.9,831 	"/>
	<path class="st10" d="M1841.3,864.2c0,0,96.3,16.1,107.9,91.5l9.3,0.1c0,0,10.8,1.4,7.4-19.2c-3.5-20.6-12.8-85.5-12.8-85.5
		s-1.4-10.2-8.1-10.4s-95.2-1-95.2-1s-8.6-0.9-8.7,5.9C1841,852.5,1841.3,864.2,1841.3,864.2z"/>
	<polygon class="st2" points="1939.7,837.2 1939.8,848.3 1943.3,848.2 1943.5,837.4 	"/>
	<path class="st2" d="M1935.5,848.4l0.7,93.5h7.2c0,0,6.1-6.3,6.1-15.6l-0.2-66c0,0-1.4-10.9-5.9-12.1L1935.5,848.4z"/>
	<polygon class="st2" points="1939.3,970.7 1939.3,941.5 1943.5,941.8 1943.5,970.1 	"/>
	<polygon class="st2" points="1946.9,969.8 1950.6,969.9 1950.6,976.3 1931.8,976.3 1931.8,969.9 	"/>
	<path class="st11" d="M1818.6,772.1l17.4,0.2v18.3c0,0-4.6,1.4-19.2,0v-18.5L1818.6,772.1z"/>
	<path class="st87" d="M1838.9,789.9l0.1,6l-24.3-0.5v-5.9C1814.8,789.5,1823.8,792.4,1838.9,789.9z"/>
	<path class="st0" d="M1744.9,1028.8l0.4,26.2H1851c0,0,49,1.9,59.1,28.8l75.7,0.9l-0.7-56.7L1744.9,1028.8z"/>
	<path class="st89" d="M1744.9,1028.8l0.4,26.2H1851c0,0,49,1.9,59.1,28.8l75.7,0.9l-0.7-56.7L1744.9,1028.8z"/>
	<polygon class="st6" points="1982.4,1048.4 1960.6,1027.8 1979,1027.9 1985,1033.9 1985,1051.3 	"/>
	<path class="st6" d="M1945.1,1028.4l27.3,26.4h-18l-26.2-26.2C1928.1,1028.6,1945.1,1028.4,1945.1,1028.4z"/>
	<path class="st6" d="M1911.8,1028.6l26.6,26.6h-17.6l-26.5-26.5C1894.3,1028.8,1911.7,1028.7,1911.8,1028.6z"/>
	<path class="st6" d="M1879.6,1028.6l26.6,26.6h-17.6l-26.5-26.5C1862.1,1028.8,1879.5,1028.7,1879.6,1028.6z"/>
	<path class="st6" d="M1845.8,1028.6l26.6,26.6h-17.6l-26.5-26.5C1828.3,1028.8,1845.8,1028.7,1845.8,1028.6z"/>
	<path class="st6" d="M1812.4,1028.6l26.6,25.8h-17.6l-26.5-25.7C1794.9,1028.8,1812.4,1028.7,1812.4,1028.6z"/>
	<path class="st6" d="M1778.7,1029.1l26.6,25.3h-17.6l-26.5-25.1C1761.2,1029.3,1778.6,1029.2,1778.7,1029.1z"/>
	<path class="st6" d="M1744.9,1028.8l25.9,25.9h-16.4l-8.7-8.7l-0.7-0.7C1745.1,1045.3,1744.9,1028.6,1744.9,1028.8z"/>
	<path class="st94" d="M2022.5,1022.9h-26.9l8,8l24.3,0C2027.9,1030.9,2028.9,1025.3,2022.5,1022.9z"/>
	<path class="st94" d="M1985,1027.9c0,0,5.7,1.4,6,6.4v41.2l36.9-0.1c0,0,1.1,8.3-9.4,8.3c-10.5,0-32.7,0.8-32.7,0.8L1985,1027.9z"
		/>
	<polygon class="st13" points="1934.9,1180.6 1985.4,1180.5 1985.4,1084.6 1910.1,1083.7 	"/>
	<polygon class="st0" points="1930,1112.7 1985.6,1112.7 1985.6,1117.8 1930.1,1117.8 	"/>
	<path class="st0" d="M1985.3,1144.9h-51.9v3.9h52.2C1985.6,1148.8,1985.3,1144.2,1985.3,1144.9z"/>
	<path class="st0" d="M1933.9,1175.6h51.2v4.4h-51.7C1933.4,1180,1934.3,1175.2,1933.9,1175.6z"/>
	<path class="st2" d="M1916.2,1142.9l-15.1,13.3c0,0-33.2-69.2-81.4-59.5c-48.3,9.7-70.3,61.6-70.3,61.6l-16.6-15.5l21.3-64.5
		l78.6-5.4l64.1,7.6l18,45.8L1916.2,1142.9z"/>
	<circle class="st14" cx="1825.2" cy="1172.2" r="78.7"/>
	<circle class="st15" cx="1825.5" cy="1170.1" r="48.8"/>
	<circle class="st12" cx="1825.5" cy="1170.1" r="48.8"/>
	<circle class="st16" cx="1825.2" cy="1169.5" r="42.8"/>
	<circle class="st17" cx="1825.8" cy="1170.6" r="18.4"/>
	<circle class="st18" cx="1813.7" cy="1149.5" r="2.5"/>
	<circle class="st18" cx="1825.7" cy="1146.5" r="2.5"/>
	<circle class="st18" cx="1838" cy="1150.2" r="2.5"/>
	<circle class="st18" cx="1846.4" cy="1158.4" r="2.5"/>
	<circle class="st18" cx="1849.1" cy="1170.8" r="2.5"/>
	<circle class="st18" cx="1846.6" cy="1182.7" r="2.5"/>
	<circle class="st18" cx="1838" cy="1191.4" r="2.5"/>
	<circle class="st18" cx="1826" cy="1194.5" r="2.5"/>
	<circle class="st18" cx="1812.9" cy="1190.9" r="2.5"/>
	<circle class="st18" cx="1804.8" cy="1182.4" r="2.5"/>
	<circle class="st18" cx="1801.7" cy="1170.4" r="2.5"/>
	<circle class="st18" cx="1804.5" cy="1158" r="2.5"/>
	<path class="st19" d="M1800.8,1134.6c0,0,4,14.9-10.7,11.3C1790.1,1145.9,1792.3,1139.7,1800.8,1134.6z"/>
	<path class="st19" d="M1817.3,1127.6c0,0,6.4,12,17.4,0.5C1834.7,1128.1,1826.9,1125.1,1817.3,1127.6z"/>
	<path class="st19" d="M1849.3,1134.6c0,0-3.1,14.6,11.7,11.7C1860.9,1146.2,1856.4,1137.9,1849.3,1134.6z"/>
	<path class="st19" d="M1867,1161.8c0,0-9.2,9.9-0.5,17.9C1866.5,1179.6,1869.6,1172.2,1867,1161.8z"/>
	<path class="st19" d="M1849.9,1204.5c0,0-0.9-11.3,10.3-10.7C1860.1,1193.8,1856.9,1199.7,1849.9,1204.5z"/>
	<path class="st19" d="M1833.4,1211.2c0,0-7.1-9.9-16.6,0.2C1816.8,1211.3,1823.9,1213.8,1833.4,1211.2z"/>
	<path class="st19" d="M1790.1,1193.8c0,0,12.1-1.7,11,10.7C1801.1,1204.5,1795.5,1201.5,1790.1,1193.8z"/>
	<path class="st19" d="M1783.2,1161.3c0,0,10.4,8.4,0.5,18.3C1783.7,1179.6,1781.2,1172.8,1783.2,1161.3z"/>
	<path d="M1899.4,1145.5c0,0,23.1,81.5-72,102.5c0,0-87.4-4.1-76.9-102c0,0-20.5,55.5,31,92c0,0,20.3,14.8,47,13
		c26.7-1.8,52.7-13.7,68.6-46.2C1906.4,1179.4,1905.4,1169.3,1899.4,1145.5z"/>
	<path class="st20" d="M1744.9,1028.8l0.4,26.2H1851c0,0,49,1.9,59.1,28.8l75.7,0.9l-0.7-56.7L1744.9,1028.8z"/>
	<circle class="st20" cx="1825.2" cy="1169.5" r="42.8"/>
	<path class="st0" d="M2012.1,1084l0.4,13.4c0,0,15.7,4.2,15.9,14.8v65c0,0,1.1,6.7-6.7,6.7c-7.8,0-36.3,0-36.3,0l0.3-99.2
		L2012.1,1084z"/>
	<path class="st95" d="M2018.1,1114.2v24c0,0-0.4,4.7,4.3,4.7c4.7,0,6.1,0,6.1,0l-0.2-30.7C2028.3,1112.2,2021.5,1110,2018.1,1114.2
		z"/>
	<path class="st95" d="M2028.4,1154.9c0,0-11.2-1.8-10.8,6.5c0.3,8.2,9.2,6.7,10.8,6.4V1154.9z"/>
	<path class="st94" d="M2027.1,1107.8c0,0-13.6-6.4-32.8-2.9l-0.7,74c0,0,29.9,4.5,34.7-1.8c0,0,1.8,6.5-6.7,6.7
		c-8.5,0.1-36.3,0-36.3,0l0.3-99.2l26.4-0.6l0.4,13.4C2012.5,1097.4,2025.1,1101.5,2027.1,1107.8z"/>
	<polygon class="st21" points="1013.4,1076.7 1013.4,1130.6 1195.9,1169.4 1237.4,1145.8 1599.7,1145.8 1741.4,1146.5 1754,1078.3 	
		"/>
	<circle class="st22" cx="1620.7" cy="1142.9" r="22.5"/>
	<circle class="st22" cx="1670" cy="1142.9" r="22.5"/>
	<path class="st23" d="M1634.9,1126c0,0-15-5.6-25.6,4.2c-10.6,9.8-10,20.6-10,20.6s-4.6-16.6,7.9-25.8S1633.3,1122.9,1634.9,1126z"
		/>
	<path class="st23" d="M1684,1126c0,0-15-5.6-25.6,4.2c-10.6,9.8-10,20.6-10,20.6s-4.6-16.6,7.9-25.8S1682.5,1122.9,1684,1126z"/>
	<path class="st24" d="M1392.5,1104.1v73.5h200.8v-73.8C1593.3,1103.8,1391.5,1104.1,1392.5,1104.1z"/>
	<path class="st25" d="M1543.6,1096.6v11.2h10.7v-11.2C1554.3,1096.6,1543.3,1096.6,1543.6,1096.6z"/>
	<polygon class="st26" points="1550.1,1101.2 1550.1,1107.8 1554.3,1107.8 1554.3,1096.6 1550,1096.6 	"/>
	<polygon class="st27" points="1398.3,1104.5 1398.3,1177.8 1392.5,1177.8 1392.5,1104.1 1398.3,1104.1 	"/>
	<path class="st28" d="M1418.3,1100.5v77.9h7.3v-77.8C1425.6,1100.6,1418.8,1100.5,1418.3,1100.5z"/>
	<path class="st28" d="M1491.2,1100.4v77.5h7.9v-77.5C1499.1,1100.4,1491.2,1100,1491.2,1100.4z"/>
	<path class="st28" d="M1564,1100.1v78.5h7.8v-78v-0.5C1571.8,1100,1563.8,1100.1,1564,1100.1z"/>
	<path class="st28" d="M1588.9,1103.8v73.6h4.3v-73.6C1593.3,1103.8,1588.9,1104.1,1588.9,1103.8z"/>
	<path class="st29" d="M1398.4,1120.1h19.8v5h-19.8C1398.4,1125.1,1398.2,1119.9,1398.4,1120.1z"/>
	<path class="st29" d="M1572,1120.1h16.7v5H1572C1572,1125.1,1571.8,1119.9,1572,1120.1z"/>
	<path class="st29" d="M1425.9,1120.1h64.9v5h-64.9C1425.9,1125.1,1425.3,1119.9,1425.9,1120.1z"/>
	<path class="st29" d="M1499.5,1120.1h64.5v5h-64.5C1499.5,1125.1,1498.9,1119.9,1499.5,1120.1z"/>
	<path class="st30" d="M1392.5,1120.1h5.9v4.9h-5.8C1392.6,1125.1,1392.5,1120,1392.5,1120.1z"/>
	<path class="st30" d="M1418.3,1120.1h7.3v5.8h-7.3C1418.3,1125.8,1418.3,1120.1,1418.3,1120.1z"/>
	<path class="st30" d="M1491.2,1120.1h7.9v5.8h-7.9C1491.2,1125.8,1491.1,1120.1,1491.2,1120.1z"/>
	<path class="st30" d="M1563.9,1120.1h8v5.8h-8C1563.9,1125.8,1563.8,1120.1,1563.9,1120.1z"/>
	<path class="st30" d="M1588.7,1120.3h4.5v4.9h-4.4C1588.8,1125.2,1588.7,1120.2,1588.7,1120.3z"/>
	<path class="st31" d="M1241.9,1154.1v-37.6c0,0,0.7-6.3,15.2-6.3c14.5,0,121.1,0,121.1,0s7.9-1,7.9,9.6s0,50.8,0,50.8
		s1.3,7.3-14.2,7.3s-121.8,0-121.8,0s-8.3,0.7-8.3-8.6S1241.9,1154.1,1241.9,1154.1z"/>
	<path class="st32" d="M1310.5,1138.9v12.2h8.8v-12.4C1319.3,1138.7,1310.4,1138.8,1310.5,1138.9z"/>
	<line class="st33" x1="1385.7" y1="1145.7" x2="1242.1" y2="1145.7"/>
	<circle class="st14" cx="1118.4" cy="1172.2" r="78.7"/>
	<circle class="st15" cx="1118.8" cy="1170.1" r="48.8"/>
	<circle class="st12" cx="1118.8" cy="1170.1" r="48.8"/>
	<circle class="st16" cx="1118.4" cy="1169.5" r="42.8"/>
	<circle class="st17" cx="1119" cy="1170.6" r="18.4"/>
	<circle class="st18" cx="1106.9" cy="1149.5" r="2.5"/>
	<circle class="st18" cx="1118.9" cy="1146.5" r="2.5"/>
	<circle class="st18" cx="1131.2" cy="1150.2" r="2.5"/>
	<circle class="st18" cx="1139.7" cy="1158.4" r="2.5"/>
	<circle class="st18" cx="1142.3" cy="1170.8" r="2.5"/>
	<circle class="st18" cx="1139.8" cy="1182.7" r="2.5"/>
	<circle class="st18" cx="1131.2" cy="1191.4" r="2.5"/>
	<circle class="st18" cx="1119.2" cy="1194.5" r="2.5"/>
	<circle class="st18" cx="1106.1" cy="1190.9" r="2.5"/>
	<circle class="st18" cx="1098.1" cy="1182.4" r="2.5"/>
	<circle class="st18" cx="1094.9" cy="1170.4" r="2.5"/>
	<circle class="st18" cx="1097.7" cy="1158" r="2.5"/>
	<path class="st19" d="M1094,1134.6c0,0,4,14.9-10.7,11.3C1083.3,1145.9,1085.5,1139.7,1094,1134.6z"/>
	<path class="st19" d="M1110.5,1127.6c0,0,6.4,12,17.4,0.5C1127.9,1128.1,1120.1,1125.1,1110.5,1127.6z"/>
	<path class="st19" d="M1142.5,1134.6c0,0-3.1,14.6,11.7,11.7C1154.1,1146.2,1149.6,1137.9,1142.5,1134.6z"/>
	<path class="st19" d="M1160.2,1161.8c0,0-9.2,9.9-0.5,17.9C1159.7,1179.6,1162.8,1172.2,1160.2,1161.8z"/>
	<path class="st19" d="M1143.1,1204.5c0,0-0.9-11.3,10.3-10.7C1153.4,1193.8,1150.1,1199.7,1143.1,1204.5z"/>
	<path class="st19" d="M1126.6,1211.2c0,0-7.1-9.9-16.6,0.2C1110,1211.3,1117.2,1213.8,1126.6,1211.2z"/>
	<path class="st19" d="M1083.3,1193.8c0,0,12.1-1.7,11,10.7C1094.3,1204.5,1088.7,1201.5,1083.3,1193.8z"/>
	<path class="st19" d="M1076.5,1161.3c0,0,10.4,8.4,0.5,18.3C1076.9,1179.6,1074.4,1172.8,1076.5,1161.3z"/>
	<path d="M1192.6,1145.5c0,0,23.1,81.5-72,102.5c0,0-87.4-4.1-76.9-102c0,0-20.5,55.5,31,92c0,0,20.3,14.8,47,13
		c26.7-1.8,52.7-13.7,68.6-46.2C1199.6,1179.4,1198.6,1169.3,1192.6,1145.5z"/>
	<circle class="st20" cx="1118.4" cy="1169.5" r="42.8"/>
	<path class="st34" d="M1206.7,1176.9c0,0,8.3-55.7-60.6-83.8c0,0-45.8-17.1-84.3,14.3c0,0-28.7,13.2-34.2,70c0,0-3.9,8.3-17.6,8.3
		h-10.8l0.9-54l13.4-1.1l17.1-35.8c0,0,5.9-17.9,30.8-17.9s126.4,0.3,126.4,0.3s17,0.3,23.2,26.4s14.7,29,26.1,29v53.4l-25.2-0.3
		C1211.7,1185.7,1206.4,1184.8,1206.7,1176.9z"/>
	<path class="st35" d="M1108.5,1083.6c0,0-63.8,0.4-76.5,41c-12.7,40.6-16.5,60.9-16.5,60.9s-11.6,0.8-16.4,0.2l0.9-54l13.4-1.1
		l17.1-35.8c0,0,6.3-18,30.8-17.9s126.4,0.3,126.4,0.3s19.4,0.1,23.2,26.4c6,24.5,13.5,25.8,26.9,28.3l-0.8,54.1l-25.2-0.3
		c0,0-5.3-0.8-5-8.8c0,0,16.9-3.9,10.2-39.3c0,0-14.5-9.1-15.5-27.4S1185.9,1083.9,1108.5,1083.6z"/>
	<path class="st36" d="M1736,1180.7c0,0-14.1-88.6,62.3-98.4l-55.9-0.4c0,0-23.4,26.1-24.5,67.9c-1.1,41.7-0.4,35.6-0.4,35.6
		S1733.1,1187.6,1736,1180.7z"/>
	<path class="st37" d="M1724.5,802.4l-0.3,37.4c0,0,8,1.6,14.8,0l-0.3-41.2L1724.5,802.4z"/>
	<ellipse class="st21" cx="1731.6" cy="800.6" rx="8.2" ry="8.5"/>
	<path class="st38" d="M1721,839.8c0,0,11.8,1.6,21.3-0.3v214.7c0,0-13.9,3.5-21.3-0.3V839.8z"/>
	<path class="st0" d="M1700.3,1102.7v24.7c0,0,5.9,8.8,12.9-0.2v-20.6c0,0-0.7-7,7-9.7c7.7-2.7,14.3-9.1,15.2-17.4
		c0.9-8.4,0.7-24,0.7-24s-6.9,1-13.4-0.3l-0.4,20c0,0-0.9,5.7-7.9,9.5S1700.8,1091.2,1700.3,1102.7z"/>
	<path class="st8" d="M1728.9,1056.2l-0.7,19.2c0,0-1.8,9.5-9,13c-7.3,3.5-12.3,8.2-12.3,15s-0.2,28-0.2,28s-4.8,1.5-6.4-3.9
		l0.4-27.9c0,0,0.2-8.4,11.7-13.9c11.5-5.5,9.9-10.6,9.9-10.6l0.4-20C1722.7,1055.1,1726.1,1056.2,1728.9,1056.2z"/>
	<path class="st39" d="M1742.1,844.9c0,0-8.2,2.4-21.1-0.2"/>
	<path class="st39" d="M1742.1,850.5c0,0-8.2,2.4-21.1-0.2"/>
	<path class="st39" d="M1742.1,855.8c0,0-8.2,2.4-21.1-0.2"/>
	<path class="st39" d="M1742.1,861.2c0,0-8.2,2.4-21.1-0.2"/>
	<path class="st39" d="M1742.1,866.8c0,0-8.2,2.4-21.1-0.2"/>
	<path class="st39" d="M1742.1,872.4c0,0-8.2,2.4-21.1-0.2"/>
	<path class="st39" d="M1741.9,878c0,0-8.2,2.4-21.1-0.2"/>
	<path class="st39" d="M1741.9,883.6c0,0-8.2,2.4-21.1-0.2"/>
	<path class="st39" d="M1741.9,889c0,0-8.2,2.4-21.1-0.2"/>
	<path class="st39" d="M1741.9,894.4c0,0-8.2,2.4-21.1-0.2"/>
	<path class="st39" d="M1741.9,900.2c0,0-8.2,2.4-21.1-0.2"/>
	<path class="st39" d="M1741.9,905.6c0,0-8.2,2.4-21.1-0.2"/>
	<path class="st39" d="M1741.9,911.8c0,0-8.2,2.4-21.1-0.2"/>
	<path class="st39" d="M1741.9,917.6c0,0-8.2,2.4-21.1-0.2"/>
	<path class="st39" d="M1741.9,923.2c0,0-8.2,2.4-21.1-0.2"/>
	<path class="st39" d="M1741.9,929.2c0,0-8.2,2.4-21.1-0.2"/>
	<path class="st39" d="M1741.9,935.1c0,0-8.2,2.4-21.1-0.2"/>
	<path class="st39" d="M1742.2,941.2c0,0-8.2,2.4-21.1-0.2"/>
	<path class="st39" d="M1742.2,947.9c0,0-8.2,2.4-21.1-0.2"/>
	<path class="st39" d="M1742,954c0,0-8.2,2.4-21.1-0.2"/>
	<path class="st39" d="M1742,960.5c0,0-8.2,2.4-21.1-0.2"/>
	<path class="st39" d="M1742,966.2c0,0-8.2,2.4-21.1-0.2"/>
	<path class="st39" d="M1742,972.5c0,0-8.2,2.4-21.1-0.2"/>
	<path class="st39" d="M1742,978.1c0,0-8.2,2.4-21.1-0.2"/>
	<path class="st39" d="M1742,985c0,0-8.2,2.4-21.1-0.2"/>
	<path class="st39" d="M1742,991.1c0,0-8.2,2.4-21.1-0.2"/>
	<path class="st39" d="M1742,996.6c0,0-8.2,2.4-21.1-0.2"/>
	<path class="st39" d="M1742,1002.4c0,0-8.2,2.4-21.1-0.2"/>
	<path class="st39" d="M1742,1008.3c0,0-8.2,2.4-21.1-0.2"/>
	<path class="st39" d="M1742,1014.6c0,0-8.2,2.4-21.1-0.2"/>
	<path class="st39" d="M1742,1021.7c0,0-8.2,2.4-21.1-0.2"/>
	<path class="st39" d="M1742,1028.4c0,0-8.2,2.4-21.1-0.2"/>
	<path class="st39" d="M1742,1034.9c0,0-8.2,2.4-21.1-0.2"/>
	<path class="st39" d="M1742,1041.4c0,0-8.2,2.4-21.1-0.2"/>
	<path class="st39" d="M1741.7,1048.3c0,0-8.2,2.4-21.1-0.2"/>
	<line class="st40" x1="1736.5" y1="840.4" x2="1736.5" y2="1055.4"/>
	<line class="st40" x1="1724.2" y1="839.8" x2="1724.2" y2="1055.1"/>
	<line class="st40" x1="1729.6" y1="840.8" x2="1729.6" y2="1056.2"/>
	<path class="st36" d="M1740,1054.3v28.2h113.9c0,0,58.2,1.1,58.2,55.2l-0.4,41c0,0-1.9,5.6,6.8,6c8.6,0.4,16.9,0,16.9,0l-1.7-59.2
		c0,0-7.4-69.5-78.8-70.2S1740,1054.3,1740,1054.3z"/>
	<path class="st41" d="M1770.9,1063.6l72.9-0.3c0,0,62.5-4.9,76.9,38.9c14.4,43.8,14.7,82.5,14.7,82.5l-1.7-59.2
		c0,0-5.2-70.5-82.7-70.5c-77.5,0-111-0.7-111-0.7l-0.2,10.5L1770.9,1063.6z"/>
	<path class="st11" d="M1689.4,768.8l0.3,20.9c0,0,5.5,1.3,18.6,0l-0.5-21.2L1689.4,768.8z"/>
	<path class="st87" d="M1710.8,789.1l0.1,4.4h-23.8l0.1-4.1C1687.2,789.5,1696.3,790.5,1710.8,789.1z"/>
	<polygon class="st89" points="1680.9,792.8 1637.5,892.7 1716,892.7 1716,792.8 	"/>
	<polygon class="st8" points="1644.5,876.4 1694.5,877 1715.8,845.6 1716,892.7 1637.5,892.7 	"/>
	<line class="st42" x1="1640.9" y1="883.2" x2="986.3" y2="631.4"/>
	<path class="st42" d="M952.7,665.5c0,0,7.4,106.1,8.9,117"/>
	<line class="st42" x1="993.1" y1="676.8" x2="983.3" y2="786.4"/>
	<polygon class="st43" points="1012.4,661.2 1100.6,695.4 1090.3,719.9 1007.5,686.7 	"/>
	<path class="st10" d="M1019,668.4c0,0,0.7,13.2,15.9,18.9c15.2,5.6,59.6,22.8,59.6,22.8l5-12.2c0,0-67.8-23.2-72.8-27.1
		c-5-4-6.9-5.1-6.9-5.1S1018.5,667.4,1019,668.4z"/>
	<circle class="st10" cx="973.1" cy="651.3" r="27.4"/>
	<circle class="st9" cx="973.7" cy="651.5" r="21.8"/>
	<path class="st44" d="M1020.1,658.5l-12.9,34.1c0,0-42.9-11.1-47-25.4c-4.2-14.3,1.8-26.3,5.1-34.1L1020.1,658.5z"/>
	<path class="st45" d="M981.2,676.9l22.7,9.6c0,0,5.2-20.7,16.2-28l-12.9,34.1c0,0-41.1-9.9-47-25.4c0,0-3.2-6.7,0.2-20.3
		c0,0-1.3,19.2,6.7,23.5C975.1,674.7,981.2,676.9,981.2,676.9z"/>
	<circle class="st46" cx="973.1" cy="650.4" r="5.4"/>
	<circle class="st10" cx="1148.4" cy="693.5" r="11.8"/>
	<circle class="st9" cx="1463" cy="827.7" r="18"/>
	<circle class="st10" cx="1463.3" cy="827.9" r="11.5"/>
	<polygon class="st44" points="1603.3,894.8 1105.1,685.2 1086.6,728 1336.4,835.5 1354.5,855.6 1541.2,940.2 	"/>
	<polyline class="st47" points="1580.4,897.4 1110.1,699.5 1100.5,723.1 	"/>
	<g>
		<polygon class="st48" points="1362.2,849.5 1342.1,829 1099.9,723.5 1102.4,717.6 1344.9,823.8 1366.8,846.1 1552.1,929.7 
			1547.6,933.3 		"/>
		<path class="st45" d="M1102.9,718.9l241.4,105.7l21.9,22.3l183.9,83l-2.7,2.2l-184.7-83.5l-20-20.4l-241.5-105.2L1102.9,718.9
			 M1101.9,716.3l-0.8,1.9l-1.7,4l-0.8,1.8l1.8,0.8l241.1,105.1l19.8,20.2l0.3,0.3l0.3,0.2l184.7,83.5l1.1,0.5l1-0.8l2.7-2.2l2.6-2
			l-3-1.3l-183.6-82.9l-21.7-22l-0.3-0.3l-0.4-0.2l-241.4-105.7L1101.9,716.3L1101.9,716.3z"/>
	</g>
	<circle class="st49" cx="1385.5" cy="837.9" r="6.6"/>
	<polygon class="st43" points="1373.5,864.2 1373.5,930 1394.7,930 1395,873.8 	"/>
	<polygon class="st10" points="1386.1,872.9 1386.8,929 1376.8,929 1376.8,867.4 1385.9,871.3 	"/>
	<path class="st43" d="M1369,929.4c0,0,10.4,0.4,31.1,0.1l-0.3,36.5h-31L1369,929.4z"/>
	<path class="st9" d="M971.2,795.8c0,0,2.1,5.5-1.4,6.9s-11.7,8.7-4.1,14.6S979,818.9,982,807c0,0-3.7,0.5-6.4,6.2
		c0,0-6.4,6.9-7.3-3.2c0,0,0-2.5,3.9-4.1c3.9-1.6,3.4-5.5,1.4-11.9L971.2,795.8z"/>
	<path class="st50" d="M964.6,764.2c0,0-1.9,14-5.8,20.2c0,0-2.3,4.7,0,6.2c2.3,1.6,10.5,5.8,10.5,5.8s1.9,3.9,7.4,0l8.2-6.2
		c0,0,2.7,0.4,1.2-5.4c-1.6-5.8-6.6-20.6-6.6-20.6H964.6z"/>
	<path class="st45" d="M977,766.6l6.2,17.4c0,0,1.7,2.5-0.2,4.7c-1.9,2.2-7.4,6.1-7.4,6.1s-2,1.7-4.6-0.2c-2.5-1.9-6.2-3.5-6.2-3.5
		l4.6,5.4c0,0,2.7,3.9,7.4,0c4.7-3.9,8.2-6.2,8.2-6.2s2.6,0.3,1.2-5.4c-1.4-5.7-6.6-20.6-6.6-20.6L977,766.6z"/>
	<g>
		<path class="st48" d="M958.9,790.5c-0.1,0-0.6-0.2-0.9-0.9c-0.3-0.8-0.4-2.2,1-5c2.9-5.7,4.8-12.4,5.8-20.1h14l-1.9,1.9l-10.7-0.2
			l0,0.2c0,0.2-1.4,16.8-6.3,20.1c-0.1,0.1-0.5,0.5-0.4,1.2c0.2,0.7,0.9,1.3,2.3,1.8c2.4,0.9,5.4,4.5,6.7,6.3L958.9,790.5z"/>
		<path class="st50" d="M978.2,764.7l-1.4,1.4l-10.4-0.2l-0.5,0l0,0.5c0,0.2-1.4,16.7-6.2,19.9l0,0l0,0c-0.2,0.2-0.5,0.7-0.4,1.4
			c0.2,0.8,1,1.5,2.4,2c1.9,0.7,4.3,3.4,5.8,5.2l-8.4-4.7l0,0l0,0c0,0-0.5-0.2-0.7-0.8c-0.3-0.7-0.3-2.1,1-4.7
			c2.8-5.6,4.8-12.4,5.8-20H978.2 M979.4,764.2h-14.8c-1.1,8.3-3.1,14.9-5.8,20.2c-2.7,5.4,0,6.2,0,6.2l10.5,5.8
			c0,0-4.3-6.1-7.5-7.3c-3.2-1.2-1.9-2.5-1.9-2.5c5.1-3.4,6.4-20.3,6.4-20.3l10.6,0.2L979.4,764.2L979.4,764.2z"/>
	</g>
	<line class="st42" x1="971.7" y1="812.2" x2="971.7" y2="821.6"/>
	<polygon class="st51" points="969.4,821.7 974.3,821.7 974.3,858.8 969.7,858.8 	"/>
	<line class="st108" x1="971.9" y1="859.4" x2="972.9" y2="1060.7"/>
	<polygon class="st89" points="1716,892.7 1716,1080 992.2,1080 992.2,1026.7 1110.2,966.5 1514.9,966.5 1587.2,894.3 	"/>
	<path class="st6" d="M1680.9,1047.5l31.2,32.1h-19.5l-32.2-32.2C1660.4,1047.4,1681.2,1047.3,1680.9,1047.5z"/>
	<path class="st6" d="M1646.3,1047.5l31.2,32.1h-19.5l-32.2-32.2C1625.7,1047.4,1646.5,1047.3,1646.3,1047.5z"/>
	<path class="st6" d="M1612.3,1047.5l31.2,32.1H1624l-32.2-32.2C1591.8,1047.4,1612.6,1047.3,1612.3,1047.5z"/>
	<path class="st6" d="M1577,1047.5l31.2,32.1h-19.5l-32.2-32.2C1556.4,1047.4,1577.2,1047.3,1577,1047.5z"/>
	<path class="st6" d="M1542.6,1047.6l31.2,32h-19.5l-32.2-32.1C1522,1047.5,1542.8,1047.4,1542.6,1047.6z"/>
	<path class="st6" d="M1507.5,1047.9l31.2,31.7h-19.5l-32.2-31.8C1486.9,1047.8,1507.7,1047.7,1507.5,1047.9z"/>
	<path class="st6" d="M1472.8,1047.9l31.2,31.7h-19.5l-32.2-31.8C1452.2,1047.8,1473.1,1047.7,1472.8,1047.9z"/>
	<path class="st6" d="M1437.7,1047.9l31.2,31.7h-19.5l-32.2-31.8C1417.1,1047.8,1437.9,1047.7,1437.7,1047.9z"/>
	<path class="st6" d="M1403.3,1048.2l31.2,31.4h-19.5l-32.2-31.5C1382.7,1048.1,1403.5,1047.9,1403.3,1048.2z"/>
	<path class="st6" d="M1368.6,1048.2l31.2,31.4h-19.5l-32.2-31.5C1348.1,1048.1,1368.9,1047.9,1368.6,1048.2z"/>
	<path class="st6" d="M1333.8,1048.2l31.2,31.4h-19.5l-32.2-31.5C1313.2,1048.1,1334,1048,1333.8,1048.2z"/>
	<path class="st6" d="M1298.7,1048.3l31.2,31.3h-19.5l-32.2-31.4C1278.1,1048.2,1298.9,1048.1,1298.7,1048.3z"/>
	<path class="st6" d="M1264.2,1048.4l31.2,31.2h-19.5l-32.2-31.3C1243.7,1048.3,1264.5,1048.2,1264.2,1048.4z"/>
	<path class="st6" d="M1229.8,1048.4l31.2,31.2h-19.5l-32.2-31.3C1209.2,1048.3,1230.1,1048.2,1229.8,1048.4z"/>
	<path class="st6" d="M1194.2,1048.8l31.2,30.8h-19.5l-32.2-30.9C1173.7,1048.6,1194.5,1048.5,1194.2,1048.8z"/>
	<path class="st6" d="M1159.4,1048.8l31.2,30.8H1171l-32.2-30.9C1138.8,1048.6,1159.6,1048.5,1159.4,1048.8z"/>
	<path class="st6" d="M1124,1049l31.2,30.6h-19.5l-32.2-30.7C1103.4,1048.9,1124.3,1048.8,1124,1049z"/>
	<path class="st6" d="M1089.1,1049.1l31.2,30.5h-19.5l-32.2-30.6C1068.6,1049,1089.4,1048.9,1089.1,1049.1z"/>
	<path class="st6" d="M1054,1049.2l31.2,30.4h-19.5l-32.2-30.5C1033.4,1049.1,1054.3,1049,1054,1049.2z"/>
	<polygon class="st1" points="1695.3,915.7 1695.3,1056.2 1688.2,1046.9 1688.2,921.1 	"/>
	<polygon class="st87" points="1596.3,921.9 1688.2,921.1 1695.3,915.7 1592.2,915.7 1523.7,988.5 1111,988.5 1012.8,1037.6 
		1012.8,1057 1020.4,1049.1 1020.4,1043.3 1117,995.9 1527,995.9 	"/>
	<polyline class="st1" points="1688.2,1046.9 1020.4,1049.1 1012.8,1057 1695.3,1056.2 	"/>
	<path class="st91" d="M1601.7,938.3h74.3v98.1h-74.3C1601.7,1036.4,1602,938.6,1601.7,938.3z"/>
	<polygon class="st6" points="1628.9,1019.6 1628.9,1028.7 1650.9,1028.7 1650.9,1018.6 1628.7,1018.6 	"/>
	<g>
		<path class="st9" d="M959.9,1057.5c0,0,0.7,10.5,2.7,11.2c1.9,0.7,19.2-8.7,20-12.6C982.5,1056.1,969,1058.7,959.9,1057.5z"/>
		<path class="st53" d="M303.5,1207.3l131.3-26.2c0,0,5.4-58.9-63.8-65.7C301.9,1108.6,292.8,1173.8,303.5,1207.3z"/>
		<polygon class="st53" points="871.2,1098.1 880.1,1096.1 890.3,1046 821.5,1019.7 752.4,1045.3 749.2,1107.3 759.8,1122.7 		"/>
		<circle class="st14" cx="817.4" cy="1098.3" r="53.9"/>
		<g>
			<g>
				<path class="st54" d="M818,1135.7c-0.3,0-0.6,0-0.9,0c-19.2-0.5-34.5-16.5-34.1-35.7c0.5-18.8,16.1-34.1,34.9-34.1
					c0.3,0,0.6,0,0.9,0c19.2,0.5,34.5,16.5,34.1,35.7C852.4,1120.4,836.7,1135.7,818,1135.7z"/>
				<path class="st55" d="M817.9,1067.4c0.3,0,0.5,0,0.8,0c18.4,0.4,33,15.8,32.6,34.2c-0.4,18.2-15.3,32.6-33.4,32.6
					c-0.3,0-0.5,0-0.8,0c-18.4-0.4-33-15.8-32.6-34.2C785,1081.8,799.8,1067.4,817.9,1067.4 M817.9,1064.4L817.9,1064.4
					c-9.5,0-18.6,3.7-25.4,10.3c-6.9,6.7-10.8,15.6-11,25.2c-0.5,20.1,15.5,36.8,35.5,37.3c0.3,0,0.6,0,0.9,0
					c9.5,0,18.6-3.7,25.4-10.3c6.9-6.7,10.8-15.6,11-25.2c0.5-20.1-15.5-36.8-35.5-37.3C818.5,1064.4,818.2,1064.4,817.9,1064.4
					L817.9,1064.4z"/>
			</g>
			<g>
				<path class="st56" d="M817.5,1120.2c-10.5-0.3-18.8-9-18.6-19.5c0.2-10.2,8.8-18.6,19-18.6c0.2,0,0.3,0,0.5,0
					c5.1,0.1,9.8,2.2,13.3,5.9s5.4,8.5,5.2,13.6c-0.2,10.2-8.8,18.6-19,18.6C817.8,1120.2,817.6,1120.2,817.5,1120.2z"/>
				<path class="st57" d="M817.9,1083.1L817.9,1083.1c0.1,0,0.3,0,0.4,0c4.8,0.1,9.3,2.1,12.6,5.6c3.3,3.5,5.1,8.1,5,12.9
					c-0.2,9.7-8.3,17.6-18,17.6c-0.1,0-0.3,0-0.4,0c-4.8-0.1-9.3-2.1-12.6-5.6c-3.3-3.5-5.1-8.1-5-12.9
					C800.1,1091,808.2,1083.1,817.9,1083.1 M817.9,1081.1c-10.8,0-19.8,8.7-20,19.5c-0.3,11.1,8.5,20.2,19.5,20.5c0.2,0,0.3,0,0.5,0
					c10.8,0,19.8-8.7,20-19.5c0.3-11.1-8.5-20.2-19.5-20.5C818.3,1081.1,818.1,1081.1,817.9,1081.1L817.9,1081.1z"/>
			</g>
			<circle class="st58" cx="818.2" cy="1101.2" r="6.7"/>
			<g>
				<path class="st59" d="M806.6,1079.8c-0.6,0-1.1-0.2-1.5-0.7c-0.4-0.4-0.6-0.9-0.6-1.5c0-1.1,1-2.1,2.1-2.1
					c0.6,0,1.1,0.2,1.5,0.7c0.4,0.4,0.6,0.9,0.6,1.5C808.7,1078.9,807.8,1079.8,806.6,1079.8L806.6,1079.8z"/>
				<path class="st60" d="M806.6,1075.4l0,0.5c1,0,1.8,0.9,1.8,1.9c0,1-0.9,1.8-1.9,1.8c0,0,0,0,0,0c-1,0-1.8-0.9-1.8-1.9
					c0-1,0.9-1.8,1.9-1.8L806.6,1075.4 M806.6,1075.4c-1.3,0-2.3,1-2.4,2.3c0,1.3,1,2.4,2.3,2.4c0,0,0,0,0.1,0c1.3,0,2.3-1,2.4-2.3
					C809,1076.5,808,1075.4,806.6,1075.4C806.7,1075.4,806.7,1075.4,806.6,1075.4L806.6,1075.4z"/>
			</g>
			<g>
				<path class="st59" d="M820.6,1077.1c-0.6,0-1.1-0.2-1.5-0.7c-0.4-0.4-0.6-0.9-0.6-1.5c0-1.1,1-2.1,2.1-2.1c1.2,0,2.1,1,2.1,2.2
					C822.7,1076.2,821.8,1077.1,820.6,1077.1L820.6,1077.1z"/>
				<g>
					<path class="st60" d="M820.6,1072.6l0,0.5c0.5,0,1,0.2,1.3,0.6c0.3,0.4,0.5,0.8,0.5,1.3c0,1-0.9,1.8-1.9,1.8c0,0,0,0,0,0
						c-1,0-1.8-0.9-1.8-1.9c0-1,0.9-1.8,1.9-1.8V1072.6 M820.6,1072.6c-1.3,0-2.3,1-2.4,2.3c0,1.3,1,2.4,2.3,2.4c0,0,0,0,0.1,0
						c1.3,0,2.3-1,2.4-2.3C823,1073.7,822,1072.7,820.6,1072.6C820.7,1072.6,820.7,1072.6,820.6,1072.6L820.6,1072.6z"/>
				</g>
			</g>
			<g>
				<path class="st61" d="M818.1,1090.5c-0.7,0-1.3-0.6-1.3-1.3c0-0.7,0.6-1.3,1.3-1.3c0.8,0,1.3,0.6,1.3,1.3
					C819.4,1089.9,818.8,1090.5,818.1,1090.5L818.1,1090.5z"/>
				<g>
					<path class="st62" d="M818.1,1087.6l0,0.5c0.6,0,1,0.5,1,1.1c0,0.6-0.5,1-1.1,1c0,0,0,0,0,0c-0.3,0-0.5-0.1-0.7-0.3
						c-0.2-0.2-0.3-0.5-0.3-0.8c0-0.6,0.5-1,1.1-1V1087.6 M818.1,1087.6c-0.8,0-1.5,0.7-1.6,1.5c0,0.9,0.7,1.6,1.5,1.6c0,0,0,0,0,0
						c0.8,0,1.5-0.7,1.6-1.5C819.7,1088.3,819,1087.6,818.1,1087.6C818.2,1087.6,818.2,1087.6,818.1,1087.6L818.1,1087.6z"/>
				</g>
			</g>
			<g>
				<path class="st61" d="M829.4,1102.4c-0.7,0-1.3-0.6-1.3-1.3c0-0.7,0.6-1.3,1.3-1.3c0.4,0,0.7,0.2,1,0.4c0.2,0.3,0.4,0.6,0.4,0.9
					C830.8,1101.8,830.2,1102.4,829.4,1102.4L829.4,1102.4z"/>
				<g>
					<path class="st62" d="M829.5,1099.5l0,0.5c0.3,0,0.5,0.1,0.7,0.3c0.2,0.2,0.3,0.5,0.3,0.8c0,0.6-0.5,1-1.1,1c0,0,0,0,0,0
						c-0.6,0-1-0.5-1-1.1c0-0.6,0.5-1,1.1-1L829.5,1099.5 M829.5,1099.5c-0.8,0-1.5,0.7-1.6,1.5c0,0.9,0.7,1.6,1.5,1.6c0,0,0,0,0,0
						c0.8,0,1.5-0.7,1.6-1.5C831,1100.2,830.4,1099.5,829.5,1099.5C829.5,1099.5,829.5,1099.5,829.5,1099.5L829.5,1099.5z"/>
				</g>
			</g>
			<g>
				<path class="st61" d="M817.8,1113.3c-0.7,0-1.3-0.6-1.3-1.3c0-0.7,0.6-1.3,1.3-1.3c0.4,0,0.7,0.2,0.9,0.4s0.4,0.6,0.4,0.9
					C819.1,1112.7,818.5,1113.3,817.8,1113.3L817.8,1113.3z"/>
				<g>
					<path class="st62" d="M817.8,1110.4l0,0.5c0.6,0,1,0.5,1,1.1c0,0.6-0.5,1-1.1,1c0,0,0,0,0,0c-0.6,0-1-0.5-1-1.1
						c0-0.6,0.5-1,1.1-1V1110.4 M817.8,1110.4c-0.8,0-1.5,0.7-1.6,1.5c0,0.9,0.7,1.6,1.5,1.6c0,0,0,0,0,0c0.8,0,1.5-0.7,1.6-1.5
						C819.4,1111.2,818.7,1110.5,817.8,1110.4C817.8,1110.4,817.8,1110.4,817.8,1110.4L817.8,1110.4z"/>
				</g>
			</g>
			<g>
				<path class="st61" d="M806.2,1102.5c-0.3,0-0.7-0.2-0.9-0.4c-0.2-0.3-0.4-0.6-0.4-0.9c0-0.7,0.6-1.3,1.3-1.3
					c0.4,0,0.7,0.2,0.9,0.4c0.2,0.3,0.4,0.6,0.4,0.9C807.6,1101.9,807,1102.5,806.2,1102.5L806.2,1102.5z"/>
				<g>
					<path class="st62" d="M806.3,1099.6l0,0.5c0.3,0,0.5,0.1,0.7,0.3c0.2,0.2,0.3,0.5,0.3,0.8c0,0.6-0.5,1-1.1,1c0,0,0,0,0,0
						c-0.3,0-0.5-0.1-0.7-0.3c-0.2-0.2-0.3-0.5-0.3-0.8c0-0.6,0.5-1,1.1-1L806.3,1099.6 M806.3,1099.6c-0.8,0-1.5,0.7-1.6,1.5
						c0,0.9,0.7,1.6,1.5,1.6c0,0,0,0,0,0c0.8,0,1.5-0.7,1.6-1.5C807.9,1100.4,807.2,1099.6,806.3,1099.6
						C806.3,1099.6,806.3,1099.6,806.3,1099.6L806.3,1099.6z"/>
				</g>
			</g>
			<g>
				<path class="st59" d="M834.8,1082.9c-0.6,0-1.1-0.2-1.5-0.7c-0.4-0.4-0.6-0.9-0.6-1.5c0-1.1,1-2.1,2.1-2.1c1.2,0,2.1,1,2.1,2.2
					C836.9,1082,836,1082.9,834.8,1082.9L834.8,1082.9z"/>
				<g>
					<path class="st60" d="M834.8,1078.4l0,0.5c1,0,1.8,0.9,1.8,1.9c0,1-0.9,1.8-1.9,1.8c0,0,0,0,0,0c-1,0-1.8-0.9-1.8-1.9
						c0-1,0.9-1.8,1.9-1.8L834.8,1078.4 M834.8,1078.4c-1.3,0-2.3,1-2.4,2.3c0,1.3,1,2.4,2.3,2.4c0,0,0,0,0.1,0c1.3,0,2.3-1,2.4-2.3
						C837.2,1079.6,836.2,1078.5,834.8,1078.4C834.9,1078.4,834.8,1078.4,834.8,1078.4L834.8,1078.4z"/>
				</g>
			</g>
			<g>
				<path class="st59" d="M842.1,1092.8c-0.6,0-1.1-0.2-1.5-0.7c-0.4-0.4-0.6-0.9-0.6-1.5c0-1.1,1-2.1,2.1-2.1
					c0.6,0,1.1,0.2,1.5,0.7c0.4,0.4,0.6,0.9,0.6,1.5C844.2,1091.8,843.3,1092.8,842.1,1092.8L842.1,1092.8z"/>
				<g>
					<path class="st60" d="M842.2,1088.3l0,0.5c0.5,0,1,0.2,1.3,0.6s0.5,0.8,0.5,1.3c0,1-0.9,1.8-1.9,1.8c0,0,0,0,0,0
						c-0.5,0-1-0.2-1.3-0.6c-0.3-0.4-0.5-0.8-0.5-1.3c0-1,0.9-1.8,1.9-1.8L842.2,1088.3 M842.2,1088.3c-1.3,0-2.3,1-2.4,2.3
						c0,1.3,1,2.4,2.3,2.4c0,0,0,0,0.1,0c1.3,0,2.3-1,2.4-2.3C844.6,1089.4,843.5,1088.3,842.2,1088.3
						C842.2,1088.3,842.2,1088.3,842.2,1088.3L842.2,1088.3z"/>
				</g>
			</g>
			<g>
				<path class="st59" d="M843.8,1105.5c-0.6,0-1.1-0.2-1.5-0.7c-0.4-0.4-0.6-0.9-0.6-1.5c0-1.1,1-2.1,2.1-2.1
					c0.6,0,1.1,0.2,1.5,0.7c0.4,0.4,0.6,0.9,0.6,1.5C845.9,1104.6,845,1105.5,843.8,1105.5L843.8,1105.5z"/>
				<g>
					<path class="st60" d="M843.9,1101l0,0.5c0.5,0,1,0.2,1.3,0.6c0.3,0.4,0.5,0.8,0.5,1.3c0,1-0.9,1.8-1.9,1.8c0,0,0,0,0,0
						c-1,0-1.8-0.9-1.8-1.9c0-1,0.9-1.8,1.9-1.8L843.9,1101 M843.9,1101c-1.3,0-2.3,1-2.4,2.3c0,1.3,1,2.4,2.3,2.4c0,0,0,0,0.1,0
						c1.3,0,2.3-1,2.4-2.3C846.2,1102.2,845.2,1101.1,843.9,1101C843.9,1101,843.9,1101,843.9,1101L843.9,1101z"/>
				</g>
			</g>
			<g>
				<path class="st59" d="M839.8,1117.2c-0.6,0-1.1-0.2-1.5-0.7c-0.4-0.4-0.6-0.9-0.6-1.5c0-1.1,1-2.1,2.1-2.1
					c0.6,0,1.1,0.2,1.5,0.7c0.4,0.4,0.6,0.9,0.6,1.5C842,1116.3,841,1117.2,839.8,1117.2L839.8,1117.2z"/>
				<g>
					<path class="st60" d="M839.9,1112.8l0,0.5c1,0,1.8,0.9,1.8,1.9c0,1-0.9,1.8-1.9,1.8c0,0,0,0,0,0c-1,0-1.8-0.9-1.8-1.9
						c0-1,0.9-1.8,1.9-1.8V1112.8 M839.9,1112.8c-1.3,0-2.3,1-2.4,2.3c0,1.3,1,2.4,2.3,2.4c0,0,0,0,0.1,0c1.3,0,2.3-1,2.4-2.3
						C842.3,1113.9,841.2,1112.8,839.9,1112.8C839.9,1112.8,839.9,1112.8,839.9,1112.8L839.9,1112.8z"/>
				</g>
			</g>
			<g>
				<path class="st59" d="M830,1126.1c-0.6,0-1.1-0.2-1.5-0.7c-0.4-0.4-0.6-0.9-0.6-1.5c0-1.2,1-2.1,2.1-2.1c0.6,0,1.1,0.2,1.5,0.7
					c0.4,0.4,0.6,0.9,0.6,1.5C832.2,1125.2,831.2,1126.1,830,1126.1L830,1126.1z"/>
				<g>
					<path class="st60" d="M830.1,1121.6l0,0.5c1,0,1.8,0.9,1.8,1.9c0,1-0.9,1.8-1.9,1.8c0,0,0,0,0,0c-0.5,0-1-0.2-1.3-0.6
						s-0.5-0.8-0.5-1.3c0-1,0.9-1.8,1.9-1.8L830.1,1121.6 M830.1,1121.6c-1.3,0-2.3,1-2.4,2.3c0,1.3,1,2.4,2.3,2.4c0,0,0,0,0.1,0
						c1.3,0,2.3-1,2.4-2.3C832.5,1122.7,831.5,1121.7,830.1,1121.6C830.1,1121.6,830.1,1121.6,830.1,1121.6L830.1,1121.6z"/>
				</g>
			</g>
			<g>
				<path class="st59" d="M817.4,1129.8c-1.2,0-2.1-1-2.1-2.2c0-1.1,1-2.1,2.1-2.1c1.2,0,2.1,1,2.1,2.2
					C819.6,1128.9,818.6,1129.8,817.4,1129.8L817.4,1129.8z"/>
				<g>
					<path class="st60" d="M817.5,1125.3l0,0.5c1,0,1.8,0.9,1.8,1.9c0,1-0.9,1.8-1.9,1.8c0,0,0,0,0,0c-1,0-1.8-0.9-1.8-1.9
						c0-1,0.9-1.8,1.9-1.8V1125.3 M817.5,1125.3c-1.3,0-2.3,1-2.4,2.3c0,1.3,1,2.4,2.3,2.4c0,0,0,0,0.1,0c1.3,0,2.3-1,2.4-2.3
						C819.9,1126.4,818.9,1125.3,817.5,1125.3C817.5,1125.3,817.5,1125.3,817.5,1125.3L817.5,1125.3z"/>
				</g>
			</g>
			<g>
				<path class="st59" d="M806,1127c-1.2,0-2.1-1-2.1-2.2c0-1.1,1-2.1,2.1-2.1c0.6,0,1.1,0.2,1.5,0.7c0.4,0.4,0.6,0.9,0.6,1.5
					C808.2,1126,807.2,1127,806,1127L806,1127z"/>
				<g>
					<path class="st60" d="M806.1,1122.5l0,0.5c1,0,1.8,0.9,1.8,1.9c0,1-0.9,1.8-1.9,1.8c0,0,0,0,0,0c-1,0-1.8-0.9-1.8-1.9
						c0-1,0.9-1.8,1.9-1.8L806.1,1122.5 M806.1,1122.5c-1.3,0-2.3,1-2.4,2.3c0,1.3,1,2.4,2.3,2.4c0,0,0,0,0.1,0c1.3,0,2.3-1,2.4-2.3
						C808.5,1123.6,807.4,1122.5,806.1,1122.5C806.1,1122.5,806.1,1122.5,806.1,1122.5L806.1,1122.5z"/>
				</g>
			</g>
			<g>
				<path class="st59" d="M796.8,1118.9c-1.2,0-2.1-1-2.1-2.2c0-1.1,1-2.1,2.1-2.1c1.2,0,2.1,1,2.1,2.2
					C798.9,1117.9,798,1118.9,796.8,1118.9L796.8,1118.9z"/>
				<g>
					<path class="st60" d="M796.8,1114.4l0,0.5c1,0,1.8,0.9,1.8,1.9c0,1-0.9,1.8-1.9,1.8c0,0,0,0,0,0c-1,0-1.8-0.9-1.8-1.9
						c0-1,0.9-1.8,1.9-1.8L796.8,1114.4 M796.8,1114.4c-1.3,0-2.3,1-2.4,2.3c0,1.3,1,2.4,2.3,2.4c0,0,0,0,0.1,0c1.3,0,2.3-1,2.4-2.3
						C799.2,1115.5,798.2,1114.4,796.8,1114.4C796.9,1114.4,796.8,1114.4,796.8,1114.4L796.8,1114.4z"/>
				</g>
			</g>
			<g>
				<path class="st59" d="M791.7,1108c-1.2,0-2.1-1-2.1-2.2c0-1.1,1-2.1,2.1-2.1c1.2,0,2.1,1,2.1,2.2
					C793.8,1107,792.9,1108,791.7,1108L791.7,1108z"/>
				<g>
					<path class="st60" d="M791.7,1103.5l0,0.5c1,0,1.8,0.9,1.8,1.9c0,1-0.9,1.8-1.9,1.8c0,0,0,0,0,0c-1,0-1.8-0.9-1.8-1.9
						c0-1,0.9-1.8,1.9-1.8L791.7,1103.5 M791.7,1103.5c-1.3,0-2.3,1-2.4,2.3c0,1.3,1,2.4,2.3,2.4c0,0,0,0,0.1,0c1.3,0,2.3-1,2.4-2.3
						C794.1,1104.6,793.1,1103.5,791.7,1103.5C791.8,1103.5,791.8,1103.5,791.7,1103.5L791.7,1103.5z"/>
				</g>
			</g>
			<g>
				<path class="st59" d="M791.7,1097.1c-0.6,0-1.1-0.2-1.5-0.7c-0.4-0.4-0.6-0.9-0.6-1.5c0-1.1,1-2.1,2.1-2.1
					c0.6,0,1.1,0.2,1.5,0.7c0.4,0.4,0.6,0.9,0.6,1.5C793.8,1096.2,792.9,1097.1,791.7,1097.1L791.7,1097.1z"/>
				<g>
					<path class="st60" d="M791.7,1092.7l0,0.5c1,0,1.8,0.9,1.8,1.9c0,1-0.9,1.8-1.9,1.8c0,0,0,0,0,0c-1,0-1.8-0.9-1.8-1.9
						c0-1,0.9-1.8,1.9-1.8L791.7,1092.7 M791.7,1092.7c-1.3,0-2.3,1-2.4,2.3c0,1.3,1,2.4,2.3,2.4c0,0,0,0,0.1,0c1.3,0,2.3-1,2.4-2.3
						C794.1,1093.8,793.1,1092.7,791.7,1092.7C791.8,1092.7,791.8,1092.7,791.7,1092.7L791.7,1092.7z"/>
				</g>
			</g>
			<g>
				<path class="st59" d="M796.4,1086.9c-1.2,0-2.1-1-2.1-2.2c0-1.1,1-2.1,2.1-2.1c1.2,0,2.1,1,2.1,2.2
					C798.5,1086,797.5,1086.9,796.4,1086.9L796.4,1086.9z"/>
				<g>
					<path class="st60" d="M796.4,1082.4l0,0.5c0.5,0,1,0.2,1.3,0.6c0.3,0.4,0.5,0.8,0.5,1.3c0,1-0.9,1.8-1.9,1.8c0,0,0,0,0,0
						c-1,0-1.8-0.9-1.8-1.9c0-1,0.9-1.8,1.9-1.8L796.4,1082.4 M796.4,1082.4c-1.3,0-2.3,1-2.4,2.3c0,1.3,1,2.4,2.3,2.4
						c0,0,0,0,0.1,0c1.3,0,2.3-1,2.4-2.3C798.8,1083.5,797.8,1082.4,796.4,1082.4C796.4,1082.4,796.4,1082.4,796.4,1082.4
						L796.4,1082.4z"/>
				</g>
			</g>
		</g>
		<path class="st63" d="M863.9,1125.4c0,0,18.2-53.1-31.6-73.6c0,0-28.7-7-46.4,9.2c-17.8,16.1-19.7,38.7-17.8,58.3
			c0,0-4.9-6.2-4.6-22.3c0.3-16.1,11.3-51.7,55.2-52.6c0,0,50.3,0,52.6,55.2C871.2,1099.6,871.5,1113.8,863.9,1125.4z"/>
		<path class="st11" d="M759.7,978.7c0,0,160.2-11.2,169.4,16.5c0,0,7.9,4.5,11.1,15.8c0,0,18.2,1.8,18.8,21.1c0,0,3.4,29.5,6,37.4
			c2.5,8-0.2,7.9-6.2,10.2c-6.1,2.3-51.8,12.4-78.6,16.4c0,0,2.3-48.7-49.7-63.1c0,0-27.9-5.8-49.3,9.2
			c-21.4,15-28.6,32.6-27.2,55.5c1.4,22.9,5.9,24.9,5.9,24.9s-6.4,4.5-16.9-11.9l-2.2,0.2c0,0-1.6-71.7-27.7-106.7
			c0,0,23.6-7.3,29.4-19.5C742.4,984.8,753.5,979.5,759.7,978.7z"/>
		<path class="st64" d="M742.4,984.8l136.4,0.3c0,0,29.2,0.4,37.4,9l13,1c0,0-4.1-13.3-38.5-16.1c-34.4-2.8-58.6-3.5-130.9-0.4
			C759.7,978.7,749.2,981,742.4,984.8z"/>
		<path class="st64" d="M960.2,1042.7c0,0-41.3,5-48.8,8.7c0,0,32.5-31.6,28.4-42.1l2.1,2.4c0,0,14.2,2.1,16.5,14.8
			C960.6,1039.3,960.2,1042.7,960.2,1042.7z"/>
		<path class="st65" d="M880.1,1096.1c0,0,3.4-8.4,15.9-10.7c12.6-2.3,66.1-12.3,68.9-17.7c0,0,5.2,10.1-6.2,12
			C947.3,1081.6,880.1,1096.1,880.1,1096.1z"/>
		<path class="st65" d="M960.2,1042.7l0.5,2.4c0,0-47.9,7.3-55.3,14.7c0,0-3.4,2.2-5,6.4c0,0,0.1-8.3,11-14.9
			C911.4,1051.4,921.7,1047.7,960.2,1042.7z"/>
		<path class="st64" d="M964.9,1067.7c0,0-1.2,1.6-4.8,2.6c-3.6,1-65.1,9.6-59.7-4c0,0,1.8-4.4,6.7-7.4c0,0-7.6,8.3,1.7,9.8
			C918.1,1070.1,952,1070.6,964.9,1067.7z"/>
		<path class="st66" d="M960.7,1045.1c0,0,2.4,15.9,4.2,22.5c0,0-30.4,4.5-56.1,1c0,0-9.2-2.5-1.7-9.8
			C914.7,1051.6,960.7,1045.1,960.7,1045.1z"/>
		<path class="st28" d="M929.1,995.2c0,0-6.2-0.5-15.5-0.8c-12-0.5-29.4-0.9-45.7,0c0,0-11.5,2.5-6,6.2c5.5,3.7,22.7,15.9,22.7,15.9
			l15.3,4.5c0,0,43.1-2.5,39.9-11.6C936.5,1000.1,929.1,995.2,929.1,995.2z"/>
		<path class="st67" d="M913.4,997.2c0,0,13,10.5,5.4,21.5c0,0,24-1.2,21-9.5c-4.1-10.9-10.6-14-10.6-14l-29.4-1.4
			C899.8,993.9,909.8,994.1,913.4,997.2z"/>
		<path class="st11" d="M742.4,984.8c0,0-83.3-31.3-130.9-36l13-8.9c0,0-62.5-7.9-145.9,11.8s-135.7,46.6-135.7,46.6l14.7,2.1
			l-86.7,61l-19.3,1.5l-61.8,27.2c0,0-2.8,14.2,1,16.4l1.9-4.6c0,0,27.8-2.5,40.3,10.9c12.5,13.5,20.1,22.9,20.1,22.9
			s5.9,6.9,14.8,7.1s51.6,3,51.6,3s26.6-33.8,75.6-18.5l12.3-6.8l-39.3-40.8c0,0-2.2-12.5,0-16s2.3-8.8,2.3-8.8s-35.5-5.5-25.6-16.3
			c9.9-10.8,53-41.5,53-41.5s87.9-27.4,106.5-30.6c18.6-3.1,105.6-9.9,142.1,0.2c36.4,10.1,68.3,18.7,82.7,25.1c0,0,2.5,3.7-0.3,5.5
			C728.7,997.3,740.1,994,742.4,984.8z"/>
		<path class="st68" d="M360.6,1000.5c48.8-22.3,55.8-21.9,122.2-40c66.3-18.1,128.7-11.7,128.7-11.7"/>
		<path class="st69" d="M270.9,1061.3c0,0-24.4,17.1-58.3,27.3l-18.9,6.3l-1.1,6.9"/>
		<g>
			<path class="st70" d="M193.7,1094.9l173.2-24.7c0,0-0.3-3.4,1.1-6.6c1.4-3.2,2.2-6.6,2.3-8.8l-118.6,17.9
				C251.8,1072.7,231.7,1083.9,193.7,1094.9z"/>
		</g>
		<g>
			<path class="st71" d="M426.6,976.5c0,0-27.7,14.1-28.8,20.6l-53,41.5l12.9,13.7l-85.7,9.9C272,1062.1,342.5,997,426.6,976.5z"/>
		</g>
		<path class="st64" d="M552.6,958.4c0,0,45.7-3.5,67.2-8.6c0,0,54.5,9,106.6,29.6c0,0,0.9,7-6.2,9.7l-73.9-22.3
			c0,0-27.4-8.2-72.3-5l-26.3,0.4L552.6,958.4z"/>
		<path class="st11" d="M713,1004.3c0,0-312.1,48.6-342.6,50.5c0,0-0.2,5.3-2.3,8.8c0,0-1.4,3.5-1.1,6.6l1.1,9.5l39.3,40.8
			l-12.3,6.8c0,0,38.5,15.7,36.9,58.5c0,0,1.6,1.3,12.9-1c11.3-2.3,315-62.2,315-62.2s-6.5,2.8-16.9-11.9l-2.2,0.2
			C740.7,1111,740.9,1041.6,713,1004.3z"/>
		<g>
			<path class="st70" d="M373.1,1069.8l348.3-51.5c0,0-3.5-7.8-8.4-14l-342.6,50.5c0,0,0.3,5-2.3,8.8c0,0-1.6,3.6-1.1,6.6
				L373.1,1069.8z"/>
		</g>
		<path class="st65" d="M407.2,1120.5l30.2,30.6c0,0,8.3,17.6,39.6,11.7c31.3-5.9,263.7-51.7,263.7-51.7l2.2-0.2
			c0,0,7.4,13,16.9,11.9l-315,62.2c0,0-9.6,2.5-12.9,1c0,0,3.4-39-36.9-58.5L407.2,1120.5z"/>
		<path class="st72" d="M552.9,1051.9c0,0-5.1,4.9,1.3,4.8c6.4-0.1,29.2-5.5,29.2-5.5s5.2-3.4-2.3-4.5L552.9,1051.9z"/>
		<path class="st72" d="M408.9,1076.4c0,0-5.1,4.9,1.3,4.8c6.4-0.1,29.2-5.5,29.2-5.5s5.2-3.4-2.3-4.5L408.9,1076.4z"/>
		<path class="st73" d="M577.3,1054.6c0,0-3.2,7.3-14.9,2.5"/>
		<path class="st74" d="M574.9,1046.4c0,0-7.5-5.6-14.4,2.5"/>
		<path class="st73" d="M432.9,1079.3c0,0-3.2,7.3-14.9,2.5"/>
		<path class="st74" d="M430.5,1071.1c0,0-7.5-5.6-14.4,2.5"/>
		<g>
			<path class="st71" d="M737,1069.5c0,0-2.5,26.2-22,29.5s-242.5,45.6-242.5,45.6s-29.5,7.3-51.9-10.8l16.9,17.1
				c0,0,7.1,17.4,39.6,11.7c32.5-5.7,263.7-51.7,263.7-51.7S740.7,1095.6,737,1069.5z"/>
		</g>
		<circle class="st14" cx="370.4" cy="1190" r="53.9"/>
		<g>
			<g>
				<path class="st54" d="M371,1227.4c-0.3,0-0.6,0-0.9,0c-19.2-0.5-34.5-16.5-34.1-35.7c0.5-18.8,16.1-34.1,34.9-34.1
					c0.3,0,0.6,0,0.9,0c19.2,0.5,34.5,16.5,34.1,35.7C405.4,1212.1,389.8,1227.4,371,1227.4z"/>
				<path class="st55" d="M371,1159.1c0.3,0,0.5,0,0.8,0c18.4,0.4,33,15.8,32.6,34.2c-0.4,18.2-15.3,32.6-33.4,32.6
					c-0.3,0-0.5,0-0.8,0c-18.4-0.4-33-15.8-32.6-34.2C338,1173.5,352.9,1159.1,371,1159.1 M371,1156.1L371,1156.1
					c-9.5,0-18.6,3.7-25.4,10.3c-6.9,6.7-10.8,15.6-11,25.2c-0.2,9.7,3.3,19,10,26c6.7,7,15.8,11,25.5,11.3c0.3,0,0.6,0,0.9,0
					c9.5,0,18.6-3.7,25.4-10.3c6.9-6.7,10.8-15.6,11-25.2c0.2-9.7-3.3-19-10-26c-6.7-7-15.8-11-25.5-11.3
					C371.6,1156.1,371.3,1156.1,371,1156.1L371,1156.1z"/>
			</g>
			<g>
				<path class="st56" d="M370.5,1211.9c-10.5-0.3-18.8-9-18.6-19.5c0.2-10.2,8.8-18.6,19-18.6c0.2,0,0.3,0,0.5,0
					c5.1,0.1,9.8,2.2,13.3,5.9c3.5,3.7,5.4,8.5,5.2,13.6c-0.2,10.2-8.8,18.6-19,18.6C370.8,1211.9,370.7,1211.9,370.5,1211.9z"/>
				<path class="st57" d="M371,1174.9L371,1174.9c0.1,0,0.3,0,0.4,0c9.9,0.2,17.8,8.5,17.6,18.5c-0.2,9.7-8.3,17.6-18,17.6
					c-0.1,0-0.3,0-0.4,0c-4.8-0.1-9.3-2.1-12.6-5.6c-3.3-3.5-5.1-8.1-5-12.9C353.2,1182.7,361.3,1174.9,371,1174.9 M371,1172.9
					c-10.8,0-19.8,8.7-20,19.5c-0.3,11.1,8.5,20.2,19.5,20.5c0.2,0,0.3,0,0.5,0c10.8,0,19.8-8.7,20-19.5
					c0.3-11.1-8.5-20.2-19.5-20.5C371.3,1172.9,371.1,1172.9,371,1172.9L371,1172.9z"/>
			</g>
			<circle class="st58" cx="371.3" cy="1192.9" r="6.7"/>
			<g>
				<path class="st59" d="M359.6,1171.5c-1.2,0-2.1-1-2.1-2.2c0-1.1,1-2.1,2.1-2.1c0.6,0,1.1,0.2,1.5,0.7c0.4,0.4,0.6,0.9,0.6,1.5
					C361.8,1170.6,360.8,1171.5,359.6,1171.5L359.6,1171.5z"/>
				<path class="st60" d="M359.7,1167.1l0,0.5c1,0,1.8,0.9,1.8,1.9c0,1-0.9,1.8-1.9,1.8c0,0,0,0,0,0c-1,0-1.8-0.9-1.8-1.9
					c0-1,0.9-1.8,1.9-1.8L359.7,1167.1 M359.7,1167.1c-1.3,0-2.3,1-2.4,2.3c0,1.3,1,2.4,2.3,2.4c0,0,0,0,0.1,0c1.3,0,2.3-1,2.4-2.3
					C362.1,1168.2,361.1,1167.1,359.7,1167.1C359.7,1167.1,359.7,1167.1,359.7,1167.1L359.7,1167.1z"/>
			</g>
			<g>
				<path class="st59" d="M373.6,1168.8c-1.2,0-2.1-1-2.1-2.2c0-1.1,1-2.1,2.1-2.1c0.6,0,1.1,0.2,1.5,0.7c0.4,0.4,0.6,0.9,0.6,1.5
					C375.8,1167.9,374.8,1168.8,373.6,1168.8L373.6,1168.8z"/>
				<g>
					<path class="st60" d="M373.7,1164.3l0,0.5c1,0,1.8,0.9,1.8,1.9c0,1-0.9,1.8-1.9,1.8c0,0,0,0,0,0c-1,0-1.8-0.9-1.8-1.9
						c0-1,0.9-1.8,1.9-1.8L373.7,1164.3 M373.7,1164.3c-1.3,0-2.3,1-2.4,2.3c0,1.3,1,2.4,2.3,2.4c0,0,0,0,0.1,0c1.3,0,2.3-1,2.4-2.3
						C376.1,1165.5,375,1164.4,373.7,1164.3C373.7,1164.3,373.7,1164.3,373.7,1164.3L373.7,1164.3z"/>
				</g>
			</g>
			<g>
				<path class="st61" d="M371.2,1182.2c-0.7,0-1.3-0.6-1.3-1.3c0-0.7,0.6-1.3,1.3-1.3c0.4,0,0.7,0.2,0.9,0.4
					c0.2,0.3,0.4,0.6,0.4,0.9C372.5,1181.6,371.9,1182.2,371.2,1182.2L371.2,1182.2z"/>
				<g>
					<path class="st62" d="M371.2,1179.3l0,0.5c0.6,0,1,0.5,1,1.1c0,0.6-0.5,1-1.1,1c0,0,0,0,0,0c-0.3,0-0.5-0.1-0.7-0.3
						c-0.2-0.2-0.3-0.5-0.3-0.8c0-0.6,0.5-1,1.1-1V1179.3 M371.2,1179.3c-0.8,0-1.5,0.7-1.6,1.5c0,0.9,0.7,1.6,1.5,1.6c0,0,0,0,0,0
						c0.8,0,1.5-0.7,1.6-1.5C372.8,1180,372.1,1179.3,371.2,1179.3C371.2,1179.3,371.2,1179.3,371.2,1179.3L371.2,1179.3z"/>
				</g>
			</g>
			<g>
				<path class="st61" d="M382.5,1194.1c-0.3,0-0.7-0.2-0.9-0.4c-0.2-0.3-0.4-0.6-0.4-0.9c0-0.7,0.6-1.3,1.3-1.3
					c0.4,0,0.7,0.2,0.9,0.4s0.4,0.6,0.4,0.9C383.8,1193.5,383.2,1194.1,382.5,1194.1L382.5,1194.1z"/>
				<g>
					<path class="st62" d="M382.5,1191.2l0,0.5c0.6,0,1,0.5,1,1.1c0,0.6-0.5,1-1.1,1c0,0,0,0,0,0c-0.6,0-1-0.5-1-1.1
						c0-0.6,0.5-1,1.1-1V1191.2 M382.5,1191.2c-0.8,0-1.5,0.7-1.6,1.5c0,0.9,0.7,1.6,1.5,1.6c0,0,0,0,0,0c0.8,0,1.5-0.7,1.6-1.5
						C384.1,1191.9,383.4,1191.2,382.5,1191.2C382.5,1191.2,382.5,1191.2,382.5,1191.2L382.5,1191.2z"/>
				</g>
			</g>
			<g>
				<path class="st61" d="M370.8,1205c-0.7,0-1.3-0.6-1.3-1.3c0-0.7,0.6-1.3,1.3-1.3c0.4,0,0.7,0.2,0.9,0.4c0.2,0.3,0.4,0.6,0.4,0.9
					C372.1,1204.4,371.5,1205,370.8,1205L370.8,1205z"/>
				<g>
					<path class="st62" d="M370.8,1202.1l0,0.5c0.6,0,1,0.5,1,1.1c0,0.6-0.5,1-1.1,1c0,0,0,0,0,0c-0.3,0-0.5-0.1-0.7-0.3
						c-0.2-0.2-0.3-0.5-0.3-0.8c0-0.6,0.5-1,1.1-1V1202.1 M370.8,1202.1c-0.8,0-1.5,0.7-1.6,1.5c0,0.9,0.7,1.6,1.5,1.6c0,0,0,0,0,0
						c0.8,0,1.5-0.7,1.6-1.5C372.4,1202.9,371.7,1202.2,370.8,1202.1C370.9,1202.1,370.8,1202.1,370.8,1202.1L370.8,1202.1z"/>
				</g>
			</g>
			<g>
				<path class="st61" d="M359.3,1194.2c-0.7,0-1.3-0.6-1.3-1.3c0-0.7,0.6-1.3,1.3-1.3c0.4,0,0.7,0.2,0.9,0.4
					c0.2,0.3,0.4,0.6,0.4,0.9C360.6,1193.6,360,1194.2,359.3,1194.2L359.3,1194.2z"/>
				<g>
					<path class="st62" d="M359.3,1191.3l0,0.5c0.3,0,0.5,0.1,0.7,0.3c0.2,0.2,0.3,0.5,0.3,0.8c0,0.6-0.5,1-1.1,1c0,0,0,0,0,0
						c-0.6,0-1-0.5-1-1.1c0-0.6,0.5-1,1.1-1L359.3,1191.3 M359.3,1191.3c-0.8,0-1.5,0.7-1.6,1.5c0,0.9,0.7,1.6,1.5,1.6c0,0,0,0,0,0
						c0.8,0,1.5-0.7,1.6-1.5C360.9,1192.1,360.2,1191.3,359.3,1191.3C359.4,1191.3,359.3,1191.3,359.3,1191.3L359.3,1191.3z"/>
				</g>
			</g>
			<g>
				<path class="st59" d="M387.8,1174.6c-0.6,0-1.1-0.2-1.5-0.7s-0.6-0.9-0.6-1.5c0-1.1,1-2.1,2.1-2.1c1.2,0,2.1,1,2.1,2.2
					C390,1173.7,389,1174.6,387.8,1174.6L387.8,1174.6z"/>
				<g>
					<path class="st60" d="M387.9,1170.1l0,0.5c1,0,1.8,0.9,1.8,1.9c0,1-0.9,1.8-1.9,1.8c0,0,0,0,0,0c-1,0-1.8-0.9-1.8-1.9
						c0-1,0.9-1.8,1.9-1.8L387.9,1170.1 M387.9,1170.1c-1.3,0-2.3,1-2.4,2.3c0,1.3,1,2.4,2.3,2.4c0,0,0,0,0.1,0c1.3,0,2.3-1,2.4-2.3
						C390.3,1171.3,389.2,1170.2,387.9,1170.1C387.9,1170.1,387.9,1170.1,387.9,1170.1L387.9,1170.1z"/>
				</g>
			</g>
			<g>
				<path class="st59" d="M395.2,1184.5c-1.2,0-2.1-1-2.1-2.2c0-1.1,1-2.1,2.1-2.1c0.6,0,1.1,0.2,1.5,0.7s0.6,0.9,0.6,1.5
					C397.3,1183.5,396.4,1184.5,395.2,1184.5L395.2,1184.5z"/>
				<g>
					<path class="st60" d="M395.2,1180l0,0.5c0.5,0,1,0.2,1.3,0.6s0.5,0.8,0.5,1.3c0,1-0.9,1.8-1.9,1.8c0,0,0,0,0,0
						c-1,0-1.8-0.9-1.8-1.9c0-1,0.9-1.8,1.9-1.8L395.2,1180 M395.2,1180c-1.3,0-2.3,1-2.4,2.3c0,1.3,1,2.4,2.3,2.4c0,0,0,0,0.1,0
						c1.3,0,2.3-1,2.4-2.3C397.6,1181.1,396.6,1180,395.2,1180C395.3,1180,395.2,1180,395.2,1180L395.2,1180z"/>
				</g>
			</g>
			<g>
				<path class="st59" d="M396.9,1197.2c-0.6,0-1.1-0.2-1.5-0.7c-0.4-0.4-0.6-0.9-0.6-1.5c0-1.1,1-2.1,2.1-2.1c1.2,0,2.1,1,2.1,2.2
					C399,1196.3,398,1197.2,396.9,1197.2L396.9,1197.2z"/>
				<g>
					<path class="st60" d="M396.9,1192.7l0,0.5c1,0,1.8,0.9,1.8,1.9c0,1-0.9,1.8-1.9,1.8c0,0,0,0,0,0c-1,0-1.8-0.9-1.8-1.9
						c0-1,0.9-1.8,1.9-1.8L396.9,1192.7 M396.9,1192.7c-1.3,0-2.3,1-2.4,2.3c0,1.3,1,2.4,2.3,2.4c0,0,0,0,0.1,0c1.3,0,2.3-1,2.4-2.3
						C399.3,1193.9,398.3,1192.8,396.9,1192.7C396.9,1192.7,396.9,1192.7,396.9,1192.7L396.9,1192.7z"/>
				</g>
			</g>
			<g>
				<path class="st59" d="M392.9,1208.9c-0.6,0-1.1-0.2-1.5-0.7c-0.4-0.4-0.6-0.9-0.6-1.5c0-1.1,1-2.1,2.1-2.1c1.2,0,2.1,1,2.1,2.2
					C395,1208,394.1,1208.9,392.9,1208.9L392.9,1208.9z"/>
				<g>
					<path class="st60" d="M392.9,1204.5l0,0.5c1,0,1.8,0.9,1.8,1.9c0,1-0.9,1.8-1.9,1.8c0,0,0,0,0,0c-1,0-1.8-0.9-1.8-1.9
						c0-1,0.9-1.8,1.9-1.8L392.9,1204.5 M392.9,1204.5c-1.3,0-2.3,1-2.4,2.3c0,1.3,1,2.4,2.3,2.4c0,0,0,0,0.1,0c1.3,0,2.3-1,2.4-2.3
						C395.3,1205.6,394.3,1204.5,392.9,1204.5C393,1204.5,392.9,1204.5,392.9,1204.5L392.9,1204.5z"/>
				</g>
			</g>
			<g>
				<path class="st59" d="M383.1,1217.8c-1.2,0-2.1-1-2.1-2.2c0-1.1,1-2.1,2.1-2.1c1.2,0,2.1,1,2.1,2.2
					C385.2,1216.9,384.3,1217.8,383.1,1217.8L383.1,1217.8z"/>
				<g>
					<path class="st60" d="M383.1,1213.3l0,0.5c1,0,1.8,0.9,1.8,1.9c0,1-0.9,1.8-1.9,1.8c0,0,0,0,0,0c-1,0-1.8-0.9-1.8-1.9
						c0-1,0.9-1.8,1.9-1.8V1213.3 M383.1,1213.3c-1.3,0-2.3,1-2.4,2.3c0,1.3,1,2.4,2.3,2.4c0,0,0,0,0.1,0c1.3,0,2.3-1,2.4-2.3
						C385.5,1214.4,384.5,1213.4,383.1,1213.3C383.2,1213.3,383.2,1213.3,383.1,1213.3L383.1,1213.3z"/>
				</g>
			</g>
			<g>
				<path class="st59" d="M370.5,1221.5c-1.2,0-2.1-1-2.1-2.2c0-1.1,1-2.1,2.1-2.1c0.6,0,1.1,0.2,1.5,0.7c0.4,0.4,0.6,0.9,0.6,1.5
					C372.6,1220.6,371.7,1221.5,370.5,1221.5L370.5,1221.5z"/>
				<g>
					<path class="st60" d="M370.5,1217l0,0.5c1,0,1.8,0.9,1.8,1.9c0,1-0.9,1.8-1.9,1.8c0,0,0,0,0,0c-1,0-1.8-0.9-1.8-1.9
						c0-1,0.9-1.8,1.9-1.8L370.5,1217 M370.5,1217c-1.3,0-2.3,1-2.4,2.3c0,1.3,1,2.4,2.3,2.4c0,0,0,0,0.1,0c1.3,0,2.3-1,2.4-2.3
						C372.9,1218.1,371.9,1217.1,370.5,1217C370.6,1217,370.6,1217,370.5,1217L370.5,1217z"/>
				</g>
			</g>
			<g>
				<path class="st59" d="M359.1,1218.7c-0.6,0-1.1-0.2-1.5-0.7c-0.4-0.4-0.6-0.9-0.6-1.5c0-1.1,1-2.1,2.1-2.1
					c0.6,0,1.1,0.2,1.5,0.7c0.4,0.4,0.6,0.9,0.6,1.5C361.2,1217.7,360.3,1218.7,359.1,1218.7L359.1,1218.7z"/>
				<g>
					<path class="st60" d="M359.1,1214.2l0,0.5c1,0,1.8,0.9,1.8,1.9c0,1-0.9,1.8-1.9,1.8c0,0,0,0,0,0c-0.5,0-1-0.2-1.3-0.6
						s-0.5-0.8-0.5-1.3c0-1,0.9-1.8,1.9-1.8L359.1,1214.2 M359.1,1214.2c-1.3,0-2.3,1-2.4,2.3c0,1.3,1,2.4,2.3,2.4c0,0,0,0,0.1,0
						c1.3,0,2.3-1,2.4-2.3C361.5,1215.3,360.5,1214.2,359.1,1214.2C359.2,1214.2,359.2,1214.2,359.1,1214.2L359.1,1214.2z"/>
				</g>
			</g>
			<g>
				<path class="st59" d="M349.8,1210.6c-1.2,0-2.1-1-2.1-2.2c0-1.1,1-2.1,2.1-2.1c0.6,0,1.1,0.2,1.5,0.7c0.4,0.4,0.6,0.9,0.6,1.5
					C352,1209.6,351,1210.6,349.8,1210.6L349.8,1210.6z"/>
				<g>
					<path class="st60" d="M349.9,1206.1l0,0.5c1,0,1.8,0.9,1.8,1.9c0,1-0.9,1.8-1.9,1.8c0,0,0,0,0,0c-0.5,0-1-0.2-1.3-0.6
						c-0.3-0.4-0.5-0.8-0.5-1.3c0-1,0.9-1.8,1.9-1.8L349.9,1206.1 M349.9,1206.1c-1.3,0-2.3,1-2.4,2.3c0,1.3,1,2.4,2.3,2.4
						c0,0,0,0,0.1,0c1.3,0,2.3-1,2.4-2.3C352.3,1207.2,351.2,1206.1,349.9,1206.1C349.9,1206.1,349.9,1206.1,349.9,1206.1
						L349.9,1206.1z"/>
				</g>
			</g>
			<g>
				<path class="st59" d="M344.8,1199.7c-1.2,0-2.1-1-2.1-2.2c0-1.1,1-2.1,2.1-2.1c0.6,0,1.1,0.2,1.5,0.7c0.4,0.4,0.6,0.9,0.6,1.5
					C346.9,1198.8,345.9,1199.7,344.8,1199.7L344.8,1199.7z"/>
				<g>
					<path class="st60" d="M344.8,1195.2l0,0.5c1,0,1.8,0.9,1.8,1.9c0,1-0.9,1.8-1.9,1.8c0,0,0,0,0,0c-1,0-1.8-0.9-1.8-1.9
						c0-1,0.9-1.8,1.9-1.8L344.8,1195.2 M344.8,1195.2c-1.3,0-2.3,1-2.4,2.3c0,1.3,1,2.4,2.3,2.4c0,0,0,0,0.1,0c1.3,0,2.3-1,2.4-2.3
						C347.2,1196.3,346.2,1195.2,344.8,1195.2C344.8,1195.2,344.8,1195.2,344.8,1195.2L344.8,1195.2z"/>
				</g>
			</g>
			<g>
				<path class="st59" d="M344.7,1188.9c-1.2,0-2.1-1-2.1-2.2c0-1.1,1-2.1,2.1-2.1c0.6,0,1.1,0.2,1.5,0.7s0.6,0.9,0.6,1.5
					C346.9,1187.9,345.9,1188.9,344.7,1188.9L344.7,1188.9z"/>
				<g>
					<path class="st60" d="M344.8,1184.4l0,0.5c1,0,1.8,0.9,1.8,1.9c0,1-0.9,1.8-1.9,1.8c0,0,0,0,0,0c-1,0-1.8-0.9-1.8-1.9
						c0-1,0.9-1.8,1.9-1.8L344.8,1184.4 M344.8,1184.4c-1.3,0-2.3,1-2.4,2.3c0,1.3,1,2.4,2.3,2.4c0,0,0,0,0.1,0c1.3,0,2.3-1,2.4-2.3
						C347.2,1185.5,346.2,1184.4,344.8,1184.4C344.8,1184.4,344.8,1184.4,344.8,1184.4L344.8,1184.4z"/>
				</g>
			</g>
			<g>
				<path class="st59" d="M349.4,1178.6c-0.6,0-1.1-0.2-1.5-0.7c-0.4-0.4-0.6-0.9-0.6-1.5c0-1.1,1-2.1,2.1-2.1
					c0.6,0,1.1,0.2,1.5,0.7c0.4,0.4,0.6,0.9,0.6,1.5C351.5,1177.7,350.6,1178.6,349.4,1178.6L349.4,1178.6z"/>
				<g>
					<path class="st60" d="M349.5,1174.1l0,0.5c1,0,1.8,0.9,1.8,1.9c0,1-0.9,1.8-1.9,1.8c0,0,0,0,0,0c-1,0-1.8-0.9-1.8-1.9
						c0-1,0.9-1.8,1.9-1.8L349.5,1174.1 M349.5,1174.1c-1.3,0-2.3,1-2.4,2.3c0,1.3,1,2.4,2.3,2.4c0,0,0,0,0.1,0c1.3,0,2.3-1,2.4-2.3
						C351.8,1175.2,350.8,1174.2,349.5,1174.1C349.5,1174.1,349.5,1174.1,349.5,1174.1L349.5,1174.1z"/>
				</g>
			</g>
		</g>
		<path class="st63" d="M416.9,1217.1c0,0,18.2-53.1-31.6-73.6c0,0-28.7-7-46.4,9.2c-17.8,16.1-19.7,38.7-17.8,58.3
			c0,0-4.9-6.2-4.6-22.3c0.3-16.1,11.3-51.7,55.2-52.6c0,0,50.3,0,52.6,55.2C424.3,1191.3,424.6,1205.5,416.9,1217.1z"/>
		<path class="st68" d="M534.5,1031.2c0,0,23.4,49.1,30.4,114.1"/>
		<g>
			<path class="st70" d="M223.8,1215.4c-31.8,0-34.9-42.4-35.1-46.1l9.4-7.1l-1.2-17.5l-0.1-1.9c3.4-0.1,23.6-0.5,37.1-2
				c5.3-0.6,9.1-2.4,11.3-5.4c1.7-2.4,2-4.9,2-6.5l3.9,4.1c5.2,8,16.3,9.9,16.7,10l50.5,3.3c-21.2,24.8-10.6,56.3-8.8,61
				c-5.8,0.8-50.9,6.5-84,8.1C225,1215.4,224.4,1215.4,223.8,1215.4C223.8,1215.4,223.8,1215.4,223.8,1215.4z"/>
			<g>
				<path class="st65" d="M247.7,1130.1l3,3.2c5.4,8.1,16.6,10.2,17.1,10.2l0.1,0l0.1,0l49.4,3.2c-11.4,13.8-13.1,29.4-12.5,40.2
					c0.6,9.7,3,17.1,4,20c-7.9,1-51.2,6.5-83.3,8c-0.6,0-1.2,0-1.8,0c-13.6,0-23.6-7.7-29.6-22.7c-4-10.1-4.8-20.2-5-22.6l9-6.8
					l0.4-0.3l0-0.5l-1.2-17.2l0-1.4c4.6-0.1,23.7-0.6,36.7-2c5.4-0.6,9.3-2.5,11.6-5.6C247.1,1133.7,247.6,1131.6,247.7,1130.1
					 M246.7,1127.5c0,0,2.2,11.1-12.7,12.8c-14.9,1.7-37.6,2-37.6,2l0.1,2.4l1.2,17.2l-9.4,7.1c0,0,1.7,46.8,35.6,46.8
					c0.6,0,1.2,0,1.8,0c35.7-1.7,84.6-8.2,84.6-8.2s-14.7-35,9.2-61.9l-51.4-3.3c0,0-11.3-1.9-16.5-9.9L246.7,1127.5L246.7,1127.5z"
					/>
			</g>
		</g>
		<path class="st11" d="M245.6,1162.5c0,0,28.6-2.1,29.9-18.4l43.1,2.7c0,0-17.4,17.3-12.2,44.6l-100.9,18.9
			c0,0-15.1-10.4-17.3-41.3l9.4-7.1C197.6,1161.9,216.1,1168.6,245.6,1162.5z"/>
		<path class="st65" d="M310.3,1207.7l-3.8-16.2l-100.9,18.9c0,0,8.2,6.1,20.1,5.5C237.5,1215.2,310.3,1207.7,310.3,1207.7z"/>
		<path class="st10" d="M611.5,949.8c0,0,29.1,2.6,66.1,13.5c37,10.9,59.4,19.9,59.4,19.9s3.5,2.4,9.7,0.8
			c6.2-1.7,15.1-4.2,15.1-4.2s-75-33.4-136.2-39.2c0,0-2.7-0.8-5.4,1C617.5,943.2,611.5,949.8,611.5,949.8z"/>
		<path d="M719.7,987.2c0,0,20.7,7.6,10.3,12.6l-16.2,5.2c0,0-7.3,1-15,1.7c-7.8,0.7-318.5,48.6-318.5,48.6s-17.5,2.4-29.4-3.1
			c-12-5.5-13-7.7-5.4-14.8c7.5-7.2,35.6-29.6,35.6-29.6s21.1-16.3,47.6-24.1c26.5-7.8,57.4-17.5,118.8-24.5S674,967.3,719.7,987.2z
			"/>
		<path class="st75" d="M517.6,966.8l25.8,59.8l132.1-19.7l-4.5-29.4c0,0,0.6-3-6.8-4.6C656.7,971.3,590.4,951.1,517.6,966.8z"/>
		<path class="st75" d="M502.2,970.1c0,0,10.2,37.4,20.5,59l-126.4,20l-7.2-21.8c0,0-1.7-20.4,17.6-30.3
			C430,984.9,502.2,970.1,502.2,970.1z"/>
		<path class="st76" d="M509.4,967.7c0,0,13.2,39.3,24.1,60.1"/>
		<path class="st77" d="M665.9,985l-0.4,15c0,0,2.4,6.1,13.3,4.9c10.9-1.1,23-6.4,23-6.4s5.9-4.9-0.7-8.8
			c-6.6-3.9-12.1-7.7-25.7-8.2C667.2,981.1,665.9,985,665.9,985z"/>
		<path class="st78" d="M517.6,966.8l25.8,59.8c0,0,46.3-52.1,127.9-44.9l-0.3-4.3c0,0,0.6-2.6-6.8-4.6
			C656.8,970.9,584.3,951.3,517.6,966.8z"/>
		<path class="st9" d="M611.5,949.8c0,0,82.4,4.4,150.3,29.9c0,0-71.4-32.6-136.2-39.2c0,0-3.3-1-6.7,2.2
			C615.4,945.9,611.5,949.8,611.5,949.8z"/>
		<path class="st79" d="M342.2,998.4l18.6,1.3c0,0-49.5,35.2-87.2,62l-22.5,1.2C251.2,1063,297.8,1024.8,342.2,998.4z"/>
		<path class="st28" d="M187.9,1102.1l26.7,0.3c0,0,7.1-1.3,16.4,8.1c9.3,9.4,14.6,15.6,14.6,15.6s5,9.3-4.6,13.1s-45.5,5-45.5,5
			S190,1142.3,187.9,1102.1z"/>
		<path class="st67" d="M194,1118.2c0,0,36.6-0.8,40.5-4.4c0,0-8.5-11.7-19.9-12c-11.5-0.3-26.8-0.3-26.8-0.3l1.6,16.4
			C189.3,1117.9,191.1,1118.2,194,1118.2z"/>
		<path class="st67" d="M244,1124.2c0,0-7.3,14.1-52.7,8.9c0,0,1.7,9.8,4.2,11.1c0,0,33.2-0.4,44.6-4.1
			C240.1,1140.2,253.9,1134.8,244,1124.2z"/>
		<path class="st80" d="M251.2,1063c0,0,57.7-45,85.7-46.3l26.4-16.6l-21.1-1.6C342.2,998.4,302.8,1020.4,251.2,1063z"/>
		<path class="st78" d="M505.4,981.5c0,0-91.9,19.4-92.1,65.1l-17,2.5l-7.2-21.8c0,0-5.7-18,17.1-30.4c25.1-13.7,96-26.8,96-26.8
			L505.4,981.5z"/>
		<g>
			<path class="st71" d="M721.4,1018.3c0,0,80.3-15.6,140.5-17.8l22.7,15.9l15.3,4.5l-27.5,5.1c0,0-6.3-11.2-29.9-10.9
				c-23.6,0.3-52.9,6.8-91.2,25.5c0,0-7.5,2.8-7.5,27.2s-0.9,42.8-0.9,42.8l-2.2,0.2C740.7,1111,739.6,1056.9,721.4,1018.3z"/>
		</g>
		<path class="st81" d="M747.1,1020.5l-9.2,2c0,0-1.1,0.5-0.7,4.1s0.9,4.2,4.9,3.2c4.1-1,7.9-1.9,7.9-1.9s3,0.4,1-5.8
			C751.2,1022.2,751.7,1018.5,747.1,1020.5z"/>
		<path class="st82" d="M273.6,1061.8c0,0-22.1,14.8-79.9,33.1l0.4,6.4"/>
		<path class="st82" d="M370.4,1054.8c0,0,0.5,5.4-2.3,8.8c0,0-1.7,3.3-1.1,6.6c0.6,3.3,0.7,7.8,1.1,9.5l39.3,40.8"/>
		<path class="st68" d="M713.8,1005c0,0,6.6,9.6,7.6,13.3s11.3,19.7,15.6,51.2s5.9,41.3,5.9,41.3"/>
		<path class="st82" d="M940.2,1010.9c0,0-1.2,6.5-20.7,7.8c-19.4,1.4-64.4,11-81.9,15.7"/>
	</g>
</g>
<g id="nineteen_00000107558268356232088990000008456042227242415802_">
</g>
<g id="twenty">
</g>
</svg>
