<?xml version="1.0" encoding="utf-8"?>
<!-- Generator: Adobe Illustrator 27.2.0, SVG Export Plug-In . SVG Version: 6.00 Build 0)  -->
<svg version="1.1" xmlns="http://www.w3.org/2000/svg" xmlns:xlink="http://www.w3.org/1999/xlink" x="0px" y="0px"
	 viewBox="0 0 2250.5 1926.5" style="enable-background:new 0 0 2250.5 1926.5;" xml:space="preserve">
<style type="text/css">
	.st0{fill:#E8E6E6;stroke:#ADADAD;stroke-miterlimit:10;}
	.st1{fill:#F3F2F7;}
	.st2{fill:#030303;}
	.st3{fill:#353131;}
	.st4{fill:none;stroke:#ADADAD;stroke-width:2;stroke-miterlimit:10;}
	.st5{fill:none;stroke:#F3F2F7;stroke-width:2;stroke-miterlimit:10;}
	.st6{fill:#0A1205;}
	.st7{fill:#F3F2F7;stroke:#ADADAD;stroke-width:0.75;stroke-miterlimit:10;}
	.st8{fill:#ADADAD;}
	.st9{fill:#282828;}
	.st10{fill:#3A3A3A;}
	.st11{fill:#0A54A2;}
	.st12{fill:none;stroke:#E8E6E6;stroke-width:0.9742;stroke-miterlimit:10;}
	.st13{fill:#2E2E2E;}
	.st14{fill:#333333;}
	.st15{fill:#939393;stroke:#ADADAD;stroke-miterlimit:10;}
	.st16{fill:#D1D1D1;}
	.st17{fill:#191919;}
	.st18{fill:#666666;stroke:#ADADAD;stroke-miterlimit:10;}
	.st19{fill:#363636;}
	.st20{fill:none;stroke:#ADADAD;stroke-miterlimit:10;}
	.st21{fill:#121212;}
	.st22{fill:#0E0A12;}
	.st23{fill:#6E6E6E;}
	.st24{fill:#4E4E4E;}
	.st25{fill:#1E1E1E;}
	.st26{fill:#646464;}
	.st27{fill:#999999;}
	.st28{fill:#9E9E9E;}
	.st29{fill:#6D6D6D;}
	.st30{fill:#B5B5B5;}
	.st31{fill:#3E3E3E;}
	.st32{fill:#0D0F0C;}
	.st33{fill:none;stroke:#0E0A12;stroke-width:0.8371;stroke-miterlimit:10;}
	.st34{fill:#7D7D7D;}
	.st35{fill:#424242;}
	.st36{fill:#8A8A8A;}
	.st37{fill:#BCBCBC;stroke:#ADADAD;stroke-miterlimit:10;}
	.st38{fill:#8A8A8A;stroke:#6B6B6B;stroke-width:0.9619;stroke-miterlimit:10;}
	.st39{fill:none;stroke:#6B6B6B;stroke-width:0.7215;stroke-miterlimit:10;}
	.st40{fill:none;stroke:#A9A9AA;stroke-width:0.75;stroke-miterlimit:10;}
	.st41{fill:#484D4E;}
	.st42{fill:none;stroke:#111111;stroke-width:3;stroke-miterlimit:10;}
	.st43{fill:#282828;stroke:#0A0A0A;stroke-miterlimit:10;}
	.st44{fill:#F0221F;stroke:#BB1719;stroke-miterlimit:10;}
	.st45{fill:#BB1719;}
	.st46{fill:#FC7C88;stroke:#BB1719;stroke-miterlimit:10;}
	.st47{fill:none;stroke:#BB1719;stroke-width:3;stroke-miterlimit:10;}
	.st48{fill:#FC7C88;}
	.st49{fill:#FC7C88;stroke:#BB1719;stroke-width:3;stroke-miterlimit:10;}
	.st50{fill:#F0221F;}
	.st51{fill:#E8E6E6;stroke:#ADADAD;stroke-width:2;stroke-miterlimit:10;}
	.st52{opacity:0.59;fill:#F3F2F7;}
	.st53{fill:#080806;}
	.st54{fill:#9B9B9B;}
	.st55{fill:#2B2B2B;}
	.st56{fill:#C1BFBF;}
	.st57{fill:#D6D6D6;}
	.st58{fill:#4C4B4B;stroke:#A5A5A5;stroke-miterlimit:10;}
	.st59{fill:#444343;}
	.st60{fill:#727272;}
	.st61{fill:#A0A0A0;}
	.st62{fill:#999898;}
	.st63{fill:#444242;}
	.st64{fill:#157FCE;}
	.st65{fill:#134468;}
	.st66{fill:#092947;}
	.st67{fill:#D5D3D7;}
	.st68{fill:none;stroke:#134468;stroke-miterlimit:10;}
	.st69{fill:none;stroke:#0F63AD;stroke-miterlimit:10;}
	.st70{fill:#1672B7;}
	.st71{fill:#2066A0;}
	.st72{fill:#1B8ACE;}
	.st73{fill:none;stroke:#157FCE;stroke-miterlimit:10;}
	.st74{fill:none;stroke:#0A54A2;stroke-miterlimit:10;}
	.st75{fill:#3F3F3F;}
	.st76{fill:none;stroke:#282828;stroke-width:2;stroke-miterlimit:10;}
	.st77{fill:#7F7F7F;}
	.st78{fill:#2D2D2D;}
	.st79{fill:#4C4C4C;}
	.st80{fill:#383838;}
	.st81{fill:#9E9E9E;stroke:#0A55A3;stroke-miterlimit:10;}
	.st82{fill:none;stroke:#134468;stroke-width:0.75;stroke-miterlimit:10;}
	.st83{display:none;fill:#24242A;}
	.st84{display:none;fill:none;stroke:#848484;stroke-miterlimit:10;}
	.st85{display:none;fill:#30292D;}
	.st86{fill:#E8E6E6;}
	.st87{fill:#8C8C8C;}
	.st88{fill:#FCFCFC;stroke:#8C8C8C;stroke-miterlimit:10;}
	.st89{fill:#E8E6E6;stroke:#8C8C8C;stroke-miterlimit:10;}
	.st90{fill:#E8E6E6;stroke:#8C8C8C;stroke-width:2;stroke-miterlimit:10;}
	.st91{fill:none;stroke:#8C8C8C;stroke-width:2;stroke-miterlimit:10;}
	.st92{fill:none;stroke:#FCFCFC;stroke-width:3;stroke-miterlimit:10;}
	.st93{fill:#FCFCFC;}
	.st94{fill:#ADADAD;stroke:#8C8C8C;stroke-miterlimit:10;}
	.st95{fill:#FAFAFC;stroke:#ADADAD;stroke-width:0.75;stroke-miterlimit:10;}
	.st96{fill:none;stroke:#111111;stroke-width:3.6024;stroke-miterlimit:10;}
	.st97{fill:none;stroke:#111111;stroke-width:3.6093;stroke-miterlimit:10;}
	.st98{fill:none;stroke:#111111;stroke-width:3.5727;stroke-miterlimit:10;}
	.st99{fill:none;stroke:#111111;stroke-width:3.5263;stroke-miterlimit:10;}
	.st100{fill:none;stroke:#111111;stroke-width:3.4845;stroke-miterlimit:10;}
	.st101{fill:none;stroke:#111111;stroke-width:3.4337;stroke-miterlimit:10;}
	.st102{fill:none;stroke:#111111;stroke-width:3.3788;stroke-miterlimit:10;}
	.st103{fill:none;stroke:#111111;stroke-width:3.3233;stroke-miterlimit:10;}
	.st104{fill:none;stroke:#111111;stroke-width:3.2747;stroke-miterlimit:10;}
	.st105{fill:none;stroke:#111111;stroke-width:3.207;stroke-miterlimit:10;}
	.st106{fill:none;stroke:#111111;stroke-width:3.1652;stroke-miterlimit:10;}
	.st107{fill:none;stroke:#111111;stroke-width:3.099;stroke-miterlimit:10;}
	.st108{fill:none;stroke:#111111;stroke-width:3.0584;stroke-miterlimit:10;}
	.st109{fill:none;stroke:#111111;stroke-width:3.0299;stroke-miterlimit:10;}
</style>
<g id="original">
</g>
<g id="one">
</g>
<g id="two_00000026882943921159275490000004360688784792002186_">
</g>
<g id="three_00000113338737259881679640000015971704404683786636_">
</g>
<g id="four_00000049184186550712051260000002601905804867817144_">
</g>
<g id="five_00000179643197332058435300000007386453149388464260_">
</g>
<g id="six">
</g>
<g id="seven_00000062194613864970919320000012156796603096136882_">
</g>
<g id="eight">
</g>
<g id="nine">
</g>
<g id="ten_00000098906372602984753350000010503549982832515468_">
</g>
<g id="eleven_00000180345820641820120410000009044592103142380464_">
	<g>
		<path class="st86" d="M1971.8,828.7c-0.9-1.5-5.8-8.5-17.3-9.1c-12.1-0.7-193.8-3.9-204.5-4.1c0-2.4,0.1-13.1,5.3-18.6
			c2.1-2.2,4.8-3.3,8-3.3c14.8,0,186.9,6.1,188.6,6.1c0.3,0,31.7,2.1,37.6,28.6L1971.8,828.7z"/>
		<path class="st87" d="M1763.3,794c14.8,0,186.9,6.1,188.6,6.1c0.1,0,8.1,0.5,16.7,4.3c11,4.9,17.8,12.7,20.3,23.3l-16.8,0.4
			c-1.3-2-6.3-8.5-17.5-9.1c-11.9-0.6-189.3-3.8-204.1-4.1c0-3,0.4-12.7,5.2-17.8C1757.7,795.1,1760.2,794,1763.3,794 M1763.3,793
			c-15,0-13.9,23-13.9,23s192.5,3.4,205,4.1c12.5,0.7,17,9.1,17,9.1l18.6-0.5c-5.7-27.7-38.2-29.5-38.2-29.5S1778.3,793,1763.3,793
			L1763.3,793z"/>
	</g>
	<path class="st88" d="M1954.3,806.6l-141.9-6.1l21.4,8l117.6,4.2c0,0,16.5-0.2,25.8,15.2h5.2C1982.4,828,1977.2,807.8,1954.3,806.6
		z"/>
	<path class="st89" d="M1749.5,816l-0.5,12l201,1.9c0,0,11,0,13.4,13.4c2.4,13.4,21.5,113,21.5,113l0.8,128.3l32.7-0.8
		c0,0,9.4,1.1,9.4-8.3c0-9.4,0-44.6,0-44.6s0.5-5.9-5.4-8.1v-45.6h-16c0,0-10.2,0.8-11.3-15.9c-1.2-16.8-22-124.3-22-124.3
		s-1.5-2.4-1.7-7.8c0,0-5.8-8.8-17-9.1C1943.2,819.7,1749.5,816,1749.5,816z"/>
	<path class="st2" d="M1990.1,828.7l25.2,136.1l-22.6-21.3L1973.2,837c0,0-1.8-3.5-1.7-7.8L1990.1,828.7z"/>
	<path class="st2" d="M2018.1,951.3c0,0,5.4,9.2,3.2,17.8h-3l0.8,7.9l-12.5,0.2c0,0-10.3,0.4-11.3-15.9l-2.4-17.8l22.6,21.3
		c0,0,5.4-5.7-0.4-13.3c0,0-2.1-1.9-4.6,0.3c-2.5,2.2-3.9-1.7,0-3.6S2018.1,951.3,2018.1,951.3z"/>
	<polygon class="st3" points="1977.4,829.2 2005.3,913.3 1990.1,828.7 	"/>
	<path class="st90" d="M1749,828c0,0-5.4,110.4-4.1,200.8l240.1-0.9l-0.1-71.6l-21.5-113c0,0-1.7-13.4-13.4-13.4
		C1938.3,829.9,1749,828,1749,828z"/>
	<path class="st91" d="M1766.6,898.5l-0.3-47.2c0,0-0.6-8.8,12.4-9.1c13-0.3,24.8,0,24.8,0s9.1-2.1,9.1,11.8s-0.3,45.7-0.3,45.7"/>
	<path class="st92" d="M1765.7,909.4l-0.3,31.6c0,0-1.5,7.4,7.4,7.4c8.8,0,33.9,0,33.9,0s5,2.7,5-6.2s0-26,0-26"/>
	<path class="st91" d="M1764.8,979l0.3,33.6c0,0-0.9,5.3,5.3,5.3c6.2,0,39.5-0.3,39.5-0.3s4.7,1.8,4.4-6.2c-0.3-8-0.6-33-0.6-33
		s0.6-6.2-6.2-6.2c-6.8,0-38.3,0.6-38.3,0.6S1764.8,972.3,1764.8,979z"/>
	<line class="st91" x1="1826.7" y1="828.6" x2="1826.7" y2="1028"/>
	<polygon class="st6" points="1833.2,976.7 1833.5,995 1853.5,994.7 1853.5,976.7 	"/>
	<path class="st93" d="M1834.1,1001.4c0,0-1.2,10,14.2,9.7c15.3-0.3,115.3,0,115.3,0l-48.4-5.9h-66.9c0,0,0.3-3.8-4.1-4.1
		C1839.7,1000.9,1834.1,1001.4,1834.1,1001.4z"/>
	<path class="st87" d="M1837,842.2l4.7,67.2l-0.3-62.8c0,0-2.1-6.8,13.6-6.5c15.6,0.3,89.9,0.6,89.9,0.6s7.1-1.8,9.4,17.1
		c2.4,18.9,4.7,36.9,4.7,36.9l-2.1-45.7c0,0,0.7-11.8-13.6-11.6c-14.3,0.2-97.4-0.8-97.4-0.8S1838,836.3,1837,842.2z"/>
	<path class="st93" d="M1962,912.4l7.6,32.9c0,0,2.6,12.9-9.2,13.4c-11.8,0.5-111.3-5.3-111.3-5.3s-9.5-2.6-10-11.3
		s-0.3-27.4-0.3-27.4l2.6,25.5c0,0,0.3,8.4,7.9,9.5s109.2,6.1,109.2,6.1s11.1,2.9,7.4-19.2S1962,912.4,1962,912.4z"/>
	<path class="st9" d="M1841.7,914.8l-0.3,25.5c0,0,0.1,8.6,7.9,9.5c7.8,0.8,109.2,6.1,109.2,6.1s10.8,2.4,7.4-19.2
		s-12.8-85.5-12.8-85.5s-1.2-10-8.1-10.4c-6.9-0.3-95.2-1-95.2-1s-8.7-1.3-8.7,5.9C1841,852.9,1841.7,914.8,1841.7,914.8z"/>
	<polygon class="st2" points="1933,831 1933,837.9 1950.2,838.4 1949.9,831 	"/>
	<path class="st10" d="M1841.3,864.2c0,0,96.3,16.1,107.9,91.5l9.3,0.1c0,0,10.8,1.4,7.4-19.2c-3.5-20.6-12.8-85.5-12.8-85.5
		s-1.4-10.2-8.1-10.4s-95.2-1-95.2-1s-8.6-0.9-8.7,5.9C1841,852.5,1841.3,864.2,1841.3,864.2z"/>
	<polygon class="st2" points="1939.7,837.2 1939.8,848.3 1943.3,848.2 1943.5,837.4 	"/>
	<path class="st2" d="M1935.5,848.4l0.7,93.5h7.2c0,0,6.1-6.3,6.1-15.6l-0.2-66c0,0-1.4-10.9-5.9-12.1L1935.5,848.4z"/>
	<polygon class="st2" points="1939.3,970.7 1939.3,941.5 1943.5,941.8 1943.5,970.1 	"/>
	<polygon class="st2" points="1946.9,969.8 1950.6,969.9 1950.6,976.3 1931.8,976.3 1931.8,969.9 	"/>
	<path class="st11" d="M1818.6,772.1l17.4,0.2v18.3c0,0-4.6,1.4-19.2,0v-18.5L1818.6,772.1z"/>
	<path class="st87" d="M1838.9,789.9l0.1,6l-24.3-0.5v-5.9C1814.8,789.5,1823.8,792.4,1838.9,789.9z"/>
	<path class="st0" d="M1744.9,1028.8l0.4,26.2H1851c0,0,49,1.9,59.1,28.8l75.7,0.9l-0.7-56.7L1744.9,1028.8z"/>
	<path class="st89" d="M1744.9,1028.8l0.4,26.2H1851c0,0,49,1.9,59.1,28.8l75.7,0.9l-0.7-56.7L1744.9,1028.8z"/>
	<polygon class="st6" points="1982.4,1048.4 1960.6,1027.8 1979,1027.9 1985,1033.9 1985,1051.3 	"/>
	<path class="st6" d="M1945.1,1028.4l27.3,26.4h-18l-26.2-26.2C1928.1,1028.6,1945.1,1028.4,1945.1,1028.4z"/>
	<path class="st6" d="M1911.8,1028.6l26.6,26.6h-17.6l-26.5-26.5C1894.3,1028.8,1911.7,1028.7,1911.8,1028.6z"/>
	<path class="st6" d="M1879.6,1028.6l26.6,26.6h-17.6l-26.5-26.5C1862.1,1028.8,1879.5,1028.7,1879.6,1028.6z"/>
	<path class="st6" d="M1845.8,1028.6l26.6,26.6h-17.6l-26.5-26.5C1828.3,1028.8,1845.8,1028.7,1845.8,1028.6z"/>
	<path class="st6" d="M1812.4,1028.6l26.6,25.8h-17.6l-26.5-25.7C1794.9,1028.8,1812.4,1028.7,1812.4,1028.6z"/>
	<path class="st6" d="M1778.7,1029.1l26.6,25.3h-17.6l-26.5-25.1C1761.2,1029.3,1778.6,1029.2,1778.7,1029.1z"/>
	<path class="st6" d="M1744.9,1028.8l25.9,25.9h-16.4l-8.7-8.7l-0.7-0.7C1745.1,1045.3,1744.9,1028.6,1744.9,1028.8z"/>
	<path class="st94" d="M2022.5,1022.9h-26.9l8,8l24.3,0C2027.9,1030.9,2028.9,1025.3,2022.5,1022.9z"/>
	<path class="st94" d="M1985,1027.9c0,0,5.7,1.4,6,6.4v41.2l36.9-0.1c0,0,1.1,8.3-9.4,8.3c-10.5,0-32.7,0.8-32.7,0.8L1985,1027.9z"
		/>
	<polygon class="st13" points="1934.9,1180.6 1985.4,1180.5 1985.4,1084.6 1910.1,1083.7 	"/>
	<polygon class="st0" points="1930,1112.7 1985.6,1112.7 1985.6,1117.8 1930.1,1117.8 	"/>
	<path class="st0" d="M1985.3,1144.9h-51.9v3.9h52.2C1985.6,1148.8,1985.3,1144.2,1985.3,1144.9z"/>
	<path class="st0" d="M1933.9,1175.6h51.2v4.4h-51.7C1933.4,1180,1934.3,1175.2,1933.9,1175.6z"/>
	<path class="st2" d="M1916.2,1142.9l-15.1,13.3c0,0-33.2-69.2-81.4-59.5c-48.3,9.7-70.3,61.6-70.3,61.6l-16.6-15.5l21.3-64.5
		l78.6-5.4l64.1,7.6l18,45.8L1916.2,1142.9z"/>
	<circle class="st14" cx="1825.2" cy="1172.2" r="78.7"/>
	<circle class="st15" cx="1825.5" cy="1170.1" r="48.8"/>
	<circle class="st12" cx="1825.5" cy="1170.1" r="48.8"/>
	<circle class="st16" cx="1825.2" cy="1169.5" r="42.8"/>
	<circle class="st17" cx="1825.8" cy="1170.6" r="18.4"/>
	<circle class="st18" cx="1813.7" cy="1149.5" r="2.5"/>
	<circle class="st18" cx="1825.7" cy="1146.5" r="2.5"/>
	<circle class="st18" cx="1838" cy="1150.2" r="2.5"/>
	<circle class="st18" cx="1846.4" cy="1158.4" r="2.5"/>
	<circle class="st18" cx="1849.1" cy="1170.8" r="2.5"/>
	<circle class="st18" cx="1846.6" cy="1182.7" r="2.5"/>
	<circle class="st18" cx="1838" cy="1191.4" r="2.5"/>
	<circle class="st18" cx="1826" cy="1194.5" r="2.5"/>
	<circle class="st18" cx="1812.9" cy="1190.9" r="2.5"/>
	<circle class="st18" cx="1804.8" cy="1182.4" r="2.5"/>
	<circle class="st18" cx="1801.7" cy="1170.4" r="2.5"/>
	<circle class="st18" cx="1804.5" cy="1158" r="2.5"/>
	<path class="st19" d="M1800.8,1134.6c0,0,4,14.9-10.7,11.3C1790.1,1145.9,1792.3,1139.7,1800.8,1134.6z"/>
	<path class="st19" d="M1817.3,1127.6c0,0,6.4,12,17.4,0.5C1834.7,1128.1,1826.9,1125.1,1817.3,1127.6z"/>
	<path class="st19" d="M1849.3,1134.6c0,0-3.1,14.6,11.7,11.7C1860.9,1146.2,1856.4,1137.9,1849.3,1134.6z"/>
	<path class="st19" d="M1867,1161.8c0,0-9.2,9.9-0.5,17.9C1866.5,1179.6,1869.6,1172.2,1867,1161.8z"/>
	<path class="st19" d="M1849.9,1204.5c0,0-0.9-11.3,10.3-10.7C1860.1,1193.8,1856.9,1199.7,1849.9,1204.5z"/>
	<path class="st19" d="M1833.4,1211.2c0,0-7.1-9.9-16.6,0.2C1816.8,1211.3,1823.9,1213.8,1833.4,1211.2z"/>
	<path class="st19" d="M1790.1,1193.8c0,0,12.1-1.7,11,10.7C1801.1,1204.5,1795.5,1201.5,1790.1,1193.8z"/>
	<path class="st19" d="M1783.2,1161.3c0,0,10.4,8.4,0.5,18.3C1783.7,1179.6,1781.2,1172.8,1783.2,1161.3z"/>
	<path d="M1899.4,1145.5c0,0,23.1,81.5-72,102.5c0,0-87.4-4.1-76.9-102c0,0-20.5,55.5,31,92c0,0,20.3,14.8,47,13
		c26.7-1.8,52.7-13.7,68.6-46.2C1906.4,1179.4,1905.4,1169.3,1899.4,1145.5z"/>
	<path class="st20" d="M1744.9,1028.8l0.4,26.2H1851c0,0,49,1.9,59.1,28.8l75.7,0.9l-0.7-56.7L1744.9,1028.8z"/>
	<circle class="st20" cx="1825.2" cy="1169.5" r="42.8"/>
	<path class="st0" d="M2012.1,1084l0.4,13.4c0,0,15.7,4.2,15.9,14.8v65c0,0,1.1,6.7-6.7,6.7c-7.8,0-36.3,0-36.3,0l0.3-99.2
		L2012.1,1084z"/>
	<path class="st95" d="M2018.1,1114.2v24c0,0-0.4,4.7,4.3,4.7c4.7,0,6.1,0,6.1,0l-0.2-30.7C2028.3,1112.2,2021.5,1110,2018.1,1114.2
		z"/>
	<path class="st95" d="M2028.4,1154.9c0,0-11.2-1.8-10.8,6.5c0.3,8.2,9.2,6.7,10.8,6.4V1154.9z"/>
	<path class="st94" d="M2027.1,1107.8c0,0-13.6-6.4-32.8-2.9l-0.7,74c0,0,29.9,4.5,34.7-1.8c0,0,1.8,6.5-6.7,6.7
		c-8.5,0.1-36.3,0-36.3,0l0.3-99.2l26.4-0.6l0.4,13.4C2012.5,1097.4,2025.1,1101.5,2027.1,1107.8z"/>
	<polygon class="st21" points="1013.4,1076.7 1013.4,1130.6 1195.9,1169.4 1237.4,1145.8 1599.7,1145.8 1741.4,1146.5 1754,1078.3 	
		"/>
	<circle class="st22" cx="1620.7" cy="1142.9" r="22.5"/>
	<circle class="st22" cx="1670" cy="1142.9" r="22.5"/>
	<path class="st23" d="M1634.9,1126c0,0-15-5.6-25.6,4.2c-10.6,9.8-10,20.6-10,20.6s-4.6-16.6,7.9-25.8S1633.3,1122.9,1634.9,1126z"
		/>
	<path class="st23" d="M1684,1126c0,0-15-5.6-25.6,4.2c-10.6,9.8-10,20.6-10,20.6s-4.6-16.6,7.9-25.8S1682.5,1122.9,1684,1126z"/>
	<path class="st24" d="M1392.5,1104.1v73.5h200.8v-73.8C1593.3,1103.8,1391.5,1104.1,1392.5,1104.1z"/>
	<path class="st25" d="M1543.6,1096.6v11.2h10.7v-11.2C1554.3,1096.6,1543.3,1096.6,1543.6,1096.6z"/>
	<polygon class="st26" points="1550.1,1101.2 1550.1,1107.8 1554.3,1107.8 1554.3,1096.6 1550,1096.6 	"/>
	<polygon class="st27" points="1398.3,1104.5 1398.3,1177.8 1392.5,1177.8 1392.5,1104.1 1398.3,1104.1 	"/>
	<path class="st28" d="M1418.3,1100.5v77.9h7.3v-77.8C1425.6,1100.6,1418.8,1100.5,1418.3,1100.5z"/>
	<path class="st28" d="M1491.2,1100.4v77.5h7.9v-77.5C1499.1,1100.4,1491.2,1100,1491.2,1100.4z"/>
	<path class="st28" d="M1564,1100.1v78.5h7.8v-78v-0.5C1571.8,1100,1563.8,1100.1,1564,1100.1z"/>
	<path class="st28" d="M1588.9,1103.8v73.6h4.3v-73.6C1593.3,1103.8,1588.9,1104.1,1588.9,1103.8z"/>
	<path class="st29" d="M1398.4,1120.1h19.8v5h-19.8C1398.4,1125.1,1398.2,1119.9,1398.4,1120.1z"/>
	<path class="st29" d="M1572,1120.1h16.7v5H1572C1572,1125.1,1571.8,1119.9,1572,1120.1z"/>
	<path class="st29" d="M1425.9,1120.1h64.9v5h-64.9C1425.9,1125.1,1425.3,1119.9,1425.9,1120.1z"/>
	<path class="st29" d="M1499.5,1120.1h64.5v5h-64.5C1499.5,1125.1,1498.9,1119.9,1499.5,1120.1z"/>
	<path class="st30" d="M1392.5,1120.1h5.9v4.9h-5.8C1392.6,1125.1,1392.5,1120,1392.5,1120.1z"/>
	<path class="st30" d="M1418.3,1120.1h7.3v5.8h-7.3C1418.3,1125.8,1418.3,1120.1,1418.3,1120.1z"/>
	<path class="st30" d="M1491.2,1120.1h7.9v5.8h-7.9C1491.2,1125.8,1491.1,1120.1,1491.2,1120.1z"/>
	<path class="st30" d="M1563.9,1120.1h8v5.8h-8C1563.9,1125.8,1563.8,1120.1,1563.9,1120.1z"/>
	<path class="st30" d="M1588.7,1120.3h4.5v4.9h-4.4C1588.8,1125.2,1588.7,1120.2,1588.7,1120.3z"/>
	<path class="st31" d="M1241.9,1154.1v-37.6c0,0,0.7-6.3,15.2-6.3c14.5,0,121.1,0,121.1,0s7.9-1,7.9,9.6s0,50.8,0,50.8
		s1.3,7.3-14.2,7.3s-121.8,0-121.8,0s-8.3,0.7-8.3-8.6S1241.9,1154.1,1241.9,1154.1z"/>
	<path class="st32" d="M1310.5,1138.9v12.2h8.8v-12.4C1319.3,1138.7,1310.4,1138.8,1310.5,1138.9z"/>
	<line class="st33" x1="1385.7" y1="1145.7" x2="1242.1" y2="1145.7"/>
	<circle class="st14" cx="1118.4" cy="1172.2" r="78.7"/>
	<circle class="st15" cx="1118.8" cy="1170.1" r="48.8"/>
	<circle class="st12" cx="1118.8" cy="1170.1" r="48.8"/>
	<circle class="st16" cx="1118.4" cy="1169.5" r="42.8"/>
	<circle class="st17" cx="1119" cy="1170.6" r="18.4"/>
	<circle class="st18" cx="1106.9" cy="1149.5" r="2.5"/>
	<circle class="st18" cx="1118.9" cy="1146.5" r="2.5"/>
	<circle class="st18" cx="1131.2" cy="1150.2" r="2.5"/>
	<circle class="st18" cx="1139.7" cy="1158.4" r="2.5"/>
	<circle class="st18" cx="1142.3" cy="1170.8" r="2.5"/>
	<circle class="st18" cx="1139.8" cy="1182.7" r="2.5"/>
	<circle class="st18" cx="1131.2" cy="1191.4" r="2.5"/>
	<circle class="st18" cx="1119.2" cy="1194.5" r="2.5"/>
	<circle class="st18" cx="1106.1" cy="1190.9" r="2.5"/>
	<circle class="st18" cx="1098.1" cy="1182.4" r="2.5"/>
	<circle class="st18" cx="1094.9" cy="1170.4" r="2.5"/>
	<circle class="st18" cx="1097.7" cy="1158" r="2.5"/>
	<path class="st19" d="M1094,1134.6c0,0,4,14.9-10.7,11.3C1083.3,1145.9,1085.5,1139.7,1094,1134.6z"/>
	<path class="st19" d="M1110.5,1127.6c0,0,6.4,12,17.4,0.5C1127.9,1128.1,1120.1,1125.1,1110.5,1127.6z"/>
	<path class="st19" d="M1142.5,1134.6c0,0-3.1,14.6,11.7,11.7C1154.1,1146.2,1149.6,1137.9,1142.5,1134.6z"/>
	<path class="st19" d="M1160.2,1161.8c0,0-9.2,9.9-0.5,17.9C1159.7,1179.6,1162.8,1172.2,1160.2,1161.8z"/>
	<path class="st19" d="M1143.1,1204.5c0,0-0.9-11.3,10.3-10.7C1153.4,1193.8,1150.1,1199.7,1143.1,1204.5z"/>
	<path class="st19" d="M1126.6,1211.2c0,0-7.1-9.9-16.6,0.2C1110,1211.3,1117.2,1213.8,1126.6,1211.2z"/>
	<path class="st19" d="M1083.3,1193.8c0,0,12.1-1.7,11,10.7C1094.3,1204.5,1088.7,1201.5,1083.3,1193.8z"/>
	<path class="st19" d="M1076.5,1161.3c0,0,10.4,8.4,0.5,18.3C1076.9,1179.6,1074.4,1172.8,1076.5,1161.3z"/>
	<path d="M1192.6,1145.5c0,0,23.1,81.5-72,102.5c0,0-87.4-4.1-76.9-102c0,0-20.5,55.5,31,92c0,0,20.3,14.8,47,13
		c26.7-1.8,52.7-13.7,68.6-46.2C1199.6,1179.4,1198.6,1169.3,1192.6,1145.5z"/>
	<circle class="st20" cx="1118.4" cy="1169.5" r="42.8"/>
	<path class="st34" d="M1206.7,1176.9c0,0,8.3-55.7-60.6-83.8c0,0-45.8-17.1-84.3,14.3c0,0-28.7,13.2-34.2,70c0,0-3.9,8.3-17.6,8.3
		h-10.8l0.9-54l13.4-1.1l17.1-35.8c0,0,5.9-17.9,30.8-17.9s126.4,0.3,126.4,0.3s17,0.3,23.2,26.4s14.7,29,26.1,29v53.4l-25.2-0.3
		C1211.7,1185.7,1206.4,1184.8,1206.7,1176.9z"/>
	<path class="st35" d="M1108.5,1083.6c0,0-63.8,0.4-76.5,41c-12.7,40.6-16.5,60.9-16.5,60.9s-11.6,0.8-16.4,0.2l0.9-54l13.4-1.1
		l17.1-35.8c0,0,6.3-18,30.8-17.9s126.4,0.3,126.4,0.3s19.4,0.1,23.2,26.4c6,24.5,13.5,25.8,26.9,28.3l-0.8,54.1l-25.2-0.3
		c0,0-5.3-0.8-5-8.8c0,0,16.9-3.9,10.2-39.3c0,0-14.5-9.1-15.5-27.4S1185.9,1083.9,1108.5,1083.6z"/>
	<path class="st36" d="M1736,1180.7c0,0-14.1-88.6,62.3-98.4l-55.9-0.4c0,0-23.4,26.1-24.5,67.9c-1.1,41.7-0.4,35.6-0.4,35.6
		S1733.1,1187.6,1736,1180.7z"/>
	<path class="st37" d="M1724.5,802.4l-0.3,37.4c0,0,8,1.6,14.8,0l-0.3-41.2L1724.5,802.4z"/>
	<ellipse class="st21" cx="1731.6" cy="800.6" rx="8.2" ry="8.5"/>
	<path class="st38" d="M1721,839.8c0,0,11.8,1.6,21.3-0.3v214.7c0,0-13.9,3.5-21.3-0.3V839.8z"/>
	<path class="st0" d="M1700.3,1102.7v24.7c0,0,5.9,8.8,12.9-0.2v-20.6c0,0-0.7-7,7-9.7c7.7-2.7,14.3-9.1,15.2-17.4
		c0.9-8.4,0.7-24,0.7-24s-6.9,1-13.4-0.3l-0.4,20c0,0-0.9,5.7-7.9,9.5S1700.8,1091.2,1700.3,1102.7z"/>
	<path class="st8" d="M1728.9,1056.2l-0.7,19.2c0,0-1.8,9.5-9,13c-7.3,3.5-12.3,8.2-12.3,15s-0.2,28-0.2,28s-4.8,1.5-6.4-3.9
		l0.4-27.9c0,0,0.2-8.4,11.7-13.9c11.5-5.5,9.9-10.6,9.9-10.6l0.4-20C1722.7,1055.1,1726.1,1056.2,1728.9,1056.2z"/>
	<path class="st39" d="M1742.1,844.9c0,0-8.2,2.4-21.1-0.2"/>
	<path class="st39" d="M1742.1,850.5c0,0-8.2,2.4-21.1-0.2"/>
	<path class="st39" d="M1742.1,855.8c0,0-8.2,2.4-21.1-0.2"/>
	<path class="st39" d="M1742.1,861.2c0,0-8.2,2.4-21.1-0.2"/>
	<path class="st39" d="M1742.1,866.8c0,0-8.2,2.4-21.1-0.2"/>
	<path class="st39" d="M1742.1,872.4c0,0-8.2,2.4-21.1-0.2"/>
	<path class="st39" d="M1741.9,878c0,0-8.2,2.4-21.1-0.2"/>
	<path class="st39" d="M1741.9,883.6c0,0-8.2,2.4-21.1-0.2"/>
	<path class="st39" d="M1741.9,889c0,0-8.2,2.4-21.1-0.2"/>
	<path class="st39" d="M1741.9,894.4c0,0-8.2,2.4-21.1-0.2"/>
	<path class="st39" d="M1741.9,900.2c0,0-8.2,2.4-21.1-0.2"/>
	<path class="st39" d="M1741.9,905.6c0,0-8.2,2.4-21.1-0.2"/>
	<path class="st39" d="M1741.9,911.8c0,0-8.2,2.4-21.1-0.2"/>
	<path class="st39" d="M1741.9,917.6c0,0-8.2,2.4-21.1-0.2"/>
	<path class="st39" d="M1741.9,923.2c0,0-8.2,2.4-21.1-0.2"/>
	<path class="st39" d="M1741.9,929.2c0,0-8.2,2.4-21.1-0.2"/>
	<path class="st39" d="M1741.9,935.1c0,0-8.2,2.4-21.1-0.2"/>
	<path class="st39" d="M1742.2,941.2c0,0-8.2,2.4-21.1-0.2"/>
	<path class="st39" d="M1742.2,947.9c0,0-8.2,2.4-21.1-0.2"/>
	<path class="st39" d="M1742,954c0,0-8.2,2.4-21.1-0.2"/>
	<path class="st39" d="M1742,960.5c0,0-8.2,2.4-21.1-0.2"/>
	<path class="st39" d="M1742,966.2c0,0-8.2,2.4-21.1-0.2"/>
	<path class="st39" d="M1742,972.5c0,0-8.2,2.4-21.1-0.2"/>
	<path class="st39" d="M1742,978.1c0,0-8.2,2.4-21.1-0.2"/>
	<path class="st39" d="M1742,985c0,0-8.2,2.4-21.1-0.2"/>
	<path class="st39" d="M1742,991.1c0,0-8.2,2.4-21.1-0.2"/>
	<path class="st39" d="M1742,996.6c0,0-8.2,2.4-21.1-0.2"/>
	<path class="st39" d="M1742,1002.4c0,0-8.2,2.4-21.1-0.2"/>
	<path class="st39" d="M1742,1008.3c0,0-8.2,2.4-21.1-0.2"/>
	<path class="st39" d="M1742,1014.6c0,0-8.2,2.4-21.1-0.2"/>
	<path class="st39" d="M1742,1021.7c0,0-8.2,2.4-21.1-0.2"/>
	<path class="st39" d="M1742,1028.4c0,0-8.2,2.4-21.1-0.2"/>
	<path class="st39" d="M1742,1034.9c0,0-8.2,2.4-21.1-0.2"/>
	<path class="st39" d="M1742,1041.4c0,0-8.2,2.4-21.1-0.2"/>
	<path class="st39" d="M1741.7,1048.3c0,0-8.2,2.4-21.1-0.2"/>
	<line class="st40" x1="1736.5" y1="840.4" x2="1736.5" y2="1055.4"/>
	<line class="st40" x1="1724.2" y1="839.8" x2="1724.2" y2="1055.1"/>
	<line class="st40" x1="1729.6" y1="840.8" x2="1729.6" y2="1056.2"/>
	<path class="st36" d="M1740,1054.3v28.2h113.9c0,0,58.2,1.1,58.2,55.2l-0.4,41c0,0-1.9,5.6,6.8,6c8.6,0.4,16.9,0,16.9,0l-1.7-59.2
		c0,0-7.4-69.5-78.8-70.2S1740,1054.3,1740,1054.3z"/>
	<path class="st41" d="M1770.9,1063.6l72.9-0.3c0,0,62.5-4.9,76.9,38.9c14.4,43.8,14.7,82.5,14.7,82.5l-1.7-59.2
		c0,0-5.2-70.5-82.7-70.5c-77.5,0-111-0.7-111-0.7l-0.2,10.5L1770.9,1063.6z"/>
	<path class="st11" d="M1689.4,768.8l0.3,20.9c0,0,5.5,1.3,18.6,0l-0.5-21.2L1689.4,768.8z"/>
	<path class="st87" d="M1710.8,789.1l0.1,4.4h-23.8l0.1-4.1C1687.2,789.5,1696.3,790.5,1710.8,789.1z"/>
	<polygon class="st89" points="1680.9,792.8 1637.5,892.7 1716,892.7 1716,792.8 	"/>
	<polygon class="st8" points="1644.5,876.4 1694.5,877 1715.8,845.6 1716,892.7 1637.5,892.7 	"/>
	<line class="st42" x1="1640.9" y1="883.2" x2="986.3" y2="631.4"/>
	<path class="st42" d="M952.7,665.5c0,0,7.4,106.1,8.9,117"/>
	<line class="st42" x1="993.1" y1="676.8" x2="983.3" y2="786.4"/>
	<polygon class="st43" points="1012.4,661.2 1100.6,695.4 1090.3,719.9 1007.5,686.7 	"/>
	<path class="st10" d="M1019,668.4c0,0,0.7,13.2,15.9,18.9c15.2,5.6,59.6,22.8,59.6,22.8l5-12.2c0,0-67.8-23.2-72.8-27.1
		c-5-4-6.9-5.1-6.9-5.1S1018.5,667.4,1019,668.4z"/>
	<circle class="st10" cx="973.1" cy="651.3" r="27.4"/>
	<circle class="st9" cx="973.7" cy="651.5" r="21.8"/>
	<path class="st44" d="M1020.1,658.5l-12.9,34.1c0,0-42.9-11.1-47-25.4c-4.2-14.3,1.8-26.3,5.1-34.1L1020.1,658.5z"/>
	<path class="st45" d="M981.2,676.9l22.7,9.6c0,0,5.2-20.7,16.2-28l-12.9,34.1c0,0-41.1-9.9-47-25.4c0,0-3.2-6.7,0.2-20.3
		c0,0-1.3,19.2,6.7,23.5C975.1,674.7,981.2,676.9,981.2,676.9z"/>
	<circle class="st46" cx="973.1" cy="650.4" r="5.4"/>
	<circle class="st10" cx="1148.4" cy="693.5" r="11.8"/>
	<circle class="st9" cx="1463" cy="827.7" r="18"/>
	<circle class="st10" cx="1463.3" cy="827.9" r="11.5"/>
	<polygon class="st44" points="1603.3,894.8 1105.1,685.2 1086.6,728 1336.4,835.5 1354.5,855.6 1541.2,940.2 	"/>
	<polyline class="st47" points="1580.4,897.4 1110.1,699.5 1100.5,723.1 	"/>
	<g>
		<polygon class="st48" points="1362.2,849.5 1342.1,829 1099.9,723.5 1102.4,717.6 1344.9,823.8 1366.8,846.1 1552.1,929.7 
			1547.6,933.3 		"/>
		<path class="st45" d="M1102.9,718.9l241.4,105.7l21.9,22.3l183.9,83l-2.7,2.2l-184.7-83.5l-20-20.4l-241.5-105.2L1102.9,718.9
			 M1101.9,716.3l-0.8,1.9l-1.7,4l-0.8,1.8l1.8,0.8l241.1,105.1l19.8,20.2l0.3,0.3l0.3,0.2l184.7,83.5l1.1,0.5l1-0.8l2.7-2.2l2.6-2
			l-3-1.3l-183.6-82.9l-21.7-22l-0.3-0.3l-0.4-0.2l-241.4-105.7L1101.9,716.3L1101.9,716.3z"/>
	</g>
	<circle class="st49" cx="1385.5" cy="837.9" r="6.6"/>
	<polygon class="st43" points="1373.5,864.2 1373.5,930 1394.7,930 1395,873.8 	"/>
	<polygon class="st10" points="1386.1,872.9 1386.8,929 1376.8,929 1376.8,867.4 1385.9,871.3 	"/>
	<path class="st43" d="M1369,929.4c0,0,10.4,0.4,31.1,0.1l-0.3,36.5h-31L1369,929.4z"/>
	<path class="st9" d="M971.2,795.8c0,0,2.1,5.5-1.4,6.9s-11.7,8.7-4.1,14.6S979,818.9,982,807c0,0-3.7,0.5-6.4,6.2
		c0,0-6.4,6.9-7.3-3.2c0,0,0-2.5,3.9-4.1c3.9-1.6,3.4-5.5,1.4-11.9L971.2,795.8z"/>
	<path class="st50" d="M964.6,764.2c0,0-1.9,14-5.8,20.2c0,0-2.3,4.7,0,6.2c2.3,1.6,10.5,5.8,10.5,5.8s1.9,3.9,7.4,0l8.2-6.2
		c0,0,2.7,0.4,1.2-5.4c-1.6-5.8-6.6-20.6-6.6-20.6H964.6z"/>
	<path class="st45" d="M977,766.6l6.2,17.4c0,0,1.7,2.5-0.2,4.7c-1.9,2.2-7.4,6.1-7.4,6.1s-2,1.7-4.6-0.2c-2.5-1.9-6.2-3.5-6.2-3.5
		l4.6,5.4c0,0,2.7,3.9,7.4,0c4.7-3.9,8.2-6.2,8.2-6.2s2.6,0.3,1.2-5.4c-1.4-5.7-6.6-20.6-6.6-20.6L977,766.6z"/>
	<g>
		<path class="st48" d="M958.9,790.5c-0.1,0-0.6-0.2-0.9-0.9c-0.3-0.8-0.4-2.2,1-5c2.9-5.7,4.8-12.4,5.8-20.1h14l-1.9,1.9l-10.7-0.2
			l0,0.2c0,0.2-1.4,16.8-6.3,20.1c-0.1,0.1-0.5,0.5-0.4,1.2c0.2,0.7,0.9,1.3,2.3,1.8c2.4,0.9,5.4,4.5,6.7,6.3L958.9,790.5z"/>
		<path class="st50" d="M978.2,764.7l-1.4,1.4l-10.4-0.2l-0.5,0l0,0.5c0,0.2-1.4,16.7-6.2,19.9l0,0l0,0c-0.2,0.2-0.5,0.7-0.4,1.4
			c0.2,0.8,1,1.5,2.4,2c1.9,0.7,4.3,3.4,5.8,5.2l-8.4-4.7l0,0l0,0c0,0-0.5-0.2-0.7-0.8c-0.3-0.7-0.3-2.1,1-4.7
			c2.8-5.6,4.8-12.4,5.8-20H978.2 M979.4,764.2h-14.8c-1.1,8.3-3.1,14.9-5.8,20.2c-2.7,5.4,0,6.2,0,6.2l10.5,5.8
			c0,0-4.3-6.1-7.5-7.3c-3.2-1.2-1.9-2.5-1.9-2.5c5.1-3.4,6.4-20.3,6.4-20.3l10.6,0.2L979.4,764.2L979.4,764.2z"/>
	</g>
	<line class="st42" x1="971.7" y1="812.2" x2="971.7" y2="821.6"/>
	<polygon class="st51" points="969.4,821.7 974.3,821.7 974.3,858.8 969.7,858.8 	"/>
	<line class="st101" x1="971.9" y1="859.4" x2="972.9" y2="1113.1"/>
	<polygon class="st89" points="1716,892.7 1716,1080 992.2,1080 992.2,1026.7 1110.2,966.5 1514.9,966.5 1587.2,894.3 	"/>
	<path class="st6" d="M1680.9,1047.5l31.2,32.1h-19.5l-32.2-32.2C1660.4,1047.4,1681.2,1047.3,1680.9,1047.5z"/>
	<path class="st6" d="M1646.3,1047.5l31.2,32.1h-19.5l-32.2-32.2C1625.7,1047.4,1646.5,1047.3,1646.3,1047.5z"/>
	<path class="st6" d="M1612.3,1047.5l31.2,32.1H1624l-32.2-32.2C1591.8,1047.4,1612.6,1047.3,1612.3,1047.5z"/>
	<path class="st6" d="M1577,1047.5l31.2,32.1h-19.5l-32.2-32.2C1556.4,1047.4,1577.2,1047.3,1577,1047.5z"/>
	<path class="st6" d="M1542.6,1047.6l31.2,32h-19.5l-32.2-32.1C1522,1047.5,1542.8,1047.4,1542.6,1047.6z"/>
	<path class="st6" d="M1507.5,1047.9l31.2,31.7h-19.5l-32.2-31.8C1486.9,1047.8,1507.7,1047.7,1507.5,1047.9z"/>
	<path class="st6" d="M1472.8,1047.9l31.2,31.7h-19.5l-32.2-31.8C1452.2,1047.8,1473.1,1047.7,1472.8,1047.9z"/>
	<path class="st6" d="M1437.7,1047.9l31.2,31.7h-19.5l-32.2-31.8C1417.1,1047.8,1437.9,1047.7,1437.7,1047.9z"/>
	<path class="st6" d="M1403.3,1048.2l31.2,31.4h-19.5l-32.2-31.5C1382.7,1048.1,1403.5,1047.9,1403.3,1048.2z"/>
	<path class="st6" d="M1368.6,1048.2l31.2,31.4h-19.5l-32.2-31.5C1348.1,1048.1,1368.9,1047.9,1368.6,1048.2z"/>
	<path class="st6" d="M1333.8,1048.2l31.2,31.4h-19.5l-32.2-31.5C1313.2,1048.1,1334,1048,1333.8,1048.2z"/>
	<path class="st6" d="M1298.7,1048.3l31.2,31.3h-19.5l-32.2-31.4C1278.1,1048.2,1298.9,1048.1,1298.7,1048.3z"/>
	<path class="st6" d="M1264.2,1048.4l31.2,31.2h-19.5l-32.2-31.3C1243.7,1048.3,1264.5,1048.2,1264.2,1048.4z"/>
	<path class="st6" d="M1229.8,1048.4l31.2,31.2h-19.5l-32.2-31.3C1209.2,1048.3,1230.1,1048.2,1229.8,1048.4z"/>
	<path class="st6" d="M1194.2,1048.8l31.2,30.8h-19.5l-32.2-30.9C1173.7,1048.6,1194.5,1048.5,1194.2,1048.8z"/>
	<path class="st6" d="M1159.4,1048.8l31.2,30.8H1171l-32.2-30.9C1138.8,1048.6,1159.6,1048.5,1159.4,1048.8z"/>
	<path class="st6" d="M1124,1049l31.2,30.6h-19.5l-32.2-30.7C1103.4,1048.9,1124.3,1048.8,1124,1049z"/>
	<path class="st6" d="M1089.1,1049.1l31.2,30.5h-19.5l-32.2-30.6C1068.6,1049,1089.4,1048.9,1089.1,1049.1z"/>
	<path class="st6" d="M1054,1049.2l31.2,30.4h-19.5l-32.2-30.5C1033.4,1049.1,1054.3,1049,1054,1049.2z"/>
	<polygon class="st1" points="1695.3,915.7 1695.3,1056.2 1688.2,1046.9 1688.2,921.1 	"/>
	<polygon class="st87" points="1596.3,921.9 1688.2,921.1 1695.3,915.7 1592.2,915.7 1523.7,988.5 1111,988.5 1012.8,1037.6 
		1012.8,1057 1020.4,1049.1 1020.4,1043.3 1117,995.9 1527,995.9 	"/>
	<polyline class="st1" points="1688.2,1046.9 1020.4,1049.1 1012.8,1057 1695.3,1056.2 	"/>
	<path class="st91" d="M1601.7,938.3h74.3v98.1h-74.3C1601.7,1036.4,1602,938.6,1601.7,938.3z"/>
	<polygon class="st6" points="1628.9,1019.6 1628.9,1028.7 1650.9,1028.7 1650.9,1018.6 1628.7,1018.6 	"/>
	<g>
		<path class="st9" d="M961.3,1108.2c0,0-0.7,10.5,1.2,11.5c1.8,1,20.2-6.1,21.5-9.8C983.9,1109.9,970.2,1110.6,961.3,1108.2z"/>
		<path class="st53" d="M290.7,1168.5l133.7-8.3c0,0,13.2-57.6-54.4-73.7S284.6,1133.8,290.7,1168.5z"/>
		<polygon class="st53" points="868,1136.5 877.1,1135.7 893.9,1087.5 829.3,1052.1 757.3,1068.3 745.8,1129.2 754.3,1145.9 		"/>
		<circle class="st14" cx="814.6" cy="1129.5" r="53.9"/>
		<g>
			<g>
				<path class="st54" d="M814.9,1166.9c-1.8,0-3.7-0.1-5.6-0.4c-9.2-1.5-17.3-6.4-22.8-14c-5.5-7.6-7.7-16.8-6.2-26
					c2.7-17,17.2-29.4,34.4-29.4c1.8,0,3.7,0.1,5.6,0.4c9.2,1.5,17.3,6.4,22.8,14c5.5,7.6,7.7,16.8,6.2,26
					C846.6,1154.6,832.1,1166.9,814.9,1166.9z"/>
				<path class="st55" d="M814.8,1098.6c1.8,0,3.5,0.1,5.3,0.4c18.2,2.9,30.6,20,27.7,38.3c-2.6,16.4-16.8,28.1-32.9,28.1
					c-1.8,0-3.5-0.1-5.3-0.4c-18.2-2.9-30.6-20-27.7-38.3C784.5,1110.3,798.7,1098.6,814.8,1098.6 M814.8,1095.6L814.8,1095.6
					c-8.6,0-16.9,3.1-23.5,8.6c-6.6,5.6-11.1,13.4-12.4,22c-1.5,9.6,0.8,19.2,6.5,27.1c5.7,7.9,14.1,13.1,23.7,14.6
					c1.9,0.3,3.9,0.5,5.8,0.5c8.6,0,16.9-3.1,23.5-8.6c6.6-5.6,11.1-13.4,12.4-22c1.5-9.6-0.8-19.2-6.5-27.1
					c-5.7-7.9-14.1-13.1-23.7-14.6C818.7,1095.8,816.7,1095.6,814.8,1095.6L814.8,1095.6z"/>
			</g>
			<g>
				<path class="st56" d="M814.8,1151.4c-1,0-2-0.1-3-0.2c-10.4-1.7-17.4-11.4-15.8-21.8c1.5-9.3,9.4-16,18.8-16c1,0,2,0.1,3,0.2
					c5,0.8,9.4,3.5,12.4,7.6c3,4.1,4.2,9.1,3.4,14.2C832.1,1144.7,824.2,1151.4,814.8,1151.4z"/>
				<path class="st57" d="M814.8,1112.4v2c1,0,1.9,0.1,2.9,0.2c4.8,0.8,8.9,3.3,11.8,7.2c2.8,3.9,4,8.7,3.2,13.4
					c-1.4,8.8-8.9,15.2-17.8,15.2c-1,0-1.9-0.1-2.9-0.2c-4.8-0.8-8.9-3.3-11.8-7.2s-4-8.7-3.2-13.4c1.4-8.8,8.9-15.2,17.8-15.2
					L814.8,1112.4 M814.8,1112.4c-9.7,0-18.2,7-19.8,16.9c-1.7,10.9,5.7,21.2,16.6,22.9c1.1,0.2,2.1,0.3,3.2,0.3
					c9.7,0,18.2-7,19.8-16.9c1.7-10.9-5.7-21.2-16.6-22.9C816.9,1112.5,815.8,1112.4,814.8,1112.4L814.8,1112.4z"/>
			</g>
			<circle class="st58" cx="815.1" cy="1132.4" r="6.7"/>
			<g>
				<path class="st59" d="M806.8,1109.8c-0.1,0-0.2,0-0.3,0c-1.1-0.2-1.9-1.3-1.7-2.4c0.2-1,1-1.8,2.1-1.8c0.1,0,0.2,0,0.3,0
					c0.6,0.1,1,0.4,1.4,0.8c0.3,0.5,0.5,1,0.4,1.6C808.7,1109,807.8,1109.8,806.8,1109.8z"/>
				<path class="st60" d="M806.7,1105.8L806.7,1105.8c0.1,0,0.2,0,0.3,0c0.5,0.1,0.9,0.3,1.2,0.7c0.3,0.4,0.4,0.9,0.3,1.4
					c-0.1,0.9-0.9,1.6-1.8,1.6c-0.1,0-0.2,0-0.3,0c-1-0.2-1.7-1.1-1.5-2.1C805.1,1106.5,805.8,1105.8,806.7,1105.8 M806.7,1105.3
					c-1.1,0-2.1,0.8-2.3,2c-0.2,1.3,0.7,2.5,2,2.7c0.1,0,0.3,0,0.4,0c1.1,0,2.1-0.8,2.3-2c0.2-1.3-0.7-2.5-2-2.7
					C807,1105.3,806.9,1105.3,806.7,1105.3L806.7,1105.3z"/>
			</g>
			<g>
				<path class="st59" d="M821,1108.9c-0.1,0-0.2,0-0.3,0c-0.6-0.1-1-0.4-1.4-0.8c-0.3-0.5-0.5-1-0.4-1.6c0.2-1,1-1.8,2.1-1.8
					c0.1,0,0.2,0,0.3,0c0.6,0.1,1,0.4,1.4,0.8c0.3,0.5,0.5,1,0.4,1.6C822.9,1108.2,822,1108.9,821,1108.9z"/>
				<g>
					<path class="st60" d="M821,1104.5v0.5c0.1,0,0.2,0,0.3,0c0.5,0.1,0.9,0.3,1.2,0.7c0.3,0.4,0.4,0.9,0.3,1.4
						c-0.1,0.9-0.9,1.6-1.8,1.6c-0.1,0-0.2,0-0.3,0c-0.5-0.1-0.9-0.3-1.2-0.7c-0.3-0.4-0.4-0.9-0.3-1.4c0.1-0.9,0.9-1.6,1.8-1.6
						V1104.5 M821,1104.5c-1.1,0-2.1,0.8-2.3,2c-0.2,1.3,0.7,2.5,2,2.7c0.1,0,0.3,0,0.4,0c1.1,0,2.1-0.8,2.3-2
						c0.2-1.3-0.7-2.5-2-2.7C821.2,1104.5,821.1,1104.5,821,1104.5L821,1104.5z"/>
				</g>
			</g>
			<g>
				<path class="st61" d="M816.6,1121.8c-0.1,0-0.1,0-0.2,0c-0.7-0.1-1.2-0.8-1.1-1.5c0.1-0.6,0.6-1.1,1.3-1.1c0.1,0,0.1,0,0.2,0
					c0.3,0.1,0.6,0.2,0.9,0.5c0.2,0.3,0.3,0.6,0.2,1C817.8,1121.4,817.3,1121.8,816.6,1121.8z"/>
				<g>
					<path class="st62" d="M816.6,1119.5L816.6,1119.5c0.1,0,0.1,0,0.2,0c0.3,0,0.5,0.2,0.7,0.4c0.2,0.2,0.2,0.5,0.2,0.8
						c-0.1,0.5-0.5,0.9-1,0.9c-0.1,0-0.1,0-0.2,0c-0.6-0.1-1-0.6-0.9-1.2C815.7,1119.8,816.1,1119.5,816.6,1119.5 M816.6,1119
						c-0.8,0-1.4,0.5-1.5,1.3c-0.1,0.8,0.4,1.6,1.3,1.8c0.1,0,0.2,0,0.2,0c0.8,0,1.4-0.5,1.5-1.3c0.1-0.8-0.4-1.6-1.3-1.8
						C816.8,1119,816.7,1119,816.6,1119L816.6,1119z"/>
				</g>
			</g>
			<g>
				<path class="st61" d="M826.2,1135.1c-0.1,0-0.1,0-0.2,0c-0.3-0.1-0.6-0.2-0.9-0.5c-0.2-0.3-0.3-0.6-0.2-1
					c0.1-0.6,0.6-1.1,1.3-1.1c0.1,0,0.1,0,0.2,0c0.3,0.1,0.6,0.2,0.9,0.5c0.2,0.3,0.3,0.6,0.2,1
					C827.4,1134.7,826.9,1135.1,826.2,1135.1z"/>
				<g>
					<path class="st62" d="M826.2,1132.8L826.2,1132.8c0.1,0,0.1,0,0.2,0c0.3,0,0.5,0.2,0.7,0.4c0.2,0.2,0.2,0.5,0.2,0.8
						c-0.1,0.5-0.5,0.9-1,0.9c-0.1,0-0.1,0-0.2,0c-0.3,0-0.5-0.2-0.7-0.4c-0.2-0.2-0.2-0.5-0.2-0.8
						C825.3,1133.2,825.7,1132.8,826.2,1132.8 M826.2,1132.3c-0.8,0-1.4,0.5-1.5,1.3c-0.1,0.8,0.4,1.6,1.3,1.8c0.1,0,0.2,0,0.2,0
						c0.8,0,1.4-0.5,1.5-1.3c0.1-0.8-0.4-1.6-1.3-1.8C826.4,1132.3,826.3,1132.3,826.2,1132.3L826.2,1132.3z"/>
				</g>
			</g>
			<g>
				<path class="st61" d="M813.2,1144.4c-0.1,0-0.1,0-0.2,0c-0.3-0.1-0.6-0.2-0.9-0.5c-0.2-0.3-0.3-0.6-0.2-1
					c0.1-0.6,0.6-1.1,1.3-1.1c0.1,0,0.1,0,0.2,0c0.7,0.1,1.2,0.8,1.1,1.5C814.4,1143.9,813.8,1144.4,813.2,1144.4z"/>
				<g>
					<path class="st62" d="M813.2,1142L813.2,1142c0.1,0,0.1,0,0.2,0c0.6,0.1,1,0.6,0.9,1.2c-0.1,0.5-0.5,0.9-1,0.9
						c-0.1,0-0.1,0-0.2,0c-0.3,0-0.5-0.2-0.7-0.4c-0.2-0.2-0.2-0.5-0.2-0.8C812.2,1142.4,812.7,1142,813.2,1142 M813.2,1141.5
						c-0.8,0-1.4,0.5-1.5,1.3c-0.1,0.8,0.4,1.6,1.3,1.8c0.1,0,0.2,0,0.2,0c0.8,0,1.4-0.5,1.5-1.3c0.1-0.8-0.4-1.6-1.3-1.8
						C813.4,1141.5,813.3,1141.5,813.2,1141.5L813.2,1141.5z"/>
				</g>
			</g>
			<g>
				<path class="st61" d="M803.2,1132.2c-0.1,0-0.1,0-0.2,0c-0.7-0.1-1.2-0.8-1.1-1.5c0.1-0.6,0.6-1.1,1.3-1.1c0.1,0,0.1,0,0.2,0
					c0.3,0.1,0.6,0.2,0.9,0.5c0.2,0.3,0.3,0.6,0.2,1C804.4,1131.7,803.9,1132.2,803.2,1132.2z"/>
				<g>
					<path class="st62" d="M803.2,1129.8L803.2,1129.8c0.1,0,0.1,0,0.2,0c0.3,0,0.5,0.2,0.7,0.4c0.2,0.2,0.2,0.5,0.2,0.8
						c-0.1,0.5-0.5,0.9-1,0.9c-0.1,0-0.1,0-0.2,0c-0.3,0-0.5-0.2-0.7-0.4c-0.2-0.2-0.2-0.5-0.2-0.8
						C802.3,1130.2,802.7,1129.8,803.2,1129.8 M803.2,1129.3c-0.8,0-1.4,0.5-1.5,1.3c-0.1,0.8,0.4,1.6,1.3,1.8c0.1,0,0.2,0,0.2,0
						c0.8,0,1.4-0.5,1.5-1.3c0.1-0.8-0.4-1.6-1.3-1.8C803.4,1129.3,803.3,1129.3,803.2,1129.3L803.2,1129.3z"/>
				</g>
			</g>
			<g>
				<path class="st59" d="M834.3,1116.6c-0.1,0-0.2,0-0.3,0c-1.1-0.2-1.9-1.3-1.7-2.4c0.2-1,1-1.8,2.1-1.8c0.1,0,0.2,0,0.3,0
					c1.1,0.2,1.9,1.3,1.7,2.4C836.2,1115.8,835.3,1116.6,834.3,1116.6z"/>
				<g>
					<path class="st60" d="M834.3,1112.1v0.5c0.1,0,0.2,0,0.3,0c0.5,0.1,0.9,0.3,1.2,0.7c0.3,0.4,0.4,0.9,0.3,1.4
						c-0.1,0.9-0.9,1.6-1.8,1.6c-0.1,0-0.2,0-0.3,0c-0.5-0.1-0.9-0.3-1.2-0.7c-0.3-0.4-0.4-0.9-0.3-1.4c0.1-0.9,0.9-1.6,1.8-1.6
						V1112.1 M834.3,1112.1c-1.1,0-2.1,0.8-2.3,2c-0.2,1.3,0.7,2.5,2,2.7c0.1,0,0.3,0,0.4,0c1.1,0,2.1-0.8,2.3-2
						c0.2-1.3-0.7-2.5-2-2.7C834.5,1112.1,834.4,1112.1,834.3,1112.1L834.3,1112.1z"/>
				</g>
			</g>
			<g>
				<path class="st59" d="M840.2,1127.3c-0.1,0-0.2,0-0.3,0c-1.1-0.2-1.9-1.3-1.7-2.4c0.2-1,1-1.8,2.1-1.8c0.1,0,0.2,0,0.3,0
					c1.1,0.2,1.9,1.3,1.7,2.4C842.1,1126.6,841.3,1127.3,840.2,1127.3z"/>
				<g>
					<path class="st60" d="M840.2,1123.4L840.2,1123.4c0.1,0,0.2,0,0.3,0c0.5,0.1,0.9,0.3,1.2,0.7c0.3,0.4,0.4,0.9,0.3,1.4
						c-0.1,0.9-0.9,1.6-1.8,1.6c-0.1,0-0.2,0-0.3,0c-1-0.2-1.7-1.1-1.5-2.1C838.5,1124,839.3,1123.4,840.2,1123.4 M840.2,1122.9
						c-1.1,0-2.1,0.8-2.3,2c-0.2,1.3,0.7,2.5,2,2.7c0.1,0,0.3,0,0.4,0c1.1,0,2.1-0.8,2.3-2c0.2-1.3-0.7-2.5-2-2.7
						C840.5,1122.9,840.3,1122.9,840.2,1122.9L840.2,1122.9z"/>
				</g>
			</g>
			<g>
				<path class="st59" d="M840.2,1140.2c-0.1,0-0.2,0-0.3,0c-1.1-0.2-1.9-1.3-1.7-2.4c0.2-1,1-1.8,2.1-1.8c0.1,0,0.2,0,0.3,0
					c0.6,0.1,1,0.4,1.4,0.8c0.3,0.5,0.5,1,0.4,1.6C842.1,1139.5,841.2,1140.2,840.2,1140.2z"/>
				<g>
					<path class="st60" d="M840.2,1136.2L840.2,1136.2c0.1,0,0.2,0,0.3,0c0.5,0.1,0.9,0.3,1.2,0.7c0.3,0.4,0.4,0.9,0.3,1.4
						c-0.1,0.9-0.9,1.6-1.8,1.6c-0.1,0-0.2,0-0.3,0c-1-0.2-1.7-1.1-1.5-2.1C838.5,1136.9,839.3,1136.2,840.2,1136.2 M840.2,1135.7
						c-1.1,0-2.1,0.8-2.3,2c-0.2,1.3,0.7,2.5,2,2.7c0.1,0,0.3,0,0.4,0c1.1,0,2.1-0.8,2.3-2c0.2-1.3-0.7-2.5-2-2.7
						C840.4,1135.7,840.3,1135.7,840.2,1135.7L840.2,1135.7z"/>
				</g>
			</g>
			<g>
				<path class="st59" d="M834.7,1151.3c-0.1,0-0.2,0-0.3,0c-1.1-0.2-1.9-1.3-1.7-2.4c0.2-1,1-1.8,2.1-1.8c0.1,0,0.2,0,0.3,0
					c1.1,0.2,1.9,1.3,1.7,2.4C836.6,1150.5,835.7,1151.3,834.7,1151.3z"/>
				<g>
					<path class="st60" d="M834.7,1146.8v0.5c0.1,0,0.2,0,0.3,0c0.5,0.1,0.9,0.3,1.2,0.7c0.3,0.4,0.4,0.9,0.3,1.4
						c-0.1,0.9-0.9,1.6-1.8,1.6c-0.1,0-0.2,0-0.3,0c-0.5-0.1-0.9-0.3-1.2-0.7c-0.3-0.4-0.4-0.9-0.3-1.4c0.1-0.9,0.9-1.6,1.8-1.6
						V1146.8 M834.7,1146.8c-1.1,0-2.1,0.8-2.3,2c-0.2,1.3,0.7,2.5,2,2.7c0.1,0,0.3,0,0.4,0c1.1,0,2.1-0.8,2.3-2
						c0.2-1.3-0.7-2.5-2-2.7C834.9,1146.8,834.8,1146.8,834.7,1146.8L834.7,1146.8z"/>
				</g>
			</g>
			<g>
				<path class="st59" d="M823.8,1158.7c-0.1,0-0.2,0-0.3,0c-1.1-0.2-1.9-1.3-1.7-2.4c0.2-1,1-1.8,2.1-1.8c0.1,0,0.2,0,0.3,0
					c1.1,0.2,1.9,1.3,1.7,2.4C825.7,1158,824.8,1158.7,823.8,1158.7z"/>
				<g>
					<path class="st60" d="M823.8,1154.3v0.5c0.1,0,0.2,0,0.3,0c0.5,0.1,0.9,0.3,1.2,0.7c0.3,0.4,0.4,0.9,0.3,1.4
						c-0.1,0.9-0.9,1.6-1.8,1.6c-0.1,0-0.2,0-0.3,0c-0.5-0.1-0.9-0.3-1.2-0.7c-0.3-0.4-0.4-0.9-0.3-1.4c0.1-0.9,0.9-1.6,1.8-1.6
						V1154.3 M823.8,1154.3c-1.1,0-2.1,0.8-2.3,2c-0.2,1.3,0.7,2.5,2,2.7c0.1,0,0.3,0,0.4,0c1.1,0,2.1-0.8,2.3-2
						c0.2-1.3-0.7-2.5-2-2.7C824,1154.3,823.9,1154.3,823.8,1154.3L823.8,1154.3z"/>
				</g>
			</g>
			<g>
				<path class="st59" d="M810.8,1160.7c-0.1,0-0.2,0-0.3,0c-1.1-0.2-1.9-1.3-1.7-2.4c0.2-1,1-1.8,2.1-1.8c0.1,0,0.2,0,0.3,0
					c1.1,0.2,1.9,1.3,1.7,2.4C812.7,1160,811.8,1160.7,810.8,1160.7z"/>
				<g>
					<path class="st60" d="M810.8,1156.7L810.8,1156.7c0.1,0,0.2,0,0.3,0c0.5,0.1,0.9,0.3,1.2,0.7c0.3,0.4,0.4,0.9,0.3,1.4
						c-0.1,0.9-0.9,1.6-1.8,1.6c-0.1,0-0.2,0-0.3,0c-0.5-0.1-0.9-0.3-1.2-0.7c-0.3-0.4-0.4-0.9-0.3-1.4
						C809.1,1157.4,809.9,1156.7,810.8,1156.7 M810.8,1156.2c-1.1,0-2.1,0.8-2.3,2c-0.2,1.3,0.7,2.5,2,2.7c0.1,0,0.3,0,0.4,0
						c1.1,0,2.1-0.8,2.3-2c0.2-1.3-0.7-2.5-2-2.7C811,1156.3,810.9,1156.2,810.8,1156.2L810.8,1156.2z"/>
				</g>
			</g>
			<g>
				<path class="st59" d="M799.9,1156.4c-0.1,0-0.2,0-0.3,0c-0.6-0.1-1-0.4-1.4-0.8c-0.3-0.5-0.5-1-0.4-1.6c0.2-1,1-1.8,2.1-1.8
					c0.1,0,0.2,0,0.3,0c0.6,0.1,1,0.4,1.4,0.8c0.3,0.5,0.5,1,0.4,1.6C801.8,1155.6,800.9,1156.4,799.9,1156.4z"/>
				<g>
					<path class="st60" d="M799.9,1151.9v0.5c0.1,0,0.2,0,0.3,0c0.5,0.1,0.9,0.3,1.2,0.7c0.3,0.4,0.4,0.9,0.3,1.4
						c-0.1,0.9-0.9,1.6-1.8,1.6c-0.1,0-0.2,0-0.3,0c-0.5-0.1-0.9-0.3-1.2-0.7c-0.3-0.4-0.4-0.9-0.3-1.4c0.1-0.9,0.9-1.6,1.8-1.6
						V1151.9 M799.9,1151.9c-1.1,0-2.1,0.8-2.3,2c-0.2,1.3,0.7,2.5,2,2.7c0.1,0,0.3,0,0.4,0c1.1,0,2.1-0.8,2.3-2
						c0.2-1.3-0.7-2.5-2-2.7C800.1,1151.9,800,1151.9,799.9,1151.9L799.9,1151.9z"/>
				</g>
			</g>
			<g>
				<path class="st59" d="M791.8,1147.1c-0.1,0-0.2,0-0.3,0c-0.6-0.1-1-0.4-1.4-0.8c-0.3-0.5-0.5-1-0.4-1.6c0.2-1,1-1.8,2.1-1.8
					c0.1,0,0.2,0,0.3,0c0.6,0.1,1,0.4,1.4,0.8c0.3,0.5,0.5,1,0.4,1.6C793.7,1146.4,792.8,1147.1,791.8,1147.1z"/>
				<g>
					<path class="st60" d="M791.8,1142.6v0.5c0.1,0,0.2,0,0.3,0c0.5,0.1,0.9,0.3,1.2,0.7c0.3,0.4,0.4,0.9,0.3,1.4
						c-0.1,0.9-0.9,1.6-1.8,1.6c-0.1,0-0.2,0-0.3,0c-0.5-0.1-0.9-0.3-1.2-0.7c-0.3-0.4-0.4-0.9-0.3-1.4c0.1-0.9,0.9-1.6,1.8-1.6
						V1142.6 M791.8,1142.6c-1.1,0-2.1,0.8-2.3,2c-0.2,1.3,0.7,2.5,2,2.7c0.1,0,0.3,0,0.4,0c1.1,0,2.1-0.8,2.3-2
						c0.2-1.3-0.7-2.5-2-2.7C792,1142.7,791.9,1142.6,791.8,1142.6L791.8,1142.6z"/>
				</g>
			</g>
			<g>
				<path class="st59" d="M788.2,1135.6c-0.1,0-0.2,0-0.3,0c-0.6-0.1-1-0.4-1.4-0.8c-0.3-0.5-0.5-1-0.4-1.6c0.2-1,1-1.8,2.1-1.8
					c0.1,0,0.2,0,0.3,0c0.6,0.1,1,0.4,1.4,0.8c0.3,0.5,0.5,1,0.4,1.6C790.1,1134.9,789.3,1135.6,788.2,1135.6z"/>
				<g>
					<path class="st60" d="M788.2,1131.2v0.5c0.1,0,0.2,0,0.3,0c0.5,0.1,0.9,0.3,1.2,0.7c0.3,0.4,0.4,0.9,0.3,1.4
						c-0.1,0.9-0.9,1.6-1.8,1.6c-0.1,0-0.2,0-0.3,0c-0.5-0.1-0.9-0.3-1.2-0.7c-0.3-0.4-0.4-0.9-0.3-1.4c0.1-0.9,0.9-1.6,1.8-1.6
						V1131.2 M788.2,1131.2c-1.1,0-2.1,0.8-2.3,2c-0.2,1.3,0.7,2.5,2,2.7c0.1,0,0.3,0,0.4,0c1.1,0,2.1-0.8,2.3-2
						c0.2-1.3-0.7-2.5-2-2.7C788.5,1131.2,788.3,1131.2,788.2,1131.2L788.2,1131.2z"/>
				</g>
			</g>
			<g>
				<path class="st59" d="M789.7,1124.9c-0.1,0-0.2,0-0.3,0c-0.6-0.1-1-0.4-1.4-0.8c-0.3-0.5-0.5-1-0.4-1.6c0.2-1,1-1.8,2.1-1.8
					c0.1,0,0.2,0,0.3,0c0.6,0.1,1,0.4,1.4,0.8c0.3,0.5,0.5,1,0.4,1.6C791.6,1124.2,790.7,1124.9,789.7,1124.9z"/>
				<g>
					<path class="st60" d="M789.7,1120.4v0.5c0.1,0,0.2,0,0.3,0c0.5,0.1,0.9,0.3,1.2,0.7c0.3,0.4,0.4,0.9,0.3,1.4
						c-0.1,0.9-0.9,1.6-1.8,1.6c-0.1,0-0.2,0-0.3,0c-0.5-0.1-0.9-0.3-1.2-0.7c-0.3-0.4-0.4-0.9-0.3-1.4c0.1-0.9,0.9-1.6,1.8-1.6
						V1120.4 M789.7,1120.4c-1.1,0-2.1,0.8-2.3,2c-0.2,1.3,0.7,2.5,2,2.7c0.1,0,0.3,0,0.4,0c1.1,0,2.1-0.8,2.3-2
						c0.2-1.3-0.7-2.5-2-2.7C789.9,1120.5,789.8,1120.4,789.7,1120.4L789.7,1120.4z"/>
				</g>
			</g>
			<g>
				<path class="st59" d="M795.7,1115.4c-0.1,0-0.2,0-0.3,0c-0.6-0.1-1-0.4-1.4-0.8c-0.3-0.5-0.5-1-0.4-1.6c0.2-1,1-1.8,2.1-1.8
					c0.1,0,0.2,0,0.3,0c0.6,0.1,1,0.4,1.4,0.8c0.3,0.5,0.5,1,0.4,1.6C797.6,1114.6,796.7,1115.4,795.7,1115.4z"/>
				<g>
					<path class="st60" d="M795.7,1110.9v0.5c0.1,0,0.2,0,0.3,0c0.5,0.1,0.9,0.3,1.2,0.7c0.3,0.4,0.4,0.9,0.3,1.4
						c-0.1,0.9-0.9,1.6-1.8,1.6c-0.1,0-0.2,0-0.3,0c-0.5-0.1-0.9-0.3-1.2-0.7c-0.3-0.4-0.4-0.9-0.3-1.4c0.1-0.9,0.9-1.6,1.8-1.6
						V1110.9 M795.7,1110.9c-1.1,0-2.1,0.8-2.3,2c-0.2,1.3,0.7,2.5,2,2.7c0.1,0,0.3,0,0.4,0c1.1,0,2.1-0.8,2.3-2
						c0.2-1.3-0.7-2.5-2-2.7C795.9,1110.9,795.8,1110.9,795.7,1110.9L795.7,1110.9z"/>
				</g>
			</g>
		</g>
		<path class="st63" d="M857.1,1162.5c0,0,25.2-50.2-21.4-77.1c0,0-27.5-10.8-47.3,2.8c-19.8,13.6-24.8,35.7-25.4,55.4
			c0,0-4-6.8-1.5-22.7c2.5-15.9,18.1-49.7,61.7-44.7c0,0,49.8,6.7,44.7,61.7C867.8,1138,866.2,1152.1,857.1,1162.5z"/>
		<path class="st11" d="M773.6,1003.2c0,0,160.3,10.4,165.6,39.1c0,0,7.2,5.5,8.9,17.1c0,0,17.8,4.3,15.8,23.5
			c0,0-0.6,29.7,0.9,37.9c1.4,8.2-1.2,7.8-7.6,9.3c-6.3,1.5-53,5.3-80.1,5.7c0,0,8.8-48-40.8-69.2c0,0-26.9-9.5-50.1,2.5
			c-23.2,12-32.7,28.4-34.4,51.3s2.5,25.5,2.5,25.5s-6.9,3.6-15.1-14l-2.2-0.1c0,0,8.1-71.3-13.1-109.5c0,0,24.4-4.1,31.7-15.4
			C755.5,1007,767.3,1003.2,773.6,1003.2z"/>
		<path class="st64" d="M755.5,1007l135.2,18.6c0,0,28.9,4.3,35.8,13.9l12.7,2.8c0,0-2.2-13.8-35.9-21.2
			c-33.7-7.4-57.6-11.3-129.7-17.9C773.6,1003.2,762.8,1004,755.5,1007z"/>
		<path class="st64" d="M963.6,1093.6c0,0-41.6-0.6-49.5,2c0,0,36.4-26.9,33.8-38l1.8,2.7c0,0,13.8,4,14.3,16.9
			C964.5,1090.2,963.6,1093.6,963.6,1093.6z"/>
		<path class="st65" d="M877.1,1135.7c0,0,4.5-7.9,17.2-8.5c12.8-0.6,67.2-3.4,70.6-8.3c0,0,3.8,10.7-7.7,11.1
			C945.6,1130.4,877.1,1135.7,877.1,1135.7z"/>
		<path class="st65" d="M963.6,1093.6l0.2,2.4c0,0-48.5,0.8-56.8,7.2c0,0-3.7,1.8-5.8,5.7c0,0,1.2-8.2,12.9-13.3
			C914.1,1095.6,924.8,1093.3,963.6,1093.6z"/>
		<path class="st64" d="M964.9,1118.9c0,0-1.4,1.5-5.1,1.9c-3.7,0.5-65.8,0.8-58.6-11.9c0,0,2.4-4.1,7.7-6.5c0,0-8.6,7.2,0.3,9.9
			S951.8,1120.1,964.9,1118.9z"/>
		<path class="st66" d="M963.8,1096c0,0,0.2,16.1,1.1,22.9c0,0-30.7,0.4-55.7-6.6c0,0-8.8-3.8-0.3-9.9
			C917.4,1096.3,963.8,1096,963.8,1096z"/>
		<path class="st28" d="M939.2,1042.3c0,0-6-1.3-15.2-2.9c-11.9-2.1-29-4.8-45.3-6.2c0,0-11.7,0.9-6.8,5.3
			c4.9,4.4,20.4,18.8,20.4,18.8l14.6,6.5c0,0,43.1,3.4,41.1-6.2C945.8,1048.1,939.2,1042.3,939.2,1042.3z"/>
		<path class="st67" d="M923.3,1042.2c0,0,11.5,12.2,2.5,22c0,0,24,2,22.1-6.6c-2.6-11.3-8.6-15.3-8.6-15.3l-28.9-5.3
			C910.3,1037.1,920.2,1038.6,923.3,1042.2z"/>
		<path class="st11" d="M755.5,1007c0,0-78.4-42.2-124.9-53.3l14.1-7.1c0,0-60.8-16.2-146.2-7.9s-140.7,28-140.7,28l14.2,4.1
			l-94.1,48.8l-19.4-1.1l-64.9,18.7c0,0-4.7,13.7-1.2,16.4l2.5-4.3c0,0,27.9,1.2,38.5,16.2c10.6,15,16.8,25.4,16.8,25.4
			s4.9,7.6,13.7,9c8.8,1.4,50.7,9.9,50.7,9.9s30.9-30,77.4-8.2l13.1-5.1l-33.4-45.7c0,0-0.5-12.7,2.2-15.9c2.7-3.2,3.5-8.4,3.5-8.4
			s-34.4-10.2-23.2-19.6s58.1-34,58.1-34s90.8-15.4,109.6-16c18.8-0.6,106,4.3,140.7,19.3c34.7,14.9,65.1,27.7,78.6,36
			c0,0,2,4-1.1,5.4C740.3,1017.5,752,1015.8,755.5,1007z"/>
		<path class="st68" d="M375.2,971.2c51.4-15.5,58.3-14.2,126.4-23.2c68.1-9.1,129.1,5.7,129.1,5.7"/>
		<path class="st69" d="M278,1019.5c0,0-26.4,13.6-61.4,19.2l-19.6,3.7l-2,6.7"/>
		<g>
			<path class="st70" d="M197.1,1042.4l175-1.2c0,0,0.2-3.4,2-6.4c1.8-3,3-6.2,3.5-8.4l-119.9,1.8
				C257.6,1028.2,236.2,1036.6,197.1,1042.4z"/>
		</g>
		<g>
			<path class="st71" d="M443.7,956.3c0,0-29.4,10.2-31.3,16.6l-58.1,34l11,15.3l-86.3-1.7C279,1020.4,357.7,965.4,443.7,956.3z"/>
		</g>
		<path class="st64" d="M571.1,955.3c0,0,45.7,2.7,67.7,0.5c0,0,52.8,16.3,101.7,43.6c0,0-0.1,7.1-7.4,8.8l-70.3-32
			c0,0-26-11.8-71-14.7l-26.1-3.1L571.1,955.3z"/>
		<path class="st11" d="M723.8,1022.3c0,0-315.8,6.3-346.3,4.1c0,0-0.9,5.2-3.5,8.4c0,0-1.9,3.3-2,6.4l-0.2,9.5l33.4,45.7l-13.1,5.1
			c0,0,36.1,20.8,28.7,62.9c0,0,1.4,1.5,12.9,0.8c11.5-0.8,320.5-19.3,320.5-19.3s-6.8,1.9-15.1-14l-2.2-0.1
			C736.9,1131.8,746.5,1063,723.8,1022.3z"/>
		<g>
			<path class="st70" d="M378.2,1041.6l352.1-4.2c0,0-2.4-8.2-6.5-15l-346.3,4.1c0,0-0.4,5-3.5,8.4c0,0-2,3.3-2,6.4L378.2,1041.6z"
				/>
		</g>
		<path class="st65" d="M405.2,1096.4l25.9,34.3c0,0,5.8,18.5,37.6,16.9s268.2-15.8,268.2-15.8l2.2,0.1c0,0,5.6,13.9,15.1,14
			l-320.5,19.3c0,0-9.9,1.2-12.9-0.8c0,0,8.6-38.2-28.7-62.9L405.2,1096.4z"/>
		<path class="st72" d="M558.8,1048c0,0-5.7,4.2,0.6,5c6.3,0.8,29.7-1.5,29.7-1.5s5.6-2.7-1.7-4.7L558.8,1048z"/>
		<path class="st72" d="M412.8,1052.9c0,0-5.7,4.2,0.6,5c6.3,0.8,29.7-1.5,29.7-1.5s5.6-2.7-1.7-4.7L412.8,1052.9z"/>
		<path class="st73" d="M582.6,1054c0,0-4.2,6.8-15.1,0.4"/>
		<path class="st74" d="M581.3,1045.5c0,0-6.7-6.5-14.6,0.5"/>
		<path class="st73" d="M436.1,1059c0,0-4.2,6.8-15.1,0.4"/>
		<path class="st74" d="M434.9,1050.6c0,0-6.7-6.5-14.6,0.5"/>
		<g>
			<path class="st71" d="M738.8,1090.2c0,0-6,25.6-25.8,26.3c-19.8,0.7-246.4,12.6-246.4,12.6s-30.2,3.3-50-17.6l14.4,19.2
				c0,0,4.7,18.2,37.6,16.9s268.2-15.8,268.2-15.8S739,1116.5,738.8,1090.2z"/>
		</g>
		<circle class="st14" cx="359.4" cy="1160.3" r="53.9"/>
		<g>
			<g>
				<path class="st54" d="M359.7,1197.8c-1.8,0-3.7-0.1-5.6-0.4c-9.2-1.5-17.3-6.4-22.8-14c-5.5-7.6-7.7-16.8-6.2-26
					c2.7-17,17.2-29.4,34.4-29.4c1.8,0,3.7,0.1,5.6,0.4c9.2,1.5,17.3,6.4,22.8,14c5.5,7.6,7.7,16.8,6.2,26
					C391.4,1185.5,376.9,1197.8,359.7,1197.8z"/>
				<path class="st55" d="M359.6,1129.5c1.8,0,3.5,0.1,5.3,0.4c18.2,2.9,30.6,20,27.7,38.3c-2.6,16.4-16.8,28.1-32.9,28.1
					c-1.8,0-3.5-0.1-5.3-0.4c-18.2-2.9-30.6-20-27.7-38.3C329.3,1141.2,343.5,1129.5,359.6,1129.5 M359.6,1126.5L359.6,1126.5
					c-8.6,0-16.9,3.1-23.5,8.6c-6.6,5.6-11.1,13.4-12.4,22c-3.2,19.8,10.4,38.5,30.2,41.7c1.9,0.3,3.9,0.5,5.8,0.5
					c8.6,0,16.9-3.1,23.5-8.6c6.6-5.6,11.1-13.4,12.4-22c1.5-9.6-0.8-19.2-6.5-27.1c-5.7-7.9-14.1-13.1-23.7-14.6
					C363.5,1126.7,361.5,1126.5,359.6,1126.5L359.6,1126.5z"/>
			</g>
			<g>
				<path class="st56" d="M359.6,1182.3c-1,0-2-0.1-3-0.2c-5-0.8-9.4-3.5-12.4-7.6c-3-4.1-4.2-9.1-3.4-14.2c1.5-9.3,9.4-16,18.8-16
					c1,0,2,0.1,3,0.2c5,0.8,9.4,3.5,12.4,7.6c3,4.1,4.2,9.1,3.4,14.2C376.9,1175.6,369,1182.3,359.6,1182.3z"/>
				<path class="st57" d="M359.6,1145.3L359.6,1145.3c1,0,1.9,0.1,2.9,0.2c9.8,1.6,16.5,10.8,15,20.6c-1.4,8.8-8.9,15.2-17.8,15.2
					c-1,0-1.9-0.1-2.9-0.2c-9.8-1.6-16.5-10.8-15-20.6C343.2,1151.6,350.7,1145.3,359.6,1145.3 M359.6,1143.3
					c-9.7,0-18.2,7-19.8,16.9c-1.7,10.9,5.7,21.2,16.6,22.9c1.1,0.2,2.1,0.3,3.2,0.3c9.7,0,18.2-7,19.8-16.9
					c1.7-10.9-5.7-21.2-16.6-22.9C361.7,1143.3,360.6,1143.3,359.6,1143.3L359.6,1143.3z"/>
			</g>
			<circle class="st58" cx="359.9" cy="1163.3" r="6.7"/>
			<g>
				<path class="st59" d="M351.5,1140.6c-0.1,0-0.2,0-0.3,0c-0.6-0.1-1-0.4-1.4-0.8c-0.3-0.5-0.5-1-0.4-1.6c0.2-1,1-1.8,2.1-1.8
					c0.1,0,0.2,0,0.3,0c1.1,0.2,1.9,1.3,1.7,2.4C353.5,1139.9,352.6,1140.6,351.5,1140.6z"/>
				<path class="st60" d="M351.5,1136.2v0.5c0.1,0,0.2,0,0.3,0c0.5,0.1,0.9,0.3,1.2,0.7c0.3,0.4,0.4,0.9,0.3,1.4
					c-0.1,0.9-0.9,1.6-1.8,1.6c-0.1,0-0.2,0-0.3,0c-0.5-0.1-0.9-0.3-1.2-0.7c-0.3-0.4-0.4-0.9-0.3-1.4c0.1-0.9,0.9-1.6,1.8-1.6
					V1136.2 M351.5,1136.2c-1.1,0-2.1,0.8-2.3,2c-0.2,1.3,0.7,2.5,2,2.7c0.1,0,0.3,0,0.4,0c1.1,0,2.1-0.8,2.3-2
					c0.2-1.3-0.7-2.5-2-2.7C351.8,1136.2,351.7,1136.2,351.5,1136.2L351.5,1136.2z"/>
			</g>
			<g>
				<path class="st59" d="M365.8,1139.8c-0.1,0-0.2,0-0.3,0c-1.1-0.2-1.9-1.3-1.7-2.4c0.2-1,1-1.8,2.1-1.8c0.1,0,0.2,0,0.3,0
					c0.6,0.1,1,0.4,1.4,0.8c0.3,0.5,0.5,1,0.4,1.6C367.7,1139.1,366.8,1139.8,365.8,1139.8z"/>
				<g>
					<path class="st60" d="M365.8,1135.8L365.8,1135.8c0.1,0,0.2,0,0.3,0c0.5,0.1,0.9,0.3,1.2,0.7c0.3,0.4,0.4,0.9,0.3,1.4
						c-0.1,0.9-0.9,1.6-1.8,1.6c-0.1,0-0.2,0-0.3,0c-1-0.2-1.7-1.1-1.5-2.1C364.1,1136.5,364.9,1135.8,365.8,1135.8 M365.8,1135.3
						c-1.1,0-2.1,0.8-2.3,2c-0.2,1.3,0.7,2.5,2,2.7c0.1,0,0.3,0,0.4,0c1.1,0,2.1-0.8,2.3-2c0.2-1.3-0.7-2.5-2-2.7
						C366,1135.4,365.9,1135.3,365.8,1135.3L365.8,1135.3z"/>
				</g>
			</g>
			<g>
				<path class="st61" d="M361.4,1152.7c-0.1,0-0.1,0-0.2,0c-0.7-0.1-1.2-0.8-1.1-1.5c0.1-0.6,0.6-1.1,1.3-1.1c0.1,0,0.1,0,0.2,0
					c0.7,0.1,1.2,0.8,1.1,1.5C362.6,1152.3,362,1152.7,361.4,1152.7z"/>
				<g>
					<path class="st62" d="M361.4,1150.4L361.4,1150.4c0.1,0,0.1,0,0.2,0c0.6,0.1,1,0.6,0.9,1.2c-0.1,0.5-0.5,0.9-1,0.9
						c-0.1,0-0.1,0-0.2,0c-0.6-0.1-1-0.6-0.9-1.2C360.4,1150.7,360.9,1150.4,361.4,1150.4 M361.4,1149.9c-0.8,0-1.4,0.5-1.5,1.3
						c-0.1,0.8,0.4,1.6,1.3,1.8c0.1,0,0.2,0,0.2,0c0.8,0,1.4-0.5,1.5-1.3c0.1-0.8-0.4-1.6-1.3-1.8
						C361.6,1149.9,361.5,1149.9,361.4,1149.9L361.4,1149.9z"/>
				</g>
			</g>
			<g>
				<path class="st61" d="M371,1166c-0.1,0-0.1,0-0.2,0c-0.3-0.1-0.6-0.2-0.9-0.5c-0.2-0.3-0.3-0.6-0.2-1c0.1-0.6,0.6-1.1,1.3-1.1
					c0.1,0,0.1,0,0.2,0c0.7,0.1,1.2,0.8,1.1,1.5C372.2,1165.6,371.7,1166,371,1166z"/>
				<g>
					<path class="st62" d="M371,1163.7L371,1163.7c0.1,0,0.1,0,0.2,0c0.3,0,0.5,0.2,0.7,0.4c0.2,0.2,0.2,0.5,0.2,0.8
						c-0.1,0.5-0.5,0.9-1,0.9c-0.1,0-0.1,0-0.2,0c-0.3,0-0.5-0.2-0.7-0.4c-0.2-0.2-0.2-0.5-0.2-0.8
						C370.1,1164,370.5,1163.7,371,1163.7 M371,1163.2c-0.8,0-1.4,0.5-1.5,1.3c-0.1,0.8,0.4,1.6,1.3,1.8c0.1,0,0.2,0,0.2,0
						c0.8,0,1.4-0.5,1.5-1.3c0.1-0.8-0.4-1.6-1.3-1.8C371.2,1163.2,371.1,1163.2,371,1163.2L371,1163.2z"/>
				</g>
			</g>
			<g>
				<path class="st61" d="M358,1175.3c-0.1,0-0.1,0-0.2,0c-0.7-0.1-1.2-0.8-1.1-1.5c0.1-0.6,0.6-1.1,1.3-1.1c0.1,0,0.1,0,0.2,0
					c0.7,0.1,1.2,0.8,1.1,1.5C359.2,1174.8,358.6,1175.3,358,1175.3z"/>
				<g>
					<path class="st62" d="M358,1172.9L358,1172.9c0.1,0,0.1,0,0.2,0c0.3,0,0.5,0.2,0.7,0.4c0.2,0.2,0.2,0.5,0.2,0.8
						c-0.1,0.5-0.5,0.9-1,0.9c-0.1,0-0.1,0-0.2,0c-0.6-0.1-1-0.6-0.9-1.2C357,1173.3,357.5,1172.9,358,1172.9 M358,1172.4
						c-0.8,0-1.4,0.5-1.5,1.3c-0.1,0.8,0.4,1.6,1.3,1.8c0.1,0,0.2,0,0.2,0c0.8,0,1.4-0.5,1.5-1.3c0.1-0.8-0.4-1.6-1.3-1.8
						C358.1,1172.4,358.1,1172.4,358,1172.4L358,1172.4z"/>
				</g>
			</g>
			<g>
				<path class="st61" d="M348,1163c-0.1,0-0.1,0-0.2,0c-0.7-0.1-1.2-0.8-1.1-1.5c0.1-0.6,0.6-1.1,1.3-1.1c0.1,0,0.1,0,0.2,0
					c0.7,0.1,1.2,0.8,1.1,1.5C349.2,1162.6,348.7,1163,348,1163z"/>
				<g>
					<path class="st62" d="M348,1160.7L348,1160.7c0.1,0,0.1,0,0.2,0c0.6,0.1,1,0.6,0.9,1.2c-0.1,0.5-0.5,0.9-1,0.9
						c-0.1,0-0.1,0-0.2,0c-0.6-0.1-1-0.6-0.9-1.2C347.1,1161,347.5,1160.7,348,1160.7 M348,1160.2c-0.8,0-1.4,0.5-1.5,1.3
						c-0.1,0.8,0.4,1.6,1.3,1.8c0.1,0,0.2,0,0.2,0c0.8,0,1.4-0.5,1.5-1.3c0.1-0.8-0.4-1.6-1.3-1.8
						C348.2,1160.2,348.1,1160.2,348,1160.2L348,1160.2z"/>
				</g>
			</g>
			<g>
				<path class="st59" d="M379.1,1147.5c-0.1,0-0.2,0-0.3,0c-1.1-0.2-1.9-1.3-1.7-2.4c0.2-1,1-1.8,2.1-1.8c0.1,0,0.2,0,0.3,0
					c1.1,0.2,1.9,1.3,1.7,2.4C381,1146.7,380.1,1147.5,379.1,1147.5z"/>
				<g>
					<path class="st60" d="M379,1143.5L379,1143.5c0.1,0,0.2,0,0.3,0c0.5,0.1,0.9,0.3,1.2,0.7c0.3,0.4,0.4,0.9,0.3,1.4
						c-0.1,0.9-0.9,1.6-1.8,1.6c-0.1,0-0.2,0-0.3,0c-1-0.2-1.7-1.1-1.5-2.1C377.4,1144.2,378.1,1143.5,379,1143.5 M379,1143
						c-1.1,0-2.1,0.8-2.3,2c-0.2,1.3,0.7,2.5,2,2.7c0.1,0,0.3,0,0.4,0c1.1,0,2.1-0.8,2.3-2c0.2-1.3-0.7-2.5-2-2.7
						C379.3,1143,379.2,1143,379,1143L379,1143z"/>
				</g>
			</g>
			<g>
				<path class="st59" d="M385,1158.2c-0.1,0-0.2,0-0.3,0c-0.6-0.1-1-0.4-1.4-0.8c-0.3-0.5-0.5-1-0.4-1.6c0.2-1,1-1.8,2.1-1.8
					c0.1,0,0.2,0,0.3,0c0.6,0.1,1,0.4,1.4,0.8c0.3,0.5,0.5,1,0.4,1.6C386.9,1157.5,386,1158.2,385,1158.2z"/>
				<g>
					<path class="st60" d="M385,1153.7v0.5c0.1,0,0.2,0,0.3,0c0.5,0.1,0.9,0.3,1.2,0.7c0.3,0.4,0.4,0.9,0.3,1.4
						c-0.1,0.9-0.9,1.6-1.8,1.6c-0.1,0-0.2,0-0.3,0c-0.5-0.1-0.9-0.3-1.2-0.7c-0.3-0.4-0.4-0.9-0.3-1.4c0.1-0.9,0.9-1.6,1.8-1.6
						V1153.7 M385,1153.7c-1.1,0-2.1,0.8-2.3,2c-0.2,1.3,0.7,2.5,2,2.7c0.1,0,0.3,0,0.4,0c1.1,0,2.1-0.8,2.3-2
						c0.2-1.3-0.7-2.5-2-2.7C385.3,1153.7,385.1,1153.7,385,1153.7L385,1153.7z"/>
				</g>
			</g>
			<g>
				<path class="st59" d="M385,1171.1c-0.1,0-0.2,0-0.3,0c-1.1-0.2-1.9-1.3-1.7-2.4c0.2-1,1-1.8,2.1-1.8c0.1,0,0.2,0,0.3,0
					c1.1,0.2,1.9,1.3,1.7,2.4C386.9,1170.3,386,1171.1,385,1171.1z"/>
				<g>
					<path class="st60" d="M385,1166.6v0.5c0.1,0,0.2,0,0.3,0c0.5,0.1,0.9,0.3,1.2,0.7c0.3,0.4,0.4,0.9,0.3,1.4
						c-0.1,0.9-0.9,1.6-1.8,1.6c-0.1,0-0.2,0-0.3,0c-0.5-0.1-0.9-0.3-1.2-0.7c-0.3-0.4-0.4-0.9-0.3-1.4c0.1-0.9,0.9-1.6,1.8-1.6
						V1166.6 M385,1166.6c-1.1,0-2.1,0.8-2.3,2c-0.2,1.3,0.7,2.5,2,2.7c0.1,0,0.3,0,0.4,0c1.1,0,2.1-0.8,2.3-2
						c0.2-1.3-0.7-2.5-2-2.7C385.2,1166.6,385.1,1166.6,385,1166.6L385,1166.6z"/>
				</g>
			</g>
			<g>
				<path class="st59" d="M379.5,1182.2c-0.1,0-0.2,0-0.3,0c-1.1-0.2-1.9-1.3-1.7-2.4c0.2-1,1-1.8,2.1-1.8c0.1,0,0.2,0,0.3,0
					c1.1,0.2,1.9,1.3,1.7,2.4C381.4,1181.4,380.5,1182.2,379.5,1182.2z"/>
				<g>
					<path class="st60" d="M379.4,1178.2L379.4,1178.2c0.1,0,0.2,0,0.3,0c0.5,0.1,0.9,0.3,1.2,0.7c0.3,0.4,0.4,0.9,0.3,1.4
						c-0.1,0.9-0.9,1.6-1.8,1.6c-0.1,0-0.2,0-0.3,0c-1-0.2-1.7-1.1-1.5-2.1C377.8,1178.9,378.5,1178.2,379.4,1178.2 M379.4,1177.7
						c-1.1,0-2.1,0.8-2.3,2c-0.2,1.3,0.7,2.5,2,2.7c0.1,0,0.3,0,0.4,0c1.1,0,2.1-0.8,2.3-2c0.2-1.3-0.7-2.5-2-2.7
						C379.7,1177.7,379.6,1177.7,379.4,1177.7L379.4,1177.7z"/>
				</g>
			</g>
			<g>
				<path class="st59" d="M368.6,1189.6c-0.1,0-0.2,0-0.3,0c-1.1-0.2-1.9-1.3-1.7-2.4c0.2-1,1-1.8,2.1-1.8c0.1,0,0.2,0,0.3,0
					c1.1,0.2,1.9,1.3,1.7,2.4C370.5,1188.9,369.6,1189.6,368.6,1189.6z"/>
				<g>
					<path class="st60" d="M368.6,1185.2v0.5c0.1,0,0.2,0,0.3,0c1,0.2,1.7,1.1,1.5,2.1c-0.1,0.9-0.9,1.6-1.8,1.6c-0.1,0-0.2,0-0.3,0
						c-1-0.2-1.7-1.1-1.5-2.1c0.1-0.9,0.9-1.6,1.8-1.6V1185.2 M368.6,1185.2c-1.1,0-2.1,0.8-2.3,2c-0.2,1.3,0.7,2.5,2,2.7
						c0.1,0,0.3,0,0.4,0c1.1,0,2.1-0.8,2.3-2c0.2-1.3-0.7-2.5-2-2.7C368.8,1185.2,368.7,1185.2,368.6,1185.2L368.6,1185.2z"/>
				</g>
			</g>
			<g>
				<path class="st59" d="M355.6,1191.6c-0.1,0-0.2,0-0.3,0c-0.6-0.1-1-0.4-1.4-0.8c-0.3-0.5-0.5-1-0.4-1.6c0.2-1,1-1.8,2.1-1.8
					c0.1,0,0.2,0,0.3,0c0.6,0.1,1,0.4,1.4,0.8c0.3,0.5,0.5,1,0.4,1.6C357.5,1190.8,356.6,1191.6,355.6,1191.6z"/>
				<g>
					<path class="st60" d="M355.6,1187.1v0.5c0.1,0,0.2,0,0.3,0c1,0.2,1.7,1.1,1.5,2.1c-0.1,0.9-0.9,1.6-1.8,1.6c-0.1,0-0.2,0-0.3,0
						c-0.5-0.1-0.9-0.3-1.2-0.7c-0.3-0.4-0.4-0.9-0.3-1.4c0.1-0.9,0.9-1.6,1.8-1.6V1187.1 M355.6,1187.1c-1.1,0-2.1,0.8-2.3,2
						c-0.2,1.3,0.7,2.5,2,2.7c0.1,0,0.3,0,0.4,0c1.1,0,2.1-0.8,2.3-2c0.2-1.3-0.7-2.5-2-2.7C355.8,1187.1,355.7,1187.1,355.6,1187.1
						L355.6,1187.1z"/>
				</g>
			</g>
			<g>
				<path class="st59" d="M344.7,1187.3c-0.1,0-0.2,0-0.3,0c-1.1-0.2-1.9-1.3-1.7-2.4c0.2-1,1-1.8,2.1-1.8c0.1,0,0.2,0,0.3,0
					c0.6,0.1,1,0.4,1.4,0.8c0.3,0.5,0.5,1,0.4,1.6C346.6,1186.5,345.7,1187.3,344.7,1187.3z"/>
				<g>
					<path class="st60" d="M344.7,1183.3L344.7,1183.3c0.1,0,0.2,0,0.3,0c0.5,0.1,0.9,0.3,1.2,0.7c0.3,0.4,0.4,0.9,0.3,1.4
						c-0.1,0.9-0.9,1.6-1.8,1.6c-0.1,0-0.2,0-0.3,0c-1-0.2-1.7-1.1-1.5-2.1C343,1183.9,343.7,1183.3,344.7,1183.3 M344.7,1182.8
						c-1.1,0-2.1,0.8-2.3,2c-0.2,1.3,0.7,2.5,2,2.7c0.1,0,0.3,0,0.4,0c1.1,0,2.1-0.8,2.3-2c0.2-1.3-0.7-2.5-2-2.7
						C344.9,1182.8,344.8,1182.8,344.7,1182.8L344.7,1182.8z"/>
				</g>
			</g>
			<g>
				<path class="st59" d="M336.6,1178c-0.1,0-0.2,0-0.3,0c-1.1-0.2-1.9-1.3-1.7-2.4c0.2-1,1-1.8,2.1-1.8c0.1,0,0.2,0,0.3,0
					c0.6,0.1,1,0.4,1.4,0.8c0.3,0.5,0.5,1,0.4,1.6C338.5,1177.2,337.6,1178,336.6,1178z"/>
				<g>
					<path class="st60" d="M336.6,1174L336.6,1174c0.1,0,0.2,0,0.3,0c0.5,0.1,0.9,0.3,1.2,0.7c0.3,0.4,0.4,0.9,0.3,1.4
						c-0.1,0.9-0.9,1.6-1.8,1.6c-0.1,0-0.2,0-0.3,0c-1-0.2-1.7-1.1-1.5-2.1C334.9,1174.7,335.6,1174,336.6,1174 M336.6,1173.5
						c-1.1,0-2.1,0.8-2.3,2c-0.2,1.3,0.7,2.5,2,2.7c0.1,0,0.3,0,0.4,0c1.1,0,2.1-0.8,2.3-2c0.2-1.3-0.7-2.5-2-2.7
						C336.8,1173.5,336.7,1173.5,336.6,1173.5L336.6,1173.5z"/>
				</g>
			</g>
			<g>
				<path class="st59" d="M333,1166.5c-0.1,0-0.2,0-0.3,0c-0.6-0.1-1-0.4-1.4-0.8c-0.3-0.5-0.5-1-0.4-1.6c0.2-1,1-1.8,2.1-1.8
					c0.1,0,0.2,0,0.3,0c0.6,0.1,1,0.4,1.4,0.8c0.3,0.5,0.5,1,0.4,1.6C334.9,1165.8,334,1166.5,333,1166.5z"/>
				<g>
					<path class="st60" d="M333,1162.6L333,1162.6c0.1,0,0.2,0,0.3,0c0.5,0.1,0.9,0.3,1.2,0.7c0.3,0.4,0.4,0.9,0.3,1.4
						c-0.1,0.9-0.9,1.6-1.8,1.6c-0.1,0-0.2,0-0.3,0c-1-0.2-1.7-1.1-1.5-2.1C331.3,1163.2,332.1,1162.6,333,1162.6 M333,1162.1
						c-1.1,0-2.1,0.8-2.3,2c-0.2,1.3,0.7,2.5,2,2.7c0.1,0,0.3,0,0.4,0c1.1,0,2.1-0.8,2.3-2c0.2-1.3-0.7-2.5-2-2.7
						C333.3,1162.1,333.1,1162.1,333,1162.1L333,1162.1z"/>
				</g>
			</g>
			<g>
				<path class="st59" d="M334.5,1155.8c-0.1,0-0.2,0-0.3,0c-0.6-0.1-1-0.4-1.4-0.8c-0.3-0.5-0.5-1-0.4-1.6c0.2-1,1-1.8,2.1-1.8
					c0.1,0,0.2,0,0.3,0c0.6,0.1,1,0.4,1.4,0.8c0.3,0.5,0.5,1,0.4,1.6C336.4,1155,335.5,1155.8,334.5,1155.8z"/>
				<g>
					<path class="st60" d="M334.4,1151.8L334.4,1151.8c0.1,0,0.2,0,0.3,0c0.5,0.1,0.9,0.3,1.2,0.7c0.3,0.4,0.4,0.9,0.3,1.4
						c-0.1,0.9-0.9,1.6-1.8,1.6c-0.1,0-0.2,0-0.3,0c-1-0.2-1.7-1.1-1.5-2.1C332.8,1152.5,333.5,1151.8,334.4,1151.8 M334.4,1151.3
						c-1.1,0-2.1,0.8-2.3,2c-0.2,1.3,0.7,2.5,2,2.7c0.1,0,0.3,0,0.4,0c1.1,0,2.1-0.8,2.3-2c0.2-1.3-0.7-2.5-2-2.7
						C334.7,1151.3,334.6,1151.3,334.4,1151.3L334.4,1151.3z"/>
				</g>
			</g>
			<g>
				<path class="st59" d="M340.4,1146.3c-0.1,0-0.2,0-0.3,0c-1.1-0.2-1.9-1.3-1.7-2.4c0.2-1,1-1.8,2.1-1.8c0.1,0,0.2,0,0.3,0
					c1.1,0.2,1.9,1.3,1.7,2.4C342.4,1145.5,341.5,1146.3,340.4,1146.3z"/>
				<g>
					<path class="st60" d="M340.4,1141.8v0.5c0.1,0,0.2,0,0.3,0c1,0.2,1.7,1.1,1.5,2.1c-0.1,0.9-0.9,1.6-1.8,1.6c-0.1,0-0.2,0-0.3,0
						c-1-0.2-1.7-1.1-1.5-2.1c0.1-0.9,0.9-1.6,1.8-1.6V1141.8 M340.4,1141.8c-1.1,0-2.1,0.8-2.3,2c-0.2,1.3,0.7,2.5,2,2.7
						c0.1,0,0.3,0,0.4,0c1.1,0,2.1-0.8,2.3-2c0.2-1.3-0.7-2.5-2-2.7C340.7,1141.8,340.6,1141.8,340.4,1141.8L340.4,1141.8z"/>
				</g>
			</g>
		</g>
		<path class="st63" d="M401.8,1193.4c0,0,25.2-50.2-21.4-77.1c0,0-27.5-10.8-47.3,2.8c-19.8,13.6-24.8,35.7-25.4,55.4
			c0,0-4-6.8-1.5-22.7s18.1-49.7,61.7-44.7c0,0,49.8,6.7,44.7,61.7C412.6,1168.8,411,1183,401.8,1193.4z"/>
		<path class="st68" d="M543.3,1025c0,0,16.6,51.8,14.8,117.2"/>
		<g>
			<path class="st70" d="M296.8,1169.3c-5.9,0-51.3-0.4-84.3-3.3c-8.6-0.7-15.5-4.2-20.5-10.3c-11.6-14-10.1-37.5-9.9-40.2l10.3-5.8
				l1.2-17.5l0.2-1.9c3.4,0.4,23.5,2.7,37.1,3c0.2,0,0.6,0,0.6,0c5,0,8.9-1.3,11.3-3.9c2-2.1,2.6-4.5,2.8-6.1l3.3,4.6
				c4.1,8.6,14.8,12,15.2,12.2l49.6,10C289.4,1131.7,295.7,1164.3,296.8,1169.3z"/>
			<g>
				<path class="st65" d="M245.9,1084.5l2.6,3.6c4.2,8.8,15.1,12.3,15.6,12.4l0.1,0l0.1,0l48.5,9.8c-13.1,12.1-16.9,27.4-17.8,38.2
					c-0.7,9.6,0.6,17.4,1.3,20.3c-8-0.1-51.6-0.5-83.6-3.3c-8.4-0.7-15.2-4.2-20.2-10.2c-6.3-7.6-8.6-18.1-9.4-25.5
					c-0.8-6.8-0.4-12.4-0.3-14.1l9.8-5.5l0.5-0.3l0-0.5l1.1-17.2l0.1-1.4c4.6,0.5,23.5,2.6,36.6,2.9c0.2,0,0.4,0,0.6,0
					c5.2,0,9.1-1.4,11.7-4.1C244.8,1087.9,245.5,1086,245.9,1084.5 M245.2,1081.8c0,0,0.6,10.9-13.7,10.9c-0.2,0-0.4,0-0.6,0
					c-15-0.3-37.5-3-37.5-3l-0.2,2.4l-1.1,17.2l-10.3,5.8c0,0-4.8,48.3,30.8,51.4c35.6,3.1,85,3.3,85,3.3s-9.9-36.6,17.4-60.1
					l-50.5-10.2c0,0-10.9-3.4-15-12L245.2,1081.8L245.2,1081.8z"/>
			</g>
		</g>
		<path class="st11" d="M239.4,1116.3c0,0,28.6,1.8,32.1-14.2l42.4,8.5c0,0-19.6,14.8-18,42.6l-102.6,5.2c0,0-13.5-12.4-11.6-43.3
			l10.3-5.8C191.9,1109.4,209.3,1118.4,239.4,1116.3z"/>
		<path class="st65" d="M297.4,1169.8l-1.6-16.6l-102.6,5.2c0,0,7.3,7.2,19.2,8.1S297.4,1169.8,297.4,1169.8z"/>
		<path class="st10" d="M630.5,954.6c0,0,28.5,6.5,63.7,22.2s56.2,27.7,56.2,27.7s3.1,2.9,9.5,2c6.4-0.8,15.6-2.1,15.6-2.1
			s-69.9-43.2-129.8-57.2c0,0-2.5-1.1-5.4,0.3S630.5,954.6,630.5,954.6z"/>
		<path d="M732.7,1006.3c0,0,19.5,10.3,8.5,13.9l-16.7,3c0,0-7.3,0-15.1-0.3c-7.8-0.3-322.1,5.4-322.1,5.4s-17.7,0-28.8-7.1
			c-11.1-7.1-11.8-9.3-3.4-15.4c8.4-6.1,39.3-24.6,39.3-24.6s23.1-13.3,50.4-17.5c27.3-4.2,59.3-9.7,121-8.3
			C627.6,956.7,690.1,980.4,732.7,1006.3z"/>
		<path class="st75" d="M535.2,958.9l17.6,62.7l133.5-1.8l-0.5-29.8c0,0,1-2.9-6.2-5.5C672.5,982,609.4,953.1,535.2,958.9z"/>
		<path class="st75" d="M519.5,960.1c0,0,5.1,38.4,12.4,61.2l-127.9,2.8l-4.3-22.6c0,0,1-20.4,21.5-27.7
			C446,965.1,519.5,960.1,519.5,960.1z"/>
		<path class="st76" d="M527,958.7c0,0,7.8,40.7,15.8,62.7"/>
		<path class="st77" d="M679.8,996.9l-2.4,14.8c0,0,1.6,6.3,12.5,6.7s23.7-3.2,23.7-3.2s6.5-4.1,0.5-8.8s-10.9-9.2-24.4-11.6
			C681.5,993.2,679.8,996.9,679.8,996.9z"/>
		<path class="st78" d="M535.2,958.9l17.6,62.7c0,0,52.8-45.4,132.8-27.3l0.3-4.3c0,0,0.9-2.5-6.2-5.5
			C672.6,981.7,603.4,952.5,535.2,958.9z"/>
		<path class="st9" d="M630.5,954.6c0,0,81,15.4,144.9,49.8c0,0-66.3-41.9-129.8-57.2c0,0-3.1-1.5-6.9,1.3
			C634.9,951.4,630.5,954.6,630.5,954.6z"/>
		<path class="st79" d="M357.1,966.7l18.3,3.8c0,0-53.8,28.3-94.7,49.8l-22.4-1.8C258.3,1018.5,309.7,986.9,357.1,966.7z"/>
		<path class="st28" d="M190.4,1048.7l26.4,3.9c0,0,7.2-0.3,15.1,10.2c7.9,10.6,12.4,17.5,12.4,17.5s3.7,9.9-6.3,12.3
			s-45.8-1.1-45.8-1.1S187,1088.9,190.4,1048.7z"/>
		<path class="st67" d="M194.2,1065.5c0,0,36.4,4.2,40.7,1.1c0,0-6.8-12.8-18.1-14.6c-11.3-1.8-26.5-3.9-26.5-3.9l-0.7,16.4
			C189.6,1064.6,191.3,1065.1,194.2,1065.5z"/>
		<path class="st67" d="M243,1078.2c0,0-9.1,13-53.4,1.8c0,0,0.4,9.9,2.7,11.6c0,0,33,4.1,44.8,1.9
			C237,1093.5,251.4,1090,243,1078.2z"/>
		<path class="st80" d="M258.3,1018.5c0,0,63.2-36.9,91.2-34.4l28.4-12.9l-20.7-4.4C357.1,966.7,315.2,983.2,258.3,1018.5z"/>
		<path class="st78" d="M521.2,971.8c0,0-93.6,6.9-100.1,52.2l-17.2,0.2l-4.3-22.6c0,0-3.3-18.6,21-27.8
			c26.8-10.2,98.8-13.7,98.8-13.7L521.2,971.8z"/>
		<g>
			<path class="st71" d="M730.3,1037.3c0,0,81.7-4.7,141.6,1.2l20.4,18.8l14.6,6.5l-28,1.4c0,0-4.7-11.9-28.1-14.8
				s-53.4-0.4-93.9,13.1c0,0-7.8,1.8-11.1,26c-3.3,24.2-6.6,42.3-6.6,42.3l-2.2-0.1C736.9,1131.8,743.1,1078.1,730.3,1037.3z"/>
		</g>
		<path class="st81" d="M755.5,1043l-9.4,0.7c0,0-1.2,0.4-1.2,4c0,3.6,0.3,4.3,4.5,3.9c4.1-0.4,8.1-0.8,8.1-0.8s2.9,0.8,1.8-5.6
			C759.3,1045.2,760.2,1041.6,755.5,1043z"/>
		<path class="st82" d="M280.7,1020.3c0,0-23.9,11.7-83.6,22.1l-0.5,6.4"/>
		<path class="st82" d="M377.5,1026.4c0,0-0.2,5.4-3.5,8.4c0,0-2.1,3-2,6.4c0.2,3.4-0.4,7.8-0.2,9.5l33.4,45.7"/>
		<path class="st68" d="M724.5,1023.1c0,0,5.3,10.4,5.8,14.2s8.5,21,8.6,52.9c0,31.9,0.3,41.7,0.3,41.7"/>
		<path class="st82" d="M948.1,1059.4c0,0-2.1,6.3-21.5,5s-65.3,2.2-83.2,4.6"/>
	</g>
</g>
<g id="twelve">
</g>
<g id="thirteen_00000173859306950962761430000017419446578002950540_">
</g>
<g id="fourteen">
</g>
<g id="fifteen_00000103262623346785252190000005497341088573515404_">
</g>
<g id="sixteen_00000052784415532825981170000013120508718389060798_">
</g>
<g id="seventeen_00000052799129178776355750000005236059528330747796_">
</g>
<g id="eighteen_00000054256262866476431880000018286803152678894488_">
</g>
<g id="nineteen_00000107558268356232088990000008456042227242415802_">
</g>
<g id="twenty">
</g>
</svg>
