<?xml version="1.0" encoding="utf-8"?>
<!-- Generator: Adobe Illustrator 27.2.0, SVG Export Plug-In . SVG Version: 6.00 Build 0)  -->
<svg version="1.1" xmlns="http://www.w3.org/2000/svg" xmlns:xlink="http://www.w3.org/1999/xlink" x="0px" y="0px"
	 viewBox="0 0 2250.5 1926.5" style="enable-background:new 0 0 2250.5 1926.5;" xml:space="preserve">
<style type="text/css">
	.st0{fill:#E8E6E6;stroke:#ADADAD;stroke-miterlimit:10;}
	.st1{fill:#F3F2F7;}
	.st2{fill:#030303;}
	.st3{fill:#353131;}
	.st4{fill:none;stroke:#ADADAD;stroke-width:2;stroke-miterlimit:10;}
	.st5{fill:none;stroke:#F3F2F7;stroke-width:2;stroke-miterlimit:10;}
	.st6{fill:#0A1205;}
	.st7{fill:#F3F2F7;stroke:#ADADAD;stroke-width:0.75;stroke-miterlimit:10;}
	.st8{fill:#ADADAD;}
	.st9{fill:#282828;}
	.st10{fill:#3A3A3A;}
	.st11{fill:#0A54A2;}
	.st12{fill:none;stroke:#E8E6E6;stroke-width:0.9742;stroke-miterlimit:10;}
	.st13{fill:#2E2E2E;}
	.st14{fill:#333333;}
	.st15{fill:#939393;stroke:#ADADAD;stroke-miterlimit:10;}
	.st16{fill:#D1D1D1;}
	.st17{fill:#191919;}
	.st18{fill:#666666;stroke:#ADADAD;stroke-miterlimit:10;}
	.st19{fill:#363636;}
	.st20{fill:none;stroke:#ADADAD;stroke-miterlimit:10;}
	.st21{fill:#121212;}
	.st22{fill:#0E0A12;}
	.st23{fill:#6E6E6E;}
	.st24{fill:#4E4E4E;}
	.st25{fill:#1E1E1E;}
	.st26{fill:#646464;}
	.st27{fill:#999999;}
	.st28{fill:#9E9E9E;}
	.st29{fill:#6D6D6D;}
	.st30{fill:#B5B5B5;}
	.st31{fill:#3E3E3E;}
	.st32{fill:#0D0F0C;}
	.st33{fill:none;stroke:#0E0A12;stroke-width:0.8371;stroke-miterlimit:10;}
	.st34{fill:#7D7D7D;}
	.st35{fill:#424242;}
	.st36{fill:#8A8A8A;}
	.st37{fill:#BCBCBC;stroke:#ADADAD;stroke-miterlimit:10;}
	.st38{fill:#8A8A8A;stroke:#6B6B6B;stroke-width:0.9619;stroke-miterlimit:10;}
	.st39{fill:none;stroke:#6B6B6B;stroke-width:0.7215;stroke-miterlimit:10;}
	.st40{fill:none;stroke:#A9A9AA;stroke-width:0.75;stroke-miterlimit:10;}
	.st41{fill:#484D4E;}
	.st42{fill:none;stroke:#111111;stroke-width:3;stroke-miterlimit:10;}
	.st43{fill:#282828;stroke:#0A0A0A;stroke-miterlimit:10;}
	.st44{fill:#F0221F;stroke:#BB1719;stroke-miterlimit:10;}
	.st45{fill:#BB1719;}
	.st46{fill:#FC7C88;stroke:#BB1719;stroke-miterlimit:10;}
	.st47{fill:none;stroke:#BB1719;stroke-width:3;stroke-miterlimit:10;}
	.st48{fill:#FC7C88;}
	.st49{fill:#FC7C88;stroke:#BB1719;stroke-width:3;stroke-miterlimit:10;}
	.st50{fill:#F0221F;}
	.st51{fill:#E8E6E6;stroke:#ADADAD;stroke-width:2;stroke-miterlimit:10;}
	.st52{opacity:0.59;fill:#F3F2F7;}
	.st53{fill:#080806;}
	.st54{fill:#9B9B9B;}
	.st55{fill:#2B2B2B;}
	.st56{fill:#C1BFBF;}
	.st57{fill:#D6D6D6;}
	.st58{fill:#4C4B4B;stroke:#A5A5A5;stroke-miterlimit:10;}
	.st59{fill:#444343;}
	.st60{fill:#727272;}
	.st61{fill:#A0A0A0;}
	.st62{fill:#999898;}
	.st63{fill:#444242;}
	.st64{fill:#157FCE;}
	.st65{fill:#134468;}
	.st66{fill:#092947;}
	.st67{fill:#D5D3D7;}
	.st68{fill:none;stroke:#134468;stroke-miterlimit:10;}
	.st69{fill:none;stroke:#0F63AD;stroke-miterlimit:10;}
	.st70{fill:#1672B7;}
	.st71{fill:#2066A0;}
	.st72{fill:#1B8ACE;}
	.st73{fill:none;stroke:#157FCE;stroke-miterlimit:10;}
	.st74{fill:none;stroke:#0A54A2;stroke-miterlimit:10;}
	.st75{fill:#3F3F3F;}
	.st76{fill:none;stroke:#282828;stroke-width:2;stroke-miterlimit:10;}
	.st77{fill:#7F7F7F;}
	.st78{fill:#2D2D2D;}
	.st79{fill:#4C4C4C;}
	.st80{fill:#383838;}
	.st81{fill:#9E9E9E;stroke:#0A55A3;stroke-miterlimit:10;}
	.st82{fill:none;stroke:#134468;stroke-width:0.75;stroke-miterlimit:10;}
	.st83{display:none;fill:#24242A;}
	.st84{display:none;fill:none;stroke:#848484;stroke-miterlimit:10;}
	.st85{display:none;fill:#30292D;}
	.st86{fill:#E8E6E6;}
	.st87{fill:#8C8C8C;}
	.st88{fill:#FCFCFC;stroke:#8C8C8C;stroke-miterlimit:10;}
	.st89{fill:#E8E6E6;stroke:#8C8C8C;stroke-miterlimit:10;}
	.st90{fill:#E8E6E6;stroke:#8C8C8C;stroke-width:2;stroke-miterlimit:10;}
	.st91{fill:none;stroke:#8C8C8C;stroke-width:2;stroke-miterlimit:10;}
	.st92{fill:none;stroke:#FCFCFC;stroke-width:3;stroke-miterlimit:10;}
	.st93{fill:#FCFCFC;}
	.st94{fill:#ADADAD;stroke:#8C8C8C;stroke-miterlimit:10;}
	.st95{fill:#FAFAFC;stroke:#ADADAD;stroke-width:0.75;stroke-miterlimit:10;}
	.st96{fill:none;stroke:#111111;stroke-width:3.6024;stroke-miterlimit:10;}
	.st97{fill:none;stroke:#111111;stroke-width:3.6093;stroke-miterlimit:10;}
	.st98{fill:none;stroke:#111111;stroke-width:3.5727;stroke-miterlimit:10;}
	.st99{fill:none;stroke:#111111;stroke-width:3.5263;stroke-miterlimit:10;}
	.st100{fill:none;stroke:#111111;stroke-width:3.4845;stroke-miterlimit:10;}
	.st101{fill:none;stroke:#111111;stroke-width:3.4337;stroke-miterlimit:10;}
	.st102{fill:none;stroke:#111111;stroke-width:3.3788;stroke-miterlimit:10;}
	.st103{fill:none;stroke:#111111;stroke-width:3.3233;stroke-miterlimit:10;}
	.st104{fill:none;stroke:#111111;stroke-width:3.2747;stroke-miterlimit:10;}
	.st105{fill:none;stroke:#111111;stroke-width:3.207;stroke-miterlimit:10;}
	.st106{fill:none;stroke:#111111;stroke-width:3.1652;stroke-miterlimit:10;}
	.st107{fill:none;stroke:#111111;stroke-width:3.099;stroke-miterlimit:10;}
	.st108{fill:none;stroke:#111111;stroke-width:3.0584;stroke-miterlimit:10;}
	.st109{fill:none;stroke:#111111;stroke-width:3.0299;stroke-miterlimit:10;}
</style>
<g id="original">
</g>
<g id="one">
</g>
<g id="two_00000026882943921159275490000004360688784792002186_">
</g>
<g id="three_00000113338737259881679640000015971704404683786636_">
</g>
<g id="four_00000049184186550712051260000002601905804867817144_">
</g>
<g id="five_00000179643197332058435300000007386453149388464260_">
</g>
<g id="six">
</g>
<g id="seven_00000062194613864970919320000012156796603096136882_">
</g>
<g id="eight">
</g>
<g id="nine">
</g>
<g id="ten_00000098906372602984753350000010503549982832515468_">
</g>
<g id="eleven_00000180345820641820120410000009044592103142380464_">
</g>
<g id="twelve">
</g>
<g id="thirteen_00000173859306950962761430000017419446578002950540_">
</g>
<g id="fourteen">
	<g>
		<path class="st86" d="M1971.8,828.7c-0.9-1.5-5.8-8.5-17.3-9.1c-12.1-0.7-193.8-3.9-204.5-4.1c0-2.4,0.1-13.1,5.3-18.6
			c2.1-2.2,4.8-3.3,8-3.3c14.8,0,186.9,6.1,188.6,6.1c0.3,0,31.7,2.1,37.6,28.6L1971.8,828.7z"/>
		<path class="st87" d="M1763.3,794c14.8,0,186.9,6.1,188.6,6.1c0.1,0,8.1,0.5,16.7,4.3c11,4.9,17.8,12.7,20.3,23.3l-16.8,0.4
			c-1.3-2-6.3-8.5-17.5-9.1c-11.9-0.7-189.3-3.8-204.1-4.1c0-3,0.4-12.7,5.2-17.8C1757.7,795.1,1760.2,794,1763.3,794 M1763.3,793
			c-15,0-13.9,23-13.9,23s192.5,3.4,205,4.1c12.5,0.7,17,9.1,17,9.1l18.6-0.5c-5.7-27.7-38.2-29.5-38.2-29.5S1778.3,793,1763.3,793
			L1763.3,793z"/>
	</g>
	<path class="st88" d="M1954.3,806.6l-141.9-6.1l21.4,8l117.6,4.2c0,0,16.5-0.2,25.8,15.2h5.2C1982.4,828,1977.2,807.8,1954.3,806.6
		z"/>
	<path class="st89" d="M1749.5,816l-0.5,12l201,1.9c0,0,11,0,13.4,13.4c2.4,13.4,21.5,113,21.5,113l0.8,128.3l32.7-0.8
		c0,0,9.4,1.1,9.4-8.3c0-9.4,0-44.6,0-44.6s0.5-5.9-5.4-8.1v-45.6h-16c0,0-10.2,0.8-11.3-15.9c-1.2-16.8-22-124.3-22-124.3
		s-1.5-2.4-1.7-7.8c0,0-5.8-8.8-17-9.1C1943.2,819.7,1749.5,816,1749.5,816z"/>
	<path class="st2" d="M1990.1,828.7l25.2,136.1l-22.6-21.3L1973.2,837c0,0-1.8-3.5-1.7-7.8L1990.1,828.7z"/>
	<path class="st2" d="M2018.1,951.3c0,0,5.4,9.2,3.2,17.8h-3l0.8,7.9l-12.5,0.2c0,0-10.3,0.4-11.3-15.9l-2.4-17.8l22.6,21.3
		c0,0,5.4-5.7-0.4-13.3c0,0-2.1-1.9-4.6,0.3c-2.5,2.2-3.9-1.7,0-3.6S2018.1,951.3,2018.1,951.3z"/>
	<polygon class="st3" points="1977.4,829.2 2005.3,913.3 1990.1,828.7 	"/>
	<path class="st90" d="M1749,828c0,0-5.4,110.4-4.1,200.8l240.1-0.9l-0.1-71.6l-21.5-113c0,0-1.7-13.4-13.4-13.4
		C1938.3,829.9,1749,828,1749,828z"/>
	<path class="st91" d="M1766.6,898.5l-0.3-47.2c0,0-0.6-8.8,12.4-9.1c13-0.3,24.8,0,24.8,0s9.1-2.1,9.1,11.8s-0.3,45.7-0.3,45.7"/>
	<path class="st92" d="M1765.7,909.4l-0.3,31.6c0,0-1.5,7.4,7.4,7.4c8.8,0,33.9,0,33.9,0s5,2.7,5-6.2s0-26,0-26"/>
	<path class="st91" d="M1764.8,979l0.3,33.6c0,0-0.9,5.3,5.3,5.3c6.2,0,39.5-0.3,39.5-0.3s4.7,1.8,4.4-6.2c-0.3-8-0.6-33-0.6-33
		s0.6-6.2-6.2-6.2c-6.8,0-38.3,0.6-38.3,0.6S1764.8,972.3,1764.8,979z"/>
	<line class="st91" x1="1826.7" y1="828.6" x2="1826.7" y2="1028"/>
	<polygon class="st6" points="1833.2,976.7 1833.5,995 1853.5,994.7 1853.5,976.7 	"/>
	<path class="st93" d="M1834.1,1001.4c0,0-1.2,10,14.2,9.7c15.3-0.3,115.3,0,115.3,0l-48.4-5.9h-66.9c0,0,0.3-3.8-4.1-4.1
		C1839.7,1000.9,1834.1,1001.4,1834.1,1001.4z"/>
	<path class="st87" d="M1837,842.2l4.7,67.2l-0.3-62.8c0,0-2.1-6.8,13.6-6.5c15.6,0.3,89.9,0.6,89.9,0.6s7.1-1.8,9.4,17.1
		c2.4,18.9,4.7,36.9,4.7,36.9l-2.1-45.7c0,0,0.7-11.8-13.6-11.6c-14.3,0.2-97.4-0.8-97.4-0.8S1838,836.3,1837,842.2z"/>
	<path class="st93" d="M1962,912.4l7.6,32.9c0,0,2.6,12.9-9.2,13.4c-11.8,0.5-111.3-5.3-111.3-5.3s-9.5-2.6-10-11.3
		s-0.3-27.4-0.3-27.4l2.6,25.5c0,0,0.3,8.4,7.9,9.5s109.2,6.1,109.2,6.1s11.1,2.9,7.4-19.2S1962,912.4,1962,912.4z"/>
	<path class="st9" d="M1841.7,914.8l-0.3,25.5c0,0,0.1,8.6,7.9,9.5c7.8,0.8,109.2,6.1,109.2,6.1s10.8,2.4,7.4-19.2
		s-12.8-85.5-12.8-85.5s-1.2-10-8.1-10.4c-6.9-0.3-95.2-1-95.2-1s-8.7-1.3-8.7,5.9C1841,852.9,1841.7,914.8,1841.7,914.8z"/>
	<polygon class="st2" points="1933,831 1933,837.9 1950.2,838.4 1949.9,831 	"/>
	<path class="st10" d="M1841.3,864.2c0,0,96.3,16.1,107.9,91.5l9.3,0.1c0,0,10.8,1.4,7.4-19.2c-3.5-20.6-12.8-85.5-12.8-85.5
		s-1.4-10.2-8.1-10.4s-95.2-1-95.2-1s-8.6-0.9-8.7,5.9C1841,852.5,1841.3,864.2,1841.3,864.2z"/>
	<polygon class="st2" points="1939.7,837.2 1939.8,848.3 1943.3,848.2 1943.5,837.4 	"/>
	<path class="st2" d="M1935.5,848.4l0.7,93.5h7.2c0,0,6.1-6.3,6.1-15.6l-0.2-66c0,0-1.4-10.9-5.9-12.1L1935.5,848.4z"/>
	<polygon class="st2" points="1939.3,970.7 1939.3,941.5 1943.5,941.8 1943.5,970.1 	"/>
	<polygon class="st2" points="1946.9,969.8 1950.6,969.9 1950.6,976.3 1931.8,976.3 1931.8,969.9 	"/>
	<path class="st11" d="M1818.6,772.1l17.4,0.2v18.3c0,0-4.6,1.4-19.2,0v-18.5L1818.6,772.1z"/>
	<path class="st87" d="M1838.9,789.9l0.1,6l-24.3-0.5v-5.9C1814.8,789.5,1823.8,792.4,1838.9,789.9z"/>
	<path class="st0" d="M1744.9,1028.8l0.4,26.2H1851c0,0,49,1.9,59.1,28.8l75.7,0.9l-0.7-56.7L1744.9,1028.8z"/>
	<path class="st89" d="M1744.9,1028.8l0.4,26.2H1851c0,0,49,1.9,59.1,28.8l75.7,0.9l-0.7-56.7L1744.9,1028.8z"/>
	<polygon class="st6" points="1982.4,1048.4 1960.6,1027.8 1979,1027.9 1985,1033.9 1985,1051.3 	"/>
	<path class="st6" d="M1945.1,1028.4l27.3,26.4h-18l-26.2-26.2C1928.1,1028.6,1945.1,1028.4,1945.1,1028.4z"/>
	<path class="st6" d="M1911.8,1028.6l26.6,26.6h-17.6l-26.5-26.5C1894.3,1028.8,1911.7,1028.7,1911.8,1028.6z"/>
	<path class="st6" d="M1879.6,1028.6l26.6,26.6h-17.6l-26.5-26.5C1862.1,1028.8,1879.5,1028.7,1879.6,1028.6z"/>
	<path class="st6" d="M1845.8,1028.6l26.6,26.6h-17.6l-26.5-26.5C1828.3,1028.8,1845.8,1028.7,1845.8,1028.6z"/>
	<path class="st6" d="M1812.4,1028.6l26.6,25.8h-17.6l-26.5-25.7C1794.9,1028.8,1812.4,1028.7,1812.4,1028.6z"/>
	<path class="st6" d="M1778.7,1029.1l26.6,25.3h-17.6l-26.5-25.1C1761.2,1029.3,1778.6,1029.2,1778.7,1029.1z"/>
	<path class="st6" d="M1744.9,1028.8l25.9,25.9h-16.4l-8.7-8.7l-0.7-0.7C1745.1,1045.3,1744.9,1028.6,1744.9,1028.8z"/>
	<path class="st94" d="M2022.5,1022.9h-26.9l8,8l24.3,0C2027.9,1030.9,2028.9,1025.3,2022.5,1022.9z"/>
	<path class="st94" d="M1985,1027.9c0,0,5.7,1.4,6,6.4v41.2l36.9-0.1c0,0,1.1,8.3-9.4,8.3c-10.5,0-32.7,0.8-32.7,0.8L1985,1027.9z"
		/>
	<polygon class="st13" points="1934.9,1180.6 1985.4,1180.5 1985.4,1084.6 1910.1,1083.7 	"/>
	<polygon class="st0" points="1930,1112.7 1985.6,1112.7 1985.6,1117.8 1930.1,1117.8 	"/>
	<path class="st0" d="M1985.3,1144.9h-51.9v3.9h52.2C1985.6,1148.8,1985.3,1144.2,1985.3,1144.9z"/>
	<path class="st0" d="M1933.9,1175.6h51.2v4.4h-51.7C1933.4,1180,1934.3,1175.2,1933.9,1175.6z"/>
	<path class="st2" d="M1916.2,1142.9l-15.1,13.3c0,0-33.2-69.2-81.4-59.5c-48.3,9.7-70.3,61.6-70.3,61.6l-16.6-15.5l21.3-64.5
		l78.6-5.4l64.1,7.6l18,45.8L1916.2,1142.9z"/>
	<circle class="st14" cx="1825.2" cy="1172.2" r="78.7"/>
	<circle class="st15" cx="1825.5" cy="1170.1" r="48.8"/>
	<circle class="st12" cx="1825.5" cy="1170.1" r="48.8"/>
	<circle class="st16" cx="1825.2" cy="1169.5" r="42.8"/>
	<circle class="st17" cx="1825.8" cy="1170.6" r="18.4"/>
	<circle class="st18" cx="1813.7" cy="1149.5" r="2.5"/>
	<circle class="st18" cx="1825.7" cy="1146.5" r="2.5"/>
	<circle class="st18" cx="1838" cy="1150.2" r="2.5"/>
	<circle class="st18" cx="1846.4" cy="1158.4" r="2.5"/>
	<circle class="st18" cx="1849.1" cy="1170.8" r="2.5"/>
	<circle class="st18" cx="1846.6" cy="1182.7" r="2.5"/>
	<circle class="st18" cx="1838" cy="1191.4" r="2.5"/>
	<circle class="st18" cx="1826" cy="1194.5" r="2.5"/>
	<circle class="st18" cx="1812.9" cy="1190.9" r="2.5"/>
	<circle class="st18" cx="1804.8" cy="1182.4" r="2.5"/>
	<circle class="st18" cx="1801.7" cy="1170.4" r="2.5"/>
	<circle class="st18" cx="1804.5" cy="1158" r="2.5"/>
	<path class="st19" d="M1800.8,1134.6c0,0,4,14.9-10.7,11.3C1790.1,1145.9,1792.3,1139.7,1800.8,1134.6z"/>
	<path class="st19" d="M1817.3,1127.6c0,0,6.4,12,17.4,0.5C1834.7,1128.1,1826.9,1125.1,1817.3,1127.6z"/>
	<path class="st19" d="M1849.3,1134.6c0,0-3.1,14.6,11.7,11.7C1860.9,1146.2,1856.4,1137.9,1849.3,1134.6z"/>
	<path class="st19" d="M1867,1161.8c0,0-9.2,9.9-0.5,17.9C1866.5,1179.6,1869.6,1172.2,1867,1161.8z"/>
	<path class="st19" d="M1849.9,1204.5c0,0-0.9-11.3,10.3-10.7C1860.1,1193.8,1856.9,1199.7,1849.9,1204.5z"/>
	<path class="st19" d="M1833.4,1211.2c0,0-7.1-9.9-16.6,0.2C1816.8,1211.3,1823.9,1213.8,1833.4,1211.2z"/>
	<path class="st19" d="M1790.1,1193.8c0,0,12.1-1.7,11,10.7C1801.1,1204.5,1795.5,1201.5,1790.1,1193.8z"/>
	<path class="st19" d="M1783.2,1161.3c0,0,10.4,8.4,0.5,18.3C1783.7,1179.6,1781.2,1172.8,1783.2,1161.3z"/>
	<path d="M1899.4,1145.5c0,0,23.1,81.5-72,102.5c0,0-87.4-4.1-76.9-102c0,0-20.5,55.5,31,92c0,0,20.3,14.8,47,13
		c26.7-1.8,52.7-13.7,68.6-46.2C1906.4,1179.4,1905.4,1169.3,1899.4,1145.5z"/>
	<path class="st20" d="M1744.9,1028.8l0.4,26.2H1851c0,0,49,1.9,59.1,28.8l75.7,0.9l-0.7-56.7L1744.9,1028.8z"/>
	<circle class="st20" cx="1825.2" cy="1169.5" r="42.8"/>
	<path class="st0" d="M2012.1,1084l0.4,13.4c0,0,15.7,4.2,15.9,14.8v65c0,0,1.1,6.7-6.7,6.7c-7.8,0-36.3,0-36.3,0l0.3-99.2
		L2012.1,1084z"/>
	<path class="st95" d="M2018.1,1114.2v24c0,0-0.4,4.7,4.3,4.7c4.7,0,6.1,0,6.1,0l-0.2-30.7C2028.3,1112.2,2021.5,1110,2018.1,1114.2
		z"/>
	<path class="st95" d="M2028.4,1154.9c0,0-11.2-1.8-10.8,6.5c0.3,8.2,9.2,6.7,10.8,6.4V1154.9z"/>
	<path class="st94" d="M2027.1,1107.8c0,0-13.6-6.4-32.8-2.9l-0.7,74c0,0,29.9,4.5,34.7-1.8c0,0,1.8,6.5-6.7,6.7
		c-8.5,0.1-36.3,0-36.3,0l0.3-99.2l26.4-0.6l0.4,13.4C2012.5,1097.4,2025.1,1101.5,2027.1,1107.8z"/>
	<polygon class="st21" points="1013.4,1076.7 1013.4,1130.6 1195.9,1169.4 1237.4,1145.8 1599.7,1145.8 1741.4,1146.5 1754,1078.3 	
		"/>
	<circle class="st22" cx="1620.7" cy="1142.9" r="22.5"/>
	<circle class="st22" cx="1670" cy="1142.9" r="22.5"/>
	<path class="st23" d="M1634.9,1126c0,0-15-5.6-25.6,4.2c-10.6,9.8-10,20.6-10,20.6s-4.6-16.6,7.9-25.8S1633.3,1122.9,1634.9,1126z"
		/>
	<path class="st23" d="M1684,1126c0,0-15-5.6-25.6,4.2c-10.6,9.8-10,20.6-10,20.6s-4.6-16.6,7.9-25.8S1682.5,1122.9,1684,1126z"/>
	<path class="st24" d="M1392.5,1104.1v73.5h200.8v-73.8C1593.3,1103.8,1391.5,1104.1,1392.5,1104.1z"/>
	<path class="st25" d="M1543.6,1096.6v11.2h10.7v-11.2C1554.3,1096.6,1543.3,1096.6,1543.6,1096.6z"/>
	<polygon class="st26" points="1550.1,1101.2 1550.1,1107.8 1554.3,1107.8 1554.3,1096.6 1550,1096.6 	"/>
	<polygon class="st27" points="1398.3,1104.5 1398.3,1177.8 1392.5,1177.8 1392.5,1104.1 1398.3,1104.1 	"/>
	<path class="st28" d="M1418.3,1100.5v77.9h7.3v-77.8C1425.6,1100.6,1418.8,1100.5,1418.3,1100.5z"/>
	<path class="st28" d="M1491.2,1100.4v77.5h7.9v-77.5C1499.1,1100.4,1491.2,1100,1491.2,1100.4z"/>
	<path class="st28" d="M1564,1100.1v78.5h7.8v-78v-0.5C1571.8,1100,1563.8,1100.1,1564,1100.1z"/>
	<path class="st28" d="M1588.9,1103.8v73.6h4.3v-73.6C1593.3,1103.8,1588.9,1104.1,1588.9,1103.8z"/>
	<path class="st29" d="M1398.4,1120.1h19.8v5h-19.8C1398.4,1125.1,1398.2,1119.9,1398.4,1120.1z"/>
	<path class="st29" d="M1572,1120.1h16.7v5H1572C1572,1125.1,1571.8,1119.9,1572,1120.1z"/>
	<path class="st29" d="M1425.9,1120.1h64.9v5h-64.9C1425.9,1125.1,1425.3,1119.9,1425.9,1120.1z"/>
	<path class="st29" d="M1499.5,1120.1h64.5v5h-64.5C1499.5,1125.1,1498.9,1119.9,1499.5,1120.1z"/>
	<path class="st30" d="M1392.5,1120.1h5.9v4.9h-5.8C1392.6,1125.1,1392.5,1120,1392.5,1120.1z"/>
	<path class="st30" d="M1418.3,1120.1h7.3v5.8h-7.3C1418.3,1125.8,1418.3,1120.1,1418.3,1120.1z"/>
	<path class="st30" d="M1491.2,1120.1h7.9v5.8h-7.9C1491.2,1125.8,1491.1,1120.1,1491.2,1120.1z"/>
	<path class="st30" d="M1563.9,1120.1h8v5.8h-8C1563.9,1125.8,1563.8,1120.1,1563.9,1120.1z"/>
	<path class="st30" d="M1588.7,1120.3h4.5v4.9h-4.4C1588.8,1125.2,1588.7,1120.2,1588.7,1120.3z"/>
	<path class="st31" d="M1241.9,1154.1v-37.6c0,0,0.7-6.3,15.2-6.3c14.5,0,121.1,0,121.1,0s7.9-1,7.9,9.6s0,50.8,0,50.8
		s1.3,7.3-14.2,7.3s-121.8,0-121.8,0s-8.3,0.7-8.3-8.6S1241.9,1154.1,1241.9,1154.1z"/>
	<path class="st32" d="M1310.5,1138.9v12.2h8.8v-12.4C1319.3,1138.7,1310.4,1138.8,1310.5,1138.9z"/>
	<line class="st33" x1="1385.7" y1="1145.7" x2="1242.1" y2="1145.7"/>
	<circle class="st14" cx="1118.4" cy="1172.2" r="78.7"/>
	<circle class="st15" cx="1118.8" cy="1170.1" r="48.8"/>
	<circle class="st12" cx="1118.8" cy="1170.1" r="48.8"/>
	<circle class="st16" cx="1118.4" cy="1169.5" r="42.8"/>
	<circle class="st17" cx="1119" cy="1170.6" r="18.4"/>
	<circle class="st18" cx="1106.9" cy="1149.5" r="2.5"/>
	<circle class="st18" cx="1118.9" cy="1146.5" r="2.5"/>
	<circle class="st18" cx="1131.2" cy="1150.2" r="2.5"/>
	<circle class="st18" cx="1139.7" cy="1158.4" r="2.5"/>
	<circle class="st18" cx="1142.3" cy="1170.8" r="2.5"/>
	<circle class="st18" cx="1139.8" cy="1182.7" r="2.5"/>
	<circle class="st18" cx="1131.2" cy="1191.4" r="2.5"/>
	<circle class="st18" cx="1119.2" cy="1194.5" r="2.5"/>
	<circle class="st18" cx="1106.1" cy="1190.9" r="2.5"/>
	<circle class="st18" cx="1098.1" cy="1182.4" r="2.5"/>
	<circle class="st18" cx="1094.9" cy="1170.4" r="2.5"/>
	<circle class="st18" cx="1097.7" cy="1158" r="2.5"/>
	<path class="st19" d="M1094,1134.6c0,0,4,14.9-10.7,11.3C1083.3,1145.9,1085.5,1139.7,1094,1134.6z"/>
	<path class="st19" d="M1110.5,1127.6c0,0,6.4,12,17.4,0.5C1127.9,1128.1,1120.1,1125.1,1110.5,1127.6z"/>
	<path class="st19" d="M1142.5,1134.6c0,0-3.1,14.6,11.7,11.7C1154.1,1146.2,1149.6,1137.9,1142.5,1134.6z"/>
	<path class="st19" d="M1160.2,1161.8c0,0-9.2,9.9-0.5,17.9C1159.7,1179.6,1162.8,1172.2,1160.2,1161.8z"/>
	<path class="st19" d="M1143.1,1204.5c0,0-0.9-11.3,10.3-10.7C1153.4,1193.8,1150.1,1199.7,1143.1,1204.5z"/>
	<path class="st19" d="M1126.6,1211.2c0,0-7.1-9.9-16.6,0.2C1110,1211.3,1117.2,1213.8,1126.6,1211.2z"/>
	<path class="st19" d="M1083.3,1193.8c0,0,12.1-1.7,11,10.7C1094.3,1204.5,1088.7,1201.5,1083.3,1193.8z"/>
	<path class="st19" d="M1076.5,1161.3c0,0,10.4,8.4,0.5,18.3C1076.9,1179.6,1074.4,1172.8,1076.5,1161.3z"/>
	<path d="M1192.6,1145.5c0,0,23.1,81.5-72,102.5c0,0-87.4-4.1-76.9-102c0,0-20.5,55.5,31,92c0,0,20.3,14.8,47,13
		c26.7-1.8,52.7-13.7,68.6-46.2C1199.6,1179.4,1198.6,1169.3,1192.6,1145.5z"/>
	<circle class="st20" cx="1118.4" cy="1169.5" r="42.8"/>
	<path class="st34" d="M1206.7,1176.9c0,0,8.3-55.7-60.6-83.8c0,0-45.8-17.1-84.3,14.3c0,0-28.7,13.2-34.2,70c0,0-3.9,8.3-17.6,8.3
		h-10.8l0.9-54l13.4-1.1l17.1-35.8c0,0,5.9-17.9,30.8-17.9s126.4,0.3,126.4,0.3s17,0.3,23.2,26.4s14.7,29,26.1,29v53.4l-25.2-0.3
		C1211.7,1185.7,1206.4,1184.8,1206.7,1176.9z"/>
	<path class="st35" d="M1108.5,1083.6c0,0-63.8,0.4-76.5,41c-12.7,40.6-16.5,60.9-16.5,60.9s-11.6,0.8-16.4,0.2l0.9-54l13.4-1.1
		l17.1-35.8c0,0,6.3-18,30.8-17.9s126.4,0.3,126.4,0.3s19.4,0.1,23.2,26.4c6,24.5,13.5,25.8,26.9,28.3l-0.8,54.1l-25.2-0.3
		c0,0-5.3-0.8-5-8.8c0,0,16.9-3.9,10.2-39.3c0,0-14.5-9.1-15.5-27.4S1185.9,1083.9,1108.5,1083.6z"/>
	<path class="st36" d="M1736,1180.7c0,0-14.1-88.6,62.3-98.4l-55.9-0.4c0,0-23.4,26.1-24.5,67.9c-1.1,41.7-0.4,35.6-0.4,35.6
		S1733.1,1187.6,1736,1180.7z"/>
	<path class="st37" d="M1724.5,802.4l-0.3,37.4c0,0,8,1.6,14.8,0l-0.3-41.2L1724.5,802.4z"/>
	<ellipse class="st21" cx="1731.6" cy="800.6" rx="8.2" ry="8.5"/>
	<path class="st38" d="M1721,839.8c0,0,11.8,1.6,21.3-0.3v214.7c0,0-13.9,3.5-21.3-0.3V839.8z"/>
	<path class="st0" d="M1700.3,1102.7v24.7c0,0,5.9,8.8,12.9-0.2v-20.6c0,0-0.7-7,7-9.7c7.7-2.7,14.3-9.1,15.2-17.4
		c0.9-8.4,0.7-24,0.7-24s-6.9,1-13.4-0.3l-0.4,20c0,0-0.9,5.7-7.9,9.5S1700.8,1091.2,1700.3,1102.7z"/>
	<path class="st8" d="M1728.9,1056.2l-0.7,19.2c0,0-1.8,9.5-9,13c-7.3,3.5-12.3,8.2-12.3,15s-0.2,28-0.2,28s-4.8,1.5-6.4-3.9
		l0.4-27.9c0,0,0.2-8.4,11.7-13.9c11.5-5.5,9.9-10.6,9.9-10.6l0.4-20C1722.7,1055.1,1726.1,1056.2,1728.9,1056.2z"/>
	<path class="st39" d="M1742.1,844.9c0,0-8.2,2.4-21.1-0.2"/>
	<path class="st39" d="M1742.1,850.5c0,0-8.2,2.4-21.1-0.2"/>
	<path class="st39" d="M1742.1,855.8c0,0-8.2,2.4-21.1-0.2"/>
	<path class="st39" d="M1742.1,861.2c0,0-8.2,2.4-21.1-0.2"/>
	<path class="st39" d="M1742.1,866.8c0,0-8.2,2.4-21.1-0.2"/>
	<path class="st39" d="M1742.1,872.4c0,0-8.2,2.4-21.1-0.2"/>
	<path class="st39" d="M1741.9,878c0,0-8.2,2.4-21.1-0.2"/>
	<path class="st39" d="M1741.9,883.6c0,0-8.2,2.4-21.1-0.2"/>
	<path class="st39" d="M1741.9,889c0,0-8.2,2.4-21.1-0.2"/>
	<path class="st39" d="M1741.9,894.4c0,0-8.2,2.4-21.1-0.2"/>
	<path class="st39" d="M1741.9,900.2c0,0-8.2,2.4-21.1-0.2"/>
	<path class="st39" d="M1741.9,905.6c0,0-8.2,2.4-21.1-0.2"/>
	<path class="st39" d="M1741.9,911.8c0,0-8.2,2.4-21.1-0.2"/>
	<path class="st39" d="M1741.9,917.6c0,0-8.2,2.4-21.1-0.2"/>
	<path class="st39" d="M1741.9,923.2c0,0-8.2,2.4-21.1-0.2"/>
	<path class="st39" d="M1741.9,929.2c0,0-8.2,2.4-21.1-0.2"/>
	<path class="st39" d="M1741.9,935.1c0,0-8.2,2.4-21.1-0.2"/>
	<path class="st39" d="M1742.2,941.2c0,0-8.2,2.4-21.1-0.2"/>
	<path class="st39" d="M1742.2,947.9c0,0-8.2,2.4-21.1-0.2"/>
	<path class="st39" d="M1742,954c0,0-8.2,2.4-21.1-0.2"/>
	<path class="st39" d="M1742,960.5c0,0-8.2,2.4-21.1-0.2"/>
	<path class="st39" d="M1742,966.2c0,0-8.2,2.4-21.1-0.2"/>
	<path class="st39" d="M1742,972.5c0,0-8.2,2.4-21.1-0.2"/>
	<path class="st39" d="M1742,978.1c0,0-8.2,2.4-21.1-0.2"/>
	<path class="st39" d="M1742,985c0,0-8.2,2.4-21.1-0.2"/>
	<path class="st39" d="M1742,991.1c0,0-8.2,2.4-21.1-0.2"/>
	<path class="st39" d="M1742,996.6c0,0-8.2,2.4-21.1-0.2"/>
	<path class="st39" d="M1742,1002.4c0,0-8.2,2.4-21.1-0.2"/>
	<path class="st39" d="M1742,1008.3c0,0-8.2,2.4-21.1-0.2"/>
	<path class="st39" d="M1742,1014.6c0,0-8.2,2.4-21.1-0.2"/>
	<path class="st39" d="M1742,1021.7c0,0-8.2,2.4-21.1-0.2"/>
	<path class="st39" d="M1742,1028.4c0,0-8.2,2.4-21.1-0.2"/>
	<path class="st39" d="M1742,1034.9c0,0-8.2,2.4-21.1-0.2"/>
	<path class="st39" d="M1742,1041.4c0,0-8.2,2.4-21.1-0.2"/>
	<path class="st39" d="M1741.7,1048.3c0,0-8.2,2.4-21.1-0.2"/>
	<line class="st40" x1="1736.5" y1="840.4" x2="1736.5" y2="1055.4"/>
	<line class="st40" x1="1724.2" y1="839.8" x2="1724.2" y2="1055.1"/>
	<line class="st40" x1="1729.6" y1="840.8" x2="1729.6" y2="1056.2"/>
	<path class="st36" d="M1740,1054.3v28.2h113.9c0,0,58.2,1.1,58.2,55.2l-0.4,41c0,0-1.9,5.6,6.8,6c8.6,0.4,16.9,0,16.9,0l-1.7-59.2
		c0,0-7.4-69.5-78.8-70.2S1740,1054.3,1740,1054.3z"/>
	<path class="st41" d="M1770.9,1063.6l72.9-0.3c0,0,62.5-4.9,76.9,38.9c14.4,43.8,14.7,82.5,14.7,82.5l-1.7-59.2
		c0,0-5.2-70.5-82.7-70.5c-77.5,0-111-0.7-111-0.7l-0.2,10.5L1770.9,1063.6z"/>
	<path class="st11" d="M1689.4,768.8l0.3,20.9c0,0,5.5,1.3,18.6,0l-0.5-21.2L1689.4,768.8z"/>
	<path class="st87" d="M1710.8,789.1l0.1,4.4h-23.8l0.1-4.1C1687.2,789.5,1696.3,790.5,1710.8,789.1z"/>
	<polygon class="st89" points="1680.9,792.8 1637.5,892.7 1716,892.7 1716,792.8 	"/>
	<polygon class="st8" points="1644.5,876.4 1694.5,877 1715.8,845.6 1716,892.7 1637.5,892.7 	"/>
	<line class="st42" x1="1640.9" y1="883.2" x2="986.3" y2="631.4"/>
	<path class="st42" d="M952.7,665.5c0,0,7.4,106.1,8.9,117"/>
	<line class="st42" x1="993.1" y1="676.8" x2="983.3" y2="786.4"/>
	<polygon class="st43" points="1012.4,661.2 1100.6,695.4 1090.3,719.9 1007.5,686.7 	"/>
	<path class="st10" d="M1019,668.4c0,0,0.7,13.2,15.9,18.9c15.2,5.6,59.6,22.8,59.6,22.8l5-12.2c0,0-67.8-23.2-72.8-27.1
		c-5-4-6.9-5.1-6.9-5.1S1018.5,667.4,1019,668.4z"/>
	<circle class="st10" cx="973.1" cy="651.3" r="27.4"/>
	<circle class="st9" cx="973.7" cy="651.5" r="21.8"/>
	<path class="st44" d="M1020.1,658.5l-12.9,34.1c0,0-42.9-11.1-47-25.4c-4.2-14.3,1.8-26.3,5.1-34.1L1020.1,658.5z"/>
	<path class="st45" d="M981.2,676.9l22.7,9.6c0,0,5.2-20.7,16.2-28l-12.9,34.1c0,0-41.1-9.9-47-25.4c0,0-3.2-6.7,0.2-20.3
		c0,0-1.3,19.2,6.7,23.5C975.1,674.7,981.2,676.9,981.2,676.9z"/>
	<circle class="st46" cx="973.1" cy="650.4" r="5.4"/>
	<circle class="st10" cx="1148.4" cy="693.5" r="11.8"/>
	<circle class="st9" cx="1463" cy="827.7" r="18"/>
	<circle class="st10" cx="1463.3" cy="827.9" r="11.5"/>
	<polygon class="st44" points="1603.3,894.8 1105.1,685.2 1086.6,728 1336.4,835.5 1354.5,855.6 1541.2,940.2 	"/>
	<polyline class="st47" points="1580.4,897.4 1110.1,699.5 1100.5,723.1 	"/>
	<g>
		<polygon class="st48" points="1362.2,849.5 1342.1,829 1099.9,723.5 1102.4,717.6 1344.9,823.8 1366.8,846.1 1552.1,929.7 
			1547.6,933.3 		"/>
		<path class="st45" d="M1102.9,718.9l241.4,105.7l21.9,22.3l183.9,83l-2.7,2.2l-184.7-83.5l-20-20.4l-241.5-105.2L1102.9,718.9
			 M1101.9,716.3l-0.8,1.9l-1.7,4l-0.8,1.8l1.8,0.8l241.1,105.1l19.8,20.2l0.3,0.3l0.3,0.2l184.7,83.5l1.1,0.5l1-0.8l2.7-2.2l2.6-2
			l-3-1.3l-183.6-82.9l-21.7-22l-0.3-0.3l-0.4-0.2l-241.4-105.7L1101.9,716.3L1101.9,716.3z"/>
	</g>
	<circle class="st49" cx="1385.5" cy="837.9" r="6.6"/>
	<polygon class="st43" points="1373.5,864.2 1373.5,930 1394.7,930 1395,873.8 	"/>
	<polygon class="st10" points="1386.1,872.9 1386.8,929 1376.8,929 1376.8,867.4 1385.9,871.3 	"/>
	<path class="st43" d="M1369,929.4c0,0,10.4,0.4,31.1,0.1l-0.3,36.5h-31L1369,929.4z"/>
	<path class="st9" d="M971.2,795.8c0,0,2.1,5.5-1.4,6.9s-11.7,8.7-4.1,14.6S979,818.9,982,807c0,0-3.7,0.5-6.4,6.2
		c0,0-6.4,6.9-7.3-3.2c0,0,0-2.5,3.9-4.1c3.9-1.6,3.4-5.5,1.4-11.9L971.2,795.8z"/>
	<path class="st50" d="M964.6,764.2c0,0-1.9,14-5.8,20.2c0,0-2.3,4.7,0,6.2c2.3,1.6,10.5,5.8,10.5,5.8s1.9,3.9,7.4,0l8.2-6.2
		c0,0,2.7,0.4,1.2-5.4c-1.6-5.8-6.6-20.6-6.6-20.6H964.6z"/>
	<path class="st45" d="M977,766.6l6.2,17.4c0,0,1.7,2.5-0.2,4.7c-1.9,2.2-7.4,6.1-7.4,6.1s-2,1.7-4.6-0.2c-2.5-1.9-6.2-3.5-6.2-3.5
		l4.6,5.4c0,0,2.7,3.9,7.4,0c4.7-3.9,8.2-6.2,8.2-6.2s2.6,0.3,1.2-5.4c-1.4-5.7-6.6-20.6-6.6-20.6L977,766.6z"/>
	<g>
		<path class="st48" d="M958.9,790.5c-0.1,0-0.6-0.2-0.9-0.9c-0.3-0.8-0.4-2.2,1-5c2.9-5.7,4.8-12.4,5.8-20.1h14l-1.9,1.9l-10.7-0.2
			l0,0.2c0,0.2-1.4,16.8-6.3,20.1c-0.1,0.1-0.5,0.5-0.4,1.2c0.2,0.7,0.9,1.3,2.3,1.8c2.4,0.9,5.4,4.5,6.7,6.3L958.9,790.5z"/>
		<path class="st50" d="M978.2,764.7l-1.4,1.4l-10.4-0.2l-0.5,0l0,0.5c0,0.2-1.4,16.7-6.2,19.9l0,0l0,0c-0.2,0.2-0.5,0.7-0.4,1.4
			c0.2,0.8,1,1.5,2.4,2c1.9,0.7,4.3,3.4,5.8,5.2l-8.4-4.7l0,0l0,0c0,0-0.5-0.2-0.7-0.8c-0.3-0.7-0.3-2.1,1-4.7
			c2.8-5.6,4.8-12.4,5.8-20H978.2 M979.4,764.2h-14.8c-1.1,8.3-3.1,14.9-5.8,20.2c-2.7,5.4,0,6.2,0,6.2l10.5,5.8
			c0,0-4.3-6.1-7.5-7.3c-3.2-1.2-1.9-2.5-1.9-2.5c5.1-3.4,6.4-20.3,6.4-20.3l10.6,0.2L979.4,764.2L979.4,764.2z"/>
	</g>
	<line class="st42" x1="971.7" y1="812.2" x2="971.7" y2="821.6"/>
	<polygon class="st51" points="969.4,821.7 974.3,821.7 974.3,858.8 969.7,858.8 	"/>
	<line class="st104" x1="971.9" y1="859.4" x2="972.9" y2="1090.2"/>
	<polygon class="st89" points="1716,892.7 1716,1080 992.2,1080 992.2,1026.7 1110.2,966.5 1514.9,966.5 1587.2,894.3 	"/>
	<path class="st6" d="M1680.9,1047.5l31.2,32.1h-19.5l-32.2-32.2C1660.4,1047.4,1681.2,1047.3,1680.9,1047.5z"/>
	<path class="st6" d="M1646.3,1047.5l31.2,32.1h-19.5l-32.2-32.2C1625.7,1047.4,1646.5,1047.3,1646.3,1047.5z"/>
	<path class="st6" d="M1612.3,1047.5l31.2,32.1H1624l-32.2-32.2C1591.8,1047.4,1612.6,1047.3,1612.3,1047.5z"/>
	<path class="st6" d="M1577,1047.5l31.2,32.1h-19.5l-32.2-32.2C1556.4,1047.4,1577.2,1047.3,1577,1047.5z"/>
	<path class="st6" d="M1542.6,1047.6l31.2,32h-19.5l-32.2-32.1C1522,1047.5,1542.8,1047.4,1542.6,1047.6z"/>
	<path class="st6" d="M1507.5,1047.9l31.2,31.7h-19.5l-32.2-31.8C1486.9,1047.8,1507.7,1047.7,1507.5,1047.9z"/>
	<path class="st6" d="M1472.8,1047.9l31.2,31.7h-19.5l-32.2-31.8C1452.2,1047.8,1473.1,1047.7,1472.8,1047.9z"/>
	<path class="st6" d="M1437.7,1047.9l31.2,31.7h-19.5l-32.2-31.8C1417.1,1047.8,1437.9,1047.7,1437.7,1047.9z"/>
	<path class="st6" d="M1403.3,1048.2l31.2,31.4h-19.5l-32.2-31.5C1382.7,1048.1,1403.5,1047.9,1403.3,1048.2z"/>
	<path class="st6" d="M1368.6,1048.2l31.2,31.4h-19.5l-32.2-31.5C1348.1,1048.1,1368.9,1047.9,1368.6,1048.2z"/>
	<path class="st6" d="M1333.8,1048.2l31.2,31.4h-19.5l-32.2-31.5C1313.2,1048.1,1334,1048,1333.8,1048.2z"/>
	<path class="st6" d="M1298.7,1048.3l31.2,31.3h-19.5l-32.2-31.4C1278.1,1048.2,1298.9,1048.1,1298.7,1048.3z"/>
	<path class="st6" d="M1264.2,1048.4l31.2,31.2h-19.5l-32.2-31.3C1243.7,1048.3,1264.5,1048.2,1264.2,1048.4z"/>
	<path class="st6" d="M1229.8,1048.4l31.2,31.2h-19.5l-32.2-31.3C1209.2,1048.3,1230.1,1048.2,1229.8,1048.4z"/>
	<path class="st6" d="M1194.2,1048.8l31.2,30.8h-19.5l-32.2-30.9C1173.7,1048.6,1194.5,1048.5,1194.2,1048.8z"/>
	<path class="st6" d="M1159.4,1048.8l31.2,30.8H1171l-32.2-30.9C1138.8,1048.6,1159.6,1048.5,1159.4,1048.8z"/>
	<path class="st6" d="M1124,1049l31.2,30.6h-19.5l-32.2-30.7C1103.4,1048.9,1124.3,1048.8,1124,1049z"/>
	<path class="st6" d="M1089.1,1049.1l31.2,30.5h-19.5l-32.2-30.6C1068.6,1049,1089.4,1048.9,1089.1,1049.1z"/>
	<path class="st6" d="M1054,1049.2l31.2,30.4h-19.5l-32.2-30.5C1033.4,1049.1,1054.3,1049,1054,1049.2z"/>
	<polygon class="st1" points="1695.3,915.7 1695.3,1056.2 1688.2,1046.9 1688.2,921.1 	"/>
	<polygon class="st87" points="1596.3,921.9 1688.2,921.1 1695.3,915.7 1592.2,915.7 1523.7,988.5 1111,988.5 1012.8,1037.6 
		1012.8,1057 1020.4,1049.1 1020.4,1043.3 1117,995.9 1527,995.9 	"/>
	<polyline class="st1" points="1688.2,1046.9 1020.4,1049.1 1012.8,1057 1695.3,1056.2 	"/>
	<path class="st91" d="M1601.7,938.3h74.3v98.1h-74.3C1601.7,1036.4,1602,938.6,1601.7,938.3z"/>
	<polygon class="st6" points="1628.9,1019.6 1628.9,1028.7 1650.9,1028.7 1650.9,1018.6 1628.7,1018.6 	"/>
	<g>
		<path class="st9" d="M961.5,1084.1c0,0,0,10.5,1.9,11.4c1.9,0.8,19.8-7.3,20.8-11.2C984.2,1084.3,970.5,1085.9,961.5,1084.1z"/>
		<path class="st53" d="M296.1,1187.2l132.9-16.8c0,0,9.5-58.4-59-70S287.8,1153,296.1,1187.2z"/>
		<polygon class="st53" points="870.2,1118.3 879.2,1116.9 892.9,1067.7 826.1,1036.6 755.4,1057.3 747.8,1118.8 757.3,1134.9 		"/>
		<circle class="st14" cx="816.5" cy="1114.7" r="53.9"/>
		<g>
			<g>
				<path class="st54" d="M816.9,1152.1c-1.1,0-2.2-0.1-3.3-0.2c-19.2-1.8-33.3-18.9-31.5-38c1.7-18,16.6-31.6,34.7-31.6
					c1.1,0,2.2,0.1,3.3,0.2c19.2,1.8,33.3,18.9,31.5,38C849.9,1138.6,835,1152.1,816.9,1152.1z"/>
				<path class="st55" d="M816.8,1083.8c1.1,0,2.1,0,3.2,0.2c18.4,1.7,31.8,18,30.1,36.4c-1.6,17.3-16.2,30.3-33.2,30.3
					c-1.1,0-2.1,0-3.2-0.2c-18.4-1.7-31.8-18-30.1-36.4C785.2,1096.8,799.8,1083.8,816.8,1083.8 M816.8,1080.8L816.8,1080.8
					c-9,0-17.7,3.3-24.4,9.4c-6.8,6.1-11,14.5-11.8,23.6c-0.9,9.7,2,19.1,8.2,26.6c6.2,7.5,14.9,12.1,24.6,13
					c1.2,0.1,2.3,0.2,3.5,0.2c9,0,17.7-3.3,24.4-9.4c6.8-6.1,11-14.5,11.8-23.6c1.9-20-12.8-37.8-32.8-39.7
					C819.1,1080.9,818,1080.8,816.8,1080.8L816.8,1080.8z"/>
			</g>
			<g>
				<path class="st56" d="M816.8,1136.6c-0.6,0-1.2,0-1.8-0.1c-5.1-0.5-9.6-2.9-12.9-6.8c-3.2-3.9-4.8-8.9-4.3-13.9
					c0.9-9.8,9.1-17.2,18.9-17.2c0.6,0,1.2,0,1.8,0.1c10.4,1,18.1,10.3,17.1,20.7C834.8,1129.2,826.7,1136.6,816.8,1136.6z"/>
				<path class="st57" d="M816.8,1099.6L816.8,1099.6c0.6,0,1.2,0,1.7,0.1c9.9,0.9,17.2,9.8,16.2,19.6c-0.9,9.3-8.6,16.3-17.9,16.3
					c-0.6,0-1.2,0-1.7-0.1c-9.9-0.9-17.2-9.8-16.2-19.6C799.8,1106.6,807.5,1099.6,816.8,1099.6 M816.8,1097.6
					c-10.2,0-18.9,7.8-19.9,18.1c-1,11,7,20.8,18,21.8c0.6,0.1,1.3,0.1,1.9,0.1c10.2,0,18.9-7.8,19.9-18.1c1-11-7-20.8-18-21.8
					C818.1,1097.6,817.4,1097.6,816.8,1097.6L816.8,1097.6z"/>
			</g>
			<circle class="st58" cx="817.1" cy="1117.6" r="6.7"/>
			<g>
				<path class="st59" d="M807.2,1095.5c-0.1,0-0.1,0-0.2,0c-0.6-0.1-1.1-0.3-1.4-0.8s-0.5-1-0.5-1.5c0.1-1.1,1-1.9,2.1-1.9
					c0.1,0,0.1,0,0.2,0c0.6,0.1,1.1,0.3,1.4,0.8c0.4,0.4,0.5,1,0.5,1.5C809.2,1094.7,808.3,1095.5,807.2,1095.5z"/>
				<path class="st60" d="M807.2,1091.6L807.2,1091.6c0.1,0,0.1,0,0.2,0c1,0.1,1.8,1,1.7,2c-0.1,1-0.9,1.7-1.8,1.7
					c-0.1,0-0.1,0-0.2,0c-1-0.1-1.8-1-1.7-2C805.4,1092.3,806.2,1091.6,807.2,1091.6 M807.2,1091.1c-1.2,0-2.2,0.9-2.3,2.1
					c-0.1,1.3,0.8,2.4,2.1,2.6c0.1,0,0.2,0,0.2,0c1.2,0,2.2-0.9,2.3-2.1c0.1-1.3-0.8-2.4-2.1-2.6
					C807.3,1091.1,807.3,1091.1,807.2,1091.1L807.2,1091.1z"/>
			</g>
			<g>
				<path class="st59" d="M821.4,1093.8c-0.1,0-0.1,0-0.2,0c-1.2-0.1-2-1.1-1.9-2.3c0.1-1.1,1-1.9,2.1-1.9c0.1,0,0.1,0,0.2,0
					c1.2,0.1,2,1.1,1.9,2.3C823.3,1093,822.4,1093.8,821.4,1093.8z"/>
				<g>
					<path class="st60" d="M821.3,1089.3v0.5c0.1,0,0.1,0,0.2,0c1,0.1,1.8,1,1.7,2c-0.1,1-0.9,1.7-1.8,1.7c-0.1,0-0.1,0-0.2,0
						c-1-0.1-1.8-1-1.7-2c0.1-1,0.9-1.7,1.8-1.7V1089.3 M821.3,1089.3c-1.2,0-2.2,0.9-2.3,2.1c-0.1,1.3,0.8,2.4,2.1,2.6
						c0.1,0,0.2,0,0.2,0c1.2,0,2.2-0.9,2.3-2.1c0.1-1.3-0.8-2.4-2.1-2.6C821.5,1089.3,821.4,1089.3,821.3,1089.3L821.3,1089.3z"/>
				</g>
			</g>
			<g>
				<path class="st61" d="M817.7,1106.9c-0.3,0-0.7-0.2-0.9-0.5c-0.2-0.3-0.3-0.6-0.3-1c0.1-0.7,0.6-1.2,1.3-1.2c0,0,0.1,0,0.1,0
					c0.7,0.1,1.2,0.7,1.2,1.4c-0.1,0.7-0.6,1.2-1.3,1.2C817.8,1106.9,817.8,1106.9,817.7,1106.9z"/>
				<g>
					<path class="st62" d="M817.9,1104.6L817.9,1104.6c0,0,0.1,0,0.1,0c0.6,0.1,1,0.6,1,1.2c-0.1,0.5-0.5,1-1.1,1c0,0-0.1,0-0.1,0
						c-0.6-0.1-1-0.6-1-1.2C816.9,1105,817.3,1104.6,817.9,1104.6 M817.9,1104.1c-0.8,0-1.5,0.6-1.5,1.4c-0.1,0.9,0.5,1.6,1.4,1.7
						c0,0,0.1,0,0.1,0c0.8,0,1.5-0.6,1.5-1.4c0.1-0.9-0.5-1.6-1.4-1.7C818,1104.1,817.9,1104.1,817.9,1104.1L817.9,1104.1z"/>
				</g>
			</g>
			<g>
				<path class="st61" d="M828.2,1119.6c-0.7-0.1-1.2-0.7-1.2-1.4c0.1-0.7,0.6-1.2,1.3-1.2c0,0,0.1,0,0.1,0c0.7,0.1,1.2,0.7,1.2,1.4
					c-0.1,0.7-0.6,1.2-1.3,1.2C828.3,1119.6,828.2,1119.6,828.2,1119.6z"/>
				<g>
					<path class="st62" d="M828.3,1117.2L828.3,1117.2c0,0,0.1,0,0.1,0c0.6,0.1,1,0.6,1,1.2c-0.1,0.5-0.5,1-1.1,1c0,0-0.1,0-0.1,0
						c-0.6-0.1-1-0.6-1-1.2C827.3,1117.7,827.8,1117.2,828.3,1117.2 M828.3,1116.7c-0.8,0-1.5,0.6-1.5,1.4c-0.1,0.9,0.5,1.6,1.4,1.7
						c0,0,0.1,0,0.1,0c0.8,0,1.5-0.6,1.5-1.4c0.1-0.9-0.5-1.6-1.4-1.7C828.4,1116.7,828.4,1116.7,828.3,1116.7L828.3,1116.7z"/>
				</g>
			</g>
			<g>
				<path class="st61" d="M815.8,1129.7c-0.3,0-0.7-0.2-0.9-0.5s-0.3-0.6-0.3-1c0.1-0.7,0.6-1.2,1.3-1.2c0,0,0.1,0,0.1,0
					c0.3,0,0.7,0.2,0.9,0.5s0.3,0.6,0.3,1c-0.1,0.7-0.6,1.2-1.3,1.2C815.9,1129.7,815.8,1129.7,815.8,1129.7z"/>
				<g>
					<path class="st62" d="M815.9,1127.3L815.9,1127.3c0,0,0.1,0,0.1,0c0.6,0.1,1,0.6,1,1.2c-0.1,0.5-0.5,1-1.1,1c0,0-0.1,0-0.1,0
						c-0.6-0.1-1-0.6-1-1.2C814.9,1127.7,815.4,1127.3,815.9,1127.3 M815.9,1126.8c-0.8,0-1.5,0.6-1.5,1.4c-0.1,0.9,0.5,1.6,1.4,1.7
						c0,0,0.1,0,0.1,0c0.8,0,1.5-0.6,1.5-1.4c0.1-0.9-0.5-1.6-1.4-1.7C816,1126.8,815.9,1126.8,815.9,1126.8L815.9,1126.8z"/>
				</g>
			</g>
			<g>
				<path class="st61" d="M805.1,1118.1c-0.7-0.1-1.2-0.7-1.2-1.4c0.1-0.7,0.6-1.2,1.3-1.2c0,0,0.1,0,0.1,0c0.7,0.1,1.2,0.7,1.2,1.4
					c-0.1,0.7-0.6,1.2-1.3,1.2C805.1,1118.1,805.1,1118.1,805.1,1118.1z"/>
				<g>
					<path class="st62" d="M805.2,1115.7L805.2,1115.7c0,0,0.1,0,0.1,0c0.3,0,0.5,0.2,0.7,0.4c0.2,0.2,0.3,0.5,0.2,0.8
						c-0.1,0.5-0.5,1-1.1,1c0,0-0.1,0-0.1,0c-0.3,0-0.5-0.2-0.7-0.4s-0.3-0.5-0.2-0.8C804.2,1116.1,804.6,1115.7,805.2,1115.7
						 M805.2,1115.2c-0.8,0-1.5,0.6-1.5,1.4c-0.1,0.9,0.5,1.6,1.4,1.7c0.1,0,0.1,0,0.1,0c0.8,0,1.5-0.6,1.5-1.4
						c0.1-0.9-0.5-1.6-1.4-1.7C805.3,1115.2,805.2,1115.2,805.2,1115.2L805.2,1115.2z"/>
				</g>
			</g>
			<g>
				<path class="st59" d="M835.1,1100.6c-0.1,0-0.1,0-0.2,0c-1.2-0.1-2-1.1-1.9-2.3c0.1-1.1,1-1.9,2.1-1.9c0.1,0,0.1,0,0.2,0
					c0.6,0.1,1.1,0.3,1.4,0.8c0.4,0.4,0.5,1,0.5,1.5C837.1,1099.8,836.2,1100.6,835.1,1100.6z"/>
				<g>
					<path class="st60" d="M835.1,1096.6L835.1,1096.6c0.1,0,0.1,0,0.2,0c1,0.1,1.8,1,1.7,2c-0.1,1-0.9,1.7-1.8,1.7
						c-0.1,0-0.1,0-0.2,0c-1-0.1-1.8-1-1.7-2C833.3,1097.3,834.1,1096.6,835.1,1096.6 M835.1,1096.1c-1.2,0-2.2,0.9-2.3,2.1
						c-0.1,1.3,0.8,2.4,2.1,2.6c0.1,0,0.2,0,0.2,0c1.2,0,2.2-0.9,2.3-2.1c0.1-1.3-0.8-2.4-2.1-2.6
						C835.2,1096.1,835.2,1096.1,835.1,1096.1L835.1,1096.1z"/>
				</g>
			</g>
			<g>
				<path class="st59" d="M841.7,1110.9c-0.1,0-0.1,0-0.2,0c-1.2-0.1-2-1.1-1.9-2.3c0.1-1.1,1-1.9,2.1-1.9c0.1,0,0.1,0,0.2,0
					c1.2,0.1,2,1.1,1.9,2.3C843.7,1110.1,842.8,1110.9,841.7,1110.9z"/>
				<g>
					<path class="st60" d="M841.7,1106.9L841.7,1106.9c0.1,0,0.1,0,0.2,0c1,0.1,1.8,1,1.7,2c-0.1,1-0.9,1.7-1.8,1.7
						c-0.1,0-0.1,0-0.2,0c-1-0.1-1.8-1-1.7-2C840,1107.7,840.8,1106.9,841.7,1106.9 M841.7,1106.4c-1.2,0-2.2,0.9-2.3,2.1
						c-0.1,1.3,0.8,2.4,2.1,2.6c0.1,0,0.2,0,0.2,0c1.2,0,2.2-0.9,2.3-2.1c0.1-1.3-0.8-2.4-2.1-2.6
						C841.9,1106.5,841.8,1106.4,841.7,1106.4L841.7,1106.4z"/>
				</g>
			</g>
			<g>
				<path class="st59" d="M842.5,1123.8c-0.1,0-0.1,0-0.2,0c-0.6-0.1-1.1-0.3-1.4-0.8c-0.4-0.4-0.5-1-0.5-1.5c0.1-1.1,1-1.9,2.1-1.9
					c0.1,0,0.1,0,0.2,0c1.2,0.1,2,1.1,1.9,2.3C844.5,1122.9,843.6,1123.8,842.5,1123.8z"/>
				<g>
					<path class="st60" d="M842.5,1119.3v0.5c0.1,0,0.1,0,0.2,0c0.5,0,0.9,0.3,1.3,0.7c0.3,0.4,0.5,0.9,0.4,1.4
						c-0.1,1-0.9,1.7-1.8,1.7c-0.1,0-0.1,0-0.2,0c-0.5,0-0.9-0.3-1.3-0.7s-0.5-0.9-0.4-1.4c0.1-1,0.9-1.7,1.8-1.7V1119.3
						 M842.5,1119.3c-1.2,0-2.2,0.9-2.3,2.1c-0.1,1.3,0.8,2.4,2.1,2.6c0.1,0,0.2,0,0.2,0c1.2,0,2.2-0.9,2.3-2.1
						c0.1-1.3-0.8-2.4-2.1-2.6C842.7,1119.3,842.6,1119.3,842.5,1119.3L842.5,1119.3z"/>
				</g>
			</g>
			<g>
				<path class="st59" d="M837.7,1135.2c-0.1,0-0.1,0-0.2,0c-0.6-0.1-1.1-0.3-1.4-0.8c-0.4-0.4-0.5-1-0.5-1.5c0.1-1.1,1-1.9,2.1-1.9
					c0.1,0,0.1,0,0.2,0c1.2,0.1,2,1.1,1.9,2.3C839.7,1134.4,838.8,1135.2,837.7,1135.2z"/>
				<g>
					<path class="st60" d="M837.7,1130.7v0.5c0.1,0,0.1,0,0.2,0c1,0.1,1.8,1,1.7,2c-0.1,1-0.9,1.7-1.8,1.7c-0.1,0-0.1,0-0.2,0
						c-1-0.1-1.8-1-1.7-2c0.1-1,0.9-1.7,1.8-1.7V1130.7 M837.7,1130.7c-1.2,0-2.2,0.9-2.3,2.1c-0.1,1.3,0.8,2.4,2.1,2.6
						c0.1,0,0.2,0,0.2,0c1.2,0,2.2-0.9,2.3-2.1c0.1-1.3-0.8-2.4-2.1-2.6C837.9,1130.7,837.8,1130.7,837.7,1130.7L837.7,1130.7z"/>
				</g>
			</g>
			<g>
				<path class="st59" d="M827.3,1143.3c-0.1,0-0.1,0-0.2,0c-1.2-0.1-2-1.1-1.9-2.3c0.1-1.1,1-1.9,2.1-1.9c0.1,0,0.1,0,0.2,0
					c1.2,0.1,2,1.1,1.9,2.3C829.3,1142.5,828.4,1143.3,827.3,1143.3z"/>
				<g>
					<path class="st60" d="M827.3,1139.4L827.3,1139.4c0.1,0,0.1,0,0.2,0c0.5,0,0.9,0.3,1.3,0.7s0.5,0.9,0.4,1.4
						c-0.1,1-0.9,1.7-1.8,1.7c-0.1,0-0.1,0-0.2,0c-1-0.1-1.8-1-1.7-2C825.6,1140.1,826.4,1139.4,827.3,1139.4 M827.3,1138.9
						c-1.2,0-2.2,0.9-2.3,2.1c-0.1,1.3,0.8,2.4,2.1,2.6c0.1,0,0.2,0,0.2,0c1.2,0,2.2-0.9,2.3-2.1c0.1-1.3-0.8-2.4-2.1-2.6
						C827.5,1138.9,827.4,1138.9,827.3,1138.9L827.3,1138.9z"/>
				</g>
			</g>
			<g>
				<path class="st59" d="M814.5,1146.1c-0.1,0-0.1,0-0.2,0c-0.6-0.1-1.1-0.3-1.4-0.8c-0.4-0.4-0.5-1-0.5-1.5c0.1-1.1,1-1.9,2.1-1.9
					c0.1,0,0.1,0,0.2,0c1.2,0.1,2,1.1,1.9,2.3C816.5,1145.3,815.6,1146.1,814.5,1146.1z"/>
				<g>
					<path class="st60" d="M814.5,1141.6v0.5c0.1,0,0.1,0,0.2,0c1,0.1,1.8,1,1.7,2c-0.1,1-0.9,1.7-1.8,1.7c-0.1,0-0.1,0-0.2,0
						c-1-0.1-1.8-1-1.7-2c0.1-1,0.9-1.7,1.8-1.7V1141.6 M814.5,1141.6c-1.2,0-2.2,0.9-2.3,2.1c-0.1,1.3,0.8,2.4,2.1,2.6
						c0.1,0,0.2,0,0.2,0c1.2,0,2.2-0.9,2.3-2.1c0.1-1.3-0.8-2.4-2.1-2.6C814.6,1141.7,814.6,1141.6,814.5,1141.6L814.5,1141.6z"/>
				</g>
			</g>
			<g>
				<path class="st59" d="M803.3,1142.5c-0.1,0-0.1,0-0.2,0c-1.2-0.1-2-1.1-1.9-2.3c0.1-1.1,1-1.9,2.1-1.9c0.1,0,0.1,0,0.2,0
					c0.6,0.1,1.1,0.3,1.4,0.8s0.5,1,0.5,1.5C805.3,1141.7,804.4,1142.5,803.3,1142.5z"/>
				<g>
					<path class="st60" d="M803.3,1138.5L803.3,1138.5c0.1,0,0.1,0,0.2,0c1,0.1,1.8,1,1.7,2c-0.1,1-0.9,1.7-1.8,1.7
						c-0.1,0-0.1,0-0.2,0c-1-0.1-1.8-1-1.7-2C801.6,1139.2,802.4,1138.5,803.3,1138.5 M803.3,1138c-1.2,0-2.2,0.9-2.3,2.1
						c-0.1,1.3,0.8,2.4,2.1,2.6c0.1,0,0.2,0,0.2,0c1.2,0,2.2-0.9,2.3-2.1c0.1-1.3-0.8-2.4-2.1-2.6C803.5,1138,803.4,1138,803.3,1138
						L803.3,1138z"/>
				</g>
			</g>
			<g>
				<path class="st59" d="M794.7,1133.8c-0.1,0-0.1,0-0.2,0c-0.6-0.1-1.1-0.3-1.4-0.8c-0.4-0.4-0.5-1-0.5-1.5c0.1-1.1,1-1.9,2.1-1.9
					c0.1,0,0.1,0,0.2,0c0.6,0.1,1.1,0.3,1.4,0.8c0.4,0.4,0.5,1,0.5,1.5C796.6,1132.9,795.7,1133.8,794.7,1133.8z"/>
				<g>
					<path class="st60" d="M794.6,1129.3v0.5c0.1,0,0.1,0,0.2,0c1,0.1,1.8,1,1.7,2c-0.1,1-0.9,1.7-1.8,1.7c-0.1,0-0.1,0-0.2,0
						c-1-0.1-1.8-1-1.7-2c0.1-1,0.9-1.7,1.8-1.7V1129.3 M794.6,1129.3c-1.2,0-2.2,0.9-2.3,2.1c-0.1,1.3,0.8,2.4,2.1,2.6
						c0.1,0,0.2,0,0.2,0c1.2,0,2.2-0.9,2.3-2.1c0.1-1.3-0.8-2.4-2.1-2.6C794.8,1129.3,794.7,1129.3,794.6,1129.3L794.6,1129.3z"/>
				</g>
			</g>
			<g>
				<path class="st59" d="M790.4,1122.5c-0.1,0-0.1,0-0.2,0c-1.2-0.1-2-1.1-1.9-2.3c0.1-1.1,1-1.9,2.1-1.9c0.1,0,0.1,0,0.2,0
					c0.6,0.1,1.1,0.3,1.4,0.8s0.5,1,0.5,1.5C792.4,1121.7,791.5,1122.5,790.4,1122.5z"/>
				<g>
					<path class="st60" d="M790.4,1118.6L790.4,1118.6c0.1,0,0.1,0,0.2,0c0.5,0,0.9,0.3,1.3,0.7s0.5,0.9,0.4,1.4
						c-0.1,1-0.9,1.7-1.8,1.7c-0.1,0-0.1,0-0.2,0c-0.5,0-0.9-0.3-1.3-0.7c-0.3-0.4-0.5-0.9-0.4-1.4
						C788.6,1119.3,789.4,1118.6,790.4,1118.6 M790.4,1118.1c-1.2,0-2.2,0.9-2.3,2.1c-0.1,1.3,0.8,2.4,2.1,2.6c0.1,0,0.2,0,0.2,0
						c1.2,0,2.2-0.9,2.3-2.1c0.1-1.3-0.8-2.4-2.1-2.6C790.5,1118.1,790.4,1118.1,790.4,1118.1L790.4,1118.1z"/>
				</g>
			</g>
			<g>
				<path class="st59" d="M791.1,1111.7c-0.1,0-0.1,0-0.2,0c-1.2-0.1-2-1.1-1.9-2.3c0.1-1.1,1-1.9,2.1-1.9c0.1,0,0.1,0,0.2,0
					c1.2,0.1,2,1.1,1.9,2.3C793.1,1110.9,792.2,1111.7,791.1,1111.7z"/>
				<g>
					<path class="st60" d="M791.1,1107.8L791.1,1107.8c0.1,0,0.1,0,0.2,0c1,0.1,1.8,1,1.7,2c-0.1,1-0.9,1.7-1.8,1.7
						c-0.1,0-0.1,0-0.2,0c-1-0.1-1.8-1-1.7-2C789.4,1108.5,790.2,1107.8,791.1,1107.8 M791.1,1107.3c-1.2,0-2.2,0.9-2.3,2.1
						c-0.1,1.3,0.8,2.4,2.1,2.6c0.1,0,0.2,0,0.2,0c1.2,0,2.2-0.9,2.3-2.1c0.1-1.3-0.8-2.4-2.1-2.6
						C791.3,1107.3,791.2,1107.3,791.1,1107.3L791.1,1107.3z"/>
				</g>
			</g>
			<g>
				<path class="st59" d="M796.5,1101.8c-0.1,0-0.1,0-0.2,0c-1.2-0.1-2-1.1-1.9-2.3c0.1-1.1,1-1.9,2.1-1.9c0.1,0,0.1,0,0.2,0
					c0.6,0.1,1.1,0.3,1.4,0.8c0.4,0.4,0.5,1,0.5,1.5C798.5,1101,797.6,1101.8,796.5,1101.8z"/>
				<g>
					<path class="st60" d="M796.5,1097.9L796.5,1097.9c0.1,0,0.1,0,0.2,0c1,0.1,1.8,1,1.7,2c-0.1,1-0.9,1.7-1.8,1.7
						c-0.1,0-0.1,0-0.2,0c-1-0.1-1.8-1-1.7-2C794.7,1098.6,795.5,1097.9,796.5,1097.9 M796.5,1097.4c-1.2,0-2.2,0.9-2.3,2.1
						c-0.1,1.3,0.8,2.4,2.1,2.6c0.1,0,0.2,0,0.2,0c1.2,0,2.2-0.9,2.3-2.1c0.1-1.3-0.8-2.4-2.1-2.6
						C796.6,1097.4,796.6,1097.4,796.5,1097.4L796.5,1097.4z"/>
				</g>
			</g>
		</g>
		<path class="st63" d="M860.9,1145c0,0,21.9-51.7-26.3-75.6c0,0-28.1-9-47,5.9c-18.9,14.9-22.4,37.2-21.8,56.9c0,0-4.5-6.5-3-22.6
			c1.5-16.1,14.9-50.8,58.7-48.6c0,0,50.2,3.5,48.6,58.7C870.1,1119.8,869.4,1134,860.9,1145z"/>
		<path class="st11" d="M767.4,991.3c0,0,160.6,0.1,167.8,28.4c0,0,7.5,5,10,16.5c0,0,18,3.1,17.2,22.4c0,0,1.3,29.6,3.3,37.8
			c2,8.1-0.7,7.9-6.9,9.7c-6.2,1.9-52.6,8.7-79.6,10.8c0,0,5.7-48.5-45.2-66.4c0,0-27.5-7.8-49.8,5.7
			c-22.4,13.5-30.8,30.5-31.1,53.4c-0.3,23,4.2,25.3,4.2,25.3s-6.7,4-16-13l-2.2,0.1c0,0,3.5-71.7-20.1-108.4
			c0,0,24.1-5.7,30.7-17.4C749.6,996.2,761.1,991.7,767.4,991.3z"/>
		<path class="st64" d="M749.6,996.2l136.1,9.9c0,0,29.1,2.5,36.6,11.6l12.9,1.9c0,0-3.1-13.6-37.2-18.8
			c-34.1-5.2-58.2-7.6-130.6-9.6C767.4,991.3,756.7,992.8,749.6,996.2z"/>
		<path class="st64" d="M962.9,1069.4c0,0-41.5,2.1-49.3,5.2c0,0,34.6-29.2,31.3-40l1.9,2.6c0,0,14,3.1,15.4,16
			S962.9,1069.4,962.9,1069.4z"/>
		<path class="st65" d="M879.2,1116.9c0,0,4-8.2,16.7-9.6c12.7-1.4,66.9-7.6,69.9-12.8c0,0,4.5,10.5-7,11.6
			S879.2,1116.9,879.2,1116.9z"/>
		<path class="st65" d="M962.9,1069.4l0.3,2.4c0,0-48.3,3.9-56.2,10.8c0,0-3.6,2-5.5,6.1c0,0,0.7-8.3,12-14.1
			C913.6,1074.6,924.1,1071.6,962.9,1069.4z"/>
		<path class="st64" d="M965.8,1094.5c0,0-1.3,1.6-4.9,2.3c-3.7,0.7-65.6,5-59.3-8.2c0,0,2.1-4.3,7.2-7c0,0-8.2,7.7,1,9.9
			C918.9,1093.7,952.7,1096.5,965.8,1094.5z"/>
		<path class="st66" d="M963.2,1071.8c0,0,1.2,16.1,2.6,22.8c0,0-30.6,2.4-56-3c0,0-9-3.2-1-9.9
			C916.9,1075,963.2,1071.8,963.2,1071.8z"/>
		<path class="st28" d="M935.2,1019.7c0,0-6.1-0.9-15.4-1.9c-12-1.3-29.3-3-45.6-3.3c0,0-11.6,1.7-6.4,5.8
			c5.2,4.1,21.5,17.5,21.5,17.5l14.9,5.5c0,0,43.2,0.6,40.6-8.8C942.2,1025.1,935.2,1019.7,935.2,1019.7z"/>
		<path class="st67" d="M919.3,1020.7c0,0,12.3,11.4,3.9,21.8c0,0,24.1,0.5,21.6-8c-3.3-11.1-9.6-14.7-9.6-14.7l-29.2-3.4
			C906.1,1016.3,916,1017.3,919.3,1020.7z"/>
		<path class="st11" d="M749.6,996.2c0,0-80.9-37.1-128-45.2l13.6-8c0,0-61.8-12.3-146.4,1.5s-138.6,36.9-138.6,36.9l14.5,3.1
			l-90.7,54.7l-19.4,0.1l-63.6,22.8c0,0-3.8,13.9-0.1,16.4l2.2-4.4c0,0,27.9-0.6,39.5,13.8s18.4,24.3,18.4,24.3s5.4,7.3,14.2,8.1
			c8.9,0.8,51.2,6.6,51.2,6.6s28.9-31.9,76.7-13.1l12.7-5.9l-36.3-43.5c0,0-1.3-12.6,1.2-16c2.5-3.3,3-8.7,3-8.7s-35-8-24.4-18
			s55.8-37.6,55.8-37.6s89.6-21.2,108.4-23c18.8-1.8,106.1-2.5,141.7,10.2c35.6,12.7,66.8,23.5,80.7,30.9c0,0,2.2,3.9-0.7,5.4
			C735.1,1007.7,746.7,1005.2,749.6,996.2z"/>
		<path class="st68" d="M367.8,984.9C418,966.1,425,967,492.4,953.6s129.2-2.6,129.2-2.6"/>
		<path class="st69" d="M273.9,1039.3c0,0-25.5,15.3-60,23.1l-19.3,4.9l-1.6,6.8"/>
		<g>
			<path class="st70" d="M194.6,1067.3l174.5-12.4c0,0-0.1-3.4,1.6-6.5c1.6-3.1,2.6-6.4,3-8.7l-119.6,9.5
				C254.1,1049.3,233.2,1059,194.6,1067.3z"/>
		</g>
		<g>
			<path class="st71" d="M435.2,965.6c0,0-28.6,12.1-30.2,18.5l-55.8,37.6l11.9,14.6l-86.2,3.8
				C274.9,1040.1,349.9,980.2,435.2,965.6z"/>
		</g>
		<path class="st64" d="M562.2,956.4c0,0,45.8-0.2,67.6-3.8c0,0,53.7,12.8,104.2,37c0,0,0.4,7.1-6.9,9.2l-72.2-27.5
			c0,0-26.7-10.1-71.8-10.1l-26.3-1.4L562.2,956.4z"/>
		<path class="st11" d="M719,1013.6c0,0-314.7,26.5-345.3,26.2c0,0-0.6,5.3-3,8.7c0,0-1.6,3.4-1.6,6.5l0.4,9.5l36.3,43.5l-12.7,5.9
			c0,0,37.3,18.4,32.7,60.9c0,0,1.5,1.4,12.9-0.1s318.6-39.8,318.6-39.8s-6.7,2.3-16-13l-2.2,0.1
			C739.1,1122,744.2,1052.7,719,1013.6z"/>
		<g>
			<path class="st70" d="M375.3,1054.9l351.1-26.8c0,0-3-8-7.4-14.5l-345.3,26.2c0,0,0,5-3,8.7c0,0-1.8,3.5-1.6,6.5L375.3,1054.9z"
				/>
		</g>
		<path class="st65" d="M405.8,1107.9l28,32.6c0,0,7,18.1,38.6,14.4s266.7-33,266.7-33l2.2-0.1c0,0,6.5,13.5,16,13l-318.6,39.8
			c0,0-9.8,1.8-12.9,0.1c0,0,6.1-38.7-32.7-60.9L405.8,1107.9z"/>
		<path class="st72" d="M555.9,1049.8c0,0-5.5,4.5,0.9,4.9c6.4,0.4,29.5-3.4,29.5-3.4s5.4-3-2-4.6L555.9,1049.8z"/>
		<path class="st72" d="M410.5,1064c0,0-5.5,4.5,0.9,4.9c6.4,0.4,29.5-3.4,29.5-3.4s5.4-3-2-4.6L410.5,1064z"/>
		<path class="st73" d="M580,1054.2c0,0-3.8,7.1-15,1.4"/>
		<path class="st74" d="M578.3,1045.8c0,0-7.1-6.1-14.5,1.4"/>
		<path class="st73" d="M434.2,1068.6c0,0-3.8,7.1-15,1.4"/>
		<path class="st74" d="M432.5,1060.2c0,0-7.1-6.1-14.5,1.4"/>
		<g>
			<path class="st71" d="M738.3,1080.3c0,0-4.4,26-24.1,27.9c-19.7,2-245.1,28.4-245.1,28.4s-29.9,5.2-51-14.4l15.6,18.3
				c0,0,5.8,17.9,38.6,14.4c32.8-3.4,266.7-33,266.7-33S740.1,1106.6,738.3,1080.3z"/>
		</g>
		<circle class="st14" cx="364.2" cy="1174.6" r="53.9"/>
		<g>
			<g>
				<path class="st54" d="M364.6,1212.1c-1.1,0-2.2-0.1-3.3-0.2c-9.3-0.9-17.7-5.3-23.6-12.5c-5.9-7.2-8.7-16.3-7.8-25.5
					c1.7-18,16.6-31.6,34.7-31.6c1.1,0,2.2,0.1,3.3,0.2c9.3,0.9,17.7,5.3,23.6,12.5c5.9,7.2,8.7,16.3,7.8,25.5
					C397.6,1198.5,382.7,1212.1,364.6,1212.1z"/>
				<path class="st55" d="M364.5,1143.8c1.1,0,2.1,0,3.2,0.2c18.4,1.7,31.8,18,30.1,36.4c-1.6,17.3-16.2,30.3-33.2,30.3
					c-1.1,0-2.1,0-3.2-0.2c-18.4-1.7-31.8-18-30.1-36.4C332.9,1156.7,347.5,1143.8,364.5,1143.8 M364.5,1140.8L364.5,1140.8
					c-9,0-17.7,3.3-24.4,9.4c-6.8,6.1-11,14.5-11.8,23.6c-1.9,20,12.8,37.8,32.8,39.7c1.2,0.1,2.3,0.2,3.5,0.2
					c9,0,17.7-3.3,24.4-9.4c6.8-6.1,11-14.5,11.8-23.6c1.9-20-12.8-37.8-32.8-39.7C366.8,1140.8,365.7,1140.8,364.5,1140.8
					L364.5,1140.8z"/>
			</g>
			<g>
				<path class="st56" d="M364.5,1196.6c-0.6,0-1.2,0-1.8-0.1c-5.1-0.5-9.6-2.9-12.9-6.8c-3.2-3.9-4.8-8.9-4.3-13.9
					c0.9-9.8,9.1-17.2,18.9-17.2c0.6,0,1.2,0,1.8,0.1c5.1,0.5,9.6,2.9,12.9,6.8c3.2,3.9,4.8,8.9,4.3,13.9
					C382.5,1189.2,374.4,1196.6,364.5,1196.6z"/>
				<path class="st57" d="M364.5,1159.5L364.5,1159.5c0.6,0,1.2,0,1.7,0.1c9.9,0.9,17.2,9.8,16.2,19.6c-0.9,9.3-8.6,16.3-17.9,16.3
					c-0.6,0-1.2,0-1.7-0.1c-9.9-0.9-17.2-9.8-16.2-19.6C347.4,1166.5,355.2,1159.5,364.5,1159.5 M364.5,1157.5
					c-10.2,0-18.9,7.8-19.9,18.1c-1,11,7,20.8,18,21.8c0.6,0.1,1.3,0.1,1.9,0.1c10.2,0,18.9-7.8,19.9-18.1c1-11-7-20.8-18-21.8
					C365.8,1157.5,365.1,1157.5,364.5,1157.5L364.5,1157.5z"/>
			</g>
			<circle class="st58" cx="364.8" cy="1177.6" r="6.7"/>
			<g>
				<path class="st59" d="M354.9,1155.5c-0.1,0-0.1,0-0.2,0c-1.2-0.1-2-1.1-1.9-2.3c0.1-1.1,1-1.9,2.1-1.9c0.1,0,0.1,0,0.2,0
					c0.6,0.1,1.1,0.3,1.4,0.8s0.5,1,0.5,1.5C356.9,1154.7,356,1155.5,354.9,1155.5z"/>
				<path class="st60" d="M354.9,1151v0.5c0.1,0,0.1,0,0.2,0c0.5,0,0.9,0.3,1.3,0.7s0.5,0.9,0.4,1.4c-0.1,1-0.9,1.7-1.8,1.7
					c-0.1,0-0.1,0-0.2,0c-0.5,0-0.9-0.3-1.3-0.7c-0.3-0.4-0.5-0.9-0.4-1.4c0.1-1,0.9-1.7,1.8-1.7V1151 M354.9,1151
					c-1.2,0-2.2,0.9-2.3,2.1c-0.1,1.3,0.8,2.4,2.1,2.6c0.1,0,0.2,0,0.2,0c1.2,0,2.2-0.9,2.3-2.1c0.1-1.3-0.8-2.4-2.1-2.6
					C355,1151,355,1151,354.9,1151L354.9,1151z"/>
			</g>
			<g>
				<path class="st59" d="M369.1,1153.7c-0.1,0-0.1,0-0.2,0c-1.2-0.1-2-1.1-1.9-2.3c0.1-1.1,1-1.9,2.1-1.9c0.1,0,0.1,0,0.2,0
					c0.6,0.1,1.1,0.3,1.4,0.8s0.5,1,0.5,1.5C371,1152.9,370.1,1153.7,369.1,1153.7z"/>
				<g>
					<path class="st60" d="M369,1149.8L369,1149.8c0.1,0,0.1,0,0.2,0c1,0.1,1.8,1,1.7,2c-0.1,1-0.9,1.7-1.8,1.7c-0.1,0-0.1,0-0.2,0
						c-1-0.1-1.8-1-1.7-2C367.3,1150.5,368.1,1149.8,369,1149.8 M369,1149.3c-1.2,0-2.2,0.9-2.3,2.1c-0.1,1.3,0.8,2.4,2.1,2.6
						c0.1,0,0.2,0,0.2,0c1.2,0,2.2-0.9,2.3-2.1c0.1-1.3-0.8-2.4-2.1-2.6C369.2,1149.3,369.1,1149.3,369,1149.3L369,1149.3z"/>
				</g>
			</g>
			<g>
				<path class="st61" d="M365.4,1166.9c-0.3,0-0.7-0.2-0.9-0.5c-0.2-0.3-0.3-0.6-0.3-1c0.1-0.7,0.6-1.2,1.3-1.2c0,0,0.1,0,0.1,0
					c0.3,0,0.7,0.2,0.9,0.5c0.2,0.3,0.3,0.6,0.3,1c-0.1,0.7-0.6,1.2-1.3,1.2C365.5,1166.9,365.5,1166.9,365.4,1166.9z"/>
				<g>
					<path class="st62" d="M365.6,1164.5L365.6,1164.5c0,0,0.1,0,0.1,0c0.3,0,0.5,0.2,0.7,0.4c0.2,0.2,0.3,0.5,0.2,0.8
						c-0.1,0.5-0.5,1-1.1,1c0,0-0.1,0-0.1,0c-0.6-0.1-1-0.6-1-1.2C364.6,1164.9,365,1164.5,365.6,1164.5 M365.6,1164
						c-0.8,0-1.5,0.6-1.5,1.4c-0.1,0.9,0.5,1.6,1.4,1.7c0.1,0,0.1,0,0.1,0c0.8,0,1.5-0.6,1.5-1.4c0.1-0.9-0.5-1.6-1.4-1.7
						C365.7,1164,365.6,1164,365.6,1164L365.6,1164z"/>
				</g>
			</g>
			<g>
				<path class="st61" d="M375.9,1179.5c-0.7-0.1-1.2-0.7-1.2-1.4c0.1-0.7,0.6-1.2,1.3-1.2c0,0,0.1,0,0.1,0c0.7,0.1,1.2,0.7,1.2,1.4
					c-0.1,0.7-0.6,1.2-1.3,1.2C376,1179.6,375.9,1179.6,375.9,1179.5z"/>
				<g>
					<path class="st62" d="M376,1177.2L376,1177.2c0,0,0.1,0,0.1,0c0.6,0.1,1,0.6,1,1.2c-0.1,0.5-0.5,1-1.1,1c0,0-0.1,0-0.1,0
						c-0.6-0.1-1-0.6-1-1.2C375,1177.6,375.5,1177.2,376,1177.2 M376,1176.7c-0.8,0-1.5,0.6-1.5,1.4c-0.1,0.9,0.5,1.6,1.4,1.7
						c0.1,0,0.1,0,0.1,0c0.8,0,1.5-0.6,1.5-1.4c0.1-0.9-0.5-1.6-1.4-1.7C376.1,1176.7,376.1,1176.7,376,1176.7L376,1176.7z"/>
				</g>
			</g>
			<g>
				<path class="st61" d="M363.5,1189.6c-0.3,0-0.7-0.2-0.9-0.5c-0.2-0.3-0.3-0.6-0.3-1c0.1-0.7,0.6-1.2,1.3-1.2c0,0,0.1,0,0.1,0
					c0.7,0.1,1.2,0.7,1.2,1.4c-0.1,0.7-0.6,1.2-1.3,1.2C363.6,1189.6,363.5,1189.6,363.5,1189.6z"/>
				<g>
					<path class="st62" d="M363.6,1187.3L363.6,1187.3c0,0,0.1,0,0.1,0c0.3,0,0.5,0.2,0.7,0.4c0.2,0.2,0.3,0.5,0.2,0.8
						c-0.1,0.5-0.5,1-1.1,1c0,0-0.1,0-0.1,0c-0.3,0-0.5-0.2-0.7-0.4c-0.2-0.2-0.3-0.5-0.2-0.8C362.6,1187.7,363,1187.3,363.6,1187.3
						 M363.6,1186.8c-0.8,0-1.5,0.6-1.5,1.4c-0.1,0.9,0.5,1.6,1.4,1.7c0.1,0,0.1,0,0.1,0c0.8,0,1.5-0.6,1.5-1.4
						c0.1-0.9-0.5-1.6-1.4-1.7C363.7,1186.8,363.6,1186.8,363.6,1186.8L363.6,1186.8z"/>
				</g>
			</g>
			<g>
				<path class="st61" d="M352.8,1178c-0.3,0-0.7-0.2-0.9-0.5c-0.2-0.3-0.3-0.6-0.3-1c0.1-0.7,0.6-1.2,1.3-1.2c0,0,0.1,0,0.1,0
					c0.7,0.1,1.2,0.7,1.2,1.4c-0.1,0.7-0.6,1.2-1.3,1.2C352.8,1178,352.8,1178,352.8,1178z"/>
				<g>
					<path class="st62" d="M352.9,1175.7L352.9,1175.7c0,0,0.1,0,0.1,0c0.6,0.1,1,0.6,1,1.2c-0.1,0.5-0.5,1-1.1,1c0,0-0.1,0-0.1,0
						c-0.6-0.1-1-0.6-1-1.2C351.9,1176.1,352.3,1175.7,352.9,1175.7 M352.9,1175.2c-0.8,0-1.5,0.6-1.5,1.4c-0.1,0.9,0.5,1.6,1.4,1.7
						c0.1,0,0.1,0,0.1,0c0.8,0,1.5-0.6,1.5-1.4c0.1-0.9-0.5-1.6-1.4-1.7C353,1175.2,352.9,1175.2,352.9,1175.2L352.9,1175.2z"/>
				</g>
			</g>
			<g>
				<path class="st59" d="M382.8,1160.5c-0.1,0-0.1,0-0.2,0c-0.6-0.1-1.1-0.3-1.4-0.8s-0.5-1-0.5-1.5c0.1-1.1,1-1.9,2.1-1.9
					c0.1,0,0.1,0,0.2,0c1.2,0.1,2,1.1,1.9,2.3C384.8,1159.7,383.9,1160.5,382.8,1160.5z"/>
				<g>
					<path class="st60" d="M382.8,1156.1v0.5c0.1,0,0.1,0,0.2,0c0.5,0,0.9,0.3,1.3,0.7c0.3,0.4,0.5,0.9,0.4,1.4
						c-0.1,1-0.9,1.7-1.8,1.7c-0.1,0-0.1,0-0.2,0c-0.5,0-0.9-0.3-1.3-0.7s-0.5-0.9-0.4-1.4c0.1-1,0.9-1.7,1.8-1.7V1156.1
						 M382.8,1156.1c-1.2,0-2.2,0.9-2.3,2.1c-0.1,1.3,0.8,2.4,2.1,2.6c0.1,0,0.2,0,0.2,0c1.2,0,2.2-0.9,2.3-2.1
						c0.1-1.3-0.8-2.4-2.1-2.6C382.9,1156.1,382.9,1156.1,382.8,1156.1L382.8,1156.1z"/>
				</g>
			</g>
			<g>
				<path class="st59" d="M389.4,1170.9c-0.1,0-0.1,0-0.2,0c-1.2-0.1-2-1.1-1.9-2.3c0.1-1.1,1-1.9,2.1-1.9c0.1,0,0.1,0,0.2,0
					c1.2,0.1,2,1.1,1.9,2.3C391.4,1170,390.5,1170.9,389.4,1170.9z"/>
				<g>
					<path class="st60" d="M389.4,1166.4v0.5c0.1,0,0.1,0,0.2,0c1,0.1,1.8,1,1.7,2c-0.1,1-0.9,1.7-1.8,1.7c-0.1,0-0.1,0-0.2,0
						c-1-0.1-1.8-1-1.7-2c0.1-1,0.9-1.7,1.8-1.7V1166.4 M389.4,1166.4c-1.2,0-2.2,0.9-2.3,2.1c-0.1,1.3,0.8,2.4,2.1,2.6
						c0.1,0,0.2,0,0.2,0c1.2,0,2.2-0.9,2.3-2.1c0.1-1.3-0.8-2.4-2.1-2.6C389.6,1166.4,389.5,1166.4,389.4,1166.4L389.4,1166.4z"/>
				</g>
			</g>
			<g>
				<path class="st59" d="M390.2,1183.7c-0.1,0-0.1,0-0.2,0c-1.2-0.1-2-1.1-1.9-2.3c0.1-1.1,1-1.9,2.1-1.9c0.1,0,0.1,0,0.2,0
					c0.6,0.1,1.1,0.3,1.4,0.8s0.5,1,0.5,1.5C392.2,1182.9,391.3,1183.7,390.2,1183.7z"/>
				<g>
					<path class="st60" d="M390.2,1179.7L390.2,1179.7c0.1,0,0.1,0,0.2,0c1,0.1,1.8,1,1.7,2c-0.1,1-0.9,1.7-1.8,1.7
						c-0.1,0-0.1,0-0.2,0c-1-0.1-1.8-1-1.7-2C388.5,1180.5,389.2,1179.7,390.2,1179.7 M390.2,1179.2c-1.2,0-2.2,0.9-2.3,2.1
						c-0.1,1.3,0.8,2.4,2.1,2.6c0.1,0,0.2,0,0.2,0c1.2,0,2.2-0.9,2.3-2.1c0.1-1.3-0.8-2.4-2.1-2.6
						C390.4,1179.2,390.3,1179.2,390.2,1179.2L390.2,1179.2z"/>
				</g>
			</g>
			<g>
				<path class="st59" d="M385.4,1195.1c-0.1,0-0.1,0-0.2,0c-1.2-0.1-2-1.1-1.9-2.3c0.1-1.1,1-1.9,2.1-1.9c0.1,0,0.1,0,0.2,0
					c0.6,0.1,1.1,0.3,1.4,0.8s0.5,1,0.5,1.5C387.4,1194.3,386.5,1195.1,385.4,1195.1z"/>
				<g>
					<path class="st60" d="M385.4,1191.2L385.4,1191.2c0.1,0,0.1,0,0.2,0c0.5,0,0.9,0.3,1.3,0.7s0.5,0.9,0.4,1.4
						c-0.1,1-0.9,1.7-1.8,1.7c-0.1,0-0.1,0-0.2,0c-0.5,0-0.9-0.3-1.3-0.7c-0.3-0.4-0.5-0.9-0.4-1.4
						C383.6,1191.9,384.4,1191.2,385.4,1191.2 M385.4,1190.7c-1.2,0-2.2,0.9-2.3,2.1c-0.1,1.3,0.8,2.4,2.1,2.6c0.1,0,0.2,0,0.2,0
						c1.2,0,2.2-0.9,2.3-2.1c0.1-1.3-0.8-2.4-2.1-2.6C385.6,1190.7,385.5,1190.7,385.4,1190.7L385.4,1190.7z"/>
				</g>
			</g>
			<g>
				<path class="st59" d="M375,1203.3c-0.1,0-0.1,0-0.2,0c-1.2-0.1-2-1.1-1.9-2.3c0.1-1.1,1-1.9,2.1-1.9c0.1,0,0.1,0,0.2,0
					c0.6,0.1,1.1,0.3,1.4,0.8s0.5,1,0.5,1.5C377,1202.5,376.1,1203.3,375,1203.3z"/>
				<g>
					<path class="st60" d="M375,1198.8v0.5c0.1,0,0.1,0,0.2,0c1,0.1,1.8,1,1.7,2c-0.1,1-0.9,1.7-1.8,1.7c-0.1,0-0.1,0-0.2,0
						c-1-0.1-1.8-1-1.7-2c0.1-1,0.9-1.7,1.8-1.7V1198.8 M375,1198.8c-1.2,0-2.2,0.9-2.3,2.1c-0.1,1.3,0.8,2.4,2.1,2.6
						c0.1,0,0.2,0,0.2,0c1.2,0,2.2-0.9,2.3-2.1c0.1-1.3-0.8-2.4-2.1-2.6C375.2,1198.8,375.1,1198.8,375,1198.8L375,1198.8z"/>
				</g>
			</g>
			<g>
				<path class="st59" d="M362.2,1206.1c-0.1,0-0.1,0-0.2,0c-1.2-0.1-2-1.1-1.9-2.3c0.1-1.1,1-1.9,2.1-1.9c0.1,0,0.1,0,0.2,0
					c1.2,0.1,2,1.1,1.9,2.3C364.2,1205.2,363.3,1206.1,362.2,1206.1z"/>
				<g>
					<path class="st60" d="M362.2,1202.1L362.2,1202.1c0.1,0,0.1,0,0.2,0c1,0.1,1.8,1,1.7,2c-0.1,1-0.9,1.7-1.8,1.7
						c-0.1,0-0.1,0-0.2,0c-1-0.1-1.8-1-1.7-2C360.4,1202.8,361.2,1202.1,362.2,1202.1 M362.2,1201.6c-1.2,0-2.2,0.9-2.3,2.1
						c-0.1,1.3,0.8,2.4,2.1,2.6c0.1,0,0.2,0,0.2,0c1.2,0,2.2-0.9,2.3-2.1c0.1-1.3-0.8-2.4-2.1-2.6
						C362.3,1201.6,362.3,1201.6,362.2,1201.6L362.2,1201.6z"/>
				</g>
			</g>
			<g>
				<path class="st59" d="M351,1202.4c-0.1,0-0.1,0-0.2,0c-0.6-0.1-1.1-0.3-1.4-0.8s-0.5-1-0.5-1.5c0.1-1.1,1-1.9,2.1-1.9
					c0.1,0,0.1,0,0.2,0c1.2,0.1,2,1.1,1.9,2.3C353,1201.6,352.1,1202.4,351,1202.4z"/>
				<g>
					<path class="st60" d="M351,1198v0.5c0.1,0,0.1,0,0.2,0c0.5,0,0.9,0.3,1.3,0.7s0.5,0.9,0.4,1.4c-0.1,1-0.9,1.7-1.8,1.7
						c-0.1,0-0.1,0-0.2,0c-0.5,0-0.9-0.3-1.3-0.7c-0.3-0.4-0.5-0.9-0.4-1.4c0.1-1,0.9-1.7,1.8-1.7V1198 M351,1198
						c-1.2,0-2.2,0.9-2.3,2.1c-0.1,1.3,0.8,2.4,2.1,2.6c0.1,0,0.2,0,0.2,0c1.2,0,2.2-0.9,2.3-2.1c0.1-1.3-0.8-2.4-2.1-2.6
						C351.2,1198,351.1,1198,351,1198L351,1198z"/>
				</g>
			</g>
			<g>
				<path class="st59" d="M342.4,1193.7c-0.1,0-0.1,0-0.2,0c-1.2-0.1-2-1.1-1.9-2.3c0.1-1.1,1-1.9,2.1-1.9c0.1,0,0.1,0,0.2,0
					c1.2,0.1,2,1.1,1.9,2.3C344.3,1192.9,343.4,1193.7,342.4,1193.7z"/>
				<g>
					<path class="st60" d="M342.3,1189.7L342.3,1189.7c0.1,0,0.1,0,0.2,0c0.5,0,0.9,0.3,1.3,0.7s0.5,0.9,0.4,1.4
						c-0.1,1-0.9,1.7-1.8,1.7c-0.1,0-0.1,0-0.2,0c-0.5,0-0.9-0.3-1.3-0.7c-0.3-0.4-0.5-0.9-0.4-1.4
						C340.6,1190.5,341.4,1189.7,342.3,1189.7 M342.3,1189.2c-1.2,0-2.2,0.9-2.3,2.1c-0.1,1.3,0.8,2.4,2.1,2.6c0.1,0,0.2,0,0.2,0
						c1.2,0,2.2-0.9,2.3-2.1c0.1-1.3-0.8-2.4-2.1-2.6C342.5,1189.2,342.4,1189.2,342.3,1189.2L342.3,1189.2z"/>
				</g>
			</g>
			<g>
				<path class="st59" d="M338.1,1182.5c-0.1,0-0.1,0-0.2,0c-1.2-0.1-2-1.1-1.9-2.3c0.1-1.1,1-1.9,2.1-1.9c0.1,0,0.1,0,0.2,0
					c0.6,0.1,1.1,0.3,1.4,0.8c0.4,0.4,0.5,1,0.5,1.5C340.1,1181.7,339.2,1182.5,338.1,1182.5z"/>
				<g>
					<path class="st60" d="M338.1,1178v0.5c0.1,0,0.1,0,0.2,0c1,0.1,1.8,1,1.7,2c-0.1,1-0.9,1.7-1.8,1.7c-0.1,0-0.1,0-0.2,0
						c-1-0.1-1.8-1-1.7-2c0.1-1,0.9-1.7,1.8-1.7V1178 M338.1,1178c-1.2,0-2.2,0.9-2.3,2.1c-0.1,1.3,0.8,2.4,2.1,2.6
						c0.1,0,0.2,0,0.2,0c1.2,0,2.2-0.9,2.3-2.1c0.1-1.3-0.8-2.4-2.1-2.6C338.2,1178,338.1,1178,338.1,1178L338.1,1178z"/>
				</g>
			</g>
			<g>
				<path class="st59" d="M338.8,1171.7c-0.1,0-0.1,0-0.2,0c-1.2-0.1-2-1.1-1.9-2.3c0.1-1.1,1-1.9,2.1-1.9c0.1,0,0.1,0,0.2,0
					c0.6,0.1,1.1,0.3,1.4,0.8s0.5,1,0.5,1.5C340.8,1170.9,339.9,1171.7,338.8,1171.7z"/>
				<g>
					<path class="st60" d="M338.8,1167.2v0.5c0.1,0,0.1,0,0.2,0c1,0.1,1.8,1,1.7,2c-0.1,1-0.9,1.7-1.8,1.7c-0.1,0-0.1,0-0.2,0
						c-1-0.1-1.8-1-1.7-2c0.1-1,0.9-1.7,1.8-1.7V1167.2 M338.8,1167.2c-1.2,0-2.2,0.9-2.3,2.1c-0.1,1.3,0.8,2.4,2.1,2.6
						c0.1,0,0.2,0,0.2,0c1.2,0,2.2-0.9,2.3-2.1c0.1-1.3-0.8-2.4-2.1-2.6C339,1167.2,338.9,1167.2,338.8,1167.2L338.8,1167.2z"/>
				</g>
			</g>
			<g>
				<path class="st59" d="M344.2,1161.8c-0.1,0-0.1,0-0.2,0c-1.2-0.1-2-1.1-1.9-2.3c0.1-1.1,1-1.9,2.1-1.9c0.1,0,0.1,0,0.2,0
					c0.6,0.1,1.1,0.3,1.4,0.8s0.5,1,0.5,1.5C346.2,1161,345.3,1161.8,344.2,1161.8z"/>
				<g>
					<path class="st60" d="M344.2,1157.3v0.5c0.1,0,0.1,0,0.2,0c0.5,0,0.9,0.3,1.3,0.7c0.3,0.4,0.5,0.9,0.4,1.4
						c-0.1,1-0.9,1.7-1.8,1.7c-0.1,0-0.1,0-0.2,0c-0.5,0-0.9-0.3-1.3-0.7s-0.5-0.9-0.4-1.4c0.1-1,0.9-1.7,1.8-1.7V1157.3
						 M344.2,1157.3c-1.2,0-2.2,0.9-2.3,2.1c-0.1,1.3,0.8,2.4,2.1,2.6c0.1,0,0.2,0,0.2,0c1.2,0,2.2-0.9,2.3-2.1
						c0.1-1.3-0.8-2.4-2.1-2.6C344.3,1157.3,344.3,1157.3,344.2,1157.3L344.2,1157.3z"/>
				</g>
			</g>
		</g>
		<path class="st63" d="M408.6,1204.9c0,0,21.9-51.7-26.3-75.6c0,0-28.1-9-47,5.9c-18.9,14.9-22.4,37.2-21.8,56.9
			c0,0-4.5-6.5-3-22.6c1.5-16.1,14.9-50.8,58.7-48.6c0,0,50.2,3.5,48.6,58.7C417.8,1179.7,417.1,1193.9,408.6,1204.9z"/>
		<path class="st68" d="M539,1027.8c0,0,19.9,50.6,22.3,116"/>
		<g>
			<path class="st70" d="M231.4,1189.8c-4.8,0-9.3,0-13.5-0.1c-8.6-0.2-15.7-3.2-21.2-9c-12.4-13.2-12.5-36.8-12.4-39.5l9.9-6.4
				l0-17.5l0.1-1.9c2.7,0.1,15.4,0.8,27.3,0.8c3.7,0,7-0.1,9.9-0.2c5.3-0.2,9.2-1.8,11.6-4.6c1.9-2.3,2.4-4.8,2.5-6.3l3.6,4.4
				c4.6,8.3,15.5,11.1,16,11.2l50.1,6.8c-22.9,23.2-14.5,55.4-13.1,60.2C297.1,1187.9,262.1,1189.8,231.4,1189.8
				C231.4,1189.8,231.4,1189.8,231.4,1189.8z"/>
			<g>
				<path class="st65" d="M246,1106.2l2.8,3.4c4.8,8.5,15.8,11.3,16.3,11.4l0.1,0l0.1,0l49.1,6.7c-12.3,12.9-15.1,28.4-15.3,39.2
					c-0.1,9.7,1.7,17.3,2.6,20.2c-6.9,0.4-40.5,2.2-70.2,2.2c-4.8,0-9.3,0-13.5-0.1c-8.4-0.2-15.4-3.2-20.8-8.8
					c-6.8-7.2-9.7-17.5-11.1-24.9c-1.2-6.8-1.2-12.4-1.2-14l9.4-6.1l0.5-0.3l0-0.5l0-17.2l0.1-1.4c3.5,0.2,15.6,0.7,26.8,0.7
					c3.7,0,7-0.1,9.9-0.2c5.5-0.2,9.5-1.8,12-4.8C245.1,1109.8,245.7,1107.8,246,1106.2 M245.1,1103.6c0,0,1.4,11.2-13.6,11.8
					c-3.1,0.1-6.4,0.2-9.9,0.2c-13.4,0-27.8-0.8-27.8-0.8l-0.1,2.4l0,17.3l-9.9,6.4c0,0-1.7,48.5,34,49.3c4.3,0.1,8.9,0.1,13.5,0.1
					c33.5,0,71.5-2.3,71.5-2.3s-12.2-35.9,13.5-61.1l-51.1-6.9c0,0-11.1-2.7-15.7-11L245.1,1103.6L245.1,1103.6z"/>
			</g>
		</g>
		<path class="st11" d="M241.6,1138.4c0,0,28.6,0,31.1-16.3l42.8,5.8c0,0-18.6,16-15.3,43.7l-102,11.7c0,0-14.3-11.5-14.4-42.4
			l9.9-6.4C193.7,1134.5,211.7,1142.4,241.6,1138.4z"/>
		<path class="st65" d="M302.9,1188l-2.7-16.4l-102,11.7c0,0,7.7,6.7,19.7,6.9C229.8,1190.4,302.9,1188,302.9,1188z"/>
		<path class="st10" d="M621.6,952c0,0,28.9,4.7,65,18.1c36.1,13.5,57.9,24,57.9,24s3.3,2.7,9.6,1.4s15.4-3.1,15.4-3.1
			s-72.5-38.6-133.1-48.7c0,0-2.6-1-5.4,0.6C628,945.9,621.6,952,621.6,952z"/>
		<path d="M726.8,997c0,0,20.1,9,9.4,13.3l-16.5,4c0,0-7.3,0.5-15.1,0.7s-321.1,26-321.1,26s-17.6,1.2-29.2-5.2s-12.4-8.6-4.4-15.2
			c8-6.6,37.6-27,37.6-27s22.2-14.8,49.2-20.7c26.9-5.9,58.5-13.4,120.2-16C618.8,954.3,682.6,973.9,726.8,997z"/>
		<path class="st75" d="M526.7,962.4l21.5,61.5l133.1-10.3l-2.4-29.7c0,0,0.8-3-6.5-5.1C665.2,976.6,600.4,951.8,526.7,962.4z"/>
		<path class="st75" d="M511.1,964.6c0,0,7.5,38,16.3,60.3l-127.5,11l-5.7-22.3c0,0-0.3-20.4,19.7-29
			C438,974.3,511.1,964.6,511.1,964.6z"/>
		<path class="st76" d="M518.5,962.7c0,0,10.4,40.1,19.8,61.6"/>
		<path class="st77" d="M673.4,991l-1.4,15c0,0,2,6.2,12.9,5.9c10.9-0.4,23.4-4.7,23.4-4.7s6.2-4.5-0.1-8.8s-11.5-8.5-25-10
			C674.9,987.2,673.4,991,673.4,991z"/>
		<path class="st78" d="M526.7,962.4l21.5,61.5c0,0,49.8-48.7,130.7-35.7l0-4.3c0,0,0.7-2.6-6.5-5.1S594.3,951.6,526.7,962.4z"/>
		<path class="st9" d="M621.6,952c0,0,81.9,10.2,147.8,40.4c0,0-68.9-37.6-133.1-48.7c0,0-3.2-1.3-6.8,1.8
			C625.8,948.5,621.6,952,621.6,952z"/>
		<path class="st79" d="M349.5,981.6l18.5,2.6c0,0-51.9,31.7-91.3,55.7l-22.5-0.4C254.2,1039.5,303.4,1004.7,349.5,981.6z"/>
		<path class="st28" d="M188.3,1074l26.6,2.2c0,0,7.2-0.8,15.8,9.2c8.6,10.1,13.5,16.6,13.5,16.6s4.3,9.7-5.5,12.7
			s-45.8,1.8-45.8,1.8S187.6,1114.3,188.3,1074z"/>
		<path class="st67" d="M193.2,1090.6c0,0,36.6,1.8,40.7-1.5c0,0-7.6-12.3-19-13.4c-11.4-1.1-26.7-2.2-26.7-2.2l0.4,16.5
			C188.6,1089.9,190.3,1090.3,193.2,1090.6z"/>
		<path class="st67" d="M242.7,1100.1c0,0-8.3,13.5-53.2,5.2c0,0,1,9.9,3.4,11.4c0,0,33.2,2,44.8-0.9
			C237.7,1115.7,251.8,1111.3,242.7,1100.1z"/>
		<path class="st80" d="M254.2,1039.5c0,0,60.7-40.9,88.8-40.2l27.5-14.7l-20.9-3.1C349.5,981.6,308.7,1000.7,254.2,1039.5z"/>
		<path class="st78" d="M513.5,976.2c0,0-93,12.9-96.5,58.5l-17.1,1.3l-5.7-22.3c0,0-4.4-18.3,19.2-29.1
			c26.1-11.9,97.7-19.9,97.7-19.9L513.5,976.2z"/>
		<g>
			<path class="st71" d="M726.4,1028.1c0,0,81.3-9.9,141.4-7.8l21.5,17.5l14.9,5.5l-27.8,3.2c0,0-5.5-11.6-29-12.9
				c-23.5-1.3-53.3,3-92.8,19c0,0-7.7,2.3-9.4,26.7c-1.7,24.4-3.9,42.7-3.9,42.7l-2.2,0.1C739.1,1122,741.8,1068,726.4,1028.1z"/>
		</g>
		<path class="st81" d="M751.9,1032.2l-9.3,1.3c0,0-1.2,0.4-0.9,4.1c0.2,3.6,0.6,4.3,4.7,3.6c4.1-0.7,8.1-1.3,8.1-1.3
			s2.9,0.6,1.4-5.7C755.8,1034.1,756.6,1030.5,751.9,1032.2z"/>
		<path class="st82" d="M276.7,1039.9c0,0-23.1,13.2-82.1,27.4l-0.1,6.4"/>
		<path class="st82" d="M373.6,1039.8c0,0,0.1,5.4-3,8.7c0,0-1.9,3.1-1.6,6.5s0.1,7.8,0.4,9.5l36.3,43.5"/>
		<path class="st68" d="M719.7,1014.3c0,0,5.9,10,6.7,13.8c0.8,3.8,9.8,20.4,11.9,52.2s3,41.6,3,41.6"/>
		<path class="st82" d="M945.2,1036.2c0,0-1.7,6.4-21.2,6.4s-65,6.4-82.8,9.9"/>
	</g>
</g>
<g id="fifteen_00000103262623346785252190000005497341088573515404_">
</g>
<g id="sixteen_00000052784415532825981170000013120508718389060798_">
</g>
<g id="seventeen_00000052799129178776355750000005236059528330747796_">
</g>
<g id="eighteen_00000054256262866476431880000018286803152678894488_">
</g>
<g id="nineteen_00000107558268356232088990000008456042227242415802_">
</g>
<g id="twenty">
</g>
</svg>
