<?xml version="1.0" encoding="utf-8"?>
<!-- Generator: Adobe Illustrator 27.2.0, SVG Export Plug-In . SVG Version: 6.00 Build 0)  -->
<svg version="1.1" xmlns="http://www.w3.org/2000/svg" xmlns:xlink="http://www.w3.org/1999/xlink" x="0px" y="0px"
	 viewBox="0 0 2250.5 1926.5" style="enable-background:new 0 0 2250.5 1926.5;" xml:space="preserve">
<style type="text/css">
	.st0{fill:#E8E6E6;stroke:#ADADAD;stroke-miterlimit:10;}
	.st1{fill:#F3F2F7;}
	.st2{fill:#030303;}
	.st3{fill:#353131;}
	.st4{fill:none;stroke:#ADADAD;stroke-width:2;stroke-miterlimit:10;}
	.st5{fill:none;stroke:#F3F2F7;stroke-width:2;stroke-miterlimit:10;}
	.st6{fill:#0A1205;}
	.st7{fill:#F3F2F7;stroke:#ADADAD;stroke-width:0.75;stroke-miterlimit:10;}
	.st8{fill:#ADADAD;}
	.st9{fill:#282828;}
	.st10{fill:#3A3A3A;}
	.st11{fill:#0A54A2;}
	.st12{fill:none;stroke:#E8E6E6;stroke-width:0.9742;stroke-miterlimit:10;}
	.st13{fill:#2E2E2E;}
	.st14{fill:#333333;}
	.st15{fill:#939393;stroke:#ADADAD;stroke-miterlimit:10;}
	.st16{fill:#D1D1D1;}
	.st17{fill:#191919;}
	.st18{fill:#666666;stroke:#ADADAD;stroke-miterlimit:10;}
	.st19{fill:#363636;}
	.st20{fill:none;stroke:#ADADAD;stroke-miterlimit:10;}
	.st21{fill:#121212;}
	.st22{fill:#0E0A12;}
	.st23{fill:#6E6E6E;}
	.st24{fill:#4E4E4E;}
	.st25{fill:#1E1E1E;}
	.st26{fill:#646464;}
	.st27{fill:#999999;}
	.st28{fill:#9E9E9E;}
	.st29{fill:#6D6D6D;}
	.st30{fill:#B5B5B5;}
	.st31{fill:#3E3E3E;}
	.st32{fill:#0D0F0C;}
	.st33{fill:none;stroke:#0E0A12;stroke-width:0.8371;stroke-miterlimit:10;}
	.st34{fill:#7D7D7D;}
	.st35{fill:#424242;}
	.st36{fill:#8A8A8A;}
	.st37{fill:#BCBCBC;stroke:#ADADAD;stroke-miterlimit:10;}
	.st38{fill:#8A8A8A;stroke:#6B6B6B;stroke-width:0.9619;stroke-miterlimit:10;}
	.st39{fill:none;stroke:#6B6B6B;stroke-width:0.7215;stroke-miterlimit:10;}
	.st40{fill:none;stroke:#A9A9AA;stroke-width:0.75;stroke-miterlimit:10;}
	.st41{fill:#484D4E;}
	.st42{fill:none;stroke:#111111;stroke-width:3;stroke-miterlimit:10;}
	.st43{fill:#282828;stroke:#0A0A0A;stroke-miterlimit:10;}
	.st44{fill:#F0221F;stroke:#BB1719;stroke-miterlimit:10;}
	.st45{fill:#BB1719;}
	.st46{fill:#FC7C88;stroke:#BB1719;stroke-miterlimit:10;}
	.st47{fill:none;stroke:#BB1719;stroke-width:3;stroke-miterlimit:10;}
	.st48{fill:#FC7C88;}
	.st49{fill:#FC7C88;stroke:#BB1719;stroke-width:3;stroke-miterlimit:10;}
	.st50{fill:#F0221F;}
	.st51{fill:#E8E6E6;stroke:#ADADAD;stroke-width:2;stroke-miterlimit:10;}
	.st52{opacity:0.59;fill:#F3F2F7;}
	.st53{fill:#080806;}
	.st54{fill:#9B9B9B;}
	.st55{fill:#2B2B2B;}
	.st56{fill:#C1BFBF;}
	.st57{fill:#D6D6D6;}
	.st58{fill:#4C4B4B;stroke:#A5A5A5;stroke-miterlimit:10;}
	.st59{fill:#444343;}
	.st60{fill:#727272;}
	.st61{fill:#A0A0A0;}
	.st62{fill:#999898;}
	.st63{fill:#444242;}
	.st64{fill:#157FCE;}
	.st65{fill:#134468;}
	.st66{fill:#092947;}
	.st67{fill:#D5D3D7;}
	.st68{fill:none;stroke:#134468;stroke-miterlimit:10;}
	.st69{fill:none;stroke:#0F63AD;stroke-miterlimit:10;}
	.st70{fill:#1672B7;}
	.st71{fill:#2066A0;}
	.st72{fill:#1B8ACE;}
	.st73{fill:none;stroke:#157FCE;stroke-miterlimit:10;}
	.st74{fill:none;stroke:#0A54A2;stroke-miterlimit:10;}
	.st75{fill:#3F3F3F;}
	.st76{fill:none;stroke:#282828;stroke-width:2;stroke-miterlimit:10;}
	.st77{fill:#7F7F7F;}
	.st78{fill:#2D2D2D;}
	.st79{fill:#4C4C4C;}
	.st80{fill:#383838;}
	.st81{fill:#9E9E9E;stroke:#0A55A3;stroke-miterlimit:10;}
	.st82{fill:none;stroke:#134468;stroke-width:0.75;stroke-miterlimit:10;}
	.st83{display:none;fill:#24242A;}
	.st84{display:none;fill:none;stroke:#848484;stroke-miterlimit:10;}
	.st85{display:none;fill:#30292D;}
	.st86{fill:#E8E6E6;}
	.st87{fill:#8C8C8C;}
	.st88{fill:#FCFCFC;stroke:#8C8C8C;stroke-miterlimit:10;}
	.st89{fill:#E8E6E6;stroke:#8C8C8C;stroke-miterlimit:10;}
	.st90{fill:#E8E6E6;stroke:#8C8C8C;stroke-width:2;stroke-miterlimit:10;}
	.st91{fill:none;stroke:#8C8C8C;stroke-width:2;stroke-miterlimit:10;}
	.st92{fill:none;stroke:#FCFCFC;stroke-width:3;stroke-miterlimit:10;}
	.st93{fill:#FCFCFC;}
	.st94{fill:#ADADAD;stroke:#8C8C8C;stroke-miterlimit:10;}
	.st95{fill:#FAFAFC;stroke:#ADADAD;stroke-width:0.75;stroke-miterlimit:10;}
	.st96{fill:none;stroke:#111111;stroke-width:3.6024;stroke-miterlimit:10;}
	.st97{fill:none;stroke:#111111;stroke-width:3.6093;stroke-miterlimit:10;}
	.st98{fill:none;stroke:#111111;stroke-width:3.5727;stroke-miterlimit:10;}
	.st99{fill:none;stroke:#111111;stroke-width:3.5263;stroke-miterlimit:10;}
	.st100{fill:none;stroke:#111111;stroke-width:3.4845;stroke-miterlimit:10;}
	.st101{fill:none;stroke:#111111;stroke-width:3.4337;stroke-miterlimit:10;}
	.st102{fill:none;stroke:#111111;stroke-width:3.3788;stroke-miterlimit:10;}
	.st103{fill:none;stroke:#111111;stroke-width:3.3233;stroke-miterlimit:10;}
	.st104{fill:none;stroke:#111111;stroke-width:3.2747;stroke-miterlimit:10;}
	.st105{fill:none;stroke:#111111;stroke-width:3.207;stroke-miterlimit:10;}
	.st106{fill:none;stroke:#111111;stroke-width:3.1652;stroke-miterlimit:10;}
	.st107{fill:none;stroke:#111111;stroke-width:3.099;stroke-miterlimit:10;}
	.st108{fill:none;stroke:#111111;stroke-width:3.0584;stroke-miterlimit:10;}
	.st109{fill:none;stroke:#111111;stroke-width:3.0299;stroke-miterlimit:10;}
</style>
<g id="original">
</g>
<g id="one">
</g>
<g id="two_00000026882943921159275490000004360688784792002186_">
</g>
<g id="three_00000113338737259881679640000015971704404683786636_">
	<g>
		<path class="st83" d="M303.8,1004.9c0,0,15.1-2.3,1-45.2c0,0-8.8-21.1-20.8-20s-14.9,19.3-13.6,31.8c1.3,12.6,30.1,34.1,30.1,34.1
			L303.8,1004.9z"/>
		<path class="st84" d="M284.2,941c0,0-13.2-2.7-13.7,28.9"/>
		<path class="st85" d="M350.5,1012.5c0,0,0.9,13.5-7.5,16.7c-8.4,3.3-19.2,3.8-19.2,3.8l-27.8,3.2c0,0,10.2-4.9,8.6-17.9
			c0,0-4.4-5.1-4.1-12.7l3.6-2.9c0,0-0.7,11.4,4.4,14.5C308.5,1017.2,331.2,1018.8,350.5,1012.5z"/>
	</g>
	<g>
		<path class="st86" d="M1971.8,828.7c-0.9-1.5-5.8-8.5-17.3-9.1c-12.1-0.7-193.8-3.9-204.5-4.1c0-2.4,0.1-13.1,5.3-18.6
			c2.1-2.2,4.8-3.3,8-3.3c14.8,0,186.9,6.1,188.6,6.1c0.3,0,31.7,2.1,37.6,28.6L1971.8,828.7z"/>
		<path class="st87" d="M1763.3,794c14.8,0,186.9,6.1,188.6,6.1c0.1,0,8.1,0.5,16.7,4.3c11,4.9,17.8,12.7,20.3,23.3l-16.8,0.4
			c-1.3-2-6.3-8.5-17.5-9.1c-11.9-0.6-189.3-3.8-204.1-4.1c0-3,0.4-12.7,5.2-17.8C1757.7,795.1,1760.2,794,1763.3,794 M1763.3,793
			c-15,0-13.9,23-13.9,23s192.5,3.4,205,4.1c12.5,0.7,17,9.1,17,9.1l18.6-0.5c-5.7-27.7-38.2-29.5-38.2-29.5S1778.3,793,1763.3,793
			L1763.3,793z"/>
	</g>
	<path class="st88" d="M1954.3,806.6l-141.9-6.1l21.4,8l117.6,4.2c0,0,16.5-0.2,25.8,15.2h5.2C1982.4,828,1977.2,807.8,1954.3,806.6
		z"/>
	<path class="st89" d="M1749.5,816l-0.5,12l201,1.9c0,0,11,0,13.4,13.4c2.4,13.4,21.5,113,21.5,113l0.8,128.3l32.7-0.8
		c0,0,9.4,1.1,9.4-8.3c0-9.4,0-44.6,0-44.6s0.5-5.9-5.4-8.1v-45.6h-16c0,0-10.2,0.8-11.3-15.9c-1.2-16.8-22-124.3-22-124.3
		s-1.5-2.4-1.7-7.8c0,0-5.8-8.8-17-9.1C1943.2,819.7,1749.5,816,1749.5,816z"/>
	<path class="st2" d="M1990.1,828.7l25.2,136.1l-22.6-21.3L1973.2,837c0,0-1.8-3.5-1.7-7.8L1990.1,828.7z"/>
	<path class="st2" d="M2018.1,951.3c0,0,5.4,9.2,3.2,17.8h-3l0.8,7.9l-12.5,0.2c0,0-10.3,0.4-11.3-15.9l-2.4-17.8l22.6,21.3
		c0,0,5.4-5.7-0.4-13.3c0,0-2.1-1.9-4.6,0.3c-2.5,2.2-3.9-1.7,0-3.6S2018.1,951.3,2018.1,951.3z"/>
	<polygon class="st3" points="1977.4,829.2 2005.3,913.3 1990.1,828.7 	"/>
	<path class="st90" d="M1749,828c0,0-5.4,110.4-4.1,200.8l240.1-0.9l-0.1-71.6l-21.5-113c0,0-1.7-13.4-13.4-13.4
		C1938.3,829.9,1749,828,1749,828z"/>
	<path class="st91" d="M1766.6,898.5l-0.3-47.2c0,0-0.6-8.8,12.4-9.1c13-0.3,24.8,0,24.8,0s9.1-2.1,9.1,11.8s-0.3,45.7-0.3,45.7"/>
	<path class="st92" d="M1765.7,909.4l-0.3,31.6c0,0-1.5,7.4,7.4,7.4c8.8,0,33.9,0,33.9,0s5,2.7,5-6.2s0-26,0-26"/>
	<path class="st91" d="M1764.8,979l0.3,33.6c0,0-0.9,5.3,5.3,5.3c6.2,0,39.5-0.3,39.5-0.3s4.7,1.8,4.4-6.2c-0.3-8-0.6-33-0.6-33
		s0.6-6.2-6.2-6.2c-6.8,0-38.3,0.6-38.3,0.6S1764.8,972.3,1764.8,979z"/>
	<line class="st91" x1="1826.7" y1="828.6" x2="1826.7" y2="1028"/>
	<polygon class="st6" points="1833.2,976.7 1833.5,995 1853.5,994.7 1853.5,976.7 	"/>
	<path class="st93" d="M1834.1,1001.4c0,0-1.2,10,14.2,9.7c15.3-0.3,115.3,0,115.3,0l-48.4-5.9h-66.9c0,0,0.3-3.8-4.1-4.1
		C1839.7,1000.9,1834.1,1001.4,1834.1,1001.4z"/>
	<path class="st87" d="M1837,842.2l4.7,67.2l-0.3-62.8c0,0-2.1-6.8,13.6-6.5c15.6,0.3,89.9,0.6,89.9,0.6s7.1-1.8,9.4,17.1
		c2.4,18.9,4.7,36.9,4.7,36.9l-2.1-45.7c0,0,0.7-11.8-13.6-11.6c-14.3,0.2-97.4-0.8-97.4-0.8S1838,836.3,1837,842.2z"/>
	<path class="st93" d="M1962,912.4l7.6,32.9c0,0,2.6,12.9-9.2,13.4c-11.8,0.5-111.3-5.3-111.3-5.3s-9.5-2.6-10-11.3
		s-0.3-27.4-0.3-27.4l2.6,25.5c0,0,0.3,8.4,7.9,9.5s109.2,6.1,109.2,6.1s11.1,2.9,7.4-19.2S1962,912.4,1962,912.4z"/>
	<path class="st9" d="M1841.7,914.8l-0.3,25.5c0,0,0.1,8.6,7.9,9.5c7.8,0.8,109.2,6.1,109.2,6.1s10.8,2.4,7.4-19.2
		s-12.8-85.5-12.8-85.5s-1.2-10-8.1-10.4c-6.9-0.3-95.2-1-95.2-1s-8.7-1.3-8.7,5.9C1841,852.9,1841.7,914.8,1841.7,914.8z"/>
	<polygon class="st2" points="1933,831 1933,837.9 1950.2,838.4 1949.9,831 	"/>
	<path class="st10" d="M1841.3,864.2c0,0,96.3,16.1,107.9,91.5l9.3,0.1c0,0,10.8,1.4,7.4-19.2c-3.5-20.6-12.8-85.5-12.8-85.5
		s-1.4-10.2-8.1-10.4s-95.2-1-95.2-1s-8.6-0.9-8.7,5.9C1841,852.5,1841.3,864.2,1841.3,864.2z"/>
	<polygon class="st2" points="1939.7,837.2 1939.8,848.3 1943.3,848.2 1943.5,837.4 	"/>
	<path class="st2" d="M1935.5,848.4l0.7,93.5h7.2c0,0,6.1-6.3,6.1-15.6l-0.2-66c0,0-1.4-10.9-5.9-12.1L1935.5,848.4z"/>
	<polygon class="st2" points="1939.3,970.7 1939.3,941.5 1943.5,941.8 1943.5,970.1 	"/>
	<polygon class="st2" points="1946.9,969.8 1950.6,969.9 1950.6,976.3 1931.8,976.3 1931.8,969.9 	"/>
	<path class="st11" d="M1818.6,772.1l17.4,0.2v18.3c0,0-4.6,1.4-19.2,0v-18.5L1818.6,772.1z"/>
	<path class="st87" d="M1838.9,789.9l0.1,6l-24.3-0.5v-5.9C1814.8,789.5,1823.8,792.4,1838.9,789.9z"/>
	<path class="st0" d="M1744.9,1028.8l0.4,26.2H1851c0,0,49,1.9,59.1,28.8l75.7,0.9l-0.7-56.7L1744.9,1028.8z"/>
	<path class="st89" d="M1744.9,1028.8l0.4,26.2H1851c0,0,49,1.9,59.1,28.8l75.7,0.9l-0.7-56.7L1744.9,1028.8z"/>
	<polygon class="st6" points="1982.4,1048.4 1960.6,1027.8 1979,1027.9 1985,1033.9 1985,1051.3 	"/>
	<path class="st6" d="M1945.1,1028.4l27.3,26.4h-18l-26.2-26.2C1928.1,1028.6,1945.1,1028.4,1945.1,1028.4z"/>
	<path class="st6" d="M1911.8,1028.6l26.6,26.6h-17.6l-26.5-26.5C1894.3,1028.8,1911.7,1028.7,1911.8,1028.6z"/>
	<path class="st6" d="M1879.6,1028.6l26.6,26.6h-17.6l-26.5-26.5C1862.1,1028.8,1879.5,1028.7,1879.6,1028.6z"/>
	<path class="st6" d="M1845.8,1028.6l26.6,26.6h-17.6l-26.5-26.5C1828.3,1028.8,1845.8,1028.7,1845.8,1028.6z"/>
	<path class="st6" d="M1812.4,1028.6l26.6,25.8h-17.6l-26.5-25.7C1794.9,1028.8,1812.4,1028.7,1812.4,1028.6z"/>
	<path class="st6" d="M1778.7,1029.1l26.6,25.3h-17.6l-26.5-25.1C1761.2,1029.3,1778.6,1029.2,1778.7,1029.1z"/>
	<path class="st6" d="M1744.9,1028.8l25.9,25.9h-16.4l-8.7-8.7l-0.7-0.7C1745.1,1045.3,1744.9,1028.6,1744.9,1028.8z"/>
	<path class="st94" d="M2022.5,1022.9h-26.9l8,8l24.3,0C2027.9,1030.9,2028.9,1025.3,2022.5,1022.9z"/>
	<path class="st94" d="M1985,1027.9c0,0,5.7,1.4,6,6.4v41.2l36.9-0.1c0,0,1.1,8.3-9.4,8.3c-10.5,0-32.7,0.8-32.7,0.8L1985,1027.9z"
		/>
	<polygon class="st13" points="1934.9,1180.6 1985.4,1180.5 1985.4,1084.6 1910.1,1083.7 	"/>
	<polygon class="st0" points="1930,1112.7 1985.6,1112.7 1985.6,1117.8 1930.1,1117.8 	"/>
	<path class="st0" d="M1985.3,1144.9h-51.9v3.9h52.2C1985.6,1148.8,1985.3,1144.2,1985.3,1144.9z"/>
	<path class="st0" d="M1933.9,1175.6h51.2v4.4h-51.7C1933.4,1180,1934.3,1175.2,1933.9,1175.6z"/>
	<path class="st2" d="M1916.2,1142.9l-15.1,13.3c0,0-33.2-69.2-81.4-59.5c-48.3,9.7-70.3,61.6-70.3,61.6l-16.6-15.5l21.3-64.5
		l78.6-5.4l64.1,7.6l18,45.8L1916.2,1142.9z"/>
	<circle class="st14" cx="1825.2" cy="1172.2" r="78.7"/>
	<circle class="st15" cx="1825.5" cy="1170.1" r="48.8"/>
	<circle class="st12" cx="1825.5" cy="1170.1" r="48.8"/>
	<circle class="st16" cx="1825.2" cy="1169.5" r="42.8"/>
	<circle class="st17" cx="1825.8" cy="1170.6" r="18.4"/>
	<circle class="st18" cx="1813.7" cy="1149.5" r="2.5"/>
	<circle class="st18" cx="1825.7" cy="1146.5" r="2.5"/>
	<circle class="st18" cx="1838" cy="1150.2" r="2.5"/>
	<circle class="st18" cx="1846.4" cy="1158.4" r="2.5"/>
	<circle class="st18" cx="1849.1" cy="1170.8" r="2.5"/>
	<circle class="st18" cx="1846.6" cy="1182.7" r="2.5"/>
	<circle class="st18" cx="1838" cy="1191.4" r="2.5"/>
	<circle class="st18" cx="1826" cy="1194.5" r="2.5"/>
	<circle class="st18" cx="1812.9" cy="1190.9" r="2.5"/>
	<circle class="st18" cx="1804.8" cy="1182.4" r="2.5"/>
	<circle class="st18" cx="1801.7" cy="1170.4" r="2.5"/>
	<circle class="st18" cx="1804.5" cy="1158" r="2.5"/>
	<path class="st19" d="M1800.8,1134.6c0,0,4,14.9-10.7,11.3C1790.1,1145.9,1792.3,1139.7,1800.8,1134.6z"/>
	<path class="st19" d="M1817.3,1127.6c0,0,6.4,12,17.4,0.5C1834.7,1128.1,1826.9,1125.1,1817.3,1127.6z"/>
	<path class="st19" d="M1849.3,1134.6c0,0-3.1,14.6,11.7,11.7C1860.9,1146.2,1856.4,1137.9,1849.3,1134.6z"/>
	<path class="st19" d="M1867,1161.8c0,0-9.2,9.9-0.5,17.9C1866.5,1179.6,1869.6,1172.2,1867,1161.8z"/>
	<path class="st19" d="M1849.9,1204.5c0,0-0.9-11.3,10.3-10.7C1860.1,1193.8,1856.9,1199.7,1849.9,1204.5z"/>
	<path class="st19" d="M1833.4,1211.2c0,0-7.1-9.9-16.6,0.2C1816.8,1211.3,1823.9,1213.8,1833.4,1211.2z"/>
	<path class="st19" d="M1790.1,1193.8c0,0,12.1-1.7,11,10.7C1801.1,1204.5,1795.5,1201.5,1790.1,1193.8z"/>
	<path class="st19" d="M1783.2,1161.3c0,0,10.4,8.4,0.5,18.3C1783.7,1179.6,1781.2,1172.8,1783.2,1161.3z"/>
	<path d="M1899.4,1145.5c0,0,23.1,81.5-72,102.5c0,0-87.4-4.1-76.9-102c0,0-20.5,55.5,31,92c0,0,20.3,14.8,47,13
		c26.7-1.8,52.7-13.7,68.6-46.2C1906.4,1179.4,1905.4,1169.3,1899.4,1145.5z"/>
	<path class="st20" d="M1744.9,1028.8l0.4,26.2H1851c0,0,49,1.9,59.1,28.8l75.7,0.9l-0.7-56.7L1744.9,1028.8z"/>
	<circle class="st20" cx="1825.2" cy="1169.5" r="42.8"/>
	<path class="st0" d="M2012.1,1084l0.4,13.4c0,0,15.7,4.2,15.9,14.8v65c0,0,1.1,6.7-6.7,6.7c-7.8,0-36.3,0-36.3,0l0.3-99.2
		L2012.1,1084z"/>
	<path class="st95" d="M2018.1,1114.2v24c0,0-0.4,4.7,4.3,4.7c4.7,0,6.1,0,6.1,0l-0.2-30.7C2028.3,1112.2,2021.5,1110,2018.1,1114.2
		z"/>
	<path class="st95" d="M2028.4,1154.9c0,0-11.2-1.8-10.8,6.5c0.3,8.2,9.2,6.7,10.8,6.4V1154.9z"/>
	<path class="st94" d="M2027.1,1107.8c0,0-13.6-6.4-32.8-2.9l-0.7,74c0,0,29.9,4.5,34.7-1.8c0,0,1.8,6.5-6.7,6.7
		c-8.5,0.1-36.3,0-36.3,0l0.3-99.2l26.4-0.6l0.4,13.4C2012.5,1097.4,2025.1,1101.5,2027.1,1107.8z"/>
	<polygon class="st21" points="1013.4,1076.7 1013.4,1130.6 1195.9,1169.4 1237.4,1145.8 1599.7,1145.8 1741.4,1146.5 1754,1078.3 	
		"/>
	<circle class="st22" cx="1620.7" cy="1142.9" r="22.5"/>
	<circle class="st22" cx="1670" cy="1142.9" r="22.5"/>
	<path class="st23" d="M1634.9,1126c0,0-15-5.6-25.6,4.2c-10.6,9.8-10,20.6-10,20.6s-4.6-16.6,7.9-25.8S1633.3,1122.9,1634.9,1126z"
		/>
	<path class="st23" d="M1684,1126c0,0-15-5.6-25.6,4.2c-10.6,9.8-10,20.6-10,20.6s-4.6-16.6,7.9-25.8S1682.5,1122.9,1684,1126z"/>
	<path class="st24" d="M1392.5,1104.1v73.5h200.8v-73.8C1593.3,1103.8,1391.5,1104.1,1392.5,1104.1z"/>
	<path class="st25" d="M1543.6,1096.6v11.2h10.7v-11.2C1554.3,1096.6,1543.3,1096.6,1543.6,1096.6z"/>
	<polygon class="st26" points="1550.1,1101.2 1550.1,1107.8 1554.3,1107.8 1554.3,1096.6 1550,1096.6 	"/>
	<polygon class="st27" points="1398.3,1104.5 1398.3,1177.8 1392.5,1177.8 1392.5,1104.1 1398.3,1104.1 	"/>
	<path class="st28" d="M1418.3,1100.5v77.9h7.3v-77.8C1425.6,1100.6,1418.8,1100.5,1418.3,1100.5z"/>
	<path class="st28" d="M1491.2,1100.4v77.5h7.9v-77.5C1499.1,1100.4,1491.2,1100,1491.2,1100.4z"/>
	<path class="st28" d="M1564,1100.1v78.5h7.8v-78v-0.5C1571.8,1100,1563.8,1100.1,1564,1100.1z"/>
	<path class="st28" d="M1588.9,1103.8v73.6h4.3v-73.6C1593.3,1103.8,1588.9,1104.1,1588.9,1103.8z"/>
	<path class="st29" d="M1398.4,1120.1h19.8v5h-19.8C1398.4,1125.1,1398.2,1119.9,1398.4,1120.1z"/>
	<path class="st29" d="M1572,1120.1h16.7v5H1572C1572,1125.1,1571.8,1119.9,1572,1120.1z"/>
	<path class="st29" d="M1425.9,1120.1h64.9v5h-64.9C1425.9,1125.1,1425.3,1119.9,1425.9,1120.1z"/>
	<path class="st29" d="M1499.5,1120.1h64.5v5h-64.5C1499.5,1125.1,1498.9,1119.9,1499.5,1120.1z"/>
	<path class="st30" d="M1392.5,1120.1h5.9v4.9h-5.8C1392.6,1125.1,1392.5,1120,1392.5,1120.1z"/>
	<path class="st30" d="M1418.3,1120.1h7.3v5.8h-7.3C1418.3,1125.8,1418.3,1120.1,1418.3,1120.1z"/>
	<path class="st30" d="M1491.2,1120.1h7.9v5.8h-7.9C1491.2,1125.8,1491.1,1120.1,1491.2,1120.1z"/>
	<path class="st30" d="M1563.9,1120.1h8v5.8h-8C1563.9,1125.8,1563.8,1120.1,1563.9,1120.1z"/>
	<path class="st30" d="M1588.7,1120.3h4.5v4.9h-4.4C1588.8,1125.2,1588.7,1120.2,1588.7,1120.3z"/>
	<path class="st31" d="M1241.9,1154.1v-37.6c0,0,0.7-6.3,15.2-6.3c14.5,0,121.1,0,121.1,0s7.9-1,7.9,9.6s0,50.8,0,50.8
		s1.3,7.3-14.2,7.3s-121.8,0-121.8,0s-8.3,0.7-8.3-8.6S1241.9,1154.1,1241.9,1154.1z"/>
	<path class="st32" d="M1310.5,1138.9v12.2h8.8v-12.4C1319.3,1138.7,1310.4,1138.8,1310.5,1138.9z"/>
	<line class="st33" x1="1385.7" y1="1145.7" x2="1242.1" y2="1145.7"/>
	<circle class="st14" cx="1118.4" cy="1172.2" r="78.7"/>
	<circle class="st15" cx="1118.8" cy="1170.1" r="48.8"/>
	<circle class="st12" cx="1118.8" cy="1170.1" r="48.8"/>
	<circle class="st16" cx="1118.4" cy="1169.5" r="42.8"/>
	<circle class="st17" cx="1119" cy="1170.6" r="18.4"/>
	<circle class="st18" cx="1106.9" cy="1149.5" r="2.5"/>
	<circle class="st18" cx="1118.9" cy="1146.5" r="2.5"/>
	<circle class="st18" cx="1131.2" cy="1150.2" r="2.5"/>
	<circle class="st18" cx="1139.7" cy="1158.4" r="2.5"/>
	<circle class="st18" cx="1142.3" cy="1170.8" r="2.5"/>
	<circle class="st18" cx="1139.8" cy="1182.7" r="2.5"/>
	<circle class="st18" cx="1131.2" cy="1191.4" r="2.5"/>
	<circle class="st18" cx="1119.2" cy="1194.5" r="2.5"/>
	<circle class="st18" cx="1106.1" cy="1190.9" r="2.5"/>
	<circle class="st18" cx="1098.1" cy="1182.4" r="2.5"/>
	<circle class="st18" cx="1094.9" cy="1170.4" r="2.5"/>
	<circle class="st18" cx="1097.7" cy="1158" r="2.5"/>
	<path class="st19" d="M1094,1134.6c0,0,4,14.9-10.7,11.3C1083.3,1145.9,1085.5,1139.7,1094,1134.6z"/>
	<path class="st19" d="M1110.5,1127.6c0,0,6.4,12,17.4,0.5C1127.9,1128.1,1120.1,1125.1,1110.5,1127.6z"/>
	<path class="st19" d="M1142.5,1134.6c0,0-3.1,14.6,11.7,11.7C1154.1,1146.2,1149.6,1137.9,1142.5,1134.6z"/>
	<path class="st19" d="M1160.2,1161.8c0,0-9.2,9.9-0.5,17.9C1159.7,1179.6,1162.8,1172.2,1160.2,1161.8z"/>
	<path class="st19" d="M1143.1,1204.5c0,0-0.9-11.3,10.3-10.7C1153.4,1193.8,1150.1,1199.7,1143.1,1204.5z"/>
	<path class="st19" d="M1126.6,1211.2c0,0-7.1-9.9-16.6,0.2C1110,1211.3,1117.2,1213.8,1126.6,1211.2z"/>
	<path class="st19" d="M1083.3,1193.8c0,0,12.1-1.7,11,10.7C1094.3,1204.5,1088.7,1201.5,1083.3,1193.8z"/>
	<path class="st19" d="M1076.5,1161.3c0,0,10.4,8.4,0.5,18.3C1076.9,1179.6,1074.4,1172.8,1076.5,1161.3z"/>
	<path d="M1192.6,1145.5c0,0,23.1,81.5-72,102.5c0,0-87.4-4.1-76.9-102c0,0-20.5,55.5,31,92c0,0,20.3,14.8,47,13
		c26.7-1.8,52.7-13.7,68.6-46.2C1199.6,1179.4,1198.6,1169.3,1192.6,1145.5z"/>
	<circle class="st20" cx="1118.4" cy="1169.5" r="42.8"/>
	<path class="st34" d="M1206.7,1176.9c0,0,8.3-55.7-60.6-83.8c0,0-45.8-17.1-84.3,14.3c0,0-28.7,13.2-34.2,70c0,0-3.9,8.3-17.6,8.3
		h-10.8l0.9-54l13.4-1.1l17.1-35.8c0,0,5.9-17.9,30.8-17.9s126.4,0.3,126.4,0.3s17,0.3,23.2,26.4s14.7,29,26.1,29v53.4l-25.2-0.3
		C1211.7,1185.7,1206.4,1184.8,1206.7,1176.9z"/>
	<path class="st35" d="M1108.5,1083.6c0,0-63.8,0.4-76.5,41c-12.7,40.6-16.5,60.9-16.5,60.9s-11.6,0.8-16.4,0.2l0.9-54l13.4-1.1
		l17.1-35.8c0,0,6.3-18,30.8-17.9s126.4,0.3,126.4,0.3s19.4,0.1,23.2,26.4c6,24.5,13.5,25.8,26.9,28.3l-0.8,54.1l-25.2-0.3
		c0,0-5.3-0.8-5-8.8c0,0,16.9-3.9,10.2-39.3c0,0-14.5-9.1-15.5-27.4S1185.9,1083.9,1108.5,1083.6z"/>
	<path class="st36" d="M1736,1180.7c0,0-14.1-88.6,62.3-98.4l-55.9-0.4c0,0-23.4,26.1-24.5,67.9c-1.1,41.7-0.4,35.6-0.4,35.6
		S1733.1,1187.6,1736,1180.7z"/>
	<path class="st37" d="M1724.5,802.4l-0.3,37.4c0,0,8,1.6,14.8,0l-0.3-41.2L1724.5,802.4z"/>
	<ellipse class="st21" cx="1731.6" cy="800.6" rx="8.2" ry="8.5"/>
	<path class="st38" d="M1721,839.8c0,0,11.8,1.6,21.3-0.3v214.7c0,0-13.9,3.5-21.3-0.3V839.8z"/>
	<path class="st0" d="M1700.3,1102.7v24.7c0,0,5.9,8.8,12.9-0.2v-20.6c0,0-0.7-7,7-9.7c7.7-2.7,14.3-9.1,15.2-17.4
		c0.9-8.4,0.7-24,0.7-24s-6.9,1-13.4-0.3l-0.4,20c0,0-0.9,5.7-7.9,9.5S1700.8,1091.2,1700.3,1102.7z"/>
	<path class="st8" d="M1728.9,1056.2l-0.7,19.2c0,0-1.8,9.5-9,13c-7.3,3.5-12.3,8.2-12.3,15s-0.2,28-0.2,28s-4.8,1.5-6.4-3.9
		l0.4-27.9c0,0,0.2-8.4,11.7-13.9c11.5-5.5,9.9-10.6,9.9-10.6l0.4-20C1722.7,1055.1,1726.1,1056.2,1728.9,1056.2z"/>
	<path class="st39" d="M1742.1,844.9c0,0-8.2,2.4-21.1-0.2"/>
	<path class="st39" d="M1742.1,850.5c0,0-8.2,2.4-21.1-0.2"/>
	<path class="st39" d="M1742.1,855.8c0,0-8.2,2.4-21.1-0.2"/>
	<path class="st39" d="M1742.1,861.2c0,0-8.2,2.4-21.1-0.2"/>
	<path class="st39" d="M1742.1,866.8c0,0-8.2,2.4-21.1-0.2"/>
	<path class="st39" d="M1742.1,872.4c0,0-8.2,2.4-21.1-0.2"/>
	<path class="st39" d="M1741.9,878c0,0-8.2,2.4-21.1-0.2"/>
	<path class="st39" d="M1741.9,883.6c0,0-8.2,2.4-21.1-0.2"/>
	<path class="st39" d="M1741.9,889c0,0-8.2,2.4-21.1-0.2"/>
	<path class="st39" d="M1741.9,894.4c0,0-8.2,2.4-21.1-0.2"/>
	<path class="st39" d="M1741.9,900.2c0,0-8.2,2.4-21.1-0.2"/>
	<path class="st39" d="M1741.9,905.6c0,0-8.2,2.4-21.1-0.2"/>
	<path class="st39" d="M1741.9,911.8c0,0-8.2,2.4-21.1-0.2"/>
	<path class="st39" d="M1741.9,917.6c0,0-8.2,2.4-21.1-0.2"/>
	<path class="st39" d="M1741.9,923.2c0,0-8.2,2.4-21.1-0.2"/>
	<path class="st39" d="M1741.9,929.2c0,0-8.2,2.4-21.1-0.2"/>
	<path class="st39" d="M1741.9,935.1c0,0-8.2,2.4-21.1-0.2"/>
	<path class="st39" d="M1742.2,941.2c0,0-8.2,2.4-21.1-0.2"/>
	<path class="st39" d="M1742.2,947.9c0,0-8.2,2.4-21.1-0.2"/>
	<path class="st39" d="M1742,954c0,0-8.2,2.4-21.1-0.2"/>
	<path class="st39" d="M1742,960.5c0,0-8.2,2.4-21.1-0.2"/>
	<path class="st39" d="M1742,966.2c0,0-8.2,2.4-21.1-0.2"/>
	<path class="st39" d="M1742,972.5c0,0-8.2,2.4-21.1-0.2"/>
	<path class="st39" d="M1742,978.1c0,0-8.2,2.4-21.1-0.2"/>
	<path class="st39" d="M1742,985c0,0-8.2,2.4-21.1-0.2"/>
	<path class="st39" d="M1742,991.1c0,0-8.2,2.4-21.1-0.2"/>
	<path class="st39" d="M1742,996.6c0,0-8.2,2.4-21.1-0.2"/>
	<path class="st39" d="M1742,1002.4c0,0-8.2,2.4-21.1-0.2"/>
	<path class="st39" d="M1742,1008.3c0,0-8.2,2.4-21.1-0.2"/>
	<path class="st39" d="M1742,1014.6c0,0-8.2,2.4-21.1-0.2"/>
	<path class="st39" d="M1742,1021.7c0,0-8.2,2.4-21.1-0.2"/>
	<path class="st39" d="M1742,1028.4c0,0-8.2,2.4-21.1-0.2"/>
	<path class="st39" d="M1742,1034.9c0,0-8.2,2.4-21.1-0.2"/>
	<path class="st39" d="M1742,1041.4c0,0-8.2,2.4-21.1-0.2"/>
	<path class="st39" d="M1741.7,1048.3c0,0-8.2,2.4-21.1-0.2"/>
	<line class="st40" x1="1736.5" y1="840.4" x2="1736.5" y2="1055.4"/>
	<line class="st40" x1="1724.2" y1="839.8" x2="1724.2" y2="1055.1"/>
	<line class="st40" x1="1729.6" y1="840.8" x2="1729.6" y2="1056.2"/>
	<path class="st36" d="M1740,1054.3v28.2h113.9c0,0,58.2,1.1,58.2,55.2l-0.4,41c0,0-1.9,5.6,6.8,6c8.6,0.4,16.9,0,16.9,0l-1.7-59.2
		c0,0-7.4-69.5-78.8-70.2S1740,1054.3,1740,1054.3z"/>
	<path class="st41" d="M1770.9,1063.6l72.9-0.3c0,0,62.5-4.9,76.9,38.9c14.4,43.8,14.7,82.5,14.7,82.5l-1.7-59.2
		c0,0-5.2-70.5-82.7-70.5c-77.5,0-111-0.7-111-0.7l-0.2,10.5L1770.9,1063.6z"/>
	<path class="st11" d="M1689.4,768.8l0.3,20.9c0,0,5.5,1.3,18.6,0l-0.5-21.2L1689.4,768.8z"/>
	<path class="st87" d="M1710.8,789.1l0.1,4.4h-23.8l0.1-4.1C1687.2,789.5,1696.3,790.5,1710.8,789.1z"/>
	<polygon class="st89" points="1680.9,792.8 1637.5,892.7 1716,892.7 1716,792.8 	"/>
	<polygon class="st8" points="1644.5,876.4 1694.5,877 1715.8,845.6 1716,892.7 1637.5,892.7 	"/>
	<line class="st42" x1="1640.9" y1="883.2" x2="986.3" y2="631.4"/>
	<path class="st42" d="M952.7,665.5c0,0,7.4,106.1,8.9,117"/>
	<line class="st42" x1="993.1" y1="676.8" x2="983.3" y2="786.4"/>
	<polygon class="st43" points="1012.4,661.2 1100.6,695.4 1090.3,719.9 1007.5,686.7 	"/>
	<path class="st10" d="M1019,668.4c0,0,0.7,13.2,15.9,18.9c15.2,5.6,59.6,22.8,59.6,22.8l5-12.2c0,0-67.8-23.2-72.8-27.1
		c-5-4-6.9-5.1-6.9-5.1S1018.5,667.4,1019,668.4z"/>
	<circle class="st10" cx="973.1" cy="651.3" r="27.4"/>
	<circle class="st9" cx="973.7" cy="651.5" r="21.8"/>
	<path class="st44" d="M1020.1,658.5l-12.9,34.1c0,0-42.9-11.1-47-25.4c-4.2-14.3,1.8-26.3,5.1-34.1L1020.1,658.5z"/>
	<path class="st45" d="M981.2,676.9l22.7,9.6c0,0,5.2-20.7,16.2-28l-12.9,34.1c0,0-41.1-9.9-47-25.4c0,0-3.2-6.7,0.2-20.3
		c0,0-1.3,19.2,6.7,23.5C975.1,674.7,981.2,676.9,981.2,676.9z"/>
	<circle class="st46" cx="973.1" cy="650.4" r="5.4"/>
	<circle class="st10" cx="1148.4" cy="693.5" r="11.8"/>
	<circle class="st9" cx="1463" cy="827.7" r="18"/>
	<circle class="st10" cx="1463.3" cy="827.9" r="11.5"/>
	<polygon class="st44" points="1603.3,894.8 1105.1,685.2 1086.6,728 1336.4,835.5 1354.5,855.6 1541.2,940.2 	"/>
	<polyline class="st47" points="1580.4,897.4 1110.1,699.5 1100.5,723.1 	"/>
	<g>
		<polygon class="st48" points="1362.2,849.5 1342.1,829 1099.9,723.5 1102.4,717.6 1344.9,823.8 1366.8,846.1 1552.1,929.7 
			1547.6,933.3 		"/>
		<path class="st45" d="M1102.9,718.9l241.4,105.7l21.9,22.3l183.9,83l-2.7,2.2l-184.7-83.5l-20-20.4l-241.5-105.2L1102.9,718.9
			 M1101.9,716.3l-0.8,1.9l-1.7,4l-0.8,1.8l1.8,0.8l241.1,105.1l19.8,20.2l0.3,0.3l0.3,0.2l184.7,83.5l1.1,0.5l1-0.8l2.7-2.2l2.6-2
			l-3-1.3l-183.6-82.9l-21.7-22l-0.3-0.3l-0.4-0.2l-241.4-105.7L1101.9,716.3L1101.9,716.3z"/>
	</g>
	<circle class="st49" cx="1385.5" cy="837.9" r="6.6"/>
	<polygon class="st43" points="1373.5,864.2 1373.5,930 1394.7,930 1395,873.8 	"/>
	<polygon class="st10" points="1386.1,872.9 1386.8,929 1376.8,929 1376.8,867.4 1385.9,871.3 	"/>
	<path class="st43" d="M1369,929.4c0,0,10.4,0.4,31.1,0.1l-0.3,36.5h-31L1369,929.4z"/>
	<path class="st9" d="M971.2,795.8c0,0,2.1,5.5-1.4,6.9s-11.7,8.7-4.1,14.6S979,818.9,982,807c0,0-3.7,0.5-6.4,6.2
		c0,0-6.4,6.9-7.3-3.2c0,0,0-2.5,3.9-4.1c3.9-1.6,3.4-5.5,1.4-11.9L971.2,795.8z"/>
	<path class="st50" d="M964.6,764.2c0,0-1.9,14-5.8,20.2c0,0-2.3,4.7,0,6.2c2.3,1.6,10.5,5.8,10.5,5.8s1.9,3.9,7.4,0l8.2-6.2
		c0,0,2.7,0.4,1.2-5.4c-1.6-5.8-6.6-20.6-6.6-20.6H964.6z"/>
	<path class="st45" d="M977,766.6l6.2,17.4c0,0,1.7,2.5-0.2,4.7c-1.9,2.2-7.4,6.1-7.4,6.1s-2,1.7-4.6-0.2c-2.5-1.9-6.2-3.5-6.2-3.5
		l4.6,5.4c0,0,2.7,3.9,7.4,0c4.7-3.9,8.2-6.2,8.2-6.2s2.6,0.3,1.2-5.4c-1.4-5.7-6.6-20.6-6.6-20.6L977,766.6z"/>
	<g>
		<path class="st48" d="M958.9,790.5c-0.1,0-0.6-0.2-0.9-0.9c-0.3-0.8-0.4-2.2,1-5c2.9-5.7,4.8-12.4,5.8-20.1h14l-1.9,1.9l-10.7-0.2
			l0,0.2c0,0.2-1.4,16.8-6.3,20.1c-0.1,0.1-0.5,0.5-0.4,1.2c0.2,0.7,0.9,1.3,2.3,1.8c2.4,0.9,5.4,4.5,6.7,6.3L958.9,790.5z"/>
		<path class="st50" d="M978.2,764.7l-1.4,1.4l-10.4-0.2l-0.5,0l0,0.5c0,0.2-1.4,16.7-6.2,19.9l0,0l0,0c-0.2,0.2-0.5,0.7-0.4,1.4
			c0.2,0.8,1,1.5,2.4,2c1.9,0.7,4.3,3.4,5.8,5.2l-8.4-4.7l0,0l0,0c0,0-0.5-0.2-0.7-0.8c-0.3-0.7-0.3-2.1,1-4.7
			c2.8-5.6,4.8-12.4,5.8-20H978.2 M979.4,764.2h-14.8c-1.1,8.3-3.1,14.9-5.8,20.2c-2.7,5.4,0,6.2,0,6.2l10.5,5.8
			c0,0-4.3-6.1-7.5-7.3c-3.2-1.2-1.9-2.5-1.9-2.5c5.1-3.4,6.4-20.3,6.4-20.3l10.6,0.2L979.4,764.2L979.4,764.2z"/>
	</g>
	<line class="st42" x1="971.7" y1="812.2" x2="971.7" y2="821.6"/>
	<polygon class="st51" points="969.4,821.7 974.3,821.7 974.3,858.8 969.7,858.8 	"/>
	<path class="st96" d="M971.9,859.4c0,0-4.9,260.7-25.9,278.8"/>
	<polygon class="st89" points="1716,892.7 1716,1080 992.2,1080 992.2,1026.7 1110.2,966.5 1514.9,966.5 1587.2,894.3 	"/>
	<path class="st6" d="M1680.9,1047.5l31.2,32.1h-19.5l-32.2-32.2C1660.4,1047.4,1681.2,1047.3,1680.9,1047.5z"/>
	<path class="st6" d="M1646.3,1047.5l31.2,32.1h-19.5l-32.2-32.2C1625.7,1047.4,1646.5,1047.3,1646.3,1047.5z"/>
	<path class="st6" d="M1612.3,1047.5l31.2,32.1H1624l-32.2-32.2C1591.8,1047.4,1612.6,1047.3,1612.3,1047.5z"/>
	<path class="st6" d="M1577,1047.5l31.2,32.1h-19.5l-32.2-32.2C1556.4,1047.4,1577.2,1047.3,1577,1047.5z"/>
	<path class="st6" d="M1542.6,1047.6l31.2,32h-19.5l-32.2-32.1C1522,1047.5,1542.8,1047.4,1542.6,1047.6z"/>
	<path class="st6" d="M1507.5,1047.9l31.2,31.7h-19.5l-32.2-31.8C1486.9,1047.8,1507.7,1047.7,1507.5,1047.9z"/>
	<path class="st6" d="M1472.8,1047.9l31.2,31.7h-19.5l-32.2-31.8C1452.2,1047.8,1473.1,1047.7,1472.8,1047.9z"/>
	<path class="st6" d="M1437.7,1047.9l31.2,31.7h-19.5l-32.2-31.8C1417.1,1047.8,1437.9,1047.7,1437.7,1047.9z"/>
	<path class="st6" d="M1403.3,1048.2l31.2,31.4h-19.5l-32.2-31.5C1382.7,1048.1,1403.5,1047.9,1403.3,1048.2z"/>
	<path class="st6" d="M1368.6,1048.2l31.2,31.4h-19.5l-32.2-31.5C1348.1,1048.1,1368.9,1047.9,1368.6,1048.2z"/>
	<path class="st6" d="M1333.8,1048.2l31.2,31.4h-19.5l-32.2-31.5C1313.2,1048.1,1334,1048,1333.8,1048.2z"/>
	<path class="st6" d="M1298.7,1048.3l31.2,31.3h-19.5l-32.2-31.4C1278.1,1048.2,1298.9,1048.1,1298.7,1048.3z"/>
	<path class="st6" d="M1264.2,1048.4l31.2,31.2h-19.5l-32.2-31.3C1243.7,1048.3,1264.5,1048.2,1264.2,1048.4z"/>
	<path class="st6" d="M1229.8,1048.4l31.2,31.2h-19.5l-32.2-31.3C1209.2,1048.3,1230.1,1048.2,1229.8,1048.4z"/>
	<path class="st6" d="M1194.2,1048.8l31.2,30.8h-19.5l-32.2-30.9C1173.7,1048.6,1194.5,1048.5,1194.2,1048.8z"/>
	<path class="st6" d="M1159.4,1048.8l31.2,30.8H1171l-32.2-30.9C1138.8,1048.6,1159.6,1048.5,1159.4,1048.8z"/>
	<path class="st6" d="M1124,1049l31.2,30.6h-19.5l-32.2-30.7C1103.4,1048.9,1124.3,1048.8,1124,1049z"/>
	<path class="st6" d="M1089.1,1049.1l31.2,30.5h-19.5l-32.2-30.6C1068.6,1049,1089.4,1048.9,1089.1,1049.1z"/>
	<path class="st6" d="M1054,1049.2l31.2,30.4h-19.5l-32.2-30.5C1033.4,1049.1,1054.3,1049,1054,1049.2z"/>
	<polygon class="st1" points="1695.3,915.7 1695.3,1056.2 1688.2,1046.9 1688.2,921.1 	"/>
	<polygon class="st87" points="1596.3,921.9 1688.2,921.1 1695.3,915.7 1592.2,915.7 1523.7,988.5 1111,988.5 1012.8,1037.6 
		1012.8,1057 1020.4,1049.1 1020.4,1043.3 1117,995.9 1527,995.9 	"/>
	<polyline class="st1" points="1688.2,1046.9 1020.4,1049.1 1012.8,1057 1695.3,1056.2 	"/>
	<path class="st91" d="M1601.7,938.3h74.3v98.1h-74.3C1601.7,1036.4,1602,938.6,1601.7,938.3z"/>
	<polygon class="st6" points="1628.9,1019.6 1628.9,1028.7 1650.9,1028.7 1650.9,1018.6 1628.7,1018.6 	"/>
	<g>
		<path class="st9" d="M934.3,1133.7c0,0-1.4,10.4,0.4,11.5c1.8,1.1,20.6-4.7,22.1-8.4C956.7,1136.9,943,1136.7,934.3,1133.7z"/>
		<path class="st53" d="M261.2,1148.4l133.9,0.8c0,0,17.1-56.6-49.3-77.2C279.4,1051.4,257.4,1113.4,261.2,1148.4z"/>
		<polygon class="st53" points="839.3,1155.6 848.4,1155.4 868.4,1108.4 806.4,1068.8 733.5,1080 717.9,1140.1 725.2,1157.3 		"/>
		<circle class="st14" cx="786.5" cy="1145" r="53.9"/>
		<g>
			<g>
				<path class="st54" d="M786.6,1182.5c-2.6,0-5.3-0.3-7.9-0.9c-9.1-2.1-16.8-7.6-21.8-15.5c-4.9-7.9-6.5-17.3-4.4-26.3
					c3.7-15.9,17.6-27.1,34-27.1c2.6,0,5.3,0.3,7.9,0.9c9.1,2.1,16.8,7.6,21.8,15.5c4.9,7.9,6.5,17.3,4.4,26.3
					C816.9,1171.3,802.9,1182.5,786.6,1182.5z"/>
				<path class="st55" d="M786.5,1114.1c2.5,0,5,0.3,7.5,0.9c18,4.1,29.2,22.1,25.1,40.1c-3.6,15.5-17.3,25.9-32.5,25.9
					c-2.5,0-5-0.3-7.5-0.9c-18-4.1-29.2-22.1-25.1-40.1C757.6,1124.6,771.3,1114.1,786.5,1114.1 M786.5,1111.1L786.5,1111.1
					c-8.1,0-16.1,2.8-22.5,7.8c-6.5,5.1-11.1,12.4-13,20.4c-4.5,19.6,7.7,39.1,27.3,43.7c2.7,0.6,5.5,0.9,8.2,0.9
					c8.1,0,16.1-2.8,22.5-7.8c6.5-5.1,11.1-12.4,13-20.4c4.5-19.6-7.7-39.1-27.3-43.7C792,1111.5,789.3,1111.1,786.5,1111.1
					L786.5,1111.1z"/>
			</g>
			<g>
				<path class="st56" d="M786.5,1166.9c-1.4,0-2.9-0.2-4.3-0.5c-10.2-2.4-16.6-12.6-14.3-22.8c2-8.7,9.6-14.8,18.5-14.8
					c1.4,0,2.9,0.2,4.3,0.5c5,1.1,9.2,4.1,11.9,8.5c2.7,4.3,3.6,9.4,2.4,14.4C803,1160.9,795.4,1166.9,786.5,1166.9z"/>
				<path class="st57" d="M786.5,1129.9L786.5,1129.9c1.4,0,2.7,0.2,4.1,0.5c9.7,2.2,15.8,11.9,13.5,21.6c-1.9,8.2-9.1,14-17.5,14
					c-1.4,0-2.7-0.2-4.1-0.5c-4.7-1.1-8.7-3.9-11.2-8c-2.6-4.1-3.4-8.9-2.3-13.6C770.8,1135.6,778,1129.9,786.5,1129.9
					 M786.5,1127.9c-9.1,0-17.4,6.3-19.5,15.5c-2.5,10.8,4.2,21.5,15,24c1.5,0.3,3,0.5,4.5,0.5c9.1,0,17.4-6.3,19.5-15.5
					c2.5-10.8-4.2-21.5-15-24C789.5,1128,787.9,1127.9,786.5,1127.9L786.5,1127.9z"/>
			</g>
			<circle class="st58" cx="786.8" cy="1148" r="6.7"/>
			<g>
				<path class="st59" d="M780.1,1124.8c-0.2,0-0.3,0-0.5-0.1c-1.1-0.3-1.8-1.4-1.6-2.5c0.2-1,1.1-1.6,2.1-1.6c0.2,0,0.3,0,0.5,0.1
					c1.1,0.3,1.8,1.4,1.6,2.5C782,1124.1,781.1,1124.8,780.1,1124.8z"/>
				<path class="st60" d="M780.1,1120.8L780.1,1120.8c0.1,0,0.3,0,0.4,0c0.5,0.1,0.9,0.4,1.2,0.8c0.3,0.4,0.3,0.9,0.2,1.4
					c-0.2,0.8-0.9,1.4-1.8,1.4c-0.1,0-0.3,0-0.4,0c-1-0.2-1.6-1.2-1.4-2.2C778.5,1121.4,779.2,1120.8,780.1,1120.8 M780.1,1120.3
					c-1.1,0-2,0.7-2.3,1.8c-0.3,1.3,0.5,2.5,1.8,2.8c0.2,0,0.4,0.1,0.5,0.1c1.1,0,2-0.7,2.3-1.8c0.3-1.3-0.5-2.5-1.8-2.8
					C780.5,1120.3,780.3,1120.3,780.1,1120.3L780.1,1120.3z"/>
			</g>
			<g>
				<path class="st59" d="M794.4,1124.9c-0.2,0-0.3,0-0.5-0.1c-0.5-0.1-1-0.5-1.3-0.9c-0.3-0.5-0.4-1-0.3-1.6c0.2-1,1.1-1.6,2.1-1.6
					c0.2,0,0.3,0,0.5,0.1c1.1,0.3,1.8,1.4,1.6,2.5C796.2,1124.2,795.4,1124.9,794.4,1124.9z"/>
				<g>
					<path class="st60" d="M794.4,1121L794.4,1121c0.1,0,0.3,0,0.4,0c1,0.2,1.6,1.2,1.4,2.2c-0.2,0.8-0.9,1.4-1.8,1.4
						c-0.1,0-0.3,0-0.4,0c-1-0.2-1.6-1.2-1.4-2.2C792.8,1121.5,793.5,1121,794.4,1121 M794.4,1120.5c-1.1,0-2,0.7-2.3,1.8
						c-0.3,1.3,0.5,2.5,1.8,2.8c0.2,0,0.4,0.1,0.5,0.1c1.1,0,2-0.7,2.3-1.8c0.3-1.3-0.5-2.5-1.8-2.8
						C794.7,1120.5,794.5,1120.5,794.4,1120.5L794.4,1120.5z"/>
				</g>
			</g>
			<g>
				<path class="st61" d="M789.1,1137.5c-0.1,0-0.2,0-0.3,0c-0.7-0.2-1.1-0.9-1-1.6c0.1-0.6,0.7-1,1.3-1c0.1,0,0.2,0,0.3,0
					c0.7,0.2,1.1,0.9,1,1.6C790.2,1137.1,789.7,1137.5,789.1,1137.5z"/>
				<g>
					<path class="st62" d="M789.1,1135.1L789.1,1135.1c0.1,0,0.2,0,0.2,0c0.6,0.1,0.9,0.7,0.8,1.3c-0.1,0.5-0.5,0.8-1,0.8
						c-0.1,0-0.2,0-0.2,0c-0.6-0.1-0.9-0.7-0.8-1.3C788.2,1135.5,788.6,1135.1,789.1,1135.1 M789.1,1134.6c-0.7,0-1.4,0.5-1.5,1.2
						c-0.2,0.8,0.3,1.7,1.2,1.9c0.1,0,0.2,0,0.4,0c0.7,0,1.4-0.5,1.5-1.2c0.2-0.8-0.3-1.7-1.2-1.9
						C789.3,1134.6,789.2,1134.6,789.1,1134.6L789.1,1134.6z"/>
				</g>
			</g>
			<g>
				<path class="st61" d="M797.8,1151.4c-0.1,0-0.2,0-0.3,0c-0.7-0.2-1.1-0.9-1-1.6c0.1-0.6,0.7-1,1.3-1c0.1,0,0.2,0,0.3,0
					c0.3,0.1,0.6,0.3,0.8,0.6c0.2,0.3,0.2,0.6,0.2,1C798.9,1151,798.4,1151.4,797.8,1151.4z"/>
				<g>
					<path class="st62" d="M797.8,1149.1L797.8,1149.1c0.1,0,0.2,0,0.2,0c0.3,0.1,0.5,0.2,0.7,0.5c0.1,0.2,0.2,0.5,0.1,0.8
						c-0.1,0.5-0.5,0.8-1,0.8c-0.1,0-0.2,0-0.2,0c-0.6-0.1-0.9-0.7-0.8-1.3C796.9,1149.4,797.3,1149.1,797.8,1149.1 M797.8,1148.6
						c-0.7,0-1.4,0.5-1.5,1.2c-0.2,0.8,0.3,1.7,1.2,1.9c0.1,0,0.2,0,0.4,0c0.7,0,1.4-0.5,1.5-1.2c0.2-0.8-0.3-1.7-1.2-1.9
						C798,1148.6,797.9,1148.6,797.8,1148.6L797.8,1148.6z"/>
				</g>
			</g>
			<g>
				<path class="st61" d="M784.1,1159.8c-0.1,0-0.2,0-0.3,0c-0.3-0.1-0.6-0.3-0.8-0.6c-0.2-0.3-0.2-0.6-0.2-1c0.1-0.6,0.7-1,1.3-1
					c0.1,0,0.2,0,0.3,0c0.3,0.1,0.6,0.3,0.8,0.6c0.2,0.3,0.2,0.6,0.2,1C785.3,1159.4,784.8,1159.8,784.1,1159.8z"/>
				<g>
					<path class="st62" d="M784.1,1157.4L784.1,1157.4c0.1,0,0.2,0,0.2,0c0.3,0.1,0.5,0.2,0.7,0.5s0.2,0.5,0.1,0.8
						c-0.1,0.5-0.5,0.8-1,0.8c-0.1,0-0.2,0-0.2,0c-0.6-0.1-0.9-0.7-0.8-1.3C783.2,1157.8,783.6,1157.4,784.1,1157.4 M784.1,1156.9
						c-0.7,0-1.4,0.5-1.5,1.2c-0.2,0.8,0.3,1.7,1.2,1.9c0.1,0,0.2,0,0.4,0c0.7,0,1.4-0.5,1.5-1.2c0.2-0.8-0.3-1.7-1.2-1.9
						C784.4,1156.9,784.3,1156.9,784.1,1156.9L784.1,1156.9z"/>
				</g>
			</g>
			<g>
				<path class="st61" d="M775,1146.9c-0.1,0-0.2,0-0.3,0c-0.7-0.2-1.1-0.9-1-1.6c0.1-0.6,0.7-1,1.3-1c0.1,0,0.2,0,0.3,0
					c0.3,0.1,0.6,0.3,0.8,0.6c0.2,0.3,0.2,0.6,0.2,1C776.2,1146.5,775.7,1146.9,775,1146.9z"/>
				<g>
					<path class="st62" d="M775,1144.5L775,1144.5c0.1,0,0.2,0,0.2,0c0.3,0.1,0.5,0.2,0.7,0.5c0.1,0.2,0.2,0.5,0.1,0.8
						c-0.1,0.5-0.5,0.8-1,0.8c-0.1,0-0.2,0-0.2,0c-0.6-0.1-0.9-0.7-0.8-1.3C774.1,1144.9,774.5,1144.5,775,1144.5 M775,1144
						c-0.7,0-1.4,0.5-1.5,1.2c-0.2,0.8,0.3,1.7,1.2,1.9c0.1,0,0.2,0,0.4,0c0.7,0,1.4-0.5,1.5-1.2c0.2-0.8-0.3-1.7-1.2-1.9
						C775.3,1144,775.2,1144,775,1144L775,1144z"/>
				</g>
			</g>
			<g>
				<path class="st59" d="M807.1,1133.5c-0.2,0-0.3,0-0.5-0.1c-1.1-0.3-1.8-1.4-1.6-2.5c0.2-1,1.1-1.6,2.1-1.6c0.2,0,0.3,0,0.5,0.1
					c0.5,0.1,1,0.5,1.3,0.9c0.3,0.5,0.4,1,0.3,1.6C808.9,1132.8,808.1,1133.5,807.1,1133.5z"/>
				<g>
					<path class="st60" d="M807.1,1129.5L807.1,1129.5c0.1,0,0.3,0,0.4,0c0.5,0.1,0.9,0.4,1.2,0.8s0.3,0.9,0.2,1.4
						c-0.2,0.8-0.9,1.4-1.8,1.4c-0.1,0-0.3,0-0.4,0c-0.5-0.1-0.9-0.4-1.2-0.8c-0.3-0.4-0.3-0.9-0.2-1.4
						C805.5,1130.1,806.2,1129.5,807.1,1129.5 M807.1,1129c-1.1,0-2,0.7-2.3,1.8c-0.3,1.3,0.5,2.5,1.8,2.8c0.2,0,0.4,0.1,0.5,0.1
						c1.1,0,2-0.7,2.3-1.8c0.3-1.3-0.5-2.5-1.8-2.8C807.5,1129,807.3,1129,807.1,1129L807.1,1129z"/>
				</g>
			</g>
			<g>
				<path class="st59" d="M812.3,1144.6c-0.2,0-0.3,0-0.5-0.1c-0.5-0.1-1-0.5-1.3-0.9c-0.3-0.5-0.4-1-0.3-1.6c0.2-1,1.1-1.6,2.1-1.6
					c0.2,0,0.3,0,0.5,0.1c0.5,0.1,1,0.5,1.3,0.9s0.4,1,0.3,1.6C814.2,1143.9,813.3,1144.6,812.3,1144.6z"/>
				<g>
					<path class="st60" d="M812.3,1140.6L812.3,1140.6c0.1,0,0.3,0,0.4,0c1,0.2,1.6,1.2,1.4,2.2c-0.2,0.8-0.9,1.4-1.8,1.4
						c-0.1,0-0.3,0-0.4,0c-0.5-0.1-0.9-0.4-1.2-0.8c-0.3-0.4-0.3-0.9-0.2-1.4C810.7,1141.2,811.4,1140.6,812.3,1140.6 M812.3,1140.1
						c-1.1,0-2,0.7-2.3,1.8c-0.3,1.3,0.5,2.5,1.8,2.8c0.2,0,0.4,0.1,0.5,0.1c1.1,0,2-0.7,2.3-1.8c0.3-1.3-0.5-2.5-1.8-2.8
						C812.7,1140.1,812.5,1140.1,812.3,1140.1L812.3,1140.1z"/>
				</g>
			</g>
			<g>
				<path class="st59" d="M811.4,1157.4c-0.2,0-0.3,0-0.5-0.1c-1.1-0.3-1.8-1.4-1.6-2.5c0.2-1,1.1-1.6,2.1-1.6c0.2,0,0.3,0,0.5,0.1
					c1.1,0.3,1.8,1.4,1.6,2.5C813.2,1156.7,812.4,1157.4,811.4,1157.4z"/>
				<g>
					<path class="st60" d="M811.4,1153.5L811.4,1153.5c0.1,0,0.3,0,0.4,0c1,0.2,1.6,1.2,1.4,2.2c-0.2,0.8-0.9,1.4-1.8,1.4
						c-0.1,0-0.3,0-0.4,0c-1-0.2-1.6-1.2-1.4-2.2C809.8,1154,810.5,1153.5,811.4,1153.5 M811.4,1153c-1.1,0-2,0.7-2.3,1.8
						c-0.3,1.3,0.5,2.5,1.8,2.8c0.2,0,0.4,0.1,0.5,0.1c1.1,0,2-0.7,2.3-1.8c0.3-1.3-0.5-2.5-1.8-2.8
						C811.8,1153,811.6,1153,811.4,1153L811.4,1153z"/>
				</g>
			</g>
			<g>
				<path class="st59" d="M805.2,1168.1c-0.2,0-0.3,0-0.5-0.1c-0.5-0.1-1-0.5-1.3-0.9c-0.3-0.5-0.4-1-0.3-1.6c0.2-1,1.1-1.6,2.1-1.6
					c0.2,0,0.3,0,0.5,0.1c1.1,0.3,1.8,1.4,1.6,2.5C807,1167.4,806.1,1168.1,805.2,1168.1z"/>
				<g>
					<path class="st60" d="M805.1,1164.1L805.1,1164.1c0.1,0,0.3,0,0.4,0c1,0.2,1.6,1.2,1.4,2.2c-0.2,0.8-0.9,1.4-1.8,1.4
						c-0.1,0-0.3,0-0.4,0c-0.5-0.1-0.9-0.4-1.2-0.8c-0.3-0.4-0.3-0.9-0.2-1.4C803.5,1164.7,804.3,1164.1,805.1,1164.1 M805.1,1163.6
						c-1.1,0-2,0.7-2.3,1.8c-0.3,1.3,0.5,2.5,1.8,2.8c0.2,0,0.4,0.1,0.5,0.1c1.1,0,2-0.7,2.3-1.8c0.3-1.3-0.5-2.5-1.8-2.8
						C805.5,1163.7,805.3,1163.6,805.1,1163.6L805.1,1163.6z"/>
				</g>
			</g>
			<g>
				<path class="st59" d="M793.8,1174.8c-0.2,0-0.3,0-0.5-0.1c-1.1-0.3-1.8-1.4-1.6-2.5c0.2-1,1.1-1.6,2.1-1.6c0.2,0,0.3,0,0.5,0.1
					c1.1,0.3,1.8,1.4,1.6,2.5C795.6,1174.1,794.8,1174.8,793.8,1174.8z"/>
				<g>
					<path class="st60" d="M793.8,1170.8L793.8,1170.8c0.1,0,0.3,0,0.4,0c0.5,0.1,0.9,0.4,1.2,0.8c0.3,0.4,0.3,0.9,0.2,1.4
						c-0.2,0.8-0.9,1.4-1.8,1.4c-0.1,0-0.3,0-0.4,0c-1-0.2-1.6-1.2-1.4-2.2C792.2,1171.4,792.9,1170.8,793.8,1170.8 M793.8,1170.3
						c-1.1,0-2,0.7-2.3,1.8c-0.3,1.3,0.5,2.5,1.8,2.8c0.2,0,0.4,0.1,0.5,0.1c1.1,0,2-0.7,2.3-1.8c0.3-1.3-0.5-2.5-1.8-2.8
						C794.1,1170.4,794,1170.3,793.8,1170.3L793.8,1170.3z"/>
				</g>
			</g>
			<g>
				<path class="st59" d="M780.7,1175.9c-0.2,0-0.3,0-0.5-0.1c-1.1-0.3-1.8-1.4-1.6-2.5c0.2-1,1.1-1.6,2.1-1.6c0.2,0,0.3,0,0.5,0.1
					c0.5,0.1,1,0.5,1.3,0.9c0.3,0.5,0.4,1,0.3,1.6C782.5,1175.2,781.7,1175.9,780.7,1175.9z"/>
				<g>
					<path class="st60" d="M780.7,1171.9L780.7,1171.9c0.1,0,0.3,0,0.4,0c1,0.2,1.6,1.2,1.4,2.2c-0.2,0.8-0.9,1.4-1.8,1.4
						c-0.1,0-0.3,0-0.4,0c-1-0.2-1.6-1.2-1.4-2.2C779.1,1172.5,779.8,1171.9,780.7,1171.9 M780.7,1171.4c-1.1,0-2,0.7-2.3,1.8
						c-0.3,1.3,0.5,2.5,1.8,2.8c0.2,0,0.4,0.1,0.5,0.1c1.1,0,2-0.7,2.3-1.8c0.3-1.3-0.5-2.5-1.8-2.8
						C781.1,1171.4,780.9,1171.4,780.7,1171.4L780.7,1171.4z"/>
				</g>
			</g>
			<g>
				<path class="st59" d="M770.1,1170.8c-0.2,0-0.3,0-0.5-0.1c-1.1-0.3-1.8-1.4-1.6-2.5c0.2-1,1.1-1.6,2.1-1.6c0.2,0,0.3,0,0.5,0.1
					c0.5,0.1,1,0.5,1.3,0.9c0.3,0.5,0.4,1,0.3,1.6C771.9,1170.2,771.1,1170.8,770.1,1170.8z"/>
				<g>
					<path class="st60" d="M770.1,1166.9L770.1,1166.9c0.1,0,0.3,0,0.4,0c0.5,0.1,0.9,0.4,1.2,0.8c0.3,0.4,0.3,0.9,0.2,1.4
						c-0.2,0.8-0.9,1.4-1.8,1.4c-0.1,0-0.3,0-0.4,0c-1-0.2-1.6-1.2-1.4-2.2C768.5,1167.5,769.2,1166.9,770.1,1166.9 M770.1,1166.4
						c-1.1,0-2,0.7-2.3,1.8c-0.3,1.3,0.5,2.5,1.8,2.8c0.2,0,0.4,0.1,0.5,0.1c1.1,0,2-0.7,2.3-1.8c0.3-1.3-0.5-2.5-1.8-2.8
						C770.4,1166.4,770.3,1166.4,770.1,1166.4L770.1,1166.4z"/>
				</g>
			</g>
			<g>
				<path class="st59" d="M762.7,1161c-0.2,0-0.3,0-0.5-0.1c-1.1-0.3-1.8-1.4-1.6-2.5c0.2-1,1.1-1.6,2.1-1.6c0.2,0,0.3,0,0.5,0.1
					c1.1,0.3,1.8,1.4,1.6,2.5C764.5,1160.4,763.6,1161,762.7,1161z"/>
				<g>
					<path class="st60" d="M762.6,1157.1L762.6,1157.1c0.1,0,0.3,0,0.4,0c1,0.2,1.6,1.2,1.4,2.2c-0.2,0.8-0.9,1.4-1.8,1.4
						c-0.1,0-0.3,0-0.4,0c-0.5-0.1-0.9-0.4-1.2-0.8c-0.3-0.4-0.3-0.9-0.2-1.4C761,1157.7,761.8,1157.1,762.6,1157.1 M762.6,1156.6
						c-1.1,0-2,0.7-2.3,1.8c-0.3,1.3,0.5,2.5,1.8,2.8c0.2,0,0.4,0.1,0.5,0.1c1.1,0,2-0.7,2.3-1.8c0.3-1.3-0.5-2.5-1.8-2.8
						C763,1156.6,762.8,1156.6,762.6,1156.6L762.6,1156.6z"/>
				</g>
			</g>
			<g>
				<path class="st59" d="M759.9,1149.3c-0.2,0-0.3,0-0.5-0.1c-1.1-0.3-1.8-1.4-1.6-2.5c0.2-1,1.1-1.6,2.1-1.6c0.2,0,0.3,0,0.5,0.1
					c0.5,0.1,1,0.5,1.3,0.9c0.3,0.5,0.4,1,0.3,1.6C761.7,1148.7,760.9,1149.3,759.9,1149.3z"/>
				<g>
					<path class="st60" d="M759.9,1145.4L759.9,1145.4c0.1,0,0.3,0,0.4,0c0.5,0.1,0.9,0.4,1.2,0.8s0.3,0.9,0.2,1.4
						c-0.2,0.8-0.9,1.4-1.8,1.4c-0.1,0-0.3,0-0.4,0c-1-0.2-1.6-1.2-1.4-2.2C758.3,1146,759,1145.4,759.9,1145.4 M759.9,1144.9
						c-1.1,0-2,0.7-2.3,1.8c-0.3,1.3,0.5,2.5,1.8,2.8c0.2,0,0.4,0.1,0.5,0.1c1.1,0,2-0.7,2.3-1.8c0.3-1.3-0.5-2.5-1.8-2.8
						C760.2,1144.9,760,1144.9,759.9,1144.9L759.9,1144.9z"/>
				</g>
			</g>
			<g>
				<path class="st59" d="M762,1138.7c-0.2,0-0.3,0-0.5-0.1c-1.1-0.3-1.8-1.4-1.6-2.5c0.2-1,1.1-1.6,2.1-1.6c0.2,0,0.3,0,0.5,0.1
					c1.1,0.3,1.8,1.4,1.6,2.5C763.9,1138.1,763,1138.7,762,1138.7z"/>
				<g>
					<path class="st60" d="M762,1134.8L762,1134.8c0.1,0,0.3,0,0.4,0c0.5,0.1,0.9,0.4,1.2,0.8c0.3,0.4,0.3,0.9,0.2,1.4
						c-0.2,0.8-0.9,1.4-1.8,1.4c-0.1,0-0.3,0-0.4,0c-1-0.2-1.6-1.2-1.4-2.2C760.4,1135.4,761.2,1134.8,762,1134.8 M762,1134.3
						c-1.1,0-2,0.7-2.3,1.8c-0.3,1.3,0.5,2.5,1.8,2.8c0.2,0,0.4,0.1,0.5,0.1c1.1,0,2-0.7,2.3-1.8c0.3-1.3-0.5-2.5-1.8-2.8
						C762.4,1134.3,762.2,1134.3,762,1134.3L762,1134.3z"/>
				</g>
			</g>
			<g>
				<path class="st59" d="M768.7,1129.6c-0.2,0-0.3,0-0.5-0.1c-1.1-0.3-1.8-1.4-1.6-2.5c0.2-1,1.1-1.6,2.1-1.6c0.2,0,0.3,0,0.5,0.1
					c1.1,0.3,1.8,1.4,1.6,2.5C770.5,1129,769.7,1129.6,768.7,1129.6z"/>
				<g>
					<path class="st60" d="M768.7,1125.7L768.7,1125.7c0.1,0,0.3,0,0.4,0c0.5,0.1,0.9,0.4,1.2,0.8c0.3,0.4,0.3,0.9,0.2,1.4
						c-0.2,0.8-0.9,1.4-1.8,1.4c-0.1,0-0.3,0-0.4,0c-1-0.2-1.6-1.2-1.4-2.2C767.1,1126.3,767.8,1125.7,768.7,1125.7 M768.7,1125.2
						c-1.1,0-2,0.7-2.3,1.8c-0.3,1.3,0.5,2.5,1.8,2.8c0.2,0,0.4,0.1,0.5,0.1c1.1,0,2-0.7,2.3-1.8c0.3-1.3-0.5-2.5-1.8-2.8
						C769,1125.2,768.8,1125.2,768.7,1125.2L768.7,1125.2z"/>
				</g>
			</g>
		</g>
		<path class="st63" d="M826.6,1180.8c0,0,28.5-48.3-16.1-78.4c0,0-26.7-12.6-47.3-0.4c-20.7,12.2-27.1,33.9-29.1,53.5
			c0,0-3.6-7,0-22.8c3.6-15.7,21.4-48.4,64.6-40.4c0,0,49.3,10.1,40.4,64.6C839,1157.1,836.4,1171,826.6,1180.8z"/>
		<path class="st11" d="M754.1,1016.2c0,0,159.2,21.2,162.6,50.2c0,0,6.8,6,7.7,17.7c0,0,17.4,5.5,14.1,24.5c0,0-2.6,29.6-1.7,37.9
			c0.9,8.3-1.8,7.7-8.2,8.7s-53.3,1.7-80.3,0.2c0,0,12-47.3-36-71.8c0,0-26.2-11.3-50.1-0.9c-23.9,10.4-34.6,26.2-37.8,48.9
			s0.8,25.6,0.8,25.6s-7.1,3.1-14.2-15l-2.2-0.2c0,0,12.9-70.6-5.7-110.1c0,0,24.6-2.4,32.7-13.2
			C735.8,1018.8,747.8,1015.8,754.1,1016.2z"/>
		<path class="st64" d="M735.8,1018.8l133.6,27.7c0,0,28.5,6.3,34.8,16.3l12.5,3.6c0,0-1.3-13.9-34.4-23.5
			c-33.1-9.7-56.7-15.2-128.2-26.7C754.1,1016.2,743.3,1016.3,735.8,1018.8z"/>
		<path class="st64" d="M937.6,1119.3c0,0-41.4-3.4-49.6-1.3c0,0,38.1-24.4,36.2-35.6l1.6,2.8c0,0,13.5,4.9,13.2,17.9
			S937.6,1119.3,937.6,1119.3z"/>
		<path class="st65" d="M848.4,1155.4c0,0,5-7.6,17.8-7.3c12.8,0.3,67.3,1.2,71-3.5c0,0,3.1,11-8.5,10.6
			C917.2,1154.8,848.4,1155.4,848.4,1155.4z"/>
		<path class="st65" d="M937.6,1119.3l0,2.5c0,0-48.4-2.5-57.1,3.3c0,0-3.8,1.5-6.2,5.3c0,0,1.8-8.1,13.8-12.4
			C888,1118,898.9,1116.4,937.6,1119.3z"/>
		<path class="st64" d="M937.2,1144.6c0,0-1.5,1.4-5.2,1.6s-65.7-3.7-57.7-15.9c0,0,2.6-3.9,8.1-5.9c0,0-9.1,6.6-0.3,9.9
			S923.9,1144.9,937.2,1144.6z"/>
		<path class="st66" d="M937.6,1121.7c0,0-0.9,16.1-0.5,22.9c0,0-30.7-1.7-55.1-10.3c0,0-8.5-4.4,0.3-9.9
			C891.2,1118.9,937.6,1121.7,937.6,1121.7z"/>
		<path class="st28" d="M916.7,1066.4c0,0-5.9-1.7-15-3.9c-11.7-2.9-28.6-6.8-44.8-9.2c0,0-11.7,0.1-7.1,4.9
			c4.6,4.8,19,20.2,19,20.2l14.1,7.5c0,0,42.8,6.3,41.4-3.4S916.7,1066.4,916.7,1066.4z"/>
		<path class="st67" d="M900.8,1065.3c0,0,10.7,13,1,22.2c0,0,23.8,3.6,22.5-5.1c-1.8-11.5-7.5-15.9-7.5-15.9l-28.5-7.2
			C888.3,1059.3,898,1061.5,900.8,1065.3z"/>
		<path class="st11" d="M735.8,1018.8c0,0-75.3-47.5-121-61.6l14.6-6.1c0,0-59.6-20.3-145.3-17.8s-142.3,18.3-142.3,18.3l13.9,5
			l-97.2,42.3l-19.2-2.4l-66,14.2c0,0-5.6,13.3-2.3,16.3l2.8-4.1c0,0,27.8,3.1,37.3,18.8c9.5,15.7,15.1,26.5,15.1,26.5
			s4.4,7.9,13,9.9s49.9,13.3,49.9,13.3s32.9-27.8,77.7-2.9l13.4-4.2l-30.2-47.9c0,0,0.4-12.7,3.2-15.7c2.9-3,4.1-8.2,4.1-8.2
			s-33.6-12.5-21.8-21.1s60.2-30,60.2-30s91.6-9.2,110.4-8.5c18.8,0.7,105.5,11.5,139.1,28.8c33.6,17.2,63.1,32.1,76,41.2
			c0,0,1.7,4.2-1.4,5.3C719.9,1028.2,731.7,1027.3,735.8,1018.8z"/>
		<path class="st68" d="M358.8,957.3c52.3-12,59.1-10.2,127.7-14.6c68.6-4.4,128.4,14.4,128.4,14.4"/>
		<path class="st69" d="M258.6,998.9c0,0-27.3,11.8-62.6,15l-19.8,2.3l-2.4,6.6"/>
		<g>
			<path class="st70" d="M176.3,1016.2l174.6,10.6c0,0,0.4-3.4,2.4-6.2c2-2.8,3.5-6,4.1-8.2l-119.8-6.3
				C237.6,1006.2,215.7,1013.1,176.3,1016.2z"/>
		</g>
		<g>
			<path class="st71" d="M428.2,947c0,0-30,8.2-32.4,14.4l-60.2,30l9.9,16l-86-7.6C259.5,999.8,341.7,950.3,428.2,947z"/>
		</g>
		<path class="st64" d="M555.3,954.7c0,0,45.4,5.8,67.5,5.1c0,0,51.6,19.8,98.5,50.4c0,0-0.5,7.1-8,8.2l-67.9-36.7
			c0,0-25.2-13.5-69.8-19.5l-25.9-4.9L555.3,954.7z"/>
		<path class="st11" d="M703.2,1031.9c0,0-315.5-15.1-345.8-19.4c0,0-1.3,5.2-4.1,8.2c0,0-2.1,3.2-2.4,6.2l-0.9,9.5l30.2,47.9
			l-13.4,4.2c0,0,34.6,23.2,24.4,64.7c0,0,1.3,1.6,12.8,1.6c11.5,0,321.1,2.5,321.1,2.5s-6.9,1.4-14.2-15l-2.2-0.2
			C708.8,1142,723,1074,703.2,1031.9z"/>
		<g>
			<path class="st70" d="M357.1,1027.7l351.5,19.6c0,0-1.9-8.3-5.4-15.4l-345.8-19.4c0,0-0.7,4.9-4.1,8.2c0,0-2.3,3.2-2.4,6.2
				L357.1,1027.7z"/>
		</g>
		<path class="st65" d="M380.3,1084.2l23.5,36c0,0,4.6,18.9,36.4,19.4s268.7,2.4,268.7,2.4l2.2,0.2c0,0,4.7,14.3,14.2,15l-321.1-2.5
			c0,0-9.9,0.5-12.8-1.6c0,0,11.2-37.5-24.4-64.7L380.3,1084.2z"/>
		<path class="st72" d="M536.8,1046.4c0,0-6,3.8,0.3,5c6.3,1.2,29.7,0.5,29.7,0.5s5.7-2.3-1.4-4.8L536.8,1046.4z"/>
		<path class="st72" d="M390.7,1041.4c0,0-6,3.8,0.3,5c6.3,1.2,29.7,0.5,29.7,0.5s5.7-2.3-1.4-4.8L390.7,1041.4z"/>
		<path class="st73" d="M560.1,1053.9c0,0-4.7,6.5-15.1-0.6"/>
		<path class="st74" d="M559.4,1045.3c0,0-6.3-7-14.6-0.5"/>
		<path class="st73" d="M413.7,1049c0,0-4.7,6.5-15.1-0.6"/>
		<path class="st74" d="M413,1040.5c0,0-6.3-7-14.6-0.5"/>
		<g>
			<path class="st71" d="M713.6,1100.6c0,0-7.8,25.2-27.5,24.5c-19.8-0.6-246.7-4.1-246.7-4.1s-30.4,1.2-48.7-21l13.1,20.2
				c0,0,3.4,18.5,36.4,19.4c33,0.9,268.7,2.4,268.7,2.4S711.9,1126.9,713.6,1100.6z"/>
		</g>
		<circle class="st14" cx="330.2" cy="1144.9" r="53.9"/>
		<g>
			<g>
				<path class="st54" d="M330.3,1182.4c-2.6,0-5.3-0.3-7.9-0.9c-18.8-4.3-30.5-23.1-26.2-41.9c3.7-15.9,17.6-27.1,34-27.1
					c2.6,0,5.3,0.3,7.9,0.9c18.8,4.3,30.5,23.1,26.2,41.9C360.6,1171.3,346.7,1182.4,330.3,1182.4z"/>
				<path class="st55" d="M330.3,1114.1c2.5,0,5,0.3,7.5,0.9c18,4.1,29.2,22.1,25.1,40.1c-3.6,15.5-17.3,25.9-32.5,25.9
					c-2.5,0-5-0.3-7.5-0.9c-18-4.1-29.2-22.1-25.1-40.1C301.3,1124.5,315,1114.1,330.3,1114.1 M330.3,1111.1L330.3,1111.1
					c-8.1,0-16.1,2.8-22.5,7.8c-6.5,5.1-11.1,12.4-13,20.4c-4.5,19.6,7.7,39.1,27.3,43.7c2.7,0.6,5.5,0.9,8.2,0.9
					c8.1,0,16.1-2.8,22.5-7.8c6.5-5.1,11.1-12.4,13-20.4c2.2-9.5,0.5-19.2-4.6-27.5c-5.2-8.2-13.2-14-22.7-16.2
					C335.8,1111.4,333,1111.1,330.3,1111.1L330.3,1111.1z"/>
			</g>
			<g>
				<path class="st56" d="M330.2,1166.9c-1.4,0-2.9-0.2-4.3-0.5c-5-1.1-9.2-4.1-11.9-8.5c-2.7-4.3-3.6-9.4-2.4-14.4
					c2-8.7,9.6-14.8,18.5-14.8c1.4,0,2.9,0.2,4.3,0.5c10.2,2.4,16.6,12.6,14.3,22.8C346.8,1160.8,339.1,1166.9,330.2,1166.9z"/>
				<path class="st57" d="M330.2,1129.8L330.2,1129.8c1.4,0,2.7,0.2,4.1,0.5c4.7,1.1,8.7,3.9,11.2,8c2.6,4.1,3.4,8.9,2.3,13.6
					c-1.9,8.2-9.1,14-17.5,14c-1.4,0-2.7-0.2-4.1-0.5c-9.7-2.2-15.8-11.9-13.5-21.6C314.5,1135.6,321.8,1129.8,330.2,1129.8
					 M330.2,1127.8c-9.1,0-17.4,6.3-19.5,15.5c-2.5,10.8,4.2,21.5,15,24c1.5,0.3,3,0.5,4.5,0.5c9.1,0,17.4-6.3,19.5-15.5
					c2.5-10.8-4.2-21.5-15-24C333.2,1128,331.7,1127.8,330.2,1127.8L330.2,1127.8z"/>
			</g>
			<circle class="st58" cx="330.5" cy="1147.9" r="6.7"/>
			<g>
				<path class="st59" d="M323.9,1124.7c-0.2,0-0.3,0-0.5-0.1c-0.5-0.1-1-0.5-1.3-0.9s-0.4-1-0.3-1.6c0.2-1,1.1-1.6,2.1-1.6
					c0.2,0,0.3,0,0.5,0.1c1.1,0.3,1.8,1.4,1.6,2.5C325.7,1124.1,324.8,1124.7,323.9,1124.7z"/>
				<path class="st60" d="M323.9,1120.8L323.9,1120.8c0.1,0,0.3,0,0.4,0c1,0.2,1.6,1.2,1.4,2.2c-0.2,0.8-0.9,1.4-1.8,1.4
					c-0.1,0-0.3,0-0.4,0c-1-0.2-1.6-1.2-1.4-2.2C322.2,1121.4,323,1120.8,323.9,1120.8 M323.9,1120.3c-1.1,0-2,0.7-2.3,1.8
					c-0.3,1.3,0.5,2.5,1.8,2.8c0.2,0,0.4,0.1,0.5,0.1c1.1,0,2-0.7,2.3-1.8c0.3-1.3-0.5-2.5-1.8-2.8
					C324.2,1120.3,324,1120.3,323.9,1120.3L323.9,1120.3z"/>
			</g>
			<g>
				<path class="st59" d="M338.1,1124.9c-0.2,0-0.3,0-0.5-0.1c-1.1-0.3-1.8-1.4-1.6-2.5c0.2-1,1.1-1.6,2.1-1.6c0.2,0,0.3,0,0.5,0.1
					c1.1,0.3,1.8,1.4,1.6,2.5C339.9,1124.2,339.1,1124.9,338.1,1124.9z"/>
				<g>
					<path class="st60" d="M338.1,1120.9L338.1,1120.9c0.1,0,0.3,0,0.4,0c1,0.2,1.6,1.2,1.4,2.2c-0.2,0.8-0.9,1.4-1.8,1.4
						c-0.1,0-0.3,0-0.4,0c-1-0.2-1.6-1.2-1.4-2.2C336.5,1121.5,337.2,1120.9,338.1,1120.9 M338.1,1120.4c-1.1,0-2,0.7-2.3,1.8
						c-0.3,1.3,0.5,2.5,1.8,2.8c0.2,0,0.4,0.1,0.5,0.1c1.1,0,2-0.7,2.3-1.8c0.3-1.3-0.5-2.5-1.8-2.8
						C338.5,1120.4,338.3,1120.4,338.1,1120.4L338.1,1120.4z"/>
				</g>
			</g>
			<g>
				<path class="st61" d="M332.8,1137.4c-0.1,0-0.2,0-0.3,0c-0.7-0.2-1.1-0.9-1-1.6c0.1-0.6,0.7-1,1.3-1c0.1,0,0.2,0,0.3,0
					c0.3,0.1,0.6,0.3,0.8,0.6c0.2,0.3,0.2,0.6,0.2,1C334,1137,333.4,1137.4,332.8,1137.4z"/>
				<g>
					<path class="st62" d="M332.8,1135.1L332.8,1135.1c0.1,0,0.2,0,0.2,0c0.3,0.1,0.5,0.2,0.7,0.5c0.1,0.2,0.2,0.5,0.1,0.8
						c-0.1,0.5-0.5,0.8-1,0.8c-0.1,0-0.2,0-0.2,0c-0.6-0.1-0.9-0.7-0.8-1.3C331.9,1135.4,332.3,1135.1,332.8,1135.1 M332.8,1134.6
						c-0.7,0-1.4,0.5-1.5,1.2c-0.2,0.8,0.3,1.7,1.2,1.9c0.1,0,0.2,0,0.4,0c0.7,0,1.4-0.5,1.5-1.2c0.2-0.8-0.3-1.7-1.2-1.9
						C333.1,1134.6,332.9,1134.6,332.8,1134.6L332.8,1134.6z"/>
				</g>
			</g>
			<g>
				<path class="st61" d="M341.5,1151.4c-0.1,0-0.2,0-0.3,0c-0.3-0.1-0.6-0.3-0.8-0.6c-0.2-0.3-0.2-0.6-0.2-1c0.1-0.6,0.7-1,1.3-1
					c0.1,0,0.2,0,0.3,0c0.3,0.1,0.6,0.3,0.8,0.6c0.2,0.3,0.2,0.6,0.2,1C342.7,1150.9,342.1,1151.4,341.5,1151.4z"/>
				<g>
					<path class="st62" d="M341.5,1149L341.5,1149c0.1,0,0.2,0,0.2,0c0.6,0.1,0.9,0.7,0.8,1.3c-0.1,0.5-0.5,0.8-1,0.8
						c-0.1,0-0.2,0-0.2,0c-0.6-0.1-0.9-0.7-0.8-1.3C340.6,1149.3,341,1149,341.5,1149 M341.5,1148.5c-0.7,0-1.4,0.5-1.5,1.2
						c-0.2,0.8,0.3,1.7,1.2,1.9c0.1,0,0.2,0,0.4,0c0.7,0,1.4-0.5,1.5-1.2c0.2-0.8-0.3-1.7-1.2-1.9
						C341.8,1148.5,341.6,1148.5,341.5,1148.5L341.5,1148.5z"/>
				</g>
			</g>
			<g>
				<path class="st61" d="M327.9,1159.7c-0.1,0-0.2,0-0.3,0c-0.7-0.2-1.1-0.9-1-1.6c0.1-0.6,0.7-1,1.3-1c0.1,0,0.2,0,0.3,0
					c0.7,0.2,1.1,0.9,1,1.6C329,1159.3,328.5,1159.7,327.9,1159.7z"/>
				<g>
					<path class="st62" d="M327.9,1157.4L327.9,1157.4c0.1,0,0.2,0,0.2,0c0.6,0.1,0.9,0.7,0.8,1.3c-0.1,0.5-0.5,0.8-1,0.8
						c-0.1,0-0.2,0-0.2,0c-0.6-0.1-0.9-0.7-0.8-1.3C327,1157.7,327.4,1157.4,327.9,1157.4 M327.9,1156.9c-0.7,0-1.4,0.5-1.5,1.2
						c-0.2,0.8,0.3,1.7,1.2,1.9c0.1,0,0.2,0,0.4,0c0.7,0,1.4-0.5,1.5-1.2c0.2-0.8-0.3-1.7-1.2-1.9
						C328.1,1156.9,328,1156.9,327.9,1156.9L327.9,1156.9z"/>
				</g>
			</g>
			<g>
				<path class="st61" d="M318.8,1146.8c-0.1,0-0.2,0-0.3,0c-0.7-0.2-1.1-0.9-1-1.6c0.1-0.6,0.7-1,1.3-1c0.1,0,0.2,0,0.3,0
					c0.3,0.1,0.6,0.3,0.8,0.6c0.2,0.3,0.2,0.6,0.2,1C319.9,1146.4,319.4,1146.8,318.8,1146.8z"/>
				<g>
					<path class="st62" d="M318.8,1144.5L318.8,1144.5c0.1,0,0.2,0,0.2,0c0.3,0.1,0.5,0.2,0.7,0.5c0.1,0.2,0.2,0.5,0.1,0.8
						c-0.1,0.5-0.5,0.8-1,0.8c-0.1,0-0.2,0-0.2,0c-0.6-0.1-0.9-0.7-0.8-1.3C317.9,1144.8,318.3,1144.5,318.8,1144.5 M318.8,1144
						c-0.7,0-1.4,0.5-1.5,1.2c-0.2,0.8,0.3,1.7,1.2,1.9c0.1,0,0.2,0,0.4,0c0.7,0,1.4-0.5,1.5-1.2c0.2-0.8-0.3-1.7-1.2-1.9
						C319,1144,318.9,1144,318.8,1144L318.8,1144z"/>
				</g>
			</g>
			<g>
				<path class="st59" d="M350.8,1133.4c-0.2,0-0.3,0-0.5-0.1c-1.1-0.3-1.8-1.4-1.6-2.5c0.2-1,1.1-1.6,2.1-1.6c0.2,0,0.3,0,0.5,0.1
					c1.1,0.3,1.8,1.4,1.6,2.5C352.7,1132.7,351.8,1133.4,350.8,1133.4z"/>
				<g>
					<path class="st60" d="M350.8,1129.4L350.8,1129.4c0.1,0,0.3,0,0.4,0c0.5,0.1,0.9,0.4,1.2,0.8c0.3,0.4,0.3,0.9,0.2,1.4
						c-0.2,0.8-0.9,1.4-1.8,1.4c-0.1,0-0.3,0-0.4,0c-1-0.2-1.6-1.2-1.4-2.2C349.2,1130,350,1129.4,350.8,1129.4 M350.8,1128.9
						c-1.1,0-2,0.7-2.3,1.8c-0.3,1.3,0.5,2.5,1.8,2.8c0.2,0,0.4,0.1,0.5,0.1c1.1,0,2-0.7,2.3-1.8c0.3-1.3-0.5-2.5-1.8-2.8
						C351.2,1128.9,351,1128.9,350.8,1128.9L350.8,1128.9z"/>
				</g>
			</g>
			<g>
				<path class="st59" d="M356.1,1144.5c-0.2,0-0.3,0-0.5-0.1c-1.1-0.3-1.8-1.4-1.6-2.5c0.2-1,1.1-1.6,2.1-1.6c0.2,0,0.3,0,0.5,0.1
					c0.5,0.1,1,0.5,1.3,0.9s0.4,1,0.3,1.6C357.9,1143.8,357,1144.5,356.1,1144.5z"/>
				<g>
					<path class="st60" d="M356.1,1140.5L356.1,1140.5c0.1,0,0.3,0,0.4,0c1,0.2,1.6,1.2,1.4,2.2c-0.2,0.8-0.9,1.4-1.8,1.4
						c-0.1,0-0.3,0-0.4,0c-1-0.2-1.6-1.2-1.4-2.2C354.4,1141.1,355.2,1140.5,356.1,1140.5 M356.1,1140c-1.1,0-2,0.7-2.3,1.8
						c-0.3,1.3,0.5,2.5,1.8,2.8c0.2,0,0.4,0.1,0.5,0.1c1.1,0,2-0.7,2.3-1.8c0.3-1.3-0.5-2.5-1.8-2.8
						C356.4,1140.1,356.2,1140,356.1,1140L356.1,1140z"/>
				</g>
			</g>
			<g>
				<path class="st59" d="M355.2,1157.4c-0.2,0-0.3,0-0.5-0.1c-1.1-0.3-1.8-1.4-1.6-2.5c0.2-1,1.1-1.6,2.1-1.6c0.2,0,0.3,0,0.5,0.1
					c1.1,0.3,1.8,1.4,1.6,2.5C357,1156.7,356.1,1157.4,355.2,1157.4z"/>
				<g>
					<path class="st60" d="M355.2,1153.4L355.2,1153.4c0.1,0,0.3,0,0.4,0c1,0.2,1.6,1.2,1.4,2.2c-0.2,0.8-0.9,1.4-1.8,1.4
						c-0.1,0-0.3,0-0.4,0c-1-0.2-1.6-1.2-1.4-2.2C353.5,1154,354.3,1153.4,355.2,1153.4 M355.2,1152.9c-1.1,0-2,0.7-2.3,1.8
						c-0.3,1.3,0.5,2.5,1.8,2.8c0.2,0,0.4,0.1,0.5,0.1c1.1,0,2-0.7,2.3-1.8c0.3-1.3-0.5-2.5-1.8-2.8
						C355.5,1152.9,355.3,1152.9,355.2,1152.9L355.2,1152.9z"/>
				</g>
			</g>
			<g>
				<path class="st59" d="M348.9,1168c-0.2,0-0.3,0-0.5-0.1c-0.5-0.1-1-0.5-1.3-0.9c-0.3-0.5-0.4-1-0.3-1.6c0.2-1,1.1-1.6,2.1-1.6
					c0.2,0,0.3,0,0.5,0.1c1.1,0.3,1.8,1.4,1.6,2.5C350.7,1167.4,349.9,1168,348.9,1168z"/>
				<g>
					<path class="st60" d="M348.9,1164.1L348.9,1164.1c0.1,0,0.3,0,0.4,0c0.5,0.1,0.9,0.4,1.2,0.8c0.3,0.4,0.3,0.9,0.2,1.4
						c-0.2,0.8-0.9,1.4-1.8,1.4c-0.1,0-0.3,0-0.4,0c-0.5-0.1-0.9-0.4-1.2-0.8s-0.3-0.9-0.2-1.4
						C347.3,1164.7,348,1164.1,348.9,1164.1 M348.9,1163.6c-1.1,0-2,0.7-2.3,1.8c-0.3,1.3,0.5,2.5,1.8,2.8c0.2,0,0.4,0.1,0.5,0.1
						c1.1,0,2-0.7,2.3-1.8c0.3-1.3-0.5-2.5-1.8-2.8C349.2,1163.6,349.1,1163.6,348.9,1163.6L348.9,1163.6z"/>
				</g>
			</g>
			<g>
				<path class="st59" d="M337.5,1174.7c-0.2,0-0.3,0-0.5-0.1c-1.1-0.3-1.8-1.4-1.6-2.5c0.2-1,1.1-1.6,2.1-1.6c0.2,0,0.3,0,0.5,0.1
					c1.1,0.3,1.8,1.4,1.6,2.5C339.4,1174.1,338.5,1174.7,337.5,1174.7z"/>
				<g>
					<path class="st60" d="M337.5,1170.8L337.5,1170.8c0.1,0,0.3,0,0.4,0c0.5,0.1,0.9,0.4,1.2,0.8c0.3,0.4,0.3,0.9,0.2,1.4
						c-0.2,0.8-0.9,1.4-1.8,1.4c-0.1,0-0.3,0-0.4,0c-1-0.2-1.6-1.2-1.4-2.2C335.9,1171.4,336.7,1170.8,337.5,1170.8 M337.5,1170.3
						c-1.1,0-2,0.7-2.3,1.8c-0.3,1.3,0.5,2.5,1.8,2.8c0.2,0,0.4,0.1,0.5,0.1c1.1,0,2-0.7,2.3-1.8c0.3-1.3-0.5-2.5-1.8-2.8
						C337.9,1170.3,337.7,1170.3,337.5,1170.3L337.5,1170.3z"/>
				</g>
			</g>
			<g>
				<path class="st59" d="M324.4,1175.8c-0.2,0-0.3,0-0.5-0.1c-1.1-0.3-1.8-1.4-1.6-2.5c0.2-1,1.1-1.6,2.1-1.6c0.2,0,0.3,0,0.5,0.1
					c0.5,0.1,1,0.5,1.3,0.9c0.3,0.5,0.4,1,0.3,1.6C326.3,1175.2,325.4,1175.8,324.4,1175.8z"/>
				<g>
					<path class="st60" d="M324.4,1171.9L324.4,1171.9c0.1,0,0.3,0,0.4,0c0.5,0.1,0.9,0.4,1.2,0.8s0.3,0.9,0.2,1.4
						c-0.2,0.8-0.9,1.4-1.8,1.4c-0.1,0-0.3,0-0.4,0c-0.5-0.1-0.9-0.4-1.2-0.8c-0.3-0.4-0.3-0.9-0.2-1.4
						C322.8,1172.5,323.6,1171.9,324.4,1171.9 M324.4,1171.4c-1.1,0-2,0.7-2.3,1.8c-0.3,1.3,0.5,2.5,1.8,2.8c0.2,0,0.4,0.1,0.5,0.1
						c1.1,0,2-0.7,2.3-1.8c0.3-1.3-0.5-2.5-1.8-2.8C324.8,1171.4,324.6,1171.4,324.4,1171.4L324.4,1171.4z"/>
				</g>
			</g>
			<g>
				<path class="st59" d="M313.8,1170.8c-0.2,0-0.3,0-0.5-0.1c-1.1-0.3-1.8-1.4-1.6-2.5c0.2-1,1.1-1.6,2.1-1.6c0.2,0,0.3,0,0.5,0.1
					c1.1,0.3,1.8,1.4,1.6,2.5C315.7,1170.1,314.8,1170.8,313.8,1170.8z"/>
				<g>
					<path class="st60" d="M313.8,1166.8L313.8,1166.8c0.1,0,0.3,0,0.4,0c1,0.2,1.6,1.2,1.4,2.2c-0.2,0.8-0.9,1.4-1.8,1.4
						c-0.1,0-0.3,0-0.4,0c-0.5-0.1-0.9-0.4-1.2-0.8c-0.3-0.4-0.3-0.9-0.2-1.4C312.2,1167.4,313,1166.8,313.8,1166.8 M313.8,1166.3
						c-1.1,0-2,0.7-2.3,1.8c-0.3,1.3,0.5,2.5,1.8,2.8c0.2,0,0.4,0.1,0.5,0.1c1.1,0,2-0.7,2.3-1.8c0.3-1.3-0.5-2.5-1.8-2.8
						C314.2,1166.3,314,1166.3,313.8,1166.3L313.8,1166.3z"/>
				</g>
			</g>
			<g>
				<path class="st59" d="M306.4,1161c-0.2,0-0.3,0-0.5-0.1c-0.5-0.1-1-0.5-1.3-0.9c-0.3-0.5-0.4-1-0.3-1.6c0.2-1,1.1-1.6,2.1-1.6
					c0.2,0,0.3,0,0.5,0.1c0.5,0.1,1,0.5,1.3,0.9c0.3,0.5,0.4,1,0.3,1.6C308.2,1160.3,307.4,1161,306.4,1161z"/>
				<g>
					<path class="st60" d="M306.4,1157L306.4,1157c0.1,0,0.3,0,0.4,0c1,0.2,1.6,1.2,1.4,2.2c-0.2,0.8-0.9,1.4-1.8,1.4
						c-0.1,0-0.3,0-0.4,0c-1-0.2-1.6-1.2-1.4-2.2C304.8,1157.6,305.5,1157,306.4,1157 M306.4,1156.5c-1.1,0-2,0.7-2.3,1.8
						c-0.3,1.3,0.5,2.5,1.8,2.8c0.2,0,0.4,0.1,0.5,0.1c1.1,0,2-0.7,2.3-1.8c0.3-1.3-0.5-2.5-1.8-2.8
						C306.7,1156.5,306.6,1156.5,306.4,1156.5L306.4,1156.5z"/>
				</g>
			</g>
			<g>
				<path class="st59" d="M303.6,1149.3c-0.2,0-0.3,0-0.5-0.1c-0.5-0.1-1-0.5-1.3-0.9c-0.3-0.5-0.4-1-0.3-1.6c0.2-1,1.1-1.6,2.1-1.6
					c0.2,0,0.3,0,0.5,0.1c0.5,0.1,1,0.5,1.3,0.9s0.4,1,0.3,1.6C305.4,1148.6,304.6,1149.3,303.6,1149.3z"/>
				<g>
					<path class="st60" d="M303.6,1145.3L303.6,1145.3c0.1,0,0.3,0,0.4,0c1,0.2,1.6,1.2,1.4,2.2c-0.2,0.8-0.9,1.4-1.8,1.4
						c-0.1,0-0.3,0-0.4,0c-1-0.2-1.6-1.2-1.4-2.2C302,1145.9,302.7,1145.3,303.6,1145.3 M303.6,1144.8c-1.1,0-2,0.7-2.3,1.8
						c-0.3,1.3,0.5,2.5,1.8,2.8c0.2,0,0.4,0.1,0.5,0.1c1.1,0,2-0.7,2.3-1.8c0.3-1.3-0.5-2.5-1.8-2.8
						C304,1144.8,303.8,1144.8,303.6,1144.8L303.6,1144.8z"/>
				</g>
			</g>
			<g>
				<path class="st59" d="M305.8,1138.7c-0.2,0-0.3,0-0.5-0.1c-1.1-0.3-1.8-1.4-1.6-2.5c0.2-1,1.1-1.6,2.1-1.6c0.2,0,0.3,0,0.5,0.1
					c1.1,0.3,1.8,1.4,1.6,2.5C307.6,1138,306.8,1138.7,305.8,1138.7z"/>
				<g>
					<path class="st60" d="M305.8,1134.7L305.8,1134.7c0.1,0,0.3,0,0.4,0c0.5,0.1,0.9,0.4,1.2,0.8c0.3,0.4,0.3,0.9,0.2,1.4
						c-0.2,0.8-0.9,1.4-1.8,1.4c-0.1,0-0.3,0-0.4,0c-1-0.2-1.6-1.2-1.4-2.2C304.2,1135.3,304.9,1134.7,305.8,1134.7 M305.8,1134.2
						c-1.1,0-2,0.7-2.3,1.8c-0.3,1.3,0.5,2.5,1.8,2.8c0.2,0,0.4,0.1,0.5,0.1c1.1,0,2-0.7,2.3-1.8c0.3-1.3-0.5-2.5-1.8-2.8
						C306.1,1134.2,306,1134.2,305.8,1134.2L305.8,1134.2z"/>
				</g>
			</g>
			<g>
				<path class="st59" d="M312.4,1129.6c-0.2,0-0.3,0-0.5-0.1c-1.1-0.3-1.8-1.4-1.6-2.5c0.2-1,1.1-1.6,2.1-1.6c0.2,0,0.3,0,0.5,0.1
					c0.5,0.1,1,0.5,1.3,0.9s0.4,1,0.3,1.6C314.2,1128.9,313.4,1129.6,312.4,1129.6z"/>
				<g>
					<path class="st60" d="M312.4,1125.6L312.4,1125.6c0.1,0,0.3,0,0.4,0c1,0.2,1.6,1.2,1.4,2.2c-0.2,0.8-0.9,1.4-1.8,1.4
						c-0.1,0-0.3,0-0.4,0c-1-0.2-1.6-1.2-1.4-2.2C310.8,1126.2,311.5,1125.6,312.4,1125.6 M312.4,1125.1c-1.1,0-2,0.7-2.3,1.8
						c-0.3,1.3,0.5,2.5,1.8,2.8c0.2,0,0.4,0.1,0.5,0.1c1.1,0,2-0.7,2.3-1.8c0.3-1.3-0.5-2.5-1.8-2.8
						C312.8,1125.1,312.6,1125.1,312.4,1125.1L312.4,1125.1z"/>
				</g>
			</g>
		</g>
		<path class="st63" d="M370.3,1180.8c0,0,28.5-48.3-16.1-78.4c0,0-26.7-12.6-47.3-0.4s-27.1,33.9-29.1,53.5c0,0-3.6-7,0-22.8
			c3.6-15.7,21.4-48.4,64.6-40.4c0,0,49.3,10.1,40.4,64.6C382.8,1157,380.1,1171,370.3,1180.8z"/>
		<path class="st68" d="M522.9,1022.3c0,0,13.1,52.8,6.9,117.9"/>
		<g>
			<path class="st70" d="M267.1,1149.6c-5.9-0.4-51.1-3.8-83.9-9c-8.5-1.3-15.1-5.3-19.8-11.7c-10.6-14.7-7.5-38.1-7.1-40.8
				l10.7-5.1l2.3-17.4l0.3-1.9c3.4,0.6,23.2,4.3,36.8,5.5c0.8,0.1,1.6,0.1,2.4,0.1c10,0,12.4-6.2,13-9.1l3,4.8
				c3.5,8.8,13.9,13,14.4,13.2l48.8,13.3C262.3,1111.6,266.4,1144.6,267.1,1149.6z"/>
			<g>
				<path class="st65" d="M222.1,1061.5l2.3,3.7c3.6,9.1,14.2,13.3,14.7,13.5l0,0l0.1,0l47.8,13.1c-13.9,11.2-18.7,26.1-20.3,36.9
					c-1.4,9.6-0.6,17.4-0.1,20.3c-7.9-0.6-51.5-4-83.2-8.9c-8.3-1.3-14.9-5.2-19.5-11.5c-5.8-8-7.4-18.6-7.7-26.1
					c-0.3-6.9,0.4-12.4,0.6-14.1l10.2-4.8l0.5-0.2l0.1-0.5l2.3-17.1l0.2-1.4c4.5,0.8,23.3,4.2,36.3,5.4c0.8,0.1,1.7,0.1,2.5,0.1
					C218,1069.8,221.1,1064.8,222.1,1061.5 M221.6,1058.8c0,0-0.1,10.1-12.7,10.1c-0.7,0-1.5,0-2.4-0.1c-14.9-1.3-37.2-5.6-37.2-5.6
					l-0.4,2.4l-2.3,17.1l-10.6,5.1c0,0-8.1,47.8,27.3,53.4c35.3,5.5,84.6,9,84.6,9s-7.4-37.2,21.4-58.8l-49.7-13.6
					c0,0-10.7-4.2-14.1-13L221.6,1058.8L221.6,1058.8z"/>
			</g>
		</g>
		<path class="st11" d="M213.5,1092.9c0,0,28.4,3.7,33-12l41.7,11.4c0,0-20.5,13.5-20.9,41.3l-102.7-1.8c0,0-12.7-13.3-8.7-44
			l10.6-5.1C166.6,1082.7,183.4,1092.9,213.5,1092.9z"/>
		<path class="st65" d="M267.7,1150.1l-0.5-16.7l-102.7-1.8c0,0,6.8,7.7,18.6,9.4C195,1142.8,267.7,1150.1,267.7,1150.1z"/>
		<path class="st10" d="M614.7,958.1c0,0,28,8.4,62,26.5s54.2,31.4,54.2,31.4s2.9,3.1,9.3,2.7c6.4-0.4,15.7-1.1,15.7-1.1
			s-66.8-47.8-125.6-65.8c0,0-2.4-1.3-5.4-0.1C621.9,952.8,614.7,958.1,614.7,958.1z"/>
		<path d="M713.1,1016.5c0,0,18.7,11.6,7.6,14.4l-16.9,1.8c0,0-7.3-0.5-15-1.3S367,1015,367,1015s-17.6-1.2-28.2-9
			s-11.1-10.1-2.3-15.6c8.8-5.5,40.9-21.8,40.9-21.8s24-11.7,51.5-14c27.5-2.3,59.8-5.6,121.3-0.1
			C611.6,960,672.3,987.8,713.1,1016.5z"/>
		<path class="st75" d="M519.3,955.9l13.3,63.8l133.3,7.3l1.5-29.7c0,0,1.2-2.8-5.8-5.9C654.7,988.2,593.7,955.1,519.3,955.9z"/>
		<path class="st75" d="M503.6,956c0,0,2.5,38.7,8.2,61.9l-127.8-5.8l-2.7-22.8c0,0,2.4-20.3,23.3-26.2
			C429.8,956,503.6,956,503.6,956z"/>
		<path class="st76" d="M511.1,955.1c0,0,5.1,41.1,11.5,63.7"/>
		<path class="st77" d="M660.9,1003.6l-3.4,14.6c0,0,1.1,6.4,12,7.5c10.9,1.1,23.8-1.6,23.8-1.6s6.8-3.7,1.1-8.8s-10.3-10-23.5-13.2
			C662.9,1000,660.9,1003.6,660.9,1003.6z"/>
		<path class="st78" d="M519.3,955.9l13.3,63.8c0,0,55.8-41.7,134.3-18.2l0.6-4.2c0,0,1.1-2.5-5.8-5.9
			C654.8,987.9,587.7,954.1,519.3,955.9z"/>
		<path class="st9" d="M614.7,958.1c0,0,79.8,20.8,141.2,59.5c0,0-63.3-46.3-125.6-65.8c0,0-3-1.7-7,0.8
			C619.3,955.1,614.7,958.1,614.7,958.1z"/>
		<path class="st79" d="M341.1,951.6l18,5c0,0-55.6,24.6-97.8,43.2l-22.3-3.3C239,996.5,292.4,968.5,341.1,951.6z"/>
		<path class="st28" d="M169.1,1022.1l26.1,5.7c0,0,7.2,0.1,14.4,11.2c7.2,11.1,11.2,18.3,11.2,18.3s3,10.1-7.1,11.9
			c-10.2,1.8-45.6-4.2-45.6-4.2S163.1,1061.9,169.1,1022.1z"/>
		<path class="st67" d="M171.8,1039.1c0,0,36,6.6,40.5,3.8c0,0-5.9-13.2-17.1-15.8c-11.2-2.6-26.2-5.7-26.2-5.7l-1.8,16.4
			C167.3,1037.8,169,1038.5,171.8,1039.1z"/>
		<path class="st67" d="M219.6,1055c0,0-10,12.3-53.4-1.9c0,0-0.3,9.9,1.9,11.7c0,0,32.6,6.3,44.5,5
			C212.6,1069.9,227.2,1067.4,219.6,1055z"/>
		<path class="st80" d="M239,996.5c0,0,65.6-32.5,93.3-28.2l29.2-11l-20.3-5.8C341.1,951.6,298.1,965.2,239,996.5z"/>
		<path class="st78" d="M504.4,967.8c0,0-93.9,0.6-103.4,45.3l-17.2-1l-2.7-22.8c0,0-2-18.8,22.9-26.3c27.4-8.3,99.5-6.9,99.5-6.9
			L504.4,967.8z"/>
		<g>
			<path class="st71" d="M708.6,1047.3c0,0,81.9,0.8,141.2,10.8l19,20.2l14.1,7.5l-28-0.5c0,0-3.9-12.2-27.1-16.6
				c-23.1-4.4-53.2-4-94.5,6.7c0,0-7.9,1.2-12.8,25.2c-4.9,24-9.5,41.8-9.5,41.8l-2.2-0.2C708.8,1142,718.7,1088.8,708.6,1047.3z"/>
		</g>
		<path class="st81" d="M733.3,1054.7l-9.4,0.1c0,0-1.2,0.3-1.5,3.9c-0.3,3.6,0,4.3,4.2,4.2c4.2-0.1,8.2-0.3,8.2-0.3s2.8,1,2.2-5.4
			C737,1057.1,738.2,1053.6,733.3,1054.7z"/>
		<path class="st82" d="M261.2,999.9c0,0-24.6,10.1-85,16.4l-0.9,6.3"/>
		<path class="st82" d="M357.4,1012.5c0,0-0.6,5.4-4.1,8.2c0,0-2.3,2.8-2.4,6.2s-0.9,7.7-0.9,9.5l30.2,47.9"/>
		<path class="st68" d="M703.8,1032.8c0,0,4.5,10.7,4.8,14.6c0.3,3.8,7.1,21.5,5,53.3c-2.1,31.8-2.5,41.6-2.5,41.6"/>
		<path class="st82" d="M924.4,1084.1c0,0-2.5,6.1-21.8,3.5c-19.3-2.6-65.3-2.2-83.3-1.1"/>
	</g>
</g>
<g id="four_00000049184186550712051260000002601905804867817144_">
</g>
<g id="five_00000179643197332058435300000007386453149388464260_">
</g>
<g id="six">
</g>
<g id="seven_00000062194613864970919320000012156796603096136882_">
</g>
<g id="eight">
</g>
<g id="nine">
</g>
<g id="ten_00000098906372602984753350000010503549982832515468_">
</g>
<g id="eleven_00000180345820641820120410000009044592103142380464_">
</g>
<g id="twelve">
</g>
<g id="thirteen_00000173859306950962761430000017419446578002950540_">
</g>
<g id="fourteen">
</g>
<g id="fifteen_00000103262623346785252190000005497341088573515404_">
</g>
<g id="sixteen_00000052784415532825981170000013120508718389060798_">
</g>
<g id="seventeen_00000052799129178776355750000005236059528330747796_">
</g>
<g id="eighteen_00000054256262866476431880000018286803152678894488_">
</g>
<g id="nineteen_00000107558268356232088990000008456042227242415802_">
</g>
<g id="twenty">
</g>
</svg>
