<?xml version="1.0" encoding="utf-8"?>
<!-- Generator: Adobe Illustrator 27.2.0, SVG Export Plug-In . SVG Version: 6.00 Build 0)  -->
<svg version="1.1" xmlns="http://www.w3.org/2000/svg" xmlns:xlink="http://www.w3.org/1999/xlink" x="0px" y="0px"
	 viewBox="0 0 2250.5 1926.5" style="enable-background:new 0 0 2250.5 1926.5;" xml:space="preserve">
<style type="text/css">
	.st0{fill:#E8E6E6;stroke:#ADADAD;stroke-miterlimit:10;}
	.st1{fill:#F3F2F7;}
	.st2{fill:#030303;}
	.st3{fill:#353131;}
	.st4{fill:none;stroke:#ADADAD;stroke-width:2;stroke-miterlimit:10;}
	.st5{fill:none;stroke:#F3F2F7;stroke-width:2;stroke-miterlimit:10;}
	.st6{fill:#0A1205;}
	.st7{fill:#F3F2F7;stroke:#ADADAD;stroke-width:0.75;stroke-miterlimit:10;}
	.st8{fill:#ADADAD;}
	.st9{fill:#282828;}
	.st10{fill:#3A3A3A;}
	.st11{fill:#0A54A2;}
	.st12{fill:none;stroke:#E8E6E6;stroke-width:0.9742;stroke-miterlimit:10;}
	.st13{fill:#2E2E2E;}
	.st14{fill:#333333;}
	.st15{fill:#939393;stroke:#ADADAD;stroke-miterlimit:10;}
	.st16{fill:#D1D1D1;}
	.st17{fill:#191919;}
	.st18{fill:#666666;stroke:#ADADAD;stroke-miterlimit:10;}
	.st19{fill:#363636;}
	.st20{fill:none;stroke:#ADADAD;stroke-miterlimit:10;}
	.st21{fill:#121212;}
	.st22{fill:#0E0A12;}
	.st23{fill:#6E6E6E;}
	.st24{fill:#4E4E4E;}
	.st25{fill:#1E1E1E;}
	.st26{fill:#646464;}
	.st27{fill:#999999;}
	.st28{fill:#9E9E9E;}
	.st29{fill:#6D6D6D;}
	.st30{fill:#B5B5B5;}
	.st31{fill:#3E3E3E;}
	.st32{fill:#0D0F0C;}
	.st33{fill:none;stroke:#0E0A12;stroke-width:0.8371;stroke-miterlimit:10;}
	.st34{fill:#7D7D7D;}
	.st35{fill:#424242;}
	.st36{fill:#8A8A8A;}
	.st37{fill:#BCBCBC;stroke:#ADADAD;stroke-miterlimit:10;}
	.st38{fill:#8A8A8A;stroke:#6B6B6B;stroke-width:0.9619;stroke-miterlimit:10;}
	.st39{fill:none;stroke:#6B6B6B;stroke-width:0.7215;stroke-miterlimit:10;}
	.st40{fill:none;stroke:#A9A9AA;stroke-width:0.75;stroke-miterlimit:10;}
	.st41{fill:#484D4E;}
	.st42{fill:none;stroke:#111111;stroke-width:3;stroke-miterlimit:10;}
	.st43{fill:#282828;stroke:#0A0A0A;stroke-miterlimit:10;}
	.st44{fill:#F0221F;stroke:#BB1719;stroke-miterlimit:10;}
	.st45{fill:#BB1719;}
	.st46{fill:#FC7C88;stroke:#BB1719;stroke-miterlimit:10;}
	.st47{fill:none;stroke:#BB1719;stroke-width:3;stroke-miterlimit:10;}
	.st48{fill:#FC7C88;}
	.st49{fill:#FC7C88;stroke:#BB1719;stroke-width:3;stroke-miterlimit:10;}
	.st50{fill:#F0221F;}
	.st51{fill:#E8E6E6;stroke:#ADADAD;stroke-width:2;stroke-miterlimit:10;}
	.st52{opacity:0.59;fill:#F3F2F7;}
	.st53{fill:#080806;}
	.st54{fill:#9B9B9B;}
	.st55{fill:#2B2B2B;}
	.st56{fill:#C1BFBF;}
	.st57{fill:#D6D6D6;}
	.st58{fill:#4C4B4B;stroke:#A5A5A5;stroke-miterlimit:10;}
	.st59{fill:#444343;}
	.st60{fill:#727272;}
	.st61{fill:#A0A0A0;}
	.st62{fill:#999898;}
	.st63{fill:#444242;}
	.st64{fill:#157FCE;}
	.st65{fill:#134468;}
	.st66{fill:#092947;}
	.st67{fill:#D5D3D7;}
	.st68{fill:none;stroke:#134468;stroke-miterlimit:10;}
	.st69{fill:none;stroke:#0F63AD;stroke-miterlimit:10;}
	.st70{fill:#1672B7;}
	.st71{fill:#2066A0;}
	.st72{fill:#1B8ACE;}
	.st73{fill:none;stroke:#157FCE;stroke-miterlimit:10;}
	.st74{fill:none;stroke:#0A54A2;stroke-miterlimit:10;}
	.st75{fill:#3F3F3F;}
	.st76{fill:none;stroke:#282828;stroke-width:2;stroke-miterlimit:10;}
	.st77{fill:#7F7F7F;}
	.st78{fill:#2D2D2D;}
	.st79{fill:#4C4C4C;}
	.st80{fill:#383838;}
	.st81{fill:#9E9E9E;stroke:#0A55A3;stroke-miterlimit:10;}
	.st82{fill:none;stroke:#134468;stroke-width:0.75;stroke-miterlimit:10;}
	.st83{display:none;fill:#24242A;}
	.st84{display:none;fill:none;stroke:#848484;stroke-miterlimit:10;}
	.st85{display:none;fill:#30292D;}
	.st86{fill:#E8E6E6;}
	.st87{fill:#8C8C8C;}
	.st88{fill:#FCFCFC;stroke:#8C8C8C;stroke-miterlimit:10;}
	.st89{fill:#E8E6E6;stroke:#8C8C8C;stroke-miterlimit:10;}
	.st90{fill:#E8E6E6;stroke:#8C8C8C;stroke-width:2;stroke-miterlimit:10;}
	.st91{fill:none;stroke:#8C8C8C;stroke-width:2;stroke-miterlimit:10;}
	.st92{fill:none;stroke:#FCFCFC;stroke-width:3;stroke-miterlimit:10;}
	.st93{fill:#FCFCFC;}
	.st94{fill:#ADADAD;stroke:#8C8C8C;stroke-miterlimit:10;}
	.st95{fill:#FAFAFC;stroke:#ADADAD;stroke-width:0.75;stroke-miterlimit:10;}
	.st96{fill:none;stroke:#111111;stroke-width:3.6024;stroke-miterlimit:10;}
	.st97{fill:none;stroke:#111111;stroke-width:3.6093;stroke-miterlimit:10;}
	.st98{fill:none;stroke:#111111;stroke-width:3.5727;stroke-miterlimit:10;}
	.st99{fill:none;stroke:#111111;stroke-width:3.5263;stroke-miterlimit:10;}
	.st100{fill:none;stroke:#111111;stroke-width:3.4845;stroke-miterlimit:10;}
	.st101{fill:none;stroke:#111111;stroke-width:3.4337;stroke-miterlimit:10;}
	.st102{fill:none;stroke:#111111;stroke-width:3.3788;stroke-miterlimit:10;}
	.st103{fill:none;stroke:#111111;stroke-width:3.3233;stroke-miterlimit:10;}
	.st104{fill:none;stroke:#111111;stroke-width:3.2747;stroke-miterlimit:10;}
	.st105{fill:none;stroke:#111111;stroke-width:3.207;stroke-miterlimit:10;}
	.st106{fill:none;stroke:#111111;stroke-width:3.1652;stroke-miterlimit:10;}
	.st107{fill:none;stroke:#111111;stroke-width:3.099;stroke-miterlimit:10;}
	.st108{fill:none;stroke:#111111;stroke-width:3.0584;stroke-miterlimit:10;}
	.st109{fill:none;stroke:#111111;stroke-width:3.0299;stroke-miterlimit:10;}
</style>
<g id="original">
</g>
<g id="one">
</g>
<g id="two_00000026882943921159275490000004360688784792002186_">
</g>
<g id="three_00000113338737259881679640000015971704404683786636_">
</g>
<g id="four_00000049184186550712051260000002601905804867817144_">
</g>
<g id="five_00000179643197332058435300000007386453149388464260_">
</g>
<g id="six">
</g>
<g id="seven_00000062194613864970919320000012156796603096136882_">
</g>
<g id="eight">
</g>
<g id="nine">
</g>
<g id="ten_00000098906372602984753350000010503549982832515468_">
</g>
<g id="eleven_00000180345820641820120410000009044592103142380464_">
</g>
<g id="twelve">
</g>
<g id="thirteen_00000173859306950962761430000017419446578002950540_">
</g>
<g id="fourteen">
</g>
<g id="fifteen_00000103262623346785252190000005497341088573515404_">
</g>
<g id="sixteen_00000052784415532825981170000013120508718389060798_">
</g>
<g id="seventeen_00000052799129178776355750000005236059528330747796_">
</g>
<g id="eighteen_00000054256262866476431880000018286803152678894488_">
</g>
<g id="nineteen_00000107558268356232088990000008456042227242415802_">
</g>
<g id="twenty">
	<g>
		<path class="st86" d="M1971.8,828.7c-0.9-1.5-5.8-8.5-17.3-9.1c-12.1-0.7-193.8-3.9-204.5-4.1c0-2.4,0.1-13.1,5.3-18.6
			c2.1-2.2,4.8-3.3,8-3.3c14.8,0,186.9,6.1,188.6,6.1c0.3,0,31.7,2.1,37.6,28.6L1971.8,828.7z"/>
		<path class="st87" d="M1763.3,794c14.8,0,186.9,6.1,188.6,6.1c0.1,0,8.1,0.5,16.7,4.3c11,4.9,17.8,12.7,20.3,23.3l-16.8,0.4
			c-1.3-2-6.3-8.5-17.5-9.1c-11.9-0.6-189.3-3.8-204.1-4.1c0-3,0.4-12.7,5.2-17.8C1757.7,795.1,1760.2,794,1763.3,794 M1763.3,793
			c-15,0-13.9,23-13.9,23s192.5,3.4,205,4.1c12.5,0.7,17,9.1,17,9.1l18.6-0.5c-5.7-27.7-38.2-29.5-38.2-29.5S1778.3,793,1763.3,793
			L1763.3,793z"/>
	</g>
	<path class="st88" d="M1954.3,806.6l-141.9-6.1l21.4,8l117.6,4.2c0,0,16.5-0.2,25.8,15.2h5.2C1982.4,828,1977.2,807.8,1954.3,806.6
		z"/>
	<path class="st89" d="M1749.5,816l-0.5,12l201,1.9c0,0,11,0,13.4,13.4c2.4,13.4,21.5,113,21.5,113l0.8,128.3l32.7-0.8
		c0,0,9.4,1.1,9.4-8.3c0-9.4,0-44.6,0-44.6s0.5-5.9-5.4-8.1v-45.6h-16c0,0-10.2,0.8-11.3-15.9c-1.2-16.8-22-124.3-22-124.3
		s-1.5-2.4-1.7-7.8c0,0-5.8-8.8-17-9.1C1943.2,819.7,1749.5,816,1749.5,816z"/>
	<path class="st2" d="M1990.1,828.7l25.2,136.1l-22.6-21.3L1973.2,837c0,0-1.8-3.5-1.7-7.8L1990.1,828.7z"/>
	<path class="st2" d="M2018.1,951.3c0,0,5.4,9.2,3.2,17.8h-3l0.8,7.9l-12.5,0.2c0,0-10.3,0.4-11.3-15.9l-2.4-17.8l22.6,21.3
		c0,0,5.4-5.7-0.4-13.3c0,0-2.1-1.9-4.6,0.3c-2.5,2.2-3.9-1.7,0-3.6S2018.1,951.3,2018.1,951.3z"/>
	<polygon class="st3" points="1977.4,829.2 2005.3,913.3 1990.1,828.7 	"/>
	<path class="st90" d="M1749,828c0,0-5.4,110.4-4.1,200.8l240.1-0.9l-0.1-71.6l-21.5-113c0,0-1.7-13.4-13.4-13.4
		C1938.3,829.9,1749,828,1749,828z"/>
	<path class="st91" d="M1766.6,898.5l-0.3-47.2c0,0-0.6-8.8,12.4-9.1c13-0.3,24.8,0,24.8,0s9.1-2.1,9.1,11.8s-0.3,45.7-0.3,45.7"/>
	<path class="st92" d="M1765.7,909.4l-0.3,31.6c0,0-1.5,7.4,7.4,7.4c8.8,0,33.9,0,33.9,0s5,2.7,5-6.2s0-26,0-26"/>
	<path class="st91" d="M1764.8,979l0.3,33.6c0,0-0.9,5.3,5.3,5.3c6.2,0,39.5-0.3,39.5-0.3s4.7,1.8,4.4-6.2c-0.3-8-0.6-33-0.6-33
		s0.6-6.2-6.2-6.2c-6.8,0-38.3,0.6-38.3,0.6S1764.8,972.3,1764.8,979z"/>
	<line class="st91" x1="1826.7" y1="828.6" x2="1826.7" y2="1028"/>
	<polygon class="st6" points="1833.2,976.7 1833.5,995 1853.5,994.7 1853.5,976.7 	"/>
	<path class="st93" d="M1834.1,1001.4c0,0-1.2,10,14.2,9.7c15.3-0.3,115.3,0,115.3,0l-48.4-5.9h-66.9c0,0,0.3-3.8-4.1-4.1
		C1839.7,1000.9,1834.1,1001.4,1834.1,1001.4z"/>
	<path class="st87" d="M1837,842.2l4.7,67.2l-0.3-62.8c0,0-2.1-6.8,13.6-6.5c15.6,0.3,89.9,0.6,89.9,0.6s7.1-1.8,9.4,17.1
		c2.4,18.9,4.7,36.9,4.7,36.9l-2.1-45.7c0,0,0.7-11.8-13.6-11.6c-14.3,0.2-97.4-0.8-97.4-0.8S1838,836.3,1837,842.2z"/>
	<path class="st93" d="M1962,912.4l7.6,32.9c0,0,2.6,12.9-9.2,13.4c-11.8,0.5-111.3-5.3-111.3-5.3s-9.5-2.6-10-11.3
		s-0.3-27.4-0.3-27.4l2.6,25.5c0,0,0.3,8.4,7.9,9.5s109.2,6.1,109.2,6.1s11.1,2.9,7.4-19.2S1962,912.4,1962,912.4z"/>
	<path class="st9" d="M1841.7,914.8l-0.3,25.5c0,0,0.1,8.6,7.9,9.5c7.8,0.8,109.2,6.1,109.2,6.1s10.8,2.4,7.4-19.2
		s-12.8-85.5-12.8-85.5s-1.2-10-8.1-10.4c-6.9-0.3-95.2-1-95.2-1s-8.7-1.3-8.7,5.9C1841,852.9,1841.7,914.8,1841.7,914.8z"/>
	<polygon class="st2" points="1933,831 1933,837.9 1950.2,838.4 1949.9,831 	"/>
	<path class="st10" d="M1841.3,864.2c0,0,96.3,16.1,107.9,91.5l9.3,0.1c0,0,10.8,1.4,7.4-19.2c-3.5-20.6-12.8-85.5-12.8-85.5
		s-1.4-10.2-8.1-10.4s-95.2-1-95.2-1s-8.6-0.9-8.7,5.9C1841,852.5,1841.3,864.2,1841.3,864.2z"/>
	<polygon class="st2" points="1939.7,837.2 1939.8,848.3 1943.3,848.2 1943.5,837.4 	"/>
	<path class="st2" d="M1935.5,848.4l0.7,93.5h7.2c0,0,6.1-6.3,6.1-15.6l-0.2-66c0,0-1.4-10.9-5.9-12.1L1935.5,848.4z"/>
	<polygon class="st2" points="1939.3,970.7 1939.3,941.5 1943.5,941.8 1943.5,970.1 	"/>
	<polygon class="st2" points="1946.9,969.8 1950.6,969.9 1950.6,976.3 1931.8,976.3 1931.8,969.9 	"/>
	<path class="st11" d="M1818.6,772.1l17.4,0.2v18.3c0,0-4.6,1.4-19.2,0v-18.5L1818.6,772.1z"/>
	<path class="st87" d="M1838.9,789.9l0.1,6l-24.3-0.5v-5.9C1814.8,789.5,1823.8,792.4,1838.9,789.9z"/>
	<path class="st0" d="M1744.9,1028.8l0.4,26.2H1851c0,0,49,1.9,59.1,28.8l75.7,0.9l-0.7-56.7L1744.9,1028.8z"/>
	<path class="st89" d="M1744.9,1028.8l0.4,26.2H1851c0,0,49,1.9,59.1,28.8l75.7,0.9l-0.7-56.7L1744.9,1028.8z"/>
	<polygon class="st6" points="1982.4,1048.4 1960.6,1027.8 1979,1027.9 1985,1033.9 1985,1051.3 	"/>
	<path class="st6" d="M1945.1,1028.4l27.3,26.4h-18l-26.2-26.2C1928.1,1028.6,1945.1,1028.4,1945.1,1028.4z"/>
	<path class="st6" d="M1911.8,1028.6l26.6,26.6h-17.6l-26.5-26.5C1894.3,1028.8,1911.7,1028.7,1911.8,1028.6z"/>
	<path class="st6" d="M1879.6,1028.6l26.6,26.6h-17.6l-26.5-26.5C1862.1,1028.8,1879.5,1028.7,1879.6,1028.6z"/>
	<path class="st6" d="M1845.8,1028.6l26.6,26.6h-17.6l-26.5-26.5C1828.3,1028.8,1845.8,1028.7,1845.8,1028.6z"/>
	<path class="st6" d="M1812.4,1028.6l26.6,25.8h-17.6l-26.5-25.7C1794.9,1028.8,1812.4,1028.7,1812.4,1028.6z"/>
	<path class="st6" d="M1778.7,1029.1l26.6,25.3h-17.6l-26.5-25.1C1761.2,1029.3,1778.6,1029.2,1778.7,1029.1z"/>
	<path class="st6" d="M1744.9,1028.8l25.9,25.9h-16.4l-8.7-8.7l-0.7-0.7C1745.1,1045.3,1744.9,1028.6,1744.9,1028.8z"/>
	<path class="st94" d="M2022.5,1022.9h-26.9l8,8l24.3,0C2027.9,1030.9,2028.9,1025.3,2022.5,1022.9z"/>
	<path class="st94" d="M1985,1027.9c0,0,5.7,1.4,6,6.4v41.2l36.9-0.1c0,0,1.1,8.3-9.4,8.3c-10.5,0-32.7,0.8-32.7,0.8L1985,1027.9z"
		/>
	<polygon class="st13" points="1934.9,1180.6 1985.4,1180.5 1985.4,1084.6 1910.1,1083.7 	"/>
	<polygon class="st0" points="1930,1112.7 1985.6,1112.7 1985.6,1117.8 1930.1,1117.8 	"/>
	<path class="st0" d="M1985.3,1144.9h-51.9v3.9h52.2C1985.6,1148.8,1985.3,1144.2,1985.3,1144.9z"/>
	<path class="st0" d="M1933.9,1175.6h51.2v4.4h-51.7C1933.4,1180,1934.3,1175.2,1933.9,1175.6z"/>
	<path class="st2" d="M1916.2,1142.9l-15.1,13.3c0,0-33.2-69.2-81.4-59.5c-48.3,9.7-70.3,61.6-70.3,61.6l-16.6-15.5l21.3-64.5
		l78.6-5.4l64.1,7.6l18,45.8L1916.2,1142.9z"/>
	<circle class="st14" cx="1825.2" cy="1172.2" r="78.7"/>
	<circle class="st15" cx="1825.5" cy="1170.1" r="48.8"/>
	<circle class="st12" cx="1825.5" cy="1170.1" r="48.8"/>
	<circle class="st16" cx="1825.2" cy="1169.5" r="42.8"/>
	<circle class="st17" cx="1825.8" cy="1170.6" r="18.4"/>
	<circle class="st18" cx="1813.7" cy="1149.5" r="2.5"/>
	<circle class="st18" cx="1825.7" cy="1146.5" r="2.5"/>
	<circle class="st18" cx="1838" cy="1150.2" r="2.5"/>
	<circle class="st18" cx="1846.4" cy="1158.4" r="2.5"/>
	<circle class="st18" cx="1849.1" cy="1170.8" r="2.5"/>
	<circle class="st18" cx="1846.6" cy="1182.7" r="2.5"/>
	<circle class="st18" cx="1838" cy="1191.4" r="2.5"/>
	<circle class="st18" cx="1826" cy="1194.5" r="2.5"/>
	<circle class="st18" cx="1812.9" cy="1190.9" r="2.5"/>
	<circle class="st18" cx="1804.8" cy="1182.4" r="2.5"/>
	<circle class="st18" cx="1801.7" cy="1170.4" r="2.5"/>
	<circle class="st18" cx="1804.5" cy="1158" r="2.5"/>
	<path class="st19" d="M1800.8,1134.6c0,0,4,14.9-10.7,11.3C1790.1,1145.9,1792.3,1139.7,1800.8,1134.6z"/>
	<path class="st19" d="M1817.3,1127.6c0,0,6.4,12,17.4,0.5C1834.7,1128.1,1826.9,1125.1,1817.3,1127.6z"/>
	<path class="st19" d="M1849.3,1134.6c0,0-3.1,14.6,11.7,11.7C1860.9,1146.2,1856.4,1137.9,1849.3,1134.6z"/>
	<path class="st19" d="M1867,1161.8c0,0-9.2,9.9-0.5,17.9C1866.5,1179.6,1869.6,1172.2,1867,1161.8z"/>
	<path class="st19" d="M1849.9,1204.5c0,0-0.9-11.3,10.3-10.7C1860.1,1193.8,1856.9,1199.7,1849.9,1204.5z"/>
	<path class="st19" d="M1833.4,1211.2c0,0-7.1-9.9-16.6,0.2C1816.8,1211.3,1823.9,1213.8,1833.4,1211.2z"/>
	<path class="st19" d="M1790.1,1193.8c0,0,12.1-1.7,11,10.7C1801.1,1204.5,1795.5,1201.5,1790.1,1193.8z"/>
	<path class="st19" d="M1783.2,1161.3c0,0,10.4,8.4,0.5,18.3C1783.7,1179.6,1781.2,1172.8,1783.2,1161.3z"/>
	<path d="M1899.4,1145.5c0,0,23.1,81.5-72,102.5c0,0-87.4-4.1-76.9-102c0,0-20.5,55.5,31,92c0,0,20.3,14.8,47,13
		c26.7-1.8,52.7-13.7,68.6-46.2C1906.4,1179.4,1905.4,1169.3,1899.4,1145.5z"/>
	<path class="st20" d="M1744.9,1028.8l0.4,26.2H1851c0,0,49,1.9,59.1,28.8l75.7,0.9l-0.7-56.7L1744.9,1028.8z"/>
	<circle class="st20" cx="1825.2" cy="1169.5" r="42.8"/>
	<path class="st0" d="M2012.1,1084l0.4,13.4c0,0,15.7,4.2,15.9,14.8v65c0,0,1.1,6.7-6.7,6.7c-7.8,0-36.3,0-36.3,0l0.3-99.2
		L2012.1,1084z"/>
	<path class="st95" d="M2018.1,1114.2v24c0,0-0.4,4.7,4.3,4.7c4.7,0,6.1,0,6.1,0l-0.2-30.7C2028.3,1112.2,2021.5,1110,2018.1,1114.2
		z"/>
	<path class="st95" d="M2028.4,1154.9c0,0-11.2-1.8-10.8,6.5c0.3,8.2,9.2,6.7,10.8,6.4V1154.9z"/>
	<path class="st94" d="M2027.1,1107.8c0,0-13.6-6.4-32.8-2.9l-0.7,74c0,0,29.9,4.5,34.7-1.8c0,0,1.8,6.5-6.7,6.7
		c-8.5,0.1-36.3,0-36.3,0l0.3-99.2l26.4-0.6l0.4,13.4C2012.5,1097.4,2025.1,1101.5,2027.1,1107.8z"/>
	<polygon class="st21" points="1013.4,1076.7 1013.4,1130.6 1195.9,1169.4 1237.4,1145.8 1599.7,1145.8 1741.4,1146.5 1754,1078.3 	
		"/>
	<circle class="st22" cx="1620.7" cy="1142.9" r="22.5"/>
	<circle class="st22" cx="1670" cy="1142.9" r="22.5"/>
	<path class="st23" d="M1634.9,1126c0,0-15-5.6-25.6,4.2c-10.6,9.8-10,20.6-10,20.6s-4.6-16.6,7.9-25.8S1633.3,1122.9,1634.9,1126z"
		/>
	<path class="st23" d="M1684,1126c0,0-15-5.6-25.6,4.2c-10.6,9.8-10,20.6-10,20.6s-4.6-16.6,7.9-25.8S1682.5,1122.9,1684,1126z"/>
	<path class="st24" d="M1392.5,1104.1v73.5h200.8v-73.8C1593.3,1103.8,1391.5,1104.1,1392.5,1104.1z"/>
	<path class="st25" d="M1543.6,1096.6v11.2h10.7v-11.2C1554.3,1096.6,1543.3,1096.6,1543.6,1096.6z"/>
	<polygon class="st26" points="1550.1,1101.2 1550.1,1107.8 1554.3,1107.8 1554.3,1096.6 1550,1096.6 	"/>
	<polygon class="st27" points="1398.3,1104.5 1398.3,1177.8 1392.5,1177.8 1392.5,1104.1 1398.3,1104.1 	"/>
	<path class="st28" d="M1418.3,1100.5v77.9h7.3v-77.8C1425.6,1100.6,1418.8,1100.5,1418.3,1100.5z"/>
	<path class="st28" d="M1491.2,1100.4v77.5h7.9v-77.5C1499.1,1100.4,1491.2,1100,1491.2,1100.4z"/>
	<path class="st28" d="M1564,1100.1v78.5h7.8v-78v-0.5C1571.8,1100,1563.8,1100.1,1564,1100.1z"/>
	<path class="st28" d="M1588.9,1103.8v73.6h4.3v-73.6C1593.3,1103.8,1588.9,1104.1,1588.9,1103.8z"/>
	<path class="st29" d="M1398.4,1120.1h19.8v5h-19.8C1398.4,1125.1,1398.2,1119.9,1398.4,1120.1z"/>
	<path class="st29" d="M1572,1120.1h16.7v5H1572C1572,1125.1,1571.8,1119.9,1572,1120.1z"/>
	<path class="st29" d="M1425.9,1120.1h64.9v5h-64.9C1425.9,1125.1,1425.3,1119.9,1425.9,1120.1z"/>
	<path class="st29" d="M1499.5,1120.1h64.5v5h-64.5C1499.5,1125.1,1498.9,1119.9,1499.5,1120.1z"/>
	<path class="st30" d="M1392.5,1120.1h5.9v4.9h-5.8C1392.6,1125.1,1392.5,1120,1392.5,1120.1z"/>
	<path class="st30" d="M1418.3,1120.1h7.3v5.8h-7.3C1418.3,1125.8,1418.3,1120.1,1418.3,1120.1z"/>
	<path class="st30" d="M1491.2,1120.1h7.9v5.8h-7.9C1491.2,1125.8,1491.1,1120.1,1491.2,1120.1z"/>
	<path class="st30" d="M1563.9,1120.1h8v5.8h-8C1563.9,1125.8,1563.8,1120.1,1563.9,1120.1z"/>
	<path class="st30" d="M1588.7,1120.3h4.5v4.9h-4.4C1588.8,1125.2,1588.7,1120.2,1588.7,1120.3z"/>
	<path class="st31" d="M1241.9,1154.1v-37.6c0,0,0.7-6.3,15.2-6.3c14.5,0,121.1,0,121.1,0s7.9-1,7.9,9.6s0,50.8,0,50.8
		s1.3,7.3-14.2,7.3s-121.8,0-121.8,0s-8.3,0.7-8.3-8.6S1241.9,1154.1,1241.9,1154.1z"/>
	<path class="st32" d="M1310.5,1138.9v12.2h8.8v-12.4C1319.3,1138.7,1310.4,1138.8,1310.5,1138.9z"/>
	<line class="st33" x1="1385.7" y1="1145.7" x2="1242.1" y2="1145.7"/>
	<circle class="st14" cx="1118.4" cy="1172.2" r="78.7"/>
	<circle class="st15" cx="1118.8" cy="1170.1" r="48.8"/>
	<circle class="st12" cx="1118.8" cy="1170.1" r="48.8"/>
	<circle class="st16" cx="1118.4" cy="1169.5" r="42.8"/>
	<circle class="st17" cx="1119" cy="1170.6" r="18.4"/>
	<circle class="st18" cx="1106.9" cy="1149.5" r="2.5"/>
	<circle class="st18" cx="1118.9" cy="1146.5" r="2.5"/>
	<circle class="st18" cx="1131.2" cy="1150.2" r="2.5"/>
	<circle class="st18" cx="1139.7" cy="1158.4" r="2.5"/>
	<circle class="st18" cx="1142.3" cy="1170.8" r="2.5"/>
	<circle class="st18" cx="1139.8" cy="1182.7" r="2.5"/>
	<circle class="st18" cx="1131.2" cy="1191.4" r="2.5"/>
	<circle class="st18" cx="1119.2" cy="1194.5" r="2.5"/>
	<circle class="st18" cx="1106.1" cy="1190.9" r="2.5"/>
	<circle class="st18" cx="1098.1" cy="1182.4" r="2.5"/>
	<circle class="st18" cx="1094.9" cy="1170.4" r="2.5"/>
	<circle class="st18" cx="1097.7" cy="1158" r="2.5"/>
	<path class="st19" d="M1094,1134.6c0,0,4,14.9-10.7,11.3C1083.3,1145.9,1085.5,1139.7,1094,1134.6z"/>
	<path class="st19" d="M1110.5,1127.6c0,0,6.4,12,17.4,0.5C1127.9,1128.1,1120.1,1125.1,1110.5,1127.6z"/>
	<path class="st19" d="M1142.5,1134.6c0,0-3.1,14.6,11.7,11.7C1154.1,1146.2,1149.6,1137.9,1142.5,1134.6z"/>
	<path class="st19" d="M1160.2,1161.8c0,0-9.2,9.9-0.5,17.9C1159.7,1179.6,1162.8,1172.2,1160.2,1161.8z"/>
	<path class="st19" d="M1143.1,1204.5c0,0-0.9-11.3,10.3-10.7C1153.4,1193.8,1150.1,1199.7,1143.1,1204.5z"/>
	<path class="st19" d="M1126.6,1211.2c0,0-7.1-9.9-16.6,0.2C1110,1211.3,1117.2,1213.8,1126.6,1211.2z"/>
	<path class="st19" d="M1083.3,1193.8c0,0,12.1-1.7,11,10.7C1094.3,1204.5,1088.7,1201.5,1083.3,1193.8z"/>
	<path class="st19" d="M1076.5,1161.3c0,0,10.4,8.4,0.5,18.3C1076.9,1179.6,1074.4,1172.8,1076.5,1161.3z"/>
	<path d="M1192.6,1145.5c0,0,23.1,81.5-72,102.5c0,0-87.4-4.1-76.9-102c0,0-20.5,55.5,31,92c0,0,20.3,14.8,47,13
		c26.7-1.8,52.7-13.7,68.6-46.2C1199.6,1179.4,1198.6,1169.3,1192.6,1145.5z"/>
	<circle class="st20" cx="1118.4" cy="1169.5" r="42.8"/>
	<path class="st34" d="M1206.7,1176.9c0,0,8.3-55.7-60.6-83.8c0,0-45.8-17.1-84.3,14.3c0,0-28.7,13.2-34.2,70c0,0-3.9,8.3-17.6,8.3
		h-10.8l0.9-54l13.4-1.1l17.1-35.8c0,0,5.9-17.9,30.8-17.9s126.4,0.3,126.4,0.3s17,0.3,23.2,26.4s14.7,29,26.1,29v53.4l-25.2-0.3
		C1211.7,1185.7,1206.4,1184.8,1206.7,1176.9z"/>
	<path class="st35" d="M1108.5,1083.6c0,0-63.8,0.4-76.5,41c-12.7,40.6-16.5,60.9-16.5,60.9s-11.6,0.8-16.4,0.2l0.9-54l13.4-1.1
		l17.1-35.8c0,0,6.3-18,30.8-17.9s126.4,0.3,126.4,0.3s19.4,0.1,23.2,26.4c6,24.5,13.5,25.8,26.9,28.3l-0.8,54.1l-25.2-0.3
		c0,0-5.3-0.8-5-8.8c0,0,16.9-3.9,10.2-39.3c0,0-14.5-9.1-15.5-27.4S1185.9,1083.9,1108.5,1083.6z"/>
	<path class="st36" d="M1736,1180.7c0,0-14.1-88.6,62.3-98.4l-55.9-0.4c0,0-23.4,26.1-24.5,67.9c-1.1,41.7-0.4,35.6-0.4,35.6
		S1733.1,1187.6,1736,1180.7z"/>
	<path class="st37" d="M1724.5,802.4l-0.3,37.4c0,0,8,1.6,14.8,0l-0.3-41.2L1724.5,802.4z"/>
	<ellipse class="st21" cx="1731.6" cy="800.6" rx="8.2" ry="8.5"/>
	<path class="st38" d="M1721,839.8c0,0,11.8,1.6,21.3-0.3v214.7c0,0-13.9,3.5-21.3-0.3V839.8z"/>
	<path class="st0" d="M1700.3,1102.7v24.7c0,0,5.9,8.8,12.9-0.2v-20.6c0,0-0.7-7,7-9.7c7.7-2.7,14.3-9.1,15.2-17.4
		c0.9-8.4,0.7-24,0.7-24s-6.9,1-13.4-0.3l-0.4,20c0,0-0.9,5.7-7.9,9.5S1700.8,1091.2,1700.3,1102.7z"/>
	<path class="st8" d="M1728.9,1056.2l-0.7,19.2c0,0-1.8,9.5-9,13c-7.3,3.5-12.3,8.2-12.3,15s-0.2,28-0.2,28s-4.8,1.5-6.4-3.9
		l0.4-27.9c0,0,0.2-8.4,11.7-13.9c11.5-5.5,9.9-10.6,9.9-10.6l0.4-20C1722.7,1055.1,1726.1,1056.2,1728.9,1056.2z"/>
	<path class="st39" d="M1742.1,844.9c0,0-8.2,2.4-21.1-0.2"/>
	<path class="st39" d="M1742.1,850.5c0,0-8.2,2.4-21.1-0.2"/>
	<path class="st39" d="M1742.1,855.8c0,0-8.2,2.4-21.1-0.2"/>
	<path class="st39" d="M1742.1,861.2c0,0-8.2,2.4-21.1-0.2"/>
	<path class="st39" d="M1742.1,866.8c0,0-8.2,2.4-21.1-0.2"/>
	<path class="st39" d="M1742.1,872.4c0,0-8.2,2.4-21.1-0.2"/>
	<path class="st39" d="M1741.9,878c0,0-8.2,2.4-21.1-0.2"/>
	<path class="st39" d="M1741.9,883.6c0,0-8.2,2.4-21.1-0.2"/>
	<path class="st39" d="M1741.9,889c0,0-8.2,2.4-21.1-0.2"/>
	<path class="st39" d="M1741.9,894.4c0,0-8.2,2.4-21.1-0.2"/>
	<path class="st39" d="M1741.9,900.2c0,0-8.2,2.4-21.1-0.2"/>
	<path class="st39" d="M1741.9,905.6c0,0-8.2,2.4-21.1-0.2"/>
	<path class="st39" d="M1741.9,911.8c0,0-8.2,2.4-21.1-0.2"/>
	<path class="st39" d="M1741.9,917.6c0,0-8.2,2.4-21.1-0.2"/>
	<path class="st39" d="M1741.9,923.2c0,0-8.2,2.4-21.1-0.2"/>
	<path class="st39" d="M1741.9,929.2c0,0-8.2,2.4-21.1-0.2"/>
	<path class="st39" d="M1741.9,935.1c0,0-8.2,2.4-21.1-0.2"/>
	<path class="st39" d="M1742.2,941.2c0,0-8.2,2.4-21.1-0.2"/>
	<path class="st39" d="M1742.2,947.9c0,0-8.2,2.4-21.1-0.2"/>
	<path class="st39" d="M1742,954c0,0-8.2,2.4-21.1-0.2"/>
	<path class="st39" d="M1742,960.5c0,0-8.2,2.4-21.1-0.2"/>
	<path class="st39" d="M1742,966.2c0,0-8.2,2.4-21.1-0.2"/>
	<path class="st39" d="M1742,972.5c0,0-8.2,2.4-21.1-0.2"/>
	<path class="st39" d="M1742,978.1c0,0-8.2,2.4-21.1-0.2"/>
	<path class="st39" d="M1742,985c0,0-8.2,2.4-21.1-0.2"/>
	<path class="st39" d="M1742,991.1c0,0-8.2,2.4-21.1-0.2"/>
	<path class="st39" d="M1742,996.6c0,0-8.2,2.4-21.1-0.2"/>
	<path class="st39" d="M1742,1002.4c0,0-8.2,2.4-21.1-0.2"/>
	<path class="st39" d="M1742,1008.3c0,0-8.2,2.4-21.1-0.2"/>
	<path class="st39" d="M1742,1014.6c0,0-8.2,2.4-21.1-0.2"/>
	<path class="st39" d="M1742,1021.7c0,0-8.2,2.4-21.1-0.2"/>
	<path class="st39" d="M1742,1028.4c0,0-8.2,2.4-21.1-0.2"/>
	<path class="st39" d="M1742,1034.9c0,0-8.2,2.4-21.1-0.2"/>
	<path class="st39" d="M1742,1041.4c0,0-8.2,2.4-21.1-0.2"/>
	<path class="st39" d="M1741.7,1048.3c0,0-8.2,2.4-21.1-0.2"/>
	<line class="st40" x1="1736.5" y1="840.4" x2="1736.5" y2="1055.4"/>
	<line class="st40" x1="1724.2" y1="839.8" x2="1724.2" y2="1055.1"/>
	<line class="st40" x1="1729.6" y1="840.8" x2="1729.6" y2="1056.2"/>
	<path class="st36" d="M1740,1054.3v28.2h113.9c0,0,58.2,1.1,58.2,55.2l-0.4,41c0,0-1.9,5.6,6.8,6c8.6,0.4,16.9,0,16.9,0l-1.7-59.2
		c0,0-7.4-69.5-78.8-70.2S1740,1054.3,1740,1054.3z"/>
	<path class="st41" d="M1770.9,1063.6l72.9-0.3c0,0,62.5-4.9,76.9,38.9c14.4,43.8,14.7,82.5,14.7,82.5l-1.7-59.2
		c0,0-5.2-70.5-82.7-70.5c-77.5,0-111-0.7-111-0.7l-0.2,10.5L1770.9,1063.6z"/>
	<path class="st11" d="M1689.4,768.8l0.3,20.9c0,0,5.5,1.3,18.6,0l-0.5-21.2L1689.4,768.8z"/>
	<path class="st87" d="M1710.8,789.1l0.1,4.4h-23.8l0.1-4.1C1687.2,789.5,1696.3,790.5,1710.8,789.1z"/>
	<polygon class="st89" points="1680.9,792.8 1637.5,892.7 1716,892.7 1716,792.8 	"/>
	<polygon class="st8" points="1644.5,876.4 1694.5,877 1715.8,845.6 1716,892.7 1637.5,892.7 	"/>
	<line class="st42" x1="1640.9" y1="883.2" x2="986.3" y2="631.4"/>
	<path class="st42" d="M952.7,665.5c0,0,7.4,106.1,8.9,117"/>
	<line class="st42" x1="993.1" y1="676.8" x2="983.3" y2="786.4"/>
	<polygon class="st43" points="1012.4,661.2 1100.6,695.4 1090.3,719.9 1007.5,686.7 	"/>
	<path class="st10" d="M1019,668.4c0,0,0.7,13.2,15.9,18.9c15.2,5.6,59.6,22.8,59.6,22.8l5-12.2c0,0-67.8-23.2-72.8-27.1
		c-5-4-6.9-5.1-6.9-5.1S1018.5,667.4,1019,668.4z"/>
	<circle class="st10" cx="973.1" cy="651.3" r="27.4"/>
	<circle class="st9" cx="973.7" cy="651.5" r="21.8"/>
	<path class="st44" d="M1020.1,658.5l-12.9,34.1c0,0-42.9-11.1-47-25.4c-4.2-14.3,1.8-26.3,5.1-34.1L1020.1,658.5z"/>
	<path class="st45" d="M981.2,676.9l22.7,9.6c0,0,5.2-20.7,16.2-28l-12.9,34.1c0,0-41.1-9.9-47-25.4c0,0-3.2-6.7,0.2-20.3
		c0,0-1.3,19.2,6.7,23.5C975.1,674.7,981.2,676.9,981.2,676.9z"/>
	<circle class="st46" cx="973.1" cy="650.4" r="5.4"/>
	<circle class="st10" cx="1148.4" cy="693.5" r="11.8"/>
	<circle class="st9" cx="1463" cy="827.7" r="18"/>
	<circle class="st10" cx="1463.3" cy="827.9" r="11.5"/>
	<polygon class="st44" points="1603.3,894.8 1105.1,685.2 1086.6,728 1336.4,835.5 1354.5,855.6 1541.2,940.2 	"/>
	<polyline class="st47" points="1580.4,897.4 1110.1,699.5 1100.5,723.1 	"/>
	<g>
		<polygon class="st48" points="1362.2,849.5 1342.1,829 1099.9,723.5 1102.4,717.6 1344.9,823.8 1366.8,846.1 1552.1,929.7 
			1547.6,933.3 		"/>
		<path class="st45" d="M1102.9,718.9l241.4,105.7l21.9,22.3l183.9,83l-2.7,2.2l-184.7-83.5l-20-20.4l-241.5-105.2L1102.9,718.9
			 M1101.9,716.3l-0.8,1.9l-1.7,4l-0.8,1.8l1.8,0.8l241.1,105.1l19.8,20.2l0.3,0.3l0.3,0.2l184.7,83.5l1.1,0.5l1-0.8l2.7-2.2l2.6-2
			l-3-1.3l-183.6-82.9l-21.7-22l-0.3-0.3l-0.4-0.2l-241.4-105.7L1101.9,716.3L1101.9,716.3z"/>
	</g>
	<circle class="st49" cx="1385.5" cy="837.9" r="6.6"/>
	<polygon class="st43" points="1373.5,864.2 1373.5,930 1394.7,930 1395,873.8 	"/>
	<polygon class="st10" points="1386.1,872.9 1386.8,929 1376.8,929 1376.8,867.4 1385.9,871.3 	"/>
	<path class="st43" d="M1369,929.4c0,0,10.4,0.4,31.1,0.1l-0.3,36.5h-31L1369,929.4z"/>
	<path class="st9" d="M971.2,795.8c0,0,2.1,5.5-1.4,6.9s-11.7,8.7-4.1,14.6S979,818.9,982,807c0,0-3.7,0.5-6.4,6.2
		c0,0-6.4,6.9-7.3-3.2c0,0,0-2.5,3.9-4.1c3.9-1.6,3.4-5.5,1.4-11.9L971.2,795.8z"/>
	<path class="st50" d="M964.6,764.2c0,0-1.9,14-5.8,20.2c0,0-2.3,4.7,0,6.2c2.3,1.6,10.5,5.8,10.5,5.8s1.9,3.9,7.4,0l8.2-6.2
		c0,0,2.7,0.4,1.2-5.4c-1.6-5.8-6.6-20.6-6.6-20.6H964.6z"/>
	<path class="st45" d="M977,766.6l6.2,17.4c0,0,1.7,2.5-0.2,4.7c-1.9,2.2-7.4,6.1-7.4,6.1s-2,1.7-4.6-0.2c-2.5-1.9-6.2-3.5-6.2-3.5
		l4.6,5.4c0,0,2.7,3.9,7.4,0c4.7-3.9,8.2-6.2,8.2-6.2s2.6,0.3,1.2-5.4c-1.4-5.7-6.6-20.6-6.6-20.6L977,766.6z"/>
	<g>
		<path class="st48" d="M958.9,790.5c-0.1,0-0.6-0.2-0.9-0.9c-0.3-0.8-0.4-2.2,1-5c2.9-5.7,4.8-12.4,5.8-20.1h14l-1.9,1.9l-10.7-0.2
			l0,0.2c0,0.2-1.4,16.8-6.3,20.1c-0.1,0.1-0.5,0.5-0.4,1.2c0.2,0.7,0.9,1.3,2.3,1.8c2.4,0.9,5.4,4.5,6.7,6.3L958.9,790.5z"/>
		<path class="st50" d="M978.2,764.7l-1.4,1.4l-10.4-0.2l-0.5,0l0,0.5c0,0.2-1.4,16.7-6.2,19.9l0,0l0,0c-0.2,0.2-0.5,0.7-0.4,1.4
			c0.2,0.8,1,1.5,2.4,2c1.9,0.7,4.3,3.4,5.8,5.2l-8.4-4.7l0,0l0,0c0,0-0.5-0.2-0.7-0.8c-0.3-0.7-0.3-2.1,1-4.7
			c2.8-5.6,4.8-12.4,5.8-20H978.2 M979.4,764.2h-14.8c-1.1,8.3-3.1,14.9-5.8,20.2c-2.7,5.4,0,6.2,0,6.2l10.5,5.8
			c0,0-4.3-6.1-7.5-7.3c-3.2-1.2-1.9-2.5-1.9-2.5c5.1-3.4,6.4-20.3,6.4-20.3l10.6,0.2L979.4,764.2L979.4,764.2z"/>
	</g>
	<line class="st42" x1="971.7" y1="812.2" x2="971.7" y2="821.6"/>
	<polygon class="st51" points="969.4,821.7 974.3,821.7 974.3,858.8 969.7,858.8 	"/>
	<line class="st42" x1="971.9" y1="859.4" x2="972.9" y2="1053.1"/>
	<polygon class="st89" points="1716,892.7 1716,1080 992.2,1080 992.2,1026.7 1110.2,966.5 1514.9,966.5 1587.2,894.3 	"/>
	<path class="st6" d="M1680.9,1047.5l31.2,32.1h-19.5l-32.2-32.2C1660.4,1047.4,1681.2,1047.3,1680.9,1047.5z"/>
	<path class="st6" d="M1646.3,1047.5l31.2,32.1h-19.5l-32.2-32.2C1625.7,1047.4,1646.5,1047.3,1646.3,1047.5z"/>
	<path class="st6" d="M1612.3,1047.5l31.2,32.1H1624l-32.2-32.2C1591.8,1047.4,1612.6,1047.3,1612.3,1047.5z"/>
	<path class="st6" d="M1577,1047.5l31.2,32.1h-19.5l-32.2-32.2C1556.4,1047.4,1577.2,1047.3,1577,1047.5z"/>
	<path class="st6" d="M1542.6,1047.6l31.2,32h-19.5l-32.2-32.1C1522,1047.5,1542.8,1047.4,1542.6,1047.6z"/>
	<path class="st6" d="M1507.5,1047.9l31.2,31.7h-19.5l-32.2-31.8C1486.9,1047.8,1507.7,1047.7,1507.5,1047.9z"/>
	<path class="st6" d="M1472.8,1047.9l31.2,31.7h-19.5l-32.2-31.8C1452.2,1047.8,1473.1,1047.7,1472.8,1047.9z"/>
	<path class="st6" d="M1437.7,1047.9l31.2,31.7h-19.5l-32.2-31.8C1417.1,1047.8,1437.9,1047.7,1437.7,1047.9z"/>
	<path class="st6" d="M1403.3,1048.2l31.2,31.4h-19.5l-32.2-31.5C1382.7,1048.1,1403.5,1047.9,1403.3,1048.2z"/>
	<path class="st6" d="M1368.6,1048.2l31.2,31.4h-19.5l-32.2-31.5C1348.1,1048.1,1368.9,1047.9,1368.6,1048.2z"/>
	<path class="st6" d="M1333.8,1048.2l31.2,31.4h-19.5l-32.2-31.5C1313.2,1048.1,1334,1048,1333.8,1048.2z"/>
	<path class="st6" d="M1298.7,1048.3l31.2,31.3h-19.5l-32.2-31.4C1278.1,1048.2,1298.9,1048.1,1298.7,1048.3z"/>
	<path class="st6" d="M1264.2,1048.4l31.2,31.2h-19.5l-32.2-31.3C1243.7,1048.3,1264.5,1048.2,1264.2,1048.4z"/>
	<path class="st6" d="M1229.8,1048.4l31.2,31.2h-19.5l-32.2-31.3C1209.2,1048.3,1230.1,1048.2,1229.8,1048.4z"/>
	<path class="st6" d="M1194.2,1048.8l31.2,30.8h-19.5l-32.2-30.9C1173.7,1048.6,1194.5,1048.5,1194.2,1048.8z"/>
	<path class="st6" d="M1159.4,1048.8l31.2,30.8H1171l-32.2-30.9C1138.8,1048.6,1159.6,1048.5,1159.4,1048.8z"/>
	<path class="st6" d="M1124,1049l31.2,30.6h-19.5l-32.2-30.7C1103.4,1048.9,1124.3,1048.8,1124,1049z"/>
	<path class="st6" d="M1089.1,1049.1l31.2,30.5h-19.5l-32.2-30.6C1068.6,1049,1089.4,1048.9,1089.1,1049.1z"/>
	<path class="st6" d="M1054,1049.2l31.2,30.4h-19.5l-32.2-30.5C1033.4,1049.1,1054.3,1049,1054,1049.2z"/>
	<polygon class="st1" points="1695.3,915.7 1695.3,1056.2 1688.2,1046.9 1688.2,921.1 	"/>
	<polygon class="st87" points="1596.3,921.9 1688.2,921.1 1695.3,915.7 1592.2,915.7 1523.7,988.5 1111,988.5 1012.8,1037.6 
		1012.8,1057 1020.4,1049.1 1020.4,1043.3 1117,995.9 1527,995.9 	"/>
	<polyline class="st52" points="1688.2,1046.9 1020.4,1049.1 1012.8,1057 1695.3,1056.2 	"/>
	<path class="st91" d="M1601.7,938.3h74.3v98.1h-74.3C1601.7,1036.4,1602,938.6,1601.7,938.3z"/>
	<polygon class="st6" points="1628.9,1019.6 1628.9,1028.7 1650.9,1028.7 1650.9,1018.6 1628.7,1018.6 	"/>
	<g>
		<path class="st9" d="M958.9,1048.6c0,0,1,10.5,2.9,11.1c2,0.7,19-9.2,19.6-13.1C981.5,1046.6,968.1,1049.6,958.9,1048.6z"/>
		<path class="st53" d="M306.3,1214l130.7-29.3c0,0,4-59-65.3-64.1C302.3,1115.4,294.8,1180.7,306.3,1214z"/>
		<polygon class="st53" points="871.3,1091.2 880.1,1089 889,1038.7 819.7,1014 751.2,1041.3 749.4,1103.3 760.4,1118.5 		"/>
		<circle class="st14" cx="817.4" cy="1092.7" r="53.9"/>
		<g>
			<g>
				<circle class="st54" cx="818" cy="1095.2" r="34.9"/>
				<path class="st55" d="M818,1061.8c18.4,0,33.4,15,33.4,33.4s-15,33.4-33.4,33.4s-33.4-15-33.4-33.4S799.6,1061.8,818,1061.8
					 M818,1058.8c-20.1,0-36.4,16.3-36.4,36.4c0,20.1,16.3,36.4,36.4,36.4s36.4-16.3,36.4-36.4
					C854.5,1075.1,838.1,1058.8,818,1058.8L818,1058.8z"/>
			</g>
			<g>
				<path class="st56" d="M818.1,1114.6c-10.5,0-19-8.5-19-19s8.5-19,19-19s19,8.5,19,19S828.5,1114.6,818.1,1114.6z"/>
				<path class="st57" d="M818.1,1077.6c9.9,0,18,8.1,18,18s-8.1,18-18,18c-9.9,0-18-8.1-18-18S808.1,1077.6,818.1,1077.6
					 M818.1,1075.6c-11.1,0-20,9-20,20c0,11.1,9,20,20,20c11.1,0,20-9,20-20C838.1,1084.5,829.1,1075.6,818.1,1075.6L818.1,1075.6z"
					/>
			</g>
			<circle class="st58" cx="818.4" cy="1095.6" r="6.7"/>
			<g>
				<path class="st59" d="M806.2,1074.5c-1.2,0-2.1-0.9-2.1-2.1s0.9-2.1,2.1-2.1c1.2,0,2.1,0.9,2.1,2.1S807.4,1074.5,806.2,1074.5z"
					/>
				<path class="st60" d="M806.2,1070.6c1,0,1.9,0.8,1.9,1.9s-0.8,1.9-1.9,1.9s-1.9-0.8-1.9-1.9S805.2,1070.6,806.2,1070.6
					 M806.2,1070.1c-1.3,0-2.4,1.1-2.4,2.4s1.1,2.4,2.4,2.4s2.4-1.1,2.4-2.4S807.5,1070.1,806.2,1070.1L806.2,1070.1z"/>
			</g>
			<g>
				<path class="st59" d="M820.1,1071.5c-1.2,0-2.1-0.9-2.1-2.1s0.9-2.1,2.1-2.1c1.2,0,2.1,0.9,2.1,2.1S821.3,1071.5,820.1,1071.5z"
					/>
				<g>
					<path class="st60" d="M820.1,1067.5c1,0,1.9,0.8,1.9,1.9c0,1-0.8,1.9-1.9,1.9s-1.9-0.8-1.9-1.9
						C818.3,1068.3,819.1,1067.5,820.1,1067.5 M820.1,1067c-1.3,0-2.4,1.1-2.4,2.4s1.1,2.4,2.4,2.4s2.4-1.1,2.4-2.4
						S821.4,1067,820.1,1067L820.1,1067z"/>
				</g>
			</g>
			<g>
				<path class="st61" d="M818,1084.9c-0.7,0-1.3-0.6-1.3-1.3s0.6-1.3,1.3-1.3c0.7,0,1.3,0.6,1.3,1.3S818.7,1084.9,818,1084.9z"/>
				<g>
					<path class="st62" d="M818,1082.5c0.6,0,1.1,0.5,1.1,1.1s-0.5,1.1-1.1,1.1s-1.1-0.5-1.1-1.1S817.4,1082.5,818,1082.5 M818,1082
						c-0.9,0-1.6,0.7-1.6,1.6s0.7,1.6,1.6,1.6s1.6-0.7,1.6-1.6S818.8,1082,818,1082L818,1082z"/>
				</g>
			</g>
			<g>
				<path class="st61" d="M829.6,1096.5c-0.7,0-1.3-0.6-1.3-1.3c0-0.7,0.6-1.3,1.3-1.3s1.3,0.6,1.3,1.3
					C830.9,1095.9,830.3,1096.5,829.6,1096.5z"/>
				<g>
					<path class="st62" d="M829.6,1094.1c0.6,0,1.1,0.5,1.1,1.1s-0.5,1.1-1.1,1.1c-0.6,0-1.1-0.5-1.1-1.1S829,1094.1,829.6,1094.1
						 M829.6,1093.6c-0.9,0-1.6,0.7-1.6,1.6s0.7,1.6,1.6,1.6c0.9,0,1.6-0.7,1.6-1.6S830.4,1093.6,829.6,1093.6L829.6,1093.6z"/>
				</g>
			</g>
			<g>
				<path class="st61" d="M818.2,1107.7c-0.7,0-1.3-0.6-1.3-1.3c0-0.7,0.6-1.3,1.3-1.3s1.3,0.6,1.3,1.3
					C819.5,1107.1,818.9,1107.7,818.2,1107.7z"/>
				<g>
					<path class="st62" d="M818.2,1105.3c0.6,0,1.1,0.5,1.1,1.1s-0.5,1.1-1.1,1.1s-1.1-0.5-1.1-1.1S817.6,1105.3,818.2,1105.3
						 M818.2,1104.8c-0.9,0-1.6,0.7-1.6,1.6s0.7,1.6,1.6,1.6s1.6-0.7,1.6-1.6S819,1104.8,818.2,1104.8L818.2,1104.8z"/>
				</g>
			</g>
			<g>
				<path class="st61" d="M806.4,1097.2c-0.7,0-1.3-0.6-1.3-1.3c0-0.7,0.6-1.3,1.3-1.3s1.3,0.6,1.3,1.3
					C807.7,1096.6,807.1,1097.2,806.4,1097.2z"/>
				<g>
					<path class="st62" d="M806.4,1094.8c0.6,0,1.1,0.5,1.1,1.1s-0.5,1.1-1.1,1.1s-1.1-0.5-1.1-1.1S805.8,1094.8,806.4,1094.8
						 M806.4,1094.3c-0.9,0-1.6,0.7-1.6,1.6s0.7,1.6,1.6,1.6s1.6-0.7,1.6-1.6S807.3,1094.3,806.4,1094.3L806.4,1094.3z"/>
				</g>
			</g>
			<g>
				<path class="st59" d="M834.4,1076.9c-1.2,0-2.1-0.9-2.1-2.1c0-1.2,0.9-2.1,2.1-2.1s2.1,0.9,2.1,2.1
					C836.6,1076,835.6,1076.9,834.4,1076.9z"/>
				<g>
					<path class="st60" d="M834.4,1073c1,0,1.9,0.8,1.9,1.9c0,1-0.8,1.9-1.9,1.9s-1.9-0.8-1.9-1.9
						C832.6,1073.8,833.4,1073,834.4,1073 M834.4,1072.5c-1.3,0-2.4,1.1-2.4,2.4c0,1.3,1.1,2.4,2.4,2.4c1.3,0,2.4-1.1,2.4-2.4
						C836.8,1073.5,835.7,1072.5,834.4,1072.5L834.4,1072.5z"/>
				</g>
			</g>
			<g>
				<path class="st59" d="M842,1086.6c-1.2,0-2.1-0.9-2.1-2.1c0-1.2,0.9-2.1,2.1-2.1s2.1,0.9,2.1,2.1
					C844.1,1085.6,843.2,1086.6,842,1086.6z"/>
				<g>
					<path class="st60" d="M842,1082.6c1,0,1.9,0.8,1.9,1.9c0,1-0.8,1.9-1.9,1.9s-1.9-0.8-1.9-1.9
						C840.2,1083.5,841,1082.6,842,1082.6 M842,1082.1c-1.3,0-2.4,1.1-2.4,2.4s1.1,2.4,2.4,2.4c1.3,0,2.4-1.1,2.4-2.4
						S843.3,1082.1,842,1082.1L842,1082.1z"/>
				</g>
			</g>
			<g>
				<circle class="st59" cx="844" cy="1097.2" r="2.1"/>
				<g>
					<path class="st60" d="M844,1095.3c1,0,1.9,0.8,1.9,1.9c0,1-0.8,1.9-1.9,1.9s-1.9-0.8-1.9-1.9
						C842.2,1096.2,843,1095.3,844,1095.3 M844,1094.8c-1.3,0-2.4,1.1-2.4,2.4s1.1,2.4,2.4,2.4s2.4-1.1,2.4-2.4
						S845.3,1094.8,844,1094.8L844,1094.8z"/>
				</g>
			</g>
			<g>
				<path class="st59" d="M840.3,1111.1c-1.2,0-2.1-0.9-2.1-2.1c0-1.2,0.9-2.1,2.1-2.1s2.1,0.9,2.1,2.1
					C842.4,1110.2,841.5,1111.1,840.3,1111.1z"/>
				<g>
					<path class="st60" d="M840.3,1107.2c1,0,1.9,0.8,1.9,1.9c0,1-0.8,1.9-1.9,1.9s-1.9-0.8-1.9-1.9
						C838.5,1108,839.3,1107.2,840.3,1107.2 M840.3,1106.7c-1.3,0-2.4,1.1-2.4,2.4c0,1.3,1.1,2.4,2.4,2.4c1.3,0,2.4-1.1,2.4-2.4
						C842.7,1107.7,841.6,1106.7,840.3,1106.7L840.3,1106.7z"/>
				</g>
			</g>
			<g>
				<path class="st59" d="M830.8,1120.2c-1.2,0-2.1-0.9-2.1-2.1c0-1.2,0.9-2.1,2.1-2.1s2.1,0.9,2.1,2.1
					C832.9,1119.3,831.9,1120.2,830.8,1120.2z"/>
				<g>
					<path class="st60" d="M830.8,1116.2c1,0,1.9,0.8,1.9,1.9c0,1-0.8,1.9-1.9,1.9s-1.9-0.8-1.9-1.9
						C828.9,1117.1,829.7,1116.2,830.8,1116.2 M830.8,1115.7c-1.3,0-2.4,1.1-2.4,2.4c0,1.3,1.1,2.4,2.4,2.4s2.4-1.1,2.4-2.4
						C833.1,1116.8,832.1,1115.7,830.8,1115.7L830.8,1115.7z"/>
				</g>
			</g>
			<g>
				<circle class="st59" cx="818.2" cy="1122.1" r="2.1"/>
				<g>
					<path class="st60" d="M818.2,1120.2c1,0,1.9,0.8,1.9,1.9c0,1-0.8,1.9-1.9,1.9s-1.9-0.8-1.9-1.9
						C816.4,1121.1,817.2,1120.2,818.2,1120.2 M818.2,1119.7c-1.3,0-2.4,1.1-2.4,2.4s1.1,2.4,2.4,2.4s2.4-1.1,2.4-2.4
						S819.5,1119.7,818.2,1119.7L818.2,1119.7z"/>
				</g>
			</g>
			<g>
				<path class="st59" d="M806.8,1121.6c-1.2,0-2.1-0.9-2.1-2.1c0-1.2,0.9-2.1,2.1-2.1s2.1,0.9,2.1,2.1
					C808.9,1120.7,807.9,1121.6,806.8,1121.6z"/>
				<g>
					<path class="st60" d="M806.8,1117.7c1,0,1.9,0.8,1.9,1.9c0,1-0.8,1.9-1.9,1.9s-1.9-0.8-1.9-1.9
						C804.9,1118.5,805.7,1117.7,806.8,1117.7 M806.8,1117.2c-1.3,0-2.4,1.1-2.4,2.4c0,1.3,1.1,2.4,2.4,2.4s2.4-1.1,2.4-2.4
						C809.1,1118.2,808.1,1117.2,806.8,1117.2L806.8,1117.2z"/>
				</g>
			</g>
			<g>
				<circle class="st59" cx="797.3" cy="1111.7" r="2.1"/>
				<g>
					<path class="st60" d="M797.3,1109.8c1,0,1.9,0.8,1.9,1.9c0,1-0.8,1.9-1.9,1.9s-1.9-0.8-1.9-1.9
						C795.5,1110.6,796.3,1109.8,797.3,1109.8 M797.3,1109.3c-1.3,0-2.4,1.1-2.4,2.4c0,1.3,1.1,2.4,2.4,2.4c1.3,0,2.4-1.1,2.4-2.4
						C799.7,1110.4,798.6,1109.3,797.3,1109.3L797.3,1109.3z"/>
				</g>
			</g>
			<g>
				<circle class="st59" cx="792" cy="1100.9" r="2.1"/>
				<g>
					<path class="st60" d="M792,1099c1,0,1.9,0.8,1.9,1.9c0,1-0.8,1.9-1.9,1.9s-1.9-0.8-1.9-1.9C790.1,1099.9,791,1099,792,1099
						 M792,1098.5c-1.3,0-2.4,1.1-2.4,2.4c0,1.3,1.1,2.4,2.4,2.4c1.3,0,2.4-1.1,2.4-2.4C794.3,1099.6,793.3,1098.5,792,1098.5
						L792,1098.5z"/>
				</g>
			</g>
			<g>
				<circle class="st59" cx="791.7" cy="1090.1" r="2.1"/>
				<g>
					<path class="st60" d="M791.7,1088.2c1,0,1.9,0.8,1.9,1.9c0,1-0.8,1.9-1.9,1.9s-1.9-0.8-1.9-1.9
						C789.9,1089.1,790.7,1088.2,791.7,1088.2 M791.7,1087.7c-1.3,0-2.4,1.1-2.4,2.4c0,1.3,1.1,2.4,2.4,2.4s2.4-1.1,2.4-2.4
						C794.1,1088.8,793,1087.7,791.7,1087.7L791.7,1087.7z"/>
				</g>
			</g>
			<g>
				<path class="st59" d="M796.1,1081.8c-1.2,0-2.1-0.9-2.1-2.1c0-1.2,0.9-2.1,2.1-2.1s2.1,0.9,2.1,2.1
					C798.2,1080.9,797.3,1081.8,796.1,1081.8z"/>
				<g>
					<path class="st60" d="M796.1,1077.9c1,0,1.9,0.8,1.9,1.9s-0.8,1.9-1.9,1.9s-1.9-0.8-1.9-1.9S795.1,1077.9,796.1,1077.9
						 M796.1,1077.4c-1.3,0-2.4,1.1-2.4,2.4s1.1,2.4,2.4,2.4c1.3,0,2.4-1.1,2.4-2.4S797.4,1077.4,796.1,1077.4L796.1,1077.4z"/>
				</g>
			</g>
		</g>
		<path class="st63" d="M864.5,1118.7c0,0,16.9-53.5-33.3-72.8c0,0-28.8-6.3-46.2,10.3s-18.8,39.2-16.4,58.7c0,0-5.1-6-5.1-22.2
			s10-52,53.9-53.9c0,0,50.3-1.3,53.9,53.9C871.3,1092.7,871.9,1106.9,864.5,1118.7z"/>
		<path class="st11" d="M756.9,974.5c0,0,159.9-15.1,169.7,12.5c0,0,8,4.3,11.5,15.5c0,0,18.2,1.4,19.3,20.7c0,0,4.1,29.4,6.9,37.3
			s0,7.9-6,10.4c-6,2.5-51.5,13.6-78.2,18.3c0,0,1.1-48.8-51.2-61.9c0,0-28.1-5.2-49.1,10.4c-21,15.5-27.8,33.2-25.9,56.1
			c1.9,22.9,6.5,24.8,6.5,24.8s-6.3,4.6-17.2-11.4l-2.2,0.3c0,0-3.3-71.7-30.3-106c0,0,23.4-7.9,28.9-20.2
			C739.7,981.1,750.7,975.5,756.9,974.5z"/>
		<path class="st64" d="M739.7,981.1l136.4-3c0,0,29.2-0.3,37.6,8.1l13,0.7c0,0-4.4-13.2-38.8-15.2c-34.5-2-58.6-2.1-130.9,2.8
			C756.9,974.5,746.4,977,739.7,981.1z"/>
		<path class="st64" d="M958.9,1033.8c0,0-41.1,6-48.6,9.8c0,0,31.7-32.3,27.3-42.8l2.2,2.4c0,0,14.3,1.8,16.8,14.5
			C959.2,1030.3,958.9,1033.8,958.9,1033.8z"/>
		<path class="st65" d="M880.1,1089c0,0,3.2-8.5,15.7-11.1c12.5-2.6,65.8-13.9,68.4-19.3c0,0,5.4,10-5.9,12.2
			C946.9,1073,880.1,1089,880.1,1089z"/>
		<path class="st65" d="M958.9,1033.8l0.6,2.4c0,0-47.7,8.4-54.9,16.1c0,0-3.4,2.3-4.9,6.5c0,0-0.1-8.3,10.6-15.2
			C910.3,1043.6,920.5,1039.6,958.9,1033.8z"/>
		<path class="st64" d="M964.2,1058.6c0,0-1.1,1.7-4.7,2.7c-3.6,1.1-64.9,11.2-59.8-2.5c0,0,1.7-4.4,6.5-7.6c0,0-7.4,8.4,1.9,9.7
			S951.3,1061.8,964.2,1058.6z"/>
		<path class="st66" d="M959.5,1036.2c0,0,2.8,15.9,4.7,22.4c0,0-30.3,5.3-56,2.3c0,0-9.3-2.3-1.9-9.7
			C913.6,1043.8,959.5,1036.2,959.5,1036.2z"/>
		<path class="st28" d="M926.7,986.9c0,0-6.2-0.3-15.5-0.5c-12.1-0.2-29.4-0.2-45.7,1.1c0,0-11.4,2.8-5.8,6.3
			c5.6,3.6,23.1,15.4,23.1,15.4l15.4,4.1c0,0,43.1-3.5,39.6-12.6C934.2,991.7,926.7,986.9,926.7,986.9z"/>
		<path class="st67" d="M911,989.4c0,0,13.3,10.2,5.9,21.4c0,0,24-1.8,20.7-10c-4.3-10.8-10.9-13.8-10.9-13.8l-29.4-0.7
			C897.3,986.4,907.3,986.4,911,989.4z"/>
		<path class="st11" d="M739.7,981.1c0,0-84-29.3-131.7-32.9l12.8-9.3c0,0-62.6-6.4-145.6,15.3c-82.9,21.7-134.5,49.8-134.5,49.8
			l14.7,1.8l-85.2,63l-19.3,1.9l-61.1,28.7c0,0-2.5,14.2,1.4,16.4l1.8-4.6c0,0,27.8-3.2,40.6,10s20.6,22.4,20.6,22.4
			s6.1,6.8,14.9,6.8s51.6,1.8,51.6,1.8s25.8-34.5,75.1-20.3l12.1-7.1l-40.2-39.9c0,0-2.5-12.5-0.4-16c2.1-3.6,2.1-8.9,2.1-8.9
			s-35.6-4.6-26-15.7c9.6-11,52-42.7,52-42.7s87.2-29.5,105.7-33.1c18.5-3.6,105.4-12.5,142-3.2c36.7,9.3,68.7,17.1,83.3,23.1
			c0,0,2.6,3.7-0.2,5.5C726.3,993.9,737.6,990.3,739.7,981.1z"/>
		<path class="st68" d="M358.5,1005.9c48.3-23.4,55.3-23.2,121.2-42.9S608,948.2,608,948.2"/>
		<path class="st69" d="M270.2,1068.9c0,0-23.9,17.6-57.6,28.7l-18.7,6.7l-0.9,6.9"/>
		<g>
			<path class="st70" d="M193.9,1104.3l172.6-28.8c0,0-0.4-3.4,0.9-6.6s2-6.6,2.1-8.9l-118.1,20.7
				C251.4,1080.7,231.6,1092.3,193.9,1104.3z"/>
		</g>
		<g>
			<path class="st71" d="M423.8,980.3c0,0-27.4,14.7-28.3,21.3l-52,42.7l13.2,13.4l-85.5,11.9
				C271.3,1069.6,340.3,1002.8,423.8,980.3z"/>
		</g>
		<path class="st64" d="M549.4,959.2c0,0,45.6-4.6,67-10.2c0,0,54.7,7.7,107.3,27c0,0,1.1,7-6,9.8l-74.4-20.5c0,0-27.6-7.5-72.4-3.3
			l-26.3,1.1L549.4,959.2z"/>
		<path class="st11" d="M710.8,1001.3c0,0-310.8,56.1-341.3,58.7c0,0-0.1,5.3-2.1,8.9c0,0-1.3,3.6-0.9,6.6l1.3,9.4l40.2,39.9
			l-12.1,7.1c0,0,38.9,14.8,38.3,57.6c0,0,1.6,1.3,12.9-1.3c11.3-2.6,313.4-69.7,313.4-69.7s-6.4,3-17.2-11.4l-2.2,0.3
			C741.1,1107.3,739.6,1037.8,710.8,1001.3z"/>
		<g>
			<path class="st70" d="M372.6,1074.8l347-59.8c0,0-3.7-7.7-8.8-13.8L369.5,1060c0,0,0.4,5-2.1,8.9c0,0-1.5,3.6-0.9,6.6
				L372.6,1074.8z"/>
		</g>
		<path class="st65" d="M407.9,1124.7l31,29.8c0,0,8.7,17.4,39.8,10.7c31.1-6.6,262.3-58,262.3-58l2.2-0.3c0,0,7.8,12.9,17.2,11.4
			L447,1188.1c0,0-9.6,2.7-12.9,1.3c0,0,2.5-39.1-38.3-57.6L407.9,1124.7z"/>
		<path class="st72" d="M551.9,1052.7c0,0-5,5,1.4,4.8s29.1-6.2,29.1-6.2s5.1-3.5-2.4-4.4L551.9,1052.7z"/>
		<path class="st72" d="M408.5,1080.6c0,0-5,5,1.4,4.8c6.4-0.2,29.1-6.2,29.1-6.2s5.1-3.5-2.4-4.4L408.5,1080.6z"/>
		<path class="st73" d="M576.3,1054.8c0,0-3.1,7.4-14.8,2.8"/>
		<path class="st74" d="M573.8,1046.6c0,0-7.7-5.4-14.3,2.8"/>
		<path class="st73" d="M432.6,1082.9c0,0-3.1,7.4-14.8,2.8"/>
		<path class="st74" d="M430,1074.8c0,0-7.7-5.4-14.3,2.8"/>
		<g>
			<path class="st71" d="M736.4,1065.9c0,0-1.9,26.3-21.3,30.1c-19.4,3.8-241.3,51.4-241.3,51.4s-29.3,8-52.1-9.5l17.3,16.7
				c0,0,7.5,17.2,39.8,10.7s262.3-58,262.3-58S740.7,1091.9,736.4,1065.9z"/>
		</g>
		<circle class="st14" cx="372.8" cy="1195.1" r="53.9"/>
		<g>
			<g>
				<circle class="st54" cx="373.4" cy="1197.6" r="34.9"/>
				<path class="st55" d="M373.4,1164.2c18.4,0,33.4,15,33.4,33.4s-15,33.4-33.4,33.4c-18.4,0-33.4-15-33.4-33.4
					S355,1164.2,373.4,1164.2 M373.4,1161.2c-20.1,0-36.4,16.3-36.4,36.4c0,20.1,16.3,36.4,36.4,36.4c20.1,0,36.4-16.3,36.4-36.4
					C409.8,1177.5,393.5,1161.2,373.4,1161.2L373.4,1161.2z"/>
			</g>
			<g>
				<path class="st56" d="M373.4,1217c-10.5,0-19-8.5-19-19s8.5-19,19-19s19,8.5,19,19S383.9,1217,373.4,1217z"/>
				<path class="st57" d="M373.4,1179.9c9.9,0,18,8.1,18,18s-8.1,18-18,18c-9.9,0-18-8.1-18-18S363.5,1179.9,373.4,1179.9
					 M373.4,1177.9c-11.1,0-20,9-20,20c0,11.1,9,20,20,20c11.1,0,20-9,20-20C393.5,1186.9,384.5,1177.9,373.4,1177.9L373.4,1177.9z"
					/>
			</g>
			<circle class="st58" cx="373.7" cy="1197.9" r="6.7"/>
			<g>
				<path class="st59" d="M361.6,1176.9c-1.2,0-2.1-0.9-2.1-2.1s0.9-2.1,2.1-2.1c1.2,0,2.1,0.9,2.1,2.1S362.7,1176.9,361.6,1176.9z"
					/>
				<path class="st60" d="M361.6,1172.9c1,0,1.9,0.8,1.9,1.9s-0.8,1.9-1.9,1.9s-1.9-0.8-1.9-1.9S360.6,1172.9,361.6,1172.9
					 M361.6,1172.4c-1.3,0-2.4,1.1-2.4,2.4s1.1,2.4,2.4,2.4c1.3,0,2.4-1.1,2.4-2.4S362.9,1172.4,361.6,1172.4L361.6,1172.4z"/>
			</g>
			<g>
				<path class="st59" d="M375.5,1173.8c-1.2,0-2.1-0.9-2.1-2.1c0-1.2,0.9-2.1,2.1-2.1s2.1,0.9,2.1,2.1
					C377.6,1172.9,376.7,1173.8,375.5,1173.8z"/>
				<g>
					<path class="st60" d="M375.5,1169.9c1,0,1.9,0.8,1.9,1.9c0,1-0.8,1.9-1.9,1.9s-1.9-0.8-1.9-1.9
						C373.6,1170.7,374.5,1169.9,375.5,1169.9 M375.5,1169.4c-1.3,0-2.4,1.1-2.4,2.4s1.1,2.4,2.4,2.4s2.4-1.1,2.4-2.4
						S376.8,1169.4,375.5,1169.4L375.5,1169.4z"/>
				</g>
			</g>
			<g>
				<path class="st61" d="M373.3,1187.3c-0.7,0-1.3-0.6-1.3-1.3c0-0.7,0.6-1.3,1.3-1.3s1.3,0.6,1.3,1.3
					C374.7,1186.7,374.1,1187.3,373.3,1187.3z"/>
				<g>
					<path class="st62" d="M373.3,1184.9c0.6,0,1.1,0.5,1.1,1.1s-0.5,1.1-1.1,1.1s-1.1-0.5-1.1-1.1S372.8,1184.9,373.3,1184.9
						 M373.3,1184.4c-0.9,0-1.6,0.7-1.6,1.6s0.7,1.6,1.6,1.6s1.6-0.7,1.6-1.6S374.2,1184.4,373.3,1184.4L373.3,1184.4z"/>
				</g>
			</g>
			<g>
				<path class="st61" d="M385,1198.9c-0.7,0-1.3-0.6-1.3-1.3s0.6-1.3,1.3-1.3s1.3,0.6,1.3,1.3S385.7,1198.9,385,1198.9z"/>
				<g>
					<path class="st62" d="M385,1196.5c0.6,0,1.1,0.5,1.1,1.1s-0.5,1.1-1.1,1.1c-0.6,0-1.1-0.5-1.1-1.1S384.4,1196.5,385,1196.5
						 M385,1196c-0.9,0-1.6,0.7-1.6,1.6s0.7,1.6,1.6,1.6s1.6-0.7,1.6-1.6S385.8,1196,385,1196L385,1196z"/>
				</g>
			</g>
			<g>
				<path class="st61" d="M373.5,1210.1c-0.7,0-1.3-0.6-1.3-1.3s0.6-1.3,1.3-1.3s1.3,0.6,1.3,1.3S374.3,1210.1,373.5,1210.1z"/>
				<g>
					<path class="st62" d="M373.5,1207.7c0.6,0,1.1,0.5,1.1,1.1s-0.5,1.1-1.1,1.1c-0.6,0-1.1-0.5-1.1-1.1S373,1207.7,373.5,1207.7
						 M373.5,1207.2c-0.9,0-1.6,0.7-1.6,1.6s0.7,1.6,1.6,1.6s1.6-0.7,1.6-1.6S374.4,1207.2,373.5,1207.2L373.5,1207.2z"/>
				</g>
			</g>
			<g>
				<circle class="st61" cx="361.8" cy="1198.3" r="1.3"/>
				<g>
					<path class="st62" d="M361.8,1197.2c0.6,0,1.1,0.5,1.1,1.1s-0.5,1.1-1.1,1.1s-1.1-0.5-1.1-1.1S361.2,1197.2,361.8,1197.2
						 M361.8,1196.7c-0.9,0-1.6,0.7-1.6,1.6s0.7,1.6,1.6,1.6s1.6-0.7,1.6-1.6S362.6,1196.7,361.8,1196.7L361.8,1196.7z"/>
				</g>
			</g>
			<g>
				<circle class="st59" cx="389.8" cy="1177.2" r="2.1"/>
				<g>
					<path class="st60" d="M389.8,1175.3c1,0,1.9,0.8,1.9,1.9c0,1-0.8,1.9-1.9,1.9s-1.9-0.8-1.9-1.9
						C388,1176.2,388.8,1175.3,389.8,1175.3 M389.8,1174.8c-1.3,0-2.4,1.1-2.4,2.4s1.1,2.4,2.4,2.4c1.3,0,2.4-1.1,2.4-2.4
						S391.1,1174.8,389.8,1174.8L389.8,1174.8z"/>
				</g>
			</g>
			<g>
				<circle class="st59" cx="397.4" cy="1186.9" r="2.1"/>
				<g>
					<path class="st60" d="M397.4,1185c1,0,1.9,0.8,1.9,1.9c0,1-0.8,1.9-1.9,1.9s-1.9-0.8-1.9-1.9
						C395.5,1185.8,396.4,1185,397.4,1185 M397.4,1184.5c-1.3,0-2.4,1.1-2.4,2.4s1.1,2.4,2.4,2.4c1.3,0,2.4-1.1,2.4-2.4
						S398.7,1184.5,397.4,1184.5L397.4,1184.5z"/>
				</g>
			</g>
			<g>
				<path class="st59" d="M399.4,1201.7c-1.2,0-2.1-0.9-2.1-2.1s0.9-2.1,2.1-2.1c1.2,0,2.1,0.9,2.1,2.1S400.6,1201.7,399.4,1201.7z"
					/>
				<g>
					<path class="st60" d="M399.4,1197.7c1,0,1.9,0.8,1.9,1.9s-0.8,1.9-1.9,1.9s-1.9-0.8-1.9-1.9S398.4,1197.7,399.4,1197.7
						 M399.4,1197.2c-1.3,0-2.4,1.1-2.4,2.4s1.1,2.4,2.4,2.4c1.3,0,2.4-1.1,2.4-2.4S400.7,1197.2,399.4,1197.2L399.4,1197.2z"/>
				</g>
			</g>
			<g>
				<circle class="st59" cx="395.7" cy="1211.4" r="2.1"/>
				<g>
					<path class="st60" d="M395.7,1209.5c1,0,1.9,0.8,1.9,1.9c0,1-0.8,1.9-1.9,1.9s-1.9-0.8-1.9-1.9
						C393.8,1210.4,394.7,1209.5,395.7,1209.5 M395.7,1209c-1.3,0-2.4,1.1-2.4,2.4c0,1.3,1.1,2.4,2.4,2.4c1.3,0,2.4-1.1,2.4-2.4
						C398.1,1210.1,397,1209,395.7,1209L395.7,1209z"/>
				</g>
			</g>
			<g>
				<path class="st59" d="M386.1,1222.6c-1.2,0-2.1-0.9-2.1-2.1s0.9-2.1,2.1-2.1c1.2,0,2.1,0.9,2.1,2.1S387.3,1222.6,386.1,1222.6z"
					/>
				<g>
					<path class="st60" d="M386.1,1218.6c1,0,1.9,0.8,1.9,1.9c0,1-0.8,1.9-1.9,1.9s-1.9-0.8-1.9-1.9
						C384.3,1219.5,385.1,1218.6,386.1,1218.6 M386.1,1218.1c-1.3,0-2.4,1.1-2.4,2.4c0,1.3,1.1,2.4,2.4,2.4s2.4-1.1,2.4-2.4
						C388.5,1219.2,387.4,1218.1,386.1,1218.1L386.1,1218.1z"/>
				</g>
			</g>
			<g>
				<path class="st59" d="M373.6,1226.6c-1.2,0-2.1-0.9-2.1-2.1s0.9-2.1,2.1-2.1c1.2,0,2.1,0.9,2.1,2.1S374.8,1226.6,373.6,1226.6z"
					/>
				<g>
					<path class="st60" d="M373.6,1222.6c1,0,1.9,0.8,1.9,1.9c0,1-0.8,1.9-1.9,1.9s-1.9-0.8-1.9-1.9
						C371.8,1223.4,372.6,1222.6,373.6,1222.6 M373.6,1222.1c-1.3,0-2.4,1.1-2.4,2.4c0,1.3,1.1,2.4,2.4,2.4s2.4-1.1,2.4-2.4
						C376,1223.2,374.9,1222.1,373.6,1222.1L373.6,1222.1z"/>
				</g>
			</g>
			<g>
				<circle class="st59" cx="362.1" cy="1221.9" r="2.1"/>
				<g>
					<path class="st60" d="M362.1,1220.1c1,0,1.9,0.8,1.9,1.9c0,1-0.8,1.9-1.9,1.9s-1.9-0.8-1.9-1.9
						C360.3,1220.9,361.1,1220.1,362.1,1220.1 M362.1,1219.6c-1.3,0-2.4,1.1-2.4,2.4c0,1.3,1.1,2.4,2.4,2.4c1.3,0,2.4-1.1,2.4-2.4
						C364.5,1220.6,363.5,1219.6,362.1,1219.6L362.1,1219.6z"/>
				</g>
			</g>
			<g>
				<circle class="st59" cx="352.7" cy="1214.1" r="2.1"/>
				<g>
					<path class="st60" d="M352.7,1212.2c1,0,1.9,0.8,1.9,1.9c0,1-0.8,1.9-1.9,1.9s-1.9-0.8-1.9-1.9
						C350.8,1213,351.7,1212.2,352.7,1212.2 M352.7,1211.7c-1.3,0-2.4,1.1-2.4,2.4c0,1.3,1.1,2.4,2.4,2.4c1.3,0,2.4-1.1,2.4-2.4
						C355.1,1212.7,354,1211.7,352.7,1211.7L352.7,1211.7z"/>
				</g>
			</g>
			<g>
				<path class="st59" d="M347.4,1205.4c-1.2,0-2.1-0.9-2.1-2.1s0.9-2.1,2.1-2.1c1.2,0,2.1,0.9,2.1,2.1S348.5,1205.4,347.4,1205.4z"
					/>
				<g>
					<path class="st60" d="M347.4,1201.4c1,0,1.9,0.8,1.9,1.9c0,1-0.8,1.9-1.9,1.9s-1.9-0.8-1.9-1.9
						C345.5,1202.3,346.3,1201.4,347.4,1201.4 M347.4,1200.9c-1.3,0-2.4,1.1-2.4,2.4c0,1.3,1.1,2.4,2.4,2.4s2.4-1.1,2.4-2.4
						C349.7,1202,348.7,1200.9,347.4,1200.9L347.4,1200.9z"/>
				</g>
			</g>
			<g>
				<path class="st59" d="M347.1,1194.6c-1.2,0-2.1-0.9-2.1-2.1s0.9-2.1,2.1-2.1c1.2,0,2.1,0.9,2.1,2.1S348.3,1194.6,347.1,1194.6z"
					/>
				<g>
					<path class="st60" d="M347.1,1190.6c1,0,1.9,0.8,1.9,1.9c0,1-0.8,1.9-1.9,1.9s-1.9-0.8-1.9-1.9
						C345.2,1191.4,346.1,1190.6,347.1,1190.6 M347.1,1190.1c-1.3,0-2.4,1.1-2.4,2.4c0,1.3,1.1,2.4,2.4,2.4c1.3,0,2.4-1.1,2.4-2.4
						C349.5,1191.2,348.4,1190.1,347.1,1190.1L347.1,1190.1z"/>
				</g>
			</g>
			<g>
				<circle class="st59" cx="351.5" cy="1182.1" r="2.1"/>
				<g>
					<path class="st60" d="M351.5,1180.2c1,0,1.9,0.8,1.9,1.9c0,1-0.8,1.9-1.9,1.9s-1.9-0.8-1.9-1.9
						C349.6,1181.1,350.5,1180.2,351.5,1180.2 M351.5,1179.7c-1.3,0-2.4,1.1-2.4,2.4s1.1,2.4,2.4,2.4c1.3,0,2.4-1.1,2.4-2.4
						S352.8,1179.7,351.5,1179.7L351.5,1179.7z"/>
				</g>
			</g>
		</g>
		<path class="st63" d="M419.9,1221.1c0,0,16.9-53.5-33.3-72.8c0,0-28.8-6.3-46.2,10.3c-17.4,16.6-18.8,39.2-16.4,58.7
			c0,0-5.1-6-5.1-22.2c-0.1-16.1,10-52,53.9-53.9c0,0,50.3-1.3,53.9,53.9C426.7,1195.1,427.3,1209.3,419.9,1221.1z"/>
		<path class="st68" d="M533,1032.4c0,0,24.6,48.5,33.2,113.4"/>
		<g>
			<path class="st70" d="M226,1224c-31,0-35.1-41.6-35.4-45.2l9.2-7.3l-1.6-17.5l-0.1-1.9c3.4-0.1,23.6-1.1,37.1-2.9
				c5.3-0.7,9-2.6,11.1-5.7c1.7-2.4,1.9-5,1.9-6.5l4,4c5.4,7.8,16.5,9.6,17,9.6l50.5,2.1c-20.6,25.3-9.2,56.5-7.4,61.2
				c-5.8,0.9-50.7,7.7-83.8,10.1C227.7,1224,226.8,1224,226,1224C226,1224,226,1224,226,1224z"/>
			<g>
				<path class="st65" d="M248.7,1138.1l3.1,3.1c5.6,8,16.8,9.8,17.3,9.8l0.1,0l0.1,0l49.5,2c-11,14.1-12.4,29.7-11.5,40.5
					c0.8,9.6,3.4,17.1,4.5,19.9c-7.9,1.2-51,7.7-83.1,10c-0.9,0.1-1.8,0.1-2.6,0.1c-13.3,0-23.2-7.5-29.4-22.3
					c-4.1-9.9-5.2-19.8-5.4-22.2l8.8-7l0.4-0.3l0-0.5l-1.6-17.2l-0.1-1.4c4.6-0.2,23.7-1.1,36.6-2.9c5.4-0.7,9.3-2.7,11.5-5.9
					C248.1,1141.8,248.6,1139.7,248.7,1138.1 M247.6,1135.6c0,0,2.4,11-12.4,13.1s-37.5,2.9-37.5,2.9l0.1,2.4l1.6,17.2l-9.2,7.3
					c0,0,2.7,46,35.9,46c0.9,0,1.8,0,2.7-0.1c35.7-2.5,84.4-10.2,84.4-10.2s-15.6-34.6,7.7-62.1l-51.5-2.1c0,0-11.3-1.7-16.7-9.5
					L247.6,1135.6L247.6,1135.6z"/>
			</g>
		</g>
		<path class="st11" d="M247.3,1170.6c0,0,28.5-2.8,29.4-19.1l43.2,1.7c0,0-17,17.7-11.1,44.9l-100.4,21.3c0,0-15.3-10.1-18.3-40.9
			l9.2-7.3C199.3,1171.2,218,1177.4,247.3,1170.6z"/>
		<path class="st65" d="M313.1,1214.2l-4.2-16.1l-100.4,21.3c0,0,8.3,6,20.2,5C240.5,1223.4,313.1,1214.2,313.1,1214.2z"/>
		<path class="st10" d="M608,949.2c0,0,29.2,1.9,66.4,11.9c37.2,10,59.9,18.4,59.9,18.4s3.5,2.3,9.7,0.5c6.1-1.8,15-4.6,15-4.6
			s-75.8-31.6-137.1-36c0,0-2.7-0.7-5.3,1.1C613.9,942.4,608,949.2,608,949.2z"/>
		<path d="M717.1,984c0,0,20.8,7.1,10.6,12.3l-16,5.6c0,0-7.2,1.2-15,2.1c-7.7,0.9-317.2,56.2-317.2,56.2s-17.4,2.8-29.5-2.4
			s-13.1-7.4-5.8-14.7c7.4-7.4,34.9-30.5,34.9-30.5s20.7-16.8,47-25.2c26.3-8.4,57-18.9,118.2-27.3S670.9,965.2,717.1,984z"/>
		<path class="st75" d="M514.6,968.5l27.2,59.2l131.6-22.8l-5.2-29.3c0,0,0.5-3-7-4.5S587,951,514.6,968.5z"/>
		<path class="st75" d="M499.3,972.1c0,0,11.1,37.2,21.9,58.5l-125.9,23l-7.8-21.6c0,0-2.2-20.3,16.8-30.7
			C427.4,988.7,499.3,972.1,499.3,972.1z"/>
		<path class="st76" d="M506.5,969.5c0,0,14.2,38.9,25.5,59.5"/>
		<path class="st77" d="M663.3,983.1v15c0,0,2.5,6,13.4,4.6c10.9-1.4,22.9-6.9,22.9-6.9s5.8-5.1-0.9-8.8c-6.7-3.7-12.2-7.4-25.9-7.6
			C664.5,979.2,663.3,983.1,663.3,983.1z"/>
		<path class="st78" d="M514.6,968.5l27.2,59.2c0,0,45-53.2,126.8-47.9l-0.4-4.3c0,0,0.5-2.6-7-4.5
			C653.8,969.2,580.9,951.4,514.6,968.5z"/>
		<path class="st9" d="M608,949.2c0,0,82.4,2.4,151,26.3c0,0-72.1-30.9-137.1-36c0,0-3.3-1-6.6,2.4C611.9,945.2,608,949.2,608,949.2
			z"/>
		<path class="st79" d="M340,1004.3l18.6,0.9c0,0-48.6,36.4-85.6,64.1l-22.4,1.7C250.5,1071,296.3,1031.7,340,1004.3z"/>
		<path class="st28" d="M188.2,1111.6l26.7-0.3c0,0,7.1-1.5,16.6,7.7c9.5,9.2,15,15.3,15,15.3s5.2,9.2-4.3,13.2s-45.4,6.1-45.4,6.1
			S191.3,1151.7,188.2,1111.6z"/>
		<path class="st67" d="M194.7,1127.6c0,0,36.6-1.6,40.4-5.4c0,0-8.7-11.5-20.2-11.6c-11.5,0-26.8,0.3-26.8,0.3l2,16.3
			C190,1127.3,191.8,1127.6,194.7,1127.6z"/>
		<path class="st67" d="M244.8,1132.4c0,0-6.9,14.2-52.5,10.2c0,0,1.9,9.8,4.5,11c0,0,33.2-1.2,44.5-5.2
			C241.3,1148.4,255,1142.7,244.8,1132.4z"/>
		<path class="st80" d="M250.5,1071c0,0,56.6-46.4,84.6-48.4l26-17.3l-21.1-1.1C340,1004.3,301.2,1027.2,250.5,1071z"/>
		<path class="st78" d="M502.8,983.4c0,0-91.4,21.6-90.6,67.3l-16.9,2.9l-7.8-21.6c0,0-6.1-17.8,16.4-30.8
			c24.8-14.3,95.4-29.1,95.4-29.1L502.8,983.4z"/>
		<g>
			<path class="st71" d="M719.6,1015c0,0,79.9-17.6,140-21.2l23.1,15.4l15.4,4.1l-27.4,5.8c0,0-6.6-11-30.1-10.1s-52.8,8-90.6,27.7
				c0,0-7.5,3-6.9,27.4c0.6,24.4,0.2,42.8,0.2,42.8l-2.2,0.3C741.1,1107.3,738.7,1053.2,719.6,1015z"/>
		</g>
		<path class="st81" d="M745.3,1016.7l-9.1,2.2c0,0-1.1,0.6-0.6,4.1c0.6,3.6,1,4.2,5,3.1s7.9-2.1,7.9-2.1s3,0.4,0.9-5.8
			C749.4,1018.2,749.8,1014.5,745.3,1016.7z"/>
		<path class="st82" d="M273,1069.2c0,0-21.8,15.4-79.1,35l0.5,6.4"/>
		<path class="st82" d="M369.5,1060c0,0,0.7,5.3-2.1,8.9c0,0-1.6,3.3-0.9,6.6c0.7,3.3,0.9,7.7,1.3,9.4l40.2,39.9"/>
		<path class="st68" d="M711.6,1001.9c0,0,6.8,9.4,7.9,13.1s11.7,19.4,16.8,50.9c5.1,31.5,6.9,41.1,6.9,41.1"/>
		<path class="st82" d="M938.1,1002.4c0,0-1.1,6.5-20.5,8.3s-64.1,12.5-81.5,17.7"/>
	</g>
</g>
</svg>
