<?xml version="1.0" encoding="utf-8"?>
<!-- Generator: Adobe Illustrator 27.2.0, SVG Export Plug-In . SVG Version: 6.00 Build 0)  -->
<svg version="1.1" xmlns="http://www.w3.org/2000/svg" xmlns:xlink="http://www.w3.org/1999/xlink" x="0px" y="0px"
	 viewBox="0 0 2250.5 1926.5" style="enable-background:new 0 0 2250.5 1926.5;" xml:space="preserve">
<style type="text/css">
	.st0{fill:#E8E6E6;stroke:#ADADAD;stroke-miterlimit:10;}
	.st1{fill:#F3F2F7;}
	.st2{fill:#030303;}
	.st3{fill:#353131;}
	.st4{fill:none;stroke:#ADADAD;stroke-width:2;stroke-miterlimit:10;}
	.st5{fill:none;stroke:#F3F2F7;stroke-width:2;stroke-miterlimit:10;}
	.st6{fill:#0A1205;}
	.st7{fill:#F3F2F7;stroke:#ADADAD;stroke-width:0.75;stroke-miterlimit:10;}
	.st8{fill:#ADADAD;}
	.st9{fill:#282828;}
	.st10{fill:#3A3A3A;}
	.st11{fill:#0A54A2;}
	.st12{fill:none;stroke:#E8E6E6;stroke-width:0.9742;stroke-miterlimit:10;}
	.st13{fill:#2E2E2E;}
	.st14{fill:#333333;}
	.st15{fill:#939393;stroke:#ADADAD;stroke-miterlimit:10;}
	.st16{fill:#D1D1D1;}
	.st17{fill:#191919;}
	.st18{fill:#666666;stroke:#ADADAD;stroke-miterlimit:10;}
	.st19{fill:#363636;}
	.st20{fill:none;stroke:#ADADAD;stroke-miterlimit:10;}
	.st21{fill:#121212;}
	.st22{fill:#0E0A12;}
	.st23{fill:#6E6E6E;}
	.st24{fill:#4E4E4E;}
	.st25{fill:#1E1E1E;}
	.st26{fill:#646464;}
	.st27{fill:#999999;}
	.st28{fill:#9E9E9E;}
	.st29{fill:#6D6D6D;}
	.st30{fill:#B5B5B5;}
	.st31{fill:#3E3E3E;}
	.st32{fill:#0D0F0C;}
	.st33{fill:none;stroke:#0E0A12;stroke-width:0.8371;stroke-miterlimit:10;}
	.st34{fill:#7D7D7D;}
	.st35{fill:#424242;}
	.st36{fill:#8A8A8A;}
	.st37{fill:#BCBCBC;stroke:#ADADAD;stroke-miterlimit:10;}
	.st38{fill:#8A8A8A;stroke:#6B6B6B;stroke-width:0.9619;stroke-miterlimit:10;}
	.st39{fill:none;stroke:#6B6B6B;stroke-width:0.7215;stroke-miterlimit:10;}
	.st40{fill:none;stroke:#A9A9AA;stroke-width:0.75;stroke-miterlimit:10;}
	.st41{fill:#484D4E;}
	.st42{fill:none;stroke:#111111;stroke-width:3;stroke-miterlimit:10;}
	.st43{fill:#282828;stroke:#0A0A0A;stroke-miterlimit:10;}
	.st44{fill:#F0221F;stroke:#BB1719;stroke-miterlimit:10;}
	.st45{fill:#BB1719;}
	.st46{fill:#FC7C88;stroke:#BB1719;stroke-miterlimit:10;}
	.st47{fill:none;stroke:#BB1719;stroke-width:3;stroke-miterlimit:10;}
	.st48{fill:#FC7C88;}
	.st49{fill:#FC7C88;stroke:#BB1719;stroke-width:3;stroke-miterlimit:10;}
	.st50{fill:#F0221F;}
	.st51{fill:#E8E6E6;stroke:#ADADAD;stroke-width:2;stroke-miterlimit:10;}
	.st52{opacity:0.59;fill:#F3F2F7;}
	.st53{fill:#080806;}
	.st54{fill:#9B9B9B;}
	.st55{fill:#2B2B2B;}
	.st56{fill:#C1BFBF;}
	.st57{fill:#D6D6D6;}
	.st58{fill:#4C4B4B;stroke:#A5A5A5;stroke-miterlimit:10;}
	.st59{fill:#444343;}
	.st60{fill:#727272;}
	.st61{fill:#A0A0A0;}
	.st62{fill:#999898;}
	.st63{fill:#444242;}
	.st64{fill:#157FCE;}
	.st65{fill:#134468;}
	.st66{fill:#092947;}
	.st67{fill:#D5D3D7;}
	.st68{fill:none;stroke:#134468;stroke-miterlimit:10;}
	.st69{fill:none;stroke:#0F63AD;stroke-miterlimit:10;}
	.st70{fill:#1672B7;}
	.st71{fill:#2066A0;}
	.st72{fill:#1B8ACE;}
	.st73{fill:none;stroke:#157FCE;stroke-miterlimit:10;}
	.st74{fill:none;stroke:#0A54A2;stroke-miterlimit:10;}
	.st75{fill:#3F3F3F;}
	.st76{fill:none;stroke:#282828;stroke-width:2;stroke-miterlimit:10;}
	.st77{fill:#7F7F7F;}
	.st78{fill:#2D2D2D;}
	.st79{fill:#4C4C4C;}
	.st80{fill:#383838;}
	.st81{fill:#9E9E9E;stroke:#0A55A3;stroke-miterlimit:10;}
	.st82{fill:none;stroke:#134468;stroke-width:0.75;stroke-miterlimit:10;}
	.st83{display:none;fill:#24242A;}
	.st84{display:none;fill:none;stroke:#848484;stroke-miterlimit:10;}
	.st85{display:none;fill:#30292D;}
	.st86{fill:#E8E6E6;}
	.st87{fill:#8C8C8C;}
	.st88{fill:#FCFCFC;stroke:#8C8C8C;stroke-miterlimit:10;}
	.st89{fill:#E8E6E6;stroke:#8C8C8C;stroke-miterlimit:10;}
	.st90{fill:#E8E6E6;stroke:#8C8C8C;stroke-width:2;stroke-miterlimit:10;}
	.st91{fill:none;stroke:#8C8C8C;stroke-width:2;stroke-miterlimit:10;}
	.st92{fill:none;stroke:#FCFCFC;stroke-width:3;stroke-miterlimit:10;}
	.st93{fill:#FCFCFC;}
	.st94{fill:#ADADAD;stroke:#8C8C8C;stroke-miterlimit:10;}
	.st95{fill:#FAFAFC;stroke:#ADADAD;stroke-width:0.75;stroke-miterlimit:10;}
	.st96{fill:none;stroke:#111111;stroke-width:3.6024;stroke-miterlimit:10;}
	.st97{fill:none;stroke:#111111;stroke-width:3.6093;stroke-miterlimit:10;}
	.st98{fill:none;stroke:#111111;stroke-width:3.5727;stroke-miterlimit:10;}
	.st99{fill:none;stroke:#111111;stroke-width:3.5263;stroke-miterlimit:10;}
	.st100{fill:none;stroke:#111111;stroke-width:3.4845;stroke-miterlimit:10;}
	.st101{fill:none;stroke:#111111;stroke-width:3.4337;stroke-miterlimit:10;}
	.st102{fill:none;stroke:#111111;stroke-width:3.3788;stroke-miterlimit:10;}
	.st103{fill:none;stroke:#111111;stroke-width:3.3233;stroke-miterlimit:10;}
	.st104{fill:none;stroke:#111111;stroke-width:3.2747;stroke-miterlimit:10;}
	.st105{fill:none;stroke:#111111;stroke-width:3.207;stroke-miterlimit:10;}
	.st106{fill:none;stroke:#111111;stroke-width:3.1652;stroke-miterlimit:10;}
	.st107{fill:none;stroke:#111111;stroke-width:3.099;stroke-miterlimit:10;}
	.st108{fill:none;stroke:#111111;stroke-width:3.0584;stroke-miterlimit:10;}
	.st109{fill:none;stroke:#111111;stroke-width:3.0299;stroke-miterlimit:10;}
</style>
<g id="original">
</g>
<g id="one">
</g>
<g id="two_00000026882943921159275490000004360688784792002186_">
</g>
<g id="three_00000113338737259881679640000015971704404683786636_">
</g>
<g id="four_00000049184186550712051260000002601905804867817144_">
</g>
<g id="five_00000179643197332058435300000007386453149388464260_">
</g>
<g id="six">
</g>
<g id="seven_00000062194613864970919320000012156796603096136882_">
</g>
<g id="eight">
</g>
<g id="nine">
	<g>
		<path class="st86" d="M1971.8,828.7c-0.9-1.5-5.8-8.5-17.3-9.1c-12.1-0.7-193.8-3.9-204.5-4.1c0-2.4,0.1-13.1,5.3-18.6
			c2.1-2.2,4.8-3.3,8-3.3c14.8,0,186.9,6.1,188.6,6.1c0.3,0,31.7,2.1,37.6,28.6L1971.8,828.7z"/>
		<path class="st87" d="M1763.3,794c14.8,0,186.9,6.1,188.6,6.1c0.1,0,8.1,0.5,16.7,4.3c11,4.9,17.8,12.7,20.3,23.3l-16.8,0.4
			c-1.3-2-6.3-8.5-17.5-9.1c-11.9-0.6-189.3-3.8-204.1-4.1c0-3,0.4-12.7,5.2-17.8C1757.7,795.1,1760.2,794,1763.3,794 M1763.3,793
			c-15,0-13.9,23-13.9,23s192.5,3.4,205,4.1c12.5,0.7,17,9.1,17,9.1l18.6-0.5c-5.7-27.7-38.2-29.5-38.2-29.5S1778.3,793,1763.3,793
			L1763.3,793z"/>
	</g>
	<path class="st88" d="M1954.3,806.6l-141.9-6.1l21.4,8l117.6,4.2c0,0,16.5-0.2,25.8,15.2h5.2C1982.4,828,1977.2,807.8,1954.3,806.6
		z"/>
	<path class="st89" d="M1749.5,816l-0.5,12l201,1.9c0,0,11,0,13.4,13.4c2.4,13.4,21.5,113,21.5,113l0.8,128.3l32.7-0.8
		c0,0,9.4,1.1,9.4-8.3c0-9.4,0-44.6,0-44.6s0.5-5.9-5.4-8.1v-45.6h-16c0,0-10.2,0.8-11.3-15.9c-1.2-16.8-22-124.3-22-124.3
		s-1.5-2.4-1.7-7.8c0,0-5.8-8.8-17-9.1C1943.2,819.7,1749.5,816,1749.5,816z"/>
	<path class="st2" d="M1990.1,828.7l25.2,136.1l-22.6-21.3L1973.2,837c0,0-1.8-3.5-1.7-7.8L1990.1,828.7z"/>
	<path class="st2" d="M2018.1,951.3c0,0,5.4,9.2,3.2,17.8h-3l0.8,7.9l-12.5,0.2c0,0-10.3,0.4-11.3-15.9l-2.4-17.8l22.6,21.3
		c0,0,5.4-5.7-0.4-13.3c0,0-2.1-1.9-4.6,0.3c-2.5,2.2-3.9-1.7,0-3.6S2018.1,951.3,2018.1,951.3z"/>
	<polygon class="st3" points="1977.4,829.2 2005.3,913.3 1990.1,828.7 	"/>
	<path class="st90" d="M1749,828c0,0-5.4,110.4-4.1,200.8l240.1-0.9l-0.1-71.6l-21.5-113c0,0-1.7-13.4-13.4-13.4
		C1938.3,829.9,1749,828,1749,828z"/>
	<path class="st91" d="M1766.6,898.5l-0.3-47.2c0,0-0.6-8.8,12.4-9.1c13-0.3,24.8,0,24.8,0s9.1-2.1,9.1,11.8s-0.3,45.7-0.3,45.7"/>
	<path class="st92" d="M1765.7,909.4l-0.3,31.6c0,0-1.5,7.4,7.4,7.4c8.8,0,33.9,0,33.9,0s5,2.7,5-6.2s0-26,0-26"/>
	<path class="st91" d="M1764.8,979l0.3,33.6c0,0-0.9,5.3,5.3,5.3c6.2,0,39.5-0.3,39.5-0.3s4.7,1.8,4.4-6.2c-0.3-8-0.6-33-0.6-33
		s0.6-6.2-6.2-6.2c-6.8,0-38.3,0.6-38.3,0.6S1764.8,972.3,1764.8,979z"/>
	<line class="st91" x1="1826.7" y1="828.6" x2="1826.7" y2="1028"/>
	<polygon class="st6" points="1833.2,976.7 1833.5,995 1853.5,994.7 1853.5,976.7 	"/>
	<path class="st93" d="M1834.1,1001.4c0,0-1.2,10,14.2,9.7c15.3-0.3,115.3,0,115.3,0l-48.4-5.9h-66.9c0,0,0.3-3.8-4.1-4.1
		C1839.7,1000.9,1834.1,1001.4,1834.1,1001.4z"/>
	<path class="st87" d="M1837,842.2l4.7,67.2l-0.3-62.8c0,0-2.1-6.8,13.6-6.5c15.6,0.3,89.9,0.6,89.9,0.6s7.1-1.8,9.4,17.1
		c2.4,18.9,4.7,36.9,4.7,36.9l-2.1-45.7c0,0,0.7-11.8-13.6-11.6c-14.3,0.2-97.4-0.8-97.4-0.8S1838,836.3,1837,842.2z"/>
	<path class="st93" d="M1962,912.4l7.6,32.9c0,0,2.6,12.9-9.2,13.4c-11.8,0.5-111.3-5.3-111.3-5.3s-9.5-2.6-10-11.3
		s-0.3-27.4-0.3-27.4l2.6,25.5c0,0,0.3,8.4,7.9,9.5s109.2,6.1,109.2,6.1s11.1,2.9,7.4-19.2S1962,912.4,1962,912.4z"/>
	<path class="st9" d="M1841.7,914.8l-0.3,25.5c0,0,0.1,8.6,7.9,9.5c7.8,0.8,109.2,6.1,109.2,6.1s10.8,2.4,7.4-19.2
		s-12.8-85.5-12.8-85.5s-1.2-10-8.1-10.4c-6.9-0.3-95.2-1-95.2-1s-8.7-1.3-8.7,5.9C1841,852.9,1841.7,914.8,1841.7,914.8z"/>
	<polygon class="st2" points="1933,831 1933,837.9 1950.2,838.4 1949.9,831 	"/>
	<path class="st10" d="M1841.3,864.2c0,0,96.3,16.1,107.9,91.5l9.3,0.1c0,0,10.8,1.4,7.4-19.2c-3.5-20.6-12.8-85.5-12.8-85.5
		s-1.4-10.2-8.1-10.4s-95.2-1-95.2-1s-8.6-0.9-8.7,5.9C1841,852.5,1841.3,864.2,1841.3,864.2z"/>
	<polygon class="st2" points="1939.7,837.2 1939.8,848.3 1943.3,848.2 1943.5,837.4 	"/>
	<path class="st2" d="M1935.5,848.4l0.7,93.5h7.2c0,0,6.1-6.3,6.1-15.6l-0.2-66c0,0-1.4-10.9-5.9-12.1L1935.5,848.4z"/>
	<polygon class="st2" points="1939.3,970.7 1939.3,941.5 1943.5,941.8 1943.5,970.1 	"/>
	<polygon class="st2" points="1946.9,969.8 1950.6,969.9 1950.6,976.3 1931.8,976.3 1931.8,969.9 	"/>
	<path class="st11" d="M1818.6,772.1l17.4,0.2v18.3c0,0-4.6,1.4-19.2,0v-18.5L1818.6,772.1z"/>
	<path class="st87" d="M1838.9,789.9l0.1,6l-24.3-0.5v-5.9C1814.8,789.5,1823.8,792.4,1838.9,789.9z"/>
	<path class="st0" d="M1744.9,1028.8l0.4,26.2H1851c0,0,49,1.9,59.1,28.8l75.7,0.9l-0.7-56.7L1744.9,1028.8z"/>
	<path class="st89" d="M1744.9,1028.8l0.4,26.2H1851c0,0,49,1.9,59.1,28.8l75.7,0.9l-0.7-56.7L1744.9,1028.8z"/>
	<polygon class="st6" points="1982.4,1048.4 1960.6,1027.8 1979,1027.9 1985,1033.9 1985,1051.3 	"/>
	<path class="st6" d="M1945.1,1028.4l27.3,26.4h-18l-26.2-26.2C1928.1,1028.6,1945.1,1028.4,1945.1,1028.4z"/>
	<path class="st6" d="M1911.8,1028.6l26.6,26.6h-17.6l-26.5-26.5C1894.3,1028.8,1911.7,1028.7,1911.8,1028.6z"/>
	<path class="st6" d="M1879.6,1028.6l26.6,26.6h-17.6l-26.5-26.5C1862.1,1028.8,1879.5,1028.7,1879.6,1028.6z"/>
	<path class="st6" d="M1845.8,1028.6l26.6,26.6h-17.6l-26.5-26.5C1828.3,1028.8,1845.8,1028.7,1845.8,1028.6z"/>
	<path class="st6" d="M1812.4,1028.6l26.6,25.8h-17.6l-26.5-25.7C1794.9,1028.8,1812.4,1028.7,1812.4,1028.6z"/>
	<path class="st6" d="M1778.7,1029.1l26.6,25.3h-17.6l-26.5-25.1C1761.2,1029.3,1778.6,1029.2,1778.7,1029.1z"/>
	<path class="st6" d="M1744.9,1028.8l25.9,25.9h-16.4l-8.7-8.7l-0.7-0.7C1745.1,1045.3,1744.9,1028.6,1744.9,1028.8z"/>
	<path class="st94" d="M2022.5,1022.9h-26.9l8,8l24.3,0C2027.9,1030.9,2028.9,1025.3,2022.5,1022.9z"/>
	<path class="st94" d="M1985,1027.9c0,0,5.7,1.4,6,6.4v41.2l36.9-0.1c0,0,1.1,8.3-9.4,8.3c-10.5,0-32.7,0.8-32.7,0.8L1985,1027.9z"
		/>
	<polygon class="st13" points="1934.9,1180.6 1985.4,1180.5 1985.4,1084.6 1910.1,1083.7 	"/>
	<polygon class="st0" points="1930,1112.7 1985.6,1112.7 1985.6,1117.8 1930.1,1117.8 	"/>
	<path class="st0" d="M1985.3,1144.9h-51.9v3.9h52.2C1985.6,1148.8,1985.3,1144.2,1985.3,1144.9z"/>
	<path class="st0" d="M1933.9,1175.6h51.2v4.4h-51.7C1933.4,1180,1934.3,1175.2,1933.9,1175.6z"/>
	<path class="st2" d="M1916.2,1142.9l-15.1,13.3c0,0-33.2-69.2-81.4-59.5c-48.3,9.7-70.3,61.6-70.3,61.6l-16.6-15.5l21.3-64.5
		l78.6-5.4l64.1,7.6l18,45.8L1916.2,1142.9z"/>
	<circle class="st14" cx="1825.2" cy="1172.2" r="78.7"/>
	<circle class="st15" cx="1825.5" cy="1170.1" r="48.8"/>
	<circle class="st12" cx="1825.5" cy="1170.1" r="48.8"/>
	<circle class="st16" cx="1825.2" cy="1169.5" r="42.8"/>
	<circle class="st17" cx="1825.8" cy="1170.6" r="18.4"/>
	<circle class="st18" cx="1813.7" cy="1149.5" r="2.5"/>
	<circle class="st18" cx="1825.7" cy="1146.5" r="2.5"/>
	<circle class="st18" cx="1838" cy="1150.2" r="2.5"/>
	<circle class="st18" cx="1846.4" cy="1158.4" r="2.5"/>
	<circle class="st18" cx="1849.1" cy="1170.8" r="2.5"/>
	<circle class="st18" cx="1846.6" cy="1182.7" r="2.5"/>
	<circle class="st18" cx="1838" cy="1191.4" r="2.5"/>
	<circle class="st18" cx="1826" cy="1194.5" r="2.5"/>
	<circle class="st18" cx="1812.9" cy="1190.9" r="2.5"/>
	<circle class="st18" cx="1804.8" cy="1182.4" r="2.5"/>
	<circle class="st18" cx="1801.7" cy="1170.4" r="2.5"/>
	<circle class="st18" cx="1804.5" cy="1158" r="2.5"/>
	<path class="st19" d="M1800.8,1134.6c0,0,4,14.9-10.7,11.3C1790.1,1145.9,1792.3,1139.7,1800.8,1134.6z"/>
	<path class="st19" d="M1817.3,1127.6c0,0,6.4,12,17.4,0.5C1834.7,1128.1,1826.9,1125.1,1817.3,1127.6z"/>
	<path class="st19" d="M1849.3,1134.6c0,0-3.1,14.6,11.7,11.7C1860.9,1146.2,1856.4,1137.9,1849.3,1134.6z"/>
	<path class="st19" d="M1867,1161.8c0,0-9.2,9.9-0.5,17.9C1866.5,1179.6,1869.6,1172.2,1867,1161.8z"/>
	<path class="st19" d="M1849.9,1204.5c0,0-0.9-11.3,10.3-10.7C1860.1,1193.8,1856.9,1199.7,1849.9,1204.5z"/>
	<path class="st19" d="M1833.4,1211.2c0,0-7.1-9.9-16.6,0.2C1816.8,1211.3,1823.9,1213.8,1833.4,1211.2z"/>
	<path class="st19" d="M1790.1,1193.8c0,0,12.1-1.7,11,10.7C1801.1,1204.5,1795.5,1201.5,1790.1,1193.8z"/>
	<path class="st19" d="M1783.2,1161.3c0,0,10.4,8.4,0.5,18.3C1783.7,1179.6,1781.2,1172.8,1783.2,1161.3z"/>
	<path d="M1899.4,1145.5c0,0,23.1,81.5-72,102.5c0,0-87.4-4.1-76.9-102c0,0-20.5,55.5,31,92c0,0,20.3,14.8,47,13
		c26.7-1.8,52.7-13.7,68.6-46.2C1906.4,1179.4,1905.4,1169.3,1899.4,1145.5z"/>
	<path class="st20" d="M1744.9,1028.8l0.4,26.2H1851c0,0,49,1.9,59.1,28.8l75.7,0.9l-0.7-56.7L1744.9,1028.8z"/>
	<circle class="st20" cx="1825.2" cy="1169.5" r="42.8"/>
	<path class="st0" d="M2012.1,1084l0.4,13.4c0,0,15.7,4.2,15.9,14.8v65c0,0,1.1,6.7-6.7,6.7c-7.8,0-36.3,0-36.3,0l0.3-99.2
		L2012.1,1084z"/>
	<path class="st95" d="M2018.1,1114.2v24c0,0-0.4,4.7,4.3,4.7c4.7,0,6.1,0,6.1,0l-0.2-30.7C2028.3,1112.2,2021.5,1110,2018.1,1114.2
		z"/>
	<path class="st95" d="M2028.4,1154.9c0,0-11.2-1.8-10.8,6.5c0.3,8.2,9.2,6.7,10.8,6.4V1154.9z"/>
	<path class="st94" d="M2027.1,1107.8c0,0-13.6-6.4-32.8-2.9l-0.7,74c0,0,29.9,4.5,34.7-1.8c0,0,1.8,6.5-6.7,6.7
		c-8.5,0.1-36.3,0-36.3,0l0.3-99.2l26.4-0.6l0.4,13.4C2012.5,1097.4,2025.1,1101.5,2027.1,1107.8z"/>
	<polygon class="st21" points="1013.4,1076.7 1013.4,1130.6 1195.9,1169.4 1237.4,1145.8 1599.7,1145.8 1741.4,1146.5 1754,1078.3 	
		"/>
	<circle class="st22" cx="1620.7" cy="1142.9" r="22.5"/>
	<circle class="st22" cx="1670" cy="1142.9" r="22.5"/>
	<path class="st23" d="M1634.9,1126c0,0-15-5.6-25.6,4.2c-10.6,9.8-10,20.6-10,20.6s-4.6-16.6,7.9-25.8S1633.3,1122.9,1634.9,1126z"
		/>
	<path class="st23" d="M1684,1126c0,0-15-5.6-25.6,4.2c-10.6,9.8-10,20.6-10,20.6s-4.6-16.6,7.9-25.8S1682.5,1122.9,1684,1126z"/>
	<path class="st24" d="M1392.5,1104.1v73.5h200.8v-73.8C1593.3,1103.8,1391.5,1104.1,1392.5,1104.1z"/>
	<path class="st25" d="M1543.6,1096.6v11.2h10.7v-11.2C1554.3,1096.6,1543.3,1096.6,1543.6,1096.6z"/>
	<polygon class="st26" points="1550.1,1101.2 1550.1,1107.8 1554.3,1107.8 1554.3,1096.6 1550,1096.6 	"/>
	<polygon class="st27" points="1398.3,1104.5 1398.3,1177.8 1392.5,1177.8 1392.5,1104.1 1398.3,1104.1 	"/>
	<path class="st28" d="M1418.3,1100.5v77.9h7.3v-77.8C1425.6,1100.6,1418.8,1100.5,1418.3,1100.5z"/>
	<path class="st28" d="M1491.2,1100.4v77.5h7.9v-77.5C1499.1,1100.4,1491.2,1100,1491.2,1100.4z"/>
	<path class="st28" d="M1564,1100.1v78.5h7.8v-78v-0.5C1571.8,1100,1563.8,1100.1,1564,1100.1z"/>
	<path class="st28" d="M1588.9,1103.8v73.6h4.3v-73.6C1593.3,1103.8,1588.9,1104.1,1588.9,1103.8z"/>
	<path class="st29" d="M1398.4,1120.1h19.8v5h-19.8C1398.4,1125.1,1398.2,1119.9,1398.4,1120.1z"/>
	<path class="st29" d="M1572,1120.1h16.7v5H1572C1572,1125.1,1571.8,1119.9,1572,1120.1z"/>
	<path class="st29" d="M1425.9,1120.1h64.9v5h-64.9C1425.9,1125.1,1425.3,1119.9,1425.9,1120.1z"/>
	<path class="st29" d="M1499.5,1120.1h64.5v5h-64.5C1499.5,1125.1,1498.9,1119.9,1499.5,1120.1z"/>
	<path class="st30" d="M1392.5,1120.1h5.9v4.9h-5.8C1392.6,1125.1,1392.5,1120,1392.5,1120.1z"/>
	<path class="st30" d="M1418.3,1120.1h7.3v5.8h-7.3C1418.3,1125.8,1418.3,1120.1,1418.3,1120.1z"/>
	<path class="st30" d="M1491.2,1120.1h7.9v5.8h-7.9C1491.2,1125.8,1491.1,1120.1,1491.2,1120.1z"/>
	<path class="st30" d="M1563.9,1120.1h8v5.8h-8C1563.9,1125.8,1563.8,1120.1,1563.9,1120.1z"/>
	<path class="st30" d="M1588.7,1120.3h4.5v4.9h-4.4C1588.8,1125.2,1588.7,1120.2,1588.7,1120.3z"/>
	<path class="st31" d="M1241.9,1154.1v-37.6c0,0,0.7-6.3,15.2-6.3c14.5,0,121.1,0,121.1,0s7.9-1,7.9,9.6s0,50.8,0,50.8
		s1.3,7.3-14.2,7.3s-121.8,0-121.8,0s-8.3,0.7-8.3-8.6S1241.9,1154.1,1241.9,1154.1z"/>
	<path class="st32" d="M1310.5,1138.9v12.2h8.8v-12.4C1319.3,1138.7,1310.4,1138.8,1310.5,1138.9z"/>
	<line class="st33" x1="1385.7" y1="1145.7" x2="1242.1" y2="1145.7"/>
	<circle class="st14" cx="1118.4" cy="1172.2" r="78.7"/>
	<circle class="st15" cx="1118.8" cy="1170.1" r="48.8"/>
	<circle class="st12" cx="1118.8" cy="1170.1" r="48.8"/>
	<circle class="st16" cx="1118.4" cy="1169.5" r="42.8"/>
	<circle class="st17" cx="1119" cy="1170.6" r="18.4"/>
	<circle class="st18" cx="1106.9" cy="1149.5" r="2.5"/>
	<circle class="st18" cx="1118.9" cy="1146.5" r="2.5"/>
	<circle class="st18" cx="1131.2" cy="1150.2" r="2.5"/>
	<circle class="st18" cx="1139.7" cy="1158.4" r="2.5"/>
	<circle class="st18" cx="1142.3" cy="1170.8" r="2.5"/>
	<circle class="st18" cx="1139.8" cy="1182.7" r="2.5"/>
	<circle class="st18" cx="1131.2" cy="1191.4" r="2.5"/>
	<circle class="st18" cx="1119.2" cy="1194.5" r="2.5"/>
	<circle class="st18" cx="1106.1" cy="1190.9" r="2.5"/>
	<circle class="st18" cx="1098.1" cy="1182.4" r="2.5"/>
	<circle class="st18" cx="1094.9" cy="1170.4" r="2.5"/>
	<circle class="st18" cx="1097.7" cy="1158" r="2.5"/>
	<path class="st19" d="M1094,1134.6c0,0,4,14.9-10.7,11.3C1083.3,1145.9,1085.5,1139.7,1094,1134.6z"/>
	<path class="st19" d="M1110.5,1127.6c0,0,6.4,12,17.4,0.5C1127.9,1128.1,1120.1,1125.1,1110.5,1127.6z"/>
	<path class="st19" d="M1142.5,1134.6c0,0-3.1,14.6,11.7,11.7C1154.1,1146.2,1149.6,1137.9,1142.5,1134.6z"/>
	<path class="st19" d="M1160.2,1161.8c0,0-9.2,9.9-0.5,17.9C1159.7,1179.6,1162.8,1172.2,1160.2,1161.8z"/>
	<path class="st19" d="M1143.1,1204.5c0,0-0.9-11.3,10.3-10.7C1153.4,1193.8,1150.1,1199.7,1143.1,1204.5z"/>
	<path class="st19" d="M1126.6,1211.2c0,0-7.1-9.9-16.6,0.2C1110,1211.3,1117.2,1213.8,1126.6,1211.2z"/>
	<path class="st19" d="M1083.3,1193.8c0,0,12.1-1.7,11,10.7C1094.3,1204.5,1088.7,1201.5,1083.3,1193.8z"/>
	<path class="st19" d="M1076.5,1161.3c0,0,10.4,8.4,0.5,18.3C1076.9,1179.6,1074.4,1172.8,1076.5,1161.3z"/>
	<path d="M1192.6,1145.5c0,0,23.1,81.5-72,102.5c0,0-87.4-4.1-76.9-102c0,0-20.5,55.5,31,92c0,0,20.3,14.8,47,13
		c26.7-1.8,52.7-13.7,68.6-46.2C1199.6,1179.4,1198.6,1169.3,1192.6,1145.5z"/>
	<circle class="st20" cx="1118.4" cy="1169.5" r="42.8"/>
	<path class="st34" d="M1206.7,1176.9c0,0,8.3-55.7-60.6-83.8c0,0-45.8-17.1-84.3,14.3c0,0-28.7,13.2-34.2,70c0,0-3.9,8.3-17.6,8.3
		h-10.8l0.9-54l13.4-1.1l17.1-35.8c0,0,5.9-17.9,30.8-17.9s126.4,0.3,126.4,0.3s17,0.3,23.2,26.4s14.7,29,26.1,29v53.4l-25.2-0.3
		C1211.7,1185.7,1206.4,1184.8,1206.7,1176.9z"/>
	<path class="st35" d="M1108.5,1083.6c0,0-63.8,0.4-76.5,41c-12.7,40.6-16.5,60.9-16.5,60.9s-11.6,0.8-16.4,0.2l0.9-54l13.4-1.1
		l17.1-35.8c0,0,6.3-18,30.8-17.9s126.4,0.3,126.4,0.3s19.4,0.1,23.2,26.4c6,24.5,13.5,25.8,26.9,28.3l-0.8,54.1l-25.2-0.3
		c0,0-5.3-0.8-5-8.8c0,0,16.9-3.9,10.2-39.3c0,0-14.5-9.1-15.5-27.4S1185.9,1083.9,1108.5,1083.6z"/>
	<path class="st36" d="M1736,1180.7c0,0-14.1-88.6,62.3-98.4l-55.9-0.4c0,0-23.4,26.1-24.5,67.9c-1.1,41.7-0.4,35.6-0.4,35.6
		S1733.1,1187.6,1736,1180.7z"/>
	<path class="st37" d="M1724.5,802.4l-0.3,37.4c0,0,8,1.6,14.8,0l-0.3-41.2L1724.5,802.4z"/>
	<ellipse class="st21" cx="1731.6" cy="800.6" rx="8.2" ry="8.5"/>
	<path class="st38" d="M1721,839.8c0,0,11.8,1.6,21.3-0.3v214.7c0,0-13.9,3.5-21.3-0.3V839.8z"/>
	<path class="st0" d="M1700.3,1102.7v24.7c0,0,5.9,8.8,12.9-0.2v-20.6c0,0-0.7-7,7-9.7c7.7-2.7,14.3-9.1,15.2-17.4
		c0.9-8.4,0.7-24,0.7-24s-6.9,1-13.4-0.3l-0.4,20c0,0-0.9,5.7-7.9,9.5S1700.8,1091.2,1700.3,1102.7z"/>
	<path class="st8" d="M1728.9,1056.2l-0.7,19.2c0,0-1.8,9.5-9,13c-7.3,3.5-12.3,8.2-12.3,15s-0.2,28-0.2,28s-4.8,1.5-6.4-3.9
		l0.4-27.9c0,0,0.2-8.4,11.7-13.9c11.5-5.5,9.9-10.6,9.9-10.6l0.4-20C1722.7,1055.1,1726.1,1056.2,1728.9,1056.2z"/>
	<path class="st39" d="M1742.1,844.9c0,0-8.2,2.4-21.1-0.2"/>
	<path class="st39" d="M1742.1,850.5c0,0-8.2,2.4-21.1-0.2"/>
	<path class="st39" d="M1742.1,855.8c0,0-8.2,2.4-21.1-0.2"/>
	<path class="st39" d="M1742.1,861.2c0,0-8.2,2.4-21.1-0.2"/>
	<path class="st39" d="M1742.1,866.8c0,0-8.2,2.4-21.1-0.2"/>
	<path class="st39" d="M1742.1,872.4c0,0-8.2,2.4-21.1-0.2"/>
	<path class="st39" d="M1741.9,878c0,0-8.2,2.4-21.1-0.2"/>
	<path class="st39" d="M1741.9,883.6c0,0-8.2,2.4-21.1-0.2"/>
	<path class="st39" d="M1741.9,889c0,0-8.2,2.4-21.1-0.2"/>
	<path class="st39" d="M1741.9,894.4c0,0-8.2,2.4-21.1-0.2"/>
	<path class="st39" d="M1741.9,900.2c0,0-8.2,2.4-21.1-0.2"/>
	<path class="st39" d="M1741.9,905.6c0,0-8.2,2.4-21.1-0.2"/>
	<path class="st39" d="M1741.9,911.8c0,0-8.2,2.4-21.1-0.2"/>
	<path class="st39" d="M1741.9,917.6c0,0-8.2,2.4-21.1-0.2"/>
	<path class="st39" d="M1741.9,923.2c0,0-8.2,2.4-21.1-0.2"/>
	<path class="st39" d="M1741.9,929.2c0,0-8.2,2.4-21.1-0.2"/>
	<path class="st39" d="M1741.9,935.1c0,0-8.2,2.4-21.1-0.2"/>
	<path class="st39" d="M1742.2,941.2c0,0-8.2,2.4-21.1-0.2"/>
	<path class="st39" d="M1742.2,947.9c0,0-8.2,2.4-21.1-0.2"/>
	<path class="st39" d="M1742,954c0,0-8.2,2.4-21.1-0.2"/>
	<path class="st39" d="M1742,960.5c0,0-8.2,2.4-21.1-0.2"/>
	<path class="st39" d="M1742,966.2c0,0-8.2,2.4-21.1-0.2"/>
	<path class="st39" d="M1742,972.5c0,0-8.2,2.4-21.1-0.2"/>
	<path class="st39" d="M1742,978.1c0,0-8.2,2.4-21.1-0.2"/>
	<path class="st39" d="M1742,985c0,0-8.2,2.4-21.1-0.2"/>
	<path class="st39" d="M1742,991.1c0,0-8.2,2.4-21.1-0.2"/>
	<path class="st39" d="M1742,996.6c0,0-8.2,2.4-21.1-0.2"/>
	<path class="st39" d="M1742,1002.4c0,0-8.2,2.4-21.1-0.2"/>
	<path class="st39" d="M1742,1008.3c0,0-8.2,2.4-21.1-0.2"/>
	<path class="st39" d="M1742,1014.6c0,0-8.2,2.4-21.1-0.2"/>
	<path class="st39" d="M1742,1021.7c0,0-8.2,2.4-21.1-0.2"/>
	<path class="st39" d="M1742,1028.4c0,0-8.2,2.4-21.1-0.2"/>
	<path class="st39" d="M1742,1034.9c0,0-8.2,2.4-21.1-0.2"/>
	<path class="st39" d="M1742,1041.4c0,0-8.2,2.4-21.1-0.2"/>
	<path class="st39" d="M1741.7,1048.3c0,0-8.2,2.4-21.1-0.2"/>
	<line class="st40" x1="1736.5" y1="840.4" x2="1736.5" y2="1055.4"/>
	<line class="st40" x1="1724.2" y1="839.8" x2="1724.2" y2="1055.1"/>
	<line class="st40" x1="1729.6" y1="840.8" x2="1729.6" y2="1056.2"/>
	<path class="st36" d="M1740,1054.3v28.2h113.9c0,0,58.2,1.1,58.2,55.2l-0.4,41c0,0-1.9,5.6,6.8,6c8.6,0.4,16.9,0,16.9,0l-1.7-59.2
		c0,0-7.4-69.5-78.8-70.2S1740,1054.3,1740,1054.3z"/>
	<path class="st41" d="M1770.9,1063.6l72.9-0.3c0,0,62.5-4.9,76.9,38.9c14.4,43.8,14.7,82.5,14.7,82.5l-1.7-59.2
		c0,0-5.2-70.5-82.7-70.5c-77.5,0-111-0.7-111-0.7l-0.2,10.5L1770.9,1063.6z"/>
	<path class="st11" d="M1689.4,768.8l0.3,20.9c0,0,5.5,1.3,18.6,0l-0.5-21.2L1689.4,768.8z"/>
	<path class="st87" d="M1710.8,789.1l0.1,4.4h-23.8l0.1-4.1C1687.2,789.5,1696.3,790.5,1710.8,789.1z"/>
	<polygon class="st89" points="1680.9,792.8 1637.5,892.7 1716,892.7 1716,792.8 	"/>
	<polygon class="st8" points="1644.5,876.4 1694.5,877 1715.8,845.6 1716,892.7 1637.5,892.7 	"/>
	<line class="st42" x1="1640.9" y1="883.2" x2="986.3" y2="631.4"/>
	<path class="st42" d="M952.7,665.5c0,0,7.4,106.1,8.9,117"/>
	<line class="st42" x1="993.1" y1="676.8" x2="983.3" y2="786.4"/>
	<polygon class="st43" points="1012.4,661.2 1100.6,695.4 1090.3,719.9 1007.5,686.7 	"/>
	<path class="st10" d="M1019,668.4c0,0,0.7,13.2,15.9,18.9c15.2,5.6,59.6,22.8,59.6,22.8l5-12.2c0,0-67.8-23.2-72.8-27.1
		c-5-4-6.9-5.1-6.9-5.1S1018.5,667.4,1019,668.4z"/>
	<circle class="st10" cx="973.1" cy="651.3" r="27.4"/>
	<circle class="st9" cx="973.7" cy="651.5" r="21.8"/>
	<path class="st44" d="M1020.1,658.5l-12.9,34.1c0,0-42.9-11.1-47-25.4c-4.2-14.3,1.8-26.3,5.1-34.1L1020.1,658.5z"/>
	<path class="st45" d="M981.2,676.9l22.7,9.6c0,0,5.2-20.7,16.2-28l-12.9,34.1c0,0-41.1-9.9-47-25.4c0,0-3.2-6.7,0.2-20.3
		c0,0-1.3,19.2,6.7,23.5C975.1,674.7,981.2,676.9,981.2,676.9z"/>
	<circle class="st46" cx="973.1" cy="650.4" r="5.4"/>
	<circle class="st10" cx="1148.4" cy="693.5" r="11.8"/>
	<circle class="st9" cx="1463" cy="827.7" r="18"/>
	<circle class="st10" cx="1463.3" cy="827.9" r="11.5"/>
	<polygon class="st44" points="1603.3,894.8 1105.1,685.2 1086.6,728 1336.4,835.5 1354.5,855.6 1541.2,940.2 	"/>
	<polyline class="st47" points="1580.4,897.4 1110.1,699.5 1100.5,723.1 	"/>
	<g>
		<polygon class="st48" points="1362.2,849.5 1342.1,829 1099.9,723.5 1102.4,717.6 1344.9,823.8 1366.8,846.1 1552.1,929.7 
			1547.6,933.3 		"/>
		<path class="st45" d="M1102.9,718.9l241.4,105.7l21.9,22.3l183.9,83l-2.7,2.2l-184.7-83.5l-20-20.4l-241.5-105.2L1102.9,718.9
			 M1101.9,716.3l-0.8,1.9l-1.7,4l-0.8,1.8l1.8,0.8l241.1,105.1l19.8,20.2l0.3,0.3l0.3,0.2l184.7,83.5l1.1,0.5l1-0.8l2.7-2.2l2.6-2
			l-3-1.3l-183.6-82.9l-21.7-22l-0.3-0.3l-0.4-0.2l-241.4-105.7L1101.9,716.3L1101.9,716.3z"/>
	</g>
	<circle class="st49" cx="1385.5" cy="837.9" r="6.6"/>
	<polygon class="st43" points="1373.5,864.2 1373.5,930 1394.7,930 1395,873.8 	"/>
	<polygon class="st10" points="1386.1,872.9 1386.8,929 1376.8,929 1376.8,867.4 1385.9,871.3 	"/>
	<path class="st43" d="M1369,929.4c0,0,10.4,0.4,31.1,0.1l-0.3,36.5h-31L1369,929.4z"/>
	<path class="st9" d="M971.2,795.8c0,0,2.1,5.5-1.4,6.9s-11.7,8.7-4.1,14.6S979,818.9,982,807c0,0-3.7,0.5-6.4,6.2
		c0,0-6.4,6.9-7.3-3.2c0,0,0-2.5,3.9-4.1c3.9-1.6,3.4-5.5,1.4-11.9L971.2,795.8z"/>
	<path class="st50" d="M964.6,764.2c0,0-1.9,14-5.8,20.2c0,0-2.3,4.7,0,6.2c2.3,1.6,10.5,5.8,10.5,5.8s1.9,3.9,7.4,0l8.2-6.2
		c0,0,2.7,0.4,1.2-5.4c-1.6-5.8-6.6-20.6-6.6-20.6H964.6z"/>
	<path class="st45" d="M977,766.6l6.2,17.4c0,0,1.7,2.5-0.2,4.7c-1.9,2.2-7.4,6.1-7.4,6.1s-2,1.7-4.6-0.2c-2.5-1.9-6.2-3.5-6.2-3.5
		l4.6,5.4c0,0,2.7,3.9,7.4,0c4.7-3.9,8.2-6.2,8.2-6.2s2.6,0.3,1.2-5.4c-1.4-5.7-6.6-20.6-6.6-20.6L977,766.6z"/>
	<g>
		<path class="st48" d="M958.9,790.5c-0.1,0-0.6-0.2-0.9-0.9c-0.3-0.8-0.4-2.2,1-5c2.9-5.7,4.8-12.4,5.8-20.1h14l-1.9,1.9l-10.7-0.2
			l0,0.2c0,0.2-1.4,16.8-6.3,20.1c-0.1,0.1-0.5,0.5-0.4,1.2c0.2,0.7,0.9,1.3,2.3,1.8c2.4,0.9,5.4,4.5,6.7,6.3L958.9,790.5z"/>
		<path class="st50" d="M978.2,764.7l-1.4,1.4l-10.4-0.2l-0.5,0l0,0.5c0,0.2-1.4,16.7-6.2,19.9l0,0l0,0c-0.2,0.2-0.5,0.7-0.4,1.4
			c0.2,0.8,1,1.5,2.4,2c1.9,0.7,4.3,3.4,5.8,5.2l-8.4-4.7l0,0l0,0c0,0-0.5-0.2-0.7-0.8c-0.3-0.7-0.3-2.1,1-4.7
			c2.8-5.6,4.8-12.4,5.8-20H978.2 M979.4,764.2h-14.8c-1.1,8.3-3.1,14.9-5.8,20.2c-2.7,5.4,0,6.2,0,6.2l10.5,5.8
			c0,0-4.3-6.1-7.5-7.3c-3.2-1.2-1.9-2.5-1.9-2.5c5.1-3.4,6.4-20.3,6.4-20.3l10.6,0.2L979.4,764.2L979.4,764.2z"/>
	</g>
	<line class="st42" x1="971.7" y1="812.2" x2="971.7" y2="821.6"/>
	<polygon class="st51" points="969.4,821.7 974.3,821.7 974.3,858.8 969.7,858.8 	"/>
	<line class="st99" x1="971.9" y1="859.4" x2="972.9" y2="1127"/>
	<polygon class="st89" points="1716,892.7 1716,1080 992.2,1080 992.2,1026.7 1110.2,966.5 1514.9,966.5 1587.2,894.3 	"/>
	<path class="st6" d="M1680.9,1047.5l31.2,32.1h-19.5l-32.2-32.2C1660.4,1047.4,1681.2,1047.3,1680.9,1047.5z"/>
	<path class="st6" d="M1646.3,1047.5l31.2,32.1h-19.5l-32.2-32.2C1625.7,1047.4,1646.5,1047.3,1646.3,1047.5z"/>
	<path class="st6" d="M1612.3,1047.5l31.2,32.1H1624l-32.2-32.2C1591.8,1047.4,1612.6,1047.3,1612.3,1047.5z"/>
	<path class="st6" d="M1577,1047.5l31.2,32.1h-19.5l-32.2-32.2C1556.4,1047.4,1577.2,1047.3,1577,1047.5z"/>
	<path class="st6" d="M1542.6,1047.6l31.2,32h-19.5l-32.2-32.1C1522,1047.5,1542.8,1047.4,1542.6,1047.6z"/>
	<path class="st6" d="M1507.5,1047.9l31.2,31.7h-19.5l-32.2-31.8C1486.9,1047.8,1507.7,1047.7,1507.5,1047.9z"/>
	<path class="st6" d="M1472.8,1047.9l31.2,31.7h-19.5l-32.2-31.8C1452.2,1047.8,1473.1,1047.7,1472.8,1047.9z"/>
	<path class="st6" d="M1437.7,1047.9l31.2,31.7h-19.5l-32.2-31.8C1417.1,1047.8,1437.9,1047.7,1437.7,1047.9z"/>
	<path class="st6" d="M1403.3,1048.2l31.2,31.4h-19.5l-32.2-31.5C1382.7,1048.1,1403.5,1047.9,1403.3,1048.2z"/>
	<path class="st6" d="M1368.6,1048.2l31.2,31.4h-19.5l-32.2-31.5C1348.1,1048.1,1368.9,1047.9,1368.6,1048.2z"/>
	<path class="st6" d="M1333.8,1048.2l31.2,31.4h-19.5l-32.2-31.5C1313.2,1048.1,1334,1048,1333.8,1048.2z"/>
	<path class="st6" d="M1298.7,1048.3l31.2,31.3h-19.5l-32.2-31.4C1278.1,1048.2,1298.9,1048.1,1298.7,1048.3z"/>
	<path class="st6" d="M1264.2,1048.4l31.2,31.2h-19.5l-32.2-31.3C1243.7,1048.3,1264.5,1048.2,1264.2,1048.4z"/>
	<path class="st6" d="M1229.8,1048.4l31.2,31.2h-19.5l-32.2-31.3C1209.2,1048.3,1230.1,1048.2,1229.8,1048.4z"/>
	<path class="st6" d="M1194.2,1048.8l31.2,30.8h-19.5l-32.2-30.9C1173.7,1048.6,1194.5,1048.5,1194.2,1048.8z"/>
	<path class="st6" d="M1159.4,1048.8l31.2,30.8H1171l-32.2-30.9C1138.8,1048.6,1159.6,1048.5,1159.4,1048.8z"/>
	<path class="st6" d="M1124,1049l31.2,30.6h-19.5l-32.2-30.7C1103.4,1048.9,1124.3,1048.8,1124,1049z"/>
	<path class="st6" d="M1089.1,1049.1l31.2,30.5h-19.5l-32.2-30.6C1068.6,1049,1089.4,1048.9,1089.1,1049.1z"/>
	<path class="st6" d="M1054,1049.2l31.2,30.4h-19.5l-32.2-30.5C1033.4,1049.1,1054.3,1049,1054,1049.2z"/>
	<polygon class="st1" points="1695.3,915.7 1695.3,1056.2 1688.2,1046.9 1688.2,921.1 	"/>
	<polygon class="st87" points="1596.3,921.9 1688.2,921.1 1695.3,915.7 1592.2,915.7 1523.7,988.5 1111,988.5 1012.8,1037.6 
		1012.8,1057 1020.4,1049.1 1020.4,1043.3 1117,995.9 1527,995.9 	"/>
	<polyline class="st1" points="1688.2,1046.9 1020.4,1049.1 1012.8,1057 1695.3,1056.2 	"/>
	<path class="st91" d="M1601.7,938.3h74.3v98.1h-74.3C1601.7,1036.4,1602,938.6,1601.7,938.3z"/>
	<polygon class="st6" points="1628.9,1019.6 1628.9,1028.7 1650.9,1028.7 1650.9,1018.6 1628.7,1018.6 	"/>
	<g>
		<path class="st9" d="M960.5,1122.1c0,0-1.1,10.5,0.7,11.5s20.4-5.3,21.8-9C983.1,1124.5,969.3,1124.8,960.5,1122.1z"/>
		<path class="st53" d="M288.2,1157.6l133.9-3.4c0,0,15.3-57.1-51.6-75.6C303.4,1060.1,283.4,1122.8,288.2,1157.6z"/>
		<polygon class="st53" points="866.3,1146.9 875.3,1146.4 893.9,1098.9 830.6,1061.1 758.1,1074.6 744.4,1135.1 752.2,1152.1 		"/>
		<circle class="st14" cx="813.2" cy="1137.9" r="53.9"/>
		<g>
			<g>
				<path class="st54" d="M813.3,1175.4c-2.3,0-4.6-0.2-6.8-0.7c-18.9-3.7-31.2-22.1-27.5-41c3.2-16.3,17.6-28.1,34.2-28.1
					c2.3,0,4.6,0.2,6.8,0.7c9.1,1.8,17,7.1,22.2,14.8c5.2,7.7,7,17.1,5.2,26.2C844.3,1163.6,829.9,1175.4,813.3,1175.4z"/>
				<path class="st55" d="M813.2,1107.1c2.2,0,4.3,0.2,6.5,0.6c18.1,3.6,29.9,21.2,26.3,39.3c-3.1,15.9-17.1,26.9-32.7,26.9
					c-2.2,0-4.3-0.2-6.5-0.6c-18.1-3.6-29.9-21.2-26.3-39.3C783.7,1118.1,797.6,1107.1,813.2,1107.1 M813.2,1104.1v3V1104.1
					L813.2,1104.1c-17.3,0-32.3,12.3-35.7,29.3c-3.9,19.7,9,38.9,28.6,42.8c2.3,0.5,4.7,0.7,7.1,0.7c17.3,0,32.3-12.3,35.7-29.3
					c1.9-9.5-0.1-19.2-5.5-27.3c-5.4-8.1-13.6-13.6-23.2-15.5C818,1104.3,815.6,1104.1,813.2,1104.1L813.2,1104.1z"/>
			</g>
			<g>
				<path class="st56" d="M813.2,1159.9c-1.2,0-2.5-0.1-3.7-0.4c-5-1-9.3-3.9-12.1-8.1c-2.8-4.2-3.8-9.3-2.9-14.3
					c1.8-8.9,9.6-15.3,18.6-15.3c1.2,0,2.5,0.1,3.7,0.4c5,1,9.3,3.9,12.1,8.1c2.8,4.2,3.8,9.3,2.9,14.3
					C830.1,1153.4,822.3,1159.9,813.2,1159.9z"/>
				<path class="st57" d="M813.2,1120.8v2c1.2,0,2.4,0.1,3.5,0.3c9.8,1.9,16.1,11.4,14.2,21.2c-1.7,8.4-9.1,14.5-17.7,14.5
					c-1.2,0-2.4-0.1-3.5-0.3c-4.7-0.9-8.8-3.7-11.5-7.7c-2.7-4-3.6-8.8-2.7-13.5c1.7-8.4,9.1-14.5,17.7-14.5L813.2,1120.8
					 M813.2,1120.8c-9.4,0-17.7,6.6-19.6,16.1c-2.1,10.9,4.9,21.4,15.8,23.5c1.3,0.3,2.6,0.4,3.9,0.4c9.4,0,17.7-6.6,19.6-16.1
					c2.1-10.9-4.9-21.4-15.8-23.5C815.8,1120.9,814.5,1120.8,813.2,1120.8L813.2,1120.8z"/>
			</g>
			<circle class="st58" cx="813.5" cy="1140.9" r="6.7"/>
			<g>
				<path class="st59" d="M806.1,1117.9c-0.1,0-0.3,0-0.4,0c-1.1-0.2-1.9-1.3-1.7-2.5c0.2-1,1.1-1.7,2.1-1.7c0.1,0,0.3,0,0.4,0
					c0.6,0.1,1,0.4,1.3,0.9s0.4,1,0.3,1.6C808,1117.2,807.1,1117.9,806.1,1117.9z"/>
				<path class="st60" d="M806.1,1114L806.1,1114c0.1,0,0.2,0,0.4,0c0.5,0.1,0.9,0.4,1.2,0.8c0.3,0.4,0.4,0.9,0.3,1.4
					c-0.2,0.9-0.9,1.5-1.8,1.5c-0.1,0-0.2,0-0.4,0c-1-0.2-1.7-1.2-1.5-2.2C804.4,1114.6,805.2,1114,806.1,1114 M806.1,1113.5
					c-1.1,0-2.1,0.8-2.3,1.9c-0.3,1.3,0.6,2.5,1.9,2.8c0.2,0,0.3,0,0.5,0c1.1,0,2.1-0.8,2.3-1.9c0.3-1.3-0.6-2.5-1.9-2.8
					C806.4,1113.5,806.2,1113.5,806.1,1113.5L806.1,1113.5z"/>
			</g>
			<g>
				<path class="st59" d="M820.3,1117.6c-0.1,0-0.3,0-0.4,0c-0.6-0.1-1-0.4-1.3-0.9s-0.4-1-0.3-1.6c0.2-1,1.1-1.7,2.1-1.7
					c0.1,0,0.3,0,0.4,0c1.1,0.2,1.9,1.3,1.7,2.5C822.2,1116.9,821.3,1117.6,820.3,1117.6z"/>
				<g>
					<path class="st60" d="M820.3,1113.6L820.3,1113.6c0.1,0,0.2,0,0.4,0c1,0.2,1.7,1.2,1.5,2.2c-0.2,0.9-0.9,1.5-1.8,1.5
						c-0.1,0-0.2,0-0.4,0c-0.5-0.1-0.9-0.4-1.2-0.8c-0.3-0.4-0.4-0.9-0.3-1.4C818.7,1114.3,819.4,1113.6,820.3,1113.6 M820.3,1113.1
						c-1.1,0-2.1,0.8-2.3,1.9c-0.3,1.3,0.6,2.5,1.9,2.8c0.2,0,0.3,0,0.5,0c1.1,0,2.1-0.8,2.3-1.9c0.3-1.3-0.6-2.5-1.9-2.8
						C820.6,1113.2,820.5,1113.1,820.3,1113.1L820.3,1113.1z"/>
				</g>
			</g>
			<g>
				<path class="st61" d="M815.5,1130.4c-0.1,0-0.2,0-0.3,0c-0.7-0.1-1.2-0.8-1-1.5c0.1-0.6,0.7-1.1,1.3-1.1c0.1,0,0.2,0,0.3,0
					c0.3,0.1,0.6,0.3,0.8,0.6c0.2,0.3,0.3,0.6,0.2,1C816.6,1129.9,816.1,1130.4,815.5,1130.4z"/>
				<g>
					<path class="st62" d="M815.5,1128L815.5,1128c0.1,0,0.1,0,0.2,0c0.3,0.1,0.5,0.2,0.7,0.4c0.2,0.2,0.2,0.5,0.2,0.8
						c-0.1,0.5-0.5,0.9-1,0.9c-0.1,0-0.1,0-0.2,0c-0.6-0.1-0.9-0.7-0.8-1.2C814.5,1128.3,815,1128,815.5,1128 M815.5,1127.5
						c-0.7,0-1.4,0.5-1.5,1.3c-0.2,0.8,0.4,1.7,1.2,1.8c0.1,0,0.2,0,0.3,0c0.7,0,1.4-0.5,1.5-1.3c0.2-0.8-0.4-1.7-1.2-1.8
						C815.7,1127.5,815.6,1127.5,815.5,1127.5L815.5,1127.5z"/>
				</g>
			</g>
			<g>
				<path class="st61" d="M824.6,1144c-0.1,0-0.2,0-0.3,0c-0.3-0.1-0.6-0.3-0.8-0.6c-0.2-0.3-0.3-0.6-0.2-1c0.1-0.6,0.7-1.1,1.3-1.1
					c0.1,0,0.2,0,0.3,0c0.3,0.1,0.6,0.3,0.8,0.6c0.2,0.3,0.3,0.6,0.2,1C825.8,1143.6,825.2,1144,824.6,1144z"/>
				<g>
					<path class="st62" d="M824.6,1141.6L824.6,1141.6c0.1,0,0.1,0,0.2,0c0.6,0.1,0.9,0.7,0.8,1.2c-0.1,0.5-0.5,0.9-1,0.9
						c-0.1,0-0.1,0-0.2,0c-0.6-0.1-0.9-0.7-0.8-1.2C823.7,1142,824.1,1141.6,824.6,1141.6 M824.6,1141.1c-0.7,0-1.4,0.5-1.5,1.3
						c-0.2,0.8,0.4,1.7,1.2,1.8c0.1,0,0.2,0,0.3,0c0.7,0,1.4-0.5,1.5-1.3c0.2-0.8-0.4-1.7-1.2-1.8
						C824.8,1141.1,824.7,1141.1,824.6,1141.1L824.6,1141.1z"/>
				</g>
			</g>
			<g>
				<path class="st61" d="M811.2,1152.8c-0.1,0-0.2,0-0.3,0c-0.3-0.1-0.6-0.3-0.8-0.6c-0.2-0.3-0.3-0.6-0.2-1
					c0.1-0.6,0.7-1.1,1.3-1.1c0.1,0,0.2,0,0.3,0c0.7,0.1,1.2,0.8,1,1.5C812.4,1152.3,811.8,1152.8,811.2,1152.8z"/>
				<g>
					<path class="st62" d="M811.2,1150.4L811.2,1150.4c0.1,0,0.1,0,0.2,0c0.6,0.1,0.9,0.7,0.8,1.2c-0.1,0.5-0.5,0.9-1,0.9
						c-0.1,0-0.1,0-0.2,0c-0.6-0.1-0.9-0.7-0.8-1.2C810.3,1150.8,810.7,1150.4,811.2,1150.4 M811.2,1149.9c-0.7,0-1.4,0.5-1.5,1.3
						c-0.2,0.8,0.4,1.7,1.2,1.8c0.1,0,0.2,0,0.3,0c0.7,0,1.4-0.5,1.5-1.3c0.2-0.8-0.4-1.7-1.2-1.8
						C811.4,1149.9,811.3,1149.9,811.2,1149.9L811.2,1149.9z"/>
				</g>
			</g>
			<g>
				<path class="st61" d="M801.7,1140.2c-0.1,0-0.2,0-0.3,0c-0.3-0.1-0.6-0.3-0.8-0.6c-0.2-0.3-0.3-0.6-0.2-1
					c0.1-0.6,0.7-1.1,1.3-1.1c0.1,0,0.2,0,0.3,0c0.7,0.1,1.2,0.8,1,1.5C802.9,1139.7,802.3,1140.2,801.7,1140.2z"/>
				<g>
					<path class="st62" d="M801.7,1137.8L801.7,1137.8c0.1,0,0.1,0,0.2,0c0.6,0.1,0.9,0.7,0.8,1.2c-0.1,0.5-0.5,0.9-1,0.9
						c-0.1,0-0.1,0-0.2,0c-0.6-0.1-0.9-0.7-0.8-1.2C800.8,1138.2,801.2,1137.8,801.7,1137.8 M801.7,1137.3c-0.7,0-1.4,0.5-1.5,1.3
						c-0.2,0.8,0.4,1.7,1.2,1.8c0.1,0,0.2,0,0.3,0c0.7,0,1.4-0.5,1.5-1.3c0.2-0.8-0.4-1.7-1.2-1.8
						C801.9,1137.3,801.8,1137.3,801.7,1137.3L801.7,1137.3z"/>
				</g>
			</g>
			<g>
				<path class="st59" d="M833.3,1125.8c-0.1,0-0.3,0-0.4,0c-0.6-0.1-1-0.4-1.3-0.9s-0.4-1-0.3-1.6c0.2-1,1.1-1.7,2.1-1.7
					c0.1,0,0.3,0,0.4,0c1.1,0.2,1.9,1.3,1.7,2.5C835.2,1125,834.3,1125.8,833.3,1125.8z"/>
				<g>
					<path class="st60" d="M833.3,1121.8L833.3,1121.8c0.1,0,0.2,0,0.4,0c1,0.2,1.7,1.2,1.5,2.2c-0.2,0.9-0.9,1.5-1.8,1.5
						c-0.1,0-0.2,0-0.4,0c-0.5-0.1-0.9-0.4-1.2-0.8c-0.3-0.4-0.4-0.9-0.3-1.4C831.7,1122.4,832.4,1121.8,833.3,1121.8 M833.3,1121.3
						c-1.1,0-2.1,0.8-2.3,1.9c-0.3,1.3,0.6,2.5,1.9,2.8c0.2,0,0.3,0,0.5,0c1.1,0,2.1-0.8,2.3-1.9c0.3-1.3-0.6-2.5-1.9-2.8
						C833.6,1121.3,833.5,1121.3,833.3,1121.3L833.3,1121.3z"/>
				</g>
			</g>
			<g>
				<path class="st59" d="M838.9,1136.7c-0.1,0-0.3,0-0.4,0c-1.1-0.2-1.9-1.3-1.7-2.5c0.2-1,1.1-1.7,2.1-1.7c0.1,0,0.3,0,0.4,0
					c1.1,0.2,1.9,1.3,1.7,2.5C840.8,1136,839.9,1136.7,838.9,1136.7z"/>
				<g>
					<path class="st60" d="M838.9,1132.7L838.9,1132.7c0.1,0,0.2,0,0.4,0c0.5,0.1,0.9,0.4,1.2,0.8c0.3,0.4,0.4,0.9,0.3,1.4
						c-0.2,0.9-0.9,1.5-1.8,1.5c-0.1,0-0.2,0-0.4,0c-0.5-0.1-0.9-0.4-1.2-0.8c-0.3-0.4-0.4-0.9-0.3-1.4
						C837.2,1133.4,838,1132.7,838.9,1132.7 M838.9,1132.2c-1.1,0-2.1,0.8-2.3,1.9c-0.3,1.3,0.6,2.5,1.9,2.8c0.2,0,0.3,0,0.5,0
						c1.1,0,2.1-0.8,2.3-1.9c0.3-1.3-0.6-2.5-1.9-2.8C839.2,1132.3,839,1132.2,838.9,1132.2L838.9,1132.2z"/>
				</g>
			</g>
			<g>
				<path class="st59" d="M838.4,1149.6c-0.1,0-0.3,0-0.4,0c-0.6-0.1-1-0.4-1.3-0.9s-0.4-1-0.3-1.6c0.2-1,1.1-1.7,2.1-1.7
					c0.1,0,0.3,0,0.4,0c1.1,0.2,1.9,1.3,1.7,2.5C840.2,1148.9,839.4,1149.6,838.4,1149.6z"/>
				<g>
					<path class="st60" d="M838.4,1145.6L838.4,1145.6c0.1,0,0.2,0,0.4,0c0.5,0.1,0.9,0.4,1.2,0.8c0.3,0.4,0.4,0.9,0.3,1.4
						c-0.2,0.9-0.9,1.5-1.8,1.5c-0.1,0-0.2,0-0.4,0c-1-0.2-1.7-1.2-1.5-2.2C836.7,1146.2,837.5,1145.6,838.4,1145.6 M838.4,1145.1
						c-1.1,0-2.1,0.8-2.3,1.9c-0.3,1.3,0.6,2.5,1.9,2.8c0.2,0,0.3,0,0.5,0c1.1,0,2.1-0.8,2.3-1.9c0.3-1.3-0.6-2.5-1.9-2.8
						C838.7,1145.1,838.5,1145.1,838.4,1145.1L838.4,1145.1z"/>
				</g>
			</g>
			<g>
				<path class="st59" d="M832.4,1160.4c-0.1,0-0.3,0-0.4,0c-0.6-0.1-1-0.4-1.3-0.9s-0.4-1-0.3-1.6c0.2-1,1.1-1.7,2.1-1.7
					c0.1,0,0.3,0,0.4,0c0.6,0.1,1,0.4,1.3,0.9s0.4,1,0.3,1.6C834.3,1159.7,833.4,1160.4,832.4,1160.4z"/>
				<g>
					<path class="st60" d="M832.4,1156.5L832.4,1156.5c0.1,0,0.2,0,0.4,0c0.5,0.1,0.9,0.4,1.2,0.8c0.3,0.4,0.4,0.9,0.3,1.4
						c-0.2,0.9-0.9,1.5-1.8,1.5c-0.1,0-0.2,0-0.4,0c-1-0.2-1.7-1.2-1.5-2.2C830.8,1157.1,831.6,1156.5,832.4,1156.5 M832.4,1156
						c-1.1,0-2.1,0.8-2.3,1.9c-0.3,1.3,0.6,2.5,1.9,2.8c0.2,0,0.3,0,0.5,0c1.1,0,2.1-0.8,2.3-1.9c0.3-1.3-0.6-2.5-1.9-2.8
						C832.7,1156,832.6,1156,832.4,1156L832.4,1156z"/>
				</g>
			</g>
			<g>
				<path class="st59" d="M821.3,1167.5c-0.1,0-0.3,0-0.4,0c-1.1-0.2-1.9-1.3-1.7-2.5c0.2-1,1.1-1.7,2.1-1.7c0.1,0,0.3,0,0.4,0
					c0.6,0.1,1,0.4,1.3,0.9s0.4,1,0.3,1.6C823.2,1166.8,822.3,1167.5,821.3,1167.5z"/>
				<g>
					<path class="st60" d="M821.3,1163.5L821.3,1163.5c0.1,0,0.2,0,0.4,0c1,0.2,1.7,1.2,1.5,2.2c-0.2,0.9-0.9,1.5-1.8,1.5
						c-0.1,0-0.2,0-0.4,0c-0.5-0.1-0.9-0.4-1.2-0.8c-0.3-0.4-0.4-0.9-0.3-1.4C819.6,1164.2,820.4,1163.5,821.3,1163.5 M821.3,1163
						c-1.1,0-2.1,0.8-2.3,1.9c-0.3,1.3,0.6,2.5,1.9,2.8c0.2,0,0.3,0,0.5,0c1.1,0,2.1-0.8,2.3-1.9c0.3-1.3-0.6-2.5-1.9-2.8
						C821.6,1163.1,821.4,1163,821.3,1163L821.3,1163z"/>
				</g>
			</g>
			<g>
				<path class="st59" d="M808.3,1169c-0.1,0-0.3,0-0.4,0c-1.1-0.2-1.9-1.3-1.7-2.5c0.2-1,1.1-1.7,2.1-1.7c0.1,0,0.3,0,0.4,0
					c0.6,0.1,1,0.4,1.3,0.9s0.4,1,0.3,1.6C810.1,1168.3,809.3,1169,808.3,1169z"/>
				<g>
					<path class="st60" d="M808.2,1165L808.2,1165c0.1,0,0.2,0,0.4,0c0.5,0.1,0.9,0.4,1.2,0.8c0.3,0.4,0.4,0.9,0.3,1.4
						c-0.2,0.9-0.9,1.5-1.8,1.5c-0.1,0-0.2,0-0.4,0c-0.5-0.1-0.9-0.4-1.2-0.8c-0.3-0.4-0.4-0.9-0.3-1.4
						C806.6,1165.7,807.4,1165,808.2,1165 M808.2,1164.5c-1.1,0-2.1,0.8-2.3,1.9c-0.3,1.3,0.6,2.5,1.9,2.8c0.2,0,0.3,0,0.5,0
						c1.1,0,2.1-0.8,2.3-1.9c0.3-1.3-0.6-2.5-1.9-2.8C808.6,1164.5,808.4,1164.5,808.2,1164.5L808.2,1164.5z"/>
				</g>
			</g>
			<g>
				<path class="st59" d="M797.5,1164.3c-0.1,0-0.3,0-0.4,0c-1.1-0.2-1.9-1.3-1.7-2.5c0.2-1,1.1-1.7,2.1-1.7c0.1,0,0.3,0,0.4,0
					c1.1,0.2,1.9,1.3,1.7,2.5C799.4,1163.5,798.5,1164.3,797.5,1164.3z"/>
				<g>
					<path class="st60" d="M797.5,1160.3L797.5,1160.3c0.1,0,0.2,0,0.4,0c1,0.2,1.7,1.2,1.5,2.2c-0.2,0.9-0.9,1.5-1.8,1.5
						c-0.1,0-0.2,0-0.4,0c-0.5-0.1-0.9-0.4-1.2-0.8c-0.3-0.4-0.4-0.9-0.3-1.4C795.8,1160.9,796.6,1160.3,797.5,1160.3 M797.5,1159.8
						c-1.1,0-2.1,0.8-2.3,1.9c-0.3,1.3,0.6,2.5,1.9,2.8c0.2,0,0.3,0,0.5,0c1.1,0,2.1-0.8,2.3-1.9c0.3-1.3-0.6-2.5-1.9-2.8
						C797.8,1159.8,797.6,1159.8,797.5,1159.8L797.5,1159.8z"/>
				</g>
			</g>
			<g>
				<path class="st59" d="M789.7,1154.7c-0.1,0-0.3,0-0.4,0c-1.1-0.2-1.9-1.3-1.7-2.5c0.2-1,1.1-1.7,2.1-1.7c0.1,0,0.3,0,0.4,0
					c0.6,0.1,1,0.4,1.3,0.9s0.4,1,0.3,1.6C791.6,1154,790.7,1154.7,789.7,1154.7z"/>
				<g>
					<path class="st60" d="M789.7,1150.7L789.7,1150.7c0.1,0,0.2,0,0.4,0c0.5,0.1,0.9,0.4,1.2,0.8c0.3,0.4,0.4,0.9,0.3,1.4
						c-0.2,0.9-0.9,1.5-1.8,1.5c-0.1,0-0.2,0-0.4,0c-0.5-0.1-0.9-0.4-1.2-0.8c-0.3-0.4-0.4-0.9-0.3-1.4
						C788.1,1151.4,788.9,1150.7,789.7,1150.7 M789.7,1150.2c-1.1,0-2.1,0.8-2.3,1.9c-0.3,1.3,0.6,2.5,1.9,2.8c0.2,0,0.3,0,0.5,0
						c1.1,0,2.1-0.8,2.3-1.9c0.3-1.3-0.6-2.5-1.9-2.8C790,1150.3,789.9,1150.2,789.7,1150.2L789.7,1150.2z"/>
				</g>
			</g>
			<g>
				<path class="st59" d="M786.6,1143.1c-0.1,0-0.3,0-0.4,0c-0.6-0.1-1-0.4-1.3-0.9s-0.4-1-0.3-1.6c0.2-1,1.1-1.7,2.1-1.7
					c0.1,0,0.3,0,0.4,0c1.1,0.2,1.9,1.3,1.7,2.5C788.5,1142.4,787.6,1143.1,786.6,1143.1z"/>
				<g>
					<path class="st60" d="M786.6,1139.1L786.6,1139.1c0.1,0,0.2,0,0.4,0c0.5,0.1,0.9,0.4,1.2,0.8c0.3,0.4,0.4,0.9,0.3,1.4
						c-0.2,0.9-0.9,1.5-1.8,1.5c-0.1,0-0.2,0-0.4,0c-1-0.2-1.7-1.2-1.5-2.2C785,1139.8,785.7,1139.1,786.6,1139.1 M786.6,1138.6
						c-1.1,0-2.1,0.8-2.3,1.9c-0.3,1.3,0.6,2.5,1.9,2.8c0.2,0,0.3,0,0.5,0c1.1,0,2.1-0.8,2.3-1.9c0.3-1.3-0.6-2.5-1.9-2.8
						C786.9,1138.7,786.8,1138.6,786.6,1138.6L786.6,1138.6z"/>
				</g>
			</g>
			<g>
				<path class="st59" d="M788.4,1132.4c-0.1,0-0.3,0-0.4,0c-0.6-0.1-1-0.4-1.3-0.9s-0.4-1-0.3-1.6c0.2-1,1.1-1.7,2.1-1.7
					c0.1,0,0.3,0,0.4,0c1.1,0.2,1.9,1.3,1.7,2.5C790.3,1131.7,789.5,1132.4,788.4,1132.4z"/>
				<g>
					<path class="st60" d="M788.4,1128.5L788.4,1128.5c0.1,0,0.2,0,0.4,0c0.5,0.1,0.9,0.4,1.2,0.8c0.3,0.4,0.4,0.9,0.3,1.4
						c-0.2,0.9-0.9,1.5-1.8,1.5c-0.1,0-0.2,0-0.4,0c-1-0.2-1.7-1.2-1.5-2.2C786.8,1129.1,787.6,1128.5,788.4,1128.5 M788.4,1128
						c-1.1,0-2.1,0.8-2.3,1.9c-0.3,1.3,0.6,2.5,1.9,2.8c0.2,0,0.3,0,0.5,0c1.1,0,2.1-0.8,2.3-1.9c0.3-1.3-0.6-2.5-1.9-2.8
						C788.8,1128,788.6,1128,788.4,1128L788.4,1128z"/>
				</g>
			</g>
			<g>
				<path class="st59" d="M794.8,1123.1c-0.1,0-0.3,0-0.4,0c-1.1-0.2-1.9-1.3-1.7-2.5c0.2-1,1.1-1.7,2.1-1.7c0.1,0,0.3,0,0.4,0
					c0.6,0.1,1,0.4,1.3,0.9s0.4,1,0.3,1.6C796.7,1122.4,795.8,1123.1,794.8,1123.1z"/>
				<g>
					<path class="st60" d="M794.8,1119.2L794.8,1119.2c0.1,0,0.2,0,0.4,0c0.5,0.1,0.9,0.4,1.2,0.8c0.3,0.4,0.4,0.9,0.3,1.4
						c-0.2,0.9-0.9,1.5-1.8,1.5c-0.1,0-0.2,0-0.4,0c-1-0.2-1.7-1.2-1.5-2.2C793.1,1119.8,793.9,1119.2,794.8,1119.2 M794.8,1118.7
						c-1.1,0-2.1,0.8-2.3,1.9c-0.3,1.3,0.6,2.5,1.9,2.8c0.2,0,0.3,0,0.5,0c1.1,0,2.1-0.8,2.3-1.9c0.3-1.3-0.6-2.5-1.9-2.8
						C795.1,1118.7,794.9,1118.7,794.8,1118.7L794.8,1118.7z"/>
				</g>
			</g>
		</g>
		<path class="st63" d="M854.3,1172.5c0,0,27-49.2-18.5-77.9c0,0-27.1-11.8-47.3,1.1s-26,34.8-27.4,54.4c0,0-3.8-6.9-0.7-22.7
			s19.9-49,63.3-42.4c0,0,49.5,8.5,42.4,63.3C866,1148.4,863.8,1162.4,854.3,1172.5z"/>
		<path class="st11" d="M776.8,1010.2c0,0,159.8,16.3,164.1,45.2c0,0,7,5.7,8.3,17.4c0,0,17.6,4.9,14.9,24c0,0-1.7,29.6-0.5,37.9
			c1.1,8.3-1.5,7.8-7.9,9c-6.4,1.2-53.2,3.4-80.3,2.7c0,0,10.5-47.6-38.2-70.6c0,0-26.5-10.5-50.1,0.6s-33.7,27.2-36.3,50
			c-2.6,22.8,1.6,25.6,1.6,25.6s-7,3.3-14.6-14.6l-2.2-0.2c0,0,10.7-70.9-9.1-109.9c0,0,24.5-3.2,32.3-14.2
			C758.6,1013.3,770.5,1010,776.8,1010.2z"/>
		<path class="st64" d="M758.6,1013.3l134.4,23.6c0,0,28.7,5.4,35.3,15.2l12.6,3.2c0,0-1.7-13.8-35.1-22.5
			c-33.4-8.6-57.1-13.4-128.9-22.7C776.8,1010.2,766,1010.6,758.6,1013.3z"/>
		<path class="st64" d="M963.4,1107.5c0,0-41.5-2.1-49.6,0.2c0,0,37.4-25.6,35.1-36.7l1.7,2.8c0,0,13.6,4.5,13.7,17.4
			S963.4,1107.5,963.4,1107.5z"/>
		<path class="st65" d="M875.3,1146.4c0,0,4.8-7.7,17.5-7.8s67.3-0.9,70.9-5.7c0,0,3.4,10.9-8.1,10.8
			C944,1143.7,875.3,1146.4,875.3,1146.4z"/>
		<path class="st65" d="M963.4,1107.5l0.1,2.5c0,0-48.5-1-57,5.1c0,0-3.8,1.6-6,5.5c0,0,1.5-8.2,13.4-12.8
			C913.8,1107.8,924.6,1105.8,963.4,1107.5z"/>
		<path class="st64" d="M963.7,1132.9c0,0-1.4,1.4-5.1,1.8c-3.7,0.3-65.8-1.6-58.2-14.1c0,0,2.5-4,7.9-6.2c0,0-8.9,6.9,0,9.9
			S950.5,1133.5,963.7,1132.9z"/>
		<path class="st66" d="M963.5,1110c0,0-0.4,16.1,0.3,22.9c0,0-30.7-0.7-55.4-8.6c0,0-8.7-4.1,0-9.9
			C917,1108.6,963.5,1110,963.5,1110z"/>
		<path class="st28" d="M940.8,1055.4c0,0-6-1.5-15.1-3.5c-11.8-2.5-28.8-5.9-45.1-7.8c0,0-11.7,0.5-7,5.1
			c4.8,4.6,19.7,19.6,19.7,19.6l14.3,7c0,0,42.9,4.9,41.3-4.7C947.3,1061.5,940.8,1055.4,940.8,1055.4z"/>
		<path class="st67" d="M925,1054.7c0,0,11,12.6,1.7,22.1c0,0,23.9,2.9,22.3-5.8c-2.1-11.4-8-15.6-8-15.6l-28.7-6.4
			C912.2,1049.1,922,1051,925,1054.7z"/>
		<path class="st11" d="M758.6,1013.3c0,0-76.7-45.1-122.8-57.9l14.4-6.6c0,0-60.2-18.4-145.8-13.3s-141.7,22.8-141.7,22.8l14.1,4.6
			l-95.8,45.3l-19.3-1.8l-65.5,16.3c0,0-5.2,13.5-1.8,16.3l2.6-4.2c0,0,27.9,2.2,37.9,17.7s15.9,26,15.9,26s4.6,7.8,13.4,9.5
			c8.7,1.7,50.3,11.8,50.3,11.8s32-28.8,77.6-5.3l13.3-4.6l-31.7-46.9c0,0,0-12.7,2.8-15.8c2.8-3.1,3.8-8.3,3.8-8.3
			s-34-11.5-22.4-20.4c11.6-9,59.3-31.8,59.3-31.8s91.3-12,110.1-11.9c18.8,0.1,105.8,8.2,139.9,24.4s64.1,30.1,77.2,38.9
			c0,0,1.8,4.1-1.3,5.3C743,1023.3,754.8,1022,758.6,1013.3z"/>
		<path class="st68" d="M379.8,963.6c51.9-13.6,58.8-12,127.2-18.6s128.8,10.4,128.8,10.4"/>
		<path class="st69" d="M281,1008.2c0,0-26.9,12.7-62.1,17l-19.7,3l-2.2,6.6"/>
		<g>
			<path class="st70" d="M199.2,1028.2l174.9,5.2c0,0,0.3-3.4,2.2-6.3c1.9-2.9,3.3-6.1,3.8-8.3l-119.9-2.6
				C260.2,1016.2,238.5,1023.8,199.2,1028.2z"/>
		</g>
		<g>
			<path class="st71" d="M448.9,951.2c0,0-29.7,9.1-31.9,15.4l-59.3,31.8l10.4,15.7l-86.2-4.9C281.9,1009.2,362.5,957.1,448.9,951.2
				z"/>
		</g>
		<path class="st64" d="M576.2,954.9c0,0,45.6,4.4,67.7,3c0,0,52.1,18.2,100,47.3c0,0-0.3,7.1-7.8,8.5l-69-34.6
			c0,0-25.6-12.7-70.4-17.3l-26-4.1L576.2,954.9z"/>
		<path class="st11" d="M726.3,1027.5c0,0-315.8-5.3-346.2-8.7c0,0-1.1,5.2-3.8,8.3c0,0-2,3.2-2.2,6.3l-0.6,9.5l31.7,46.9l-13.3,4.6
			c0,0,35.3,22.1,26.4,63.9c0,0,1.3,1.6,12.9,1.2c11.5-0.3,321-7.5,321-7.5s-6.9,1.7-14.6-14.6l-2.2-0.2
			C735.4,1137.4,747.5,1069,726.3,1027.5z"/>
		<g>
			<path class="st70" d="M380.3,1034l352,8.7c0,0-2.1-8.3-5.9-15.2l-346.2-8.7c0,0-0.5,4.9-3.8,8.3c0,0-2.2,3.3-2.2,6.3L380.3,1034z
				"/>
		</g>
		<path class="st65" d="M405.2,1089.8l24.6,35.3c0,0,5.1,18.7,37,18.3s268.6-6,268.6-6l2.2,0.2c0,0,5.1,14.1,14.6,14.6l-321,7.5
			c0,0-9.9,0.8-12.9-1.2c0,0,10-37.9-26.4-63.9L405.2,1089.8z"/>
		<path class="st72" d="M560.5,1047.1c0,0-5.9,3.9,0.4,5c6.3,1,29.7-0.4,29.7-0.4s5.7-2.5-1.5-4.8L560.5,1047.1z"/>
		<path class="st72" d="M414.4,1046.6c0,0-5.9,3.9,0.4,5c6.3,1,29.7-0.4,29.7-0.4s5.7-2.5-1.5-4.8L414.4,1046.6z"/>
		<path class="st73" d="M584,1053.9c0,0-4.5,6.7-15.1-0.1"/>
		<path class="st74" d="M583.1,1045.4c0,0-6.5-6.8-14.6,0"/>
		<path class="st73" d="M437.5,1053.6c0,0-4.5,6.7-15.1-0.1"/>
		<path class="st74" d="M436.6,1045.1c0,0-6.5-6.8-14.6,0"/>
		<g>
			<path class="st71" d="M738.9,1095.9c0,0-7,25.4-26.7,25.4s-246.7,3.6-246.7,3.6s-30.3,2.2-49.3-19.5l13.7,19.8
				c0,0,4,18.4,37,18.3s268.6-6,268.6-6S738,1122.2,738.9,1095.9z"/>
		</g>
		<circle class="st14" cx="357.1" cy="1152" r="53.9"/>
		<g>
			<g>
				<path class="st54" d="M357.3,1189.5c-2.3,0-4.6-0.2-6.8-0.7c-18.9-3.7-31.2-22.1-27.5-41c3.2-16.3,17.6-28.1,34.2-28.1
					c2.3,0,4.6,0.2,6.8,0.7c9.1,1.8,17,7.1,22.2,14.8c5.2,7.7,7,17.1,5.2,26.2C388.3,1177.7,373.9,1189.5,357.3,1189.5z"/>
				<path class="st55" d="M357.2,1121.2c2.2,0,4.3,0.2,6.5,0.6c18.1,3.6,29.9,21.2,26.3,39.3c-3.1,15.9-17.1,26.9-32.7,26.9
					c-2.2,0-4.3-0.2-6.5-0.6c-18.1-3.6-29.9-21.2-26.3-39.3C327.6,1132.2,341.6,1121.2,357.2,1121.2 M357.2,1118.2L357.2,1118.2
					c-17.3,0-32.3,12.3-35.7,29.3c-1.9,9.5,0.1,19.2,5.5,27.3c5.4,8.1,13.6,13.6,23.2,15.5c2.3,0.5,4.7,0.7,7.1,0.7
					c17.3,0,32.3-12.3,35.7-29.3c1.9-9.5-0.1-19.2-5.5-27.3c-5.4-8.1-13.6-13.6-23.2-15.5C362,1118.4,359.6,1118.2,357.2,1118.2
					L357.2,1118.2z"/>
			</g>
			<g>
				<path class="st56" d="M357.2,1174c-1.2,0-2.5-0.1-3.7-0.4c-5-1-9.3-3.9-12.1-8.1c-2.8-4.2-3.8-9.3-2.9-14.3
					c1.8-8.9,9.6-15.3,18.6-15.3c1.2,0,2.5,0.1,3.7,0.4c10.3,2,17,12.1,15,22.4C374.1,1167.5,366.2,1174,357.2,1174z"/>
				<path class="st57" d="M357.2,1134.9v2c1.2,0,2.4,0.1,3.5,0.3c9.8,1.9,16.1,11.4,14.2,21.2c-1.7,8.4-9.1,14.5-17.7,14.5
					c-1.2,0-2.4-0.1-3.5-0.3c-9.8-1.9-16.1-11.4-14.2-21.2c1.7-8.4,9.1-14.5,17.7-14.5L357.2,1134.9 M357.1,1134.9
					c-9.4,0-17.7,6.6-19.6,16.1c-2.1,10.9,4.9,21.4,15.8,23.5c1.3,0.3,2.6,0.4,3.9,0.4c9.4,0,17.7-6.6,19.6-16.1
					c2.1-10.9-4.9-21.4-15.8-23.5C359.7,1135,358.4,1134.9,357.1,1134.9L357.1,1134.9z"/>
			</g>
			<circle class="st58" cx="357.5" cy="1155" r="6.7"/>
			<g>
				<path class="st59" d="M350,1132c-0.1,0-0.3,0-0.4,0c-0.6-0.1-1-0.4-1.3-0.9s-0.4-1-0.3-1.6c0.2-1,1.1-1.7,2.1-1.7
					c0.1,0,0.3,0,0.4,0c1.1,0.2,1.9,1.3,1.7,2.5C351.9,1131.3,351,1132,350,1132z"/>
				<path class="st60" d="M350,1128.1L350,1128.1c0.1,0,0.2,0,0.4,0c1,0.2,1.7,1.2,1.5,2.2c-0.2,0.9-0.9,1.5-1.8,1.5
					c-0.1,0-0.2,0-0.4,0c-0.5-0.1-0.9-0.4-1.2-0.8c-0.3-0.4-0.4-0.9-0.3-1.4C348.4,1128.7,349.2,1128.1,350,1128.1 M350,1127.6
					c-1.1,0-2.1,0.8-2.3,1.9c-0.3,1.3,0.6,2.5,1.9,2.8c0.2,0,0.3,0,0.5,0c1.1,0,2.1-0.8,2.3-1.9c0.3-1.3-0.6-2.5-1.9-2.8
					C350.3,1127.6,350.2,1127.6,350,1127.6L350,1127.6z"/>
			</g>
			<g>
				<path class="st59" d="M364.3,1131.7c-0.1,0-0.3,0-0.4,0c-1.1-0.2-1.9-1.3-1.7-2.5c0.2-1,1.1-1.7,2.1-1.7c0.1,0,0.3,0,0.4,0
					c0.6,0.1,1,0.4,1.3,0.9s0.4,1,0.3,1.6C366.2,1131,365.3,1131.7,364.3,1131.7z"/>
				<g>
					<path class="st60" d="M364.3,1127.7L364.3,1127.7c0.1,0,0.2,0,0.4,0c0.5,0.1,0.9,0.4,1.2,0.8c0.3,0.4,0.4,0.9,0.3,1.4
						c-0.2,0.9-0.9,1.5-1.8,1.5c-0.1,0-0.2,0-0.4,0c-0.5-0.1-0.9-0.4-1.2-0.8c-0.3-0.4-0.4-0.9-0.3-1.4
						C362.6,1128.4,363.4,1127.7,364.3,1127.7 M364.3,1127.2c-1.1,0-2.1,0.8-2.3,1.9c-0.3,1.3,0.6,2.5,1.9,2.8c0.2,0,0.3,0,0.5,0
						c1.1,0,2.1-0.8,2.3-1.9c0.3-1.3-0.6-2.5-1.9-2.8C364.6,1127.3,364.4,1127.2,364.3,1127.2L364.3,1127.2z"/>
				</g>
			</g>
			<g>
				<path class="st61" d="M359.4,1144.5c-0.1,0-0.2,0-0.3,0c-0.3-0.1-0.6-0.3-0.8-0.6c-0.2-0.3-0.3-0.6-0.2-1
					c0.1-0.6,0.7-1.1,1.3-1.1c0.1,0,0.2,0,0.3,0c0.3,0.1,0.6,0.3,0.8,0.6c0.2,0.3,0.3,0.6,0.2,1C360.6,1144,360,1144.5,359.4,1144.5
					z"/>
				<g>
					<path class="st62" d="M359.4,1142.1L359.4,1142.1c0.1,0,0.1,0,0.2,0c0.3,0.1,0.5,0.2,0.7,0.4s0.2,0.5,0.2,0.8
						c-0.1,0.5-0.5,0.9-1,0.9c-0.1,0-0.1,0-0.2,0c-0.3-0.1-0.5-0.2-0.7-0.4c-0.2-0.2-0.2-0.5-0.2-0.8
						C358.5,1142.4,358.9,1142.1,359.4,1142.1 M359.4,1141.6c-0.7,0-1.4,0.5-1.5,1.3c-0.2,0.8,0.4,1.7,1.2,1.8c0.1,0,0.2,0,0.3,0
						c0.7,0,1.4-0.5,1.5-1.3c0.2-0.8-0.4-1.7-1.2-1.8C359.6,1141.6,359.5,1141.6,359.4,1141.6L359.4,1141.6z"/>
				</g>
			</g>
			<g>
				<path class="st61" d="M368.6,1158.1c-0.1,0-0.2,0-0.3,0c-0.7-0.1-1.2-0.8-1-1.5c0.1-0.6,0.7-1.1,1.3-1.1c0.1,0,0.2,0,0.3,0
					c0.3,0.1,0.6,0.3,0.8,0.6s0.3,0.6,0.2,1C369.7,1157.7,369.2,1158.1,368.6,1158.1z"/>
				<g>
					<path class="st62" d="M368.5,1155.7L368.5,1155.7c0.1,0,0.1,0,0.2,0c0.6,0.1,0.9,0.7,0.8,1.2c-0.1,0.5-0.5,0.9-1,0.9
						c-0.1,0-0.1,0-0.2,0c-0.6-0.1-0.9-0.7-0.8-1.2C367.6,1156.1,368,1155.7,368.5,1155.7 M368.5,1155.2c-0.7,0-1.4,0.5-1.5,1.3
						c-0.2,0.8,0.4,1.7,1.2,1.8c0.1,0,0.2,0,0.3,0c0.7,0,1.4-0.5,1.5-1.3c0.2-0.8-0.4-1.7-1.2-1.8
						C368.8,1155.2,368.6,1155.2,368.5,1155.2L368.5,1155.2z"/>
				</g>
			</g>
			<g>
				<path class="st61" d="M355.2,1166.9c-0.1,0-0.2,0-0.3,0c-0.3-0.1-0.6-0.3-0.8-0.6c-0.2-0.3-0.3-0.6-0.2-1
					c0.1-0.6,0.7-1.1,1.3-1.1c0.1,0,0.2,0,0.3,0c0.3,0.1,0.6,0.3,0.8,0.6c0.2,0.3,0.3,0.6,0.2,1
					C356.3,1166.4,355.8,1166.9,355.2,1166.9z"/>
				<g>
					<path class="st62" d="M355.2,1164.5L355.2,1164.5c0.1,0,0.1,0,0.2,0c0.3,0.1,0.5,0.2,0.7,0.4c0.2,0.2,0.2,0.5,0.2,0.8
						c-0.1,0.5-0.5,0.9-1,0.9c-0.1,0-0.1,0-0.2,0c-0.3-0.1-0.5-0.2-0.7-0.4c-0.2-0.2-0.2-0.5-0.2-0.8
						C354.2,1164.9,354.7,1164.5,355.2,1164.5 M355.2,1164c-0.7,0-1.4,0.5-1.5,1.3c-0.2,0.8,0.4,1.7,1.2,1.8c0.1,0,0.2,0,0.3,0
						c0.7,0,1.4-0.5,1.5-1.3c0.2-0.8-0.4-1.7-1.2-1.8C355.4,1164,355.3,1164,355.2,1164L355.2,1164z"/>
				</g>
			</g>
			<g>
				<path class="st61" d="M345.7,1154.3c-0.1,0-0.2,0-0.3,0c-0.3-0.1-0.6-0.3-0.8-0.6c-0.2-0.3-0.3-0.6-0.2-1
					c0.1-0.6,0.7-1.1,1.3-1.1c0.1,0,0.2,0,0.3,0c0.3,0.1,0.6,0.3,0.8,0.6c0.2,0.3,0.3,0.6,0.2,1
					C346.8,1153.8,346.3,1154.3,345.7,1154.3z"/>
				<g>
					<path class="st62" d="M345.7,1151.9L345.7,1151.9c0.1,0,0.1,0,0.2,0c0.6,0.1,0.9,0.7,0.8,1.2c-0.1,0.5-0.5,0.9-1,0.9
						c-0.1,0-0.1,0-0.2,0c-0.6-0.1-0.9-0.7-0.8-1.2C344.7,1152.3,345.2,1151.9,345.7,1151.9 M345.7,1151.4c-0.7,0-1.4,0.5-1.5,1.3
						c-0.2,0.8,0.4,1.7,1.2,1.8c0.1,0,0.2,0,0.3,0c0.7,0,1.4-0.5,1.5-1.3c0.2-0.8-0.4-1.7-1.2-1.8
						C345.9,1151.4,345.8,1151.4,345.7,1151.4L345.7,1151.4z"/>
				</g>
			</g>
			<g>
				<path class="st59" d="M377.3,1139.9c-0.1,0-0.3,0-0.4,0c-1.1-0.2-1.9-1.3-1.7-2.5c0.2-1,1.1-1.7,2.1-1.7c0.1,0,0.3,0,0.4,0
					c0.6,0.1,1,0.4,1.3,0.9s0.4,1,0.3,1.6C379.2,1139.1,378.3,1139.9,377.3,1139.9z"/>
				<g>
					<path class="st60" d="M377.3,1135.9L377.3,1135.9c0.1,0,0.2,0,0.4,0c0.5,0.1,0.9,0.4,1.2,0.8c0.3,0.4,0.4,0.9,0.3,1.4
						c-0.2,0.9-0.9,1.5-1.8,1.5c-0.1,0-0.2,0-0.4,0c-0.5-0.1-0.9-0.4-1.2-0.8c-0.3-0.4-0.4-0.9-0.3-1.4
						C375.6,1136.5,376.4,1135.9,377.3,1135.9 M377.3,1135.4c-1.1,0-2.1,0.8-2.3,1.9c-0.3,1.3,0.6,2.5,1.9,2.8c0.2,0,0.3,0,0.5,0
						c1.1,0,2.1-0.8,2.3-1.9c0.3-1.3-0.6-2.5-1.9-2.8C377.6,1135.4,377.4,1135.4,377.3,1135.4L377.3,1135.4z"/>
				</g>
			</g>
			<g>
				<path class="st59" d="M382.8,1150.8c-0.1,0-0.3,0-0.4,0c-1.1-0.2-1.9-1.3-1.7-2.5c0.2-1,1.1-1.7,2.1-1.7c0.1,0,0.3,0,0.4,0
					c1.1,0.2,1.9,1.3,1.7,2.5C384.7,1150.1,383.8,1150.8,382.8,1150.8z"/>
				<g>
					<path class="st60" d="M382.8,1146.8L382.8,1146.8c0.1,0,0.2,0,0.4,0c0.5,0.1,0.9,0.4,1.2,0.8c0.3,0.4,0.4,0.9,0.3,1.4
						c-0.2,0.9-0.9,1.5-1.8,1.5c-0.1,0-0.2,0-0.4,0c-1-0.2-1.7-1.2-1.5-2.2C381.2,1147.5,382,1146.8,382.8,1146.8 M382.8,1146.3
						c-1.1,0-2.1,0.8-2.3,1.9c-0.3,1.3,0.6,2.5,1.9,2.8c0.2,0,0.3,0,0.5,0c1.1,0,2.1-0.8,2.3-1.9c0.3-1.3-0.6-2.5-1.9-2.8
						C383.1,1146.4,383,1146.3,382.8,1146.3L382.8,1146.3z"/>
				</g>
			</g>
			<g>
				<path class="st59" d="M382.3,1163.7c-0.1,0-0.3,0-0.4,0c-1.1-0.2-1.9-1.3-1.7-2.5c0.2-1,1.1-1.7,2.1-1.7c0.1,0,0.3,0,0.4,0
					c0.6,0.1,1,0.4,1.3,0.9s0.4,1,0.3,1.6C384.2,1163,383.3,1163.7,382.3,1163.7z"/>
				<g>
					<path class="st60" d="M382.3,1159.7L382.3,1159.7c0.1,0,0.2,0,0.4,0c0.5,0.1,0.9,0.4,1.2,0.8c0.3,0.4,0.4,0.9,0.3,1.4
						c-0.2,0.9-0.9,1.5-1.8,1.5c-0.1,0-0.2,0-0.4,0c-0.5-0.1-0.9-0.4-1.2-0.8c-0.3-0.4-0.4-0.9-0.3-1.4
						C380.7,1160.3,381.4,1159.7,382.3,1159.7 M382.3,1159.2c-1.1,0-2.1,0.8-2.3,1.9c-0.3,1.3,0.6,2.5,1.9,2.8c0.2,0,0.3,0,0.5,0
						c1.1,0,2.1-0.8,2.3-1.9c0.3-1.3-0.6-2.5-1.9-2.8C382.6,1159.2,382.5,1159.2,382.3,1159.2L382.3,1159.2z"/>
				</g>
			</g>
			<g>
				<path class="st59" d="M376.4,1174.5c-0.1,0-0.3,0-0.4,0c-1.1-0.2-1.9-1.3-1.7-2.5c0.2-1,1.1-1.7,2.1-1.7c0.1,0,0.3,0,0.4,0
					c1.1,0.2,1.9,1.3,1.7,2.5C378.3,1173.8,377.4,1174.5,376.4,1174.5z"/>
				<g>
					<path class="st60" d="M376.4,1170.6L376.4,1170.6c0.1,0,0.2,0,0.4,0c0.5,0.1,0.9,0.4,1.2,0.8c0.3,0.4,0.4,0.9,0.3,1.4
						c-0.2,0.9-0.9,1.5-1.8,1.5c-0.1,0-0.2,0-0.4,0c-0.5-0.1-0.9-0.4-1.2-0.8c-0.3-0.4-0.4-0.9-0.3-1.4
						C374.8,1171.2,375.5,1170.6,376.4,1170.6 M376.4,1170.1c-1.1,0-2.1,0.8-2.3,1.9c-0.3,1.3,0.6,2.5,1.9,2.8c0.2,0,0.3,0,0.5,0
						c1.1,0,2.1-0.8,2.3-1.9c0.3-1.3-0.6-2.5-1.9-2.8C376.7,1170.1,376.6,1170.1,376.4,1170.1L376.4,1170.1z"/>
				</g>
			</g>
			<g>
				<path class="st59" d="M365.3,1181.6c-0.1,0-0.3,0-0.4,0c-0.6-0.1-1-0.4-1.3-0.9s-0.4-1-0.3-1.6c0.2-1,1.1-1.7,2.1-1.7
					c0.1,0,0.3,0,0.4,0c1.1,0.2,1.9,1.3,1.7,2.5C367.1,1180.9,366.3,1181.6,365.3,1181.6z"/>
				<g>
					<path class="st60" d="M365.3,1177.6L365.3,1177.6c0.1,0,0.2,0,0.4,0c1,0.2,1.7,1.2,1.5,2.2c-0.2,0.9-0.9,1.5-1.8,1.5
						c-0.1,0-0.2,0-0.4,0c-0.5-0.1-0.9-0.4-1.2-0.8c-0.3-0.4-0.4-0.9-0.3-1.4C363.6,1178.3,364.4,1177.6,365.3,1177.6 M365.3,1177.1
						c-1.1,0-2.1,0.8-2.3,1.9c-0.3,1.3,0.6,2.5,1.9,2.8c0.2,0,0.3,0,0.5,0c1.1,0,2.1-0.8,2.3-1.9c0.3-1.3-0.6-2.5-1.9-2.8
						C365.6,1177.2,365.4,1177.1,365.3,1177.1L365.3,1177.1z"/>
				</g>
			</g>
			<g>
				<path class="st59" d="M352.2,1183.1c-0.1,0-0.3,0-0.4,0c-1.1-0.2-1.9-1.3-1.7-2.5c0.2-1,1.1-1.7,2.1-1.7c0.1,0,0.3,0,0.4,0
					c1.1,0.2,1.9,1.3,1.7,2.5C354.1,1182.4,353.2,1183.1,352.2,1183.1z"/>
				<g>
					<path class="st60" d="M352.2,1179.1L352.2,1179.1c0.1,0,0.2,0,0.4,0c0.5,0.1,0.9,0.4,1.2,0.8c0.3,0.4,0.4,0.9,0.3,1.4
						c-0.2,0.9-0.9,1.5-1.8,1.5c-0.1,0-0.2,0-0.4,0c-0.5-0.1-0.9-0.4-1.2-0.8c-0.3-0.4-0.4-0.9-0.3-1.4
						C350.6,1179.8,351.3,1179.1,352.2,1179.1 M352.2,1178.6c-1.1,0-2.1,0.8-2.3,1.9c-0.3,1.3,0.6,2.5,1.9,2.8c0.2,0,0.3,0,0.5,0
						c1.1,0,2.1-0.8,2.3-1.9c0.3-1.3-0.6-2.5-1.9-2.8C352.5,1178.6,352.4,1178.6,352.2,1178.6L352.2,1178.6z"/>
				</g>
			</g>
			<g>
				<path class="st59" d="M341.5,1178.4c-0.1,0-0.3,0-0.4,0c-0.6-0.1-1-0.4-1.3-0.9s-0.4-1-0.3-1.6c0.2-1,1.1-1.7,2.1-1.7
					c0.1,0,0.3,0,0.4,0c1.1,0.2,1.9,1.3,1.7,2.5C343.3,1177.6,342.5,1178.4,341.5,1178.4z"/>
				<g>
					<path class="st60" d="M341.5,1174.4L341.5,1174.4c0.1,0,0.2,0,0.4,0c0.5,0.1,0.9,0.4,1.2,0.8c0.3,0.4,0.4,0.9,0.3,1.4
						c-0.2,0.9-0.9,1.5-1.8,1.5c-0.1,0-0.2,0-0.4,0c-0.5-0.1-0.9-0.4-1.2-0.8c-0.3-0.4-0.4-0.9-0.3-1.4
						C339.8,1175,340.6,1174.4,341.5,1174.4 M341.5,1173.9c-1.1,0-2.1,0.8-2.3,1.9c-0.3,1.3,0.6,2.5,1.9,2.8c0.2,0,0.3,0,0.5,0
						c1.1,0,2.1-0.8,2.3-1.9c0.3-1.3-0.6-2.5-1.9-2.8C341.8,1173.9,341.6,1173.9,341.5,1173.9L341.5,1173.9z"/>
				</g>
			</g>
			<g>
				<path class="st59" d="M333.7,1168.8c-0.1,0-0.3,0-0.4,0c-0.6-0.1-1-0.4-1.3-0.9s-0.4-1-0.3-1.6c0.2-1,1.1-1.7,2.1-1.7
					c0.1,0,0.3,0,0.4,0c1.1,0.2,1.9,1.3,1.7,2.5C335.6,1168.1,334.7,1168.8,333.7,1168.8z"/>
				<g>
					<path class="st60" d="M333.7,1164.8L333.7,1164.8c0.1,0,0.2,0,0.4,0c0.5,0.1,0.9,0.4,1.2,0.8c0.3,0.4,0.4,0.9,0.3,1.4
						c-0.2,0.9-0.9,1.5-1.8,1.5c-0.1,0-0.2,0-0.4,0c-0.5-0.1-0.9-0.4-1.2-0.8c-0.3-0.4-0.4-0.9-0.3-1.4
						C332.1,1165.5,332.8,1164.8,333.7,1164.8 M333.7,1164.3c-1.1,0-2.1,0.8-2.3,1.9c-0.3,1.3,0.6,2.5,1.9,2.8c0.2,0,0.3,0,0.5,0
						c1.1,0,2.1-0.8,2.3-1.9c0.3-1.3-0.6-2.5-1.9-2.8C334,1164.3,333.9,1164.3,333.7,1164.3L333.7,1164.3z"/>
				</g>
			</g>
			<g>
				<path class="st59" d="M330.6,1157.2c-0.1,0-0.3,0-0.4,0c-0.6-0.1-1-0.4-1.3-0.9s-0.4-1-0.3-1.6c0.2-1,1.1-1.7,2.1-1.7
					c0.1,0,0.3,0,0.4,0c0.6,0.1,1,0.4,1.3,0.9s0.4,1,0.3,1.6C332.4,1156.5,331.6,1157.2,330.6,1157.2z"/>
				<g>
					<path class="st60" d="M330.6,1153.2L330.6,1153.2c0.1,0,0.2,0,0.4,0c0.5,0.1,0.9,0.4,1.2,0.8c0.3,0.4,0.4,0.9,0.3,1.4
						c-0.2,0.9-0.9,1.5-1.8,1.5c-0.1,0-0.2,0-0.4,0c-0.5-0.1-0.9-0.4-1.2-0.8c-0.3-0.4-0.4-0.9-0.3-1.4
						C328.9,1153.9,329.7,1153.2,330.6,1153.2 M330.6,1152.7c-1.1,0-2.1,0.8-2.3,1.9c-0.3,1.3,0.6,2.5,1.9,2.8c0.2,0,0.3,0,0.5,0
						c1.1,0,2.1-0.8,2.3-1.9c0.3-1.3-0.6-2.5-1.9-2.8C330.9,1152.7,330.7,1152.7,330.6,1152.7L330.6,1152.7z"/>
				</g>
			</g>
			<g>
				<path class="st59" d="M332.4,1146.5c-0.1,0-0.3,0-0.4,0c-0.6-0.1-1-0.4-1.3-0.9s-0.4-1-0.3-1.6c0.2-1,1.1-1.7,2.1-1.7
					c0.1,0,0.3,0,0.4,0c0.6,0.1,1,0.4,1.3,0.9s0.4,1,0.3,1.6C334.3,1145.8,333.4,1146.5,332.4,1146.5z"/>
				<g>
					<path class="st60" d="M332.4,1142.6L332.4,1142.6c0.1,0,0.2,0,0.4,0c1,0.2,1.7,1.2,1.5,2.2c-0.2,0.9-0.9,1.5-1.8,1.5
						c-0.1,0-0.2,0-0.4,0c-0.5-0.1-0.9-0.4-1.2-0.8c-0.3-0.4-0.4-0.9-0.3-1.4C330.8,1143.2,331.5,1142.6,332.4,1142.6 M332.4,1142.1
						c-1.1,0-2.1,0.8-2.3,1.9c-0.3,1.3,0.6,2.5,1.9,2.8c0.2,0,0.3,0,0.5,0c1.1,0,2.1-0.8,2.3-1.9c0.3-1.3-0.6-2.5-1.9-2.8
						C332.7,1142.1,332.6,1142.1,332.4,1142.1L332.4,1142.1z"/>
				</g>
			</g>
			<g>
				<path class="st59" d="M338.8,1137.2c-0.1,0-0.3,0-0.4,0c-1.1-0.2-1.9-1.3-1.7-2.5c0.2-1,1.1-1.7,2.1-1.7c0.1,0,0.3,0,0.4,0
					c0.6,0.1,1,0.4,1.3,0.9s0.4,1,0.3,1.6C340.6,1136.5,339.8,1137.2,338.8,1137.2z"/>
				<g>
					<path class="st60" d="M338.7,1133.3L338.7,1133.3c0.1,0,0.2,0,0.4,0c0.5,0.1,0.9,0.4,1.2,0.8c0.3,0.4,0.4,0.9,0.3,1.4
						c-0.2,0.9-0.9,1.5-1.8,1.5c-0.1,0-0.2,0-0.4,0c-0.5-0.1-0.9-0.4-1.2-0.8c-0.3-0.4-0.4-0.9-0.3-1.4
						C337.1,1133.9,337.9,1133.3,338.7,1133.3 M338.7,1132.8c-1.1,0-2.1,0.8-2.3,1.9c-0.3,1.3,0.6,2.5,1.9,2.8c0.2,0,0.3,0,0.5,0
						c1.1,0,2.1-0.8,2.3-1.9c0.3-1.3-0.6-2.5-1.9-2.8C339.1,1132.8,338.9,1132.8,338.7,1132.8L338.7,1132.8z"/>
				</g>
			</g>
		</g>
		<path class="st63" d="M398.3,1186.6c0,0,27-49.2-18.5-77.9c0,0-27.1-11.8-47.3,1.1c-20.3,12.9-26,34.8-27.4,54.4
			c0,0-3.8-6.9-0.7-22.7s19.9-49,63.3-42.4c0,0,49.5,8.5,42.4,63.3C410,1162.4,407.8,1176.5,398.3,1186.6z"/>
		<path class="st68" d="M545.9,1023.5c0,0,14.7,52.3,10.5,117.6"/>
		<g>
			<path class="st70" d="M294.2,1158.6c-5.9-0.2-51.2-2.3-84.1-6.4c-8.5-1.1-15.3-4.8-20.1-11.1c-11.1-14.4-8.7-37.9-8.4-40.6
				l10.5-5.4l1.8-17.5l0.3-1.9c3.4,0.5,23.4,3.5,36.9,4.3c0.6,0,1.1,0,1.6,0c4.6,0,8.2-1.2,10.6-3.7c2-2,2.7-4.3,2.9-5.8l3.1,4.7
				c3.8,8.7,14.3,12.6,14.8,12.7l49.2,11.8C288.2,1120.8,293.2,1153.6,294.2,1158.6z"/>
			<g>
				<path class="st65" d="M246.4,1072l2.4,3.6c3.9,8.9,14.6,12.8,15.1,13l0,0l0.1,0l48.2,11.6c-13.6,11.6-17.9,26.7-19.1,37.5
					c-1.1,9.6,0,17.4,0.5,20.3c-8-0.3-51.6-2.4-83.4-6.3c-8.4-1-15-4.7-19.8-10.9c-6-7.8-7.9-18.4-8.5-25.9
					c-0.5-6.8,0-12.4,0.2-14.1l10-5.2l0.5-0.2l0.1-0.5l1.8-17.2l0.2-1.4c4.5,0.7,23.4,3.5,36.5,4.3c0.6,0,1.1,0.1,1.7,0.1
					c4.8,0,8.5-1.3,10.9-3.8C245.2,1075.3,246,1073.5,246.4,1072 M245.8,1069.3c0,0,0.2,10.5-13.1,10.5c-0.5,0-1.1,0-1.6,0
					c-15-0.9-37.4-4.4-37.4-4.4l-0.3,2.4l-1.8,17.2l-10.5,5.4c0,0-6.6,48.1,28.9,52.5c35.5,4.4,84.8,6.4,84.8,6.4s-8.5-37,19.6-59.4
					l-50.1-12c0,0-10.8-3.8-14.5-12.5L245.8,1069.3L245.8,1069.3z"/>
			</g>
		</g>
		<path class="st11" d="M238.8,1103.6c0,0,28.5,2.8,32.6-13.1l42,10.1c0,0-20.1,14.1-19.6,41.9l-102.7,1.4c0,0-13.1-12.9-10-43.7
			l10.5-5.4C191.6,1094.9,208.7,1104.6,238.8,1103.6z"/>
		<path class="st65" d="M294.8,1159.2l-1-16.6l-102.7,1.4c0,0,7,7.5,18.9,8.8C221.9,1154.1,294.8,1159.2,294.8,1159.2z"/>
		<path class="st10" d="M635.6,956.4c0,0,28.2,7.5,62.8,24.6c34.6,17,55.2,29.7,55.2,29.7s3,3,9.4,2.4s15.6-1.5,15.6-1.5
			s-68.2-45.7-127.6-61.9c0,0-2.5-1.2-5.4,0.1C642.7,951,635.6,956.4,635.6,956.4z"/>
		<path d="M735.8,1011.8c0,0,19.1,11,8,14.2l-16.8,2.4c0,0-7.3-0.3-15.1-0.9c-7.8-0.6-322.1-6.5-322.1-6.5s-17.7-0.6-28.5-8.1
			c-10.8-7.5-11.5-9.8-2.8-15.5s40.2-23.1,40.2-23.1s23.6-12.5,51-15.6c27.4-3.1,59.6-7.5,121.2-3.8S694.2,984.4,735.8,1011.8z"/>
		<path class="st75" d="M540.2,957.2l15.2,63.3l133.5,3.1l0.6-29.8c0,0,1.1-2.9-6-5.7C676.5,985.3,614.6,954.1,540.2,957.2z"/>
		<path class="st75" d="M524.5,957.8c0,0,3.7,38.6,10.1,61.6l-128-1.9l-3.4-22.7c0,0,1.8-20.4,22.5-26.9
			C450.8,960.1,524.5,957.8,524.5,957.8z"/>
		<path class="st76" d="M532,956.7c0,0,6.3,40.9,13.5,63.3"/>
		<path class="st77" d="M683.3,1000.5l-2.9,14.7c0,0,1.3,6.4,12.2,7.1c10.9,0.7,23.8-2.4,23.8-2.4s6.7-3.9,0.8-8.8
			c-5.9-4.9-10.6-9.6-23.9-12.5C685.1,996.8,683.3,1000.5,683.3,1000.5z"/>
		<path class="st78" d="M540.2,957.2l15.2,63.3c0,0,54.5-43.4,133.7-22.4l0.5-4.3c0,0,1-2.5-6-5.7
			C676.6,985,608.5,953.3,540.2,957.2z"/>
		<path class="st9" d="M635.6,956.4c0,0,80.4,18.4,143,55.1c0,0-64.7-44.3-127.6-61.9c0,0-3-1.6-7,1.1
			C640.1,953.3,635.6,956.4,635.6,956.4z"/>
		<path class="st79" d="M362,958.4l18.1,4.5c0,0-54.8,26.3-96.5,46.2l-22.3-2.6C261.3,1006.5,313.8,976.8,362,958.4z"/>
		<path class="st28" d="M192.3,1034.2l26.2,4.9c0,0,7.2-0.1,14.8,10.8c7.5,10.9,11.8,17.9,11.8,17.9s3.3,10-6.8,12.1
			c-10.1,2.1-45.7-2.8-45.7-2.8S187.5,1074.2,192.3,1034.2z"/>
		<path class="st67" d="M195.5,1051.2c0,0,36.2,5.5,40.6,2.6c0,0-6.3-13-17.6-15.3c-11.2-2.2-26.4-4.9-26.4-4.9l-1.3,16.4
			C190.9,1050,192.6,1050.6,195.5,1051.2z"/>
		<path class="st67" d="M243.8,1065.6c0,0-9.6,12.6-53.5-0.2c0,0,0,9.9,2.3,11.7c0,0,32.8,5.3,44.7,3.6
			C237.2,1080.7,251.7,1077.7,243.8,1065.6z"/>
		<path class="st80" d="M261.3,1006.5c0,0,64.5-34.5,92.4-31l28.8-11.9l-20.5-5.1C362,958.4,319.5,973.4,261.3,1006.5z"/>
		<path class="st78" d="M525.7,969.6c0,0-93.8,3.5-101.9,48.5l-17.2-0.4l-3.4-22.7c0,0-2.6-18.7,22-27c27.1-9.2,99.2-10,99.2-10
			L525.7,969.6z"/>
		<g>
			<path class="st71" d="M732.3,1042.7c0,0,81.8-1.7,141.4,6.4l19.7,19.6l14.3,7l-28,0.3c0,0-4.3-12.1-27.6-15.8
				c-23.3-3.7-53.3-2.3-94.3,9.6c0,0-7.9,1.5-12,25.6c-4.2,24.1-8.2,42.1-8.2,42.1l-2.2-0.2C735.4,1137.4,743.6,1083.9,732.3,1042.7
				z"/>
		</g>
		<path class="st81" d="M757.2,1049.3l-9.4,0.4c0,0-1.2,0.3-1.3,4c-0.2,3.6,0.1,4.3,4.3,4c4.2-0.2,8.1-0.5,8.1-0.5s2.9,0.9,2-5.5
			C760.9,1051.7,762,1048.1,757.2,1049.3z"/>
		<path class="st82" d="M283.6,1009.2c0,0-24.3,10.8-84.4,19l-0.7,6.4"/>
		<path class="st82" d="M380.1,1018.8c0,0-0.4,5.4-3.8,8.3c0,0-2.3,2.9-2.2,6.3c0.1,3.4-0.7,7.8-0.6,9.5l31.7,46.9"/>
		<path class="st68" d="M727,1028.3c0,0,4.9,10.6,5.2,14.4c0.4,3.8,7.7,21.3,6.6,53.2c-1.1,31.9-1.2,41.7-1.2,41.7"/>
		<path class="st82" d="M949.1,1072.8c0,0-2.3,6.2-21.7,4.2s-65.3-0.2-83.3,1.5"/>
	</g>
</g>
<g id="ten_00000098906372602984753350000010503549982832515468_">
</g>
<g id="eleven_00000180345820641820120410000009044592103142380464_">
</g>
<g id="twelve">
</g>
<g id="thirteen_00000173859306950962761430000017419446578002950540_">
</g>
<g id="fourteen">
</g>
<g id="fifteen_00000103262623346785252190000005497341088573515404_">
</g>
<g id="sixteen_00000052784415532825981170000013120508718389060798_">
</g>
<g id="seventeen_00000052799129178776355750000005236059528330747796_">
</g>
<g id="eighteen_00000054256262866476431880000018286803152678894488_">
</g>
<g id="nineteen_00000107558268356232088990000008456042227242415802_">
</g>
<g id="twenty">
</g>
</svg>
