<?xml version="1.0" encoding="UTF-8"?>
<svg xmlns="http://www.w3.org/2000/svg" version="1.1" viewBox="0 0 576 576">
  <defs>
    <style>
      .cls-1 {
        fill: #0b54a2;
      }
    </style>
  </defs>
  <!-- Generator: Adobe Illustrator 28.6.0, SVG Export Plug-In . SVG Version: 1.2.0 Build 709)  -->
  <g>
    <g id="Layer_1">
      <g>
        <path class="cls-1" d="M68.8,208.1c.9-2.2,1.7-4.3,2.6-6.5,5-11.5,15.8-15.6,27.3-10.4,6.3,2.9,10.8,7.7,13.8,13.6,4.2,8.2,7.7,16.8,11.2,25.3,2,4.9,3.6,10,5.7,15.7,15.8-8.8,27.4-1.1,38.5,8.9,10.8,9.8,21.6,19.7,32.5,29.5,11.2,10.1,24.3,17.1,37.4,24.3,8.3,4.6,16.2,10,23.7,15.8,13.1,10.2,19.8,24.2,22.2,40.6,4,27.6,4,55.4,3.6,83.1,0,7-2.4,9.3-9.2,9.3-32,.1-63.9.1-95.9,0-6.2,0-8.9-2-9-7.6-.3-16.1-.1-32.1-.1-49.9-5.3-5-12.3-11.1-18.7-17.7-15.7-16.3-31.4-32.8-46.7-49.5-9-9.8-14.4-21.7-17.9-34.6-5.6-20.7-11.7-41.2-17.6-61.9-1.3-4.6-2.4-9.2-3.6-13.7,0-4.8,0-9.6,0-14.3ZM272.4,399.8c-.8-15.2-1.4-29.3-5.4-42.7-1.8-6-5.7-11.8-9.8-16.7-7.9-9.6-18.6-15.7-29.7-21.1-12.6-6.2-24.7-13.3-35.2-22.7-8.7-7.8-17-16-25.8-23.5-6.1-5.2-12.7-9.8-19.4-14.2-2.2-1.4-5.4-3.3-8.1-.2-2.6,2.9-1,5.9.4,8.3,3.6,5.8,7.2,11.8,11.7,16.9,12.6,14.3,25.7,28.3,38.6,42.4,1.6,1.8,3.4,3.4,4.8,5.3,2.3,3.4,1.7,7.1-1.4,9.5-3,2.4-6.1,2.4-8.9-.2-2.6-2.4-5.1-5.1-7.4-7.7-14.2-15.8-28.5-31.4-42.4-47.4-4.4-5.1-8.3-11-11-17.1-8.2-18.2-15.6-36.7-23.5-55-1.1-2.7-2.6-5.5-4.7-7.3-5.2-4.5-9.8-3.2-11,3.5-.8,4.9-.8,10.3.4,15,5.6,21.3,12.1,42.4,17.5,63.7,4.4,17.3,12.5,32.2,24.9,44.8,20.9,21.3,42.2,42.2,63.2,63.4,2.9,2.9,6,3.4,9.7,3.4,12.2,0,24.5,0,36.7,0,11.6,0,23.2,0,36,0ZM272.3,442.7v-28.1c-18.2-1.6-77.5-.9-84.1.9v27.2h84.1Z"/>
        <path class="cls-1" d="M511.8,222.5c-6.4,22.6-13.4,45.1-18.9,67.9-4.9,20.4-14.5,37.8-28.8,52.7-17.2,17.9-34.8,35.3-52.3,52.8-1.9,1.9-4.1,3.5-5.1,4.3.3,5.9.8,10.4.8,14.8.1,11.1.2,22.1,0,33.2-.2,7-2.4,9.3-9.2,9.3-32,.1-63.9.1-95.9,0-6.7,0-9-2.3-9-9.4-.2-15.2-.3-30.5.3-45.7.4-11.6,2-23.2,3-34.8,2.3-25.2,17-41.9,37.6-54.5,5.1-3.1,10.7-5.2,15.8-8.4,9.8-6.2,19.9-12.2,28.9-19.5,11.6-9.4,22.2-19.9,33.3-29.9,3.1-2.8,6.3-5.6,9.8-7.8,9-5.8,18.5-8.2,29-1.2,1.9-4.6,3.5-8.6,5.2-12.7,4-9.6,8.1-19.2,12.1-28.8,2.2-5.2,5.9-8.9,10.6-11.8,13.2-8.2,26.4-3.5,31.4,11.2.5,1.4,1.1,2.6,1.7,4v14.3ZM307.5,398.5c2.3.8,2.9,1.2,3.4,1.2,23.9,0,47.8,0,71.7.2,3.7,0,6.1-1.6,8.5-4,6.2-6.1,12.7-11.8,18.7-18,14.9-15,29.9-30,44.5-45.4,10.8-11.4,18.9-24.4,23.1-39.8,5.5-20.4,11.6-40.7,17.1-61.1,1.5-5.7,2.3-11.7,2.7-17.6.3-4.2-.6-8.6-5.2-10.4-2.9-1.1-8.1,2.8-10.3,7.2-.8,1.6-1.4,3.3-2.1,4.9-7.7,18.1-15.2,36.3-23.1,54.3-1.9,4.3-4.1,8.7-7.2,12.2-16.2,18.4-32.7,36.5-49.1,54.6-1.6,1.8-3.3,3.5-5.3,4.8-2.9,1.9-5.9,1-8.1-1.3-2.1-2.2-3.5-5-1.3-8,1.4-1.9,2.9-3.8,4.5-5.5,9.4-10,19.1-19.8,28.2-30,7.3-8.3,13.9-17.1,20.6-25.9,1.8-2.3,3.1-5.2,3.8-8,1-3.7-2.1-6.7-5.7-5.3-4.4,1.7-8.7,4-12.5,6.8-6.6,5.1-13.2,10.3-19,16.3-17.1,17.4-36.5,31.6-58.7,41.9-9.3,4.3-17.5,10.5-23.9,18.5-4,5-8.2,10.8-9.5,16.9-2.9,13.3-4.1,27-6,40.7ZM392.4,442.8v-28c-15.8-1.6-77.8-1-84.1.7v27.3h84.1Z"/>
        <path class="cls-1" d="M194.3,190.7c4.6-5.7,8.9-11.4,13.6-16.8,2.4-2.7,3.3-5.4,2.6-8.9-1.2-7-2.1-14.1-3.3-22.1,5.3-2.1,10.6-4.7,16.2-6.3,6.5-1.9,10.8-5.2,12.5-12.2,1.4-5.7,4.2-11,6.4-16.7,6.7,1.1,12.8,2,18.9,3.2,5.3,1,9.7.2,13.9-3.7,4.5-4.3,9.7-7.9,15.1-12.2,5.3,4.2,10.9,8.1,15.8,12.7,3.7,3.6,7.6,4.1,12.3,3.3,6.4-1.1,12.9-2.1,19.9-3.3,2.3,5.9,5,11.5,6.7,17.4,1.7,6.1,5.4,9.3,11.3,11.1,5.7,1.7,11.1,4.1,17.1,6.5-1.1,7.3-2,14.3-3.2,21.2-.7,4.1.2,7.4,3.1,10.6,4.6,5.1,8.7,10.6,13.1,16.1-4.3,5.3-8.1,10.6-12.6,15.3-3.6,3.9-4.4,8-3.5,13,1.2,6.1,2.1,12.3,3.2,19.3-5.9,2.4-11.8,5.2-17.9,7-5.8,1.7-8.9,5-10.6,10.6-1.7,5.6-4.2,11.1-6.5,17.3-7.4-1-14.5-1.6-21.4-3.2-4-.9-6.8,0-9.7,2.5-5.5,4.6-11.1,9-17,13.7-5.9-4.7-11.5-9.1-17-13.7-2.9-2.4-5.7-3.5-9.7-2.5-6.9,1.6-14,2.1-21.3,3.2-2.2-5.6-4.8-10.4-6-15.5-1.7-7.7-6.6-11.3-13.7-13.4-5.1-1.5-10-3.7-15.5-5.8,1-6.4,2-12.5,3.1-18.6,1-5.5.5-10.3-3.8-14.6-4.4-4.4-8-9.6-12.1-14.7ZM290.9,136.4c-30.1-.2-55,23.8-55.2,53.1-.2,28.8,21.3,55.5,54.7,55.4,33.8-.1,53.9-27,54.4-53.1.6-30.3-23.9-55.2-53.9-55.4Z"/>
        <path class="cls-1" d="M325.4,183.1c-7.3,6.2-12.9,11-19,16.2,1.6,7.4,3.3,14.8,5.3,23.8-8.5-3.4-14.2-8.6-21.6-12-6.3,3.8-12.9,7.8-21.3,12.8,2-9.3,3.6-16.6,5.3-24.5-5.9-5.1-11.9-10.3-19-16.4,9.1-.9,16.8-1.7,25.2-2.5,3.1-7.3,6.4-14.8,10-23.2,3.4,8.2,6.6,15.5,9.8,23.1,8.1.8,16,1.7,25.3,2.6Z"/>
      </g>
    </g>
  </g>
</svg>