<?xml version="1.0" encoding="utf-8"?>
<!-- Generator: Adobe Illustrator 26.3.1, SVG Export Plug-In . SVG Version: 6.00 Build 0)  -->
<svg version="1.1" xmlns="http://www.w3.org/2000/svg" xmlns:xlink="http://www.w3.org/1999/xlink" x="0px" y="0px"
	 viewBox="0 0 575 150" style="enable-background:new 0 0 575 150;" xml:space="preserve">
<style type="text/css">
	.st0{fill:#0A1A18;}
	.st1{fill:#EF3A38;}
	.st2{fill:#DA242B;}
	.st3{fill:#F1625D;}
	.st4{fill:#F1635E;}
	.st5{fill:#29292D;}
	.st6{fill:#2A3C51;}
	.st7{fill:#40617C;}
	.st8{fill:#EA1D27;}
	.st9{fill:#D61F26;}
	.st10{fill:#38322F;}
	.st11{fill:#4F514B;}
	.st12{fill:#F9F3EC;}
	.st13{fill:#F8E5A9;}
	.st14{fill:#353432;}
	.st15{fill:#2B2A28;}
	.st16{fill:#0F0E0D;}
	.st17{fill:#F9F8FC;}
	.st18{fill:#4F4D4C;}
	.st19{fill:#EAE8E8;}
	.st20{fill:#C4C4C4;}
	.st21{fill:#ABABAB;}
</style>
<g id="car-bottom">
	<g>
		<path class="st0" d="M147.17,115.62c0,0,2.68,2.66,9.97,2.58c7.3-0.08,9.24-0.08,9.24-0.08l0.04-2.27h5.66l45.81-1.3v2.12H344.8
			v-2.7l51.86-1.55c0,0,22.74-2.47,29.31-5.11c2.19-1,1.05-2.31-1.26-2.27c-2.31,0.04-46.91-32.73-46.91-32.73l-206.38,5.35
			L147.17,115.62z"/>
	</g>
</g>
<g id="car-color">
	<g>
		<path class="st1" d="M344.95,115.01c0,0-3.53-26.12,11.99-30.95s19.71-3.07,23.98-1.58c4.28,1.49,10.6,6.88,11.9,8.92
			c1.3,2.05,33.28-4.2,33.28-4.2s0.03-4.71-3.94-7.77c-3.97-3.06-5.71-7.55-5.61-8.55c0.1-1,4.13-3.9,4.13-3.9s-0.54-8.13-3.08-9.25
			c0,0-12.09-2.24-20.02-4.47s-21.92-10.39-43.05-15.09c-21.05-7.29-56.55-8.38-83.49-0.04c-21.9,7.91-48.17,24.11-50.29,24.6
			c-2.11,0.5-7.63,0.53-7.63,0.53s-49.97-0.94-75.58,25.68c0,0-0.22,3.73,0.16,7.11c0.38,3.38,4.36,15.19,0.83,16.09
			c0,0-0.33,0.39,0.43,0.55c0.76,0.16,4.31,2.33,14.53,2.39c10.22,0.06,11.69-1.06,11.69-1.06s0.77-15.27,2.93-18.59
			S179.01,78.45,189.7,80c10.69,1.56,22.6,3.79,25.92,13.67c3.32,9.88,4.13,20.37,4.13,20.37l8.53-0.2L344.95,115.01z"/>
		<path class="st2" d="M139.43,111.98c0,0-1.62-0.26-1.05,0.76c0.56,1.02,4.02,2.82,9.7,3.2l19.14,0c0,0-6.2-32.25,25.47-34.1
			c0,0,26.91-0.95,24.97,33.27l127.6,0.19c0,0-4.61-31.91,26.56-33.47c25.53,1.2,25.33,26.99,24.73,30.76c0,0,6.67-0.11,28.67-7.54
			l0.99-17.84l-5.25-0.3c0,0-24.18,2.97-27.95,2.68c0,0-6.44-10.8-21.6-11.5c0,0-25.57-1.78-29.04,30.72c0,0,0.5,3.37-3.77,3.37
			c-4.26,0-113.15-0.02-113.15-0.02s-4.55,0.79-4.63-3.62c-0.08-4.41-1.27-27.03-28.15-30.53c-10.35,0.83-28.71,6.51-29.05,34.39
			c0,0,0.36,1.96-1.6,2.27c-2.21,0-15.64-0.12-15.64-0.12S143.12,114.56,139.43,111.98z"/>
	</g>
</g>
<g id="reflection-car">
	<path class="st3" d="M145.03,82.74c0,0-7.45,5.23-5.03,6.38c2.42,1.14,10.4-3.56,14.63-5.17c4.23-1.61,11.74-0.6,16.71,4.16
		c0,0,12.34-15.05,32.14-7.14c0,0,5.42-9.55,25.05-10.76v-3.18l2.07-1.64C230.59,65.4,174.6,59.53,145.03,82.74z"/>
	<path class="st3" d="M139.98,112.15c0,0,0.67,0.83,6.32,1.91l15.64-0.08c0,0,1,0.42,0.92-1.66s-0.17-3.91-0.17-3.91
		s-0.25-1.25-1-0.08c-0.75,1.16-2.58,4.33-4.66,4.49c-2.08,0.17-10.4,0.25-10.4,0.25s-3.25-0.08-5.99-1.66
		C140.65,111.4,139.4,111.23,139.98,112.15z"/>
	<path class="st3" d="M231.85,65.58l-2.21,2.21L229.55,70c0,0,20.7-1.34,35.42-1.34c14.72,0,65.06-2.87,75.5,0.21
		c0,0,0.58-3.66,0.32-6.55c0,0-24.69,3.86-57.73,3.86S231.85,65.58,231.85,65.58z"/>
	<path class="st3" d="M342.21,62.16l-0.19,7.15c0,0,13.7,0.77,13.93,13.26c0,0,16.28-9.74,31.86,1.6c0,0,2.18-14.56,26.71-23.5
		l-0.11-0.75C414.41,59.93,368.69,58,342.21,62.16z"/>
	<path class="st4" d="M400.57,89.56c0,0-3.38,0.22-1.56-0.85c1.82-1.08,16.26-5.46,16.26-5.46s2.94-1.53,4.88,0s3.64,3.93,3.64,3.93
		S419.73,88.54,400.57,89.56z"/>
	<path class="st3" d="M244.41,108.99c0,0-3.63,0.17-3.37-0.78c0.26-0.95,8.64-2.33,8.64-2.33s29.06-6.52,79.78-9.18
		c-0.06,1.09,0.34,1.5,0.92,1.99c0.58,0.49,1.34,1.43,0.27,2.51C328.87,102.4,277.14,108.6,244.41,108.99z"/>
	<path class="st3" d="M330.55,96.63c0,0,0.66,1.66,1.72,1.83c1.05,0.17,0.61,1.99,0.61,1.99s3.71-0.11,6.2-2.49
		c0.39-0.83,0.55-1.44-0.66-1.44S330.55,96.63,330.55,96.63z"/>
</g>
<g id="windows">
	<g>
		<path class="st5" d="M223.44,62.21l-1.65,0.07c0,0,42.16-24.17,50.75-24.31c0,0,1.52,0.23-0.36,1.23s-17.8,7.4-36.25,18.47
			C232.45,59.72,228.85,62.53,223.44,62.21z"/>
		<path class="st5" d="M233.72,64.34l8.19,0.29c0,0-0.84-0.95,1.18-2.86c2.02-1.91,4.93-5.62,4.93-5.62l14.65-4.03l-6.71,12.72
			c0,0,62.1,0.3,97.01-6.16c2.94-0.37,4.33-0.83,7.47-4.44c3.14-3.6,4.07-5.54,4.07-5.54s0.36-1.71-2.13-2.54
			s-15.07-8.79-51.64-9.73C273.95,36.98,252.53,49.4,233.72,64.34z"/>
		<path class="st6" d="M235.61,63.69c0,0,11.67-9.69,24.56-15.35c12.89-5.66,36.2-2.08,36.2-2.08l67.04,1.83
			c0,0-3.96,6.06-6.87,8.04c-1.99,1.31-3.89,1.74-14.77,2.88c-10.88,1.15-27.69,4.57-85.35,4.96c0,0,3.32-6.73-0.54-7.18
			c-3.86-0.45-9.12,0.31-14.33,6.96L235.61,63.69z"/>
		<path class="st7" d="M260.17,48.34c0,0,19.97-1.01,41.96,3.66c21.99,4.68,47.52,2.27,61.29-3.92c0,0-15.54-8.85-47.01-10.49
			S268.26,45.43,260.17,48.34z"/>
		<path class="st7" d="M244.88,49.86l5.05,0.13c0,0,12.89-7.46,20.85-9.98c0,0,5.31-2.65-0.13-1.77
			C265.22,39.12,244.88,49.86,244.88,49.86z"/>
		<path class="st7" d="M356.21,38.61c0,0,15.16,3.66,21.23,6.95l-0.79-1.17C376.65,44.39,369.65,41.67,356.21,38.61z"/>
		<path class="st6" d="M244.88,49.86l5.05,0.13l-19.58,10.79c0,0-1.96,1.23-6.01,1.47c0,0-2.33,0.31-0.25-0.74
			S244.88,49.86,244.88,49.86z"/>
		<path class="st6" d="M377.44,45.56l15.36,7.09c0,0,2.07,1.07,3.19,1.06c2.26-0.01,3.34,0.03,3.34,0.03l-22.68-9.35L377.44,45.56z"
			/>
	</g>
</g>
<g id="details">
	<g>
		<ellipse class="st8" cx="318.72" cy="73.49" rx="5.34" ry="2.78"/>
		<path class="st5" d="M327.8,72.47c0,0,2.28,0.73,0,1.62c-1.69,0.07-14.76,0-14.76,0s-2.2-0.81-0.07-1.69
			C315.02,72.4,327.8,72.47,327.8,72.47z"/>
		<path class="st9" d="M421.08,66.99h-6.36c0,0-1.95,7.8,7.46,12.46C422.18,79.45,422.26,67.84,421.08,66.99z"/>
		<path class="st9" d="M234.06,64.13c0,0-1.86,0.28-3.25,1.26c-1,0.8-2.18,1.68-2.18,1.68l0.03,3.06c0,0,2.33,29.22,2.84,42.46
			l0.65,0.05c0,0-2.74-39.69-3.11-42.53l0-2.55l2.09-1.83c0,0,1.28-1.21,4.25-1.43L234.06,64.13z"/>
		<path class="st9" d="M341.17,60.49c0,0,1.72,19.17-11.07,35.33c-0.4,0.47-0.78,1.95,1.28,3.37c0,0,0.5,0.91-0.44,2.37
			c-0.94,1.45-2.44,8.25-2.44,10.9h0.47c0,0,0.68-7.95,2.48-10.6c0.98-1.58,0.71-2.47,0.28-3.02c-0.61-0.77-1.75-1.21-1.25-2.5
			c0.42-1.61,12.32-11.8,11.27-35.92L341.17,60.49z"/>
		<path class="st5" d="M341.73,59.98c0,0-0.28-0.64-0.28-1.95c0-1.31-1.55-11.92-8.04-19.02l-0.69-0.04c0,0,7.26,7.72,8.24,19.06
			c0,0-0.05,1.49,0.11,2.01L341.73,59.98z"/>
		<path class="st10" d="M153.33,109.62h-7.63c0,0-0.81,0.14-1.35-1.55c-0.54-1.69-2.5-6.42-2.97-8.1c-0.47-1.69-0.68-0.07-0.34-2.16
			l5.54,0.27l9.86,11.48L153.33,109.62z"/>
		<path class="st11" d="M140.78,98.71c0,0-0.01,1.11,1.75,0.98s3.05-0.18,4.34,1.24c1.28,1.42,6.54,7.84,6.54,7.84
			s0.68,0.86,1.56,0.82c0.85-0.03,1.47-0.04,1.47-0.04s0.34-0.95-8.64-10.81c-0.95-1.15-1.35-1.01-2.16-1.01
			c-0.81,0-4.82,0.04-4.82,0.04L140.78,98.71z"/>
		<path class="st12" d="M170.1,73.99c0,0,5.04-0.46,2.64,1.6c-2.41,2.06-12.93,7.21-24.54,10.7c-2.67,0.27-5.01,0.11-5.01,0.11
			s-1.36-1.96,3.6-4.8S163.28,73.84,170.1,73.99z"/>
		<path class="st13" d="M153.66,82.66c0,0,12.62-9.63,15.89-8.65C171.56,75.41,163.8,78.36,153.66,82.66z"/>
	</g>
</g>
<g id="wheel-right">
	<g>
		<circle class="st14" cx="371.26" cy="107.2" r="22.5"/>
		<circle class="st15" cx="371.09" cy="107.2" r="18.88"/>
		<ellipse class="st16" cx="371.33" cy="107.12" rx="13.26" ry="12.66"/>
		<path class="st17" d="M366.44,91.9c0,0,0.85-0.91,1.49,0.16c0.64,1.07,2.24,3.99,2.24,3.99v6.34h1.6v-6.02l2.41-4.5
			c0,0,0.51-0.65,1.43-0.05l0.34-0.93h-3.36c0,0-0.59,3.65-1.44,3.65c-0.85,0-1.52-1.39-1.87-3.54h-3.77L366.44,91.9z"/>
		<path class="st17" d="M359.76,95.5c0,0,0.56-0.47,1.18-0.13c1.09,0.6,3.94,2.5,3.94,2.5l2.92,5.54l1.41-0.75l-2.84-5.3l-0.12-5.07
			c0,0,0.22-0.9,1.25-0.7l-0.44-0.8l-2.56,1.36c0,0,1.2,3.49,0.46,3.89s-2.45-0.83-3.79-2.56l-2.01,1.32L359.76,95.5z"/>
		<path class="st17" d="M355.3,103.59c0,0-0.32-1.19,0.92-1.23c1.24-0.03,4.58,0.02,4.58,0.02l5.52,3.12l0.79-1.39l-5.24-2.96
			l-2.58-4.05c0,0-0.42-1.15,0.48-1.6l-0.61-0.68l-1.66,2.93c0,0,2.88,2.31,2.47,3.05s-1.95,0.64-4.01-0.11l-1.86,3.29L355.3,103.59
			z"/>
		<path class="st17" d="M355.22,112.12c0,0-0.69-1.21,0.42-1.84c1.11-0.63,4.17-2.22,4.17-2.22l6.6,0.03l0.01-1.6l-6.27-0.03
			l-4.68-2.43c0,0-0.53-0.91-0.01-1.41l-1-0.37l-0.02,3.36c0,0,3.8,0.61,3.79,1.46c0,0.85-1.45,1.51-3.7,1.86l-0.02,3.77
			L355.22,112.12z"/>
		<path class="st17" d="M359.56,119.18c0,0-1.27-0.28-0.6-1.44c0.67-1.16,2.59-4.2,2.59-4.2l5.96-3.64l-0.83-1.36l-5.66,3.46
			l-5.16,0.48c0,0-1.2-0.5-0.84-1.33l-1.33,0.42l1.75,2.87c0,0,3.74-1.59,4.18-0.87c0.44,0.72-0.52,2.09-2.36,3.64l1.97,3.22
			L359.56,119.18z"/>
		<path class="st17" d="M366.66,123.26c0,0-1.26,0.05-1.16-0.95c0.11-1.37,0.56-5.06,0.56-5.06l3.88-6.13l-1.35-0.85l-3.69,5.82
			l-4.79,3.06c0,0-1.08,0.08-1.33-0.66l-0.76,0.66l2.84,1.8c0,0,2.73-3.21,3.45-2.76c0.72,0.45,0.43,2.15-0.59,4.43l3.17,1.68
			L366.66,123.26z"/>
		<path class="st17" d="M375.64,122.75c0,0-0.84,1.02-1.49-0.16c-0.65-1.18-2.29-4.42-2.29-4.42l-0.09-7.06l-1.6,0.02l0.08,6.71
			l-2.34,5.04c0,0-0.41,0.6-1.24,0.39l-0.52,0.72l3.36-0.04c0,0,0.54-4.07,1.39-4.08c0.85-0.01,1.53,1.53,1.92,3.93l3.77-0.05
			L375.64,122.75z"/>
		<path class="st17" d="M382.64,119.21c0,0-0.7,0.64-1.25,0.26c-1.08-0.74-3.92-2.85-3.92-2.85l-3.04-6.1l-1.43,0.71l2.88,5.79
			l0,5.4c0,0-0.55,0.9-1.3,0.66l0.19,1.07l3.01-1.5c0,0-1.22-3.77-0.46-4.15s2.02,0.66,3.38,2.58l3.08-2.1L382.64,119.21z"/>
		<path class="st17" d="M387.05,110.97c0,0,0.16,1.79-1.15,1.72c-1.31-0.07-4.83-0.41-4.83-0.41l-5.76-3.64l-0.85,1.35l5.47,3.46
			l2.79,4.55c0,0,0.57,0.78-0.28,1.4l0.24,0.72l1.8-2.84c0,0-3-2.6-2.54-3.31c0.45-0.72,2.07-0.48,4.22,0.45l1.9-3.2L387.05,110.97z
			"/>
		<path class="st17" d="M386.67,102.71c0,0,0.52,0.96-0.16,1.49c-1.14,0.65-4.28,2.27-4.28,2.27l-6.81,0.06l0.01,1.6l6.47-0.06
			l4.86,2.36c0,0,0.48,0.23,0.2,1.39l0.86,0.37l-0.03-3.36c0,0-3.93-0.56-3.93-1.4s1.48-1.53,3.79-1.91l-0.03-3.77L386.67,102.71z"
			/>
		<path class="st17" d="M382,95.42c0,0,1.27,0.22,0.63,1.36c-0.65,1.14-2.51,4.14-2.51,4.14l-5.83,3.53l0.83,1.37l5.53-3.35
			l5.12-0.46c0,0,0.89,0.23,1.07,1.17l1.01-0.19l-1.74-2.88c0,0-3.66,1.53-4.1,0.8c-0.44-0.72,0.49-2.07,2.29-3.58l-1.96-3.23
			L382,95.42z"/>
		<path class="st17" d="M374.91,91.57c0,0,1.2,0.04,1.17,1.36c-0.03,1.31-0.21,4.57-0.21,4.57l-3.44,5.88l1.38,0.81l3.27-5.58
			l4.52-2.96c0,0,1.12-0.18,1.2,0.7l0.86-0.71l-2.9-1.7c0,0-2.49,3.09-3.22,2.66c-0.73-0.43-0.55-2.05,0.31-4.24l-3.26-1.91
			L374.91,91.57z"/>
		<path class="st18" d="M355.55,92.73c0,0-1.13,2.13,1.68,2.01c2.94-2.35,5.45-6.29,14.68-5.96c3.94,0.17,7.21,0.25,12.58,5.28
			c0.92,0.67,3.1-0.08,1.85-2.26s-7.63-6.63-14.85-6.63C362.76,85.02,356.4,90.83,355.55,92.73z"/>
		<path class="st18" d="M383.06,121.42c0,0,1.87-2.04,3.63-1.01c0.9,0.77-0.69,2.32-1.68,2.96c-0.99,0.64-5.33,5.03-13.66,5.16
			s-13.96-4.85-15.98-6.75c-1.33-1.29,0.52-2.92,2.41-1.55c1.89,1.37,6.75,6.06,13.58,5.8S383.06,121.42,383.06,121.42z"/>
		<g>
			<path class="st17" d="M370.93,91.34c8.7,0,15.78,7.08,15.78,15.78s-7.08,15.78-15.78,15.78c-8.7,0-15.78-7.08-15.78-15.78
				S362.23,91.34,370.93,91.34 M370.93,89.34c-9.82,0-17.78,7.96-17.78,17.78c0,9.82,7.96,17.78,17.78,17.78
				c9.82,0,17.78-7.96,17.78-17.78C388.71,97.3,380.75,89.34,370.93,89.34L370.93,89.34z"/>
		</g>
		<polygon class="st17" points="366.04,104.86 368.26,102.29 373.55,102.22 375.85,104.86 375.85,110.3 373.87,112.46 368.4,112.46 
			366.06,110.12 		"/>
		<polygon class="st19" points="366.8,105.22 368.74,103.11 373.34,103.05 375.34,105.22 375.34,109.68 373.61,111.45 
			368.86,111.45 366.82,109.53 		"/>
		<circle class="st20" cx="371.08" cy="104.03" r="0.69"/>
		<circle class="st20" cx="374.04" cy="106.15" r="0.69"/>
		<circle class="st20" cx="373.15" cy="109.77" r="0.69"/>
		<circle class="st20" cx="369.2" cy="109.89" r="0.69"/>
		<circle class="st20" cx="368.13" cy="106.03" r="0.69"/>
		<path class="st20" d="M371.13,109.59L371.13,109.59c-0.4,0-0.73-0.33-0.73-0.73v-2.63c0-0.4,0.33-0.73,0.73-0.73l0,0
			c0.4,0,0.73,0.33,0.73,0.73v2.63C371.86,109.26,371.53,109.59,371.13,109.59z"/>
		<path class="st20" d="M372.61,108.19h-2.86c-0.37,0-0.68-0.31-0.68-0.68l0,0c0-0.37,0.31-0.68,0.68-0.68h2.86
			c0.37,0,0.68,0.31,0.68,0.68l0,0C373.29,107.88,372.99,108.19,372.61,108.19z"/>
		<circle class="st21" cx="371.09" cy="104.02" r="0.47"/>
		<circle class="st21" cx="374.05" cy="106.15" r="0.47"/>
		<circle class="st21" cx="373.15" cy="109.78" r="0.47"/>
		<circle class="st21" cx="369.2" cy="109.88" r="0.47"/>
		<circle class="st21" cx="368.12" cy="106" r="0.47"/>
		<path class="st21" d="M371.11,109.24L371.11,109.24c-0.24,0-0.44-0.2-0.44-0.44v-2.56c0-0.24,0.2-0.44,0.44-0.44l0,0
			c0.24,0,0.44,0.2,0.44,0.44v2.56C371.55,109.04,371.36,109.24,371.11,109.24z"/>
		<path class="st21" d="M372.94,107.5L372.94,107.5c0,0.24-0.2,0.44-0.44,0.44h-2.56c-0.24,0-0.44-0.2-0.44-0.44l0,0
			c0-0.24,0.2-0.44,0.44-0.44h2.56C372.74,107.06,372.94,107.26,372.94,107.5z"/>
	</g>
</g>
<g id="wheel-left">
	<g>
		<circle class="st14" cx="192.06" cy="107.86" r="22.5"/>
		<circle class="st15" cx="191.89" cy="107.86" r="18.88"/>
		<ellipse class="st16" cx="192.13" cy="107.78" rx="13.26" ry="12.66"/>
		<path class="st17" d="M187.24,92.55c0,0,0.85-0.91,1.49,0.16c0.64,1.07,2.24,3.99,2.24,3.99v6.34h1.6v-6.02l2.41-4.5
			c0,0,0.51-0.65,1.43-0.05l0.34-0.93h-3.36c0,0-0.59,3.65-1.44,3.65s-1.52-1.39-1.87-3.54h-3.77L187.24,92.55z"/>
		<path class="st17" d="M180.56,96.16c0,0,0.56-0.47,1.18-0.13c1.09,0.6,3.94,2.5,3.94,2.5l2.92,5.54l1.41-0.75l-2.84-5.3
			l-0.12-5.07c0,0,0.22-0.9,1.25-0.7l-0.44-0.8l-2.56,1.36c0,0,1.2,3.49,0.46,3.89c-0.75,0.4-2.45-0.83-3.79-2.56l-2.01,1.32
			L180.56,96.16z"/>
		<path class="st17" d="M176.1,104.24c0,0-0.32-1.19,0.92-1.23c1.24-0.03,4.58,0.02,4.58,0.02l5.52,3.12l0.79-1.39l-5.24-2.96
			l-2.58-4.05c0,0-0.42-1.15,0.48-1.6l-0.61-0.68l-1.66,2.93c0,0,2.88,2.31,2.47,3.05c-0.42,0.74-1.95,0.64-4.01-0.11l-1.86,3.29
			L176.1,104.24z"/>
		<path class="st17" d="M176.03,112.78c0,0-0.69-1.21,0.42-1.84c1.11-0.63,4.17-2.22,4.17-2.22l6.6,0.03l0.01-1.6l-6.27-0.03
			l-4.68-2.43c0,0-0.53-0.91-0.01-1.41l-1-0.37l-0.02,3.36c0,0,3.8,0.61,3.79,1.46c0,0.85-1.45,1.51-3.7,1.86l-0.02,3.77
			L176.03,112.78z"/>
		<path class="st17" d="M180.37,119.83c0,0-1.27-0.28-0.6-1.44c0.67-1.16,2.59-4.2,2.59-4.2l5.96-3.64l-0.83-1.36l-5.66,3.46
			l-5.16,0.48c0,0-1.2-0.5-0.84-1.33l-1.33,0.42l1.75,2.87c0,0,3.74-1.59,4.18-0.87c0.44,0.72-0.52,2.09-2.36,3.64l1.97,3.22
			L180.37,119.83z"/>
		<path class="st17" d="M187.47,123.91c0,0-1.26,0.05-1.16-0.95c0.11-1.37,0.56-5.06,0.56-5.06l3.88-6.13l-1.35-0.85l-3.69,5.82
			l-4.79,3.06c0,0-1.08,0.08-1.33-0.66l-0.76,0.66l2.84,1.8c0,0,2.73-3.21,3.45-2.76c0.72,0.45,0.43,2.15-0.59,4.43l3.17,1.68
			L187.47,123.91z"/>
		<path class="st17" d="M196.44,123.41c0,0-0.84,1.02-1.49-0.16c-0.65-1.18-2.29-4.42-2.29-4.42l-0.09-7.06l-1.6,0.02l0.08,6.71
			l-2.34,5.04c0,0-0.41,0.6-1.24,0.39l-0.52,0.72l3.36-0.04c0,0,0.54-4.07,1.39-4.08s1.53,1.53,1.92,3.93l3.77-0.05L196.44,123.41z"
			/>
		<path class="st17" d="M203.45,119.86c0,0-0.7,0.64-1.25,0.26c-1.08-0.74-3.92-2.85-3.92-2.85l-3.04-6.1l-1.43,0.71l2.88,5.79
			l0,5.4c0,0-0.55,0.9-1.3,0.66l0.19,1.07l3.01-1.5c0,0-1.22-3.77-0.46-4.15s2.02,0.66,3.38,2.58l3.08-2.1L203.45,119.86z"/>
		<path class="st17" d="M207.85,111.63c0,0,0.16,1.79-1.15,1.72c-1.31-0.07-4.83-0.41-4.83-0.41l-5.76-3.64l-0.85,1.35l5.47,3.46
			l2.79,4.55c0,0,0.57,0.78-0.28,1.4l0.24,0.72l1.8-2.84c0,0-3-2.6-2.54-3.31c0.45-0.72,2.07-0.48,4.22,0.45l1.9-3.2L207.85,111.63z
			"/>
		<path class="st17" d="M207.47,103.37c0,0,0.52,0.96-0.16,1.49c-1.14,0.65-4.28,2.27-4.28,2.27l-6.81,0.06l0.01,1.6l6.47-0.06
			l4.86,2.36c0,0,0.48,0.23,0.2,1.39l0.86,0.37l-0.03-3.36c0,0-3.93-0.56-3.93-1.4s1.48-1.53,3.79-1.91l-0.03-3.77L207.47,103.37z"
			/>
		<path class="st17" d="M202.8,96.08c0,0,1.27,0.22,0.63,1.36c-0.65,1.14-2.51,4.14-2.51,4.14l-5.83,3.53l0.83,1.37l5.53-3.35
			l5.12-0.46c0,0,0.89,0.23,1.07,1.17l1.01-0.19l-1.74-2.88c0,0-3.66,1.53-4.1,0.8c-0.44-0.72,0.49-2.07,2.29-3.58l-1.96-3.23
			L202.8,96.08z"/>
		<path class="st17" d="M195.71,92.22c0,0,1.2,0.04,1.17,1.36c-0.03,1.31-0.21,4.57-0.21,4.57l-3.44,5.88l1.38,0.81l3.27-5.58
			l4.52-2.96c0,0,1.12-0.18,1.2,0.7l0.86-0.71l-2.9-1.7c0,0-2.49,3.09-3.22,2.66c-0.73-0.43-0.55-2.05,0.31-4.24l-3.26-1.91
			L195.71,92.22z"/>
		<path class="st18" d="M176.35,93.39c0,0-1.13,2.13,1.68,2.01c2.94-2.35,5.45-6.29,14.68-5.96c3.94,0.17,7.21,0.25,12.58,5.28
			c0.92,0.67,3.1-0.08,1.85-2.26c-1.26-2.18-7.63-6.63-14.85-6.63C183.56,85.67,177.2,91.48,176.35,93.39z"/>
		<path class="st18" d="M203.86,122.08c0,0,1.87-2.04,3.63-1.01c0.9,0.77-0.69,2.32-1.68,2.96c-0.99,0.64-5.33,5.03-13.66,5.16
			c-8.33,0.13-13.96-4.85-15.98-6.75c-1.33-1.29,0.52-2.92,2.41-1.55c1.89,1.37,6.75,6.06,13.58,5.8S203.86,122.08,203.86,122.08z"
			/>
		<g>
			<path class="st17" d="M191.73,92c8.7,0,15.78,7.08,15.78,15.78s-7.08,15.78-15.78,15.78c-8.7,0-15.78-7.08-15.78-15.78
				S183.03,92,191.73,92 M191.73,90c-9.82,0-17.78,7.96-17.78,17.78s7.96,17.78,17.78,17.78c9.82,0,17.78-7.96,17.78-17.78
				S201.55,90,191.73,90L191.73,90z"/>
		</g>
		<polygon class="st17" points="186.84,105.52 189.07,102.95 194.36,102.88 196.65,105.52 196.65,110.96 194.67,113.11 
			189.21,113.11 186.87,110.78 		"/>
		<polygon class="st19" points="187.6,105.88 189.54,103.77 194.14,103.71 196.14,105.88 196.14,110.34 194.41,112.11 
			189.66,112.11 187.62,110.19 		"/>
		<circle class="st20" cx="191.89" cy="104.69" r="0.69"/>
		<circle class="st20" cx="194.84" cy="106.81" r="0.69"/>
		<circle class="st20" cx="193.95" cy="110.43" r="0.69"/>
		<circle class="st20" cx="190.01" cy="110.54" r="0.69"/>
		<circle class="st20" cx="188.93" cy="106.68" r="0.69"/>
		<path class="st20" d="M191.94,110.25L191.94,110.25c-0.4,0-0.73-0.33-0.73-0.73v-2.63c0-0.4,0.33-0.73,0.73-0.73l0,0
			c0.4,0,0.73,0.33,0.73,0.73v2.63C192.66,109.92,192.34,110.25,191.94,110.25z"/>
		<path class="st20" d="M193.41,108.85h-2.86c-0.37,0-0.68-0.31-0.68-0.68l0,0c0-0.37,0.31-0.68,0.68-0.68h2.86
			c0.37,0,0.68,0.31,0.68,0.68l0,0C194.09,108.54,193.79,108.85,193.41,108.85z"/>
		<circle class="st21" cx="191.89" cy="104.68" r="0.47"/>
		<circle class="st21" cx="194.85" cy="106.8" r="0.47"/>
		<circle class="st21" cx="193.95" cy="110.43" r="0.47"/>
		<circle class="st21" cx="190" cy="110.54" r="0.47"/>
		<circle class="st21" cx="188.93" cy="106.65" r="0.47"/>
		<path class="st21" d="M191.92,109.9L191.92,109.9c-0.24,0-0.44-0.2-0.44-0.44v-2.56c0-0.24,0.2-0.44,0.44-0.44l0,0
			c0.24,0,0.44,0.2,0.44,0.44v2.56C192.36,109.7,192.16,109.9,191.92,109.9z"/>
		<path class="st21" d="M193.74,108.16L193.74,108.16c0,0.24-0.2,0.44-0.44,0.44h-2.56c-0.24,0-0.44-0.2-0.44-0.44l0,0
			c0-0.24,0.2-0.44,0.44-0.44h2.56C193.54,107.72,193.74,107.92,193.74,108.16z"/>
	</g>
	<g>
	</g>
	<g>
	</g>
	<g>
	</g>
	<g>
	</g>
	<g>
	</g>
	<g>
	</g>
</g>
</svg>
