<?xml version="1.0" encoding="utf-8"?>
<!-- Generator: Adobe Illustrator 27.2.0, SVG Export Plug-In . SVG Version: 6.00 Build 0)  -->
<svg version="1.1" id="Layer_1" xmlns="http://www.w3.org/2000/svg" xmlns:xlink="http://www.w3.org/1999/xlink" x="0px" y="0px"
	 viewBox="0 0 397.4 144.4" style="enable-background:new 0 0 397.4 144.4;" xml:space="preserve">
<style type="text/css">
	.st0{fill:#00539F;}
	.st1{fill:none;stroke:#00539F;stroke-miterlimit:10;}
	.st2{fill:none;stroke:#E13841;stroke-miterlimit:10;}
	.st3{fill:#E13841;}
</style>
<g>
	<rect x="139.7" y="87.7" class="st0" width="21.2" height="32"/>
	<g>
		<g>
			<g>
				<path class="st1" d="M160.8,87.7c-7.1,0-14.1,0-21.2,0c0-1.2,0-2.3,0-3.6c0.4,0,0.8,0,1.1,0c6.5,0,12.9,0,19.4,0
					c2.7,0,3.6,0.7,4.3,3.3c0,0.1,0.1,0.1,0.2,0.3c0.3,0,0.7,0,1,0c4.2,0,8.3,0,12.5,0c0.6,0,1.1,0.1,1.6,0.3
					c5.9,2.1,11.9,4.3,17.8,6.5c0.5,0.2,1.2,0.3,1.8,0.3c4.9,0,9.7,0,14.6,0c3.4,0,6.1,2,7,5.1c0.2,0.8,0.3,1.6,0.4,2.5
					c0.2,0,0.4,0,0.6-0.1c7.5-2.3,15.1-4.6,22.6-7c2.8-0.9,5.4-0.1,7.2,2.3c2.3,3.2,1.9,6.3-0.8,9.1c-0.2,0.2-0.5,0.4-0.8,0.5
					c-11.5,6-23,11.9-34.4,17.9c-3.1,1.6-6.2,3.2-9.3,4.8c-0.4,0.2-0.9,0.3-1.4,0.4c-2.4,0.2-4.6-0.3-6.8-1.1
					c-8.7-3.1-17.4-6.2-26-9.2c-0.4-0.1-0.8-0.3-1.2-0.3c-2.1,0-4.2,0-6.3,0c-0.1,0.3-0.2,0.6-0.3,0.9c-0.4,1.5-1.5,2.5-3,2.6
					c-0.5,0-0.9,0-1.4,0c-6.3,0-12.7,0-19,0c-0.4,0-0.8,0-1.3,0c0-1.2,0-2.3,0-3.5c7,0,14.1,0,21.2,0
					C160.8,109,160.8,98.4,160.8,87.7z M164.5,116c0.3,0,0.5,0,0.7,0c2,0,3.9,0,5.9,0c0.4,0,0.9,0,1.3,0.2c4.1,1.4,8.2,2.9,12.3,4.3
					c5.5,1.9,11,3.9,16.6,5.8c1.6,0.5,3.2,0.5,4.8-0.3c13.9-7.3,27.9-14.5,41.8-21.7c0.8-0.4,1.3-1,1.6-1.8c0.4-1.2,0-2.2-0.8-3
					c-0.8-0.8-1.7-1.4-2.9-1c-8.6,2.7-17.2,5.4-25.8,8.1c-0.4,0.1-0.8,0.4-1.2,0.7c-1.3,1.1-2.8,1.7-4.6,1.7c-0.7,0-1.5,0-2.2,0
					c-5.7,0-11.4,0-17.1,0c-1.4,0-2.5,0.4-3.2,1.6c-0.3,0.5-0.5,1.2-0.7,1.8c-1.1,0-2.2,0-3.5,0c0.1-0.7,0.2-1.3,0.3-1.9
					c0.9-3.1,3.6-5.1,6.9-5.1c6.3,0,12.5,0,18.8,0c0.5,0,0.9,0,1.4-0.1c1.5-0.3,2.7-1.7,2.8-3.2c0.1-2.1-1.5-3.8-3.7-3.8
					c-5.1,0-10.2,0-15.3,0c-0.5,0-1.1-0.1-1.5-0.3c-5.9-2.1-11.7-4.3-17.5-6.3c-0.8-0.3-1.6-0.4-2.4-0.4c-3.9,0-7.7,0-11.6,0
					c-0.3,0-0.6,0-1,0.1C164.5,99.6,164.5,107.7,164.5,116z"/>
				<path class="st2" d="M203.5,32.2c0.5-0.7,1-1.3,1.5-1.9c5.3-6.2,14.6-8.3,21.9-4.9c6.9,3.2,11,10.5,10.2,18.1
					c-0.5,5-2.5,9.4-5.2,13.6c-3.8,6-8.6,11.1-13.8,15.9c-4.4,4-9,7.7-13.9,11c-0.6,0.4-1,0.4-1.6,0c-8.8-6.1-16.9-13-23.7-21.3
					c-3.2-3.9-6-8.2-7.7-13c-1.7-4.8-2.3-9.6-0.4-14.5c3.5-9.1,13.4-13.6,22.8-10.3c3.7,1.3,6.8,3.5,9.2,6.7
					C203.1,31.8,203.3,32,203.5,32.2z M201.9,37.9c-0.3-0.9-0.5-1.7-0.8-2.3c-1.8-3.5-4.6-5.8-8.2-7.2c-9.5-3.8-19.9,3.4-19.5,13.7
					c0.1,2.7,0.8,5.3,1.8,7.7c2.1,4.9,5.2,9.1,8.6,13c5.7,6.5,12.3,12,19.2,17.1c0.2,0.1,0.3,0.2,0.5,0.3c0.3-0.2,0.6-0.4,0.9-0.6
					c5.6-4.1,11-8.6,15.8-13.6c3.9-4,7.5-8.3,10.2-13.3c1.9-3.6,3.3-7.3,3.3-11.4c0-8.9-8.7-15.8-17.3-13.6
					c-5.5,1.4-9.5,4.6-11.3,10.2C204,37.9,202.9,37.9,201.9,37.9z"/>
			</g>
		</g>
		<path class="st0" d="M164.5,91.3l12.6,0c0,0,1.3-0.1,2.4,0.4c1.2,0.5,17.5,6.3,17.5,6.3s0.7,0.2,1.5,0.3c0.9,0.1,15.3,0,15.3,0
			s3.9,0,3.7,3.8c-0.1,3.7-4.2,3.3-4.2,3.3l-18.8,0c0,0-6.5-0.3-7.3,7h3.5c0,0,0.4-3.4,4-3.5c3.6,0,17.1,0,17.1,0l2.2,0
			c0,0,2.5,0.1,4.6-1.7c0,0,0.5-0.4,1.2-0.7c0.7-0.2,25.8-8.1,25.8-8.1s1.6-0.6,2.9,1c1.3,1.6,0.9,2.3,0.8,3
			c-0.2,0.8-0.9,1.5-1.6,1.8c-0.7,0.4-41.8,21.7-41.8,21.7s-2,1.3-4.8,0.3c-2.8-0.9-28.9-10.2-28.9-10.2s-0.4-0.2-1.3-0.2
			c-0.9,0-5.8,0.1-6.6-0.1V91.3z"/>
		<path class="st3" d="M201.9,37.9c0,0-1.3-6.4-9.1-9.6c-7.7-3.2-19.5,1.1-19.5,13.7s15.7,27.7,29.7,37.8l0.5,0.3l0.9-0.6
			c0,0,19.1-13.3,26-26.8c2.7-4.8,3.3-9.7,3.3-11.4c-0.1-1.7-0.6-9.3-8.4-12.7c-7.8-3.4-16.6,0.1-20.2,9.3H201.9z"/>
	</g>
</g>
</svg>
