<?xml version="1.0" encoding="UTF-8"?>
<svg xmlns="http://www.w3.org/2000/svg" version="1.1" viewBox="0 0 576 576">
  <defs>
    <style>
      .cls-1 {
        fill: #0b54a2;
      }
    </style>
  </defs>
  <!-- Generator: Adobe Illustrator 28.6.0, SVG Export Plug-In . SVG Version: 1.2.0 Build 709)  -->
  <g>
    <g id="Layer_1">
      <g>
        <path class="cls-1" d="M493.4,248.3c-1.8,4.7-5.5,6.4-10.2,7.1-8.5,1.3-17.1,2.6-25.6,4.3-1.3.3-2.9,1.7-3.5,2.9-2.7,5.9-5.2,11.9-7.5,18-.5,1.3-.2,3.4.5,4.5,5.1,7.5,10.5,14.7,15.7,22.1,3.8,5.4,3.5,9.1-1.1,13.8-7.1,7.2-14.3,14.3-21.4,21.5-4.7,4.7-8.4,5-13.8,1.2-7.4-5.2-14.7-10.6-22.2-15.7-1.2-.8-3.5-1-4.9-.4-5.7,2.1-11.2,4.8-17,6.9-2.5.9-3.5,2.2-3.9,4.7-1.3,8.5-2.8,17.1-4.2,25.6-1.1,6.8-4,9.4-11,9.5-9.8,0-19.7,0-29.5,0-7.1,0-10-2.4-11.1-9.3-1.5-8.5-3-17-4.1-25.6-.4-2.8-1.6-4-4.2-5-5.6-2.1-11.1-4.4-16.5-6.9-2.1-1-3.5-.8-5.4.5-7.1,5.2-14.3,10.2-21.4,15.3-5.9,4.2-9.4,4-14.4-1-7.1-7-14.1-14.1-21.2-21.2-4.8-4.9-5.1-8.4-1.1-14.1,5.1-7.2,10.1-14.3,15.3-21.4,1.4-2,1.7-3.5.6-5.7-2.6-5.5-4.9-11.2-7.1-16.9-.8-2.1-1.8-3.2-4.1-3.6-8.5-1.2-17.1-2.7-25.6-4.1-7.6-1.2-9.9-4-10-11.8,0-9.6,0-19.2,0-28.7,0-7.2,2.6-10.1,9.6-11.2,8.4-1.3,16.8-2.8,25.2-4.1,2.6-.4,4.1-1.4,5-4.1,2-5.6,4.4-11.1,6.9-16.5.9-2.1,1-3.5-.4-5.4-5.2-7-10.3-14.2-15.3-21.4-4.3-6-4-9.5,1.2-14.7,6.9-7,13.9-13.9,20.9-20.9,4.9-4.8,8.5-5.2,14.1-1.2,7.3,5.1,14.5,10.3,21.7,15.6,1.8,1.4,3.3,1.4,5.3.5,5.7-2.6,11.5-4.7,17.2-7.4,1.4-.6,2.9-2.3,3.2-3.8,1.6-8.5,2.9-17,4.3-25.6,1.2-7.7,3.9-10,11.7-10,9.8,0,19.7,0,29.5,0,6.5,0,9.4,2.6,10.5,9.1,1.4,8.5,2.9,17,4.1,25.6.4,2.9,1.7,4.3,4.4,5.2,5.6,2,11.1,4.4,16.5,6.9,2,.9,3.3.8,5-.5,7.2-5.3,14.5-10.4,21.7-15.6,5.7-4,9.2-3.8,14.1,1,7.2,7.1,14.3,14.3,21.5,21.4,4.7,4.7,4.9,8.3,1.1,13.8-5.1,7.3-10.3,14.6-15.6,21.7-1.5,2-1.4,3.5-.4,5.7,2.5,5.4,4.8,10.9,6.8,16.5.9,2.5,2.3,3.5,4.8,3.9,8.1,1.3,16.2,2.9,24.4,4,4.7.6,8.4,2.2,10.6,6.6v38.3ZM221.2,239.2c9.4,1.6,18.5,3.2,27.7,4.6,4.9.8,7.4,3.5,9.1,8.2,3,8.5,6.4,16.8,10.4,24.9,2.4,4.9,2.5,8.9-.8,13.3-5.5,7.3-10.7,14.9-15.7,21.9,4.8,4.8,9.4,9.3,14.1,14,7.1-5.1,14.7-10.3,22-15.8,4.3-3.2,8.1-3.2,12.9-.8,7.6,3.8,15.4,7.3,23.4,9.8,6.3,2,9.5,5.3,10.3,11.8,1,8.5,2.7,17,4.2,25.6h19.7c1.6-9.2,3.3-18.3,4.6-27.5.8-5.2,3.6-7.7,8.4-9.4,8.2-2.9,16.4-6.1,24.2-10,5.3-2.7,9.5-2.8,14.3.8,7.2,5.5,14.6,10.5,21.5,15.4,4.8-4.8,9.4-9.2,14.1-13.9-5.2-7.2-10.4-14.8-15.9-22.1-3.3-4.4-3.2-8.4-.8-13.3,3.7-7.5,7.4-15.1,9.7-23,2-6.6,5.4-9.7,12.1-10.5,8.5-1,17-2.8,25.5-4.2v-19.4c-.6-.2-1-.4-1.3-.4-8.6-1.5-17.3-3.2-25.9-4.4-5.6-.8-8.2-3.8-9.8-8.9-2-6.4-3.9-13.1-7.2-18.9-7.8-13.8-5.7-13.3,2-24.3,3.9-5.6,8-11.2,11.5-16.1-4.9-5-9.3-9.5-13.9-14.2-7.4,5.3-15,10.6-22.5,16.1-4,3-7.8,2.8-12.2.7-8.4-3.9-17-7.4-25.7-10.7-4.4-1.7-7.2-4.1-7.9-8.9-1.4-9.3-3.1-18.6-4.7-27.9h-19.7c-1.5,8.8-3.1,17.3-4.2,25.9-.8,6.1-3.7,9.5-9.8,11.4-8.1,2.5-15.9,6-23.4,9.8-5,2.5-9.1,2.7-13.6-.7-7.3-5.5-14.9-10.7-21.6-15.5-4.9,4.9-9.5,9.5-14.1,14.1,5.2,7.2,10.6,14.9,16.2,22.6,2.5,3.5,3.1,7,.8,10.8-5.2,8.6-9,17.7-11.5,27.5-1,4-3.8,6.3-7.8,7-1.7.3-3.4.6-5.1.8-7.8,1.3-15.6,2.7-23.4,4v19.7Z"/>
        <path class="cls-1" d="M193.2,493.4c-6.4-3.8-7.5-6.6-5.1-13.8,6.2-18.8,12.5-37.6,18.7-56.3.4-1.1.7-2.3,1.2-3.9-3.6.3-6.8.6-10,.9-13.4,1.2-26.6-.2-39.4-4-11.8-3.5-17.8-12.9-21.4-24-5.1-15.9-4.9-32.2-3.8-48.6,0-.9.1-1.8.3-3.4-2.8,0-5.6,0-8.3,0-5.5,0-11,.3-16.3-.4-20-2.6-30.6-24.1-20.7-41.6,2.6-4.5,5.6-8.7,8.5-13,10.2-15.1,20.4-30.2,30.8-45.2,2-2.8,2.6-5.6,2.2-8.9-2.1-18.2-.1-36,5.5-53.5,10.8-33.5,32.3-57.5,63.9-72.7,23.1-11.1,47.7-16.4,73-18.6,9.5-.8,19.1-1.1,28.7-1.6,1.3,0,2.6,0,4.1,0v17.5c-5.9,0-11.6-.2-17.3,0-24.5.9-48.4,4.7-71.3,13.7-16.3,6.4-31.1,15.3-42.9,28.3-13.3,14.6-21.2,32-25.1,51.3-2.6,12.8-3.1,25.6-1.1,38.5.7,4.2-.3,7.7-2.7,11.3-13.4,19.5-26.7,39.1-39.8,58.8-1.7,2.6-3,6.1-3.1,9.2,0,5.9,5,9.9,11.7,10,8.6.1,17.3,0,25.9,0,10.6,0,13.4,3.2,12,13.6-1.9,14.3-2.5,28.6.2,42.9.6,3.5,1.7,7,2.9,10.3,3.2,9.3,11.1,11.3,19.6,12.5,14.3,2,28.4.7,42.4-2,9.9-1.9,14.7,3.4,11.6,12.9-6.5,19.4-12.9,38.8-19.4,58.2-.5,1.4-.8,2.7-1.4,4.5h165.1c-6.1-45.2-.4-88.7,18.4-130.8,5.1,2.2,10,4.4,15.4,6.8-.6,1.7-1.2,3.3-1.8,4.8-12.4,29.2-18.2,59.7-17.2,91.3.4,11,2,22,3.3,32.9.8,6.9.2,8.8-5.8,12.3h-191.6Z"/>
        <path class="cls-1" d="M297.3,382.4h-16.7v-16.5h16.7v16.5Z"/>
        <path class="cls-1" d="M331.3,434v16.6h-16.4v-16.6h16.4Z"/>
        <path class="cls-1" d="M297.9,400h16.4v16.5h-16.4v-16.5Z"/>
        <path class="cls-1" d="M425.3,229.7c-.8,42.9-35.5,77-77.5,76.2-42.8-.8-76.5-35.4-75.7-77.5.9-42.4,35.1-76.2,76.8-75.7,42.5.5,77.2,35.4,76.4,77ZM348.6,169.9c-32.9,0-59.7,26.7-59.6,59.6,0,32.7,26.6,59.4,59.4,59.5,32.9.1,59.7-26.5,59.8-59.5,0-33-26.5-59.7-59.5-59.7Z"/>
        <path class="cls-1" d="M348.5,263.7v16.1c-22.5,2.6-51.8-19.7-50.5-50.2h16.3c2.2,20.3,13.5,31.8,34.2,34.1Z"/>
        <path class="cls-1" d="M399.4,229.1h-16.8c-.4-9.3-3.5-17.3-10-23.7-6.4-6.3-14.2-9.7-23.6-9.9,0-5.6,0-11.1,0-16.6,23.8-1.9,51,20.6,50.4,50.3Z"/>
      </g>
    </g>
  </g>
</svg>