<?xml version="1.0" encoding="utf-8"?>
<!-- Generator: Adobe Illustrator 27.2.0, SVG Export Plug-In . SVG Version: 6.00 Build 0)  -->
<svg version="1.1" id="Layer_1" xmlns="http://www.w3.org/2000/svg" xmlns:xlink="http://www.w3.org/1999/xlink" x="0px" y="0px"
	 viewBox="0 0 2000 1280" style="enable-background:new 0 0 2000 1280;" xml:space="preserve">
<style type="text/css">
	.st0{fill:none;stroke:#E5E5E5;stroke-width:8.253;stroke-miterlimit:10;}
	.st1{fill:none;stroke:#E5E5E5;stroke-width:12.5224;stroke-miterlimit:10;}
	.st2{fill:none;stroke:#E5E5E5;stroke-width:5.4494;stroke-miterlimit:10;}
	.st3{fill:none;stroke:#E5E5E5;stroke-width:10.1629;stroke-miterlimit:10;}
	.st4{fill:none;stroke:#E5E5E5;stroke-width:9.2846;stroke-miterlimit:10;}
	.st5{fill:none;stroke:#E5E5E5;stroke-width:5.1581;stroke-miterlimit:10;}
	.st6{fill:none;stroke:#E5E5E5;stroke-width:5.1581;stroke-linecap:round;stroke-linejoin:round;stroke-miterlimit:10;}
	.st7{fill:#E5E5E5;}
</style>
<g>
	<g>
		<g>
			<path class="st0" d="M866.4,357.6c0-45.2,0-90.4,0-135.5c1.8-5.2,5.3-8.6,10.4-10.4c45.2,0,90.4,0,135.5,0
				c5.2,1.8,8.6,5.3,10.4,10.4c0,45.2,0,90.4,0,135.5c-1.8,5.2-5.3,8.6-10.4,10.4c-13,0-26,0-38.9,0c-0.1-0.6-0.2-1.1-0.2-1.7
				c0-19.2,0-38.5,0-57.7c0-0.9,0.2-1.8,0.5-3.1c8.2,0,16.2,0,24.3,0c0-7.7,0-14.8,0-22.5c-8.3,0-16.3,0-24.6,0
				c0-4.5-0.2-8.6,0-12.6c0.3-7.2,4-11.3,11.2-12.3c4.3-0.6,8.7-0.5,13.3-0.8c0-7.3,0-14.6,0-22c-0.6-0.2-1-0.5-1.5-0.5
				c-9.2-0.5-18.3-0.3-27.2,2.5c-7.1,2.2-12.3,6.6-15.6,13.4c-2.5,5.1-4.1,10.3-4.7,15.9c-0.5,5.3-0.7,10.6-1.1,16.5
				c-5.3,0-10.7,0-16,0c0,7.8,0,15,0,22.7c5.6,0,10.8,0,16.4,0c0,21,0,41.6,0,62.2c-23.9,0-47.7,0-71.6,0
				C871.7,366.2,868.2,362.7,866.4,357.6z"/>
		</g>
	</g>
	<g>
		<g>
			<path class="st0" d="M12.2,842.7c0-45.2,0-90.4,0-135.5c1.8-5.2,5.3-8.6,10.4-10.4c45.2,0,90.4,0,135.5,0
				c5.2,1.8,8.6,5.3,10.4,10.4c0,45.2,0,90.4,0,135.5c-1.8,5.2-5.3,8.6-10.4,10.4c-13,0-25.9,0-38.9,0c-0.1-0.6-0.2-1.2-0.2-1.7
				c0-19.2,0-38.5,0-57.7c0-0.9,0.2-1.8,0.5-3.1c8.2,0,16.2,0,24.3,0c0-7.7,0-14.8,0-22.5c-8.3,0-16.3,0-24.6,0
				c0-4.5-0.2-8.6,0-12.6c0.3-7.2,4-11.3,11.2-12.3c4.3-0.6,8.7-0.5,13.3-0.8c0-7.3,0-14.6,0-22c-0.6-0.2-1-0.5-1.5-0.5
				c-9.2-0.5-18.3-0.3-27.2,2.5c-7.1,2.2-12.3,6.6-15.6,13.4c-2.4,5.1-4.1,10.3-4.7,15.9c-0.5,5.3-0.7,10.6-1.1,16.5
				c-5.3,0-10.7,0-16,0c0,7.8,0,15,0,22.7c5.6,0,10.8,0,16.4,0c0,21,0,41.7,0,62.2c-23.9,0-47.7,0-71.6,0
				C17.4,851.3,13.9,847.9,12.2,842.7z"/>
		</g>
	</g>
	<g>
		<g>
			<path class="st1" d="M1181.6,124.8c0-68.6,0-137.1,0-205.6c2.7-7.8,8-13.1,15.8-15.8c68.6,0,137.1,0,205.7,0
				c7.8,2.7,13.1,8,15.8,15.8c0,68.6,0,137.1,0,205.6c-2.7,7.8-8,13.1-15.8,15.8c-19.7,0-39.4,0-59.1,0c-0.1-0.9-0.3-1.7-0.3-2.6
				c0-29.2,0-58.3,0-87.5c0-1.3,0.4-2.7,0.7-4.8c12.4,0,24.6,0,36.9,0c0-11.6,0-22.5,0-34.1c-12.5,0-24.7,0-37.3,0
				c0-6.9-0.2-13,0.1-19.1c0.5-11,6-17.2,17-18.7c6.5-0.9,13.2-0.8,20.2-1.2c0-11,0-22.2,0-33.3c-0.9-0.3-1.6-0.7-2.2-0.8
				c-13.9-0.8-27.8-0.5-41.2,3.8c-10.8,3.4-18.7,10.1-23.7,20.3c-3.7,7.7-6.2,15.7-7.1,24.1c-0.8,8-1.1,16-1.6,25
				c-8.1,0-16.2,0-24.4,0c0,11.8,0,22.8,0,34.4c8.5,0,16.5,0,24.9,0c0,31.9,0,63.2,0,94.5c-36.2,0-72.4,0-108.6,0
				C1189.5,137.9,1184.3,132.6,1181.6,124.8z"/>
		</g>
	</g>
	<g>
		<g>
			<path class="st1" d="M338.2,1534.6c0-68.6,0-137.1,0-205.7c2.7-7.8,8-13.1,15.8-15.8c68.5,0,137.1,0,205.6,0
				c7.8,2.7,13.1,8,15.8,15.8c0,68.6,0,137.1,0,205.7c-2.7,7.8-8,13.1-15.8,15.8c-19.7,0-39.4,0-59.1,0c-0.1-0.9-0.3-1.7-0.3-2.6
				c0-29.2,0-58.3,0-87.5c0-1.3,0.4-2.7,0.7-4.8c12.4,0,24.6,0,36.9,0c0-11.6,0-22.4,0-34.1c-12.5,0-24.7,0-37.3,0
				c0-6.9-0.2-13,0-19.1c0.5-11,6-17.2,17-18.7c6.5-0.9,13.2-0.8,20.2-1.2c0-11,0-22.2,0-33.3c-1-0.3-1.6-0.7-2.2-0.8
				c-13.9-0.8-27.8-0.5-41.2,3.8c-10.8,3.4-18.7,10.1-23.6,20.3c-3.7,7.7-6.2,15.7-7,24.1c-0.8,8-1.1,16.1-1.6,25
				c-8.1,0-16.2,0-24.4,0c0,11.8,0,22.8,0,34.4c8.5,0,16.5,0,24.9,0c0,31.9,0,63.2,0,94.5c-36.2,0-72.4,0-108.6,0
				C346.2,1547.7,341,1542.4,338.2,1534.6z"/>
		</g>
	</g>
	<g>
		<g>
			<path class="st0" d="M495.5,605.1c0-45.2,0-90.4,0-135.5c1.8-5.2,5.3-8.6,10.4-10.4c45.2,0,90.4,0,135.5,0
				c5.2,1.8,8.6,5.3,10.4,10.4c0,45.2,0,90.4,0,135.5c-1.8,5.2-5.3,8.6-10.4,10.4c-13,0-26,0-38.9,0c-0.1-0.6-0.2-1.2-0.2-1.7
				c0-19.2,0-38.5,0-57.7c0-0.9,0.2-1.8,0.5-3.1c8.2,0,16.2,0,24.3,0c0-7.7,0-14.8,0-22.5c-8.3,0-16.3,0-24.6,0
				c0-4.5-0.2-8.6,0-12.6c0.3-7.2,4-11.3,11.2-12.3c4.3-0.6,8.7-0.5,13.3-0.8c0-7.3,0-14.6,0-22c-0.6-0.2-1-0.5-1.5-0.5
				c-9.2-0.5-18.3-0.3-27.2,2.5c-7.1,2.2-12.3,6.6-15.6,13.4c-2.5,5.1-4.1,10.3-4.7,15.9c-0.5,5.3-0.7,10.6-1.1,16.5
				c-5.3,0-10.7,0-16,0c0,7.8,0,15,0,22.7c5.6,0,10.8,0,16.4,0c0,21,0,41.7,0,62.2c-23.9,0-47.7,0-71.6,0
				C500.7,613.8,497.2,610.3,495.5,605.1z"/>
		</g>
	</g>
	<g>
		<g>
			<path class="st2" d="M970.3,657.9c0-29.8,0-59.7,0-89.5c1.2-3.4,3.5-5.7,6.9-6.9c29.8,0,59.7,0,89.5,0c3.4,1.2,5.7,3.5,6.9,6.9
				c0,29.8,0,59.7,0,89.5c-1.2,3.4-3.5,5.7-6.9,6.9c-8.6,0-17.1,0-25.7,0c0-0.4-0.1-0.8-0.1-1.1c0-12.7,0-25.4,0-38.1
				c0-0.6,0.2-1.2,0.3-2.1c5.4,0,10.7,0,16.1,0c0-5.1,0-9.8,0-14.8c-5.5,0-10.8,0-16.2,0c0-3-0.1-5.7,0-8.3c0.2-4.8,2.6-7.5,7.4-8.1
				c2.8-0.4,5.8-0.4,8.8-0.5c0-4.8,0-9.6,0-14.5c-0.4-0.1-0.7-0.3-1-0.3c-6.1-0.3-12.1-0.2-17.9,1.6c-4.7,1.5-8.1,4.4-10.3,8.8
				c-1.6,3.3-2.7,6.8-3.1,10.5c-0.3,3.5-0.5,7-0.7,10.9c-3.5,0-7.1,0-10.6,0c0,5.2,0,9.9,0,15c3.7,0,7.2,0,10.8,0
				c0,13.9,0,27.5,0,41.1c-15.8,0-31.5,0-47.3,0C973.8,663.6,971.5,661.3,970.3,657.9z"/>
		</g>
	</g>
	<g>
		<g>
			<path class="st3" d="M168.2,271c0,5.2,0,10.4,0,15.7c-0.6,4.4-0.9,8.8-1.7,13.2c-8.6,49.3-45.1,88.7-93.5,101.1
				c-3,0.8-6.1,1.4-9,2c0-2,0-3.8,0-5.5c0-26.9,0-53.8,0-80.6c0-2.9,0.1-3,2.9-3c7.4,0,14.8,0,22.1,0c1.8,0,2.7-0.5,3-2.4
				c1.5-9.9,3.2-19.7,4.7-29.6c0.5-2.9,0.4-2.9-2.6-2.9c-9.3,0-18.5,0-27.8,0c-1.2,0-2.4,0-2.4-1.7c0.1-8.8-0.1-17.6,0.3-26.4
				c0.4-7.5,4.7-11.9,12.1-13.3c1.5-0.3,3.1-0.5,4.7-0.5c5.2-0.1,10.4-0.1,15.7,0c1.7,0,2.5-0.5,2.4-2.4c-0.1-9.1-0.1-18.3,0-27.4
				c0-1.5-0.5-2.3-2.1-2.4c-3.2-0.4-6.3-0.8-9.5-1.2c-8.8-0.9-17.5-1.7-26.3-0.2c-12.7,2.1-23.3,7.8-30.6,18.8
				c-5.4,8.1-7.6,17.3-7.8,26.9c-0.2,9.1,0,18.1,0,27.2c0,2.6-0.1,2.6-2.6,2.7c-8.7,0-17.4,0-26,0c-2.6,0-2.7,0.1-2.7,2.6
				c0,9.8,0,19.6,0,29.4c0,2.7,0.1,2.9,2.9,2.9c8.4,0,16.8,0,25.2,0c3.2,0,3.2,0,3.2,3.1c0,27.6,0,55.2,0,82.8c0,0.5,0,1,0,1.6
				c0,1.1-0.5,1.7-1.7,1.5c-0.6-0.1-1.2-0.2-1.7-0.3c-27.9-5.9-51.7-19.1-70.4-40.7c-26.6-30.5-36.7-66.1-29.3-105.9
				C-68,190-6.6,146,59.8,154.7c50.9,6.6,94.1,46.1,105.3,96.3C166.5,257.5,167.2,264.3,168.2,271z"/>
		</g>
	</g>
	<g>
		<g>
			<path class="st4" d="M759.1,190.4c-18.8-0.9-46.3-2-73.9-3.6c-7.6-0.4-15.2-1.6-21.6-6.5c-6.2-4.6-10.8-10.5-12-18.2
				c-1.7-11.1-3.3-22.2-4.1-33.3c-1.5-23.8-1.1-47.5,2.2-71.1c1-7.4,2.2-14.8,7-20.9c4.8-6.2,10.8-10.8,18.7-11.7
				c12.7-1.5,25.5-3,38.2-3.6c36.2-1.6,72.4-1.6,108.6,0c12.7,0.6,25.4,1.7,38,3.6c13,2,21,10.4,24.1,23.1c3.5,14,4,28.4,4.5,42.7
				c0.8,21.1,0.2,42.2-2.8,63.1c-1,6.8-2.2,13.6-6.6,19.4c-4.9,6.4-11,11-19.1,11.9c-12.5,1.5-24.9,2.9-37.5,3.5
				C804.5,189.6,786.2,189.7,759.1,190.4z M806.3,105.1c-21-12.1-41.4-23.9-62.1-35.9c0,24.1,0,47.7,0,71.7
				C765,128.9,785.4,117.2,806.3,105.1z"/>
		</g>
	</g>
	<g>
		<g>
			<path class="st4" d="M5.2,1061c-18.8-0.9-46.3-2-73.9-3.6c-7.6-0.4-15.2-1.6-21.6-6.5c-6.2-4.7-10.8-10.5-11.9-18.2
				c-1.7-11.1-3.3-22.2-4.1-33.3c-1.6-23.8-1.1-47.5,2.2-71.1c1-7.4,2.2-14.8,7-20.9c4.8-6.2,10.8-10.8,18.7-11.7
				c12.7-1.5,25.5-3,38.2-3.6c36.2-1.6,72.4-1.6,108.6,0c12.7,0.6,25.4,1.7,38,3.6c13,2,21,10.4,24.1,23.1c3.4,14,4,28.4,4.5,42.7
				c0.8,21.1,0.2,42.2-2.8,63.1c-1,6.8-2.2,13.7-6.6,19.4c-4.9,6.4-11,11-19.1,11.9c-12.4,1.5-24.9,2.9-37.5,3.5
				C50.7,1060.2,32.4,1060.3,5.2,1061z M52.5,975.7c-21-12.1-41.4-23.9-62.1-35.9c0,24.1,0,47.7,0,71.7
				C11.2,999.5,31.6,987.8,52.5,975.7z"/>
		</g>
	</g>
	<g>
		<g>
			<path class="st4" d="M1189.4,347.1c-18.8-0.9-46.3-2-73.9-3.6c-7.6-0.4-15.2-1.6-21.6-6.5c-6.2-4.6-10.8-10.5-11.9-18.2
				c-1.7-11.1-3.3-22.2-4.1-33.3c-1.6-23.8-1.1-47.5,2.2-71.1c1-7.4,2.2-14.8,7-20.9c4.8-6.2,10.8-10.8,18.7-11.7
				c12.7-1.5,25.5-3,38.2-3.6c36.2-1.6,72.4-1.6,108.6,0c12.7,0.6,25.4,1.7,38,3.6c13,2,21,10.4,24.1,23.1c3.4,14,4,28.4,4.5,42.7
				c0.8,21.1,0.2,42.2-2.8,63.1c-1,6.8-2.2,13.6-6.6,19.4c-4.9,6.4-11,11-19.1,12c-12.4,1.5-24.9,2.9-37.4,3.5
				C1234.8,346.4,1216.5,346.5,1189.4,347.1z M1236.6,261.9c-21-12.1-41.4-23.9-62.1-35.9c0,24.1,0,47.7,0,71.7
				C1195.3,285.7,1215.7,274,1236.6,261.9z"/>
		</g>
	</g>
	<g>
		<g>
			<path class="st4" d="M538.6,1043.4c-18.8-0.9-46.3-2-73.9-3.6c-7.6-0.4-15.2-1.6-21.6-6.5c-6.2-4.7-10.8-10.5-12-18.2
				c-1.7-11.1-3.3-22.2-4.1-33.3c-1.5-23.8-1.1-47.5,2.1-71.1c1-7.4,2.2-14.8,7-20.9c4.8-6.2,10.8-10.8,18.6-11.7
				c12.7-1.5,25.5-3,38.2-3.6c36.2-1.6,72.4-1.6,108.6,0c12.7,0.6,25.4,1.7,38,3.6c13,2,21,10.4,24.1,23.1c3.5,14,4,28.4,4.5,42.7
				c0.8,21.1,0.2,42.2-2.8,63.1c-1,6.8-2.2,13.7-6.6,19.4c-4.9,6.4-11,11-19.1,11.9c-12.5,1.5-24.9,2.9-37.5,3.5
				C584,1042.6,565.7,1042.7,538.6,1043.4z M585.8,958.1c-21-12.1-41.4-23.9-62.1-35.9c0,24.1,0,47.7,0,71.7
				C544.5,981.9,564.9,970.2,585.8,958.1z"/>
		</g>
	</g>
	<g>
		<g>
			<path class="st4" d="M191.7,1266.8c-18.8-0.9-46.3-2-73.9-3.6c-7.6-0.4-15.2-1.6-21.6-6.5c-6.2-4.7-10.8-10.5-11.9-18.2
				c-1.7-11.1-3.3-22.2-4.1-33.3c-1.6-23.8-1.1-47.5,2.2-71.1c1-7.4,2.2-14.8,7-20.9c4.8-6.2,10.8-10.8,18.7-11.7
				c12.7-1.5,25.5-3,38.2-3.6c36.2-1.6,72.4-1.6,108.6,0c12.7,0.6,25.4,1.7,38,3.6c13,2,21,10.4,24.1,23.1c3.5,14,4,28.4,4.5,42.7
				c0.8,21.1,0.2,42.2-2.8,63.1c-1,6.8-2.2,13.7-6.6,19.4c-4.9,6.4-11,11-19.1,11.9c-12.5,1.5-24.9,2.9-37.4,3.5
				C237.1,1266.1,218.8,1266.2,191.7,1266.8z M238.9,1181.6c-21-12.1-41.4-23.9-62.1-35.9c0,24.1,0,47.7,0,71.7
				C197.6,1205.4,218,1193.7,238.9,1181.6z"/>
		</g>
	</g>
	<g>
		<g>
			<path class="st4" d="M315.7,622.1c-18.8-0.9-46.3-2-73.9-3.6c-7.6-0.4-15.2-1.6-21.6-6.5c-6.2-4.7-10.8-10.5-11.9-18.2
				c-1.7-11.1-3.3-22.2-4.1-33.3c-1.6-23.8-1.1-47.5,2.1-71.1c1-7.4,2.2-14.8,7-20.9c4.8-6.2,10.8-10.8,18.6-11.7
				c12.7-1.5,25.5-3,38.2-3.6c36.2-1.6,72.4-1.6,108.6,0c12.7,0.6,25.4,1.7,38,3.6c13,2,21,10.4,24.1,23.1c3.5,14,4,28.4,4.5,42.7
				c0.8,21.1,0.2,42.2-2.8,63.1c-1,6.8-2.2,13.7-6.6,19.4c-4.9,6.4-11,11-19.1,12c-12.5,1.5-24.9,2.9-37.5,3.5
				C361.2,621.4,342.9,621.5,315.7,622.1z M363,536.9c-21-12.1-41.4-23.9-62.1-35.9c0,24.1,0,47.7,0,71.7
				C321.7,560.7,342,548.9,363,536.9z"/>
		</g>
	</g>
	<g>
		<g>
			<path class="st4" d="M-176.4,146.3c-18.8-0.9-46.3-2-73.9-3.6c-7.6-0.4-15.2-1.6-21.6-6.5c-6.2-4.6-10.8-10.5-12-18.2
				c-1.7-11.1-3.3-22.2-4.1-33.3c-1.5-23.8-1.1-47.5,2.1-71.1c1-7.4,2.2-14.8,7-20.9c4.8-6.2,10.8-10.8,18.6-11.7
				c12.7-1.5,25.5-3,38.2-3.6c36.2-1.6,72.4-1.6,108.6,0c12.7,0.6,25.4,1.7,38,3.6c13,2,21,10.4,24.1,23.1c3.5,14,4,28.4,4.5,42.7
				c0.8,21.1,0.2,42.2-2.8,63.1c-1,6.8-2.2,13.7-6.6,19.4c-4.9,6.4-11,11-19.1,11.9c-12.4,1.5-24.9,2.9-37.4,3.5
				C-130.9,145.5-149.2,145.6-176.4,146.3z M-129.1,61c-21-12.1-41.4-23.9-62.1-35.9c0,24.1,0,47.7,0,71.7
				C-170.5,84.8-150.1,73.1-129.1,61z"/>
		</g>
	</g>
	<g>
		<g>
			<path class="st5" d="M147,35c6.1,0,12.2,0,18.3,0c0.6,0,0.6,0.4,0.7,0.8c1.4,5.4,2.9,10.8,4.3,16.2c2.6,9.8,5.2,19.7,7.8,29.5
				c0.1,0.3,0.2,0.6,0.4,1.1c1.2-4.7,2.4-9.2,3.6-13.7c2.9-11,5.8-22,8.6-33c0.2-0.7,0.4-0.9,1.2-0.9c5.6,0,11.2,0,16.8,0
				c0.3,0,0.6,0,0.9,0c-0.1,0.4-0.1,0.6-0.2,0.9c-7.3,23.5-14.5,46.9-21.8,70.4c-0.2,0.6-0.3,1.2-0.3,1.8c0,16.1,0,32.2,0,48.3
				c0,0.2,0,0.5,0,0.8c-5.9,0-11.8,0-17.9,0c0-0.3,0-0.7,0-1.1c0-15.9,0-31.8,0-47.7c0-0.5,0-1-0.2-1.5c-7.3-23.7-14.6-47.3-21.9-71
				c-0.1-0.3-0.2-0.5-0.3-0.8C147,35.1,147,35.1,147,35z"/>
			<path class="st5" d="M461.4,193.4c-17.6-0.4-35.2-0.6-52.8-1.1c-9.1-0.2-18.2-0.6-27.2-1c-7-0.3-14-0.9-20.9-2.3
				c-7.9-1.5-14.7-5-20-11.2c-2.7-3.3-4.4-7.1-5.8-11.1c-2.4-6.6-3.7-13.4-4.2-20.4c-0.6-8.6-1.2-17.2-1.8-25.8
				c-0.2-2.4-0.2-4.9-0.2-7.4c0-11.7-0.1-23.4,0.2-35.1c0.2-7.7,0.9-15.4,1.5-23.1c0.4-5.3,0.9-10.7,2.1-15.9
				c1.4-5.7,3-11.4,6.1-16.4c4-6.6,9.9-10.9,17.1-13.5c3.8-1.4,7.9-2.1,11.9-2.3c12-0.7,24-1.4,36.1-1.8c19.3-0.5,38.7-0.9,58-1
				c15.4-0.1,30.7,0.3,46.1,0.6c8.4,0.2,16.7,0.4,25.1,0.8c7.7,0.3,15.5,0.8,23.2,1.2c4.5,0.3,8.9,0.8,13.2,2.3
				c9.4,3.5,16.2,9.7,19.9,19.1c2.1,5.3,3.7,10.8,4.5,16.4c0.6,4.2,1,8.4,1.3,12.6c0.5,8.1,1.1,16.2,1.3,24.3
				c0.2,11.9,0.2,23.7,0,35.6c-0.2,8.8-1,17.6-1.5,26.4c-0.4,6.5-1.3,12.9-3.2,19.1c-1.4,4.6-3,9.1-5.7,13.1
				c-4.7,6.8-11.2,11.2-19.2,13.1c-3.5,0.9-7.2,1.3-10.8,1.6c-6.8,0.5-13.7,0.9-20.5,1.2c-5.2,0.3-10.5,0.5-15.7,0.6
				c-18.8,0.3-37.5,0.6-56.3,0.9c-0.5,0-1,0-1.5,0C461.4,193.4,461.4,193.4,461.4,193.4z M465.1,36.1c0,0.3,0,0.6,0,0.9
				c0,39.8,0,79.6,0,119.4c0,0.8,0.2,1,1,1c4.8,0,9.6,0,14.4,0c0.3,0,0.6,0,0.9-0.1c0-3,0-5.9,0-9c0.4,0.4,0.6,0.7,0.9,1
				c3,3.4,6.2,6.3,10.5,8c8.7,3.5,17.2-0.9,19.4-10c1.1-4.5,1.3-9.2,1.3-13.8c0-14.1,0.1-28.3,0-42.4c0-5.1-0.6-10.1-2.1-15
				c-0.9-2.8-2.1-5.5-4.3-7.5c-4-3.6-8.6-4-13.4-2.4c-4.8,1.5-8.4,4.8-11.6,8.4c-0.2,0.2-0.4,0.4-0.8,0.8c0-13.2,0-26.3,0-39.3
				C475.8,36.1,470.5,36.1,465.1,36.1z M434.8,66.7c0,0.4,0,0.8,0,1.2c0,22.2,0,44.3,0,66.5c0,0.4,0,1-0.3,1.3
				c-1.5,1.9-3,3.7-4.7,5.4c-1.1,1.1-2.4,1.9-4,2.2c-2.4,0.4-4-0.6-4.4-3.1c-0.1-0.4,0-0.8,0-1.1c0-23.8,0-47.6,0-71.3
				c0-0.4,0-0.7,0-1.2c-5.7,0-11.3,0-17,0c0,0.3,0,0.5,0,0.7c0,24.2,0,48.4,0,72.7c0,3.5,0.4,6.9,1.4,10.3c1.3,4.3,4.1,7.1,8.6,7.9
				c3.3,0.6,6.4,0,9.3-1.5c4-2.1,7.1-5.1,10.1-8.4c0.2-0.3,0.5-0.5,0.9-1c0,3.4,0,6.6,0,9.8c5.7,0,11.3,0,17,0c0-30.2,0-60.3,0-90.5
				C446,66.7,440.5,66.7,434.8,66.7z M573.7,114.8c0-0.3,0-0.4,0-0.6c0-6.7,0-13.3,0-20c0-3.9-0.5-7.7-1.5-11.4
				c-1.8-6.7-5.5-11.9-11.8-15.1c-4.7-2.4-9.8-2.9-14.9-2.2c-8,1.1-13.9,5.3-17.6,12.5c-2.5,4.9-3.3,10.2-3.4,15.6
				c-0.1,12.3-0.1,24.7,0,37c0,3.7,0.6,7.3,1.7,10.9c2.2,6.9,6.5,12.2,13.3,15c5,2.1,10.2,2.3,15.4,1.4
				c10.4-1.9,16.9-10.1,18.1-19.3c0.5-4.1,0.4-8.2,0.6-12.3c0-0.2,0-0.5-0.1-0.7c-5.7,0-11.3,0-17,0c0,0.4,0,0.7,0,1
				c0,2.9,0,5.8,0,8.7c0,1.6-0.3,3.1-1,4.6c-0.8,1.7-2.1,2.9-3.9,3.4c-4.1,1.2-7.7-0.6-9-4.7c-0.9-2.5-1-5.1-1-7.7
				c0-5,0-10.1,0-15.1c0-0.3,0-0.6,0-0.9C552.3,114.8,563,114.8,573.7,114.8z M369.3,53.1c0,34.8,0,69.4,0,104.1c6,0,12,0,18,0
				c0-34.7,0-69.4,0-104.1c6.6,0,13.1,0,19.6,0c0-5.7,0-11.3,0-16.9c-18.8,0-37.6,0-56.4,0c0,5.7,0,11.3,0,16.9
				C356.7,53.1,362.9,53.1,369.3,53.1z"/>
			<path class="st5" d="M284.2,65.9c0,0.4,0,0.8,0,1.2c0,24,0,48,0,71.9c0,0.4,0,0.8,0,1.1c0.5,2.7,2.3,3.9,4.9,3
				c1.3-0.4,2.6-1.1,3.5-2c1.7-1.7,3.2-3.6,4.8-5.5c0.2-0.3,0.2-0.8,0.2-1.2c0-22.5,0-44.9,0-67.4c0-0.4,0-0.8,0-1.2
				c5.7,0,11.3,0,16.9,0c0,30.4,0,60.8,0,91.2c-5.7,0-11.3,0-17,0c0-3.2,0-6.4,0-9.6c-0.1,0-0.1-0.1-0.2-0.1
				c-0.3,0.3-0.5,0.6-0.8,0.9c-2.7,3-5.6,5.8-9.1,7.9c-3.2,1.8-6.5,2.7-10.2,2.1c-4.7-0.8-7.5-3.6-8.8-8.1c-1.2-4-1.4-8.2-1.4-12.3
				c0-23.7,0-47.4,0-71.1c0-0.3,0-0.6,0-0.9C272.9,65.9,278.5,65.9,284.2,65.9z"/>
			<path class="st5" d="M206.1,113.1c0-6.2-0.1-12.5,0-18.8c0.1-5.4,0.6-10.8,2.8-15.8c3-6.7,7.8-11.4,15.3-12.7
				c6.2-1.1,12.3-0.8,18,2.2c5.1,2.7,8.3,7.1,10.1,12.6c1.5,4.7,2,9.5,2,14.4c0,10.9-0.1,21.9-0.1,32.8c0,4.9-0.3,9.8-1.7,14.6
				c-2.6,8.7-8.6,13.9-17.3,15.8c-7.8,1.7-14.9-0.2-20.9-5.5c-4.1-3.6-6.5-8.2-7.3-13.6c-0.5-3.2-0.8-6.6-0.9-9.8
				C206,123.8,206.1,118.4,206.1,113.1L206.1,113.1z M223.1,112.1c0,7,0,14,0,21c0,1.7,0.2,3.4,0.6,5.1c0.9,3.6,3.2,5.4,6.5,5.5
				c3.4,0.1,5.7-1.6,6.8-5.2c0.1-0.4,0.3-0.9,0.3-1.4c0.1-2.5,0.3-5.1,0.3-7.6c0.1-12.8,0.1-25.7,0.1-38.6c0-2.2-0.2-4.4-1.1-6.4
				c-1.2-2.7-3.4-4.1-6.5-4c-3,0.1-5.1,1.6-6.2,4.3c-0.8,1.9-0.9,4-0.9,6C223.1,98,223.1,105.1,223.1,112.1z"/>
			<path class="st5" d="M481.3,112c0-8.9,0-17.8,0-26.6c0-0.6,0.1-1.1,0.6-1.4c1.5-0.9,3-2,4.5-2.8c1.6-0.9,3.4-0.8,5.2-0.4
				c1.7,0.4,2.8,1.5,3.5,3c0.9,2.2,1.1,4.5,1.2,6.8c0.1,2,0,4,0,6c0,11.9,0,23.9,0,35.8c0,2.1-0.3,4.3-0.8,6.3
				c-0.9,3.8-3.2,5.4-7.7,4.6c-2.4-0.4-4.5-1.7-6.2-3.4c-0.3-0.3-0.4-0.8-0.4-1.2C481.3,129.7,481.3,120.9,481.3,112z"/>
			<path class="st5" d="M541.3,101.1c0-0.5,0-0.9,0-1.4c0-3.8,0-7.5,0.2-11.3c0-1.3,0.3-2.7,0.7-3.9c0.7-2.3,2.3-3.7,4.8-3.9
				c1.3-0.1,2.7-0.1,4,0c2.4,0.2,4,1.6,4.7,3.9c0.4,1.4,0.7,2.9,0.8,4.4c0.1,4.1,0,8.1,0,12.2C551.5,101.1,546.5,101.1,541.3,101.1z
				"/>
			<path class="st6" d="M434.6,147.5c-0.1,0.4-0.3,0.8-0.4,1.2"/>
			<path class="st6" d="M481.4,148.4c0.1,0.4,0.3,0.8,0.4,1.2"/>
		</g>
	</g>
	<g>
		<g>
			<path class="st5" d="M943.7,402c6.1,0,12.2,0,18.3,0c0.6,0,0.6,0.4,0.7,0.8c1.4,5.4,2.8,10.8,4.3,16.2c2.6,9.8,5.2,19.7,7.8,29.5
				c0.1,0.3,0.2,0.6,0.4,1.1c1.2-4.7,2.4-9.2,3.6-13.6c2.9-11,5.8-22,8.6-33c0.2-0.7,0.4-0.9,1.2-0.9c5.6,0,11.2,0,16.8,0
				c0.3,0,0.6,0,0.9,0c-0.1,0.4-0.1,0.6-0.2,0.9c-7.3,23.5-14.5,46.9-21.8,70.4c-0.2,0.6-0.3,1.2-0.3,1.8c0,16.1,0,32.2,0,48.3
				c0,0.2,0,0.5,0,0.8c-6,0-11.8,0-17.9,0c0-0.3,0-0.7,0-1.1c0-15.9,0-31.8,0-47.7c0-0.5,0-1-0.2-1.5c-7.3-23.7-14.6-47.3-21.9-71
				c-0.1-0.3-0.2-0.5-0.3-0.8C943.7,402.1,943.7,402.1,943.7,402z"/>
			<path class="st5" d="M1258.1,560.4c-17.6-0.3-35.2-0.6-52.8-1.1c-9.1-0.2-18.2-0.6-27.2-1c-7-0.3-14-0.9-20.9-2.3
				c-7.9-1.5-14.7-5-20-11.2c-2.7-3.3-4.4-7.1-5.8-11.1c-2.3-6.6-3.7-13.4-4.2-20.4c-0.6-8.6-1.2-17.2-1.8-25.8
				c-0.2-2.5-0.2-4.9-0.2-7.4c0-11.7-0.1-23.4,0.2-35c0.2-7.7,0.9-15.4,1.5-23.1c0.4-5.3,0.9-10.6,2.1-15.9c1.4-5.7,3-11.4,6.1-16.4
				c4-6.6,9.9-10.9,17.1-13.5c3.8-1.4,7.9-2,11.9-2.3c12-0.7,24-1.4,36.1-1.8c19.3-0.5,38.7-0.9,58-1c15.4-0.1,30.7,0.3,46.1,0.6
				c8.4,0.1,16.7,0.4,25.1,0.8c7.7,0.3,15.5,0.8,23.2,1.2c4.5,0.3,8.9,0.8,13.2,2.3c9.4,3.5,16.2,9.7,19.9,19.1
				c2.1,5.3,3.7,10.8,4.5,16.4c0.6,4.2,1,8.4,1.3,12.6c0.5,8.1,1.1,16.2,1.3,24.3c0.2,11.9,0.2,23.7,0,35.6
				c-0.2,8.8-1,17.6-1.5,26.4c-0.4,6.5-1.3,12.9-3.2,19.1c-1.4,4.6-2.9,9.1-5.7,13.1c-4.7,6.8-11.2,11.2-19.2,13.1
				c-3.5,0.8-7.2,1.3-10.8,1.6c-6.8,0.5-13.7,0.8-20.5,1.2c-5.2,0.3-10.4,0.5-15.7,0.6c-18.8,0.3-37.5,0.6-56.3,0.9
				c-0.5,0-1,0-1.5,0C1258.1,560.4,1258.1,560.4,1258.1,560.4z M1261.8,403.1c0,0.4-0.1,0.6-0.1,0.9c0,39.8,0,79.6,0,119.4
				c0,0.8,0.2,1,1,1c4.8,0,9.6,0,14.4,0c0.3,0,0.6,0,0.9-0.1c0-3,0-5.9,0-9c0.4,0.5,0.6,0.7,0.9,1c2.9,3.4,6.2,6.3,10.5,8
				c8.7,3.5,17.2-0.9,19.4-10c1.1-4.5,1.3-9.2,1.3-13.8c0-14.1,0.1-28.3,0-42.4c0-5.1-0.6-10.1-2.1-15c-0.8-2.8-2.1-5.5-4.3-7.5
				c-4-3.6-8.6-4-13.4-2.4c-4.8,1.5-8.4,4.8-11.6,8.4c-0.2,0.2-0.4,0.5-0.8,0.9c0-13.2,0-26.3,0-39.3
				C1272.4,403.1,1267.1,403.1,1261.8,403.1z M1231.4,433.7c0,0.5,0,0.9,0,1.2c0,22.2,0,44.3,0,66.5c0,0.5,0,1-0.3,1.3
				c-1.5,1.9-3,3.7-4.7,5.4c-1.1,1.1-2.4,1.9-4,2.2c-2.4,0.5-4-0.6-4.4-3c-0.1-0.4,0-0.8,0-1.1c0-23.8,0-47.6,0-71.3
				c0-0.4,0-0.7,0-1.2c-5.7,0-11.3,0-17,0c0,0.3,0,0.5,0,0.7c0,24.2,0,48.4,0,72.6c0,3.5,0.4,7,1.4,10.3c1.3,4.3,4.1,7.1,8.7,7.9
				c3.3,0.6,6.4,0,9.3-1.5c4-2,7.1-5.1,10.1-8.4c0.2-0.3,0.5-0.5,0.9-1c0,3.4,0,6.6,0,9.8c5.7,0,11.3,0,17,0c0-30.2,0-60.3,0-90.5
				C1242.7,433.7,1237.1,433.7,1231.4,433.7z M1370.4,481.8c0-0.3,0-0.4,0-0.6c0-6.7,0-13.3,0-20c0-3.9-0.6-7.7-1.6-11.4
				c-1.8-6.7-5.5-11.9-11.8-15.1c-4.7-2.4-9.8-2.9-14.9-2.2c-8,1.1-13.9,5.3-17.6,12.5c-2.5,4.9-3.3,10.2-3.4,15.6
				c-0.1,12.3-0.1,24.6,0,37c0,3.7,0.6,7.3,1.7,10.9c2.2,6.9,6.5,12.2,13.3,15c5,2.1,10.2,2.3,15.4,1.4
				c10.4-1.8,16.9-10.1,18.1-19.3c0.5-4.1,0.4-8.2,0.6-12.3c0-0.2,0-0.5-0.1-0.7c-5.7,0-11.3,0-17,0c0,0.4,0,0.7,0,1
				c0,2.9,0,5.8,0,8.7c0,1.6-0.3,3.1-1,4.6c-0.8,1.7-2.1,2.9-3.9,3.4c-4.1,1.2-7.7-0.6-9.1-4.7c-0.9-2.5-1-5.1-1-7.7
				c0-5,0-10,0-15.1c0-0.3,0-0.6,0-0.9C1348.9,481.8,1359.6,481.8,1370.4,481.8z M1165.9,420.1c0,34.8,0,69.4,0,104.1
				c6.1,0,12,0,18.1,0c0-34.7,0-69.4,0-104.1c6.6,0,13.1,0,19.6,0c0-5.7,0-11.3,0-16.9c-18.8,0-37.6,0-56.4,0c0,5.7,0,11.3,0,16.9
				C1153.4,420.1,1159.6,420.1,1165.9,420.1z"/>
			<path class="st5" d="M1080.9,433c0,0.5,0,0.8,0,1.2c0,24,0,48,0,72c0,0.4,0,0.8,0,1.1c0.4,2.7,2.3,3.9,4.9,3
				c1.3-0.4,2.6-1.1,3.5-2c1.7-1.7,3.2-3.6,4.8-5.5c0.2-0.3,0.2-0.8,0.2-1.2c0-22.5,0-44.9,0-67.4c0-0.4,0-0.8,0-1.2
				c5.7,0,11.3,0,16.9,0c0,30.4,0,60.8,0,91.2c-5.7,0-11.3,0-17,0c0-3.2,0-6.4,0-9.6c-0.1,0-0.1-0.1-0.2-0.1
				c-0.3,0.3-0.5,0.6-0.8,0.8c-2.7,3-5.6,5.8-9.1,7.9c-3.2,1.8-6.5,2.7-10.2,2.1c-4.7-0.8-7.5-3.6-8.8-8.1c-1.2-4-1.4-8.2-1.4-12.3
				c0-23.7,0-47.4,0-71.1c0-0.3,0-0.6,0-0.9C1069.6,433,1075.2,433,1080.9,433z"/>
			<path class="st5" d="M1002.8,480.1c0-6.2,0-12.5,0-18.8c0.1-5.4,0.6-10.8,2.8-15.8c3-6.7,7.8-11.4,15.3-12.7
				c6.2-1.1,12.3-0.8,18,2.2c5.2,2.7,8.3,7.1,10.1,12.6c1.5,4.7,2,9.5,2,14.4c0,11-0.1,21.9-0.1,32.8c0,4.9-0.3,9.8-1.7,14.6
				c-2.6,8.7-8.6,13.9-17.3,15.8c-7.8,1.7-14.9-0.2-20.9-5.5c-4.1-3.6-6.5-8.2-7.3-13.6c-0.5-3.2-0.8-6.5-0.9-9.8
				C1002.7,490.8,1002.8,485.5,1002.8,480.1L1002.8,480.1z M1019.7,479.1c0,7,0,14,0,21c0,1.7,0.2,3.5,0.6,5.1
				c0.9,3.6,3.2,5.5,6.5,5.5c3.4,0.1,5.7-1.6,6.8-5.2c0.1-0.4,0.3-0.9,0.3-1.4c0.1-2.5,0.3-5.1,0.3-7.6c0.1-12.9,0.1-25.7,0.1-38.5
				c0-2.2-0.2-4.4-1.1-6.4c-1.2-2.7-3.4-4.1-6.5-4c-3,0.1-5.1,1.6-6.2,4.3c-0.8,1.9-1,4-1,6C1019.7,465,1019.7,472.1,1019.7,479.1z"
				/>
			<path class="st5" d="M1278,479c0-8.9,0-17.8,0-26.6c0-0.6,0.1-1.1,0.7-1.4c1.5-1,2.9-2,4.5-2.8c1.6-0.9,3.4-0.9,5.2-0.4
				c1.7,0.4,2.8,1.5,3.5,3c0.9,2.2,1.1,4.5,1.2,6.8c0.1,2,0,4,0,6c0,12,0,23.9,0,35.8c0,2.1-0.3,4.3-0.8,6.3
				c-0.9,3.8-3.2,5.4-7.7,4.6c-2.4-0.4-4.4-1.7-6.2-3.4c-0.3-0.3-0.4-0.8-0.4-1.2C1278,496.8,1278,487.9,1278,479z"/>
			<path class="st5" d="M1338,468.1c0-0.5,0-0.9,0-1.4c0-3.8,0-7.5,0.2-11.3c0.1-1.3,0.3-2.7,0.7-3.9c0.7-2.3,2.3-3.7,4.8-3.9
				c1.3-0.1,2.7-0.1,4,0c2.4,0.2,4,1.6,4.7,3.9c0.4,1.4,0.7,2.9,0.8,4.4c0.1,4,0,8.1,0,12.2C1348.2,468.1,1343.2,468.1,1338,468.1z"
				/>
			<path class="st6" d="M1231.2,514.5c-0.2,0.4-0.3,0.8-0.4,1.2"/>
			<path class="st6" d="M1278.1,515.4c0.2,0.4,0.3,0.8,0.4,1.2"/>
		</g>
	</g>
	<g>
		<g>
			<path class="st5" d="M-475.8,703c6.1,0,12.2,0,18.3,0c0.6,0,0.6,0.4,0.7,0.8c1.4,5.4,2.9,10.8,4.3,16.2
				c2.6,9.8,5.2,19.7,7.8,29.5c0.1,0.3,0.2,0.6,0.4,1.1c1.2-4.7,2.4-9.2,3.6-13.7c2.9-11,5.8-22,8.6-33c0.2-0.7,0.4-0.9,1.2-0.9
				c5.6,0,11.2,0,16.8,0c0.3,0,0.6,0,0.9,0c-0.1,0.4-0.1,0.6-0.2,0.9c-7.3,23.5-14.5,46.9-21.8,70.4c-0.2,0.6-0.3,1.2-0.3,1.8
				c0,16.1,0,32.2,0,48.3c0,0.2,0,0.5,0,0.8c-6,0-11.8,0-17.9,0c0-0.3,0-0.7,0-1.1c0-15.9,0-31.8,0-47.7c0-0.5,0-1-0.2-1.5
				c-7.3-23.7-14.6-47.3-21.9-71c-0.1-0.3-0.2-0.5-0.3-0.8C-475.8,703.1-475.8,703-475.8,703z"/>
			<path class="st5" d="M-161.4,861.4c-17.6-0.3-35.2-0.6-52.8-1.1c-9.1-0.2-18.2-0.6-27.2-1c-7-0.3-14-0.9-20.9-2.3
				c-7.9-1.5-14.7-5-20-11.2c-2.7-3.3-4.4-7.1-5.8-11.1c-2.4-6.6-3.7-13.4-4.2-20.4c-0.6-8.6-1.2-17.2-1.8-25.8
				c-0.2-2.5-0.2-4.9-0.2-7.4c0-11.7-0.1-23.4,0.2-35c0.2-7.7,0.9-15.4,1.5-23.1c0.4-5.3,0.9-10.7,2.1-15.9c1.4-5.7,3-11.4,6.1-16.4
				c4-6.6,9.9-10.8,17.1-13.5c3.8-1.4,7.9-2,11.9-2.3c12-0.7,24-1.4,36.1-1.8c19.3-0.5,38.7-0.9,58-1c15.4-0.1,30.7,0.3,46.1,0.6
				c8.4,0.2,16.7,0.4,25.1,0.8c7.7,0.3,15.5,0.8,23.2,1.2c4.5,0.3,8.9,0.8,13.2,2.3c9.4,3.5,16.2,9.7,19.9,19.1
				c2.1,5.3,3.7,10.8,4.5,16.4c0.6,4.2,1,8.4,1.3,12.6c0.5,8.1,1.1,16.2,1.3,24.3c0.2,11.9,0.2,23.7,0,35.6
				c-0.2,8.8-1,17.6-1.5,26.4c-0.4,6.5-1.3,12.9-3.2,19.1c-1.4,4.6-3,9.1-5.7,13.1c-4.7,6.8-11.2,11.2-19.2,13.1
				c-3.5,0.8-7.2,1.3-10.8,1.6c-6.8,0.5-13.7,0.8-20.5,1.2c-5.2,0.3-10.4,0.5-15.7,0.6c-18.8,0.3-37.5,0.6-56.3,0.9
				c-0.5,0-1,0-1.5,0C-161.4,861.3-161.4,861.3-161.4,861.4z M-157.7,704c0,0.3-0.1,0.6-0.1,0.9c0,39.8,0,79.6,0,119.4
				c0,0.8,0.2,1,1,1c4.8,0,9.6,0,14.4,0c0.3,0,0.6,0,0.9-0.1c0-3,0-5.9,0-9c0.4,0.5,0.6,0.7,0.9,1c2.9,3.4,6.2,6.3,10.5,8
				c8.7,3.5,17.2-0.9,19.4-10c1.1-4.5,1.3-9.2,1.3-13.8c0-14.1,0.1-28.3,0-42.4c0-5.1-0.6-10.1-2.1-15c-0.8-2.8-2.1-5.5-4.3-7.5
				c-4-3.6-8.6-4-13.4-2.4c-4.8,1.5-8.4,4.8-11.6,8.4c-0.2,0.2-0.4,0.5-0.8,0.8c0-13.2,0-26.3,0-39.3
				C-147.1,704-152.4,704-157.7,704z M-188.1,734.7c0,0.5,0,0.8,0,1.2c0,22.2,0,44.3,0,66.5c0,0.5,0,1-0.3,1.3
				c-1.5,1.8-3,3.7-4.7,5.4c-1.1,1.1-2.4,1.9-4,2.2c-2.4,0.5-4-0.6-4.4-3c-0.1-0.4,0-0.8,0-1.1c0-23.8,0-47.6,0-71.3
				c0-0.4,0-0.7,0-1.2c-5.7,0-11.3,0-17,0c0,0.3,0,0.5,0,0.7c0,24.2,0,48.4,0,72.7c0,3.5,0.4,7,1.4,10.3c1.3,4.3,4.1,7.1,8.6,7.9
				c3.3,0.6,6.4,0,9.3-1.5c4-2,7.1-5.1,10.1-8.4c0.2-0.3,0.5-0.5,0.9-1c0,3.4,0,6.6,0,9.8c5.7,0,11.3,0,17,0c0-30.2,0-60.3,0-90.5
				C-176.8,734.7-182.4,734.7-188.1,734.7z M-49.1,782.8c0-0.3,0-0.4,0-0.6c0-6.7,0-13.3,0-20c0-3.9-0.5-7.7-1.5-11.4
				c-1.8-6.7-5.5-11.9-11.8-15.1c-4.7-2.4-9.7-2.9-14.9-2.2c-8,1.1-13.9,5.3-17.6,12.5c-2.5,4.9-3.3,10.2-3.4,15.6
				c-0.1,12.3-0.1,24.7,0,37c0,3.7,0.6,7.3,1.7,10.8c2.2,6.9,6.5,12.2,13.3,15c5,2.1,10.2,2.3,15.4,1.4
				c10.4-1.8,16.9-10.1,18.1-19.3c0.5-4.1,0.4-8.2,0.6-12.3c0-0.2,0-0.5-0.1-0.7c-5.7,0-11.3,0-17,0c0,0.4,0,0.7,0,1
				c0,2.9,0,5.8,0,8.7c0,1.6-0.3,3.1-1,4.6c-0.8,1.7-2.1,2.9-3.9,3.4c-4.1,1.2-7.7-0.6-9.1-4.7c-0.9-2.5-1-5.1-1-7.7
				c0-5,0-10,0-15.1c0-0.3,0-0.6,0-0.9C-70.6,782.8-59.9,782.8-49.1,782.8z M-253.6,721c0,34.8,0,69.4,0,104.1c6.1,0,12,0,18.1,0
				c0-34.7,0-69.4,0-104.1c6.6,0,13.1,0,19.6,0c0-5.7,0-11.3,0-16.9c-18.8,0-37.6,0-56.4,0c0,5.7,0,11.3,0,16.9
				C-266.1,721-259.9,721-253.6,721z"/>
			<path class="st5" d="M-338.6,733.9c0,0.5,0,0.8,0,1.2c0,24,0,48,0,72c0,0.4,0,0.8,0,1.1c0.5,2.7,2.3,3.9,4.9,3
				c1.3-0.4,2.6-1.1,3.5-2c1.7-1.7,3.2-3.6,4.8-5.5c0.2-0.3,0.2-0.8,0.2-1.2c0-22.5,0-44.9,0-67.4c0-0.4,0-0.8,0-1.2
				c5.7,0,11.3,0,16.9,0c0,30.4,0,60.8,0,91.2c-5.7,0-11.3,0-17,0c0-3.2,0-6.4,0-9.6c-0.1,0-0.1-0.1-0.2-0.1
				c-0.3,0.3-0.5,0.6-0.8,0.8c-2.7,3-5.6,5.8-9.1,7.9c-3.2,1.8-6.5,2.7-10.2,2.1c-4.7-0.8-7.5-3.6-8.8-8.1c-1.2-4-1.4-8.2-1.4-12.3
				c0-23.7,0-47.4,0-71.1c0-0.3,0-0.6,0-0.9C-349.9,733.9-344.4,733.9-338.6,733.9z"/>
			<path class="st5" d="M-416.7,781c0-6.2,0-12.5,0-18.8c0.1-5.4,0.6-10.8,2.8-15.8c3-6.7,7.8-11.4,15.3-12.7
				c6.2-1.1,12.3-0.8,18,2.2c5.1,2.7,8.3,7.1,10.1,12.6c1.5,4.7,2,9.5,2,14.4c0,11-0.1,21.9-0.1,32.8c0,4.9-0.3,9.8-1.7,14.6
				c-2.6,8.7-8.6,13.9-17.3,15.8c-7.8,1.7-14.9-0.2-20.9-5.5c-4.1-3.6-6.5-8.2-7.3-13.6c-0.5-3.2-0.8-6.5-0.9-9.8
				C-416.8,791.8-416.7,786.4-416.7,781L-416.7,781z M-399.8,780c0,7,0,14,0,21c0,1.7,0.2,3.5,0.6,5.1c0.9,3.6,3.2,5.5,6.5,5.5
				c3.4,0.1,5.7-1.7,6.8-5.2c0.1-0.4,0.3-0.9,0.3-1.3c0.1-2.5,0.3-5.1,0.3-7.6c0.1-12.8,0.1-25.7,0.1-38.5c0-2.2-0.2-4.4-1.1-6.4
				c-1.2-2.7-3.5-4.1-6.5-4c-3,0.1-5.1,1.6-6.2,4.3c-0.8,1.9-1,4-1,6C-399.8,766-399.8,773-399.8,780z"/>
			<path class="st5" d="M-141.5,779.9c0-8.9,0-17.8,0-26.6c0-0.6,0.1-1.1,0.6-1.4c1.5-1,2.9-2,4.5-2.8c1.6-0.9,3.4-0.8,5.2-0.4
				c1.7,0.4,2.8,1.5,3.5,3c0.9,2.2,1.1,4.5,1.2,6.8c0.1,2,0,4,0,6c0,12,0,23.9,0,35.8c0,2.1-0.3,4.3-0.8,6.3
				c-0.9,3.8-3.2,5.4-7.7,4.7c-2.4-0.4-4.4-1.7-6.2-3.4c-0.3-0.3-0.4-0.8-0.4-1.2C-141.5,797.7-141.5,788.8-141.5,779.9z"/>
			<path class="st5" d="M-81.5,769.1c0-0.5,0-0.9,0-1.4c0-3.8,0-7.5,0.2-11.3c0.1-1.3,0.3-2.7,0.7-3.9c0.7-2.3,2.3-3.7,4.8-3.9
				c1.3-0.1,2.7-0.1,4,0c2.4,0.2,4,1.6,4.7,3.9c0.4,1.4,0.7,2.9,0.8,4.4c0.1,4,0,8.1,0,12.2C-71.3,769.1-76.3,769.1-81.5,769.1z"/>
			<path class="st6" d="M-188.3,815.4c-0.1,0.4-0.3,0.8-0.4,1.2"/>
			<path class="st6" d="M-141.4,816.3c0.1,0.4,0.3,0.8,0.4,1.2"/>
		</g>
	</g>
	<g>
		<g>
			<path class="st5" d="M191.1,682.7c6.1,0,12.2,0,18.3,0c0.6,0,0.6,0.4,0.7,0.8c1.4,5.4,2.9,10.8,4.3,16.2
				c2.6,9.8,5.2,19.7,7.8,29.5c0.1,0.3,0.2,0.6,0.4,1.1c1.2-4.7,2.4-9.2,3.6-13.7c2.9-11,5.8-22,8.6-33c0.2-0.7,0.4-0.9,1.2-0.9
				c5.6,0,11.2,0,16.8,0c0.3,0,0.6,0,0.9,0c-0.1,0.4-0.1,0.6-0.2,0.9c-7.3,23.5-14.5,46.9-21.8,70.4c-0.2,0.6-0.3,1.2-0.3,1.8
				c0,16.1,0,32.2,0,48.3c0,0.2,0,0.5,0,0.8c-5.9,0-11.8,0-17.9,0c0-0.3,0-0.7,0-1.1c0-15.9,0-31.8,0-47.7c0-0.5,0-1-0.2-1.5
				c-7.3-23.7-14.6-47.3-21.9-71c-0.1-0.3-0.2-0.5-0.3-0.8C191.1,682.8,191.1,682.7,191.1,682.7z"/>
			<path class="st5" d="M505.5,841.1c-17.6-0.3-35.2-0.6-52.8-1.1c-9.1-0.2-18.2-0.6-27.2-1c-7-0.3-14-0.9-20.9-2.3
				c-7.9-1.5-14.7-5-20-11.2c-2.7-3.3-4.4-7.1-5.8-11.1c-2.4-6.6-3.7-13.4-4.2-20.4c-0.6-8.6-1.2-17.2-1.8-25.8
				c-0.2-2.5-0.2-4.9-0.2-7.4c0-11.7-0.1-23.4,0.2-35c0.2-7.7,0.9-15.4,1.5-23.1c0.4-5.3,0.9-10.7,2.1-15.9c1.4-5.7,3-11.4,6.1-16.4
				c4-6.6,9.9-10.8,17.1-13.5c3.8-1.4,7.9-2,11.9-2.3c12-0.7,24-1.4,36.1-1.8c19.3-0.5,38.7-0.9,58-1c15.4-0.1,30.7,0.3,46.1,0.6
				c8.4,0.2,16.7,0.4,25.1,0.8c7.7,0.3,15.5,0.8,23.2,1.2c4.5,0.3,8.9,0.8,13.2,2.3c9.4,3.5,16.2,9.7,19.9,19.1
				c2.1,5.3,3.7,10.8,4.5,16.4c0.6,4.2,1,8.4,1.3,12.6c0.5,8.1,1.1,16.2,1.3,24.3c0.2,11.9,0.2,23.7,0,35.6
				c-0.2,8.8-1,17.6-1.5,26.4c-0.4,6.5-1.3,12.9-3.2,19.1c-1.4,4.6-3,9.1-5.7,13.1c-4.7,6.8-11.2,11.2-19.2,13.1
				c-3.5,0.8-7.2,1.3-10.8,1.6c-6.8,0.5-13.7,0.8-20.5,1.2c-5.2,0.3-10.5,0.5-15.7,0.6c-18.8,0.3-37.5,0.6-56.3,0.9
				c-0.5,0-1,0-1.5,0C505.5,841,505.5,841,505.5,841.1z M509.2,683.7c0,0.3,0,0.6,0,0.9c0,39.8,0,79.6,0,119.4c0,0.8,0.2,1,1,1
				c4.8,0,9.6,0,14.4,0c0.3,0,0.6,0,0.9-0.1c0-3,0-5.9,0-9c0.4,0.5,0.6,0.7,0.9,1c3,3.4,6.2,6.3,10.5,8c8.7,3.5,17.2-0.9,19.4-10
				c1.1-4.5,1.3-9.2,1.3-13.8c0-14.1,0.1-28.3,0-42.4c0-5.1-0.6-10.1-2.1-15c-0.8-2.8-2.1-5.5-4.3-7.5c-4-3.6-8.6-4-13.4-2.4
				c-4.8,1.5-8.4,4.8-11.6,8.4c-0.2,0.2-0.4,0.5-0.8,0.8c0-13.2,0-26.3,0-39.3C519.9,683.7,514.6,683.7,509.2,683.7z M478.9,714.4
				c0,0.5,0,0.8,0,1.2c0,22.2,0,44.3,0,66.5c0,0.5,0,1-0.3,1.3c-1.5,1.8-3,3.7-4.7,5.4c-1.1,1.1-2.4,1.9-4,2.2c-2.4,0.5-4-0.6-4.4-3
				c-0.1-0.4,0-0.8,0-1.1c0-23.8,0-47.6,0-71.3c0-0.4,0-0.7,0-1.2c-5.7,0-11.3,0-17,0c0,0.3,0,0.5,0,0.7c0,24.2,0,48.4,0,72.7
				c0,3.5,0.4,7,1.4,10.3c1.3,4.3,4.1,7.1,8.6,7.9c3.3,0.6,6.4,0,9.3-1.5c4-2,7.1-5.1,10.1-8.4c0.2-0.3,0.5-0.5,0.9-1
				c0,3.4,0,6.6,0,9.8c5.7,0,11.3,0,17,0c0-30.2,0-60.3,0-90.5C490.1,714.4,484.5,714.4,478.9,714.4z M617.8,762.5
				c0-0.3,0-0.4,0-0.6c0-6.7,0-13.3,0-20c0-3.9-0.5-7.7-1.5-11.4c-1.8-6.7-5.5-11.9-11.8-15.1c-4.7-2.4-9.8-2.9-14.9-2.2
				c-8,1.1-13.9,5.3-17.6,12.5c-2.5,4.9-3.3,10.2-3.4,15.6c-0.1,12.3-0.1,24.7,0,37c0,3.7,0.6,7.3,1.7,10.8
				c2.2,6.9,6.5,12.2,13.3,15c5,2.1,10.2,2.3,15.4,1.4c10.4-1.8,16.9-10.1,18.1-19.3c0.5-4.1,0.4-8.2,0.6-12.3c0-0.2,0-0.5-0.1-0.7
				c-5.7,0-11.3,0-17,0c0,0.4,0,0.7,0,1c0,2.9,0,5.8,0,8.7c0,1.6-0.3,3.1-1,4.6c-0.8,1.7-2.1,2.9-3.9,3.4c-4.1,1.2-7.7-0.6-9-4.7
				c-0.9-2.5-1-5.1-1-7.7c0-5,0-10,0-15.1c0-0.3,0-0.6,0-0.9C596.4,762.5,607.1,762.5,617.8,762.5z M413.4,700.7
				c0,34.8,0,69.4,0,104.1c6,0,12,0,18,0c0-34.7,0-69.4,0-104.1c6.6,0,13.1,0,19.6,0c0-5.7,0-11.3,0-16.9c-18.8,0-37.6,0-56.4,0
				c0,5.7,0,11.3,0,16.9C400.8,700.7,407,700.7,413.4,700.7z"/>
			<path class="st5" d="M328.3,713.6c0,0.5,0,0.8,0,1.2c0,24,0,48,0,72c0,0.4,0,0.8,0,1.1c0.5,2.7,2.3,3.9,4.9,3
				c1.3-0.4,2.6-1.1,3.5-2c1.7-1.7,3.2-3.6,4.8-5.5c0.2-0.3,0.2-0.8,0.2-1.2c0-22.5,0-44.9,0-67.4c0-0.4,0-0.8,0-1.2
				c5.7,0,11.3,0,16.9,0c0,30.4,0,60.8,0,91.2c-5.7,0-11.3,0-17,0c0-3.2,0-6.4,0-9.6c-0.1,0-0.1-0.1-0.2-0.1
				c-0.3,0.3-0.5,0.6-0.8,0.8c-2.7,3-5.6,5.8-9.1,7.9c-3.2,1.8-6.5,2.7-10.2,2.1c-4.7-0.8-7.5-3.6-8.8-8.1c-1.2-4-1.4-8.2-1.4-12.3
				c0-23.7,0-47.4,0-71.1c0-0.3,0-0.6,0-0.9C317,713.6,322.6,713.6,328.3,713.6z"/>
			<path class="st5" d="M250.2,760.7c0-6.2-0.1-12.5,0-18.8c0.1-5.4,0.6-10.8,2.8-15.8c3-6.7,7.8-11.4,15.3-12.7
				c6.2-1.1,12.3-0.8,18,2.2c5.1,2.7,8.3,7.1,10.1,12.6c1.5,4.7,2,9.5,2,14.4c0,11-0.1,21.9-0.1,32.8c0,4.9-0.3,9.8-1.7,14.6
				c-2.6,8.7-8.6,13.9-17.3,15.8c-7.8,1.7-14.9-0.2-20.9-5.5c-4.1-3.6-6.5-8.2-7.3-13.6c-0.5-3.2-0.8-6.5-0.9-9.8
				C250.1,771.5,250.2,766.1,250.2,760.7L250.2,760.7z M267.2,759.7c0,7,0,14,0,21c0,1.7,0.2,3.5,0.6,5.1c0.9,3.6,3.2,5.5,6.5,5.5
				c3.4,0.1,5.7-1.7,6.8-5.2c0.1-0.4,0.3-0.9,0.3-1.3c0.1-2.5,0.3-5.1,0.3-7.6c0.1-12.8,0.1-25.7,0.1-38.5c0-2.2-0.2-4.4-1.1-6.4
				c-1.2-2.7-3.5-4.1-6.5-4c-3,0.1-5.1,1.6-6.2,4.3c-0.8,1.9-1,4-1,6C267.2,745.7,267.2,752.7,267.2,759.7z"/>
			<path class="st5" d="M525.4,759.6c0-8.9,0-17.8,0-26.6c0-0.6,0.1-1.1,0.7-1.4c1.5-1,3-2,4.5-2.8c1.6-0.9,3.4-0.8,5.2-0.4
				c1.7,0.4,2.8,1.5,3.5,3c0.9,2.2,1.1,4.5,1.2,6.8c0.1,2,0,4,0,6c0,12,0,23.9,0,35.8c0,2.1-0.3,4.3-0.8,6.3
				c-0.9,3.8-3.2,5.4-7.7,4.7c-2.4-0.4-4.5-1.7-6.2-3.4c-0.3-0.3-0.4-0.8-0.4-1.2C525.4,777.4,525.4,768.5,525.4,759.6z"/>
			<path class="st5" d="M585.5,748.8c0-0.5,0-0.9,0-1.4c0-3.8,0-7.5,0.2-11.3c0-1.3,0.3-2.7,0.7-3.9c0.7-2.3,2.3-3.7,4.8-3.9
				c1.3-0.1,2.7-0.1,4,0c2.4,0.2,4,1.6,4.7,3.9c0.4,1.4,0.7,2.9,0.8,4.4c0.1,4,0,8.1,0,12.2C595.6,748.8,590.6,748.8,585.5,748.8z"
				/>
			<path class="st6" d="M478.7,795.1c-0.1,0.4-0.3,0.8-0.4,1.2"/>
			<path class="st6" d="M525.5,796c0.2,0.4,0.3,0.8,0.4,1.2"/>
		</g>
	</g>
	<g>
		<g>
			<path class="st5" d="M-162.1,1332c6.1,0,12.2,0,18.3,0c0.6,0,0.6,0.4,0.7,0.8c1.4,5.4,2.9,10.8,4.3,16.2
				c2.6,9.8,5.2,19.7,7.8,29.5c0.1,0.3,0.2,0.6,0.4,1.1c1.2-4.7,2.4-9.2,3.6-13.7c2.9-11,5.8-22,8.6-33c0.2-0.7,0.4-0.9,1.2-0.9
				c5.6,0,11.2,0,16.8,0c0.3,0,0.6,0,0.9,0c-0.1,0.4-0.1,0.6-0.2,0.9c-7.3,23.4-14.5,46.9-21.8,70.4c-0.2,0.6-0.3,1.2-0.3,1.8
				c0,16.1,0,32.2,0,48.3c0,0.2,0,0.5,0,0.8c-5.9,0-11.8,0-17.9,0c0-0.3,0-0.7,0-1.1c0-15.9,0-31.8,0-47.7c0-0.5,0-1-0.2-1.5
				c-7.3-23.7-14.6-47.3-21.9-71c-0.1-0.3-0.2-0.5-0.3-0.8C-162.1,1332.1-162.1,1332.1-162.1,1332z"/>
			<path class="st5" d="M152.2,1490.4c-17.6-0.3-35.2-0.6-52.8-1.1c-9.1-0.2-18.2-0.6-27.2-1c-7-0.3-14-0.9-20.9-2.3
				c-7.9-1.5-14.7-5-20-11.2c-2.7-3.3-4.4-7.1-5.8-11.1c-2.4-6.6-3.7-13.4-4.2-20.4c-0.6-8.6-1.2-17.2-1.8-25.8
				c-0.2-2.4-0.2-4.9-0.2-7.4c0-11.7-0.1-23.4,0.2-35.1c0.2-7.7,0.9-15.4,1.5-23.1c0.4-5.3,0.9-10.7,2.1-15.9
				c1.4-5.7,3-11.4,6.1-16.4c4-6.6,9.9-10.8,17.1-13.5c3.8-1.4,7.9-2.1,11.9-2.3c12-0.7,24-1.4,36.1-1.8c19.3-0.5,38.7-0.9,58-1
				c15.4-0.1,30.7,0.3,46.1,0.6c8.4,0.2,16.7,0.4,25.1,0.8c7.7,0.3,15.5,0.8,23.2,1.2c4.5,0.3,8.9,0.8,13.2,2.3
				c9.4,3.5,16.2,9.7,19.9,19.1c2.1,5.3,3.7,10.8,4.5,16.4c0.6,4.2,1,8.4,1.3,12.6c0.5,8.1,1.1,16.2,1.3,24.3
				c0.2,11.9,0.2,23.7,0,35.6c-0.2,8.8-1,17.6-1.5,26.4c-0.4,6.5-1.3,12.9-3.2,19.1c-1.4,4.6-3,9.1-5.7,13.1
				c-4.7,6.8-11.2,11.2-19.2,13.1c-3.5,0.8-7.2,1.3-10.8,1.6c-6.8,0.5-13.6,0.8-20.5,1.2c-5.2,0.3-10.4,0.5-15.7,0.6
				c-18.8,0.3-37.5,0.6-56.3,0.9c-0.5,0-1,0-1.5,0C152.2,1490.3,152.2,1490.4,152.2,1490.4z M155.9,1333.1c0,0.3-0.1,0.6-0.1,0.9
				c0,39.8,0,79.6,0,119.4c0,0.8,0.2,1,1,1c4.8,0,9.6,0,14.4,0c0.3,0,0.6,0,0.9-0.1c0-3,0-5.9,0-9c0.4,0.4,0.6,0.7,0.9,1
				c2.9,3.4,6.2,6.3,10.5,8c8.7,3.5,17.2-0.9,19.4-10c1.1-4.5,1.3-9.2,1.3-13.8c0-14.1,0.1-28.3,0-42.4c0-5.1-0.6-10.1-2.1-15
				c-0.9-2.8-2.1-5.5-4.3-7.5c-4-3.6-8.6-4-13.4-2.4c-4.8,1.5-8.4,4.8-11.6,8.4c-0.2,0.2-0.4,0.4-0.8,0.8c0-13.2,0-26.3,0-39.3
				C166.6,1333.1,161.3,1333.1,155.9,1333.1z M125.6,1363.7c0,0.4,0,0.8,0,1.2c0,22.2,0,44.3,0,66.5c0,0.4,0,1-0.3,1.3
				c-1.5,1.8-3,3.7-4.7,5.4c-1.1,1.1-2.4,1.9-4,2.2c-2.4,0.4-4-0.6-4.4-3.1c-0.1-0.4,0-0.8,0-1.1c0-23.8,0-47.6,0-71.3
				c0-0.4,0-0.7,0-1.2c-5.7,0-11.3,0-17,0c0,0.3,0,0.5,0,0.7c0,24.2,0,48.4,0,72.7c0,3.5,0.4,6.9,1.4,10.3c1.3,4.3,4.1,7.1,8.7,7.9
				c3.3,0.6,6.4,0,9.3-1.5c4-2.1,7.1-5.1,10.1-8.4c0.2-0.3,0.5-0.5,0.9-1c0,3.4,0,6.6,0,9.8c5.7,0,11.3,0,17,0c0-30.2,0-60.3,0-90.5
				C136.8,1363.7,131.3,1363.7,125.6,1363.7z M264.5,1411.8c0-0.3,0-0.4,0-0.6c0-6.7,0-13.3,0-20c0-3.9-0.5-7.7-1.5-11.4
				c-1.8-6.7-5.5-11.9-11.8-15.1c-4.7-2.4-9.8-2.9-14.9-2.2c-8,1.1-13.9,5.3-17.6,12.5c-2.5,4.9-3.3,10.2-3.4,15.6
				c-0.1,12.3-0.1,24.7,0,37c0,3.7,0.6,7.3,1.7,10.8c2.2,6.9,6.5,12.2,13.3,15c5,2.1,10.2,2.3,15.4,1.4
				c10.4-1.8,16.9-10.1,18.1-19.3c0.5-4.1,0.4-8.2,0.6-12.3c0-0.2,0-0.5-0.1-0.7c-5.7,0-11.3,0-17,0c0,0.4,0,0.7,0,1
				c0,2.9,0,5.8,0,8.7c0,1.6-0.3,3.1-1,4.6c-0.8,1.7-2.1,2.9-3.9,3.4c-4.1,1.2-7.6-0.6-9.1-4.7c-0.9-2.5-1-5.1-1-7.7
				c0-5,0-10.1,0-15.1c0-0.3,0-0.6,0-0.9C243.1,1411.8,253.8,1411.8,264.5,1411.8z M60.1,1350.1c0,34.8,0,69.4,0,104.1
				c6.1,0,12,0,18.1,0c0-34.7,0-69.4,0-104.1c6.6,0,13.1,0,19.6,0c0-5.7,0-11.3,0-16.9c-18.8,0-37.6,0-56.4,0c0,5.7,0,11.3,0,16.9
				C47.5,1350.1,53.7,1350.1,60.1,1350.1z"/>
			<path class="st5" d="M-25,1362.9c0,0.4,0,0.8,0,1.2c0,24,0,48,0,71.9c0,0.4,0,0.8,0,1.1c0.5,2.7,2.3,3.9,4.9,3
				c1.3-0.4,2.6-1.1,3.5-2c1.7-1.7,3.2-3.6,4.8-5.5c0.2-0.3,0.2-0.8,0.2-1.2c0-22.5,0-44.9,0-67.4c0-0.4,0-0.8,0-1.2
				c5.7,0,11.3,0,16.9,0c0,30.4,0,60.8,0,91.2c-5.7,0-11.3,0-17,0c0-3.2,0-6.4,0-9.6c-0.1,0-0.1-0.1-0.2-0.1
				c-0.3,0.3-0.5,0.6-0.8,0.8c-2.7,3-5.6,5.8-9.1,7.9c-3.2,1.8-6.5,2.7-10.2,2.1c-4.7-0.8-7.5-3.6-8.8-8.1c-1.2-4-1.4-8.2-1.4-12.3
				c0-23.7,0-47.4,0-71.1c0-0.3,0-0.6,0-0.9C-36.3,1362.9-30.7,1362.9-25,1362.9z"/>
			<path class="st5" d="M-103,1410.1c0-6.2-0.1-12.5,0-18.8c0.1-5.4,0.6-10.8,2.8-15.8c3-6.7,7.8-11.4,15.3-12.7
				c6.2-1.1,12.3-0.8,18,2.2c5.2,2.7,8.3,7.1,10.1,12.6c1.5,4.7,2,9.5,2,14.4c0,10.9-0.1,21.9-0.1,32.8c0,4.9-0.3,9.8-1.7,14.6
				c-2.6,8.7-8.6,13.9-17.3,15.8c-7.8,1.7-14.9-0.2-20.9-5.5c-4.1-3.6-6.5-8.2-7.3-13.6c-0.5-3.2-0.8-6.6-0.9-9.8
				C-103.1,1420.8-103,1415.4-103,1410.1C-103,1410.1-103,1410.1-103,1410.1z M-86.1,1409.1c0,7,0,14,0,21c0,1.7,0.2,3.4,0.6,5.1
				c0.9,3.6,3.2,5.4,6.5,5.5c3.4,0.1,5.7-1.7,6.8-5.2c0.1-0.4,0.3-0.9,0.3-1.3c0.1-2.5,0.3-5.1,0.3-7.6c0.1-12.8,0.1-25.7,0.1-38.6
				c0-2.2-0.2-4.4-1.1-6.4c-1.2-2.7-3.4-4.1-6.5-4c-3,0.1-5.1,1.6-6.2,4.3c-0.8,1.9-0.9,4-0.9,6C-86.1,1395-86.1,1402.1-86.1,1409.1
				z"/>
			<path class="st5" d="M172.1,1409c0-8.9,0-17.8,0-26.6c0-0.6,0.1-1.1,0.6-1.4c1.5-0.9,2.9-2,4.5-2.8c1.6-0.9,3.4-0.8,5.2-0.4
				c1.7,0.4,2.8,1.5,3.5,3c0.9,2.2,1.1,4.5,1.2,6.8c0.1,2,0,4,0,6c0,11.9,0,23.9,0,35.8c0,2.1-0.3,4.3-0.8,6.3
				c-0.9,3.8-3.2,5.4-7.7,4.7c-2.4-0.4-4.4-1.7-6.2-3.4c-0.3-0.3-0.4-0.8-0.4-1.2C172.1,1426.7,172.1,1417.9,172.1,1409z"/>
			<path class="st5" d="M232.2,1398.1c0-0.5,0-0.9,0-1.4c0-3.8,0-7.5,0.2-11.3c0.1-1.3,0.4-2.7,0.7-3.9c0.7-2.3,2.3-3.7,4.8-3.9
				c1.3-0.1,2.7-0.1,4,0c2.4,0.2,4,1.6,4.6,3.9c0.4,1.4,0.7,2.9,0.8,4.4c0.1,4.1,0,8.1,0,12.2
				C242.3,1398.1,237.3,1398.1,232.2,1398.1z"/>
			<path class="st6" d="M125.4,1444.5c-0.2,0.4-0.3,0.8-0.4,1.2"/>
			<path class="st6" d="M172.2,1445.3c0.1,0.4,0.3,0.8,0.4,1.2"/>
		</g>
	</g>
	<g>
		<g>
			<path class="st5" d="M726.7,930.3c6.1,0,12.2,0,18.3,0c0.6,0,0.6,0.4,0.7,0.8c1.4,5.4,2.8,10.8,4.3,16.2
				c2.6,9.8,5.2,19.7,7.8,29.5c0.1,0.3,0.2,0.6,0.4,1.1c1.2-4.7,2.4-9.2,3.6-13.7c2.9-11,5.8-22,8.6-33c0.2-0.7,0.4-0.9,1.2-0.9
				c5.6,0,11.2,0,16.8,0c0.3,0,0.6,0,0.9,0c-0.1,0.4-0.1,0.6-0.2,0.9c-7.3,23.5-14.5,46.9-21.8,70.4c-0.2,0.6-0.3,1.2-0.3,1.8
				c0,16.1,0,32.2,0,48.3c0,0.2,0,0.5,0,0.8c-6,0-11.8,0-17.9,0c0-0.3,0-0.7,0-1.1c0-15.9,0-31.8,0-47.7c0-0.5,0-1-0.2-1.5
				c-7.3-23.7-14.6-47.3-21.9-71c-0.1-0.3-0.2-0.5-0.3-0.8C726.7,930.4,726.7,930.3,726.7,930.3z"/>
			<path class="st5" d="M1041.1,1088.7c-17.6-0.3-35.2-0.6-52.8-1.1c-9.1-0.2-18.2-0.6-27.2-1c-7-0.3-14-0.9-20.9-2.3
				c-7.9-1.5-14.7-5-20-11.2c-2.7-3.3-4.4-7.1-5.8-11.1c-2.3-6.6-3.7-13.4-4.2-20.4c-0.6-8.6-1.2-17.2-1.8-25.8
				c-0.2-2.5-0.2-4.9-0.2-7.4c0-11.7-0.1-23.4,0.2-35c0.2-7.7,0.9-15.4,1.5-23.1c0.4-5.3,0.9-10.7,2.1-15.9c1.4-5.7,3-11.4,6.1-16.4
				c4-6.6,9.9-10.8,17.1-13.5c3.8-1.4,7.9-2,11.9-2.3c12-0.7,24-1.4,36.1-1.8c19.3-0.5,38.7-0.9,58-1c15.4-0.1,30.7,0.3,46.1,0.6
				c8.4,0.2,16.7,0.4,25.1,0.8c7.7,0.3,15.5,0.8,23.2,1.2c4.5,0.3,8.9,0.8,13.2,2.3c9.4,3.5,16.2,9.7,19.9,19.1
				c2.1,5.3,3.7,10.8,4.5,16.4c0.6,4.2,1,8.4,1.3,12.6c0.5,8.1,1.1,16.2,1.3,24.3c0.2,11.9,0.2,23.7,0,35.6
				c-0.2,8.8-1,17.6-1.5,26.4c-0.4,6.5-1.3,12.9-3.2,19.1c-1.4,4.6-2.9,9.1-5.7,13.1c-4.7,6.8-11.2,11.2-19.2,13.1
				c-3.5,0.8-7.2,1.3-10.8,1.6c-6.8,0.5-13.7,0.8-20.5,1.2c-5.2,0.3-10.4,0.5-15.7,0.6c-18.8,0.3-37.5,0.6-56.3,0.9
				c-0.5,0-1,0-1.5,0C1041.1,1088.6,1041.1,1088.7,1041.1,1088.7z M1044.8,931.4c0,0.3-0.1,0.6-0.1,0.9c0,39.8,0,79.6,0,119.4
				c0,0.8,0.2,1,1,1c4.8,0,9.6,0,14.4,0c0.3,0,0.6,0,0.9-0.1c0-3,0-5.9,0-9c0.4,0.4,0.6,0.7,0.9,1c2.9,3.4,6.2,6.3,10.5,8
				c8.7,3.5,17.2-0.9,19.4-10c1.1-4.5,1.3-9.2,1.3-13.8c0-14.1,0.1-28.3,0-42.4c0-5.1-0.6-10.1-2.1-15c-0.8-2.8-2.1-5.5-4.3-7.5
				c-4-3.6-8.6-4-13.4-2.4c-4.8,1.5-8.4,4.8-11.6,8.4c-0.2,0.2-0.4,0.5-0.8,0.8c0-13.2,0-26.3,0-39.3
				C1055.4,931.4,1050.2,931.4,1044.8,931.4z M1014.5,962c0,0.5,0,0.8,0,1.2c0,22.2,0,44.3,0,66.5c0,0.4,0,1-0.3,1.3
				c-1.5,1.8-3,3.7-4.7,5.4c-1.1,1.1-2.4,1.9-4,2.2c-2.4,0.4-4-0.6-4.4-3.1c-0.1-0.4,0-0.8,0-1.1c0-23.8,0-47.6,0-71.3
				c0-0.4,0-0.7,0-1.2c-5.7,0-11.3,0-17,0c0,0.3,0,0.5,0,0.7c0,24.2,0,48.4,0,72.6c0,3.5,0.4,6.9,1.4,10.3c1.3,4.3,4.1,7.1,8.7,7.9
				c3.3,0.6,6.4,0,9.3-1.5c4-2.1,7.1-5.1,10.1-8.4c0.2-0.3,0.5-0.5,0.9-1c0,3.4,0,6.6,0,9.8c5.7,0,11.3,0,17,0c0-30.2,0-60.3,0-90.5
				C1025.7,962,1020.2,962,1014.5,962z M1153.4,1010.1c0-0.3,0-0.4,0-0.6c0-6.7,0-13.3,0-20c0-3.9-0.6-7.7-1.6-11.4
				c-1.8-6.7-5.5-11.9-11.8-15.1c-4.7-2.4-9.8-2.9-14.9-2.2c-8,1.1-13.9,5.3-17.6,12.5c-2.5,4.9-3.3,10.2-3.4,15.6
				c-0.1,12.3-0.1,24.7,0,37c0,3.7,0.6,7.3,1.7,10.8c2.2,6.9,6.5,12.2,13.3,15c5,2.1,10.2,2.3,15.4,1.4
				c10.4-1.8,16.9-10.1,18.1-19.3c0.5-4.1,0.4-8.2,0.6-12.3c0-0.2,0-0.5-0.1-0.7c-5.7,0-11.3,0-17,0c0,0.4,0,0.7,0,1
				c0,2.9,0,5.8,0,8.7c0,1.6-0.3,3.1-1,4.6c-0.8,1.7-2.1,2.9-3.9,3.4c-4.1,1.2-7.7-0.6-9.1-4.7c-0.9-2.5-1-5.1-1-7.7
				c0-5,0-10,0-15.1c0-0.3,0-0.6,0-0.9C1132,1010.1,1142.7,1010.1,1153.4,1010.1z M949,948.3c0,34.8,0,69.4,0,104.1c6,0,12,0,18,0
				c0-34.7,0-69.4,0-104.1c6.6,0,13.1,0,19.6,0c0-5.7,0-11.3,0-16.9c-18.8,0-37.6,0-56.4,0c0,5.7,0,11.3,0,16.9
				C936.4,948.3,942.6,948.3,949,948.3z"/>
			<path class="st5" d="M863.9,961.2c0,0.5,0,0.8,0,1.2c0,24,0,48,0,71.9c0,0.4,0,0.8,0,1.1c0.5,2.7,2.3,3.9,4.9,3
				c1.3-0.4,2.6-1.1,3.5-2c1.7-1.7,3.2-3.6,4.8-5.5c0.2-0.3,0.2-0.8,0.2-1.2c0-22.5,0-44.9,0-67.4c0-0.4,0-0.8,0-1.2
				c5.7,0,11.3,0,16.9,0c0,30.4,0,60.8,0,91.2c-5.7,0-11.3,0-17,0c0-3.2,0-6.4,0-9.6c-0.1,0-0.1-0.1-0.2-0.1
				c-0.3,0.3-0.5,0.6-0.8,0.8c-2.7,3-5.6,5.8-9.1,7.9c-3.2,1.8-6.5,2.7-10.2,2.1c-4.7-0.8-7.5-3.6-8.8-8.1c-1.2-4-1.4-8.2-1.4-12.3
				c0-23.7,0-47.4,0-71.1c0-0.3,0-0.6,0-0.9C852.6,961.2,858.2,961.2,863.9,961.2z"/>
			<path class="st5" d="M785.8,1008.3c0-6.2,0-12.5,0-18.8c0.1-5.4,0.6-10.8,2.8-15.8c3-6.7,7.8-11.4,15.3-12.7
				c6.2-1.1,12.3-0.8,18,2.2c5.2,2.7,8.3,7.1,10.1,12.6c1.5,4.7,2,9.5,2,14.4c0,11-0.1,21.9-0.1,32.8c0,4.9-0.3,9.8-1.7,14.6
				c-2.6,8.7-8.6,13.9-17.3,15.8c-7.8,1.7-14.9-0.2-20.9-5.5c-4.1-3.6-6.5-8.2-7.3-13.6c-0.5-3.2-0.8-6.6-0.9-9.8
				C785.7,1019.1,785.8,1013.7,785.8,1008.3L785.8,1008.3z M802.8,1007.4c0,7,0,14,0,21c0,1.7,0.2,3.4,0.6,5.1
				c0.9,3.6,3.2,5.4,6.5,5.5c3.4,0.1,5.7-1.7,6.8-5.2c0.1-0.4,0.3-0.9,0.3-1.3c0.1-2.5,0.3-5.1,0.3-7.6c0.1-12.8,0.1-25.7,0.1-38.5
				c0-2.2-0.2-4.4-1.1-6.4c-1.2-2.7-3.5-4.1-6.5-4c-3,0.1-5.1,1.6-6.2,4.3c-0.8,1.9-1,4-1,6C802.8,993.3,802.8,1000.3,802.8,1007.4z
				"/>
			<path class="st5" d="M1061,1007.2c0-8.9,0-17.8,0-26.6c0-0.6,0.1-1.1,0.7-1.4c1.5-1,2.9-2,4.5-2.8c1.6-0.9,3.4-0.8,5.2-0.4
				c1.7,0.4,2.8,1.5,3.5,3c0.9,2.2,1.1,4.5,1.2,6.8c0.1,2,0,4,0,6c0,12,0,23.9,0,35.8c0,2.1-0.3,4.3-0.8,6.3
				c-0.9,3.8-3.2,5.4-7.7,4.7c-2.4-0.4-4.4-1.7-6.2-3.4c-0.3-0.3-0.4-0.8-0.4-1.2C1061,1025,1061,1016.1,1061,1007.2z"/>
			<path class="st5" d="M1121.1,996.4c0-0.5,0-0.9,0-1.4c0-3.8,0-7.5,0.2-11.3c0.1-1.3,0.3-2.7,0.7-3.9c0.7-2.3,2.3-3.7,4.8-3.9
				c1.3-0.1,2.7-0.1,4,0c2.4,0.2,4,1.6,4.7,3.9c0.4,1.4,0.7,2.9,0.8,4.4c0.1,4,0,8.1,0,12.2C1131.2,996.4,1126.2,996.4,1121.1,996.4
				z"/>
			<path class="st6" d="M1014.3,1042.7c-0.2,0.4-0.3,0.8-0.4,1.2"/>
			<path class="st6" d="M1061.1,1043.6c0.2,0.4,0.3,0.8,0.4,1.2"/>
		</g>
	</g>
</g>
<g>
	<g>
		<g>
			<path class="st7" d="M925,551.5c0,4.7,0,9.4,0,14.1c-0.5,3.9-0.8,7.9-1.5,11.8c-7.8,44.3-40.5,79.7-84,90.8
				c-2.7,0.7-5.4,1.2-8,1.8c0-1.8,0-3.4,0-5c0-24.2,0-48.3,0-72.4c0-2.6,0.1-2.7,2.7-2.7c6.6,0,13.2,0,19.9,0c1.6,0,2.4-0.5,2.7-2.2
				c1.4-8.9,2.8-17.7,4.2-26.5c0.4-2.6,0.4-2.6-2.3-2.6c-8.3,0-16.6,0-25,0c-1.1,0-2.2,0-2.2-1.6c0.1-7.9-0.1-15.8,0.3-23.7
				c0.3-6.7,4.2-10.7,10.8-12c1.4-0.3,2.8-0.4,4.2-0.5c4.7-0.1,9.4-0.1,14.1,0c1.5,0,2.2-0.5,2.2-2.1c-0.1-8.2,0-16.4,0-24.6
				c0-1.4-0.5-2-1.9-2.2c-2.8-0.3-5.7-0.8-8.5-1c-7.9-0.8-15.8-1.5-23.7-0.2c-11.4,1.9-20.9,7-27.5,16.9c-4.8,7.3-6.8,15.5-7,24.2
				c-0.1,8.1,0,16.3,0,24.4c0,2.3-0.1,2.4-2.3,2.4c-7.8,0-15.6,0-23.4,0c-2.3,0-2.4,0.1-2.4,2.4c0,8.8,0,17.6,0,26.4
				c0,2.4,0.1,2.6,2.6,2.6c7.6,0,15.1,0,22.7,0c2.8,0,2.8,0,2.8,2.8c0,24.8,0,49.6,0,74.4c0,0.5,0,0.9,0,1.4c0,1-0.5,1.5-1.5,1.3
				c-0.5-0.1-1-0.2-1.6-0.3c-25.1-5.3-46.4-17.2-63.2-36.5c-23.9-27.4-32.9-59.4-26.3-95.1c11-59.2,66.1-98.7,125.8-90.9
				c45.8,6,84.5,41.4,94.5,86.5C923.4,539.4,924,545.5,925,551.5z"/>
		</g>
	</g>
	<g>
		<g>
			<path class="st7" d="M397.9,958.5c0,4.7,0,9.4,0,14.1c-0.5,3.9-0.8,7.9-1.5,11.8c-7.8,44.3-40.5,79.7-84,90.8
				c-2.7,0.7-5.4,1.2-8,1.8c0-1.8,0-3.4,0-5c0-24.2,0-48.3,0-72.4c0-2.6,0.1-2.7,2.6-2.7c6.6,0,13.2,0,19.9,0c1.6,0,2.4-0.5,2.7-2.2
				c1.4-8.9,2.8-17.7,4.2-26.5c0.4-2.6,0.4-2.6-2.3-2.6c-8.3,0-16.6,0-25,0c-1.1,0-2.2,0-2.1-1.6c0.1-7.9-0.1-15.8,0.3-23.7
				c0.3-6.7,4.2-10.7,10.8-12c1.4-0.3,2.8-0.4,4.2-0.5c4.7-0.1,9.4-0.1,14.1,0c1.5,0,2.2-0.5,2.2-2.1c-0.1-8.2,0-16.4,0-24.6
				c0-1.4-0.5-2-1.9-2.2c-2.9-0.3-5.7-0.8-8.5-1c-7.9-0.8-15.8-1.5-23.6-0.2c-11.4,1.9-20.9,7-27.5,16.9c-4.8,7.3-6.8,15.5-7,24.2
				c-0.1,8.1,0,16.3,0,24.4c0,2.3-0.1,2.4-2.4,2.4c-7.8,0-15.6,0-23.4,0c-2.3,0-2.4,0.1-2.4,2.4c0,8.8,0,17.6,0,26.4
				c0,2.4,0.1,2.6,2.6,2.6c7.6,0,15.1,0,22.7,0c2.8,0,2.8,0,2.9,2.8c0,24.8,0,49.6,0,74.4c0,0.5,0,0.9,0,1.4c0,1-0.5,1.5-1.5,1.3
				c-0.5-0.1-1-0.2-1.6-0.3c-25.1-5.3-46.4-17.2-63.2-36.5c-23.9-27.4-32.9-59.4-26.3-95.1c11-59.2,66.1-98.7,125.8-90.9
				c45.8,6,84.5,41.4,94.5,86.5C396.4,946.4,397,952.5,397.9,958.5z"/>
		</g>
	</g>
	<g>
		<g>
			<path class="st7" d="M1655,74.5c0,4,0,8,0,12c-0.4,3.3-0.7,6.7-1.3,10.1c-6.8,37.7-35.7,67.7-74,77.2c-2.4,0.6-4.8,1-7.1,1.5
				c0-1.6,0-2.9,0-4.2c0-20.5,0-41.1,0-61.6c0-2.2,0.1-2.3,2.3-2.3c5.8,0,11.7,0,17.5,0c1.4,0,2.2-0.4,2.4-1.8
				c1.2-7.5,2.5-15.1,3.7-22.6c0.4-2.2,0.3-2.2-2-2.2c-7.3,0-14.7,0-22,0c-1,0-1.9,0-1.9-1.3c0.1-6.7-0.1-13.5,0.3-20.2
				c0.3-5.7,3.7-9.1,9.5-10.2c1.2-0.2,2.5-0.4,3.7-0.4c4.1-0.1,8.3-0.1,12.4,0c1.4,0,1.9-0.4,1.9-1.8c-0.1-7,0-14,0-20.9
				c0-1.2-0.4-1.7-1.6-1.9c-2.5-0.3-5-0.6-7.5-0.9c-6.9-0.7-13.9-1.3-20.8-0.1c-10.1,1.6-18.4,6-24.2,14.4c-4.3,6.2-6,13.2-6.2,20.5
				c-0.1,6.9,0,13.9,0,20.8c0,2-0.1,2-2.1,2c-6.9,0-13.7,0-20.6,0c-2,0-2.1,0.1-2.1,2c0,7.5,0,14.9,0,22.4c0,2.1,0.1,2.2,2.3,2.2
				c6.7,0,13.3,0,20,0c2.5,0,2.5,0,2.5,2.4c0,21.1,0,42.2,0,63.2c0,0.4,0,0.8,0,1.2c0,0.9-0.4,1.3-1.4,1.1c-0.5-0.1-0.9-0.1-1.4-0.2
				c-22.1-4.5-40.9-14.6-55.8-31.1c-21-23.3-29-50.5-23.2-80.9c9.7-50.3,58.2-83.9,110.8-77.3c40.3,5.1,74.5,35.2,83.3,73.5
				C1653.7,64.2,1654.2,69.4,1655,74.5z"/>
		</g>
	</g>
	<g>
		<g>
			<path class="st7" d="M204.6,427.1c0-69.4,0-138.8,0-208.3c200.1,0,400.1,0,600.2,0c0,69.4,0,138.8,0,208.3
				C604.7,427.1,404.6,427.1,204.6,427.1z M516.2,315.2c-0.1-1.6-0.2-2.8-0.2-3.9c0-11.1-0.1-22.2,0-33.3c0-2.5-0.9-3.4-3.4-3.1
				c-3.6,0.4-7.2,0.8-10.7,1c-4.4,0.4-4.5,0.5-4.5,4.8c0,18.4,0,36.8,0,55.2c0,10.3,0,20.6,0,30.9c0,2,0.3,3.6,2.8,3.6c4,0,8,0,12,0
				c2,0,2.8-1,2.8-3c-0.1-1.6,0-3.2,0-4.7c3.3,2.5,6,5.5,9.3,7c13.2,6.1,28.6-0.8,33.1-14.5c2.9-8.8,2.8-17.8,1.3-26.7
				c-0.6-3.4-1.8-6.8-3.4-9.9c-7.8-15.3-30.4-15.4-37.6-4.6C517.5,314.4,517.1,314.6,516.2,315.2z M761.9,370.5
				c0.1-0.3,0.2-0.7,0.4-1c-0.7-1.2-1.4-2.4-2.2-3.5c-5.1-8-10.2-16-15.5-23.9c-1.7-2.5-1.6-4.3,0-6.7c5.2-7.9,10.2-16,15.3-24
				c0.6-0.9,1-1.8,1.8-3.2c-1.5-0.1-2.5-0.2-3.5-0.2c-3.9,0-7.8,0.2-11.7-0.1c-3.4-0.3-5.3,1.1-6.9,3.9c-4.3,7.3-8.9,14.5-13.4,21.7
				c-0.7,1.1-1.4,2.1-2.1,3.1c-0.7-1.4-0.9-2.7-0.9-3.9c0-18.1,0-36.2,0-54.3c0-2.8-0.8-3.8-3.6-3.4c-4,0.5-8,0.9-11.9,1.1
				c-2.4,0.1-3.3,1.1-3.2,3.5c0,29.2,0,58.4,0,87.6c0,2.5,1,3.4,3.4,3.3c3.9-0.1,7.8-0.1,11.7,0c2.7,0.1,3.7-1,3.7-3.7
				c-0.1-7.6,0-15.2,0-22.8c0-1,0.2-2,0.2-3c5.5,7.5,10.3,15.1,15.2,22.6c5.2,8,2.5,6.7,12.2,6.8
				C754.6,370.5,758.2,370.5,761.9,370.5z M351.9,316.3c-1.8-2-2.9-3.6-4.4-4.9c-1.6-1.3-3.4-2.6-5.3-3.4
				c-12.8-5.3-27.5,1.5-31.7,14.9c-3.3,10.5-3.3,21.4,0,31.9c1.1,3.5,3.2,7,5.7,9.7c7.7,8.8,23.8,9.5,31.8,1.9
				c1.3-1.2,2.3-2.7,3.9-4.6c0.1,2.1,0.3,3.5,0.2,5c-0.2,2.6,0.9,3.6,3.5,3.6c3.8-0.1,7.6-0.1,11.4,0c2.1,0,3.1-0.7,3.1-3
				c0-18.9,0-37.8,0-56.7c0-2-0.8-3-2.9-2.9c-4,0-8,0.1-12,0c-2.1,0-3.1,0.8-3.1,3C352.1,312.5,352,314.1,351.9,316.3z M628.9,339.2
				c-0.2,0-0.5-0.1-0.7-0.1c0-2,0.1-4,0-6c-1.1-13.5-9.1-23.3-22.1-25.6c-5.6-1-11.6-1-17.2-0.1c-11.2,1.9-18.7,8.8-21.4,20
				c-2,8-2,16.1,0.2,24c2.6,9.5,8.7,15.8,18.2,18.6c7.7,2.2,15.4,2.2,23.1-0.1c9-2.7,15.1-8.6,17.7-17.6
				C627.8,348.2,628.2,343.6,628.9,339.2z M634.5,338.8c0.3,8.5,1.6,16.6,7.4,23.1c9.4,10.5,21.6,11.3,34.2,8.5
				c10.3-2.2,16.9-8.9,19.6-19c2.3-8.2,2.2-16.6-0.1-24.9c-2.7-9.8-9.2-16-18.9-18.7C670,306,663,306,656,307.7
				c-9.8,2.4-16.5,8.5-19.3,18.2C635.6,330.1,635.2,334.5,634.5,338.8z M469,345.5C469,345.5,469,345.5,469,345.5
				c5.6,0,11.2-0.1,16.8,0c2.5,0,3.4-1,3.3-3.4c-0.1-3.5,0-7-0.2-10.5c-0.9-15.2-10.3-24.6-25.6-25c-4-0.1-8.2,0.2-12.2,1.1
				c-11,2.3-18.1,9.2-19.8,20.2c-1,7.2-0.9,14.8,0,22c1.2,9.5,6.8,16.4,16.1,19.4c12.6,4,25.2,2.9,37.7-1.1c1.8-0.6,2.2-1.8,1.7-3.5
				c-0.6-2.2-1.3-4.4-1.7-6.7c-0.5-2.8-1.7-3.5-4.5-2.5c-7.3,2.4-14.8,3.4-22.5,2c-4.7-0.8-7.6-3.7-8.6-8.5c-0.6-3-0.2-3.6,2.9-3.6
				C458,345.5,463.5,345.5,469,345.5z M272.1,346.4L272.1,346.4c0,6.9,0.1,13.8,0,20.7c0,2.4,0.9,3.5,3.3,3.4c3.7-0.1,7.4,0,11.1,0
				c4.2,0,4.4-0.1,4.4-4.4c0-13.1,0.1-26.2,0-39.3c0-2.8,1-3.8,3.6-3.6c2.5,0.2,5-0.1,7.5,0c2.2,0.1,3.4-0.6,3.5-3
				c0.2-3.1,0.6-6.2,1-9.2c0.3-2.2-0.5-3.2-2.8-3.1c-3.4,0-6.8,0-10.2,0c-1.5,0-2.6-0.4-2.5-2.1c0-3.4-0.1-6.8,0.2-10.2
				c0.3-3.6,2.5-5.5,6.1-5.8c2.2-0.2,4.4-0.2,6.6-0.1c2.5,0.1,3.4-1,3.3-3.4c-0.1-2.6-0.1-5.2,0-7.8c0.1-2.4-0.9-3.5-3.3-3.6
				c-4.2,0-8.4-0.2-12.6,0c-11.1,0.6-17.9,7.3-18.7,18.4c-0.3,3.9-0.4,7.8-0.4,11.7c0,2.2-0.9,3-3.1,3c-2.4-0.1-4.8,0-7.2,0
				c-1.7,0-2.5,0.8-2.5,2.6c0,3.4,0,6.8,0,10.2c0,1.8,0.8,2.6,2.5,2.6c2.4,0,4.8,0.1,7.2,0c2.4-0.1,3.1,0.8,3.1,3.1
				C272,333,272.1,339.7,272.1,346.4z M377.1,339.2c0.1,0,0.3,0,0.5,0c0,1.8-0.1,3.6,0,5.4c0.6,8,2.8,15.5,9.5,20.3
				c12,8.7,25.1,8.5,38.6,3.8c1.7-0.6,1.9-1.8,1.4-3.4c-0.9-2.9-1.9-5.7-2.7-8.6c-0.5-1.8-1.4-1.9-3.1-1.5
				c-4.1,0.8-8.2,1.7-12.4,1.7c-6.5,0-11.1-3.9-12-10.1c-0.7-5.1-0.7-10.4,0-15.5c0.8-5.9,5.1-9.7,11.1-10c4.2-0.2,8.5,0.5,12.7,1.4
				c2.5,0.6,3.4,0.1,4-2.2c0.6-2.3,1.2-4.6,2.2-6.9c1-2.5,0.3-3.9-2.2-4.8c-9.7-3.4-19.5-3.5-29.1-0.4c-9.1,2.9-14.8,9.4-16.8,18.7
				C377.7,331.2,377.6,335.2,377.1,339.2z"/>
			<path class="st7" d="M541.2,339.4c-0.5,3.1-0.6,6.4-1.5,9.6c-1.5,5.3-5.8,8.1-11.6,8c-5.6-0.1-9.7-3-11-8.3
				c-1.6-6.3-1.6-12.7,0-19c1.5-5.6,5.5-8.4,11.3-8.4c6,0,10.1,2.9,11.6,8.5C540.6,332.8,540.7,336,541.2,339.4z"/>
			<path class="st7" d="M351.5,339.1c-0.3,3-0.4,6.1-1,9c-1.2,5.6-5.3,8.8-10.9,8.9c-6.1,0.1-10.8-2.8-11.5-8.6
				c-0.8-6-0.9-12.3,0-18.4c0.8-6.1,5.4-8.8,11.8-8.7c5.5,0.1,9.5,3.3,10.7,9C351.1,333.2,351.2,336.2,351.5,339.1z"/>
			<path class="st7" d="M584.6,339.1c0.4-3.2,0.5-6.2,1.2-9.1c1.4-5.7,5.6-8.7,11.4-8.7c6,0,10.1,2.7,11.6,8.4
				c1.6,6.2,1.6,12.5,0.1,18.7c-1.4,5.6-5.5,8.6-11.2,8.6c-6.2,0-10.2-2.7-11.8-8.6C585,345.3,585,342.1,584.6,339.1z"/>
			<path class="st7" d="M678.7,340.1c-0.3,2.2-0.4,5.2-1.1,8.1c-1.5,5.9-5.6,8.9-11.6,8.9c-5.9,0-10.5-3-11.4-9
				c-0.8-5.6-1-11.6-0.2-17.2c1-6.9,5.7-9.9,12.7-9.5c5.9,0.3,10,4.3,10.9,10.8C678.5,334.4,678.5,336.9,678.7,340.1z"/>
			<path class="st7" d="M460.6,333.4c-2.9,0-5.8,0-8.7,0c-2,0-2.6-0.9-2.5-2.8c0.2-6.8,4.5-11.1,11.5-11.2c7-0.2,11,3.6,11.5,10.6
				c0.2,2.4-0.5,3.6-3.1,3.5C466.4,333.4,463.5,333.5,460.6,333.4C460.6,333.4,460.6,333.4,460.6,333.4z"/>
		</g>
	</g>
	<g>
		<g>
			<path class="st7" d="M678.1,867.2c0-58.3,0-116.5,0-174.8c167.9,0,335.8,0,503.8,0c0,58.3,0,116.5,0,174.8
				C1014,867.2,846.1,867.2,678.1,867.2z M939.7,773.3c-0.1-1.4-0.2-2.3-0.2-3.3c0-9.3,0-18.6,0-28c0-2.1-0.8-2.9-2.8-2.6
				c-3,0.4-6,0.6-9,0.9c-3.7,0.3-3.8,0.4-3.8,4c0,15.4,0,30.9,0,46.3c0,8.7,0,17.3,0,25.9c0,1.7,0.2,3,2.4,3c3.4,0,6.7,0,10.1,0
				c1.7,0,2.4-0.9,2.3-2.5c0-1.4,0-2.7,0-4c2.8,2.1,5,4.6,7.8,5.9c11,5.1,24-0.7,27.8-12.2c2.4-7.3,2.4-14.9,1.1-22.4
				c-0.5-2.8-1.5-5.7-2.8-8.3c-6.6-12.8-25.5-12.9-31.5-3.9C940.8,772.6,940.4,772.7,939.7,773.3z M1145.9,819.7
				c0.1-0.3,0.2-0.6,0.3-0.8c-0.6-1-1.2-2-1.8-3c-4.3-6.7-8.5-13.5-13-20.1c-1.4-2.1-1.3-3.6,0-5.6c4.4-6.7,8.6-13.4,12.9-20.2
				c0.5-0.7,0.9-1.5,1.6-2.7c-1.3-0.1-2.1-0.2-2.9-0.2c-3.3,0-6.6,0.2-9.8-0.1c-2.9-0.2-4.4,0.9-5.8,3.3
				c-3.6,6.1-7.5,12.1-11.3,18.2c-0.6,0.9-1.2,1.8-1.8,2.6c-0.6-1.2-0.8-2.2-0.8-3.3c0-15.2,0-30.4,0-45.6c0-2.3-0.6-3.2-3-2.8
				c-3.3,0.5-6.7,0.8-10,0.9c-2,0.1-2.7,1-2.7,3c0,24.5,0,49,0,73.5c0,2.1,0.9,2.8,2.9,2.8c3.3-0.1,6.6-0.1,9.8,0
				c2.3,0.1,3.1-0.8,3.1-3.1c-0.1-6.4,0-12.8,0-19.1c0-0.8,0.1-1.7,0.2-2.5c4.6,6.3,8.6,12.7,12.8,19c4.4,6.7,2.1,5.6,10.2,5.7
				C1139.8,819.7,1142.8,819.7,1145.9,819.7z M801.8,774.2c-1.5-1.7-2.4-3-3.7-4.1c-1.3-1.1-2.8-2.2-4.4-2.8
				c-10.7-4.4-23,1.3-26.6,12.5c-2.8,8.8-2.8,17.9,0,26.8c0.9,2.9,2.7,5.8,4.8,8.2c6.5,7.3,20,8,26.7,1.6c1.1-1,1.9-2.2,3.3-3.9
				c0.1,1.8,0.2,3,0.2,4.2c-0.1,2.2,0.8,3.1,2.9,3c3.2-0.1,6.4-0.1,9.6,0c1.8,0,2.6-0.6,2.6-2.5c0-15.9,0-31.7,0-47.6
				c0-1.7-0.7-2.5-2.4-2.5c-3.4,0-6.7,0-10.1,0c-1.8,0-2.6,0.7-2.6,2.5C802,771,801.8,772.3,801.8,774.2z M1034.3,793.4
				c-0.2,0-0.4,0-0.6-0.1c0-1.7,0.1-3.4,0-5c-0.9-11.4-7.7-19.5-18.5-21.5c-4.7-0.8-9.8-0.9-14.5-0.1c-9.4,1.6-15.7,7.4-18,16.8
				c-1.6,6.7-1.7,13.5,0.2,20.2c2.2,8,7.3,13.3,15.3,15.6c6.4,1.9,12.9,1.9,19.4-0.1c7.6-2.3,12.7-7.2,14.8-14.8
				C1033.4,800.9,1033.7,797.1,1034.3,793.4z M1039,793.1c0.3,7.1,1.3,13.9,6.2,19.4c7.9,8.8,18.1,9.5,28.8,7.2
				c8.6-1.9,14.2-7.5,16.5-15.9c1.9-6.9,1.8-14-0.1-20.9c-2.2-8.2-7.7-13.4-15.8-15.7c-5.8-1.6-11.6-1.6-17.4-0.1
				c-8.2,2-13.8,7.1-16.2,15.3C1039.9,785.8,1039.6,789.5,1039,793.1z M900.1,798.7C900.1,798.7,900.1,798.7,900.1,798.7
				c4.7,0,9.4-0.1,14.1,0c2.1,0,2.9-0.8,2.8-2.8c-0.1-2.9,0-5.9-0.1-8.8c-0.8-12.8-8.7-20.6-21.5-21c-3.4-0.1-6.9,0.2-10.2,0.9
				c-9.2,2-15.2,7.7-16.6,17c-0.9,6-0.8,12.4,0,18.5c1,8,5.7,13.8,13.5,16.3c10.6,3.4,21.2,2.4,31.6-1c1.5-0.5,1.9-1.5,1.5-2.9
				c-0.5-1.9-1.1-3.7-1.5-5.6c-0.5-2.3-1.4-2.9-3.8-2.1c-6.1,2-12.4,2.8-18.8,1.7c-3.9-0.7-6.4-3.1-7.2-7.1c-0.5-2.5-0.2-3,2.4-3
				C890.8,798.7,895.5,798.7,900.1,798.7z M734.8,799.5L734.8,799.5c0,5.8,0,11.6,0,17.4c0,2,0.7,2.9,2.8,2.8c3.1-0.1,6.2,0,9.3,0
				c3.6,0,3.7-0.1,3.7-3.7c0-11,0.1-22,0-33c0-2.3,0.8-3.2,3.1-3c2.1,0.1,4.2,0,6.3,0c1.8,0.1,2.8-0.5,2.9-2.5
				c0.2-2.6,0.5-5.2,0.8-7.8c0.2-1.8-0.4-2.7-2.3-2.6c-2.8,0-5.7,0-8.6,0c-1.2,0-2.2-0.3-2.1-1.8c0-2.8-0.1-5.7,0.1-8.5
				c0.3-3,2-4.7,5.1-4.9c1.8-0.2,3.7-0.2,5.5-0.1c2.1,0.1,2.9-0.8,2.8-2.9c-0.1-2.2-0.1-4.4,0-6.5c0.1-2-0.8-3-2.8-3
				c-3.5,0-7-0.2-10.6,0c-9.3,0.5-15,6.1-15.7,15.5c-0.2,3.3-0.3,6.5-0.3,9.8c0,1.9-0.8,2.5-2.6,2.5c-2-0.1-4,0-6,0
				c-1.5,0-2.1,0.7-2.1,2.2c0,2.8,0,5.7,0,8.6c0,1.5,0.7,2.2,2.1,2.2c2,0,4,0.1,6,0c2-0.1,2.6,0.7,2.6,2.6
				C734.7,788.2,734.8,793.8,734.8,799.5z M822.9,793.4c0.1,0,0.2,0,0.4,0c0,1.5-0.1,3,0,4.5c0.5,6.7,2.4,13,8,17
				c10,7.3,21.1,7.1,32.4,3.2c1.4-0.5,1.6-1.5,1.2-2.8c-0.8-2.4-1.6-4.8-2.3-7.2c-0.4-1.5-1.2-1.6-2.6-1.3
				c-3.4,0.7-6.9,1.5-10.4,1.4c-5.4,0-9.3-3.2-10.1-8.5c-0.6-4.2-0.6-8.7,0-13c0.7-5,4.3-8.2,9.3-8.4c3.5-0.2,7.2,0.4,10.6,1.2
				c2.1,0.5,2.9,0.1,3.3-1.8c0.5-2,1-3.9,1.8-5.8c0.9-2.1,0.2-3.3-1.8-4c-8.1-2.8-16.3-2.9-24.5-0.3c-7.7,2.5-12.4,7.9-14.1,15.7
				C823.5,786.7,823.3,790.1,822.9,793.4z"/>
			<path class="st7" d="M960.7,793.6c-0.4,2.6-0.5,5.4-1.3,8c-1.3,4.5-4.9,6.8-9.8,6.7c-4.7-0.1-8.2-2.5-9.3-7
				c-1.3-5.3-1.4-10.7,0-15.9c1.2-4.7,4.6-7.1,9.5-7c5,0,8.5,2.4,9.7,7.1C960.2,788,960.3,790.7,960.7,793.6z"/>
			<path class="st7" d="M801.5,793.4c-0.3,2.5-0.3,5.1-0.8,7.5c-1,4.7-4.5,7.4-9.1,7.5c-5.1,0.1-9-2.3-9.7-7.3
				c-0.7-5.1-0.7-10.4,0-15.4c0.7-5.1,4.5-7.4,9.9-7.3c4.7,0.1,8,2.7,9,7.6C801.1,788.3,801.2,790.9,801.5,793.4z"/>
			<path class="st7" d="M997.1,793.3c0.3-2.7,0.4-5.2,1-7.6c1.2-4.8,4.7-7.3,9.5-7.3c5,0,8.4,2.3,9.7,7.1c1.4,5.2,1.4,10.5,0.1,15.7
				c-1.2,4.7-4.7,7.2-9.4,7.2c-5.2,0-8.6-2.3-9.9-7.2C997.5,798.6,997.4,795.8,997.1,793.3z"/>
			<path class="st7" d="M1076.1,794.2c-0.2,1.8-0.3,4.4-0.9,6.8c-1.2,4.9-4.7,7.4-9.7,7.4c-5,0-8.8-2.5-9.6-7.5
				c-0.7-4.7-0.8-9.7-0.1-14.4c0.8-5.8,4.8-8.3,10.7-8c4.9,0.2,8.4,3.6,9.2,9.1C1075.9,789.4,1075.9,791.4,1076.1,794.2z"/>
			<path class="st7" d="M893,788.6c-2.4,0-4.9,0-7.3,0c-1.6,0-2.2-0.7-2.1-2.3c0.2-5.7,3.8-9.3,9.6-9.4c5.9-0.1,9.3,3.1,9.7,8.9
				c0.1,2-0.4,3-2.6,2.9C897.9,788.5,895.4,788.6,893,788.6C893,788.6,893,788.6,893,788.6z"/>
		</g>
	</g>
	<g>
		<g>
			<path class="st7" d="M362.3,1263.5c0-58.3,0-116.5,0-174.8c167.9,0,335.8,0,503.8,0c0,58.3,0,116.5,0,174.8
				C698.2,1263.5,530.2,1263.5,362.3,1263.5z M623.9,1169.6c-0.1-1.4-0.2-2.3-0.2-3.3c0-9.3,0-18.6,0-27.9c0-2.1-0.8-2.9-2.8-2.6
				c-3,0.4-6,0.6-9,0.9c-3.7,0.3-3.8,0.4-3.8,4c0,15.4,0,30.9,0,46.3c0,8.7,0,17.3,0,25.9c0,1.7,0.2,3,2.4,3c3.4,0,6.7,0,10.1,0
				c1.7,0,2.4-0.9,2.3-2.5c0-1.4,0-2.7,0-4c2.8,2.1,5,4.6,7.8,5.9c11,5.1,24-0.7,27.8-12.2c2.4-7.3,2.4-14.9,1.1-22.4
				c-0.5-2.8-1.5-5.7-2.8-8.3c-6.6-12.8-25.5-12.9-31.5-3.9C625,1168.8,624.6,1169,623.9,1169.6z M830.1,1215.9
				c0.1-0.3,0.2-0.6,0.3-0.8c-0.6-1-1.2-2-1.8-3c-4.3-6.7-8.5-13.5-13-20.1c-1.4-2.1-1.3-3.6,0-5.6c4.4-6.7,8.6-13.4,12.9-20.2
				c0.5-0.7,0.9-1.5,1.5-2.7c-1.3-0.1-2.1-0.2-2.9-0.2c-3.3,0-6.6,0.2-9.8-0.1c-2.9-0.2-4.4,0.9-5.8,3.3
				c-3.6,6.1-7.5,12.1-11.3,18.2c-0.6,0.9-1.2,1.8-1.8,2.6c-0.6-1.2-0.8-2.2-0.8-3.3c0-15.2,0-30.4,0-45.6c0-2.3-0.6-3.2-3-2.8
				c-3.3,0.5-6.7,0.8-10,0.9c-2,0.1-2.7,1-2.7,3c0,24.5,0,49,0,73.5c0,2.1,0.9,2.8,2.9,2.8c3.3-0.1,6.5-0.1,9.8,0
				c2.3,0.1,3.1-0.8,3.1-3.1c-0.1-6.4,0-12.8,0-19.1c0-0.8,0.1-1.7,0.2-2.5c4.6,6.3,8.6,12.7,12.8,19c4.4,6.7,2.1,5.6,10.2,5.7
				C824,1216,827,1215.9,830.1,1215.9z M485.9,1170.5c-1.5-1.7-2.4-3-3.7-4.1c-1.3-1.1-2.8-2.2-4.4-2.8c-10.7-4.4-23,1.3-26.6,12.5
				c-2.8,8.8-2.8,17.9,0,26.8c0.9,2.9,2.7,5.8,4.8,8.2c6.5,7.3,20,8,26.7,1.6c1.1-1,1.9-2.2,3.3-3.9c0.1,1.8,0.2,3,0.2,4.2
				c-0.1,2.2,0.8,3.1,2.9,3c3.2-0.1,6.4-0.1,9.6,0c1.8,0,2.6-0.6,2.6-2.5c0-15.9,0-31.7,0-47.6c0-1.7-0.7-2.5-2.4-2.5
				c-3.4,0-6.7,0.1-10.1,0c-1.8,0-2.6,0.7-2.6,2.5C486.2,1167.2,486,1168.6,485.9,1170.5z M718.5,1189.7c-0.2,0-0.4-0.1-0.6-0.1
				c0-1.7,0.1-3.4,0-5c-0.9-11.4-7.7-19.5-18.5-21.5c-4.7-0.8-9.8-0.9-14.5-0.1c-9.4,1.6-15.7,7.4-18,16.8
				c-1.6,6.7-1.7,13.5,0.2,20.2c2.2,8,7.3,13.3,15.3,15.6c6.4,1.9,12.9,1.9,19.4-0.1c7.5-2.3,12.7-7.2,14.8-14.8
				C717.6,1197.2,717.8,1193.4,718.5,1189.7z M723.2,1189.4c0.3,7.1,1.3,13.9,6.2,19.4c7.9,8.8,18.1,9.5,28.8,7.2
				c8.6-1.9,14.2-7.4,16.5-15.9c1.9-6.9,1.8-14-0.1-20.9c-2.2-8.2-7.7-13.4-15.8-15.7c-5.8-1.6-11.6-1.6-17.4-0.1
				c-8.2,2.1-13.8,7.1-16.2,15.3C724.1,1182,723.8,1185.8,723.2,1189.4z M584.3,1195C584.3,1195,584.3,1195,584.3,1195
				c4.7,0,9.4-0.1,14.1,0c2.1,0,2.9-0.8,2.8-2.8c-0.1-2.9,0-5.9-0.1-8.8c-0.8-12.8-8.7-20.6-21.5-21c-3.4-0.1-6.9,0.2-10.2,0.9
				c-9.2,1.9-15.2,7.7-16.6,17c-0.9,6.1-0.8,12.4,0,18.5c1,8,5.7,13.8,13.5,16.3c10.6,3.4,21.2,2.4,31.6-0.9
				c1.5-0.5,1.9-1.5,1.5-2.9c-0.5-1.9-1.1-3.7-1.5-5.6c-0.5-2.3-1.4-2.9-3.8-2.1c-6.1,2-12.4,2.8-18.8,1.7c-3.9-0.7-6.4-3.1-7.2-7.1
				c-0.5-2.5-0.2-3,2.4-3C575,1195,579.7,1195,584.3,1195z M419,1195.7L419,1195.7c0,5.8,0.1,11.6,0,17.4c0,2,0.7,2.9,2.8,2.8
				c3.1-0.1,6.2,0,9.3,0c3.6,0,3.7-0.1,3.7-3.7c0-11,0.1-22,0-33c0-2.3,0.8-3.2,3.1-3c2.1,0.1,4.2-0.1,6.3,0
				c1.8,0.1,2.8-0.5,2.9-2.5c0.1-2.6,0.5-5.2,0.8-7.8c0.2-1.8-0.4-2.7-2.3-2.6c-2.9,0-5.7,0-8.6,0c-1.2,0-2.2-0.3-2.1-1.8
				c0-2.8-0.1-5.7,0.1-8.6c0.3-3,2-4.7,5.1-4.9c1.8-0.2,3.7-0.2,5.5-0.1c2.1,0.1,2.9-0.8,2.8-2.9c-0.1-2.2-0.1-4.4,0-6.5
				c0.1-2-0.8-3-2.8-3c-3.5,0-7-0.2-10.6,0c-9.4,0.5-15,6.1-15.7,15.5c-0.2,3.3-0.3,6.5-0.3,9.8c0,1.9-0.8,2.5-2.6,2.5
				c-2-0.1-4,0-6,0c-1.5,0-2.1,0.7-2.1,2.2c0,2.8,0,5.7,0,8.6c0,1.5,0.7,2.2,2.1,2.2c2,0,4,0.1,6,0c2-0.1,2.6,0.7,2.6,2.6
				C418.9,1184.5,419,1190.1,419,1195.7z M507.1,1189.7c0.1,0,0.2,0,0.4,0c0,1.5-0.1,3,0,4.5c0.5,6.7,2.4,13,8,17
				c10,7.3,21.1,7.1,32.4,3.2c1.4-0.5,1.6-1.5,1.2-2.8c-0.8-2.4-1.6-4.8-2.3-7.2c-0.4-1.5-1.2-1.6-2.6-1.3
				c-3.4,0.7-6.9,1.4-10.4,1.4c-5.4,0-9.3-3.2-10.1-8.4c-0.6-4.2-0.6-8.7,0-13c0.7-5,4.3-8.2,9.3-8.4c3.5-0.2,7.2,0.4,10.6,1.2
				c2.1,0.5,2.9,0.1,3.3-1.8c0.5-1.9,1-3.9,1.8-5.8c0.9-2.1,0.2-3.3-1.8-4c-8.1-2.8-16.3-2.9-24.5-0.3c-7.7,2.5-12.4,7.9-14.1,15.7
				C507.6,1183,507.5,1186.3,507.1,1189.7z"/>
			<path class="st7" d="M644.8,1189.8c-0.4,2.6-0.5,5.4-1.3,8c-1.3,4.5-4.9,6.8-9.8,6.7c-4.7-0.1-8.2-2.5-9.3-7
				c-1.3-5.3-1.4-10.7,0-15.9c1.2-4.7,4.6-7.1,9.5-7c5,0,8.5,2.4,9.7,7.1C644.4,1184.3,644.5,1187,644.8,1189.8z"/>
			<path class="st7" d="M485.6,1189.6c-0.3,2.6-0.3,5.1-0.9,7.5c-1,4.7-4.5,7.4-9.1,7.5c-5.1,0.1-9-2.3-9.7-7.3
				c-0.7-5.1-0.7-10.4,0-15.4c0.7-5.1,4.5-7.4,9.9-7.3c4.6,0.1,8,2.7,9,7.6C485.3,1184.6,485.4,1187.2,485.6,1189.6z"/>
			<path class="st7" d="M681.3,1189.6c0.3-2.7,0.4-5.2,1-7.6c1.2-4.8,4.7-7.3,9.5-7.3c5,0,8.4,2.3,9.7,7.1
				c1.4,5.2,1.4,10.5,0.1,15.7c-1.2,4.7-4.7,7.2-9.4,7.2c-5.2,0-8.6-2.3-9.9-7.2C681.7,1194.8,681.6,1192.1,681.3,1189.6z"/>
			<path class="st7" d="M760.3,1190.4c-0.2,1.8-0.3,4.4-0.9,6.8c-1.2,4.9-4.7,7.4-9.7,7.4c-5,0-8.8-2.6-9.5-7.6
				c-0.7-4.7-0.8-9.7-0.1-14.4c0.8-5.8,4.8-8.3,10.7-8c5,0.2,8.4,3.6,9.2,9.1C760.1,1185.7,760.1,1187.7,760.3,1190.4z"/>
			<path class="st7" d="M577.2,1184.8c-2.4,0-4.9,0-7.3,0c-1.6,0-2.2-0.7-2.1-2.3c0.2-5.7,3.8-9.3,9.6-9.4c5.9-0.1,9.3,3.1,9.7,8.9
				c0.1,2-0.4,3-2.6,2.9C582,1184.8,579.6,1184.9,577.2,1184.8C577.2,1184.8,577.2,1184.8,577.2,1184.8z"/>
		</g>
	</g>
	<g>
		<g>
			<path class="st7" d="M1355.4,346.3c0-47.9,0-95.7,0-143.6c137.9,0,275.9,0,413.8,0c0,47.9,0,95.7,0,143.6
				C1631.3,346.3,1493.3,346.3,1355.4,346.3z M1570.3,269.2c-0.1-1.1-0.1-1.9-0.1-2.7c0-7.6,0-15.3,0-23c0-1.7-0.6-2.4-2.3-2.1
				c-2.5,0.3-4.9,0.5-7.4,0.7c-3,0.2-3.1,0.3-3.1,3.3c0,12.7,0,25.4,0,38.1c0,7.1,0,14.2,0,21.3c0,1.4,0.2,2.5,1.9,2.5
				c2.8,0,5.5,0,8.3,0c1.4,0,2-0.7,1.9-2.1c0-1.1,0-2.2,0-3.3c2.3,1.8,4.1,3.8,6.4,4.8c9.1,4.2,19.7-0.5,22.8-10
				c2-6,1.9-12.2,0.9-18.4c-0.4-2.3-1.2-4.7-2.3-6.8c-5.4-10.5-21-10.6-25.9-3.2C1571.2,268.6,1570.8,268.7,1570.3,269.2z
				 M1739.7,307.3c0.1-0.2,0.2-0.5,0.3-0.7c-0.5-0.8-1-1.6-1.5-2.4c-3.5-5.5-7-11.1-10.7-16.5c-1.2-1.7-1.1-3,0-4.6
				c3.6-5.5,7.1-11,10.6-16.6c0.4-0.6,0.7-1.2,1.3-2.2c-1.1-0.1-1.7-0.1-2.4-0.1c-2.7,0-5.4,0.2-8.1-0.1c-2.3-0.2-3.6,0.8-4.8,2.7
				c-3,5-6.2,10-9.3,14.9c-0.5,0.7-1,1.4-1.4,2.2c-0.5-1-0.6-1.8-0.6-2.7c0-12.5,0-25,0-37.4c0-1.9-0.5-2.6-2.5-2.3
				c-2.7,0.4-5.5,0.6-8.2,0.8c-1.7,0.1-2.2,0.8-2.2,2.4c0,20.1,0,40.3,0,60.4c0,1.7,0.7,2.3,2.3,2.3c2.7-0.1,5.4-0.1,8.1,0
				c1.9,0.1,2.6-0.7,2.6-2.5c-0.1-5.2,0-10.5,0-15.7c0-0.7,0.1-1.4,0.2-2c3.8,5.2,7.1,10.4,10.5,15.6c3.6,5.5,1.7,4.6,8.4,4.7
				C1734.6,307.3,1737.1,307.3,1739.7,307.3z M1456.9,269.9c-1.2-1.4-2-2.5-3-3.4c-1.1-0.9-2.3-1.8-3.6-2.3
				c-8.8-3.6-18.9,1-21.8,10.3c-2.3,7.3-2.3,14.7,0,22c0.8,2.4,2.2,4.8,3.9,6.7c5.3,6,16.4,6.6,21.9,1.3c0.9-0.8,1.6-1.9,2.7-3.2
				c0.1,1.5,0.2,2.5,0.1,3.4c-0.1,1.8,0.6,2.5,2.4,2.5c2.6-0.1,5.2,0,7.9,0c1.4,0,2.2-0.5,2.1-2c0-13,0-26.1,0-39.1c0-1.4-0.6-2-2-2
				c-2.8,0-5.5,0-8.3,0c-1.5,0-2.2,0.6-2.1,2.1C1457.1,267.3,1457,268.4,1456.9,269.9z M1647.9,285.7c-0.2,0-0.3,0-0.5-0.1
				c0-1.4,0.1-2.8,0-4.1c-0.8-9.3-6.3-16-15.2-17.6c-3.8-0.7-8-0.7-11.9,0c-7.8,1.3-12.9,6.1-14.8,13.8c-1.3,5.5-1.4,11.1,0.2,16.6
				c1.8,6.5,6,10.9,12.6,12.8c5.3,1.5,10.6,1.5,15.9,0c6.2-1.9,10.4-5.9,12.2-12.1C1647.2,291.9,1647.4,288.8,1647.9,285.7z
				 M1651.8,285.5c0.2,5.9,1.1,11.4,5.1,15.9c6.5,7.2,14.9,7.8,23.6,5.9c7.1-1.5,11.6-6.1,13.5-13.1c1.6-5.7,1.5-11.5-0.1-17.2
				c-1.8-6.8-6.3-11-13-12.9c-4.7-1.3-9.6-1.3-14.3-0.1c-6.8,1.7-11.4,5.8-13.3,12.5C1652.5,279.4,1652.3,282.5,1651.8,285.5z
				 M1537.7,290.1C1537.7,290.1,1537.7,290.1,1537.7,290.1c3.9,0,7.7-0.1,11.6,0c1.7,0,2.4-0.7,2.3-2.3c-0.1-2.4,0-4.8-0.1-7.2
				c-0.6-10.5-7.1-16.9-17.6-17.3c-2.8-0.1-5.7,0.2-8.4,0.8c-7.6,1.6-12.5,6.3-13.6,14c-0.7,5-0.6,10.2,0,15.2
				c0.8,6.6,4.7,11.3,11.1,13.4c8.7,2.8,17.4,2,26-0.8c1.3-0.4,1.5-1.2,1.2-2.4c-0.4-1.5-0.9-3-1.2-4.6c-0.4-1.9-1.2-2.4-3.1-1.7
				c-5,1.7-10.2,2.3-15.5,1.4c-3.2-0.6-5.2-2.6-5.9-5.8c-0.4-2-0.1-2.5,2-2.5C1530.1,290,1533.9,290.1,1537.7,290.1z M1401.9,290.7
				C1401.9,290.7,1401.9,290.7,1401.9,290.7c0,4.8,0,9.5,0,14.3c0,1.6,0.6,2.4,2.3,2.3c2.6-0.1,5.1,0,7.7,0c2.9,0,3-0.1,3-3
				c0-9,0.1-18,0-27.1c0-1.9,0.7-2.6,2.5-2.5c1.7,0.1,3.4,0,5.2,0c1.5,0.1,2.3-0.4,2.4-2.1c0.1-2.1,0.4-4.2,0.7-6.4
				c0.2-1.5-0.4-2.2-1.9-2.2c-2.3,0-4.7,0-7,0c-1,0-1.8-0.2-1.8-1.5c0-2.3-0.1-4.7,0.1-7c0.2-2.5,1.7-3.8,4.2-4
				c1.5-0.1,3-0.1,4.5-0.1c1.7,0.1,2.4-0.7,2.3-2.4c-0.1-1.8-0.1-3.6,0-5.4c0.1-1.7-0.6-2.4-2.3-2.4c-2.9,0-5.8-0.2-8.7,0
				c-7.7,0.4-12.3,5-12.9,12.7c-0.2,2.7-0.2,5.4-0.2,8.1c0,1.5-0.6,2.1-2.1,2c-1.7-0.1-3.3,0-5,0c-1.2,0-1.8,0.6-1.8,1.8
				c0,2.3,0,4.7,0,7c0,1.2,0.6,1.8,1.8,1.8c1.7,0,3.3,0.1,5,0c1.6-0.1,2.2,0.6,2.1,2.2C1401.9,281.4,1401.9,286.1,1401.9,290.7z
				 M1474.3,285.7c0.1,0,0.2,0,0.3,0c0,1.2-0.1,2.5,0,3.7c0.4,5.5,2,10.7,6.5,14c8.2,6,17.3,5.8,26.6,2.6c1.2-0.4,1.3-1.2,1-2.3
				c-0.6-2-1.3-3.9-1.9-5.9c-0.3-1.2-1-1.3-2.2-1.1c-2.8,0.5-5.7,1.2-8.5,1.2c-4.4,0-7.7-2.7-8.3-6.9c-0.5-3.5-0.5-7.1,0-10.6
				c0.5-4.1,3.5-6.7,7.6-6.9c2.9-0.1,5.9,0.3,8.7,1c1.7,0.4,2.4,0.1,2.8-1.5c0.4-1.6,0.9-3.2,1.5-4.7c0.7-1.8,0.2-2.7-1.5-3.3
				c-6.7-2.3-13.4-2.4-20.1-0.2c-6.3,2-10.2,6.5-11.6,12.9C1474.8,280.2,1474.7,283,1474.3,285.7z"/>
			<path class="st7" d="M1587.5,285.9c-0.3,2.1-0.4,4.4-1.1,6.6c-1.1,3.7-4,5.6-8,5.5c-3.8-0.1-6.7-2-7.6-5.8
				c-1.1-4.3-1.1-8.8,0-13.1c1-3.9,3.8-5.8,7.8-5.8c4.2,0,7,2,8,5.8C1587.1,281.3,1587.2,283.5,1587.5,285.9z"/>
			<path class="st7" d="M1456.7,285.7c-0.2,2.1-0.3,4.2-0.7,6.2c-0.8,3.9-3.7,6.1-7.5,6.1c-4.2,0.1-7.4-1.9-8-6
				c-0.6-4.2-0.6-8.5,0-12.7c0.6-4.2,3.7-6.1,8.1-6c3.8,0.1,6.6,2.2,7.4,6.2C1456.4,281.6,1456.5,283.6,1456.7,285.7z"/>
			<path class="st7" d="M1617.4,285.6c0.3-2.2,0.3-4.3,0.8-6.3c1-3.9,3.8-6,7.8-6c4.1,0,6.9,1.9,8,5.8c1.1,4.3,1.1,8.6,0.1,12.9
				c-1,3.9-3.8,5.9-7.7,5.9c-4.2,0-7.1-1.9-8.1-5.9C1617.7,289.9,1617.7,287.7,1617.4,285.6z"/>
			<path class="st7" d="M1682.3,286.3c-0.2,1.5-0.3,3.6-0.8,5.6c-1,4.1-3.8,6.1-8,6.1c-4.1,0-7.2-2.1-7.8-6.2
				c-0.6-3.9-0.7-8-0.1-11.9c0.7-4.7,3.9-6.8,8.8-6.6c4.1,0.2,6.9,3,7.5,7.4C1682.1,282.4,1682.2,284.1,1682.3,286.3z"/>
			<path class="st7" d="M1531.9,281.7c-2,0-4,0-6,0c-1.3,0-1.8-0.6-1.7-1.9c0.1-4.7,3.1-7.6,7.9-7.8c4.8-0.1,7.6,2.5,7.9,7.3
				c0.1,1.6-0.3,2.5-2.1,2.4C1535.9,281.7,1533.9,281.8,1531.9,281.7C1531.9,281.7,1531.9,281.7,1531.9,281.7z"/>
		</g>
	</g>
	<g>
		<g>
			<path class="st7" d="M-14.5,104.5c0-30.9,0-61.8,0-92.6c0.1-0.3,0.1-0.7,0.2-1C-13.2,1.3-6.2-6.3,3.3-8.3
				c0.9-0.2,1.9-0.3,2.9-0.5c30.9,0,61.8,0,92.6,0c0.7,0.1,1.4,0.2,2.1,0.3c10.7,1.8,18.5,11,18.5,22c0,29.8,0,59.6,0,89.4
				c0,1.2-0.1,2.4-0.3,3.6c-1.8,10.8-11,18.6-21.9,18.6c-29.8,0-59.6,0-89.4,0c-0.8,0-1.7,0-2.5-0.1C-4.2,124-12,117-14,107.6
				C-14.2,106.6-14.3,105.6-14.5,104.5z M52.3,23c-5.9,0.1-12.8,0.3-19.7,0.5c-5.9,0.1-11.8,0.4-17.6,1.3c-5,0.8-8.5,3.5-10.3,8.2
				c-1.1,2.9-1.4,5.9-1.7,9c-0.3,4.4-0.6,8.9-0.7,13.3C2,63.7,2.4,72.2,3.8,80.6c0.7,4.3,2.8,7.7,6.8,9.7c2.1,1.1,4.3,1.5,6.5,1.7
				c3.9,0.3,7.8,0.7,11.7,0.9c7.4,0.3,14.8,0.5,22.2,0.5c10.5,0.1,21.1-0.2,31.6-0.9c2.5-0.2,5.1-0.4,7.5-0.8
				c5.8-1,9.8-4.8,10.9-10.5c1-4.8,1.3-9.6,1.5-14.5c0.3-7.1,0.4-14.2-0.2-21.3c-0.3-3.4-0.7-6.8-1.3-10.2c-1-4.9-3.9-8.3-8.7-9.9
				c-2.5-0.8-5.1-1-7.7-1.2c-4.8-0.4-9.5-0.6-14.3-0.8C64.6,23.1,58.9,23.1,52.3,23z"/>
			<path class="st7" d="M42.5,43.3c8.7,5,17.3,9.9,26,15c-8.7,5-17.3,10-26,15C42.5,63.2,42.5,53.3,42.5,43.3z"/>
		</g>
	</g>
	<g>
		<g>
			<path class="st7" d="M133.8,666.5c-54.1,0-108.3,0-162.4,0c-0.7-0.1-1.4-0.2-2-0.3c-16.9-1.9-30.5-14.2-34-30.9
				c-0.4-1.8-0.6-3.5-0.9-5.3c0-54.4,0-108.9,0-163.3c0.2-0.9,0.3-1.9,0.4-2.8c2.7-19.2,19.2-33.6,38.6-33.6c52.7,0,105.4,0,158.1,0
				c2.6,0,5.2,0.3,7.7,0.8c18.4,3.8,31.4,19.7,31.4,38.5c0,52.2,0,104.5,0,156.7c0,2.1-0.1,4.3-0.4,6.4
				c-2.1,16.1-14.7,29.6-30.5,32.8C137.8,666,135.8,666.2,133.8,666.5z M52.2,486.2c-10.4,0.2-22.6,0.5-34.8,0.8
				c-10.4,0.3-20.7,0.8-31,2.3c-8.8,1.3-15.1,6.1-18.2,14.5c-1.9,5.1-2.5,10.5-3,15.8c-0.6,7.8-1,15.6-1.2,23.4
				c-0.5,15,0.2,30,2.8,44.8c1.6,9.3,6.7,15.7,15.8,18.6c4.5,1.4,9.2,1.8,13.9,2.2c8.4,0.6,16.8,1.1,25.2,1.4
				c10.3,0.3,20.6,0.5,30.9,0.5c17.8,0,35.5-0.4,53.2-1.6c4.4-0.3,8.8-0.7,13.2-1.4c10.2-1.7,17.2-8.5,19.2-18.6
				c1.7-8.4,2.3-17,2.7-25.5c0.6-12.5,0.8-25-0.4-37.5c-0.6-6-1.2-12-2.4-17.9c-1.7-8.7-6.8-14.7-15.4-17.5
				c-4.4-1.4-9.1-1.8-13.6-2.1c-8.3-0.6-16.7-1.1-25.1-1.4C74,486.5,64,486.4,52.2,486.2z"/>
			<path class="st7" d="M81,548.4c-15.4,8.9-30.6,17.6-45.9,26.4c0-17.6,0-35.1,0-52.8C50.4,530.8,65.6,539.5,81,548.4z"/>
		</g>
	</g>
	<g>
		<g>
			<path class="st7" d="M1215.3,725.1c0-37.7,0-75.4,0-113.1c0.1-0.4,0.2-0.8,0.2-1.2c1.4-11.7,9.9-21,21.5-23.4
				c1.2-0.2,2.3-0.4,3.5-0.6c37.7,0,75.4,0,113.1,0c0.9,0.1,1.7,0.2,2.6,0.4c13.1,2.2,22.6,13.5,22.6,26.8c0,36.4,0,72.8,0,109.2
				c0,1.5-0.1,3-0.4,4.5c-2.2,13.2-13.4,22.7-26.8,22.7c-36.4,0-72.8,0-109.2,0c-1,0-2,0-3-0.2c-11.7-1.3-21.1-9.9-23.6-21.4
				C1215.7,727.6,1215.6,726.3,1215.3,725.1z M1296.9,625.5c-7.2,0.2-15.6,0.4-24.1,0.6c-7.2,0.2-14.4,0.5-21.6,1.6
				c-6.1,0.9-10.4,4.2-12.6,10c-1.3,3.5-1.8,7.2-2.1,10.9c-0.4,5.4-0.7,10.8-0.9,16.3c-0.3,10.4,0.2,20.7,1.9,30.9
				c0.9,5.2,3.4,9.3,8.3,11.8c2.5,1.3,5.2,1.9,8,2.1c4.7,0.4,9.5,0.9,14.2,1.1c9,0.3,18,0.6,27.1,0.7c12.9,0.1,25.8-0.2,38.6-1.1
				c3.1-0.2,6.2-0.5,9.2-1c7.1-1.2,11.9-5.9,13.3-12.9c1.2-5.8,1.6-11.8,1.9-17.7c0.4-8.7,0.5-17.3-0.3-26
				c-0.4-4.2-0.8-8.3-1.6-12.4c-1.2-6-4.7-10.2-10.7-12.1c-3.1-1-6.3-1.2-9.4-1.5c-5.8-0.4-11.6-0.8-17.4-1
				C1311.9,625.7,1305,625.7,1296.9,625.5z"/>
			<path class="st7" d="M1285,650.3c10.6,6.1,21.1,12.1,31.8,18.3c-10.6,6.1-21.2,12.2-31.8,18.3C1285,674.6,1285,662.5,1285,650.3z
				"/>
		</g>
	</g>
	<g>
		<g>
			<path class="st7" d="M758.8,1439.7c-37.5,0-75,0-112.5,0c-0.9-0.1-1.9-0.2-2.8-0.4c-13.1-2.2-22.7-13.5-22.7-26.7
				c0-36.4,0-72.8,0-109.2c0-1.3,0.1-2.7,0.3-4c1.9-13.3,13.3-23.3,26.8-23.3c36.2,0,72.5,0,108.7,0c1.5,0,3.1,0.1,4.6,0.3
				c10.9,1.4,20.4,10.2,22.5,21.1c0.3,1.4,0.4,2.8,0.7,4.2c0,37.5,0,75,0,112.5c-0.1,0.8-0.2,1.5-0.3,2.3
				c-1.4,11-10.2,20.5-21.1,22.6C761.6,1439.3,760.2,1439.5,758.8,1439.7z M703,1401c12.8-0.2,24.7-0.3,36.5-1.2
				c3-0.2,6.1-0.4,9-0.9c7.1-1.2,12-5.8,13.3-12.9c0.9-4.9,1.4-9.8,1.7-14.8c0.4-5.4,0.4-10.8,0.4-16.2c0-8.1-0.5-16.2-2-24.2
				c-1.3-7.3-5.9-12.3-13.2-13.5c-4.5-0.7-9-1.2-13.5-1.4c-8.5-0.4-16.9-0.7-25.4-0.8c-11.8-0.2-23.6,0.1-35.4,0.5
				c-6,0.2-12,0.6-17.9,1.5c-6.1,0.9-10.4,4.2-12.5,10c-1.3,3.5-1.8,7.2-2,10.9c-0.4,5.4-0.7,10.8-0.9,16.2
				c-0.3,10.4,0.2,20.8,1.9,31c1.1,6.4,4.6,10.9,11,12.9c3.1,1,6.4,1.3,9.6,1.5c5.8,0.4,11.6,0.8,17.5,0.9
				C688.7,1400.8,696.3,1400.8,703,1401z"/>
			<path class="st7" d="M722.2,1357.9c-10.7,6.1-21.2,12.2-31.8,18.3c0-12.2,0-24.3,0-36.6C701.1,1345.8,711.6,1351.8,722.2,1357.9z
				"/>
		</g>
	</g>
	<g>
		<g>
			<path class="st7" d="M-152.2,1245.2c0-44,0-88,0-132c0.1-0.5,0.2-1,0.2-1.4c1.6-13.7,11.6-24.5,25.1-27.3
				c1.4-0.3,2.7-0.4,4.1-0.7c44,0,88,0,132,0c1,0.2,2,0.3,3,0.5c15.3,2.6,26.4,15.7,26.4,31.3c0,42.5,0,84.9,0,127.4
				c0,1.7-0.1,3.5-0.4,5.2c-2.5,15.3-15.7,26.5-31.3,26.5c-42.5,0-84.9,0-127.4,0c-1.2,0-2.4-0.1-3.5-0.2
				c-13.6-1.5-24.7-11.5-27.5-24.9C-151.8,1248.1-152,1246.7-152.2,1245.2z M-57.1,1129c-8.4,0.2-18.2,0.4-28.1,0.7
				c-8.4,0.2-16.8,0.6-25.2,1.9c-7.1,1.1-12.1,4.9-14.7,11.7c-1.6,4.1-2.1,8.4-2.4,12.8c-0.5,6.3-0.8,12.6-1,19
				c-0.4,12.1,0.2,24.2,2.2,36.1c1,6.1,4,10.9,9.7,13.8c2.9,1.5,6.1,2.2,9.3,2.5c5.5,0.5,11.1,1.1,16.6,1.2
				c10.5,0.4,21,0.7,31.6,0.8c15,0.1,30.1-0.3,45.1-1.3c3.6-0.2,7.2-0.5,10.7-1.1c8.2-1.4,13.9-6.8,15.6-15
				c1.4-6.8,1.9-13.7,2.2-20.6c0.4-10.1,0.6-20.2-0.3-30.3c-0.4-4.8-1-9.7-1.9-14.5c-1.4-7-5.5-11.9-12.4-14.1
				c-3.6-1.2-7.3-1.4-11-1.7c-6.8-0.5-13.6-0.9-20.4-1.1C-39.6,1129.2-47.6,1129.2-57.1,1129z"/>
			<path class="st7" d="M-71,1157.9c12.4,7.1,24.6,14.2,37.1,21.3c-12.4,7.1-24.7,14.2-37.1,21.3C-71,1186.3-71,1172.2-71,1157.9z"
				/>
		</g>
	</g>
	<g>
		<g>
			<path class="st7" d="M925.7,137.7c0-43.7,0-87.4,0-131.1c0.1-0.5,0.2-1,0.2-1.4c1.6-13.6,11.5-24.4,25-27.2
				c1.3-0.3,2.7-0.4,4.1-0.7c43.7,0,87.4,0,131.1,0c1,0.1,2,0.3,3,0.5c15.2,2.6,26.2,15.6,26.2,31.1c0,42.2,0,84.4,0,126.6
				c0,1.7-0.1,3.5-0.4,5.2c-2.5,15.2-15.6,26.3-31.1,26.3c-42.2,0-84.4,0-126.6,0c-1.2,0-2.3-0.1-3.5-0.2
				c-13.5-1.5-24.5-11.4-27.3-24.8C926.1,140.6,925.9,139.2,925.7,137.7z M1020.2,22.2c-8.3,0.2-18.1,0.4-27.9,0.6
				c-8.4,0.2-16.7,0.6-25,1.9c-7,1.1-12,4.9-14.6,11.6c-1.5,4.1-2,8.4-2.4,12.7c-0.5,6.3-0.8,12.6-1,18.8c-0.4,12,0.2,24,2.2,35.9
				c1,6.1,4,10.8,9.6,13.7c2.9,1.5,6,2.2,9.2,2.5c5.5,0.5,11,1,16.5,1.2c10.5,0.4,20.9,0.7,31.4,0.8c14.9,0.1,29.9-0.3,44.8-1.3
				c3.6-0.2,7.1-0.5,10.7-1.1c8.2-1.4,13.8-6.8,15.5-14.9c1.4-6.8,1.8-13.6,2.2-20.5c0.4-10.1,0.6-20.1-0.3-30.2
				c-0.4-4.8-1-9.6-1.9-14.4c-1.4-7-5.5-11.8-12.4-14c-3.6-1.1-7.3-1.4-10.9-1.7c-6.7-0.5-13.5-0.9-20.2-1.1
				C1037.6,22.5,1029.6,22.4,1020.2,22.2z"/>
			<path class="st7" d="M1006.4,51c12.3,7.1,24.5,14.1,36.8,21.2c-12.3,7.1-24.5,14.1-36.8,21.2C1006.4,79.2,1006.4,65.2,1006.4,51z
				"/>
		</g>
	</g>
</g>
</svg>
