<?xml version="1.0" encoding="UTF-8"?>
<svg xmlns="http://www.w3.org/2000/svg" version="1.1" viewBox="0 0 576 576">
  <defs>
    <style>
      .cls-1 {
        fill: #0d55a2;
      }
    </style>
  </defs>
  <!-- Generator: Adobe Illustrator 28.6.0, SVG Export Plug-In . SVG Version: 1.2.0 Build 709)  -->
  <g>
    <g id="Layer_1">
      <g>
        <path class="cls-1" d="M155.6,352.9h-61.6c.5-49.9,17.4-93,49.9-130,14.6,14.6,28.9,29,43.6,43.8-20.4,24.3-31.5,53.1-31.9,86.2Z"/>
        <path class="cls-1" d="M388.8,266.4c14.7-14.8,29-29.2,43.2-43.5,28.4,24.9,55.8,95.9,49.9,130h-60.9c-.5-32.9-11.3-61.7-32.3-86.5Z"/>
        <path class="cls-1" d="M295.4,158.8c49.2,2.5,91.2,20.3,126.8,53.4-14.7,14.6-29,28.8-43.7,43.4-23-20.9-50.8-32.9-83-35.1v-61.7Z"/>
        <path class="cls-1" d="M197.8,256c-14.5-14.6-28.7-28.9-43.4-43.8,35.5-33.1,77.6-51,126.9-53.4v61.6c-31.9,2.1-59.9,13.9-83.5,35.5Z"/>
        <path class="cls-1" d="M381.3,264c-5.3,6.9-10.6,13.9-15.9,20.8-15.4,20.1-30.8,40.1-46.3,60.1-1.7,2.2-2.3,4.4-2,7.2,1.6,16-10.9,30.4-26.9,31.3-16.7.9-30.2-11.6-30.9-28.5-.6-15.6,12.7-29.6,28.6-29.1,6,.2,10.4-1.6,15-5,24.6-18.4,49.3-36.5,74-54.7,1.2-.9,2.6-1.7,3.8-2.6.2.2.4.4.6.6ZM302.2,354.5c.1-7.7-6.2-14.2-13.8-14.2-7.5,0-13.8,6.1-13.9,13.6-.2,7.9,5.9,14.3,13.6,14.4,7.8,0,14-6.1,14.1-13.8Z"/>
      </g>
    </g>
  </g>
</svg>