<?xml version="1.0" encoding="UTF-8"?><svg id="Layer_1" xmlns="http://www.w3.org/2000/svg" viewBox="0 0 345.46 117.08"><defs><style>.cls-1{fill:#1840dc;}</style></defs><path class="cls-1" d="M333.12,19.54h-108.47c-8.08,9.17-14.1,14.11-19.69,20.39l99.16-.18,29.01-20.22Z"/><path class="cls-1" d="M222.14,19.7l-85.98-.16c-7.14,7.45-16.8,13.38-23.7,20.38h90.01c6.56-7.38,11.96-12.39,19.68-20.22Z"/><path class="cls-1" d="M45.35,49.35v-9.6l71.7.13c6.45-6.72,11.8-12.62,19.35-20.35H21.7v79.53c.51.51,24.67-.02,24.67-.02v-31.87h49l12.11-16.15c-1.63,1.25-3.26,2.49-4.87,3.75,1.62-1.26,3.24-2.51,4.87-3.75l1.25-1.67h-63.4Z"/><path class="cls-1" d="M250.09,42.63v58.63h24.67v-58.63s-24.33-.41-24.67,0Z"/><path class="cls-1" d="M120.39,50.19v49.42h24.67v-49.42s-24.33-.35-24.67,0Z"/><polygon class="cls-1" points="198.53 49.35 120.39 49.01 120.39 67.51 184.82 67.51 198.53 49.35"/></svg>