<?xml version="1.0" encoding="utf-8"?>
<!-- Generator: Adobe Illustrator 27.1.1, SVG Export Plug-In . SVG Version: 6.00 Build 0)  -->
<svg version="1.1" id="Layer_1" xmlns="http://www.w3.org/2000/svg" xmlns:xlink="http://www.w3.org/1999/xlink" x="0px" y="0px"
	 viewBox="0 0 50 50" style="enable-background:new 0 0 50 50;" xml:space="preserve">
<style type="text/css">
	.st0{fill:#898989;}
</style>
<g>
	<path class="st0" d="M1.7,18.77c0.16-0.73,0.29-1.46,0.48-2.18c0.37-1.37,0.95-2.64,1.92-3.71c1.73-1.9,4.23-2.46,6.61-1.49
		c0.41,0.17,0.64,0.4,0.74,0.85c0.47,2.13,0.98,4.25,1.46,6.37c0.16,0.71-0.06,1.36-0.67,1.74c-0.65,0.4-1.36,0.74-2.08,0.99
		c-1.89,0.66-1.99,0.77-1.51,2.71c0.88,3.55,2.49,6.72,5.04,9.37c0.68,0.71,0.92,0.76,1.79,0.25c0.62-0.36,1.19-0.8,1.82-1.15
		c1.39-0.79,2.12-0.65,3.18,0.52c1.12,1.23,2.23,2.48,3.38,3.69c0.84,0.89,0.95,1.89,0.42,2.93c-0.96,1.92-2.49,3.01-4.69,3.13
		c-3.84,0.22-6.89-1.33-9.51-4.02c-4.05-4.16-6.75-9.04-7.99-14.71c-0.16-0.73-0.26-1.46-0.38-2.2C1.7,20.84,1.7,19.8,1.7,18.77z"/>
	<path class="st0" d="M48.47,38.27c-0.59,1.21-1.58,1.58-2.88,1.57c-5.67-0.04-11.33-0.02-17-0.02c-0.2,0-0.4,0.01-0.6-0.01
		c-0.11-0.01-0.31-0.05-0.31-0.08c0.01-0.48,0.01-0.97,0.11-1.43c0.03-0.12,0.41-0.22,0.64-0.22c5.35-0.01,10.7-0.01,16.05-0.01
		c0.34,0,0.67-0.04,1.01-0.06c-0.21-0.26-0.39-0.55-0.62-0.79c-3.43-3.6-6.87-7.2-10.31-10.8c-0.56-0.59-0.56-0.59-1.19-0.06
		c-1.01,0.85-2.01,1.72-3.03,2.56c-0.63,0.53-0.87,0.54-1.51,0.03c-1.13-0.89-2.26-1.79-3.35-2.72c-0.38-0.33-0.6-0.36-0.97,0.03
		c-0.9,0.97-1.87,1.87-2.79,2.82c-0.31,0.32-0.56,0.4-0.95,0.15c-0.33-0.21-0.69-0.36-1.04-0.54c0.27-0.29,0.54-0.59,0.82-0.88
		c0.89-0.9,1.77-1.81,2.69-2.68c0.35-0.33,0.27-0.49-0.07-0.77c-2.11-1.69-4.18-3.43-6.31-5.1c-0.58-0.45-0.86-0.95-0.93-1.64
		c-0.04-0.47-0.13-0.93-0.2-1.4c0.37,0.27,0.75,0.52,1.1,0.8c4.04,3.28,8.09,6.55,12.11,9.85c0.43,0.35,0.68,0.42,1.14,0.03
		c4.92-4.21,9.86-8.39,14.79-12.57c0.11-0.09,0.23-0.18,0.32-0.28c0.05-0.05,0.07-0.14,0.11-0.21c-0.08-0.02-0.15-0.06-0.23-0.06
		c-0.23-0.01-0.46,0-0.69,0c-9.44,0-18.87,0-28.31,0c-0.98,0-1.42-0.47-1.32-1.45c0.01-0.1,0.13-0.25,0.23-0.27
		c0.19-0.05,0.4-0.02,0.6-0.02c10.04,0,20.08-0.01,30.12,0.01c0.58,0,1.25,0.09,1.73,0.38c0.45,0.27,0.7,0.86,1.04,1.32
		C48.47,21.93,48.47,30.1,48.47,38.27z M46.75,25.92c0-3.37,0-6.73,0-10.1c0-0.21-0.06-0.43-0.1-0.64c-0.16,0.11-0.34,0.2-0.48,0.32
		c-3.4,2.88-6.8,5.77-10.19,8.66c-0.71,0.61-0.81,0.45-0.09,1.2c3.4,3.55,6.8,7.1,10.21,10.66c0.12,0.12,0.24,0.25,0.36,0.37
		c0.18,0.18,0.29,0.14,0.3-0.12c0.01-0.2,0-0.4,0-0.6C46.75,32.42,46.75,29.17,46.75,25.92z"/>
</g>
</svg>
