<?xml version="1.0" encoding="UTF-8"?><svg id="Layer_1" xmlns="http://www.w3.org/2000/svg" viewBox="0 0 44.64 44.26"><defs><style>.cls-1{fill:#898989;}</style></defs><path class="cls-1" d="m20.34,44.26c-8.08-.14-14.68-2.8-20.19-8.13-.09-.09-.17-.26-.15-.38.76-5.91,3.59-10.6,8.41-14.1q.94-.68,1.74.14c5.56,5.72,14.87,5.45,20.13-.59.16-.18.25-.2.45-.07,5.25,3.49,8.32,8.34,9.16,14.59.02.12-.05.3-.14.38-4.5,4.38-9.85,7.02-16.08,7.85-1.24.17-2.5.22-3.32.28Z"/><path class="cls-1" d="m19.95,22.92c-5.91,0-10.71-4.8-10.71-10.71,0-5.91,4.8-10.69,10.72-10.69,5.91,0,10.7,4.8,10.7,10.71,0,5.89-4.81,10.69-10.7,10.69Z"/><path class="cls-1" d="m41.99,36.87c-.13-3.25-.85-6.21-2.21-9-1.36-2.8-3.25-5.19-5.63-7.22.34-.37.66-.73,1-1.07.04-.04.21-.01.28.03,3.1,1.98,5.5,4.61,7.18,7.89,1.09,2.12,1.76,4.38,2.03,6.74.01.09,0,.23-.06.28-.82.76-1.66,1.51-2.59,2.35Z"/><path class="cls-1" d="m20.73.8c3.12-1.42,8.58-1.26,12.18,3.05,3.57,4.27,3,10.02.16,13.46,1.18-4.15.66-8-1.92-11.44-2.58-3.43-6.1-5.05-10.42-5.07Z"/></svg>