<?xml version="1.0" encoding="UTF-8"?><svg id="Layer_1" xmlns="http://www.w3.org/2000/svg" viewBox="0 0 46.66 42.34"><defs><style>.cls-1{fill:#898989;}</style></defs><path class="cls-1" d="m0,13.67c.46-.38.86-.74,1.28-1.06.51-.4,1.05-.76,1.56-1.15.51-.39,1-.81,1.51-1.21.61-.48,1.19-.98,1.83-1.41,1.36-.91,2.47-2.09,3.63-3.22.59-.59,1.23-1.13,1.84-1.7.41-.38.79-.79,1.2-1.17.32-.31.64-.63,1-.88.31-.21.68-.33,1.03-.47.3-.12.61-.23.92-.33.25-.08.5-.15.75-.22.31-.09.61-.17.92-.25.25-.06.5-.15.75-.16.86-.03,1.72-.26,2.58-.13.4.06.79.24,1.18.37.17.05.35.1.51.16.33.13.66.26.99.39.41.16.81.3,1.22.46.23.09.46.2.69.3.38.17.78.32,1.14.53.4.24.76.53,1.14.81.06.05.09.14.15.23-.59.28-1.13.18-1.72.12-.88-.09-1.77-.03-2.65-.02-.19,0-.38.06-.56.1-.3.07-.61.13-.9.22-.3.09-.6.2-.89.34-.39.19-.78.39-1.14.63-.37.24-.74.5-1.04.82-.39.42-.71.91-1.06,1.38-.11.15-.21.32-.3.49-.15.3-.28.61-.4.92-.08.2-.13.4-.21.6-.14.32-.09.65.17.9.38.37.75.75,1.14,1.11.69.65,1.39,1.29,2.08,1.93.56.52,1.11,1.03,1.67,1.55.64.6,1.28,1.2,1.93,1.8.69.64,1.39,1.27,2.08,1.91.55.51,1.07,1.08,1.66,1.54.76.59,1.38,1.32,2.1,1.95.55.48,1.08.98,1.61,1.48.62.57,1.24,1.14,1.86,1.72.71.66,1.43,1.31,2.14,1.97.54.5,1.07,1,1.61,1.5.72.67,1.44,1.33,2.16,1.99.55.51,1.09,1.02,1.64,1.53.7.65,1.4,1.29,2.1,1.94.5.46,1,.93,1.51,1.39.23.21.46.41.7.61.22.18.15.4.11.61-.05.25-.16.49-.25.73-.15.42-.27.84-.46,1.24-.2.41-.43.82-.71,1.18-.27.34-.62.64-.97.89-.38.28-.8.52-1.29.6-.44.07-.88.2-1.32.25-.43.05-.8-.11-1.1-.44-.32-.35-.66-.69-.98-1.03-.6-.64-1.2-1.29-1.8-1.93-.56-.61-1.12-1.23-1.69-1.84-.7-.75-1.41-1.49-2.11-2.25-.88-.95-1.75-1.92-2.63-2.88-.27-.3-.57-.57-.84-.87-.5-.54-.99-1.08-1.49-1.62-.82-.88-1.65-1.76-2.48-2.64-.62-.66-1.24-1.32-1.86-1.98-.6-.64-1.19-1.29-1.79-1.93-.95-1.03-1.9-2.06-2.85-3.1-.23-.25-.47-.49-.7-.73-.56-.61-1.12-1.23-1.69-1.84-.7-.75-1.4-1.48-2.1-2.23-.19-.21-.37-.43-.54-.65-.13-.17-.25-.16-.36.01-.31.44-.61.89-.93,1.33-.19.27-.41.51-.59.79-.57.9-1.38,1.59-2.11,2.34-.68.7-1.36,1.39-2.04,2.08-.29.3-.56.63-.87.9-.1.09-.32.13-.46.09-.37-.12-.74-.28-1.09-.46-.48-.24-.97-.48-1.4-.79-.47-.34-.92-.73-1.32-1.16-.4-.42-.77-.88-1.09-1.37-.25-.39-.42-.83-.61-1.26-.2-.46-.39-.92-.53-1.39-.1-.33-.12-.68-.17-.96Z"/><path class="cls-1" d="m6.62,36.45c-.28,0-.53-.19-.77-.38-.45-.35-.69-.85-.93-1.34-.11-.23-.12-.52-.18-.78-.04-.2-.11-.41-.12-.61-.03-.53.07-1.04.25-1.55.07-.21.09-.44.16-.66.08-.22.18-.44.3-.64.15-.27.35-.51.49-.78.23-.47.58-.84.94-1.21.3-.3.59-.62.93-.88.48-.37.98-.71,1.55-.94.43-.17.85-.38,1.29-.53.27-.09.58-.09.85-.18.62-.19,1.27-.12,1.9-.16.62-.04,1.25.02,1.87.04.06,0,.12.06.18.07.18.03.36.09.53-.08.69-.66,1.4-1.31,2.1-1.96.72-.67,1.44-1.34,2.16-2.01.12-.12.2-.12.32,0,.48.5.99.97,1.46,1.47.59.62,1.16,1.27,1.73,1.91.35.38.7.76,1.03,1.15.05.05.04.22,0,.27-.63.64-1.26,1.27-1.91,1.89-.65.63-1.32,1.24-1.98,1.86-.06.05-.1.15-.1.23,0,.24,0,.49,0,.73,0,.84.02,1.68-.02,2.52-.02.4-.15.79-.23,1.18-.05.24-.1.48-.16.72-.09.38-.15.78-.3,1.14-.19.47-.44.93-.69,1.38-.43.78-.97,1.49-1.66,2.06-.36.3-.75.56-1.15.8-.44.27-.92.42-1.4.6-.57.21-1.16.27-1.74.41-1.05.25-2.1.06-3.14.11-.25.01-.5-.11-.8-.18.05-.21.1-.43.17-.65.07-.23.14-.47.24-.69.13-.27.11-.6.51-.76.39-.15.71-.48,1.05-.75.34-.28.68-.56,1-.87.4-.39.7-.87.89-1.39.09-.25.16-.53.18-.8.02-.49-.19-.91-.37-1.36-.21-.5-.58-.84-.93-1.2-.3-.3-.68-.46-1.09-.6-.33-.12-.65-.1-.98-.11-.56-.02-1.03.25-1.52.5-.44.22-.76.57-1.06.93-.27.33-.55.67-.62,1.12-.05.3-.13.6-.21.93Z"/><path class="cls-1" d="m25.38,16.96c1.85-1.74,3.68-3.45,5.5-5.16-.03-.02-.05-.03-.08-.05-.02-.16-.05-.32-.05-.49,0-.54-.03-1.09,0-1.62.04-.52.16-1.03.24-1.55.01-.06.02-.13.03-.19.01-.4.11-.78.26-1.16.13-.33.19-.7.31-1.04.11-.31.27-.61.42-.9.17-.33.33-.66.56-.95.31-.41.64-.81,1.01-1.16.48-.45.99-.86,1.52-1.24.28-.2.64-.32.96-.47.28-.13.55-.26.84-.37.18-.07.38-.13.57-.17.27-.06.55-.1.82-.15.47-.09.93-.17,1.4-.26.04,0,.07-.01.11-.01.65,0,1.31,0,1.96,0,.04,0,.07.02.12.03,0,.07.02.14,0,.19-.23.56-.44,1.13-.7,1.68-.08.18-.26.35-.44.43-.49.23-.79.68-1.16,1.03-.42.39-.68.91-.86,1.44-.2.58-.29,1.21-.14,1.8.24.99.72,1.88,1.54,2.52.24.18.55.26.84.37.17.07.35.13.52.15.61.04,1.17-.15,1.73-.39.76-.33,1.39-.83,1.95-1.42.39-.4.76-.82.96-1.37.08-.24.22-.45.36-.72.04.06.15.14.16.23.01.77.04,1.55,0,2.32-.02.39-.16.78-.25,1.17-.05.21-.09.43-.15.63-.1.31-.21.62-.32.93-.15.44-.39.83-.66,1.21-.41.59-.82,1.16-1.42,1.58-.36.26-.7.53-1.09.75-.22.12-.45.25-.68.35-.47.19-.94.37-1.41.53-.26.09-.54.13-.81.19-.45.09-.89.21-1.34.26-.51.05-1.03.03-1.54.04-.32.01-.66-.06-.94.15-.24.18-.46.39-.68.6-.42.41-.83.82-1.25,1.23-.75.71-1.5,1.42-2.25,2.12-.46.43-.92.85-1.39,1.26-.05.05-.22.05-.27,0-.75-.69-1.5-1.39-2.24-2.08-.71-.66-1.42-1.31-2.14-1.96-.11-.1-.25-.18-.42-.31Z"/></svg>