<?xml version="1.0" encoding="utf-8"?>
<!-- Generator: Adobe Illustrator 27.1.1, SVG Export Plug-In . SVG Version: 6.00 Build 0)  -->
<svg version="1.1" id="Layer_1" xmlns="http://www.w3.org/2000/svg" xmlns:xlink="http://www.w3.org/1999/xlink" x="0px" y="0px"
	 viewBox="0 0 50 50" style="enable-background:new 0 0 50 50;" xml:space="preserve">
<style type="text/css">
	.st0{fill:#898989;}
</style>
<g>
	<path class="st0" d="M6.36,20.18c-1.05-0.3-2-0.56-2.94-0.83c-0.88-0.25-1.32-0.91-1.21-1.78c0.1-0.77,0.73-1.29,1.61-1.31
		c0.36-0.01,0.71,0,1.07,0c1.23-0.02,2.5-0.18,3.37,1.14c0.35-0.75,0.62-1.4,0.94-2.03c0.63-1.25,1.32-2.48,1.93-3.75
		c0.9-1.87,2.37-2.8,4.41-3c6.39-0.63,12.77-0.67,19.16,0.06c2.1,0.24,3.34,1.44,4.22,3.19c0.9,1.79,1.81,3.57,2.73,5.38
		c-0.02,0,0.02,0.02,0.04,0c1.39-1.55,3.21-0.94,4.88-0.91c0.72,0.01,1.1,0.69,1.16,1.42c0.06,0.71-0.41,1.36-1.13,1.57
		c-0.97,0.29-1.96,0.54-3.05,0.85c0.43,0.5,0.79,0.98,1.2,1.38c1.67,1.63,2.3,3.58,2.25,5.91c-0.1,4.22-0.03,8.44-0.03,12.66
		c0,1.2-0.44,1.64-1.64,1.64c-1.52,0-3.04,0-4.56,0c-0.96,0-1.45-0.5-1.47-1.47c-0.01-0.6-0.03-1.2,0.01-1.79
		c0.02-0.43-0.13-0.54-0.55-0.54c-4.43,0.01-8.86,0.01-13.29,0.01c-4.77,0-9.54,0.01-14.31-0.01c-0.45,0-0.6,0.12-0.57,0.57
		c0.04,0.58,0.01,1.16,0.01,1.75c-0.01,1-0.5,1.49-1.49,1.49c-1.52,0-3.04,0-4.56,0c-1.16,0-1.6-0.44-1.6-1.62
		c-0.01-3.01-0.01-6.01,0-9.02c0-1.78,0-3.56,0.05-5.33c0.04-1.27,0.57-2.37,1.39-3.33C5.02,21.72,5.66,21,6.36,20.18z M9.82,19.17
		C20,18.12,29.91,18.13,39.9,19.15c-0.07-0.22-0.1-0.33-0.15-0.42c-1.13-2.2-2.28-4.39-3.39-6.6c-0.35-0.69-0.85-1.08-1.61-1.13
		c-2.45-0.19-4.89-0.52-7.34-0.51c-3.94,0.02-7.88,0.25-11.81,0.45c-0.57,0.03-1.39,0.24-1.63,0.64
		C12.55,13.99,11.27,16.48,9.82,19.17z M40.55,29.13c0.29-0.05,0.81-0.1,1.3-0.24c1.38-0.41,2.2-1.56,2.09-2.84
		c-0.11-1.3-1.14-2.34-2.48-2.52c-1.67-0.22-3.27,0.89-3.76,2.61c-0.46,1.62,0.24,2.71,1.9,2.94
		C39.84,29.11,40.08,29.11,40.55,29.13z M9.56,29.09c0.23,0,0.45,0.02,0.68,0c1.17-0.1,2.02-0.8,2.11-1.71
		c0.16-1.67-0.98-3.32-2.6-3.73c-1.12-0.28-2.16-0.14-2.99,0.74c-0.71,0.74-0.95,1.63-0.67,2.63C6.44,28.29,7.8,29.1,9.56,29.09z
		 M24.96,33.1c1.13,0,2.26,0.01,3.39,0c1.97-0.02,1.76,0.3,1.79-1.83c0.01-0.6-0.21-0.83-0.82-0.82c-2.78,0.02-5.55,0.01-8.33,0.01
		c-1.18,0-1.18,0-1.18,1.16c0,0.26,0.01,0.52-0.01,0.77c-0.03,0.51,0.17,0.73,0.71,0.72C21.99,33.09,23.47,33.1,24.96,33.1z"/>
</g>
</svg>
