<?xml version="1.0" encoding="utf-8"?>
<!-- Generator: Adobe Illustrator 27.2.0, SVG Export Plug-In . SVG Version: 6.00 Build 0)  -->
<svg version="1.1" id="Layer_1" xmlns="http://www.w3.org/2000/svg" xmlns:xlink="http://www.w3.org/1999/xlink" x="0px" y="0px"
	 viewBox="0 0 360 360" style="enable-background:new 0 0 360 360;" xml:space="preserve">
<style type="text/css">
	.st0{fill:#FFFFFF;}
</style>
<g>
	<path class="st0" d="M296.6,230.6c-1.8,2.3-4.5,3.2-7.9,3.1c-7.6-0.1-15.2,0-23.4,0c0,5.1,0,9.5,0,13.9c0,9.6,0.1,19.3,0.1,28.9
		c0,2,0,3.9-0.3,5.8c-0.9,5.5-7.4,8-11.8,4.7c-10.3-7.6-20.5-15.2-30.8-22.8c-12.8-9.5-25.6-19.2-38.6-28.5
		c-1.7-1.2-3.8-1.9-5.9-1.9c-34.2-0.2-68.5-0.2-102.7-0.1c-3.5,0-6.5-0.4-8.6-2.7c-1.2-1.3-1.7-3-1.7-4.8c0-48.1,0-96.2,0-144.3
		c0-4.9,4-8.9,8.9-8.9c71.3,0,142.7,0,214,0c5.5,0,10,4.5,10,10l0,143.2C298,227.8,297.5,229.4,296.6,230.6z M179,138.2
		c-7.4-0.2-13.8,6.1-13.8,13.5c0,7.3,6,13.3,13.4,13.3c7.5,0,13.3-5.7,13.4-13.2C192,144.2,186.4,138.3,179,138.2z M216.9,151.6
		c0,7.6,6.1,13.5,13.8,13.3c7.2-0.2,13.3-6.6,13-13.7c-0.2-7.3-6.4-13.2-13.7-13.1C222.7,138.3,216.9,144.2,216.9,151.6z
		 M127.4,164.9c7.3-0.1,13.4-6.3,13.3-13.4c-0.1-7.5-6.4-13.6-13.9-13.4c-7.4,0.2-13,6.2-12.9,13.7C114,159.2,119.9,165,127.4,164.9
		z"/>
</g>
</svg>
