<?xml version="1.0" encoding="utf-8"?>
<!-- Generator: Adobe Illustrator 26.3.1, SVG Export Plug-In . SVG Version: 6.00 Build 0)  -->
<svg version="1.1" id="Layer_1" xmlns="http://www.w3.org/2000/svg" xmlns:xlink="http://www.w3.org/1999/xlink" x="0px" y="0px"
	 viewBox="0 0 216 216" style="enable-background:new 0 0 216 216;" xml:space="preserve">
<style type="text/css">
	.st0{fill:#0A54A2;}
</style>
<g>
	<g>
		<path class="st0" d="M131.1,196c-0.4-0.2-0.7-0.4-1.1-0.5c-8.9-1.6-16.5-5.7-23.6-11c-8-5.9-14.8-13-21.2-20.6
			c-7.6-9-14.3-18.6-20.6-28.5c-4.6-7.2-7.5-15-9.9-23.2c-3.4-11.5-5.6-23.2-6.7-35.2c-0.6-6.7-0.8-13.5-1.3-20.2
			c-0.3-3.8-0.2-7.6,0.5-11.3c1.6-9.2,6.4-16.2,14.3-21.1c6.4-3.9,13.4-5.8,20.7-6.6c2.1-0.2,2.4,0.1,2.5,2.2
			c0.2,7.2,0.3,14.5,0.5,21.7c0.2,8.1,0.5,16.1,0.8,24.2c0.1,2.1-0.6,3.4-2.4,4.5c-5.5,3.5-7.6,8.7-7,15.1c0.3,2.8,1.2,5.4,2.4,7.9
			c8.3,16.3,16.6,32.6,25.7,48.5c1.3,2.3,2.7,4.5,4.2,6.7c4,5.6,8.7,7.3,15.3,5.6c1.2-0.3,2.4-0.7,3.5-1.3c1.2-0.6,2.1-0.4,3.2,0.4
			c4.9,3.9,9.8,7.7,14.6,11.5c7.5,5.9,15,11.8,22.5,17.7c0.3,0.2,0.6,0.4,0.8,0.6c1,0.9,1,1.1-0.2,1.8c-2.6,1.4-5.2,2.9-7.9,4.1
			c-5.7,2.6-11.5,4.6-17.6,6.1c-0.7,0.2-1.4,0.5-2.1,0.8C137.8,196,134.4,196,131.1,196z"/>
		<path class="st0" d="M178.8,169.5c-0.9,2.8-1.9,5.6-2.8,8.4c-0.2,0.5-0.3,0.9-0.5,1.4c-0.6,1.7-0.8,1.8-2.3,0.6
			c-6.4-5.1-12.9-10.2-19.3-15.3c-6.4-5.1-12.8-10.1-19.1-15.2c-1.5-1.2-1.5-1.3,0.2-2.2c2.5-1.3,5-2.6,7.5-4c1.7-1,3.3-1,4.9-0.3
			c1.5,0.7,3,1.4,4.3,2.4c7.8,6,15.6,12.1,23.4,18.1c1.8,1.4,2.7,3.3,3.5,5.3C178.8,168.9,178.8,169.2,178.8,169.5z"/>
		<path class="st0" d="M89.7,29.7c0-2.6,0-6.2,0-9.9c0-2.3,0.4-2.5,2.6-2.1c3.3,0.6,6.3,2.1,8.8,4.3c1.4,1.2,2.1,2.6,2.1,4.5
			c0.1,10.4,0.2,20.9,0.4,31.3c0,2-0.6,3.6-1.9,5c-2.1,2.4-4.7,4.1-7.8,4.9c-2.3,0.7-3,0.3-3.3-2.2c-0.3-3.1-0.4-6.2-0.5-9.3
			C90,47.8,89.9,39.3,89.7,29.7z"/>
	</g>
</g>
</svg>
