<?xml version="1.0" encoding="utf-8"?>
<!-- Generator: Adobe Illustrator 26.3.1, SVG Export Plug-In . SVG Version: 6.00 Build 0)  -->
<svg version="1.1" id="Layer_1" xmlns="http://www.w3.org/2000/svg" xmlns:xlink="http://www.w3.org/1999/xlink" x="0px" y="0px"
	 viewBox="0 0 100 100" style="enable-background:new 0 0 100 100;" xml:space="preserve">
<style type="text/css">
	.st0{fill:#1E1E1E;}
</style>
<g>
	<g>
		<path class="st0" d="M56.3,25.9c10.6,0,21.1,0,31.7,0c0,6.3,0,12.7,0,19c-10.6,0-21.1,0-31.7,0C56.3,38.6,56.3,32.3,56.3,25.9z
			 M71.3,37.7c0-0.1,0-0.2,0-0.3c-0.1-0.9-0.3-1.8-0.9-2.5c-0.9-1-2.3-0.7-2.8,0.5c-0.4,1.2,0.4,2.3,1.4,2.3
			c-0.1-0.4-0.2-0.8,0.2-1.1c0.2-0.1,0.6-0.1,0.8,0c0.4,0.2,0.5,0.7,0.6,1.2c-0.3,0-0.6,0-0.9,0c0,0.4,0,0.7,0,1.1
			c0.6,0,1.3,0,1.9,0c0,0.6-0.4,0.9-0.8,1.1c0,0.1,0.1,0.2,0.1,0.2c0.7,0.3,0.8,1,1.2,1.5c0,0,0.1,0,0.2,0.1
			c0.2-0.3,0.3-0.6,0.4-0.9c0.1-0.2,0.1-0.4,0.4-0.4c0.2-0.1,0.4-0.3,0.6-0.6c-0.5-0.3-0.9-0.6-0.9-1.2c0.6,0,1.3,0,1.9,0
			c0-0.4,0-0.7,0-1.1c-0.3,0-0.6,0-0.9,0c0.1-0.9,0.5-1.3,1.1-1.3c0.1,0,0.4,0.1,0.4,0.2c0.1,0.3,0.2,0.7,0.2,1c0,0,0.1,0,0.1,0
			c0.9-0.2,1.4-1,1.3-1.8c-0.1-0.9-0.8-1.6-1.7-1.5c-0.8,0.1-1.3,0.6-1.6,1.2c-0.3,0.7-0.4,1.4-0.7,2.2c-0.1,0-0.2,0-0.4,0
			c0-0.3,0-0.6,0.1-0.9c0.3-1,0.5-2.1,0.9-3c0.7-1.8-0.4-3.8-1.4-4.7c-0.2,0.2-0.4,0.4-0.6,0.7c-0.9,1.3-1.4,2.7-0.7,4.3
			c0.2,0.5,0.4,1,0.5,1.6c0.2,0.7,0.4,1.4,0.3,2.2C71.6,37.7,71.5,37.7,71.3,37.7z"/>
		<path class="st0" d="M43.6,25.9c0,6.3,0,12.6,0,19c-10.6,0-21.1,0-31.7,0c0-6.3,0-12.6,0-19C22.5,25.9,33,25.9,43.6,25.9z
			 M28.1,37.7c0-0.4,0-0.7,0.1-1.1c0.3-1,0.6-1.9,0.9-2.9c0.5-1.6,0-3.6-1.4-4.7c-0.2,0.3-0.4,0.5-0.6,0.8c-0.8,1.2-1.3,2.6-0.6,4
			c0.2,0.4,0.3,0.8,0.5,1.2c0.3,0.8,0.5,1.7,0.4,2.6c-0.2,0-0.3,0-0.5,0c-0.1-0.9-0.2-1.8-0.7-2.5c-0.3-0.5-0.8-0.9-1.4-0.9
			c-0.9-0.1-1.6,0.7-1.7,1.6c-0.1,0.8,0.4,1.7,1.5,1.8c-0.1-0.4-0.2-0.9,0.2-1.1c0.2-0.1,0.5-0.1,0.7,0c0.5,0.2,0.6,0.7,0.6,1.2
			c-0.3,0-0.6,0-0.9,0c0,0.4,0,0.7,0,1.1c0.6,0,1.3,0,1.9,0c-0.1,0.6-0.4,0.9-0.8,1.1c0.1,0.1,0.1,0.2,0.1,0.3
			c0.7,0.3,0.8,1,1.2,1.5c0,0,0,0,0.1,0.1c0.2-0.3,0.3-0.5,0.4-0.8c0.1-0.2,0.2-0.4,0.4-0.5c0.2-0.1,0.4-0.3,0.6-0.5
			c-0.5-0.3-0.8-0.6-0.9-1.2c0.6,0,1.3,0,1.9,0c0-0.4,0-0.7,0-1.1c-0.3,0-0.6,0-0.9,0c0-0.8,0.4-1.3,1-1.3c0.2,0,0.4,0.1,0.4,0.2
			c0.1,0.3,0.2,0.7,0.3,1c1.1-0.2,1.6-1.1,1.3-2.1c-0.3-1.1-1.6-1.7-2.6-0.9c-0.4,0.4-0.7,0.9-0.9,1.4c-0.1,0.5-0.2,1.1-0.3,1.6
			C28.5,37.7,28.3,37.7,28.1,37.7z"/>
		<path class="st0" d="M56.3,57.7c10.6,0,21.1,0,31.7,0c0,6.3,0,12.7,0,19c-10.6,0-21.1,0-31.7,0C56.3,70.4,56.3,64,56.3,57.7z
			 M73.8,69.5c0.1-0.9,0.5-1.3,1-1.3c0.5,0.1,0.7,0.5,0.5,1.2c0.9-0.1,1.5-0.8,1.5-1.7c0-0.8-0.5-1.4-1.2-1.7
			c-0.6-0.2-1.3,0-1.7,0.6c-0.2,0.3-0.4,0.5-0.5,0.9c-0.2,0.6-0.3,1.3-0.5,1.9c-0.1,0-0.2,0-0.4,0c0-0.1,0-0.2,0-0.3
			c0-1,0.3-2,0.7-3c0.2-0.6,0.5-1.2,0.5-1.8c0.1-1.4-0.6-2.6-1.6-3.6c-0.3,0.4-0.7,0.8-0.9,1.3c-0.6,1.1-0.9,2.2-0.4,3.5
			c0.2,0.4,0.3,0.9,0.5,1.4c0.3,0.8,0.5,1.7,0.4,2.6c-0.2,0-0.3,0-0.4,0c-0.1-0.6-0.2-1.2-0.4-1.8c-0.2-0.8-0.7-1.4-1.5-1.6
			c-0.6-0.2-1.2,0.1-1.5,0.6c-0.4,0.6-0.5,1.2-0.2,1.9c0.3,0.6,0.9,0.9,1.4,0.8c-0.2-0.7,0-1.1,0.5-1.2c0.6-0.1,1,0.4,1.1,1.3
			c-0.3,0-0.6,0-0.9,0c0,0.4,0,0.7,0,1.1c0.6,0,1.3,0,1.9,0c0,0.6-0.4,0.9-0.9,1.2c0.3,0.2,0.4,0.5,0.7,0.5c0.2,0.1,0.2,0.2,0.3,0.3
			c0.1,0.3,0.3,0.6,0.4,0.9c0.1,0,0.1,0,0.2,0c0.1-0.3,0.3-0.6,0.4-0.9c0.1-0.2,0.1-0.3,0.3-0.4c0.2-0.1,0.4-0.3,0.6-0.5
			c-0.7-0.5-0.8-0.6-0.9-1.2c0.6,0,1.3,0,1.9,0c0-0.4,0-0.7,0-1.1C74.4,69.5,74.1,69.5,73.8,69.5z"/>
		<path class="st0" d="M43.6,57.7c0,6.3,0,12.7,0,19c-10.6,0-21.1,0-31.7,0c0-6.3,0-12.7,0-19C22.5,57.7,33,57.7,43.6,57.7z
			 M27.2,70.6c-0.1,0.6-0.4,0.9-1,1.2c0.3,0.3,0.6,0.5,0.9,0.8c0.1,0.3,0.3,0.7,0.5,1c0,0,0.1,0,0.1,0c0.2-0.3,0.3-0.5,0.4-0.8
			c0.1-0.2,0.1-0.3,0.4-0.4c0.2-0.1,0.4-0.3,0.6-0.6c-0.6-0.3-0.9-0.6-0.9-1.2c0.6,0,1.2,0,1.9,0c0-0.4,0-0.7,0-1.1
			c-0.3,0-0.6,0-0.9,0c0.1-0.9,0.5-1.3,1-1.2c0.1,0,0.4,0.1,0.4,0.2c0.1,0.3,0.2,0.7,0.3,1.1c0.1-0.1,0.4-0.1,0.6-0.2
			c0.8-0.4,1.1-1.5,0.6-2.4c-0.5-0.9-1.5-1.1-2.3-0.5c-0.3,0.2-0.6,0.5-0.7,0.9c-0.3,0.7-0.4,1.4-0.7,2.2c0,0-0.2,0-0.4,0
			c0-0.4,0-0.7,0.1-1.1c0.3-0.9,0.5-1.9,0.8-2.8c0.6-1.7,0.1-3.6-1.4-4.8c-0.4,0.6-0.8,1.1-1.1,1.8c-0.5,1-0.6,2-0.1,3.1
			c0.2,0.6,0.4,1.2,0.6,1.8c0.2,0.7,0.3,1.4,0.3,2.1c-0.2,0-0.3,0-0.5,0c-0.1-0.9-0.2-1.8-0.8-2.6c-0.4-0.6-1-1-1.7-0.8
			c-0.7,0.2-1.1,0.7-1.3,1.4c-0.2,0.9,0.5,2,1.5,2c-0.1-0.4-0.2-0.8,0.2-1.1c0.2-0.1,0.6-0.2,0.8-0.1c0.4,0.2,0.6,0.7,0.6,1.2
			c-0.3,0-0.6,0-0.9,0c0,0.4,0,0.7,0,1.1C25.9,70.6,26.5,70.6,27.2,70.6z"/>
	</g>
</g>
</svg>
