<?xml version="1.0" encoding="utf-8"?>
<!-- Generator: Adobe Illustrator 27.1.1, SVG Export Plug-In . SVG Version: 6.00 Build 0)  -->
<svg version="1.1" id="Layer_1" xmlns="http://www.w3.org/2000/svg" xmlns:xlink="http://www.w3.org/1999/xlink" x="0px" y="0px"
	 viewBox="0 0 216 216" style="enable-background:new 0 0 216 216;" xml:space="preserve">
<style type="text/css">
	.st0{fill:#444444;}
</style>
<g>
	<path class="st0" d="M169.3,79.5c-0.1,12.6-2.3,22.6-7.6,31.8c-15.8,27.4-31.6,54.7-47.5,81.9c-3.5,6-10.9,6-14.3,0
		c-16-27.5-32.4-54.8-47.8-82.7c-10.9-19.9-10-40.4,1.2-60.2c7.8-13.8,19.6-23.2,34.6-28c17.2-5.5,34-3.9,49.8,5.1
		c16.1,9.2,26.1,23,30.2,41C168.8,72.8,169,77.2,169.3,79.5z M107.1,54.6c-13.6-0.1-24.8,11-24.9,24.6c-0.1,13.7,10.9,24.9,24.7,25
		c13.6,0.1,24.8-10.9,24.9-24.5C131.9,65.9,120.8,54.6,107.1,54.6z"/>
</g>
</svg>
