<?xml version="1.0" encoding="utf-8"?>
<!-- Generator: Adobe Illustrator 26.3.1, SVG Export Plug-In . SVG Version: 6.00 Build 0)  -->
<svg version="1.1" id="Layer_1" xmlns="http://www.w3.org/2000/svg" xmlns:xlink="http://www.w3.org/1999/xlink" x="0px" y="0px"
	 viewBox="0 0 297.6 297.6" style="enable-background:new 0 0 297.6 297.6;" xml:space="preserve">
<style type="text/css">
	.st0{fill:#F9F9F9;}
</style>
<g>
	<path class="st0" d="M236.1,109.9c-0.2,17.5-3.2,31.3-10.5,44c-21.8,37.9-43.8,75.6-65.8,113.4c-4.8,8.2-15,8.3-19.8,0
		c-22.2-38.1-44.9-75.9-66.1-114.5c-15.1-27.5-13.8-56,1.6-83.3c10.8-19.1,27.1-32.1,47.9-38.7c23.8-7.6,47.1-5.4,68.9,7.1
		c22.2,12.7,36.1,31.9,41.8,56.8C235.5,100.6,235.7,106.8,236.1,109.9z M150.1,75.4c-18.8-0.1-34.3,15.2-34.4,34
		c-0.2,19,15.2,34.5,34.1,34.6c18.9,0.1,34.3-15.1,34.4-34C184.3,91.1,169,75.5,150.1,75.4z"/>
</g>
</svg>
