<?xml version="1.0" encoding="utf-8"?>
<!-- Generator: Adobe Illustrator 26.3.1, SVG Export Plug-In . SVG Version: 6.00 Build 0)  -->
<svg version="1.1" id="Layer_1" xmlns="http://www.w3.org/2000/svg" xmlns:xlink="http://www.w3.org/1999/xlink" x="0px" y="0px"
	 viewBox="0 0 216 216" style="enable-background:new 0 0 216 216;" xml:space="preserve">
<style type="text/css">
	.st0{fill:#0A54A2;}
</style>
<g>
	<g>
		<path class="st0" d="M107.1,116.9c-28.6-24.5-57-48.8-85.4-73.2c2.6-2.8,6-3.6,9.6-3.6c13.8,0,27.6,0,41.5,0
			c36.7,0,73.4,0,110.1,0c3.6,0,7,0.9,9.8,3.5C164.1,68,135.7,92.3,107.1,116.9z"/>
		<path class="st0" d="M84.9,110.2c7.4,6.5,14.8,12.9,22.2,19.4c7.4-6.5,14.7-12.9,22.2-19.4c21.1,18.1,42.2,36.2,63.3,54.3
			c-2.7,2.7-6,3.5-9.4,3.6c-8,0.1-16.1,0-24.1,0c-42.5,0-85,0-127.5,0c-3.6,0-7-0.8-9.9-3.5C42.6,146.5,63.7,128.4,84.9,110.2z"/>
		<path class="st0" d="M196.6,157.6c-20.7-17.6-41.2-35-61.8-52.5c20.6-17.9,41.1-35.8,61.8-53.8
			C196.6,86.9,196.6,122.1,196.6,157.6z"/>
		<path class="st0" d="M17.6,51.4c20.6,17.9,41.1,35.7,61.8,53.7c-20.6,17.5-41.1,34.9-61.8,52.5C17.6,122.2,17.6,86.9,17.6,51.4z"
			/>
	</g>
</g>
</svg>
