<?xml version="1.0" encoding="utf-8"?>
<!-- Generator: Adobe Illustrator 27.2.0, SVG Export Plug-In . SVG Version: 6.00 Build 0)  -->
<svg version="1.1" id="Layer_1" xmlns="http://www.w3.org/2000/svg" xmlns:xlink="http://www.w3.org/1999/xlink" x="0px" y="0px"
	 viewBox="0 0 360 360" style="enable-background:new 0 0 360 360;" xml:space="preserve">
<style type="text/css">
	.st0{fill:#5E5E5E;}
</style>
<g>
	<path class="st0" d="M122.8,273.8c0-2.1,0-4.2,0-6.3c0-10.9-0.2-21.8,0.1-32.7c0.5-17.1,8.4-30.1,23-39c7.4-4.5,15.6-6.4,24.3-6.3
		c9.9,0.1,19.8,0,29.7,0c8.5,0,16.4,2,23.7,6.3c10.3,6.1,17.2,14.8,21,26.1c2.2,6.6,2.1,13.4,2.1,20.2c0,8.2,0,16.4,0,24.6
		c0,1.8-0.1,3.6,0,5.4c0,0.9-0.3,1.2-1.1,1.6c-6.3,3.2-13.1,5.3-19.9,6.9c-14.1,3.4-28.5,4.5-43,4.1c-17.9-0.6-35.3-3.7-52.5-8.6
		C127.8,275.4,125.4,274.6,122.8,273.8z"/>
	<path class="st0" d="M114.1,247.1c-4.1-0.4-8.1-0.6-11.9-1.1c-10.5-1.3-20.9-3.3-31.2-6.1c-3.7-1-7.4-2.1-11.1-3.3
		c-0.4-0.1-0.8-1.1-0.8-1.7c-0.1-8.9,0-17.7,0-26.6c0-3.8-0.1-7.5,0-11.3c0.3-10.9,4-20.5,11.1-28.8c8.1-9.3,18.3-14.9,30.6-15.9
		c7.1-0.6,14.3-0.3,21.5-0.3c5.4,0,10.7,0,16.1,0c1.2,0,1.4,0.4,1.5,1.5c0.7,10.3,4.5,19.3,11.3,27c0.4,0.4,0.7,0.9,1.1,1.3
		c0.3,0.4,0.7,0.7,1.1,1c-2.8,1.2-5.6,2.3-8.2,3.6c-10,4.8-17.8,12.1-23.5,21.7c-5.2,8.7-7.7,18.1-7.5,28.3
		C114.1,239.8,114.1,243.4,114.1,247.1z"/>
	<path class="st0" d="M306.8,236c-16.1,7.8-33.4,10.4-51.3,11.4c0-0.7,0-1.2,0-1.8c-0.1-5.5,0-10.9-0.4-16.4
		c-0.6-7.1-2.9-13.8-6.4-20c-4.7-8.5-11.2-15.3-19.5-20.3c-4-2.4-8.4-4.2-12.7-6.3c8.2-8.2,12.8-18.4,13.4-30.5
		c0.3,0,0.6-0.1,0.9-0.1c10.4,0,20.8-0.1,31.3,0.1c10.3,0.2,19.4,3.7,27.5,10.1c8.2,6.5,13.6,14.9,16.1,25.2
		c0.8,3.2,1.2,6.5,1.2,9.8c0.1,12.7,0.1,25.5,0.1,38.3C306.9,235.6,306.8,235.7,306.8,236z"/>
	<path class="st0" d="M221,150.8c0.2,19.6-16.2,36.1-36.4,36c-20-0.1-36.3-16.4-36.2-36.4c0.2-19.8,16.3-35.9,36.5-35.8
		C205,114.6,221.4,131.2,221,150.8z"/>
	<path class="st0" d="M84.7,113.1c0.5-13.8,6.5-24.5,18.6-31.3c16.7-9.5,37.9-4.1,48.3,12.2c3.9,6.1,5.7,12.7,5.6,19.9
		c0,0.9-0.3,1.6-1,2.2c-7.7,6.4-13.1,14.3-15.1,24.1c-0.7,3.6-2.7,5-5.5,6.2c-8.1,3.4-16.3,4.1-24.7,1.6
		c-12-3.6-20.1-11.5-24.3-23.3C85.2,121,84.5,117.1,84.7,113.1z"/>
	<path class="st0" d="M247.1,77.1c12.7,0.5,23.9,7.2,30.7,20.7c6.7,13.3,3.8,30-6.7,40.6c-7.4,7.5-16.4,11.1-26.9,11
		c-4.6,0-9.1-1-13.3-3c-0.6-0.3-1.2-1.1-1.3-1.8c-2-13.2-8.6-23.5-19.5-31.1c-1.1-0.8-1.4-1.6-1.3-2.8c1.6-14.2,8.7-24.5,21.7-30.6
		C234.5,78.2,240.1,77.1,247.1,77.1z"/>
</g>
</svg>
