<?xml version="1.0" encoding="utf-8"?>
<!-- Generator: Adobe Illustrator 27.2.0, SVG Export Plug-In . SVG Version: 6.00 Build 0)  -->
<svg version="1.1" id="Layer_1" xmlns="http://www.w3.org/2000/svg" xmlns:xlink="http://www.w3.org/1999/xlink" x="0px" y="0px"
	 viewBox="0 0 360 360" style="enable-background:new 0 0 360 360;" xml:space="preserve">
<style type="text/css">
	.st0{fill:#5E5E5E;}
</style>
<g>
	<path class="st0" d="M246.6,206.3c-3.5-0.4-6.6-0.8-9.7-1.2c-9.7-1.2-19.3-2.4-29-3.5c-9.6-1.1-19.2-2.1-28.8-2.9
		c-17.6-1.5-35.2-2.3-52.9-1.7c-11.7,0.4-23.3,1.4-34.9,3.1c-10.2,1.5-20.2,3.7-30.2,6.4c-0.9,0.2-1.7,0.4-2.8,0.7
		c0-0.7-0.1-1.2-0.1-1.7c0-32.4,0-64.8,0-97.2c0-1,0.1-1.7,1.3-2.1c12-3.9,24.3-6.9,36.8-8.7c14.4-2.1,29-2.7,43.6-2.5
		c16.5,0.3,32.8,1.6,49.2,3.6c14.3,1.7,28.6,3.6,42.9,5.4c4.4,0.5,8.8,1.1,13.2,1.5c1.2,0.1,1.4,0.6,1.4,1.7c0,19.9,0,39.8,0,59.6
		c0,12.5,0,24.9,0,37.4C246.6,204.8,246.6,205.4,246.6,206.3z M88.6,188.6c14.4-2.3,28.9-3.3,43.8-3.6c-0.4-0.5-0.6-0.7-0.9-1
		c-4.2-3.9-7.4-8.5-9.7-13.6c-5.1-11.3-6.3-23.1-3.9-35.3c2.3-11.1,7.2-20.7,16.3-27.8c0.1-0.1,0.2-0.3,0.6-0.7
		c-16.4,0-32.4,1.2-48.3,4.5c0,0.5,0,0.8,0,1.1c0.7,10.3-6.4,18.7-15.2,20.8c-1,0.2-1.1,0.7-1.1,1.6c0,10.6,0,21.2,0,31.8
		c0,1.1,0.3,1.5,1.4,1.7c8,1.6,13.4,6.3,15.9,14.2C88.1,184.3,88.2,186.4,88.6,188.6z M214.9,113.4c-14.5-1.7-28.9-3.4-43.3-5
		c0,0.1-0.1,0.3-0.1,0.4c11.1,10.6,15.7,23.8,15.5,38.8c-0.2,15-5.1,28.2-16.7,38.4c14.3,1.4,28.5,2.8,42.6,4.1
		c1.5-13.2,8.8-19.9,21.9-20.5c0-11.3,0-22.5,0-33.8C223.7,135.4,214.1,126.3,214.9,113.4z M154.6,168.9c0.5-0.2,0.9-0.3,1.3-0.4
		c6.4-1.5,9.5-4.7,10.1-11.2c0.6-6.1-0.9-11.3-6.8-14.5c-2.5-1.4-4.8-3-7.2-4.6c-2.3-1.5-3-3.7-2.3-6.4c0.2-0.9,0.6-1.6,1.7-1.7
		c1.3-0.1,2,0.4,2.2,1.8c0.2,1.5,0.2,3.1,0.3,4.7c3.7,0,7.3,0,10.9,0c0.8-6.1-1.6-11.2-7.9-12.7c-2.1-0.5-2.1-0.5-2.3-2.8
		c0-0.6-0.1-1.1-0.8-1.1c-1.3,0-2.7,0-3.9,0c-0.3,1.3-0.1,2.8-0.8,3.4c-0.7,0.7-2.2,0.6-3.4,0.9c-0.8,0.2-1.5,0.5-2.2,0.9
		c-2.2,1.2-3.7,2.9-4.6,5.3c-1.9,5.2,0,11.9,4.4,15.2c2.4,1.8,5.1,3.3,7.5,5.1c2.6,1.8,3.9,6.9,2.7,9.8c-0.5,1.1-1.3,1.4-2.4,1.3
		c-1-0.1-1.4-0.8-1.5-1.7c-0.1-2-0.2-4-0.3-6c0-0.5-0.1-1-0.1-1.6c-3.7,0-7.2,0-10.8,0c0,1.6-0.1,3.2,0,4.7c0.4,5.2,2.8,9,7.9,10.4
		c2.4,0.7,3.8,1.4,3.3,4.2c0,0.2,0.4,0.8,0.7,0.9c1.4,0.1,2.7,0,4.3,0C154.6,171.4,154.6,170.2,154.6,168.9z"/>
	<path class="st0" d="M259.1,189.9c-1.1-11.3-2.2-22.5-3.2-33.7c-0.6-0.1-1-0.1-1.5-0.2c0-10.4,0-20.7,0-31.1c1.2,0,2.3,0,3.4,0
		c1.8,0,3.7,0.1,5.5,0.1c1.1,0,1.6,0.3,1.6,1.5c0.4,4.7,0.9,9.4,1.3,14.1c0.8,8,1.5,15.9,2.3,23.9c1,10.3,1.9,20.6,2.9,30.9
		c0.9,9.5,1.8,19.1,2.7,28.6c0,0.3,0,0.7,0,1.2c-0.9,0-1.9,0-2.8,0c-17.7-0.4-35.4-0.8-53.1-1.1c-14.3-0.2-28.5,0.2-42.8,1.2
		c-22.3,1.6-44.3,4.8-65.7,11.1c-7.1,2.1-14.1,4.7-21.2,7c-0.5,0.2-0.9,0.3-1.6,0.5c-0.2-1.6-0.4-3-0.5-4.5
		c-0.9-9.4-1.8-18.8-2.7-28.2c-0.2-1.9-0.2-2,1.7-2.3c5.9-0.9,11.9-1.7,17.9-2.5c0.8-0.1,1.7,0.1,2.4,0.6c5.2,3.3,8.3,8,9.1,14.2
		c0.1,0.4,0.2,0.9,0.3,1.4c2.2-0.5,4.3-1,6.4-1.5c10.3-2.4,20.6-4.2,31.1-5.5c21.6-2.7,43.4-3.5,65.2-3.4c4.6,0,9.3-0.1,13.9,0.1
		c4.8,0.3,9.5,1,14.2,1.6c2.7,0.3,5.4,0.7,8.4,1c0-0.8,0-1.3,0-1.9c0-6.9,0-13.8,0-20.7c0-1.2,0.3-1.8,1.6-2
		C256.9,190.3,257.9,190.1,259.1,189.9z"/>
	<path class="st0" d="M296.9,248.3c-2.4,0.2-4.6,0.3-6.7,0.4c-13.5,0.8-27.1,1.5-40.6,2.6c-13.8,1.1-27.5,2.4-41.2,4.1
		c-19.1,2.3-37.9,6.2-56.4,11.8c-13.1,4-25.8,9-38.2,14.8c-0.6,0.3-1.2,0.5-1.9,0.8c-0.2-0.5-0.3-0.9-0.4-1.2
		c-2.1-11.4-4.2-22.9-6.3-34.3c-0.2-1.2,0.1-1.7,1.3-2.1c2.5-0.6,5.1-1.4,7.6-2.2c4.7-1.7,9.2-0.7,13.4,1.6c5.3,2.8,8.7,7.2,10.1,13
		c0.1,0.4,0.2,0.9,0.3,1.3c0,0.1,0.1,0.1,0.3,0.3c1.3-0.4,2.7-0.9,4.1-1.3c13.2-4.4,26.6-7.7,40.2-10.3c12.4-2.4,24.8-4.3,37.3-5.4
		c13.1-1.2,26.1-2.2,39.2-3.3c0.5,0,1.1-0.1,1.7-0.2c-0.1-1.6-0.1-3-0.2-4.5c-0.1-1.2,0.4-1.6,1.7-1.6c6.3,0.2,12.6,0.4,18.9,0.5
		c0.4,0,0.9,0,1.7,0c-2.6-27.8-5.3-55.6-7.9-83.4c0.9-0.1,1.6-0.2,2.3-0.2c1.7-0.1,1.7-0.1,2,1.6c0.7,3.9,1.4,7.8,2.1,11.7
		c4.3,23.7,8.6,47.3,12.9,71C295.1,238.4,295.9,243.2,296.9,248.3z"/>
</g>
</svg>
