<?xml version="1.0" encoding="utf-8"?>
<!-- Generator: Adobe Illustrator 27.1.1, SVG Export Plug-In . SVG Version: 6.00 Build 0)  -->
<svg version="1.1" id="Layer_1" xmlns="http://www.w3.org/2000/svg" xmlns:xlink="http://www.w3.org/1999/xlink" x="0px" y="0px"
	 viewBox="0 0 216 216" style="enable-background:new 0 0 216 216;" xml:space="preserve">
<style type="text/css">
	.st0{fill:#FCFCFC;}
</style>
<g>
	<g>
		<path class="st0" d="M137.1,195.4c-7.5-0.1-17.6-2.9-26.9-8c-21.7-11.9-41.8-26.1-57.8-45.3C39.8,127,28.5,111.1,22,92.4
			c-5.2-15.1-4.8-30,4.1-43.7c3.1-4.8,7.7-8.8,12.3-12.2c5.6-4.2,12.4-3.3,18.6-1.2c2.1,0.7,4.4,3,5.2,5.1
			c4.2,11.1,8,22.3,11.9,33.5c1.5,4.3,0.1,8-2.8,11.2c-2.6,2.9-5.5,5.6-8.2,8.4c-4.1,4.3-4.6,5.7-1.4,10.7
			c5.2,8.1,10.5,16.1,16.6,23.4c8.9,10.6,20.3,18.2,32.2,25.1c4.9,2.8,5.6,2.6,9.8-1.2c3.1-2.9,6.2-5.7,9.2-8.6
			c2.8-2.8,6.1-4.1,9.9-2.8c11.8,3.9,23.6,7.9,35.3,12.2c1.8,0.7,3.6,2.9,4.3,4.8c3,8.7,2,16.8-4.4,23.9
			C165.3,190.8,153.7,195.3,137.1,195.4z"/>
		<path class="st0" d="M195.8,125c0,2.4,0.1,4.3,0,6.3c-0.1,3.6-2,5.8-4.8,5.9c-2.8,0.1-5-2.4-5.3-6c-0.6-6.9-0.6-13.9-2-20.6
			c-8.2-38.6-31.3-64.3-68.5-77.2c-9.5-3.3-19.6-4.3-29.7-4.6c-0.8,0-1.5,0-2.3-0.1c-3.9-0.3-6.2-2.2-6.1-5.2c0-2.9,2.6-5.1,6.3-5.1
			c15.6,0.1,30.8,2.5,45.2,8.9c27,11.9,46.6,31.3,58.4,58.4C192.4,98.3,195.5,111.6,195.8,125z"/>
		<path class="st0" d="M97.4,45.1c30.8,2.6,53.3,18,66.2,47c3.9,8.7,5.3,18.1,5.6,27.6c0,0.4,0,0.9,0,1.4c-0.2,3.9-2.1,6.3-5,6.4
			c-3.2,0.1-5.3-2.2-5.4-6.4c-0.2-11.8-2.7-23-8.8-33.1c-12.3-20.5-30.7-31-54.4-32.4c-1.5-0.1-3,0-4.5-0.2c-2.7-0.3-4-2.1-4.1-4.6
			c-0.1-2.6,1-4.8,3.8-5.3C92.7,45.1,94.6,45.2,97.4,45.1z"/>
		<path class="st0" d="M101.7,72.3c22.6,0.8,39.7,18,40.5,39.6c0.1,4-1.7,6.6-4.9,6.9c-3.3,0.3-5.6-1.9-5.6-6
			c-0.3-17.6-14.2-29.8-30.2-30.2c-2.7-0.1-5.2-0.7-5.8-3.8c-0.5-2.7,0.5-4.8,3-5.9C99.8,72.2,101.2,72.4,101.7,72.3z"/>
	</g>
</g>
</svg>
