<?xml version="1.0" encoding="utf-8"?>
<!-- Generator: Adobe Illustrator 27.2.0, SVG Export Plug-In . SVG Version: 6.00 Build 0)  -->
<svg version="1.1" id="Layer_1" xmlns="http://www.w3.org/2000/svg" xmlns:xlink="http://www.w3.org/1999/xlink" x="0px" y="0px"
	 viewBox="0 0 144 144" style="enable-background:new 0 0 144 144;" xml:space="preserve">
<style type="text/css">
	.st0{fill:#0C54A2;stroke:#0C54A2;stroke-miterlimit:10;}
	.st1{fill:none;stroke:#0C54A2;stroke-width:2.601;stroke-miterlimit:10;}
</style>
<g>
	<path class="st0" d="M103.2,99.5c0,0-0.2-0.2-0.4-0.4c0.9,3.2-0.7,5.7-2.1,8.2c-1.1,1.9-3.1,2.3-5.2,2.1c-1.4-0.1-2.8-0.3-4.2-0.6
		c-1.5-0.3-2.8,0.1-3.8,1.3c-0.8,0.9-1.6,1.8-2.4,2.7c-2.6,2.8-4.4,3.2-7.9,1.6c-0.2-0.1-0.5-0.2-1-0.4c2.9,7.5,5.7,14.8,8.6,22.2
		c-0.9,0.3-1.5,0.6-2.4,0.9c-3.2-8.3-6.4-16.4-9.7-25c-4.2,8.5-8.1,16.7-12.2,25c-0.8-0.4-1.5-0.7-2.3-1.1
		c3.7-7.7,7.4-15.3,11.1-22.9c-0.1-0.1-0.2-0.2-0.2-0.2c-0.8,0.4-1.7,0.9-2.5,1.3c-3.2,1.7-5.5,1.3-7.9-1.4
		c-0.8-0.9-1.6-1.8-2.4-2.7c-1.1-1.2-2.3-1.7-3.9-1.4c-1.4,0.3-2.8,0.4-4.2,0.5c-3,0.3-4.7-0.7-6-3.4c-0.6-1.3-1.1-2.6-1.6-3.9
		c-0.6-1.5-1.7-2.4-3.3-2.8c-1.4-0.3-2.9-0.5-4.3-0.9c-2.8-0.8-4.1-2.4-4.3-5.3c-0.1-1.5-0.2-2.9-0.2-4.4c0-1.6-0.8-2.7-2-3.4
		c-1.1-0.7-2.1-1.3-3.2-2c-2.9-2-3.7-4-2.7-7.4c0.3-1.1,0.7-2.2,1.1-3.3c0.7-1.7,0.4-3.2-0.8-4.6c-0.7-0.9-1.5-1.8-2.1-2.7
		c-2.1-2.8-2.1-5,0-7.8c0.8-1.1,1.7-2.1,2.5-3.2c0.8-1,1.1-2.1,0.7-3.4c-0.5-1.4-0.9-2.9-1.3-4.3c-0.9-3-0.2-5,2.4-6.8
		c1.1-0.8,2.3-1.5,3.4-2.2c1.4-0.8,2.2-2,2.2-3.7c0-1.4,0.1-2.8,0.2-4.2c0.2-2.9,1.4-4.4,4.2-5.3c1.2-0.4,2.4-0.6,3.6-0.8
		c2.1-0.3,3.5-1.4,4.2-3.5c0.4-1.2,0.9-2.4,1.5-3.6c1.1-2.4,3-3.4,5.5-3.2c1.1,0.1,2.3,0.3,3.4,0.5c2.4,0.5,4.3,0,5.8-2
		c0.5-0.7,1.1-1.4,1.7-2c2.5-2.6,4.6-3,7.8-1.4c1,0.5,1.9,1,2.9,1.6c1.7,1,3.3,0.9,5,0c1.1-0.7,2.3-1.3,3.4-1.8
		c2.7-1.2,4.6-0.8,6.7,1.2c1,1,1.9,2.1,2.8,3.1c1,1.2,2.3,1.8,3.9,1.5c1.2-0.2,2.4-0.3,3.5-0.5c3.5-0.5,5.4,0.5,6.9,3.7
		c0.5,1,0.9,2.1,1.3,3.2c0.6,1.9,2,3,3.9,3.3c1.3,0.2,2.7,0.5,4,0.9c2.6,0.8,3.9,2.3,4.1,5c0.1,1.6,0.2,3.2,0.2,4.8
		c0.1,1.3,0.7,2.3,1.7,3c1.2,0.8,2.5,1.5,3.7,2.3c2.6,1.7,3.3,3.7,2.5,6.7c-0.3,1.2-0.7,2.3-1.1,3.4c-0.8,1.9-0.5,3.6,0.9,5.2
		c0.8,0.9,1.5,1.8,2.1,2.7c1.8,2.5,1.9,4.5,0.2,7.1c-0.8,1.2-1.7,2.2-2.6,3.3c-1.1,1.4-1.4,2.8-0.8,4.5c0.4,1.2,0.8,2.4,1.2,3.6
		c0.9,3.2,0.2,5.1-2.6,7c-1.1,0.7-2.2,1.4-3.3,2.1c-1.3,0.8-1.9,1.9-2.1,3.4c-0.2,2.1-0.6,4.1-0.8,6.2c-0.1,1.6-1.1,2.5-2.4,3
		c-1.8,0.7-3.5,1.3-5.5,0.9C105.5,98.5,104.4,99.2,103.2,99.5z M112.5,91.6c0-0.7,0-1.4,0-2.1c0-3,1.1-5.4,3.8-6.8
		c0.7-0.4,1.3-0.8,2-1.2c2.8-1.7,3.1-2.5,2-5.6c-0.4-1.1-0.7-2.3-1.1-3.4c-0.6-1.9-0.2-3.7,1-5.3c0.9-1.2,1.9-2.4,2.8-3.6
		c1.2-1.7,1.2-2.6,0-4.3c-0.7-1.1-1.6-2.1-2.4-3.1c-1.6-1.9-2-4.1-1.3-6.4c0.4-1.3,0.9-2.6,1.2-3.9c0.6-2,0.3-2.8-1.4-4
		c-1.3-0.9-2.6-1.7-3.9-2.5c-1.6-1.1-2.5-2.6-2.7-4.5c-0.1-1.5-0.1-3-0.2-4.5c-0.1-2.1-0.8-3-2.9-3.5c-1.1-0.3-2.2-0.5-3.4-0.7
		c-2.7-0.5-4.6-2-5.6-4.6c-0.5-1.3-1-2.5-1.5-3.8c-0.6-1.5-1.8-2-3.3-1.8c-1,0.1-2.1,0.3-3.1,0.5c-3.1,0.6-5.8-0.1-7.8-2.7
		c-0.7-0.9-1.5-1.7-2.3-2.5c-1.1-1.2-2.4-1.4-3.8-0.6c-1.2,0.6-2.5,1.3-3.7,2c-2.2,1.2-4.4,1.2-6.6,0c-1.1-0.6-2.3-1.3-3.4-1.8
		c-1.9-1-2.8-0.8-4.3,0.7c-1,1-1.9,2.1-2.8,3.1c-1.5,1.7-3.4,2.3-5.6,2c-1.4-0.2-2.9-0.4-4.3-0.6c-1.8-0.2-2.7,0.3-3.5,1.9
		c-0.6,1.2-1,2.5-1.5,3.8c-0.9,2.4-2.7,3.9-5.2,4.4c-1.2,0.2-2.5,0.5-3.7,0.8c-2.1,0.5-2.7,1.3-2.8,3.5c-0.1,1-0.1,2.1-0.1,3.1
		c0,3-1.3,5.3-4,6.7c-1,0.5-1.9,1.1-2.8,1.7c-1.7,1.1-2,1.9-1.4,3.8c0.4,1.3,0.8,2.6,1.2,3.9c0.9,2.4,0.4,4.6-1.2,6.6
		c-0.8,1.1-1.7,2.1-2.5,3.2c-1,1.3-1,2.7,0,4c0.9,1.2,1.9,2.4,2.8,3.6c1.2,1.7,1.7,3.5,1.1,5.6c-0.4,1.3-0.9,2.7-1.3,4
		c-0.7,2.2-0.3,3.2,1.6,4.5c1.1,0.7,2.2,1.4,3.3,2.1c1.8,1.1,2.9,2.7,3,4.8c0.1,1.5,0.1,3,0.2,4.5c0.1,2.1,0.7,2.9,2.8,3.4
		c1.2,0.3,2.4,0.6,3.7,0.8c2.7,0.5,4.5,2.1,5.4,4.6c0.4,1.1,0.8,2.1,1.3,3.2c0.9,2,1.5,2.4,3.7,2.3c1.1-0.1,2.3-0.3,3.4-0.5
		c2.7-0.5,5,0.2,6.9,2.3c0.9,1,1.8,2,2.7,3c1.1,1.1,2.3,1.4,3.7,0.6c1-0.5,2-1,3-1.6c2.7-1.6,5.4-1.7,8.1,0c1,0.6,2.1,1.2,3.2,1.7
		c1.3,0.6,2.4,0.5,3.4-0.6c1-1.1,2-2.1,2.9-3.2c1.8-2.1,4.1-2.8,6.7-2.3c1.3,0.2,2.6,0.4,3.9,0.5c1.6,0.2,2.6-0.6,3.2-2
		c0.4-1.1,0.8-2.1,1.3-3.2c0.2-0.5,0.5-0.8,0.8-1.3c0.4-1.7,1.7-3,3.5-3.3c0.5-0.1,0.9-0.2,1.3-0.3c1.8-0.5,3.7-0.9,5.6-1.4
		c0.3-0.9,0.6-2,1-3c0.2,0,0.3,0,0.5,0.1c0.1,1,0.2,2,0.4,3c0.1,0,0.2,0,0.2,0c0-1,0-2,0-3.1C113.3,92.1,112.9,91.9,112.5,91.6z"/>
	<path class="st0" d="M108.3,61.5c-0.1,20.3-16.4,36.4-36.7,36.3c-20.1-0.1-36.3-16.6-36.1-36.7c0.2-20,16.6-36.2,36.6-36.1
		C92.2,25.2,108.4,41.5,108.3,61.5z M71.8,27.6C53,27.7,38,42.9,38.1,61.7C38.2,80.3,53.4,95.3,72,95.2c18.7-0.1,33.7-15.2,33.6-34
		C105.6,42.6,90.4,27.5,71.8,27.6z"/>
	<path class="st0" d="M68,63.1c3-4.1,5.9-8,8.9-11.9c1.4-1.9,2.8-3.8,4.2-5.6c1-1.3,1.4-1.3,2.7-0.4c2.2,1.6,4.3,3.2,6.5,4.8
		c1.3,0.9,1.3,1.4,0.4,2.7c-5.7,7.6-11.3,15.3-17,22.9c-2.3,3.1-6.3,3.5-9.1,0.8c-3.8-3.6-7.5-7.2-11.2-10.9
		c-1.1-1.1-1.1-1.6-0.1-2.6c1.9-2,3.9-4,5.9-6c1-1,1.5-1,2.5,0C63.7,58.9,65.7,60.9,68,63.1z M82.7,47.7c-0.6,0.7-1.1,1.4-1.5,2.1
		c-3.9,5.2-7.7,10.3-11.6,15.5c-1.1,1.4-1.6,1.5-2.9,0.3c-1.3-1.3-2.6-2.6-3.9-3.8c-0.8-0.8-1.6-1.5-2.2-2c-1.7,1.6-3.3,3-4.9,4.4
		c0.2,0.3,0.3,0.4,0.4,0.6c3.4,3.3,6.7,6.7,10.1,9.9c1.7,1.7,3.9,1.4,5.4-0.7c4.1-5.5,8.3-11.1,12.4-16.6c1.4-1.8,2.7-3.6,4.1-5.6
		C86.3,50.4,84.5,49.1,82.7,47.7z"/>
</g>
<path class="st1" d="M114,87.8c0,0,1,9.5-5.8,9.9c-6.8,0.4-5.6,2.8-7.6,7.2"/>
<path class="st1" d="M113.9,88.5c0,0,1.4,8.9-4.8,8.8c-6.8-0.1-6.3,2.7-8.3,7.1"/>
</svg>
