<?xml version="1.0" encoding="utf-8"?>
<!-- Generator: Adobe Illustrator 27.2.0, SVG Export Plug-In . SVG Version: 6.00 Build 0)  -->
<svg version="1.1" id="Layer_1" xmlns="http://www.w3.org/2000/svg" xmlns:xlink="http://www.w3.org/1999/xlink" x="0px" y="0px"
	 viewBox="0 0 360 360" style="enable-background:new 0 0 360 360;" xml:space="preserve">
<style type="text/css">
	.st0{fill:#919191;}
</style>
<g>
	<path class="st0" d="M223.5,168.4c0-23.4,0.1-46.9,0-70.3c0-4.5-0.3-9-1.1-13.4c-2.3-12.8-12.8-21.7-25.8-22.1
		c-13.6-0.5-24.9,8.1-28.3,21.6c-0.7,2.7-1.1,5.6-1.1,8.5c-0.1,48.6-0.1,97.2,0.1,145.8c0,5,1.5,10.3,3.5,14.9
		c2.5,6,8.4,8.9,13.7,8.1c5.5-0.9,11-6,12-11.9c0.9-5.5,1.5-11.2,1.5-16.8c0-37.6-0.1-75.2-0.3-112.8c0-3.2,1-5.8,4-7.2
		c4.4-1.9,8.9,1.2,9.4,6.6c0.2,2.7,0.2,5.4,0.2,8c0.1,34.8,0.2,69.7,0.1,104.5c0,6.3-0.3,12.7-1.3,18.8c-2.6,14.8-14.5,24.4-28.8,24
		c-13.7-0.4-25.4-11.6-27.3-26c-0.2-1.7-0.4-3.4-0.4-5.2c0-48.3,0-96.6,0.1-145c0-8.2-0.1-16.5,3.4-24.2c6.3-14.2,17-23.2,32.4-25.3
		c15-2,28.2,2.5,37.7,14.9c7.8,10.2,9.7,22.4,9.8,34.8c0.2,24.9,0,49.8,0.1,74.7c0.1,19,0.2,38,0.4,57c0.1,11.8,0,23.6-4.2,34.8
		c-8.4,22.7-30.8,36.9-55.5,35.2c-23.5-1.6-43-18.7-48.1-42.9c-1.4-6.4-2-13-2-19.5c-0.2-38-0.1-75.9-0.1-113.9
		c0-2.8,0.4-5.8,1.6-8.3c0.9-1.8,3.2-3.5,5.1-3.9c2.7-0.6,5.1,1.3,5.7,3.9c1,4.2,1.9,8.5,1.9,12.7c0,24.2-0.3,48.4-0.4,72.6
		c-0.1,15.3-0.1,30.6,0.2,45.9c0.3,15.9,7.2,28.1,21.8,34.9c15.2,7.1,30.5,6.5,44.2-3.7c10.1-7.5,14.4-18.6,15.2-30.9
		c0.5-8.7,0.2-17.4,0.2-26.2c0-17.6,0-35.3,0-52.9C223.3,168.4,223.4,168.4,223.5,168.4z"/>
</g>
</svg>
