<?xml version="1.0" encoding="utf-8"?>
<!-- Generator: Adobe Illustrator 27.2.0, SVG Export Plug-In . SVG Version: 6.00 Build 0)  -->
<svg version="1.1" id="Layer_1" xmlns="http://www.w3.org/2000/svg" xmlns:xlink="http://www.w3.org/1999/xlink" x="0px" y="0px"
	 viewBox="0 0 360 360" style="enable-background:new 0 0 360 360;" xml:space="preserve">
<style type="text/css">
	.st0{fill:#5E5E5E;}
</style>
<g>
	<path class="st0" d="M322.8,175.9c-0.9,1.7-1.8,3.4-2.7,5.2c-12.2,24.6-26.4,47.8-44.8,68.3c-15.2,16.9-33.4,28.6-55.7,33.4
		c-13.3,2.8-26.3,2.5-38.4-4.5c-3.8-2.2-7.1-5.3-10.6-8c-0.9-0.7-1.6-1.6-2.3-2.4c-2.6,2.9-4.8,5.8-7.6,8.2
		c-9.7,8.5-21.1,10.1-33.4,7.9c-19.3-3.5-34.2-14.1-46.5-28.9c-13-15.6-23.4-32.8-31.8-51.2c-0.1-0.2-0.2-0.5-0.4-1.3
		c10.1-1.5,20.1-3,30.4-4.5c-12-40.3-4.5-76.5,25-107.1c18-18.6,40.7-28.6,66.5-30.1c30.6-1.8,57.2,8.3,79,29.8
		c21.7,21.5,31.6,48.1,30.7,78.1c14.5,2.3,28.6,4.5,42.8,6.7C322.8,175.6,322.8,175.7,322.8,175.9z M177.1,259.7
		c0.2,0.4,0.2,0.5,0.3,0.7c0.3,0.4,0.6,0.7,0.9,1c9.1,9.6,20.5,12.4,33,10.7c20-2.8,37-11.9,51.1-26.4
		c17.3-17.9,30.5-38.6,42.2-60.4c0.2-0.3,0.2-0.8,0.3-1.2c-22.3-3.1-44.6-4.8-66.9-2.8c-18.1,1.6-34.8,6.7-49.5,17.7
		c-9.2,7-17.1,15-20.2,26.5c-2.5,9.1-1,17.8,3.3,26.3c27.7-14.1,55.1-28.1,82.5-42.1c0.1,0.1,0.2,0.3,0.2,0.4
		C228.7,226.7,203,243.2,177.1,259.7z M65.9,211.6c2.4,4.2,4.5,8,6.7,11.6c7.7,12.7,16.2,24.9,27.5,34.8
		c10.9,9.6,23.7,15.2,38.5,14.9c6.4-0.1,11.8-2.8,16.2-7.8c-17.1-11.8-34.1-23.5-51.1-35.2c0.1-0.2,0.2-0.3,0.3-0.5
		c18.5,8.7,37.1,17.4,55.9,26.2c-0.1-0.8,0-1.1-0.1-1.3c-3.2-7.4-4.8-15.1-4.3-23.2c0-0.9-0.7-2-1.3-2.7c-8.3-8.3-18-14-29.5-16.5
		c-14.7-3.2-29.6-3.1-44.5-1.8C75.5,210.4,70.9,211,65.9,211.6z M129.6,157.9c14,0,27.4,0,41,0c0-13.6,0-27,0-40.6
		c-11.7,0.3-23.1,2-34.2,4.9c-0.7,0.2-1.4,1.3-1.6,2.1c-1,4-2,8-2.5,12C131.2,143.3,130.4,150.5,129.6,157.9z M223.4,157.9
		c-0.4-11.8-2-23-4.8-34.1c-0.2-0.8-1.3-1.6-2.2-1.9c-4.1-1-8.2-2-12.3-2.6c-7-1-14.1-1.7-21.3-2.5c0,14,0,27.5,0,41
		C196.4,157.9,209.7,157.9,223.4,157.9z M129.9,170c0.4,10.7,1.7,21.1,4.2,31.4c0.1,0.4,0.5,1,1,1.1c7,2.5,13.3,7.1,21.1,7.1
		c1.3,0,2.7,0.4,4,0.3c1-0.1,2.2-0.5,2.8-1.3c2.2-2.7,4.4-5.4,6.3-8.3c0.8-1.1,1.4-2.5,1.4-3.8c0.1-5.7,0.1-11.4,0.1-17.1
		c0-3.1,0-6.2,0-9.4C157,170,143.5,170,129.9,170z M260.9,128.7c-4-17.1-35.5-48.4-49.8-48.9c7.5,9.5,12.5,20.3,16.3,31.5
		c0.3,0.8,1.3,1.6,2.2,2c3.4,1.4,7.1,2.4,10.4,4.1C247.1,121,254,125,260.9,128.7z M92.4,129.2c9.8-7.2,20.6-12.2,32-16.1
		c0.9-0.3,1.7-1.8,2-2.8c3.6-10.7,8.5-20.8,15.4-29.8c0.2-0.2,0.2-0.5,0.6-1.4C118.6,89.3,102.1,105.8,92.4,129.2z M121.3,127
		c-0.1,0-0.3,0-0.4,0.1c-1.6,0.7-3.3,1.3-4.9,2.1c-9.7,4.5-18.7,10.1-25.2,18.9c-2.1,2.9-4,6-4.6,9.7c10.7,0,21.2,0,31.4,0
		C118.9,147.5,120.1,137.3,121.3,127z M235.7,157.8c10.5,0,20.9,0,31.4,0c-2.8-13.4-21.4-26.3-35.1-30.5
		C233.3,137.3,234.5,147.5,235.7,157.8z M170.5,104.9c0-10.4,0-20.8,0-31.3c-12.4,2.2-25.2,19.2-30.7,35
		C149.9,107.3,160.1,106.1,170.5,104.9z M213.9,108.6c-1.9-3.9-3.7-7.9-5.7-11.7c-3.9-7.3-8.8-13.8-15.6-18.8
		c-2.9-2.1-6-4.1-9.8-4.6c0,10.7,0,21.2,0,31.4C193.2,106.1,203.4,107.3,213.9,108.6z M86.3,170c1.3,11.6,23.8,30.1,34.6,28.7
		c-1.1-9.5-2.1-19-3.2-28.7C107.3,170,96.8,170,86.3,170z M182.7,188c6.8-3.6,13.2-7.5,20-10.4c6.7-2.8,13.8-4.5,20.8-6.8
		c-0.1-0.2-0.1-0.5-0.2-0.7c-13.5,0-27.1,0-40.6,0C182.7,176.2,182.7,182.1,182.7,188z"/>
</g>
</svg>
