<?xml version="1.0" encoding="utf-8"?>
<!-- Generator: Adobe Illustrator 27.2.0, SVG Export Plug-In . SVG Version: 6.00 Build 0)  -->
<svg version="1.1" id="Layer_1" xmlns="http://www.w3.org/2000/svg" xmlns:xlink="http://www.w3.org/1999/xlink" x="0px" y="0px"
	 viewBox="0 0 360 360" style="enable-background:new 0 0 360 360;" xml:space="preserve">
<style type="text/css">
	.st0{fill:#3A3A3A;}
</style>
<g>
	<path class="st0" d="M185.7,339.8c-87.8,1-160.4-69.9-162.4-157.8c-2-89.6,69.4-163.3,157.8-165.4c90.1-2.1,163.8,70.5,165.4,158.9
		C348,264.6,275.6,340,185.7,339.8z M326.6,178.3C326.4,96,259.4,34.4,182.5,35.6C107.4,36.8,43.1,98.7,43,178.3
		c-0.1,79.4,64.1,143.2,143.6,142.6C261.1,320.3,326.5,259.5,326.6,178.3z"/>
	<path class="st0" d="M203,235c0,17.9-0.1,35.7,0.1,53.6c0,2.9-0.8,3.6-3.7,3.6c-14.9-0.2-29.7-0.3-44.6-0.1c-3,0-3.8-0.7-3.8-3.8
		c0.1-35.5,0.1-71,0.1-106.5c0-4,0-4.1-4.1-4.1c-6,0-12-0.1-18,0c-2.3,0.1-2.9-0.7-2.9-3c0.1-10.8,0.1-21.7,0-32.5
		c0-2.7,1.1-3.3,3.5-3.3c5.2,0.1,10.4,0.1,15.6,0.1c6,0,6-0.1,6.1-5.9c0.1-10.9-0.3-21.9,0.5-32.8c1.5-18.6,15.9-33.4,34.6-35.3
		c12.6-1.3,25.3-1.1,38-1.5c5-0.2,9.9-0.1,14.9-0.3c2.4-0.1,3.5,0.4,3.4,3.2c-0.2,11.3-0.1,22.6,0,33.9c0,2.3-0.7,3-2.9,3
		c-6.5-0.1-12.9,0-19.4,0c-1.6,0-3.2,0-4.8,0.1c-8.2,0.6-12.1,4.6-12.2,12.8c-0.1,6.6,0.1,13.1,0,19.7c0,2.5,1.1,3.1,3.3,3
		c11-0.1,21.9,0,32.9-0.1c2.5,0,3.7,0.3,3.3,3.4c-1.6,11-2.9,21.9-4.2,32.9c-0.2,2.1-1.1,2.6-3.1,2.6c-9.7-0.1-19.4,0.1-29.1-0.1
		c-2.8-0.1-3.4,0.9-3.4,3.5C203,199,203,217,203,235z"/>
</g>
</svg>
