<?xml version="1.0" encoding="utf-8"?>
<!-- Generator: Adobe Illustrator 27.2.0, SVG Export Plug-In . SVG Version: 6.00 Build 0)  -->
<svg version="1.1" id="Layer_1" xmlns="http://www.w3.org/2000/svg" xmlns:xlink="http://www.w3.org/1999/xlink" x="0px" y="0px"
	 viewBox="0 0 360 360" style="enable-background:new 0 0 360 360;" xml:space="preserve">
<style type="text/css">
	.st0{fill:#5E5E5E;}
</style>
<g>
	<path class="st0" d="M287.2,204c0,26.9,0,53.7,0,80.6c0,9.9-5.4,15.3-15.3,15.3c-30.5,0-60.9,0-91.4,0c-9.6,0-15.1-5.5-15.1-15.2
		c0-53.9,0-107.8,0-161.7c0-8.1,4.1-12.2,12.1-12.2c32.5,0,65,0,97.5,0c8.2,0,12.2,4,12.2,12.3C287.2,150.1,287.2,177.1,287.2,204z
		 M175,204.1c0.8,0.1,1.6,0.2,2.3,0.2c33.6,0,67.2,0,100.8,0c1.9,0,2.6-0.5,2.6-2.5c-0.1-15.4-0.1-30.9,0-46.3c0-2-0.7-2.5-2.6-2.5
		c-33.6,0-67.2,0-100.8,0c-2,0-2.5,0.6-2.5,2.5c0.1,15.5,0,31.1,0,46.6C174.9,202.7,175,203.3,175,204.1z M279.9,141.1
		c0-5.4,0-10.7,0-16c-15.1,0-30,0-44.8,0c0,5.4,0,10.7,0,16C250.2,141.1,265,141.1,279.9,141.1z M260.9,262.9c0,5.4,0,10.7,0,16.1
		c0,3.3,1.6,4.9,4.8,5c2.5,0.1,5.1,0.1,7.6,0c3-0.1,4.6-1.6,4.6-4.6c0.1-11,0.1-21.9,0-32.9c0-2.9-1.7-4.4-4.7-4.5
		c-2.3-0.1-4.6,0-6.8,0c-3.9,0-5.4,1.5-5.5,5.4C260.8,252.5,260.9,257.7,260.9,262.9z M185.6,266.2c-2.4,0-4.7,0-7.1,0
		c-2.6,0.1-3.7,1.1-3.7,3.7c-0.1,3.4,0,6.8,0,10.3c0,2.4,1.2,3.7,3.5,3.7c4.9,0.1,9.8,0.1,14.7,0c2.3,0,3.6-1.2,3.6-3.6
		c0-3.5,0-7,0-10.5c0-2.4-1.3-3.5-3.6-3.6C190.5,266.2,188.1,266.2,185.6,266.2z M215,266.2c-2.5,0-5.1,0-7.6,0
		c-2.2,0-3.5,1.1-3.5,3.4c-0.1,3.7,0,7.4,0,11.1c0,2.2,1.3,3.2,3.4,3.3c5,0.1,10,0.1,15,0c2.2,0,3.4-1.2,3.4-3.5c0-3.5,0.1-7,0-10.5
		c0-2.5-1.2-3.6-3.8-3.7C219.5,266.2,217.2,266.2,215,266.2z M243.6,284c2.4,0,4.7,0.1,7.1,0c2.8-0.1,3.8-1.1,3.8-3.9
		c0-3.3,0-6.7,0-10c0-2.7-1.1-3.8-3.9-3.8c-4.7,0-9.5-0.1-14.2,0c-2.6,0-3.7,1.1-3.7,3.7c-0.1,3.4,0,6.8,0,10.3
		c0,2.5,1.3,3.7,3.8,3.7C238.9,284,241.2,284,243.6,284z M243.9,241.9c-2.5,0-5.1,0-7.6,0c-2.2,0-3.5,1.2-3.5,3.4
		c-0.1,3.6,0,7.2,0,10.8c0,2.2,1.2,3.4,3.4,3.4c5,0,10,0.1,15,0c2.2,0,3.4-1.2,3.4-3.5c0-3.5,0-7,0-10.5c0-2.4-1.2-3.6-3.6-3.6
		C248.6,241.9,246.2,241.9,243.9,241.9z M185.6,235.2c2.5,0,4.9,0,7.4,0c2.3,0,3.6-1.2,3.6-3.5c0-3.5,0-7,0-10.5
		c0-2.4-1.3-3.5-3.6-3.5c-4.9,0-9.8,0-14.7,0c-2.2,0-3.4,1.2-3.5,3.4c0,3.6,0,7.2,0,10.8c0,2.2,1.2,3.4,3.5,3.4
		C180.7,235.2,183.2,235.2,185.6,235.2z M214.6,235.2c2.5,0,4.9,0,7.4,0c2.3,0,3.6-1.2,3.6-3.6c0-3.5,0-7,0-10.5
		c0-2.2-1.1-3.5-3.4-3.5c-5,0-10,0-15,0c-2.2,0-3.4,1.2-3.4,3.4c0,3.6,0,7.2,0,10.8c0,2.2,1.3,3.4,3.5,3.4
		C209.7,235.2,212.2,235.2,214.6,235.2z M243.5,235.2c2.5,0,4.9,0,7.4,0c2.3,0,3.6-1.1,3.6-3.5c0-3.5,0-7,0-10.5
		c0-2.4-1.2-3.6-3.6-3.6c-4.9,0-9.8,0-14.7,0c-2.2,0-3.5,1.1-3.5,3.4c0,3.6,0,7.2,0,10.8c0,2.2,1.2,3.4,3.4,3.4
		C238.6,235.2,241.1,235.2,243.5,235.2z M185.5,259.6c2.5,0,5.1,0,7.6,0c2.2-0.1,3.5-1.1,3.5-3.4c0-3.6,0-7.2,0-10.8
		c0-2.2-1.2-3.4-3.4-3.4c-4.9,0-9.8,0-14.7,0c-2.4,0-3.6,1.2-3.6,3.5c0,3.5,0,7,0,10.5c0,2.4,1.3,3.5,3.6,3.6
		C180.8,259.6,183.1,259.6,185.5,259.6z M214.6,259.6c2.4,0,4.7,0.1,7.1,0c2.8-0.1,3.8-1.1,3.8-3.8c0-3.3,0-6.7,0-10
		c0-2.7-1.1-3.8-3.9-3.8c-4.7,0-9.5,0-14.2,0c-2.6,0-3.7,1.1-3.7,3.7c-0.1,3.4,0,6.8,0,10.3c0,2.5,1.3,3.7,3.8,3.7
		C209.9,259.6,212.3,259.6,214.6,259.6z M269.3,235.2c1.8,0,3.7,0,5.5,0c1.9,0,3-1,3-2.9c0.1-3.9,0.1-7.9,0-11.8
		c0-1.9-1.1-2.9-3-2.9c-3.7,0-7.4,0-11,0c-1.9,0-2.9,1.1-2.9,3c-0.1,3.9-0.1,7.7,0,11.6c0,2,1.2,3,3.2,3
		C265.8,235.2,267.6,235.2,269.3,235.2z"/>
	<path class="st0" d="M209.4,101c-1.1,0.1-1.9,0.1-2.7,0.1c-9.3,0-18.6,0.1-27.9-0.1c-1.3,0-2.8-0.5-3.8-1.2
		c-36.4-25.1-86.3-4-93.7,39.5c-5.8,34.3,19.5,66.9,54.1,69.4c6.6,0.5,13.2-0.4,20-0.6c0,7.3,0,15.4,0,23.4
		c-27.3,6.7-71.7-5-91.5-47.4C45,143.5,62.2,94.1,102.2,74C142.7,53.7,188.2,69.3,209.4,101z"/>
	<path class="st0" d="M135.4,181.2c-4.8-1.6-9.4-2.9-13.9-4.6c-3.9-1.5-4.6-5.8-1.8-8.2c1.7-1.5,3.6-1.4,5.7-0.6
		c2.5,0.9,5.2,1.7,7.8,2.5c0.7,0.2,1.5,0.2,3,0.3c0-5.5,0-10.8-0.1-16.1c0-0.5-0.9-1.2-1.5-1.5c-2-0.9-4.1-1.6-6.1-2.5
		c-13.5-6.6-10.3-22.6-2.2-27.9c2.4-1.6,5.3-2.9,8.1-3.6c2.1-0.5,2.7-1.4,2.5-3.3c-0.1-0.7,0-1.4,0-2.1c0.4-3.4,2.8-5.5,6-5.4
		c3,0.1,5.3,2.4,5.4,5.7c0.1,1.4,0,2.8,0,4.4c1.9,0.4,3.8,0.7,5.6,1.2c0.6,0.2,1.1,0.8,1.5,1.4c0.2,0.3,0,0.9,0,1.3
		c0,2.4,0,4.9,0,7.5c-2.6-0.5-4.8-1-7.8-1.6c0,5.9,0,11.4,0.1,16.9c0,0.6,0.9,1.4,1.6,1.6c6.1,2.3,6.1,2.3,6.1,8.6
		c0,6.9-0.1,13.9,0,20.8c0,2-0.6,3.1-2.6,3.6s-3.9,1-5.9,1.6c-1.1,6.5-2.7,8.7-6.2,8.7C137.5,189.6,135.8,187.1,135.4,181.2z
		 M147.5,157.1c0,4.5,0,8.9,0,13.2c4.1-0.3,6.9-2.8,7.3-6.5C155.1,160.6,153,158.6,147.5,157.1z M136.5,128.8c-4.4,1-6.7,3.4-6.7,7
		c0,3.3,2.1,5.3,6.7,6.3C136.5,137.7,136.5,133.4,136.5,128.8z"/>
</g>
</svg>
