<?xml version="1.0" encoding="utf-8"?>
<!-- Generator: Adobe Illustrator 27.2.0, SVG Export Plug-In . SVG Version: 6.00 Build 0)  -->
<svg version="1.1" id="Layer_1" xmlns="http://www.w3.org/2000/svg" xmlns:xlink="http://www.w3.org/1999/xlink" x="0px" y="0px"
	 viewBox="0 0 360 360" style="enable-background:new 0 0 360 360;" xml:space="preserve">
<style type="text/css">
	.st0{fill:#5E5E5E;}
</style>
<g>
	<path class="st0" d="M340.9,226.5c-1.6,2.3-3.8,2.7-6.5,2.7c-6.8-0.1-13.6,0-19.8,0c-1.9,4.8-3,9.6-5.4,13.5
		c-6.8,11.3-17.1,16.6-30.3,15.1c-13.5-1.6-22.2-9.5-26.5-22.4c-0.1-0.2-0.1-0.4-0.2-0.6c-1.4-5.7-1.4-5.7-7.1-5.7
		c-45.5,0-90.9,0-136.4,0c-1.3,0-2.6,0-4.1,0c-0.9,7.5-3.5,14.1-8.8,19.3c-8.4,8.4-18.5,11.6-30,8.6C53.6,253.9,46,245.8,43,233.5
		c-1-4.3-0.9-4.3-5.5-4.3c-2.9,0-5.8,0.1-8.7,0c-3.6-0.1-5.5-2.1-5.5-5.7c-0.1-8.3-0.1-16.5,0-24.8c0-4,2.1-6.1,6.3-5.9
		c3.5,0.2,4.2-1.6,5-4.3c4.2-15.2,14.4-23.4,30.2-24.1c6-0.3,12-0.5,18,0c5.4,0.5,8.9-1.5,12.3-5.5c11.5-13.4,23.4-26.5,35.1-39.7
		c1.9-2.2,4.1-3.1,7-3.1c10.8,0.1,21.7,0.1,32.6,0.1c1.1,0,2.2,0,3.3,0c1.2-6,2.6-7.9,5.5-7.8c2.9,0,4.2,1.9,5.3,7.9
		c1.6,0,3.4-0.1,5.1,0c2.7,0.2,4.2,1.6,4.3,4.3c0.1,1,0,2.1,0,3.1c0,22.8,0,45.7,0,68.5c0,1.2,0,2.4,0,3.8c3.2,0,6.1,0,9.3,0
		c0-9.1,0-18.1,0-27.6c2.9,0,5.5-0.1,8,0c2.3,0.2,4-0.6,5.7-2.3c22.2-22.3,44.4-44.5,66.6-66.7c2.5-2.5,5.2-4.1,8.8-3.6
		c6.1,0.9,9.2,8,5.9,13.1c-0.8,1.3-2,2.4-3.1,3.5c-21.7,21.7-43.4,43.4-65.1,65.1c-1.6,1.6-2.3,3.1-2.2,5.4
		c0.2,4.2,0.1,8.5,0.1,12.9c21.9,0,43.7,0,65.5,0c0.9-4-1.7-10.3,5.3-10.2c6.6,0.1,4.3,6.2,5.2,10.4c3,0,6-0.2,8.9,0.1
		c1.5,0.1,3.4,0.7,4.4,1.7c8.2,8.5,16.2,17.1,24.3,25.6C340.9,224.4,340.9,225.4,340.9,226.5z M173.8,131.6c-8.1,0-16-0.1-23.8,0.1
		c-1.5,0-3.4,0.9-4.4,2c-7.3,8.3-14.4,16.7-21.6,25.1c-0.6,0.7-1.1,1.4-1.7,2.3c17.4,0,34.4,0,51.5,0
		C173.8,151.2,173.8,141.7,173.8,131.6z M298.1,227c0.1-8.7-7-15.9-15.6-15.8c-8.5,0-15.5,7-15.6,15.6c-0.1,8.7,7,15.9,15.6,15.8
		C291.1,242.6,298.1,235.6,298.1,227z M89.1,226.7c-0.1-8.5-7.1-15.5-15.6-15.6c-8.6,0-15.8,7.2-15.7,15.8s7.1,15.6,15.6,15.6
		C82.1,242.6,89.2,235.4,89.1,226.7z"/>
</g>
</svg>
