<?xml version="1.0" encoding="utf-8"?>
<!-- Generator: Adobe Illustrator 27.1.1, SVG Export Plug-In . SVG Version: 6.00 Build 0)  -->
<svg version="1.1" id="Layer_1" xmlns="http://www.w3.org/2000/svg" xmlns:xlink="http://www.w3.org/1999/xlink" x="0px" y="0px"
	 viewBox="0 0 363.11 220.55" style="enable-background:new 0 0 363.11 220.55;" xml:space="preserve">
<style type="text/css">
	.st0{enable-background:new    ;}
	.st1{fill:#FFFFFF;}
	.st2{font-family:'Humanist521BT-Bold';}
	.st3{font-size:24.7627px;}
</style>
<g class="st0">
	<path class="st1" d="M48.15,124.36c-2.95,0-5.23-1.04-6.85-3.12c-1.62-2.05-2.06-4.48-1.32-7.28l5.03-18.8
		c0.74-2.75,2.47-5.19,5.19-7.32c2.79-2.05,5.62-3.08,8.5-3.08h35.52l-1.72,6.57H66.77c-0.99,0-2,0.38-3.04,1.15
		c-1.01,0.79-1.65,1.68-1.92,2.68l-5.03,18.8c-0.25,0.99-0.08,1.86,0.51,2.61c0.58,0.79,1.38,1.19,2.4,1.19h8.91l3.78-14.12h16.8
		l-5.53,20.73H48.15z"/>
	<path class="st1" d="M119.72,113.96c0.27-0.97,0.1-1.84-0.51-2.61c-0.56-0.77-1.36-1.15-2.4-1.15h-8.91l-3.81,14.16h-16.8
		L97.9,84.77h34.54c2.92,0,5.17,1.03,6.75,3.08c1.66,2.1,2.13,4.54,1.38,7.32l-0.91,3.25c-0.85,3.27-3.01,6.01-6.48,8.2
		c3.01,2.08,4,5.01,2.97,8.81l-2.43,8.94h-16.77L119.72,113.96z M123.81,95.17c0.27-1.04,0.1-1.93-0.51-2.68
		c-0.61-0.77-1.41-1.15-2.4-1.15h-7.96l-3.31,12.29h7.93c0.99,0,2.01-0.4,3.07-1.19c0.97-0.77,1.61-1.65,1.92-2.64L123.81,95.17z"/>
</g>
<g class="st0">
	<path class="st1" d="M170.3,107.87h-12.85l-4.42,16.49h-16.8l7.79-29.2c0.74-2.75,2.47-5.19,5.19-7.32
		c2.79-2.05,5.62-3.08,8.5-3.08h35.52l-10.59,39.59h-16.8L170.3,107.87z M165.78,91.34c-0.99,0-2,0.38-3.04,1.15
		c-1.01,0.79-1.65,1.68-1.92,2.68l-1.65,6.03h12.85l2.7-9.86H165.78z"/>
</g>
<g class="st0">
	<path class="st1" d="M242.23,124.36c-2.95,0-5.23-1.04-6.85-3.12c-1.62-2.05-2.06-4.48-1.32-7.28l5.03-18.8
		c0.74-2.75,2.47-5.19,5.19-7.32c2.79-2.05,5.62-3.08,8.5-3.08h30.53l-1.72,6.57h-20.75c-0.99,0-2,0.38-3.04,1.15
		c-1.01,0.79-1.65,1.68-1.92,2.68l-1.65,6.03h19.77l-1.75,6.67h-19.73l-1.65,6.1c-0.25,0.99-0.08,1.86,0.51,2.61
		c0.58,0.79,1.38,1.19,2.39,1.19h20.71l-1.72,6.6H242.23z"/>
	<path class="st1" d="M286.58,124.36c-2.95,0-5.23-1.04-6.85-3.12c-1.57-2.19-2.01-4.62-1.32-7.28l7.83-29.2h16.8l-7.83,29.2
		c-0.25,0.99-0.08,1.86,0.51,2.61c0.58,0.79,1.38,1.19,2.4,1.19h20.71l-1.72,6.6H286.58z"/>
</g>
<g>
	<path class="st1" d="M186.62,124.15l10.51-39.12h16.67l-8.8,32.6l1.21,0.01c0.96,0,2.07-1.99,2.89-3.01
		c1.29-2.02,8-13.09,8.56-14.11l8.86-15.48h16.67l-14.44,25c-1.94,3.04-3.97,6.28-6.62,9.78c-2.06,2.72-4.7,4.22-7.23,4.35h-28.28
		V124.15z"/>
</g>
<path class="st1" d="M301.15,91.94l3.58-13.31c0,0-31.21-19.35-111.51-18.97C112.93,60.03,52.35,80.41,52.35,80.41
	s-2.54,2.75,2.59,1.58s71.03-14.59,142.44-12.43C268.8,71.71,301.15,91.94,301.15,91.94z"/>
<g>
	<text transform="matrix(1 0 0 1 101.295 158.2891)" class="st1 st2 st3">A</text>
	<text transform="matrix(1 0 0 1 118.9751 158.2891)" class="st1 st2 st3">UT</text>
	<text transform="matrix(1 0 0 1 153.6151 158.2891)" class="st1 st2 st3">O P</text>
	<text transform="matrix(1 0 0 1 195.9851 158.2891)" class="st1 st2 st3">AR</text>
	<text transform="matrix(1 0 0 1 228.7251 158.2891)" class="st1 st2 st3">TS</text>
</g>
</svg>
