<?xml version="1.0" encoding="UTF-8"?>
<svg xmlns="http://www.w3.org/2000/svg" version="1.1" viewBox="0 0 576 576">
  <defs>
    <style>
      .cls-1 {
        fill: #0b54a2;
      }
    </style>
  </defs>
  <!-- Generator: Adobe Illustrator 28.6.0, SVG Export Plug-In . SVG Version: 1.2.0 Build 709)  -->
  <g>
    <g id="Layer_1">
      <g>
        <path class="cls-1" d="M77.4,308.9c2.3-7.3,3.7-15.1,7.1-21.8,14.6-29.1,38.9-44.4,71.2-46.1,18.2-1,36.5-.2,54.8-.2.5,0,1.1.1,2.1.3-.2,20.5,8.7,37.2,23.2,51.5-50.2,19.6-70.6,57.2-67.3,109.6-10.8-1.2-21-1.7-31.1-3.6-18.5-3.4-36.8-7.7-55.1-11.7-1.8-.4-3.3-2.1-4.9-3.2,0-24.9,0-49.8,0-74.7Z"/>
        <path class="cls-1" d="M181.5,446.2c.9-26,.6-51.8,3.2-77.3,2.8-27.2,19.2-45.7,43.5-57.5,11.6-5.6,24-8.2,36.9-8.2,15.2,0,30.3.1,45.5,0,27.2-.2,49,11.1,66,31.7,10.5,12.6,15.1,28,15.1,44.1,0,22-1.5,44-2.2,66.1,0,2.8-1.9,3.4-4,4.3-35.1,14.1-71.8,16.1-108.9,14.9-22.7-.7-44.7-5.6-66.7-11-9.4-2.3-18.8-4.7-28.3-7.1Z"/>
        <path class="cls-1" d="M404.9,399.2c0-6.6,0-12.8,0-19-.1-22.5-7.5-42.5-22-59.6-9.3-10.9-21.5-18-34.4-23.8-2.7-1.2-5.2-2.7-7.9-4.2,17.4-18.8,19.5-23.5,23-51.3.2-.1.4-.4.7-.4,19.1.1,38.2-.4,57.2.6,25.7,1.3,44.7,14.6,58.3,36,9.2,14.4,13.7,30.1,13.5,47.2-.2,16.1-.1,32.2,0,48.3,0,3.3-1,5-4.1,6.4-22.7,10.7-46.8,15.5-71.6,18-4.1.4-8.2,1.1-12.8,1.7Z"/>
        <path class="cls-1" d="M347.9,240.7c.6,32.3-26,59.5-58.9,59.9-35.8.5-61.8-30-63.3-63-1.4-31.5,27.2-58.6,61.4-59.1,30.8-.5,61.3,24.8,60.8,62.2Z"/>
        <path class="cls-1" d="M181.1,118.5c32.6.2,60.1,27.3,60,59.7,0,1.5-1,3.4-2.1,4.3-14.7,11.3-22.7,26.5-25.8,44.5-.5,2.8-1.6,4.4-4,5.4-44.2,19.5-87.2-12.3-90.2-50.8-1.9-25.5,15.7-51.1,41.4-59.5,3.1-1,6.2-1.9,9.4-2.4,3.7-.6,7.5-.9,11.3-1.3Z"/>
        <path class="cls-1" d="M388.7,116.1c30.9-.4,57,23.8,60.3,54.6,4,36.7-21.8,61.1-47.5,66.3-12.5,2.5-24.5,1-36.2-3.6-1.3-.5-2.2-3.3-2.5-5.2-2.1-13.1-6.3-25.4-15.1-35.4-5-5.7-11.2-10.5-17.4-15-2.8-2-3.5-3.7-3.2-6.9,3.7-31.8,29.1-54.5,61.6-54.9Z"/>
      </g>
    </g>
  </g>
</svg>