<?xml version="1.0" encoding="utf-8"?>
<!-- Generator: Adobe Illustrator 26.3.1, SVG Export Plug-In . SVG Version: 6.00 Build 0)  -->
<svg version="1.1" xmlns="http://www.w3.org/2000/svg" xmlns:xlink="http://www.w3.org/1999/xlink" x="0px" y="0px"
	 viewBox="0 0 1247.8 1167.7" style="enable-background:new 0 0 1247.8 1167.7;" xml:space="preserve">
<style type="text/css">
	.st0{display:none;}
	.st1{fill:#221A14;}
	.st2{fill:#1A1618;}
	.st3{fill:#221D22;}
	.st4{fill:#504A4E;}
	.st5{fill:#D9D5DB;}
	.st6{fill:#43414A;}
	.st7{fill:#202023;}
	.st8{fill:#3A393C;}
	.st9{fill:none;stroke:#515152;stroke-miterlimit:10;}
	.st10{fill:#17171A;}
	.st11{fill:#1F1F20;}
	.st12{fill:#000003;}
	.st13{fill:#999A9E;}
	.st14{fill:#90909C;}
	.st15{fill:#06080B;}
	.st16{fill:#46474B;}
	.st17{fill:#3C3D43;}
	.st18{fill:#313237;}
	.st19{fill:#888891;}
	.st20{fill:#1D1D26;}
	.st21{fill:#55575E;}
	.st22{fill:#595A64;}
	.st23{fill:#2D2E38;}
	.st24{fill:#9697A2;}
	.st25{fill:#555662;}
	.st26{fill:#FCFEFF;}
	.st27{fill:#9C9FA9;}
	.st28{fill:#151518;}
	.st29{fill:#0D0C11;}
	.st30{fill:#24242E;}
	.st31{fill:#6E6E75;}
	.st32{fill:#8B8C98;}
	.st33{fill:#101019;}
	.st34{fill:#3A3B3F;}
	.st35{fill:#5D5962;}
	.st36{fill:#5C473E;}
	.st37{fill:none;stroke:#78767B;stroke-miterlimit:10;}
	.st38{fill:#454043;}
	.st39{fill:#90919E;}
	.st40{fill:#6C6D79;}
	.st41{fill:#FFFFFF;}
	.st42{fill:#38383B;}
	.st43{fill:#898995;}
	.st44{fill:#62656F;}
	.st45{fill:#342E33;}
	.st46{fill:#83838C;}
	.st47{fill:#463C41;}
	.st48{fill:#271F23;}
	.st49{fill:#4D4D51;}
	.st50{fill:#636468;}
	.st51{fill:#3A3639;}
	.st52{fill:#555560;}
	.st53{fill:#AAA7AD;}
	.st54{fill:#320C0F;}
	.st55{fill:#0B4D89;}
	.st56{fill:#981C13;}
	.st57{fill:#282A32;}
	.st58{fill:#0A54A2;}
	.st59{fill:none;stroke:#0B4982;stroke-width:2;stroke-miterlimit:10;}
	.st60{fill:none;stroke:#43414A;stroke-miterlimit:10;}
	.st61{fill:#74757C;}
	.st62{fill:#212023;}
	.st63{fill:#28282C;}
	.st64{fill:#9697A1;}
	.st65{fill:#30313A;}
	.st66{fill:#20222B;}
	.st67{fill:#1F1F29;}
	.st68{fill:#000006;}
	.st69{fill:#272932;}
	.st70{fill:#646573;}
	.st71{fill:#1F2025;}
	.st72{fill:#151515;}
	.st73{fill:#211F22;}
	.st74{fill:#1F2329;}
	.st75{fill:#191A1E;}
	.st76{fill:#0D0E12;}
	.st77{fill:#0E60AA;}
	.st78{fill:#1B77BC;}
	.st79{fill:#226FD1;}
	.st80{fill:#157FCE;}
	.st81{fill:#898989;}
	.st82{fill:#AAA9A9;}
	.st83{fill:#100504;}
	.st84{fill:#050304;}
	.st85{fill:#1B0C04;}
	.st86{fill:#240E04;}
	.st87{fill:#414349;}
	.st88{fill:#1F2026;}
	.st89{fill:#383840;}
	.st90{fill:#848484;}
	.st91{fill:#38393F;}
	.st92{fill:#14151A;}
	.st93{fill:#15161C;}
	.st94{fill:#2F3137;}
	.st95{fill:#C9C9D0;}
	.st96{fill:#0F141A;}
	.st97{fill:#24262C;}
	.st98{fill:#24242A;}
	.st99{fill:#1B1C22;}
	.st100{fill:#141519;}
	.st101{fill:#111417;}
	.st102{fill:none;stroke:#848484;stroke-miterlimit:10;}
	.st103{fill:#30292D;}
	.st104{fill:#635D5F;}
	.st105{fill:#0A4D89;}
	.st106{fill:#020503;}
	.st107{fill:#010205;}
	.st108{fill:#2685EB;}
	.st109{fill:#000204;}
	.st110{fill:#1573BA;}
	.st111{fill:none;stroke:#050304;stroke-miterlimit:10;}
	.st112{fill:#0F63AD;}
	.st113{fill:none;stroke:#5686D1;stroke-miterlimit:10;}
	.st114{fill:none;stroke:#67CCFF;stroke-miterlimit:10;}
	.st115{fill:#21A9F2;stroke:#197DDA;stroke-width:0.5;stroke-miterlimit:10;}
	.st116{fill:#9E9E9E;stroke:#0A55A3;stroke-miterlimit:10;}
	.st117{fill:#D5D3D7;stroke:#197DDA;stroke-width:0.5;stroke-miterlimit:10;}
	.st118{fill:#36333D;}
	.st119{fill:none;stroke:#0A54A2;stroke-miterlimit:10;}
	.st120{fill:#197DDA;}
	.st121{fill:#425061;stroke:#21374A;stroke-miterlimit:10;}
	.st122{fill:#21374A;}
	.st123{fill:#26262E;}
	.st124{fill:#A5A4AA;stroke:#7F7E85;stroke-miterlimit:10;}
	.st125{fill:#0E0E15;}
	.st126{fill:#1F1E21;}
	.st127{fill:#323335;}
	.st128{fill:#05050C;}
	.st129{fill:#6C6D72;}
	.st130{fill:#232428;}
	.st131{fill:none;stroke:#919197;stroke-miterlimit:10;}
	.st132{fill:#8A8A93;}
	.st133{fill:#23232D;}
	.st134{fill:#2E2F36;}
	.st135{fill:#929298;stroke:#85858F;stroke-miterlimit:10;}
	.st136{fill:#85858F;}
	.st137{fill:#7F7E85;}
	.st138{fill:#0C0E15;}
	.st139{fill:#E8EAEF;}
	.st140{fill:#C6C6C6;}
	.st141{fill:#A6A7AB;}
	.st142{fill:#ED2225;stroke:#BD1919;stroke-width:0.5;stroke-miterlimit:10;}
	.st143{fill:#F81F25;stroke:#BD1919;stroke-width:0.5;stroke-miterlimit:10;}
	.st144{fill:#F02421;}
	.st145{fill:#BD1919;}
	.st146{fill:#FF5F67;}
	.st147{fill:#F92B2E;}
	.st148{fill:#D31515;}
	.st149{fill:#C11918;}
	.st150{fill:#FF2F37;}
	.st151{fill:none;stroke:#BD1919;stroke-width:0.5;stroke-miterlimit:10;}
	.st152{fill:#F0221F;}
	.st153{fill:#C31A1A;}
	.st154{fill:#F52122;}
	.st155{fill:#C81A11;}
	.st156{fill:#FC7C88;}
	.st157{fill:#E92123;}
	.st158{fill:#BB1719;}
	.st159{fill:#EE211E;}
	.st160{fill:#F51F26;}
	.st161{fill:#DB1D20;}
	.st162{fill:#500A0C;}
	.st163{fill:#070707;}
	.st164{fill:none;stroke:#BD1919;stroke-width:0.75;stroke-miterlimit:10;}
	.st165{fill:#A8161E;}
	.st166{fill:#2C323A;}
	.st167{fill:#10171C;}
	.st168{fill:#272930;}
	.st169{fill:#3C454C;}
	.st170{fill:#1E212B;}
	.st171{fill:#91949D;}
	.st172{fill:#0B0E19;}
	.st173{fill:#4C4F5A;}
	.st174{fill:#48454D;}
	.st175{fill:#B0B3BD;}
	.st176{fill:#3D3E45;}
	.st177{fill:#0F1A19;}
	.st178{fill:#261C22;}
	.st179{fill:#9BA2A9;}
	.st180{fill:#37363F;}
	.st181{fill:#22222B;}
	.st182{fill:#363535;}
	.st183{fill:#676C75;}
	.st184{fill:#A1A5AA;}
	.st185{fill:#737F8F;}
	.st186{fill:#B7B7B7;}
	.st187{fill:#1B1A13;}
	.st188{fill:#F3F2F7;}
	.st189{fill:#D8D8D8;}
	.st190{fill:#C41A1B;}
	.st191{fill:#6F0E0C;}
	.st192{fill:none;stroke:#898989;stroke-width:2;stroke-miterlimit:10;}
	.st193{fill:#46393E;}
	.st194{fill:#F3B922;stroke:#F09818;stroke-width:0.5;stroke-miterlimit:10;}
	.st195{fill:#8B919C;}
	.st196{fill:#534F4D;}
	.st197{fill:#ADADAD;}
	.st198{fill:#B6B2B4;}
	.st199{fill:#636363;}
	.st200{fill:#E8E6E6;}
	.st201{fill:#E8E8E8;}
	.st202{fill:#F3F2F7;stroke:#9E9E9E;stroke-width:0.5;stroke-miterlimit:10;}
	.st203{fill:none;stroke:#9E9E9E;stroke-miterlimit:10;}
	.st204{fill:#532A16;}
	.st205{fill:#4C4C4C;}
	.st206{fill:#595959;}
	.st207{fill:#C2C2C4;stroke:#9E9E9E;stroke-miterlimit:10;}
	.st208{fill:#D8D9DA;}
	.st209{fill:#232325;}
	.st210{fill:#A7A6AB;}
	.st211{fill:#ABADAE;}
	.st212{fill:#9D9EA1;}
	.st213{fill:#9A9A9B;}
	.st214{fill:#949498;}
	.st215{fill:#979799;}
	.st216{fill:#C41C24;}
	.st217{fill:#91131A;}
	.st218{fill:none;stroke:#91131A;stroke-miterlimit:10;}
	.st219{fill:#2A2C2A;}
	.st220{fill:#E5E4E6;}
	.st221{fill:#9B9EA7;}
	.st222{fill:#CFD0D4;}
	.st223{fill:#B4B7C7;}
	.st224{fill:#333A44;}
	.st225{fill:#414754;}
	.st226{fill:#7C818F;}
	.st227{fill:#3D4350;}
	.st228{fill:#7F8391;}
	.st229{fill:#D5D5DB;}
	.st230{fill:#030303;}
	.st231{fill:none;stroke:#0F1A19;stroke-miterlimit:10;}
	.st232{fill:#353131;}
	.st233{fill:#211A1A;}
	.st234{fill:#837F7B;}
	.st235{fill:#443F41;}
	.st236{fill:#474747;}
	.st237{fill:#DB2D10;}
	.st238{fill:#0A0705;}
	.st239{fill:#303442;}
	.st240{fill:#C6C6C6;stroke:#9E9E9E;stroke-miterlimit:10;}
	.st241{fill:#646878;}
	.st242{fill:#B6BBC5;}
	.st243{fill:#9E9E9F;}
	.st244{fill:#D4D6DE;}
	.st245{fill:#594C45;}
	.st246{fill:#A19EA1;}
	.st247{fill:#D5D3D7;}
	.st248{fill:#FFFCFF;}
	.st249{fill:#8D8D95;}
	.st250{fill:#DDDEE4;}
	.st251{fill:#75757B;}
	.st252{fill:#D3D5DB;}
	.st253{fill:#837E90;}
	.st254{fill:none;stroke:#909094;stroke-miterlimit:10;}
	.st255{fill:none;stroke:#D7DAE5;stroke-miterlimit:10;}
	.st256{fill:#666269;}
	.st257{fill:#EAEAEA;}
	.st258{fill:#D9D6DF;}
	.st259{fill:#979592;}
	.st260{fill:#FBFFFF;}
	.st261{fill:#999EA7;}
	.st262{fill:none;stroke:#978A85;stroke-miterlimit:10;}
	.st263{fill:#7E7F88;}
	.st264{fill:#868790;}
	.st265{fill:#9396A4;}
	.st266{fill:none;stroke:#FEF2EB;stroke-miterlimit:10;}
	.st267{fill:none;stroke:#666269;stroke-miterlimit:10;}
	.st268{fill:#CDCFD5;}
</style>
<g id="Layer_1" class="st0">
	
		<image style="display:inline;overflow:visible;" width="1187" height="1133" xlink:href="6CA2DB30EFBDA58A.jpg"  transform="matrix(1 0 0 1 35.1337 15.5243)">
	</image>
</g>
<g id="Layer_6">
	<path class="st1" d="M318.8,768.3l-130.8-34.4c0,0-7.3-2.3-10.4,1.3c0,0-0.3,1.5-5,1.7c-4.7,0.1-9.4,0.6-8.7,5.9L336.1,787
		L318.8,768.3z"/>
	<path d="M543.9,806.7l-75.7-73l-53.5,9L360.8,763L90.4,704.9c0,0-19.9-6.6-20.3,6.2c-0.4,12.9-0.8,34-0.8,34s1.7,2.6,2.9,2.9
		c0,0-1.2,7.9,1.6,10.2c0,0,1.1,9.3,3.7,9.6c0,0-0.2,8.1,7.7,9.1l17.4-1.2c0,0,4.2,11.9,13,10s13.5-9.3,15.2-17.9l23.1-4.4
		l-4.8,39.7c0,0-17,136.7,60.5,137.7c0,0,27.9,0.5,50.6-16.1c0,0,22.2,61,64.8,49.2s52-14.7,57.7-26.5c5.7-11.8,10.4-19.4,9.5-30.3
		l83.2,24.3l155.7-82L543.9,806.7z"/>
	<path class="st2" d="M359.7,781.8c0,1,36.9,37.9,36.9,37.9l10.6,24.8l-24.8,4.7L359.7,781.8z"/>
	<polygon class="st3" points="390.1,851.1 357.5,778.2 318.8,768.3 371.5,863.6 	"/>
	<path class="st4" d="M340.3,787.4c0,0-9.9-19.4-26.3-13.5l42.1,88.1l17.5,2c0,0-0.1-1.4-2.8-8.3S340.3,787.4,340.3,787.4z"/>
	<path class="st5" d="M355.9,861.8c0,0-31.8-76.7-33.2-79c-2.9-5.2-4.6-8.5-15.1-9.9c0,0,10.1,4.9,15.8,24c5.7,19.2,31.4,67,31.4,67
		L355.9,861.8z"/>
	<path class="st6" d="M513.5,837.8l-67.9,14.1c0,0-10.9,2.9-10.9,9.8c0,6.9-2,63-2,63s0.9,6.3,8.6,8.3c7.8,2,40,11.8,40,11.8v-72.5
		l57.3-15.5L513.5,837.8z"/>
	<path class="st7" d="M781.5,930.7c0,0-62.1-39.9-100.1,1.1c-38,41-18.8,116-4.5,143.8c14.3,27.9,40.3,71.2,93.4,55
		c53.1-16.2,45.2-12,63.6-38.8C852.2,1065.1,825.9,946.5,781.5,930.7z"/>
	<path class="st8" d="M762.8,962.8c0,0,56.2,75.3-6,128.4c-17.5,11.5-45.6,8.7-57.9,2.4c0,0,21,36.5,55.5,38.1c0,0,26.2-5.2,61.5-19
		c0,0,12.3-12.3,18.6-34.9s-11.9-88.4-11.9-88.4l-43.2-55.1C779.3,934.1,799.7,976.3,762.8,962.8z"/>
	<polyline class="st9" points="808.7,1030.1 805.5,1042 812.3,1055.5 803.5,1073.3 803.9,1092 791.2,1106.7 791.6,1113.8 
		788.5,1116.6 	"/>
	<polyline class="st9" points="825.7,1061.4 815,1074.1 817.4,1090 804.3,1103.1 802.3,1112.6 798.8,1115 	"/>
	<path class="st10" d="M667.1,972.2c0,0,10.7-47.6,47.2-47.2c36.5,0.4,61.1,59.9,61.1,59.9s-14.3-20.2-14.7-9.5
		c-0.4,10.7,0,17.1,0,17.1S707.9,889.3,667.1,972.2z"/>
	<path class="st11" d="M754.3,1131.6c0,0-42.8,5.2-66.6-44c-23.8-49.2-25.8-88.8-20.6-115.4c5.2-26.6,9.1-36.1,34.5-54.3
		c0,0-37.7,16.7-41.6,63.9s18.2,97.6,18.2,97.6S704.8,1140.4,754.3,1131.6z"/>
	<path class="st12" d="M786.9,959.5c0,0-23-42.4-78.9-44c0,0,22.2-7.9,60.3-7.9C806.3,907.6,786.9,959.5,786.9,959.5z"/>
	<path class="st13" d="M751.2,981.3c0,0-29-44.4-56.7-9.9c0,0-20.6,26.6-2.4,78.9c18.2,52.4,51.2,41.2,56.3,38.5
		c5.2-2.8,22.6-15.9,19-63.1C767.4,1025.7,764.7,1000.8,751.2,981.3z"/>
	<path class="st14" d="M767.4,1025.7c0,0-12.1-69.4-51.6-62.7c0,0-28.6,0-27.4,51.6c1.2,51.6,31.7,71.4,41.2,72.2
		c9.5,0.8,23.4,4.3,32.5-15.5C771.4,1051.5,767.4,1025.7,767.4,1025.7z"/>
	<path class="st15" d="M729.1,978.3c0,0,0.9-8.4,9.2-10.6l5.6,5.4c0,0-10.3,13-13.2,9.8C727.7,979.7,729.1,978.3,729.1,978.3z"/>
	<path class="st15" d="M751.9,983.4c0,0-11.1,3.2-7.5,11.2c3.7,8.1,13-1.2,13-1.2L751.9,983.4z"/>
	<path class="st16" d="M764.1,1010.3c0,0-11.3,1.2-9.6,9.3c1.7,8.1,13,6.1,13,6.1L764.1,1010.3z"/>
	<path class="st17" d="M767.9,1040.8c0,0-13.7-1.8-12.7,5c1,6.9,8.1,7.8,12,7.6L767.9,1040.8z"/>
	<path class="st18" d="M761.3,1073.2c0,0-8.8-14.6-15.6-10.9c-6.9,3.7,8.8,13.4,14.2,13.6L761.3,1073.2z"/>
	<path class="st15" d="M714.3,985.3c0,0-2.2-10,5.1-14.9c0,0,2.2,0-1.7,9.6C715,986.6,714.3,985.3,714.3,985.3z"/>
	<path class="st19" d="M707.2,991c0,0,3.9-23.3,24.3-25.7h-7.6c0,0-19.4,3.7-21.8,34.1C702,999.3,703,995.6,707.2,991z"/>
	<path class="st20" d="M754.2,1078.2c0,0-13.8,9.3-26.3,2.7c-12.5-6.6-29.9-32.1-30.6-51.5c-0.7-19.8,4.8-31.3,4.8-31.3
		s1.5-30.9,29.2-32.9c0,0-21.6-10.8-36.5,13.7c-14.9,24.5-0.5,70.6-0.5,70.6S722.3,1109.8,754.2,1078.2z"/>
	<path class="st21" d="M750.8,1076.2c0,0-20.8,1-28.7-11.5c0,0,36.5,4.4,25.5-48.5c0,0-13.5-44.3-40.4-25.2c0,0,20.6-20.6,38.5,10
		c17.9,30.6,4.9,53.2,0.7,57.1c-4.2,3.9-12.2,7.3-16.4,8.1C729.9,1066.2,731.2,1074.3,750.8,1076.2z"/>
	<path class="st22" d="M737.5,1042.9c0,0,9.6-29.4-10-39.9c-19.6-10.5-18.1,19.8-16.7,26.2C712.3,1035.6,723.3,1060.3,737.5,1042.9z
		"/>
	<path class="st23" d="M727.5,1003c0,0-15.4,7.6-9.1,23c6.4,15.4,11,16.7,19.1,16.9c0,0-14.7,20.3-26.7-13.7
		C710.8,1029.2,706.9,991.2,727.5,1003z"/>
	<path class="st24" d="M731.4,1011.3c0,0-18.1,15.4,4.4,23.8C735.8,1035.1,746.8,1024.3,731.4,1011.3z"/>
	<path class="st25" d="M731.4,1015.5c0,0-6.9,0.7-6.1,8.1c0.7,7.3,5.4,8.6,9.1,7.8C738,1030.7,738.5,1017.4,731.4,1015.5z"/>
	<path class="st26" d="M733.4,1023.6c0,0-7.3-3.7-2-8.1C731.4,1015.5,737.3,1019.9,733.4,1023.6z"/>
	<path class="st27" d="M734.4,1031.4c0,0,1.7-4.9-1-7.8c-2.7-2.9-7.3-4.9-8.1,0C724.6,1028.5,729.5,1033.6,734.4,1031.4z"/>
	<path class="st28" d="M654.9,928.6l1.4-16.2l9.1-33.5l-134.3-21.4l-48.9,8.2c0,0-6.9,2.7-6.9,9.3c0,6.6,0,66.4,0,66.4
		s4.1,6.3,17,2.2s84.8,50.8,84.8,50.8l10.4-0.8l7.4,8.2l24.7,34.3l1.1,5.2l21.4-2.2L654.9,928.6z"/>
	<path class="st29" d="M648.9,911.8l-47.8,10.7c0,0,22.2,5.8,18.9,29.4s-16.5,23.9-16.5,23.9l43.9-15.9l7.1-38.7L648.9,911.8z"/>
	<path class="st30" d="M626.1,942.8l31.6-10.7l-0.8-29.7l-55.8,20.1c0,0,17.8,4.4,19.2,23.3L626.1,942.8z"/>
	<path class="st28" d="M622.8,1036.2c0,0,8.8-38.7-15.7-45.3l42.3-4.9l-1.4,41.7L622.8,1036.2z"/>
	<path class="st31" d="M588.2,954.6c0,0,2.2,36.2,10.1,39.5l-2.7,4.7c0,0-10.2-14.3-9.6-29.4l-5.8-0.3l-0.3-17l5.5-10.2
		C585.4,942,586.5,954.9,588.2,954.6z"/>
	<polygon class="st32" points="574.5,996.6 481.4,968.1 481.7,954.3 574.9,982.2 	"/>
	<path class="st33" d="M489.1,924.9c0,0-0.5,24.3,4.1,26.9l11.8,3.5c0,0-6.9-19-2.9-25L489.1,924.9z"/>
	<polygon class="st34" points="587.9,946.6 502.6,930.3 500.4,923.9 500.1,948.3 589.2,976.1 	"/>
	<path class="st35" d="M530.8,877.1c0,0-22.3-0.8-35.9,31.6L598.3,937c0,0-5.7-27.5,36.2-33.2L530.8,877.1z"/>
	<path class="st36" d="M592.1,913.6l-34.3-10.3c0,0,5.7-3.8,21.5-3.3c0,0,10.3-6.5-13.6-4.1c-23.9,2.4-25.6,3.3-25.6,3.3l-20.7-7.9
		c0,0,6.3-6.8,26.4-8.2c20.1-1.4,65.6,16.3,65.6,16.3S598.9,903.2,592.1,913.6z"/>
	<path class="st37" d="M501.7,910.3c0,0,4.8-27.6,38-30.7"/>
	<path class="st37" d="M584.4,929.9c0,0,10.1-26.7,34.3-30.8"/>
	<polygon class="st38" points="502.1,906 479.2,912 572.8,939.5 592.8,933.2 	"/>
	<polygon class="st32" points="479.2,912 478.9,923.2 573.1,951.5 572.8,939.5 	"/>
	<polygon class="st30" points="572.8,939.5 573.1,951.5 586.3,946.9 586.6,934.8 	"/>
	<polygon class="st30" points="574.1,982.2 574.4,996.5 589.8,989.4 589.3,975.6 	"/>
	<polygon class="st38" points="500.1,948.4 481.7,954.3 574.9,982.2 588.8,976.1 	"/>
	<path class="st39" d="M601.1,922.5c0,0-19.8,5.5-14,29.1s16.5,24.2,16.5,24.2s17.3-2.5,16.7-29.9
		C620.3,945.9,619.5,928.6,601.1,922.5z"/>
	<path class="st40" d="M611,961.5c0,0,4.9-23.1-7.7-21.7c-12.6,1.4-8.8-2.2-10.7-3.8c-1.9-1.6-4.7-0.7-5.5,0.6c0,0,2.5-11,14-14.1
		c0,0,24.2,4.4,18.6,34.1C619.7,956.5,616.5,961.5,611,961.5z"/>
	<path class="st41" d="M615.9,948.6c0,0-0.3-14.8-7.4-16.7L615.9,948.6z"/>
	<path class="st42" d="M649.4,885.5c0,0-4,15.8,4.5,16.8c2.8,0.7,2.1,5-0.3,5.9c-2.4,0.9-1.9,3.8-0.9,4.9l-1,18.9
		c0,0-5.4-2.9-5.4,3.3s-6,99.4-7.1,104.9c-1.1,5.5-1.4,7.2,0.5,7.2s6.8,1.1,7.9-8.9c1.2-10,22.7-111.8,22.7-111.8l-4.5-10.6
		l0.1-29.2L649.4,885.5z"/>
	<path class="st12" d="M648.5,1043l14.5-4.6c0,0-12.3-82.4,22.8-107.4c23.8-17,40.9-15,59.1-11.5c18.2,3.5,30.9,2.4,30.9,2.4
		L735.3,880l-58.8,11.5L659.7,935c0,0-6.5,16.5-7.9,31.2c-1.5,14.7-5.9,74.4-5.9,74.4s0,5.7-6.2,6.7
		C639.7,1047.3,649.4,1048.5,648.5,1043z"/>
	<path class="st43" d="M595.6,998.8c0,0,1.6-7.7,11.5-8c9.9-0.3,22.2,20.3,15.7,45.3c0,0-3.2,9.7-14,8.8
		C600.8,1044.3,588.2,1025.5,595.6,998.8z"/>
	<path class="st44" d="M624.2,1027.9c0,0-0.5-24.8-19.8-27.2c0,0-6.6-0.8-10.4,5.8c0,0-0.2-16.1,13.2-15.7
		C619.5,991.3,626.9,1012.7,624.2,1027.9z"/>
	<path class="st41" d="M619.2,1011.5c0,0-0.3-14.8-7.4-16.7L619.2,1011.5z"/>
	<polygon class="st45" points="482.2,865.7 445.6,851.9 524.2,835.5 541.2,855.7 531.4,861.7 	"/>
	<path class="st46" d="M441.3,928.8c0,0,17.6-6,18.4-19.6c0.9-13.5,0.6-18.7,0.6-18.7s8.6,12.4,12.7,0.3l-0.3-16.1
		c0,0,1.2-7.2,7.5-9.8l2.1,0.8c0,0-6.6,2.4-6.9,9.3v66.4l-39.8-11.6c0,0-3.7-3.7-2.8-7.9C432.7,921.9,435.7,931.6,441.3,928.8z"/>
	<path class="st47" d="M491.3,830.9l-32.1,5.9c0,0-5.9,1.2-6.7,4.5c-0.7,3.3-2.9,11.4-2.9,11.4l-7.1,2.1l5.5-16.7
		c0,0,3.3-5.5,7.6-6.2c4.3-0.7,36.2-7.6,36.2-7.6L491.3,830.9z"/>
	<path class="st48" d="M442.3,831.9c0,0,9-0.5,8.3,2.6c0,0,1.4-1,5-2.4c3.6-1.4,36.2-7.6,36.2-7.6l-25.7,2.1L442.3,831.9z"/>
	<path class="st49" d="M433,850.2c0,0,2.4-14.3,9.3-18.3c0,0,8.8-1.4,8.3,2.6l-2.6,3.8l-6.4,20.2l-5.5,8.1c0,0-12.6-12.1-21.4-5.7
		c-8.8,6.4-8.3,8.1-8.3,8.1s-4.5-1.7-6.2,2.9l0.7-7.4l12.8-14.5l-24.5-4.5l15-3.1l18.3,3.6l2.4,4.3H433z"/>
	<path class="st50" d="M461.1,824.2l-32.1,5.7c0,0-7.4,4.8-6.4,15.9l-18.3-3.6l5.9-13.8c0,0,3.6-5.5,12.8-4l27.6-3.6L461.1,824.2z"
		/>
	<path class="st51" d="M450.6,820.9l-27.6,3.6c0,0,7.4,3.3,5.9,5.5l32.1-5.7L450.6,820.9z"/>
	<path class="st52" d="M389.2,845.4L371.8,864l0.2,50.7c0,0-0.7,4.5,2.1,5c2.9,0.5,14,4.3,14,4.3s4.5,2.9,4.8-2.1
		c0.2-5-1-38.5-1-38.5l6.9-5.9l-0.5,39l4.3,10.2l12.8,3.1l5.2-9.8l1-26.2l9-35.9l-17.1-7.9L389.2,845.4z"/>
	<polygon class="st6" points="397.8,849.9 383,865.4 382.8,912.5 385.6,913.7 384.7,866.1 	"/>
	<polygon class="st6" points="390.2,847.6 377.3,863.5 377.1,911.1 374.7,909.9 375.4,862.6 	"/>
	<polygon class="st6" points="407.8,851.6 391.3,868 391.1,879.4 397.3,873.3 398.5,863.7 	"/>
	<path class="st53" d="M459.2,836.9c0,0-1.9-4.8-8.6-2.4l-2.6,3.8l-5.5,16.7l7.1-2.1l2.9-11.4C452.5,841.4,455.8,836.6,459.2,836.9z
		"/>
	<path class="st5" d="M422.8,827.1c0,0-3.1,0.7-4.5,6.2l-2.9,10.5l7.1,2.1c0,0,1.2-13.6,6.4-15.9C428.9,830,430.6,825.2,422.8,827.1
		z"/>
	<path class="st54" d="M448.5,902.4c0,0,3.6,16.7,9.9,14s8.6-39.4-3.4-46.7C455,869.7,445.8,867.7,448.5,902.4z"/>
	<path class="st55" d="M458.9,885.9c0,0,0.9-11.3-7.7-15.3c-8.6-4.1-19.2-9-19.2-9s6.3,11,0.5,24.1c-5.9,13.1-13.3,12.8-13.3,12.8
		l24.6,3.6c0,0,7.7,1.4,8.8-3.2C452.5,899,459.3,897.6,458.9,885.9z"/>
	<path class="st56" d="M459.1,902.4c0,0-5.6-0.2-6.5-3.4c0,0,9.7-3.4,5.2-21c0,0-1.4-5-6.6-7l1.8,0.5c0,0,10,3,10.5,18.3
		C463.8,905.1,459.1,902.4,459.1,902.4z"/>
	<polygon class="st5" points="405.2,850.9 390.2,866.1 391.3,868 	"/>
	<polygon class="st5" points="383,865.4 382.1,864.1 397.1,848.1 	"/>
	<polygon class="st5" points="375.4,862.6 373.6,862.6 388.1,846.9 	"/>
	<path class="st57" d="M399,877.3c0,0-0.2-11.2,7.4-8.3c0,0,10.7-17.9,23.9-5.9c0,0-11.6-8.4-19.4,5.7l-1.2,4.3c0,0-5.5-4-7-0.9
		c-1.5,3-3.6,9.2-4,30.6L399,877.3z"/>
	<path class="st58" d="M432,861.6c0,0-16.2-2-20.3,15.7c-4.1,17.7,9,21.8,9,21.8S448.8,887.2,432,861.6z"/>
	<path class="st59" d="M416,883.2c0,0,0.5-15.6,8.8-15.1c8.2,0.5,4.3,17.1-0.4,19.4"/>
	<polyline class="st60" points="417.8,898.2 417.6,921.7 414.2,927.1 	"/>
	<path class="st61" d="M355.9,866.2l-0.7-5.3c0,0-3-2-8.2-14.5c-5.3-12.5-27.3-63.7-27.3-63.7s-3.3-7.9-12.2-9.9
		c-8.9-2-129.8-34.2-129.8-34.2s-10.8-4.3-14.1,2.3c-3.3,6.6-21.4,52.9-21.4,52.9s-4.3,6.2,0.3,7.9c4.6,1.6,6.2,1,8.2-3.6
		c2-4.6,15.8-42,15.8-42s0.3-4.9,6.6-3.3c6.2,1.6,135,36.1,135,36.1s6.2,0.3,8.2,6.2c2,5.9,26.3,61.4,26.3,61.4s2.6,7.2,5.9,8.2
		C352,865.9,355.9,866.2,355.9,866.2z"/>
	<path class="st5" d="M337.2,777.9c0,0-1.5-4.5-4.2-4.9c0,0,29.4,61.7,37.6,82.3c0,0,1.1-0.9-0.2-4.5L337.2,777.9z"/>
	<path class="st5" d="M360.9,783.2c0,0-1.2-3.6-3.3-3.9c0,0,23.2,49,29.6,65.3c0,0,0.8-0.7-0.2-3.6L360.9,783.2z"/>
	<path class="st62" d="M321.3,964.7c0,0,45.8-11.6,22.9-90.1c0,0-5.8-20.2-23.5-42.4c0,0,16.8,25.6,3.1,80c0,0-4.9,38.8-26.9,36.6
		c-22-2.1-37.9-27.8-42.7-74.2c0,0-3.1,61.1,34.5,86.4C288.7,961,301.5,969.9,321.3,964.7z"/>
	<path class="st63" d="M323.8,912.2c0,0,5.2-58.9-26.5-80.9c0,0-14.8-8.6-25.7,12.8c0,0-1.2-25.3,15.9-26.9
		C304.5,815.7,337.5,852.1,323.8,912.2z"/>
	<path class="st64" d="M288.1,828.6c0,0-16.5,1.5-20,29.3s1.7,47.3,12.6,65c10.8,17.7,20.4,17.7,29.8,14.3s13.2-25,13.2-25
		S327.8,832.5,288.1,828.6z"/>
	<path class="st65" d="M296.5,833.5c0,0-22.9,15.8-14,53.4c8.9,37.7,31,41.9,31,41.9s-10.6,11.3-22.7,3.4
		c-12.1-7.9-22.9-36-21.9-58.4C269.9,851.5,274.3,828.1,296.5,833.5z"/>
	<path class="st66" d="M299.5,835.7c0,0-18,14.5-11.6,48.5c3,13.8,6.7,33.7,26.4,44.8c0,0-23.6-5.9-31-41.9c-7.4-36,10.6-51,14-53.4
		C297.2,833.8,297,834,299.5,835.7z"/>
	<path class="st67" d="M301.4,837.2c0,0-12.1,10.8-12.3,29.8c-0.2,19.2,0.7,41.9,27.3,59.6l1.2-2c0,0-41.1-35.7-13.1-84.5
		L301.4,837.2z"/>
	<path class="st68" d="M315.7,857.9c0,0-3-8.1-5.9-10.1c-3-2-12.1,1-5.7,5.4C310.5,857.7,315.7,857.9,315.7,857.9z"/>
	<path class="st69" d="M302.9,864.5c0,0,16-4.4,18.5,16c2.5,20.4-9.4,23.6-16.5,17c0,0,1.5,7.4,19,3.4c0,0,0.7-22.7-5.7-39.2
		C318.2,861.8,309.8,859.6,302.9,864.5z"/>
	<path class="st70" d="M301.5,889.9c0,0-5.1-20.9,1.5-25.4c6.7-4.4,14.6,1.7,17,8.9s4.4,26.1-6.2,27.3S301.5,889.9,301.5,889.9z"/>
	<path class="st71" d="M322.6,906.4c0,0-8.4,9.6-6.7,11.6C317.7,920,322.4,920.7,322.6,906.4z"/>
	<path class="st26" d="M318.8,902.7c0,0-6.7,3.6-11,2.2c-4.3-1.4-7-5.6-9.5-17.2C298.2,887.7,302.3,909.6,318.8,902.7z"/>
	<path class="st62" d="M214.2,936.2c0,0,46.2-11.7,23.1-90.9c0,0-5.9-20.3-23.7-42.8c0,0,17,25.9,3.1,80.8c0,0-4.9,39.1-27.1,37
		s-36.6-29-41.5-75.9c0,0-4.7,62.6,33.2,88.2C181.2,932.5,194.2,941.5,214.2,936.2z"/>
	<path class="st63" d="M216.7,883.2c0,0,5.3-59.5-26.8-81.7c0,0-14.9-8.7-25.9,12.9c0,0-1.2-25.6,16-27.1S230.6,822.6,216.7,883.2z"
		/>
	<path class="st64" d="M180.7,798.8c0,0-16.7,1.5-20.1,29.6c-3.5,28.1,1.7,47.7,12.7,65.6c10.9,17.9,19.3,14.6,28.8,11.2
		s13.2-32.9,13.2-32.9S220.7,802.8,180.7,798.8z"/>
	<path class="st65" d="M187.8,802.8c0,0-23.7,11-14.7,55.4c7.7,38.3,31.2,42.4,31.2,42.4s-9.2,10.1-21.4,2.1
		c-12.2-8-23.1-36.3-22.1-58.9C161.8,821.2,166.2,801.1,187.8,802.8z"/>
	<path class="st66" d="M191.4,806c0,0-18.2,14.7-11.7,49c3,13.9,6.7,34.1,26.6,45.3c0,0-23.9-6-31.3-42.3
		c-7.5-36.3,10.7-51.5,14.2-54C189.1,804,188.9,804.3,191.4,806z"/>
	<path class="st67" d="M192.9,807.3c0,0-12.2,10.9-12.4,30.1c-0.3,19.4,0.7,42.3,27.6,60.2l1.2-2c0,0-41.5-36.1-13.2-85.3
		L192.9,807.3z"/>
	<path class="st68" d="M208.5,828.4c0,0-3-8.2-6-10.2c-3-2-12.2,1-5.7,5.5C203.3,828.1,208.5,828.4,208.5,828.4z"/>
	<path class="st69" d="M194.1,835.1c0,0,14.4-4.5,16.7,16.2c2.2,20.6-8.4,23.9-14.9,17.2c0,0,1.3,6.8,17.1,2.8c0,0,3-23.1-3.5-38.6
		C209.5,832.6,200.3,830.1,194.1,835.1z"/>
	<path class="st70" d="M192.6,860.6c0,0-4.7-21.1,1.4-25.6s13.4,1.7,15.5,9c2.1,7.2,4,26.4-5.6,27.6
		C194.2,872.7,192.6,860.6,192.6,860.6z"/>
	<path class="st71" d="M211.5,873.9c0.4-0.3-7.9,9.3-6.7,11.7C205.9,888,211.3,888.3,211.5,873.9z"/>
	<path class="st26" d="M210.3,874.4c0,0-6.7,4.7-10.5,3.6c-3.8-1.2-5.9-1.9-8.1-11.3C191.7,866.7,195.7,880,210.3,874.4z"/>
	<path class="st72" d="M228.8,817.1c0,0-14.6-49.1-41.6-49.1s-31.9,24-31.9,24s17.6-21.8,35.3-15C208.1,783.7,214.2,787,228.8,817.1
		z"/>
	<path class="st73" d="M93.6,724.2l5.3-8.8c0,0,3.7-7,14.4-1.6c10.7,5.3,22.8,17.4,17.4,54.1c0,0-0.8,14.2-15.2,17.9
		c0,0-7.8,2.8-13-10c0,0,19.8,0.2,22.2-2.6c2.3-2.8,4.6-39.2-8.1-48.9H93.6z"/>
	<path class="st74" d="M78.6,725l-0.2-21.8c0,0-6.3,0.1-8.7,5l-0.8,36.7l3.1,3.1C71.8,748,69,734,78.6,725z"/>
	<path class="st75" d="M96.8,756.4c0,0,1.6-3.7,0-7.9c0,0-1.4-3,0-5.6c1.4-2.6-0.9-5.1-2.1-5.8s-1.9-0.9-2.3-2.8s-2.1-3.7-4.4-3.5
		c-2.3,0.2-3.7-1.6-3.7-1.6s-1.4-3.9-5.8-2.6c0,0-8.2,6.6-6.3,21.3c0,0-1.3,7.5,1.6,10.2c0,0,0.5,8.7,3.7,9.6c0,0,0.4,9.2,7.7,9.1
		c0,0,9.6-0.5,9.1-5.9c0,0-0.5-1.4,1.4-3c1.9-1.6,3.2-5.1,1.6-7.2C95.7,758.7,96.8,756.4,96.8,756.4z"/>
	<path class="st76" d="M92,748.7c0,0-2.6-16-10.2-16.7c-7.7-0.7-7,17.6-6.7,21.1s3.2,17.9,8.6,18.1C89,771.5,93.6,759,92,748.7z"/>
	<polygon class="st36" points="545.9,608.5 510,607.4 491,633.3 494.1,807.8 543.9,806.7 	"/>
</g>
<g id="Layer_9">
	<path class="st77" d="M48.9,396.9l-0.2,7.4c0,0-3.5-0.8-3.5,3.7s-3.8,64.8,1.3,73.6l60.1,41.7l113.8,16.1l138.2,10.7L489.4,496
		l-34.2-76.7c0,0-21.5-9.8-46.9-16.6c0,0-1.2-13.7-11.4-16.8c0,0-5.8,0-9.3,0.9l-44.9-26.1c0,0-8.6-9.1-28.4-9.1
		c0,0-12.1-0.7-20.3-3c0,0-51.7-2.1-73.1,0.2l-9.8-4.7c0,0-7.5-3.5-10.2,0.7c0,0-2.1,3.5-3.5,6.5c0,0-64.3,7.4-105.1,35.3
		C92.3,386.7,68.8,394.1,48.9,396.9z"/>
	<path class="st58" d="M48.9,396.9l34.9,9.4l29.1,5.4c0,0,49.1,13.2,87,18.6l4.7,1c0,0,3-8.8,10.2-13.9l14.6,1
		c0,0-4.4,10.2-6.1,11.5c-1.7,1.4-3.7,2-3.4,4.7s0.7,31.5,0.7,31.5l-8.8,44l-12.5,3L93.6,490.9l-47.2-9.3c0,0-4.7,8.5-1.3-73.6
		c0,0-1.1-3.9,3.5-3.7L48.9,396.9z"/>
	<polygon class="st78" points="477.6,485.4 338.7,497.7 384.3,482.9 474.3,470.3 	"/>
	<polygon class="st79" points="479.6,485 384.1,493.8 417.2,502.5 486.5,493.2 	"/>
	<path class="st80" d="M321.1,523.9c0,0,6.1-7.9-0.5-26.2l63.5-4l33.1,8.7l-73.1,5.6l-22,19.1L321.1,523.9z"/>
	<path class="st81" d="M279.6,543.8l0.3-16.2l4-3.7l39.4,0.5l11-11.9c0,0,4.3-4.3,14.3-5.3c10-1,133.1-12.6,146.3-16.6
		c13.3-4,13.9,28.9,13.9,28.9L418.5,535l-0.3,8.6l-36.2,4.6l1.3-9l-39.5,5.3l-14.9-1.7L279.6,543.8z"/>
	<path class="st82" d="M355.4,520.8L344.1,508c0,0,85.3-4.9,131.8-12.8l-3,13.6C472.9,508.8,419.5,519.8,355.4,520.8z"/>
	<polygon class="st82" points="306.6,542.3 321.1,523.9 283.9,523.9 279.9,527.6 279.6,543.8 	"/>
	<path class="st82" d="M320.2,542.3c0,0,0.7-0.3,2.1-0.8c6.7-2.3,29.5-9.2,76.8-13.8c57.7-5.6,64-1.7,64-1.7l-46.8,21.6L377,548
		l-0.3-6.6l-40.8,3L320.2,542.3z"/>
	<path class="st83" d="M211,537.3l-103.4,13.6l-5.9-7.3l-27.9,2.3c0,0-22.7,1.8-30.8-37.4l-4.1-14.7l-0.9-7.9l8.2-0.5
		c0,0-6.1-58.3,25.4-53.5c0,0,13.8,4.1,27.4,51l1.8,33.8l62.8,7.9l47.4,9.3V537.3z"/>
	<path class="st84" d="M259.2,553.9c0,0-2,19.4-15.9,21.9l35.3-3.5l-0.3,3.1l56.6-7v7l105-13.2v-8.9l64.9-11.9v-21.7l-89.1,13.5v8.9
		c0,0-11,3.1-29.4,2.4l-0.3-7.3l-41.6,4.6c0,0-9.8,0.9-11.9-1.2l-53,3.4l0.3-16.2l4-3.7c0,0-6.7-31.8-13.5-39.2c0,0,3.4-3.1-1.5-4.3
		c0,0-22.3-54.8-52.6-18.4c0,0-7.7,17.4-6.4,51.1c0,0,33.7-29.7,46.8,31.8C256.6,545,255.4,554.7,259.2,553.9z"/>
	<path class="st85" d="M302,550.2l-7.3,20.8l-51.4,4.7c0,0,12.8-1.5,15.9-21.9L302,550.2z"/>
	<path class="st86" d="M445.2,552.4c0,0,16.5-13.7,13.7-25.9l46-6.8v21.7L445.2,552.4z"/>
	<path class="st87" d="M259.3,537.7c0,0,10.1-51.5-17.5-66.4c0,0-19.5-6.9-25,20.4l2.5,15.7l37.3,37.6L259.3,537.7z"/>
	<path class="st88" d="M243.1,499.2c0,0-4.7-11.4-2.7-19.4c2-8,7.2-1.2,8.4,0.7s3.5,7,3.5,7S244.1,485,243.1,499.2z"/>
	<path class="st89" d="M236.2,478.6c0,0,2.7,9.7,2,18.6c0,0-5.7-3.2-6.2-6.7c0,0,2.7,1.2,2-4.2C233.2,480.8,234,474.6,236.2,478.6z"
		/>
	<path class="st90" d="M230.7,473.6c0,0-7.2,19.1,5.7,26.3c0,0,4,0.2,1.7-2.7c-2.2-3-5.5-2.5-6.2-6.7c0,0,3.2,0,2-4.2
		c-1.2-4.2-1.5-8.2-1-10.4C233.5,473.6,232.5,471.9,230.7,473.6z"/>
	<path class="st91" d="M256.8,499.2c0,0-1-6-3.2-9.7c0,0-8.7-3.5-9.2,15.4C244.4,504.9,255.1,503.4,256.8,499.2z"/>
	<path class="st92" d="M234.5,504.7c0,0-20.1-5.7-7.7-25.6c0,0,2,0.2,0,3.2c-2,3,1.2,22.1,9.7,17.6S240.4,508.1,234.5,504.7z"/>
	<path class="st93" d="M256.8,512.9c0,0-11.7,1.2-12.4-3.5c-0.7-4.7,3.2-1.5,5.7-0.7c2.5,0.7,4.5,0.5,5.7-3S260.5,507.9,256.8,512.9
		z"/>
	<path class="st94" d="M258.1,528c0,0-9.9-13.9-9.9-12.7c0,1.2-1.7-6.5,0,1.2c1.7,7.7,8.4,18.1,8.4,18.1S259.5,533.2,258.1,528z"/>
	<path class="st90" d="M244,501.5c0,0,1.1-13.6,8.7-12.7c0,0,0.5-1.2-1.3-0.9C249.7,488.1,243.7,489.4,244,501.5z"/>
	<path class="st90" d="M256.6,501.2c0,0-4.4,7.4-10.6,4.2c0,0-1.9,0.7,1.2,1.5c3,0.8,4.9,3.1,9.4-3.6
		C256.6,503.2,258.6,500.2,256.6,501.2z"/>
	<path class="st95" d="M217.3,488.6c0,0,7.1-22.1,24.2-16.4c12.6,5.7,21.4,24.3,17.9,60.3l-2.6,11.6c0,0,12-60.1-16.2-71.1
		c0,0-15.7-6.7-23,16.9L217.3,488.6z"/>
	<path class="st90" d="M240.2,496.4c0,0-0.8-14.1-1.8-16.8c-1.1-2.7-0.1-3.9-0.1-4.8s-1.9-1.8-1.9,0.8s1.6,6,1.6,7.6
		s1.1,10.9,1,12.7S240.2,496.4,240.2,496.4z"/>
	<path class="st96" d="M203.1,515.2c0,0,7,68.2,40.2,60.5c0,0,12.7-0.2,15.9-21.9c0,0-2.8,1.2-2.6-8.8s-14.1-45.5-35-38.7
		c0,0-7.3,1.4-12.7,8.9H203.1z"/>
	<path class="st97" d="M236.8,510.3c0,0,14.9,12.2,16.8,33.8c0,0-0.4,9.7,5.6,9.8c0,0-4.2-1-4-8.7
		C255.5,535.4,246.5,515.3,236.8,510.3z"/>
	<path class="st90" d="M249.8,514.6c0,0,4.7,7.5,7.2,10.7C256.9,525.4,255.4,518,249.8,514.6z"/>
	<path class="st98" d="M82.6,514.9c0,0,15.2-1.8,2.4-45.1c0,0-8.1-21.4-20.2-20.6S49.3,468,50.2,480.6s29,35,29,35L82.6,514.9z"/>
	<path class="st99" d="M79.5,466.5c0,0-6.7,7.4-4.3,13.1c0,0,6.8-1.8,7-4.4S79.5,466.5,79.5,466.5z"/>
	<path class="st100" d="M84.8,484.6c0,0,0.4-2-1.1-4.3c-1.5-2.2-10.7,3.3-9.4,6.7C74.3,487,78.3,488.5,84.8,484.6z"/>
	<path class="st101" d="M75.4,490.7c0,0,8.9,1.8,10,0c0,0,2.4,10.4-2.8,13.1L75.4,490.7z"/>
	<path class="st99" d="M69.8,475c0,0,2.6-9.8,4.8-11.3c2.2-1.5-3.1-6.1-8.9-4.4C65.8,459.3,65,473.4,69.8,475z"/>
	<path class="st99" d="M56.5,470.9c0,0-2-7.4-1.5-9.2c0.6-1.8-3.5,6.8-2.8,12.4c0,0,0.7,1.3,4.3-0.6C60,471.7,56.5,470.9,56.5,470.9
		z"/>
	<path class="st102" d="M65,450.4c0,0-13.1-3.1-14.6,28.5"/>
	<path class="st102" d="M67.8,450.3c0,0,18.5-1.4,20.8,37.1c1.9,19.6-6.9,26.7-13.2,26.8"/>
	<path class="st102" d="M74.8,489.1c0,0,5.7,3,10.1,0.2"/>
	<path class="st102" d="M71.6,475.6c0,0,0.2-7.7,4.4-11.2"/>
	<path class="st103" d="M129,524c0,0,0.5,13.5-8,16.5c-8.5,3-19.3,3.2-19.3,3.2l-27.9,2.3c0,0,10.3-4.6,9.2-17.6
		c0,0-4.2-5.2-3.7-12.8l3.7-2.8c0,0-1.1,11.4,3.9,14.6C86.9,527.4,109.5,529.7,129,524z"/>
	<path class="st104" d="M125.7,531.5c0,0-7.7,6.2-20.7,7.3c-13,1.1-25.6,2.5-25.6,2.5s-3,4.3-5.5,4.6l41.4-3.9
		C115.2,542.1,125.3,539.1,125.7,531.5z"/>
	<path class="st78" d="M125.4,370.2c0,0-19.6,10.8-18.6,25.1c0,0,0,2.7-6.8,2.7c0,0-5.4,0-11.5,8.8l-4.7-0.5c0,0,12.5-9,12.5-15.1
		C96.3,385.1,111.9,373.9,125.4,370.2z"/>
	<path class="st105" d="M44,471.6c0,0-0.3-51.4,27.8-42.1l-0.3,2.3c0,0-26.1-9.9-25.2,49.7C46.4,481.6,43.4,481.2,44,471.6z"/>
	<path class="st106" d="M148.3,373.1c0,0-13.4,11.3-20.6,29l-16.7-3.3c0,0-3.6-15.2,18.8-21.2S148.3,373.1,148.3,373.1z"/>
	<path class="st107" d="M162.3,370.7l-23.6,30.2c0,0-4.5,4.2-0.3,5.1c4.2,0.9,43.3,8.1,43.3,8.1s-0.6-12.8,23-13.7l-7.8-22.1
		c0,0-2.4-7.8-19.7-7.8S162.3,370.7,162.3,370.7z"/>
	<path class="st108" d="M201.7,418.2c0,0-8.4,3.3-17.3,1.8c0,0,6.3,1.5,4.8,4.8l1.8,3.3L201.7,418.2z"/>
	<path class="st80" d="M204.7,400.3c0,0-19.1-1.5-23,13.7c0,0-1.2,6,2.7,6c3.9,0,10.2,0.9,17.3-1.8l7.8-4.5L204.7,400.3z"/>
	<path class="st80" d="M229.3,418.4c0,0,1-19.1-10.3-39.4l-4.2,38.3L229.3,418.4z"/>
	<path class="st109" d="M338.7,364.2c0,0-76.7-2.7-120.3,11.6l-2.4,1.5c0,0,9.9,3.8,13.3,41.2l44-0.9l62.5-5.4l48.8-5.6l9.3-0.7
		l11.2-1.4C405.1,404.4,368.1,378.5,338.7,364.2z"/>
	<path class="st110" d="M408.1,401.4l-11.4-7.9c0,0,1.5-1.5,8.1-0.9C404.8,392.6,407.6,396.6,408.1,401.4z"/>
	<path class="st111" d="M384.4,404.4l9.5,1.3l-69.1,8.3c0,0-25,2.3-32.2-0.9L384.4,404.4z"/>
	<path class="st80" d="M376.3,455.5c0,0-5.6-3.2-17.5-6.9c-11.9-3.7-39.2-13.5-74.9-19.6h-12.2c0,0-6.6,0.8,0.5,2.6
		c7.1,1.9,46.8,6.6,78.6,28.6c0,0-31.5-6.9-54.5-8.7l-13.8,0.8c0,0-1.3,11.6-13.2,11.9l8.5,15.6l27.8,0.8l-6.1-22.5l54.8,8.7
		c0,0,21.2-2.6,24.1-9.5l78.3-7.7C456.7,449.7,404.9,452.9,376.3,455.5z"/>
	<path class="st112" d="M269.7,430.8c0,0,18.9,14.4,26.8,20.8c0,0,27.1,2,54.5,8.7c0,0-12.5-11.6-49.8-22.4
		C301.2,437.9,290.5,434.4,269.7,430.8z"/>
	<path class="st110" d="M230.9,450.6c0,0-7.3,2.4-6.9-2.2c0.4-4.7,7.8-6.4,16-4.9c8.2,1.6,22,8.9,33.1,36.6l-5.3-1.3
		C267.8,478.8,253.1,442.8,230.9,450.6z"/>
	<path class="st80" d="M276.1,485.5c0,0-3.4-1.3,0-2.9l27.5,0.5l-0.5-2.6l34.9,1.6c0,0-0.8,9.5,16.4,8.7c17.2-0.8,105.9-9,105.9-9
		s3.2-0.5,0.3-5.3l1.6-2.9c0,0,4,6.4,1.9,7.9c-2.1,1.6-2.9,1.9-3.7,2.1c-0.8,0.3-105.6,9.5-105.6,9.5s-8.7,1.6-13.8-1.1l-22.2,0.3
		c0,0-7.4,1.6-15.1-2.4c-7.7-4-6.1-3.4-6.1-3.4s-1.3-1.3-8.5-1.3S276.1,485.5,276.1,485.5z"/>
	<path class="st112" d="M466.2,450.2l-10.1-1.2l-6.5-16.2c0,0-4-6.9-21.5-3.6c0,0-2.4,2.4-4.5,1.2c-2-1.2-8.1-9.3-8.1-9.3l-51.8-0.8
		c0,0-5.7,3.2-13.8,2.4c-8.1-0.8-19.4-0.4-19.4-0.4s6.5,8.9-2,8.5c-8.5-0.4-23.1-1.6-29.6-1.6s-13.8-2.8-20.6-1.2l-5-10.3l-6-1.5
		l61.6-4.4l61.4-5.2l3.4-0.7l11.2-1.4l3.1-3l47.1,17.9L466.2,450.2z"/>
	<path class="st113" d="M155.1,371.1l-21.5,29.7c0,0-2,4.3-5.9,4.7c-3.9,0.4-12.6,2.6-14.9,6.2c-2.3,3.6-3.5,53.2,20.8,88.4"/>
	<path class="st113" d="M201.8,430.9c0,0-10.5,33,7.1,84.3"/>
	<path class="st114" d="M124.9,429.4c0,0,5-4.2-1.1-6.3c-6.1-2.1-8.2-0.2-8.2-0.2"/>
	<path class="st115" d="M301.7,360.9c0,0-54.6-1.9-84.3,10v2.7C217.4,373.6,249.3,362,301.7,360.9z"/>
	<path class="st112" d="M201.6,361.1c0,0-12.2,5.1-13.9,7.6c0,0-25.3-5.7-55.4,5.5l18.5-12.5C150.8,361.6,191.3,354.6,201.6,361.1z"
		/>
	<path class="st78" d="M107.9,393.4c0,0,0.3-10.7,17.2-21.6c0.2-0.1,14.4-6.3,14.6-6.4l12.9-2.1L134.2,375c0,0-23.8,3-24.9,20.6
		L107.9,393.4z"/>
	<path class="st81" d="M121.7,494.6l-18.6-9.7c0,0-7.2-4.6-7.2,3s1.3,28.7,1.3,28.7s4.7,4.3,15.3,5.1c10.7,0.8,46.1,4.7,46.1,4.7
		s6.2-1.3,12.5,3.1c6.2,4.4,37.2,6.8,37.2,6.8s-1.5-12.6,1.5-23.1l-0.4-3.5C209.3,509.7,207.4,515.4,121.7,494.6z"/>
	<path class="st116" d="M356.1,464.6c0,0-50.5-7.9-53-7.9c-2.5,0-7.9-3.5-5.1,5.1c2.9,8.6,7.9,21,7.9,21s0.2,2,6,1.8
		c5.9-0.2,49.1-1.7,49.1-1.7s6.9-1.7,12.9,1.2c0,0,2,2.1,7.5,1.8s69.2-5.8,74.9-7c0,0,2.3-0.9,4.2-2.4c1.9-1.4,1.6-2.9,1.6-2.9
		l16.9-4.7l-13-17.1l-90.4,8.5C375.7,460.4,364.8,464.1,356.1,464.6z"/>
	<path class="st117" d="M332.9,476.3l-5.4-16.1l-23.5-4.6c0,0-9.8-2.4-6.7,6.2c3.1,9.1,7.6,19.7,7.6,19.7s0.4,3.7,6.9,3.1
		c7.7-0.3,23.9-0.7,23.9-0.7L332.9,476.3z"/>
	<polygon class="st117" points="460,452.3 466.1,472 480.5,471 468.3,453.3 	"/>
	<path class="st118" d="M312.8,364.1l92.3,40.3c0,0-44.1-30.7-66.3-40.3L312.8,364.1z"/>
	<path class="st119" d="M162.3,370.7c0,0-8.4-0.3-14,2.4"/>
	<path class="st120" d="M405.1,404.4l1.4-1.3l-67.2-42.2c0,0-71.4-4.3-121.9,12.6l-1.4,3.7c0,0,32.9-15.8,122.7-13.1
		C338.7,364.2,363,374.4,405.1,404.4z"/>
	<path class="st80" d="M218,362.5c0,0-56.1-7.9-92.6,9c0,0,31.2-18.2,95.5-22.6L218,362.5z"/>
	<path class="st80" d="M358.4,437.5c0,0-27.6-12.3-46-14.8c0,0-3.4-1.7,3.4-1.9c6.8-0.2,8.7-0.2,8.7-0.2S332.3,421.7,358.4,437.5z"
		/>
	<path class="st78" d="M263.6,416.1c0,0,7.1-0.4,14.2,2.1c7,2.5,9.6,2.8,9.6,2.8s-37.1,2.3-61.9-3.9L263.6,416.1z"/>
</g>
<g id="Layer_8">
	<path class="st121" d="M264.4,181.9c0,0,0.7,6.8-2.5,8.6c0,0,3.4,4.5,1.8,9.3c0,0,4.3,4.8,1.4,10.8c0,0,3.8,2.9,2,7.7l0.4,3.8
		c0,0,3.4,0.5,2.5,8.3c0,0,3.1,4.7,1.6,9c0,0,4.1,4.5,2.3,11.1c0,0,3.2,2.2,2.5,10.6c0,0,4.5,2.5,2.3,10.4c0,0,3.8,4.5,2.2,9
		c0,0,3.8,3.8,2.3,9.7c0,0,4.1,4.1,2.5,9.9c0,0,3.8,3.6,2.5,10.4c0,0,4.1,2.2,2.5,10.4c0,0,2.9,1.6,1.8,9.7c0,0,3.6,2,2.3,8.8
		c0,0,5.4,1.4,1.8,12.6l-6.6,0.9c0,0,0.7-7.9,2.5-9.7c0,0-4.5-3.1-2.9-8.3c0,0-3.4-4.1-2.3-9.9c0,0-2.9-5.2-1.4-10.4
		c0,0-4.1-1.3-2.5-9.5c0,0-3.6-2.7-2.3-9.3c0,0-3.8-3.9-2.2-8.4c0,0-3.6-3.1-2.2-10.2c0,0-5-2.7-2.7-10c0,0-3.4-2-2.3-10.8
		c0,0-3.4,0-2.2-8.8c0,0-4.3-1.1-1.8-9.7c0,0-3.9-2.5-2.3-10.2c0,0-3.4-0.7-2.3-10.2c0,0-4.3-2.5-2.3-10.2c0,0-2.5-2.3-1.6-9.9
		c0,0-2.3-2.7-1.3-7.9c0,0-4.1-2-3.2-7.2L264.4,181.9z"/>
	<path class="st122" d="M261.2,188c0,0-2.9,5.3-2,9.1c0,0-3-7.7,1.2-12.4L261.2,188z"/>
	<path class="st122" d="M260.8,207c0,0-1.7-8-0.2-11.7C260.6,195.3,257.4,201.5,260.8,207z"/>
	<path class="st122" d="M263.1,217.2c0,0-3-7.4-0.4-12.2C262.7,205,257.4,210.5,263.1,217.2z"/>
	<path class="st122" d="M265.4,227.4c0,0-2.4-6.2-0.4-12.6C265,214.8,260.3,223,265.4,227.4z"/>
	<path class="st122" d="M267.8,237.7c0,0-2.7-5.4-0.1-12.3C267.6,225.4,262.1,232.4,267.8,237.7z"/>
	<path class="st122" d="M269.6,247.4c0,0-2.6-4.9-0.3-10.9C269.3,236.5,263.2,244.3,269.6,247.4z"/>
	<path class="st122" d="M271.7,256.2c0,0-3.2-6.3,0.1-10.8C271.8,245.4,265.4,251.1,271.7,256.2z"/>
	<path class="st122" d="M274.1,266.9c0,0-3.5-7.6-0.2-12.5C273.8,254.4,268.1,261.3,274.1,266.9z"/>
	<path class="st122" d="M276.7,277c0,0-4.4-6.6-0.1-11.8C276.6,265.1,269.1,269.6,276.7,277z"/>
	<path class="st122" d="M278.9,287.2c0,0-3.2-7.8,0.1-11.5C279,275.7,273,278.3,278.9,287.2z"/>
	<path class="st122" d="M281,295.6c0,0-2.5-4.7,0.3-10.4C281.3,285.3,275.5,287.8,281,295.6z"/>
	<path class="st122" d="M283.4,305c0,0-2.4-6.8-0.3-11.2C283.1,293.7,277.4,297.1,283.4,305z"/>
	<path class="st122" d="M285.9,314.5c0,0-2.6-3.5-0.6-10.9C285.3,303.6,280.4,308.4,285.9,314.5z"/>
	<path class="st122" d="M287.3,324.9c0,0-2.4-9,1-12.4C288.3,312.5,282.6,314.3,287.3,324.9z"/>
	<path class="st122" d="M289.7,334.8c0,0-3.4-7,0.1-11.9C289.7,322.9,283.7,325.6,289.7,334.8z"/>
	<path class="st122" d="M292.5,343c0,0-4-6-0.5-10C292.1,333.1,285.6,334.9,292.5,343z"/>
	<path class="st122" d="M290,352.7c0,0,6.7-4.6,4.8-13.5c0,0,5.6,1.7,1.8,12.6L290,352.7z"/>
	<path class="st80" d="M343.4,360.5c0,0-18.8-4.5-30.2-4.3c-11.4,0.1-23.3,0.7-36.7,0.4s-43-0.1-57.9,7.8l2.4-15.5
		c0,0,10.3-2.8,69.1-0.9c0,0,15.9,2.6,23.9,3S332.1,351.3,343.4,360.5z"/>
	<path class="st68" d="M69,483.6c0,0,11.4,30.3-17.6,32.8c-18-2.9-17.6-24.2-4.8-36.6C59.4,467.4,69,483.6,69,483.6z"/>
	<path class="st123" d="M56.8,479.2c0,0-11.2,2.7-14.5,16.5c0,0,0.4,1.7,2.9-2.5c2.5-4.3,7.7-5.4,12.6-4.6L56.8,479.2z"/>
	<path class="st123" d="M48.3,492.8c0,0,5.4,2.1,2.7,8.5c-2.7,6.4,2.5,6.4,2.5,6.4s-11.4,5.6-9.9-4.1c0,0,4.3-2.5,4.3-5
		C47.9,496.1,48.3,492.8,48.3,492.8z"/>
	<path class="st124" d="M242.8,183.5c0,0-0.3,5.6-1.9,7c0,0,1.1,6.4,0.5,8.3c-0.5,1.9,1.1,7.8-0.8,10.2c0,0,0.8,10.2-0.5,11.5
		c0,0,1.1,9.9-1.3,11.3c0,0,1.6,9.1-0.8,10.5c0,0-1.3,2.9-0.8,4.6c0.5,1.6,0.3,8-1.6,8.8c-1.9,0.8-0.3,2.9-0.3,2.9s1.6,3.8-0.8,7
		c0,0-1.1,2.1-0.5,3.5c0.5,1.3,1.3,7.5-0.8,8.3c0,0-0.8,2.7-0.3,3.8c0.5,1.1,0.8,4.6-1.3,6.2c0,0,0,0.8-0.3,2.4
		c-0.3,1.6,0.8,6.7-1.9,8.8c0,0-0.5,1.6,0,3.2s0.8,6.2-1.9,8c0,0-0.8,1.9-0.3,3.2c0.5,1.3,0.8,6.7-1.6,8c0,0-1.1,2.9,0,4.6
		c1.1,1.6,0.3,7-1.9,8c0,0,2.1,8.8-1.1,11c0,0-1.1,2.4-0.3,3.8c0.8,1.3,0.3,7.8-1.9,8.8c0,0-1.3,2.7-0.5,4s1.3,4.3-0.3,6.7
		c0,0-1.3,2.4-0.5,3.2s0.3,7-1.1,9.4c0,0,0,1.6,0.3,3.2c0.3,1.6,0.3,6.2-1.1,7.8c0,0,2.7,7.5-0.5,11.5c0,0,2.1,7.5-0.8,12.3
		c0,0,4,5.4,0.3,11.3c0,0,3.5,8.3,0,12.1c0,0,2.9,6.7,0.3,11.8c0,0,2.1,7.2,0.3,12.3c0,0,2.9,10.2,1.3,12.3c0,0,1.9,8.6,1.3,12.1
		c0,0,2.7,4.3,1.1,7.8c0,0,0.3,9.7,2.4,10.7c0,0-5.4,2.4-5.9,4.8l-0.8-15.6c0,0-2.4-3.5-0.8-7.2c0,0-1.9-5.6-1.6-12.6
		c0,0-2.4-5.1-1.3-11.5c0,0-1.3-2.7,0-9.4c0,0-1.9-0.3,0-11c0,0-4,2.9-0.3-10.7c0,0-3.2-4.3-0.3-13.4c0,0-1.9-6.2,1.3-12.9
		c0,0-2.9-1.3,0.5-11.8c0,0-2.9-2.9,0.3-11.5c0,0-2.9-4,1.6-11.8c0,0-2.1-6.4,0.5-10.7c0,0-1.6-6.2,2.9-13.9c0,0-3.2-4,0-9.9
		c0,0-1.3-7,2.1-12.1c0,0-3.5-6.4,3.8-13.4c0,0-6.4-0.5,1.6-10.5c0,0-6.7-3.8,2.1-11c0,0-8-2.4,1.3-11.3c0,0-4.3-5.4,1.3-10.7
		c0,0-4.8-4.8,0.8-11.5c0,0-4.8-5.4,2.7-11.8c0,0-7-3.5,1.6-12.3c0,0-7.8-1.3,1.3-11c0,0-8-0.8,0.3-9.9c0,0-6.4-3.5,0.5-12.3
		c0,0-5.6-0.5-0.5-8.3c0,0-5.4-0.5-5.6-5.4S242.8,183.5,242.8,183.5z"/>
	<path class="st125" d="M221.8,166.4c0,0,1.6,1.6,4.4,0.9c2.7-0.8,1,11,1,11l-7,0.1L221.8,166.4z"/>
	<path class="st126" d="M259.9,89.8l-0.4,13.8l-6.9,0.4l0.8,9.2c0,0-9.2,0-8.4,9.6l13.8,0.4c0,0-1.9,5,0.8,8.4
		c2.7,3.4,4.2,5.7,4.2,5.7l-0.4,15.3c0,0,1.1,3.1,3.4,3.8l0.3,4.2l-9.8-0.7l-5.6-3.4l4.4-0.5l-0.8-16.4l-14.4,0.2l0.3,16.6l8.5,0.2
		l-11.1,4.5h-6c0,0-1.4-4.1,0.2-7.2l0.5-18.2c0,0,0-5.5,2.5-7.4c0,0-2.3-10.6,3.9-15.8l0.2-7.8l-6.6,0.2l-0.8-37.9L259.9,89.8z"/>
	<path class="st127" d="M239.6,112.5c0,0-3.4,10.4-1.2,11c2.2,0.5,4,0.1,4,0.1l-4.1,1.9l-0.1,3.3c0,0-2.6,3.4-1.5,6.3
		c1.1,2.9,1.4,20.4,1.4,20.4l-2.7,0.3c0,0-3.3,4.2-2.7,5.3c0,0-1.9-3.8,0.2-7.2c0,0-1.7-23.4,3-25.5
		C235.6,128.3,233.1,117.9,239.6,112.5z"/>
	<path class="st128" d="M251.6,156.5h-2l-11.1,4.5h-6c0,0-7.5,1-7.5,13s9.9,7.6,9.9,7.6l9.9,1.9c0,0,4.7,1.1,6.3-1.7
		c0,0,1.7,2.5,6.1,2.8c4.4,0.2,17.6-0.2,17.6-5.9c0-5.7,3-11-3.4-16.3c0,0-1.4-2.3-4.4-2.2s-9.7-0.8-9.7-0.8L251.6,156.5z"/>
	<path class="st129" d="M207.9,189.5c0,0,16.3-2.5,15.2-17.6c-1.1-15-15.2-10.2-15.2-10.2s-12.5,8.3-3.6,26.9L207.9,189.5z"/>
	<path class="st130" d="M209.8,181.3c0,0,8.4-4.7,10.5-11.5c2.4-8.1-9.6-12.4-12.5-4.4c-0.8,2.3-1.2,5.6-0.6,10c0,0.2,0,0.5,0.1,0.7
		C207.2,177.4,207.4,182.2,209.8,181.3z"/>
	<path class="st131" d="M272.7,166.8"/>
	<path class="st132" d="M271.1,167c0,0,3.8-12.1,13.2-6.5c9.4,5.6,15.6,18.8,8,27.2S272.5,176.9,271.1,167z"/>
	<path class="st133" d="M287.5,172.3c-2.1-4.6-6.2-10.2-12.6-11.5l-2.2,2.6c-0.3,0.5-1.7,3-1.6,3.6c0.5,5.9,9,26.1,15.5,16.9
		C288.8,180.9,289.1,175.8,287.5,172.3z"/>
	<path class="st90" d="M242.8,183.5c0,0,0.3,4.9-1.9,7l-1.7,1.3L242.8,183.5z"/>
	<path class="st90" d="M241.4,198.8c0,0-0.9,1.5-2,2.8c0,0,1.2-2,1.1-11.2C240.6,189.5,241.4,198.8,241.4,198.8z"/>
	<path class="st90" d="M240.6,209l-1.4,1.6c0,0,2.6-3.6,1.6-11.8C242.1,203.8,242.8,206.1,240.6,209z"/>
	<path class="st90" d="M237.6,232.3c0,0,2.3-1,2.1-11.6C239.7,220.7,242.1,230.7,237.6,232.3z"/>
	<path class="st90" d="M236.5,243.6c0,0,2.4-2.7,1.9-11.8C238.4,231.8,240.8,241.1,236.5,243.6z"/>
	<path class="st90" d="M232.7,257.5c0,0,3.8-2.8,4-12C236.8,245.5,239.9,254.6,232.7,257.5z"/>
	<path class="st90" d="M232.7,268.2c0,0,1.8-1.2,2-11.6C234.7,256.6,237.7,263.3,232.7,268.2z"/>
	<path class="st90" d="M233.1,277.4l-1.6,2c0,0,2-7.2,2.2-13.1C233.8,266.2,236.1,275.4,233.1,277.4z"/>
	<path class="st90" d="M231.5,287.3l-1.4,1.2c0,0,1.8-6.5,3-11.2c0,0-0.7,3.7,0.1,4.7C234,283,232.6,286.4,231.5,287.3z"/>
	<path class="st90" d="M229.4,298.5l-1.3,1.8c0,0,2.5-8.3,3.5-13.1C231.5,287.3,232.2,297,229.4,298.5z"/>
	<path class="st90" d="M225.9,310.6c0,0,1.5-0.5,3-9.8C228.9,300.8,231.3,308,225.9,310.6z"/>
	<path class="st90" d="M224.2,322.4c0,0,5.5-3,2.6-11.5C226.8,311,226.5,319.6,224.2,322.4z"/>
	<path class="st90" d="M223.7,333.7c0,0-0.9,1.1-1.5,3.6c0,0,2.7-8.9,2.2-14.2C224.5,323.1,229.2,328.3,223.7,333.7z"/>
	<path class="st90" d="M222.7,344.7c0,0-2,1.7-2,3.8c0,0,3.1-10.9,3.1-14.8C223.7,333.7,225.9,341.3,222.7,344.7z"/>
	<path class="st90" d="M220.5,357.3c0,0-1.7,1.1-1.9,2.8c0,0,3.6-8.2,3-14.1C221.7,346,225.4,351,220.5,357.3z"/>
	<path class="st90" d="M219.2,369c0,0-1.6,2-1.7,3.6c0,0,2.5-8.5,2.3-13.3c0,0,0.5,3.4,0.9,4.2C221,364.3,220.6,366.8,219.2,369z"/>
	<path class="st90" d="M218.1,380.6c0,0-1.7,2-1.9,3.6c0,0,2.5-9.4,2.4-14C218.6,370.3,221.6,375.1,218.1,380.6z"/>
	<path class="st90" d="M217.3,391.6c0,0-1.6,2.4-1.5,3.8c0,0,2.8-10.7,2.3-14.8C218.1,380.6,219.5,388.2,217.3,391.6z"/>
	<path class="st90" d="M216.8,403.1c0,0-0.9,1.1-1.4,2.6c0,0,2.3-9.2,1.9-13.4C217.2,392.3,220.2,398.3,216.8,403.1z"/>
	<path class="st90" d="M216.2,414.9c0,0-1.2,1.8-1.5,3.7c0,0,2-10.2,1.9-14.7C216.6,403.9,218.9,410.6,216.2,414.9z"/>
	<path class="st90" d="M216.2,426.7c0,0-1.3,0.4-2.1,3.7c0,0,2.2-7,1.8-15C216,415.5,219.6,422.4,216.2,426.7z"/>
	<path class="st90" d="M216.2,438.8c0,0-1.2,1.4-1.9,3.4c0,0,2.3-11,1.9-15.5C216.2,426.7,220.3,434.9,216.2,438.8z"/>
	<path class="st90" d="M216.5,450.6c0,0-1.6,1.4-2,2.9c0,0,2.9-8.6,1.7-14.7C216.2,438.8,219.7,446.4,216.5,450.6z"/>
	<path class="st90" d="M216.8,462.9c0,0-1.5,1.5-2,3.5c0,0,2.4-12,1.7-15.8C216.5,450.6,218.7,457.6,216.8,462.9z"/>
	<path class="st90" d="M218.1,475.3c0,0-0.8,0.9-1.1,4.4c0,0,0.2-13.7-0.2-16.8C216.8,462.9,219.8,472,218.1,475.3z"/>
	<path class="st90" d="M219.5,487.3c0,0-1.2,1.7-1.4,3.6c0,0,0.3-11.5,0-15.7C218.1,475.3,220.2,485.3,219.5,487.3z"/>
	<path class="st90" d="M220.5,495.1c0,0-0.9,1.5-1.3,2.7c0,0,0.9-7.2,0.2-10.4C219.5,487.3,222.3,491.3,220.5,495.1z"/>
	<path class="st90" d="M238.8,198.8c0,0-2.8-3.9-0.5-8.3C238.2,190.5,233.1,197.9,238.8,198.8z"/>
	<path class="st90" d="M238.7,211.1c0,0-4-3,1.1-13.1C239.9,198,231,207.5,238.7,211.1z"/>
	<path class="st90" d="M238,221c0,0-4.8-2.3,1.3-10.7C239.2,210.3,229.2,218.8,238,221z"/>
	<path class="st90" d="M237.3,231.8c0,0-6-0.7,1.9-11.7C239.2,220.1,227.5,230.4,237.3,231.8z"/>
	<path class="st90" d="M235.6,244.3c0,0-5.3-1.6,2.5-13.3C238.1,231,226.4,239.9,235.6,244.3z"/>
	<path class="st90" d="M232.8,256.2c0,0-2.9-3.9,3.5-12.3C236.3,243.9,226.6,249.3,232.8,256.2z"/>
	<path class="st90" d="M231.9,267.7c0,0-3.6-6.4,1.7-12.1C233.6,255.6,226.1,260.5,231.9,267.7z"/>
	<path class="st90" d="M230.2,278.4c0,0-1.9-7.2,2.8-11.5C233,267,225.4,271.2,230.2,278.4z"/>
	<path class="st90" d="M228.8,289.7c0,0-4.2-4.3,2.7-12.2C231.5,277.5,220.3,285.8,228.8,289.7z"/>
	<path class="st90" d="M226.7,300.7c0,0-2.4-6.1,3.5-11.6C230.2,289.1,220.1,294.2,226.7,300.7z"/>
	<path class="st90" d="M225.1,311.1c0,0-3.1-1.7,2.5-10.9C227.6,300.2,217.8,308.6,225.1,311.1z"/>
	<path class="st90" d="M221.5,324.5c0,0-0.3-8.5,4.5-13.7C226,310.9,218.2,314.7,221.5,324.5z"/>
	<path class="st90" d="M219.2,336.6c0,0-0.3-9.6,4.5-13.3C223.7,323.4,218.6,322.6,219.2,336.6z"/>
	<path class="st90" d="M219.2,346.5c0,0-1-7.5,3.2-11.7C222.4,334.8,215.2,337.1,219.2,346.5z"/>
	<path class="st90" d="M216.2,360.5c0,0-0.7-5.2,4.6-14C220.9,346.5,214.9,348.9,216.2,360.5z"/>
	<path class="st90" d="M215.7,371.2c0,0-0.8-6.5,2.3-10.6C218,360.6,212.7,361.9,215.7,371.2z"/>
	<path class="st90" d="M214.1,383c0,0-1.7-5,3.1-11.8C217.2,371.3,210.9,375.8,214.1,383z"/>
	<path class="st90" d="M213.8,394.5c0,0-1.6-7.6,2.2-11.9C216,382.6,210.3,384.5,213.8,394.5z"/>
	<path class="st90" d="M213.3,406.3c0,0-0.4-8.7,1.8-11.1C215.1,395.3,210.2,397.9,213.3,406.3z"/>
	<path class="st90" d="M211.9,419.2c0,0-1.2-7.7,3.1-14.6C215.1,404.6,209.8,407.5,211.9,419.2z"/>
	<path class="st90" d="M212.2,432.6c0,0-1-9.5,2-15C214.2,417.6,207.6,422.8,212.2,432.6z"/>
	<path class="st90" d="M212.5,443.4c0,0-0.3-9.8,1.6-14.8C214.1,428.6,207.9,445.5,212.5,443.4z"/>
	<path class="st90" d="M212.5,454.3c0,0-0.3-8.2,1.7-14.3C214.2,440,210.2,449,212.5,454.3z"/>
	<path class="st90" d="M212.5,463.7c0,0,1-10.1,1.8-12.3C214.3,451.4,209.8,457.6,212.5,463.7z"/>
	<path class="st90" d="M213.8,475.3c0,0-2.1-10,1.1-12.7C215,462.6,209.3,463.1,213.8,475.3z"/>
	<path class="st90" d="M215.4,487.9c0,0-1.3-12.5,0.8-14.2C216.2,473.7,211.6,474.3,215.4,487.9z"/>
	<path class="st90" d="M216.2,495.1c0,0-1.6-6.1,1.1-8.8C217.3,486.3,212.4,489.1,216.2,495.1z"/>
	<path class="st90" d="M217,510.7l-0.8-15.6c0,0,1.2,9.9,6.7,10.7C222.9,505.8,217,507.3,217,510.7z"/>
	<path class="st90" d="M240.4,209.3c0,0,0.6,8-1.3,11.9C239,221.3,242.1,221.7,240.4,209.3z"/>
	<path class="st129" d="M235.4,161.2c0,0,9.3,0.8,8.5,10.4c-0.8,9.5-8.5,18.4-8.5,18.4s11.7-5.3,13.2-11S250.1,159.2,235.4,161.2z"
		/>
	<path class="st134" d="M235.4,189.9c0,0-11.6-16.7,0-28.8c0,0,8.9-2.1,8.5,10.4C243.4,184,235.4,189.9,235.4,189.9z"/>
	<path class="st135" d="M208.7,187.4c0,0-0.6,11.7-8.5,11.7c0,0,4.7,10.3-5.3,10.3c0,0,4.3,11.6-5.9,12c0,0,2.6,10.1-6.1,10.3
		c0,0,3.9,9.7-5.9,10.3c0,0,3.7,11.2-6.5,10.7c0,0,2.8,12.2-6.3,11c0,0,3.7,9.7-6.3,9.9c0,0,3.4,11.2-6.3,11.2
		c0,0,2.2,10.3-6.5,10.1c0,0,2,11.2-6.5,10.3c0,0,3,10.5-6.5,10.7c0,0,2.8,10.1-5.9,9.7c0,0,1.8,12-6.9,11.2c0,0,3.9,9.7-5.9,9.3
		c0,0,3.2,11.4-6.7,11.4c0,0,5.1,10.1-5.5,10.5c0,0,4.1,9.7-5.3,9.5c0,0,1.6,12-6.3,12.2c0,0,3,11.4-5.1,10.3c0,0,3.4,11.6-5.1,11.6
		c0,0,5.1,9.1-3.9,10.5c0,0,2.6,10.5-4.3,10.7c0,0,2.2,10.1-4.1,11.2c0,0,4.1,11.6-3.2,12c0,0,2.4,10.3-2.8,10.3c0,0,1.8,5.7,0,7.1
		l10.1,7.5c0,0,2,2.8-2.6,2.4c0,0-4.5-5.9-8.9-7.1l-4.7-0.8c0,0,1-9.1,2.8-9.3c0,0-2.2-10.6,5-10.5c0,0-3.1-11.3,2.8-11.9
		c0,0-1.1-11.7,4.2-11.1c0,0-2.9-10,4.7-11c0,0-3.8-9.3,4-10.5c0,0-4.5-10.8,5-11.8c0,0-4.2-10.5,5.1-10.3c0,0-3.5-12.2,6.2-12.1
		c0,0-4.5-9.1,4.8-10.1c0,0-3-10.2,6-10.1c0,0-3.3-11.5,6.7-11.2c0,0-3.8-9.5,5.4-9.8c0,0-3-10.2,6.9-11c0,0-3.5-9.5,5.9-9.7
		c0,0-2.5-10.5,6.4-11.3c0,0-2.5-8.9,6.4-9.8c0,0-2.5-9.8,6.2-10.2c0,0-2.4-10,6.9-11c0,0-2.1-9.5,6.2-10c0,0-3.5-8.9,6.4-11
		c0,0-3-10,6.2-10.5c0,0-3-9.9,5.8-10.5c0,0-3.5-9.7,6-10.7c0,0-4-11.2,6.1-11.7c0,0-2.1-9.6,4.9-10.3c0,0-1.8-9.5,7.7-11.9
		L208.7,187.4z"/>
	<path class="st136" d="M198.7,198.3c0,0,3-7.2,6.8-9.2C205.4,189.1,198,191.1,198.7,198.3z"/>
	<path class="st136" d="M193.8,208.6c0,0,0.9-4.5,3.8-6.7C197.6,201.9,192.3,202.7,193.8,208.6z"/>
	<path class="st136" d="M187.7,220.4c0,0,1.1-6.2,4.8-9C192.5,211.4,184.5,212.6,187.7,220.4z"/>
	<path class="st136" d="M181.7,231.1c0,0,0.4-4.2,4.9-7.9C186.6,223.2,179.4,224.1,181.7,231.1z"/>
	<path class="st136" d="M175.9,241.6c0,0,0.4-4.3,4.3-7.6C180.2,234,174.1,235.1,175.9,241.6z"/>
	<path class="st136" d="M169.7,252.1c0,0,0.8-5.6,4.6-7.7C174.3,244.4,167.9,244.5,169.7,252.1z"/>
	<path class="st136" d="M163.3,263.1c0,0,1.2-6.4,4.9-7.8C168.2,255.3,162.2,253.4,163.3,263.1z"/>
	<path class="st136" d="M157.2,273.1c0,0,1-5.5,5-7.6C162.2,265.5,156.3,264.6,157.2,273.1z"/>
	<path class="st136" d="M150.2,284.1c0,0,1.5-5.9,5.2-7.8C155.4,276.3,149.7,274.4,150.2,284.1z"/>
	<path class="st136" d="M144,294.3c0,0,1.5-6,4.8-7.3C148.8,287,142.8,286.1,144,294.3z"/>
	<path class="st136" d="M137.6,304.1c0,0,4.3-2.7,4.4-7.5C142,296.6,137.4,296.7,137.6,304.1z"/>
	<path class="st136" d="M131.1,315.4c0,0,3.6-4.4,4.3-8.1C135.4,307.3,131.6,306.5,131.1,315.4z"/>
	<path class="st136" d="M125.2,325.1c0,0,4.2-4.4,4.2-7.7C129.4,317.4,124.5,317.9,125.2,325.1z"/>
	<path class="st136" d="M118.3,336.1c0,0,3.9-4.3,4.2-8.4C122.5,327.8,118.1,328.2,118.3,336.1z"/>
	<path class="st136" d="M112.9,345.9c0,0,3.5-3.8,3.3-7.4C116.2,338.5,112.3,339.1,112.9,345.9z"/>
	<path class="st136" d="M106.2,357.1c0,0,3.2-1.7,4.2-8.9C110.4,348.2,105.6,349,106.2,357.1z"/>
	<path class="st136" d="M100.2,367.2c0,0,3.8-2.9,3.7-7.8C103.8,359.3,100.1,359.3,100.2,367.2z"/>
	<path class="st136" d="M95.4,377.3c0,0,2.9-3.3,3.2-7.8C98.6,369.5,93.5,369.4,95.4,377.3z"/>
	<path class="st136" d="M89.1,389.4c0,0,3.1-2.9,2.7-9.1C91.8,380.3,88.6,380.3,89.1,389.4z"/>
	<path class="st136" d="M84,399.6c0,0,3-3.1,3.3-8.4C87.3,391.3,82.9,392.4,84,399.6z"/>
	<path class="st136" d="M79,411.4c0,0,2.7-3.1,3-9C82,402.4,77.9,402.2,79,411.4z"/>
	<path class="st136" d="M75.1,421.9c0,0,2.5-2,2.8-8C77.8,413.9,75.2,415.2,75.1,421.9z"/>
	<path class="st136" d="M70.4,432.9c0,0,3.1-3.5,2.8-7.9C73.2,424.9,69.8,425.1,70.4,432.9z"/>
	<path class="st136" d="M66.2,444c0,0,2.6-3,2.9-8.4C69.1,435.6,65.9,436.7,66.2,444z"/>
	<path class="st136" d="M63.3,455.9c0,0,1.9-2.4,1.8-8.9C65.1,447,62.2,449.5,63.3,455.9z"/>
	<path class="st136" d="M58.3,466.3c0,0,4.1-0.8,3.6-8.8C61.9,457.6,57.8,460.7,58.3,466.3z"/>
	<path class="st136" d="M55.5,475.7c0,0,0.8-8.3,2.8-9.3c0,0-0.4,7.8,1.6,8.2c2,0.4,10,6.1,9.1,9C69,483.6,65.4,476.9,55.5,475.7z"
		/>
	<path class="st124" d="M290.9,185.2c0,0,7.8,3.2,9.1,12.3c0,0,6.1,3,6.1,11.4c0,0,7.2,2.9,6.4,10.9c0,0,8,3.4,6.4,9.6
		c0,0,8.3,3.4,7,12c0,0,7,2.9,6.9,10.6c0,0,8.6,3.5,6.9,11.7c0,0,6.4,1,6.6,9.6c0,0,7.2,4,6.1,11.1c0,0,6.6,2.1,6.4,10.7
		c0,0,8.2,0.8,7.4,10.6c0,0,6.6,1.9,6.2,10.6c0,0,8,3.2,7.5,11.4c0,0,6.9,2.7,6.1,9.8c0,0,7.7,3,7.5,11.1c0,0,6.7,3.4,6.7,9.8
		c0,0,7.5,3.8,7,10.7c0,0,7.5,3.8,6.6,10.4c0,0,7.4,2.2,7,9.9c0,0,6.9,2.4,7,10.4c0,0,10.1,6.9,5,12.5c0,0-7.2-3.4-8.2-11.1
		c0,0-5.1-1-7.7-10.6c0,0-5.9-2.6-5.8-10.9c0,0-7-1.3-7.2-9.8c0,0-7.2-1-7-10.7c0,0-6.4-3.2-7.2-10.9c0,0-7.4-2.1-6.4-10.1
		c0,0-5.4-2.1-6.4-10.1c0,0-6.7-3-7.5-11.1c0,0-5.1-2.4-6.2-11.4c0,0-5.4-2.9-6.7-10.7c0,0-6.9-3.4-5.6-9.9c0,0-5.6,1-6.4-11.1
		c0,0-7.7-2.1-7.2-10.1c0,0-6.6-2.7-6.7-11.7c0,0-6.2-0.2-7.4-10.9c0,0-6.9-2.7-7-11.4c0,0-7-3.7-6.2-9.6c0,0-3.7,0.1-6.6-10.7
		c0,0-7-2.5-6.7-11.5c0,0-6.7-3.8-8.3-10.9L290.9,185.2z"/>
	<path class="st137" d="M290.9,185.2c0,0,8.5,7.1,5.3,9c0,0-5.1-0.6-7.8-7c0,0,2.2,9,8.3,10.9c0,0,2.6,2.2,3.4-0.6
		C300,197.5,299.8,190,290.9,185.2z"/>
	<path class="st137" d="M300,197.5c0,0,6.2,4.9,3.4,7.8c0,0-3.5,0.5-6.7-7.2c0,0-0.8,8.5,6.7,11.5
		C303.4,209.5,311.4,207.3,300,197.5z"/>
	<path class="st137" d="M306.1,208.9c0,0,7,5.8,4.3,7.4s-4.5-2.9-7-6.8c0,0,1,9.7,6.6,10.7C315.5,221.3,311.9,211,306.1,208.9z"/>
	<path class="st137" d="M318.9,229.4c0,0,2-5.7-6.4-9.6c0,0,7.8,6.7,3.8,7.1s-6.4-6.6-6.4-6.6s-1.3,7.1,6.2,9.6
		C316.2,229.8,317.3,230.7,318.9,229.4z"/>
	<path class="st137" d="M325.9,241.4c0,0,2.2-7.6-7-12c0,0,8.6,8.7,4.1,9.3c-4.5,0.7-6.9-8.9-6.9-8.9s-0.2,7.5,7,11.4
		C323.2,241.2,324,242.7,325.9,241.4z"/>
	<path class="st137" d="M328.9,243.2c0,0,3.8,6.7,1.9,6.5c-1.9-0.2-6.7-4.5-7.6-8.5c0,0,0.5,10.3,7.4,10.9c0,0,2.9,1.2,2.4-1.7
		C332.5,247.5,331.8,246.3,328.9,243.2z"/>
	<path class="st137" d="M339.7,263.6c0,0,1.9-5.5-3.3-9.3c0,0,3.3,6.2,0.5,5.7c-2.8-0.5-6.4-7.9-6.4-7.9s0.4,10.6,6.7,11.7
		C337.3,263.8,338.2,264.8,339.7,263.6z"/>
	<path class="st137" d="M344,266.1c0,0,2.6,5.8,0,5.3c-2.6-0.5-4.6-4.3-5.5-7.1l-1.2-0.6c0,0-0.4,7.6,7.2,10.1
		C344.5,273.9,348.9,272.9,344,266.1z"/>
	<path class="st137" d="M352.4,284.3c0,0,1.3-4.3-1.3-6.4c0,0,0.9,4.1-0.9,3.6c-1.7-0.5-5.4-4.8-5.7-7.7c0,0,0.4,10.6,6.4,11.1
		C350.9,284.9,352.1,284.6,352.4,284.3z"/>
	<path class="st137" d="M355.7,286.4c0,0,2.9,6.9,1,6.4s-5-5.2-4.4-8.4c0,0-6.2,4.1,4.2,10.6C356.5,294.9,362.6,296,355.7,286.4z"/>
	<path class="st137" d="M363.1,297.1c0,0,3.3,5.9,0.3,5.9c-3,0-4.6-8-4.6-8l-2.2-0.2c0,0,0.5,6.9,6.7,10.7c0,0,2.6,2.2,2.9,0
		C366.4,303.4,366.4,299.6,363.1,297.1z"/>
	<path class="st137" d="M370.1,308.6c0,0,2.3,2.5,2.3,7.5c0,0-6.1,4.8-9.1-10.6c0,0,7,10.9,7.1,5.8
		C370.4,311.4,370.5,310.1,370.1,308.6z"/>
	<path class="st137" d="M377.4,320c0,0,2.7,2.2,2.5,7.5c0,0-9.1,1.3-10.4-10.6c0,0,6,7.5,8.2,5.5C377.7,322.5,378.5,321.4,377.4,320
		z"/>
	<path class="st137" d="M384.3,331c0,0,1.6,5.2-0.3,4.7c-1.9-0.5-5.4-8.1-5.4-8.1L377,328c0,0-0.3,5.5,6.4,10.1
		C383.4,338.1,388.8,338.2,384.3,331z"/>
	<path class="st137" d="M390.3,340.2c0,0,3.7,6.7,0.5,6c-3.2-0.7-4.9-9-4.9-9l-2.6,0.8c0,0-0.8,7.2,6.4,10.1
		C389.8,348.2,397.9,348.7,390.3,340.2z"/>
	<path class="st137" d="M397.9,351.9c0,0,2.9,5.5,0.3,5.4c-2.6-0.1-5.9-9.2-5.9-9.2l-2.4,0.1c0,0,0.3,6.5,7.2,10.9
		C397.1,359.1,404.3,359.6,397.9,351.9z"/>
	<path class="st137" d="M403.4,360.7c0,0,3.3,4.7,1.1,5.6s-5.2-7.3-5.2-7.3l-1.2,0.1c0,0,0.7,9,6.1,10.6
		C409.4,371.4,407.5,363.3,403.4,360.7z"/>
	<path class="st137" d="M411.5,372.1c0,0,2.2,4.9-0.3,4.5s-4.9-6.6-4.9-6.6l-2.2-0.2c0,0,2.9,9.3,8.2,9.3
		C412.3,379.1,415.7,377.4,411.5,372.1z"/>
	<path class="st137" d="M418.8,382.8c0,0,1.8,5.8-1.1,4.7s-3.8-8.2-3.8-8.2l-2.6,0.3c0,0,1.3,7.3,6.6,10.9
		C417.9,390.5,423.9,388.7,418.8,382.8z"/>
	<path class="st137" d="M425.4,392.7c0,0,2.5,6.2-0.4,5.1c-2.9-1.1-5.2-8-5.2-8l-2.7,0.7c0,0,1.9,8.3,7.7,10.6
		C430.6,403.3,428.1,393.7,425.4,392.7z"/>
	<path class="st137" d="M432.5,404.2c0,0-2.9,5.1-4.9-3.3c0,0-1.5,1.3-2.8,0.1c0,0,0.9,8.1,8.2,11.1
		C432.9,412.1,436.8,407.8,432.5,404.2z"/>
	<path class="st97" d="M223.1,505.8c0,0-7.6,0-9.6,8.8c-2,8.8-0.9,15.8,2.8,20.8C219.9,540.3,239.8,528.9,223.1,505.8z"/>
	<path class="st138" d="M227.7,518.4c0,0-2.2-7.7-7.5-4.2s1.2,6.9,1.2,9.1s1.5,10.1-5.1,12.1C216.3,535.4,232.5,538,227.7,518.4z"/>
	<g>
		<path class="st139" d="M223.1,505.8c0,0,6,11.1,3.1,24.7c0,0-2.3,6.6-9.9,4.8c0,0,12.6,6.4,16.1-6.7
			C233.8,517.7,232.2,510.2,223.1,505.8z"/>
	</g>
	<g>
		<path class="st140" d="M219.4,536.1c0,0,8.8,0,12.7-15.9C232.1,520.1,234.1,539.3,219.4,536.1z"/>
	</g>
	<path class="st41" d="M60.1,476.5c0,0-2.7,4.3-0.8,10.7c1.9,6.4,6,24.6-10.5,23.6c0,0-2.5-0.6,3.1-3.5c5.6-2.9,6.8-8.9,4.1-19
		c-2.7-10.1,1.2-14.7,1.2-14.7L60.1,476.5z"/>
	<path class="st141" d="M59.9,489.1c0,0-1.4,17.2-7.9,18.2c0,0-5.2,2.7-3.1,3.5S66,510.8,59.9,489.1z"/>
	<path class="st80" d="M450.1,426.1c0,0-6.1-9-15.4-6.4c-9.3,2.6-10.8,4.4-10.8,4.4l-9-10.2c0,0-9.3,1.5-11.3-2.6l-2.6-2.6
		l-65.7,4.6l54.1-6.9l4.4-0.5l11.2-1.4l3.3-1.8l46.9,16.6L450.1,426.1z"/>
</g>
<g id="Layer_2">
	<path class="st142" d="M313.3,37.8c0,0,3.2,1.1,2.9,3.6l0.4-5.6c0,0-1-1.8-4.5-4.2l-44.7,0.2c0,0-5.3,0-7.1,5.2
		c-1.7,5.2-14.9,54.4-14.9,54.4s2.9,8,8.6,4l14.3-52.7c0,0,2-4,7.2-4.3C280.7,38.1,313.3,37.8,313.3,37.8z"/>
	<path class="st143" d="M301,20.3l-50.3-0.3L243.4,31c0,0-12.7,3.8-8.9-8.5l-14.2,0.3l-5.4,18l12,25l-0.3,7c0,0,5.7,1.6,6,7.6
		l12.9,11L260.4,37c0,0,1.4-4.7,7.1-5.2c5.7-0.5,44.7-0.2,44.7-0.2L301,20.3z"/>
	<path class="st144" d="M398.9,128l-82.7-86.5c0,0-0.9-3.5-2.9-3.6s-37.8,0.6-37.8,0.6s-6.1,0.5-7.2,4.3s-14.3,52.7-14.3,52.7
		s8.2-2,11.9,2.2c3.7,4.2,73.1,74.9,73.1,74.9l11.4-32.1c0,0,2.6-14.8,23.5-13.9C394.9,127.4,398.9,128,398.9,128z"/>
	<path class="st145" d="M260.4,37l-12.1-12.6l-4.9,6.7l-5.9,0.7l-17.2-8.9l-5.4,18l12,25l-0.3,7c0,0,5.8,1.9,6,7.6l12.9,11L260.4,37
		z"/>
	<polygon class="st146" points="254.7,20 265.9,31.9 263.9,32.5 252.3,20.4 	"/>
	<path class="st147" d="M315.8,38.5c0,0,0.7-4.1-3.9-5.7c-4.5,0-26.5-0.1-40.3,0.1c-4.7,0.1-6,1.7-6,1.7l3,2.7c0,0,0.8-1.4,6.2-1.6
		c9.4-0.1,35.9-0.5,37.7-0.2C315.1,36,315.8,38.5,315.8,38.5z"/>
	<path class="st148" d="M245.5,91.3c0,0,2.4,6.9,6.5,5c0,0,7-49,9.8-57.1c2.7-8.1,0.2-5,0.2-5s-1.5,1.7-2.6,6.3
		S245.5,91.3,245.5,91.3z"/>
	<path class="st146" d="M274.8,39.6l87.7,88.3l-2.5,0.9l-89-89c0.5-0.9,1.3-1,1.9-1.2l0.8-0.1C274.2,38.9,274.4,39.2,274.8,39.6z"/>
	<path class="st149" d="M268.4,42.7l87.7,88.7c0,0-4.6,5-5.6,9c-0.9,4-11.4,32.1-11.4,32.1L265,96.8c0,0-4.4-3.3-10.9-1.4
		L268.4,42.7z"/>
	<path class="st150" d="M220.3,22.8c0,0-1.4,4.5,2.8,8.9c4.1,4.5,8.7,9.4,8.7,9.4s2.2,2.1,4.5-1.2c2.2-3.3,5-8.2,5-8.2
		s-10.1,2.8-6.7-9.2L220.3,22.8z"/>
	<path class="st151" d="M301,20.3l-50.3-0.3L243.4,31c0,0-12.7,3.8-8.9-8.5l-14.2,0.3l-5.4,18l12,25l-0.3,7c0,0,5.7,1.6,6,7.6
		l12.9,11L260.4,37c0,0,1.4-4.7,7.1-5.2c5.7-0.5,44.7-0.2,44.7-0.2L301,20.3z"/>
	<path class="st151" d="M398.9,128l-82.7-86.5c0,0-0.9-3.5-2.9-3.6s-37.8,0.6-37.8,0.6s-6.1,0.5-7.2,4.3s-14.3,52.7-14.3,52.7
		s8.2-2,11.9,2.2c3.7,4.2,73.1,74.9,73.1,74.9l11.4-32.1c0,0,2.6-14.8,23.5-13.9C394.9,127.4,398.9,128,398.9,128z"/>
	<path class="st152" d="M415.6,126.5l-43.8-0.4c0,0-16.1-0.6-21.2,14.3c-5.1,14.9-15,43-15,43s-2.9,5.5,1.8,9.9s67.2,70.9,67.2,70.9
		s3.7,0.7,4.4,6.6c0.7,5.8,7.2,19.5,7.2,19.5s3.5,3.3,18.1-0.3c9.9-0.4,7.4,19.9,2.3,25l12.6-0.4c0,0,0.4,12.1-3.7,13.9l2.2,3.7
		h10.2l48.6,54.7c0,0,5.6,6.4,9.5,5.6c0,0,2.2,12.6,6.1,17.3L584,410c0,0,7,5.6,7.3,12l53.4-4.8c0,0-18.3-54.6-24.7-70
		c-6.4-15.4-14.5-26.5-21.4-33.8C591.7,306.2,415.6,126.5,415.6,126.5z"/>
	<path class="st153" d="M670.3,485.2l-1-43.7c0,0,0.8-8.1-7.3-20.4c-8.1-12.3-10.7-14.1-17-14.1l-3.7,0.3l3.4,10.1l-53.4,4.8
		c0,0-0.9-6-7.3-12l-61.8-0.3c0,0-5.7-1.2-9.6,6.3c-3.9,7.6-9.2,13.4-8.9,25.1s5,91.4,5,91.4l19.6,14.7c0,0,7.1-9.7,31.4-13.4
		s35.1-6,35.1-6l70.7-8.4L670.3,485.2z"/>
	<path class="st154" d="M443.1,158.7c0,0,79.3,81.3,56.3,94.7l-8.3,4l57.9,59.1c0,0,41.9,1.9,49.7-3l-183-187L443.1,158.7z"/>
	<path class="st155" d="M425.5,149.1c0,0-9.4-9.4-9.6-12.4l-39.3-0.2l3.7,3.4h33.9C414.1,139.9,418.2,146.6,425.5,149.1z"/>
	<path class="st156" d="M362.5,127.9l183.6,190c0,0,28.8,4.3,54-2.5c0,0,12.9,14,19.8,31.8c0,0-30.4-7.6-53.9,1.6
		c0,0-1.5-8.4-31.1-38.7c-29.6-30.4-175-181.2-175-181.2L362.5,127.9z"/>
	<path class="st156" d="M549.6,333c0,0-14.2,0.6-31.1,54.3c0,0-1,4.2-2.4,5.1c-1.4,0.9-3.4,1-12.5-9c-9.1-10.1-45.6-51.2-45.6-51.2
		s7.2,0.5,15.6,10.3c8.4,9.7,35.9,40.3,35.9,40.3s3.7,7.2,6.4-2.3c2.7-9.6,11.9-39.1,29.7-49.2l2.2-1.3
		C547.7,329.8,549.3,331.3,549.6,333z"/>
	<path class="st157" d="M515.5,335.7c0,0,17.7,0.4,4.5-14.3c-13.1-14.6-20.7-18-20.7-18s-4.1,4.1,0,16.1c0,0-1.5-14.3,3.4-8.6
		S524.2,329.7,515.5,335.7z"/>
	<path class="st158" d="M434.6,287.9l35.5-0.7c0,0,9.8,6.4,3,18c-6-2.3-23.8-2.4-23.9,9.3l-8.8,0.4c0,0,16.3-12.3,12-20.1
		C448.1,287.1,434.6,287.9,434.6,287.9z"/>
	<path class="st158" d="M584,410c0,0-19.6-63.7-41.4-86.1S359.4,134.6,359.4,134.6s-3.9-0.4-6.8,10c-2.9,10.3-4.6,24.2-10,33.9
		c-5.3,9.6,2.9,15,2.9,15l64.5,68.4c0,0,6.1,3.6,5.7,11.4s2.5,14.6,11.1,13.2c8.6-1.4,46-1.8,46-1.8s14.6,14.3,0.4,23.5
		c0,0-5.7-3.2-10.3-1.1c0,0,8.5,12.1-0.8,24.4c0,0,6.6-1.7,14.9,10.5c8.3,12.3,32.8,38.4,32.8,38.4s3.6,6,5.7-5.2s12.4-39.4,29.7-46
		c0,0,26.5,44.2,28.8,69.8l-48.7,1.2c0,0-6.5-4.8-6.6-13c0,0-1.1,3.6-2.4,5.1c0,0,2.6,13.6,6.1,17.3L584,410z"/>
	<path class="st156" d="M588.6,415.4l-11.2,0.2c0,0,11.4,11.6,10.9,17.2l77.5-4.7c0,0-7.4-14.2-13.5-19.1l-5.6,0.5
		c0,0,3.3,3.7,3.5,7.7l-5.7-0.1l-53.4,4.8C591.2,422,590.2,417.5,588.6,415.4z"/>
	<path class="st159" d="M503.7,441.2c0,0,3-8.1,8.1-15.5c5.1-7.4,4-11.9,14.2-11.2c10.2,0.7,51.4,1.2,51.4,1.2l11.2-0.2
		c0,0-3.2-4.4-4.6-5.5l-61.8-0.3c0,0-5.3-1-9.6,6.3C508.3,423.4,502.2,434.8,503.7,441.2z"/>
	<path class="st160" d="M588.4,432.9c0,0,2.8,2.9,3,18.4s1.8,62.5,1.4,77.1l3.6-0.7l-2.1-75.9C594.3,451.8,593.8,436.2,588.4,432.9z
		"/>
	<path class="st161" d="M621.2,455.9l18.5-0.7c0,0,3.9-0.2,3.6,4.3c-0.2,4.6-0.2,7.5-0.2,7.5s1.4,2.5-3,2.7
		c-4.3,0.2-16.2,0.9-16.2,0.9s-5-0.9-3.6,3c1.4,3.9,1.4,3.9,1.4,3.9s1.1,0.7,4.6,0.5c3.4-0.2,11.4-0.5,15.3-1.1s9.1,0.9,8.2-11.2
		c-0.9-12.1-0.5-14.1-0.5-14.1s1.8-6.4-10.5-5.2c-12.3,1.1-16.6,1.1-16.6,1.1S617.3,447.2,621.2,455.9z"/>
	<polygon class="st162" points="503.7,441.2 541.4,538.6 528.3,547.3 508.7,532.6 	"/>
	<path class="st158" d="M577.4,415.7l-36,123l-37.7-97.4l12.8-23.6c0,0,1.1-3.1,9.5-3C534.3,414.6,577.4,415.7,577.4,415.7z"/>
	<path class="st163" d="M367.1,157.2l-9.9,26.3c0,0-4.1,6.5,0,9.9c4.1,3.4,68.4,72.5,68.4,72.5s5.8,9.6,8.9,0.3s8.9-26,8.9-26
		s4.4-5.8-2.1-11.6s-64.3-67-64.3-67S371.2,151.3,367.1,157.2z"/>
	<path class="st164" d="M415.6,126.5l-43.8-0.4c0,0-16.1-0.6-21.2,14.3c-5.1,14.9-15,43-15,43s-2.9,5.5,1.8,9.9s67.2,70.9,67.2,70.9
		s3.7,0.7,4.4,6.6c0.7,5.8,7.1,19.2,7.1,19.2s7.1,0.1,18.8-0.3c12.2,0.5,13.4,20.9,2.8,22.9c0.1,0.9,0.4,1.3,0.5,2.6l11-0.6
		c0,0,0.4,12.1-3.7,13.9l2.2,3.7h10.2l48.6,54.7c0,0,5.6,6.4,9.5,5.6c0,0,2.2,12.6,6.1,17.3L584,410c0,0,7,5.6,7.3,12l53.4-4.8
		c0,0-18.3-54.6-24.7-70c-6.4-15.4-14.5-26.5-21.4-33.8C591.7,306.2,415.6,126.5,415.6,126.5z"/>
	<path class="st165" d="M434.4,289.3c0,0,9.8-1.7,13.8,7.4c2.9,8.1-4.7,15.8-10.7,17L434.4,289.3z"/>
</g>
<g id="Layer_3">
	<path class="st166" d="M435.1,289.9l-24.8,0.7c0,0,13.6,8.3,1.9,24.9c0,0,4.3,0.5,5.4-0.1c1.1-0.7,1.2-4.4,4.3-5.1
		c3.1-0.7,12.6-0.7,12.6-0.7s2.7,0.7,1.5,3.1s2.7-1.6,2.7-1.6S446.4,292,435.1,289.9z"/>
	<path class="st167" d="M426.3,309.5l6.8-0.6c0,0,4.2-17.5-5.3-18.8c-5.8,0-11.3,0.2-11.3,0.2s6.1,1,8.6,3.8c1,1.1,2.5,3.6,2.6,6.8
		C427.9,304.1,426.3,309.5,426.3,309.5z"/>
	<path class="st168" d="M421.5,310.3c0,0-0.9-6.6-4.4-6.3c0,0-1.6,6.9-5,11.2c-0.1,0.2,1,0.3,2.6,0.3l2.5-0.1
		c0.5-0.2,0.5-0.3,0.6-0.5C418.4,313.9,419.9,311.7,421.5,310.3z"/>
	<path class="st167" d="M431.7,289.9c0,0,9.7,1.1,7.6,13.7c-1.4,5-4.1,7.2-4.1,7.2s0,1.7,2,1.9s5.7-2.2,7-6.8c1.7-7.2-1-15.3-9.1-16
		C434,289.8,433,289.9,431.7,289.9z"/>
	<path class="st167" d="M410.3,290.5c0,0-11.6,15.3,1.8,24.9C412.1,315.4,424.5,300.2,410.3,290.5z"/>
	<path class="st169" d="M421.1,310.1c0,0-1.3,0.3-3.2,4.7l4.1,12.2c0,0,6.9-9.5,18.3-6.4l-3.9-10.9c0,0-1.9-1.3-5-1.5
		C423.5,307.9,421.1,310.1,421.1,310.1z"/>
	<path class="st170" d="M426,323.1l-3.9,4.1l-4.2-12.4c0,0,1.1-3.5,3.5-4.9C421.4,309.8,423.7,316.6,426,323.1z"/>
	<path class="st171" d="M430.6,320.6c-1.5-4.8-3.6-10.7-3.9-12.3c-1.4,0-2.7,0.4-3.6,0.8l4.3,13.2"/>
	<path class="st170" d="M432.7,308.4c0,0,2.2,6.3,4,11.6c0,0,2.1-0.1,3.6,0.6c0,0-2.8-8.6-3.9-11C436.4,309.6,435,308.7,432.7,308.4
		z"/>
	<path class="st172" d="M426.4,336.1c0,0-2.5-2.8,1-5.6c3.5-2.8,15.4-6.3,15.1,0.2c0,0,5.3-6.3-2.1-10.2c0,0-12.6-3.2-18.4,6.1
		C419.2,333.2,423.7,336.4,426.4,336.1z"/>
	<path class="st173" d="M442.7,328.4c0,0-0.9-3.8-4.7-3.8c-3.8,0-11,0.6-13.5,6.6c0,0-0.8,2-0.3,2.9c0,0-3.9-5.4,3.6-9.6
		C436,320.3,444.2,323,442.7,328.4z"/>
	<path class="st174" d="M442.6,330.4l29.2,78.3c0,0-10.3,0.7-16.9,6.1l-28.5-78.7c0,0-3.4-4.9,4.9-7.8
		C440.2,325.3,443,328,442.6,330.4z"/>
	<path class="st175" d="M432.7,328.9l30.3,81.9l-3.2,1.5l-29.4-79C430.5,333.4,428.6,329.7,432.7,328.9z"/>
	<path class="st176" d="M437.7,326.9l29.7,82.4l4.4-0.6l-29.1-78.4C442.7,330.3,441.8,326.5,437.7,326.9z"/>
	<path class="st177" d="M431.3,328.3c0,0-3.9,0.7-3.1,4.4c0.5,2.3,30.2,79.8,30.2,79.8l-3.5,2.3l-28.7-78.7
		C426.2,336.1,422.9,330.4,431.3,328.3z"/>
	<path class="st178" d="M480,419.7c0,0,5-11.6-8.2-11c-10.9,0.5-18.5,6-23.4,12.5c-2.5,4.4,0.5,8.2,3.8,8.5c0,0-2.2-4.9,5.4-9
		C465.2,416.6,476.9,410,480,419.7z"/>
	<path class="st177" d="M506.1,482.2l-27.8-66.8c0,0-4-2.6-13.1,1s-15.2,8.1-13,13.2c2.2,5.1,66.7,160.5,66.7,160.5l14.5-42.3
		L506.1,482.2z"/>
	<path class="st179" d="M515.7,538.8l-51.4-122l-6.8,3.1l51.2,121.9C508.7,541.9,509.6,540.3,515.7,538.8z"/>
	<polygon class="st180" points="469.8,415.1 519.6,536.4 522.5,535.8 472.1,414.7 	"/>
	<path class="st181" d="M464.3,416.9l5.4-1.7l49.7,120.5c0,0-1.5,0.1-4,1.2L464.3,416.9z"/>
	<path class="st182" d="M530.6,540.9c0,0-19.9,1.3-25.9,14.5l-3.3-7.6c0,0,8.2-12.8,26.8-12.8L530.6,540.9z"/>
	<path class="st183" d="M517.2,541.9l-1.6-4.3c0,0-5.1,1.5-7.2,3.5l2.7,6.7c0,0,2.4-2.4,7.4-3.9L517.2,541.9z"/>
	<path class="st184" d="M523.9,558.5l-4.7-12c0,0-4,0.7-7.3,3.9l7.7,20.6L523.9,558.5z"/>
	<path class="st185" d="M471.5,409.8c0,0-8.7,4.5-7.2,7l-6.8,3.1l-2.6-5.2c0,0,6.9-6.3,18.8-6.1
		C473.7,408.7,472.3,408.9,471.5,409.8z"/>
</g>
<g id="Layer_7">
	<path class="st81" d="M346.2,635.9c0,0-1.7-8.7,13.4-19.4c15.2-10.7,17.3-10,17.3-10s1.5-1.3,12.4,0.2
		c10.9,1.5,57.2,10.9,57.2,10.9l-25.6,3l-23-5.5c0,0-11.7-4.1-11.9-1.1s-0.9,4.1,4.9,5.3c5.8,1.3,18.1,3.8,18.1,3.8l-13.2,19.4
		l-37.1-8.1c0,0-3.6-4.5,8.1-10s11.7-5.5,11.7-5.5s3.4-5.5-2.6-4.5c-6,1.1-20.7,7.7-25.8,20.7L346.2,635.9z"/>
	<polygon class="st186" points="288.4,642.7 360.5,632.8 409.8,642.7 388.4,673.1 285.7,644.2 	"/>
	<polygon class="st82" points="290.1,648.3 297.6,645.4 389.9,666.5 384.8,671.9 	"/>
	<polygon class="st81" points="290.1,648.3 289.9,669.2 378.8,694.7 384.8,671.9 	"/>
	<polygon class="st187" points="289.6,655.1 272.8,667.1 289.9,669.2 	"/>
	<polygon class="st81" points="289.6,655.1 189.3,665.8 173.9,662.4 290.1,648.3 	"/>
	<path class="st81" d="M249.9,671.8l-26.1-6c0,0-7.3-2.1,1.7-4.7l-32,3.4l50,12.8L249.9,671.8z"/>
	<polygon class="st82" points="159.3,658.1 288.4,642.7 297.6,645.4 290.1,648.3 173.9,662.4 	"/>
	<polygon class="st188" points="410.2,626.7 392.7,622.3 391,657.9 364.2,690.3 363.3,699.5 379.7,706 388.8,698.8 410.9,658.5 	"/>
	<polygon class="st140" points="403.3,658.3 391,657.9 392.7,622.3 	"/>
	<path class="st189" d="M381.3,783.6L60.7,698.1c0,0-1.2-8.8-12.4-7.7c0,0-3.7,0.4-4.2-9c-0.4-9.5-4.4-18.9,20-35.9l4.8-3.1
		c0,0,5.3-4.4,21.6-1.3S240.8,675,240.8,675l18.1-13.2l114,23.5l0.3,17.3l6.6,3.4L381.3,783.6z"/>
	<polygon class="st82" points="493.4,616.3 410.2,626.7 410.9,658.5 388.8,698.8 379.7,706 381.3,784 408.9,778.1 409.6,739.8 
		488.2,727.4 	"/>
	<polygon class="st81" points="493.4,616.3 437.5,623.5 438.8,664.2 409.6,710.9 397.5,719 396.8,780.9 408.9,778.1 409.6,739.8 
		488.2,727.4 	"/>
	<polygon class="st189" points="475.6,733.8 414.9,743.5 414.9,777 408.9,778.1 409.6,739.8 477.4,728.9 	"/>
	<polygon class="st190" points="491,722.2 468,722.6 467.6,772.8 441.1,772.8 440.8,788.9 488.5,801.4 	"/>
	<polygon class="st191" points="479.5,777 450.2,775.3 450.9,792 440.8,788.9 441.1,772.8 467.6,772.8 468,722.6 470.8,771.1 	"/>
	<polygon class="st189" points="486,610.3 392.4,622.2 409.9,626.5 495.1,616.1 	"/>
	<path class="st189" d="M420.5,621.1c0,0-2.3-13.2,1.1-15.8c0,0-7.6,0.6-7.6,6.8s1,10,1,10L420.5,621.1z"/>
	<path class="st82" d="M422.4,621.1c0,0-2.3-9.5,1.1-11.9l17.5-1.7c0,0,3.9-0.9,4.1,3.2c0.2,4.1,0.3,7.4,0.3,7.4s3.2-0.7,4.3-1
		c0-2.2-0.7-9.6-0.7-9.6s-0.2-5.4-8.5-4.6s-18.9,2.4-18.9,2.4s-5.9,2.4-2.2,16.3L422.4,621.1z"/>
	<path class="st81" d="M442.3,616.7c0,0,0.1-7.7-1.4-9.3c0,0,4.2-0.9,4.2,3.3c0.4,3.9,0.4,7.2,0.4,7.2L442.3,616.7z"/>
	<line class="st192" x1="429" y1="619.4" x2="445.4" y2="617"/>
</g>
<g id="Layer_4">
	<path class="st193" d="M930.4,988.6l-14.3,3c0,0-3,4.7-0.5,8l-95.8,10.7c0,0-31.5-9.7-25.4-24.8L901,974.5l28.8,1.5L930.4,988.6z"
		/>
	<path class="st194" d="M899.6,983.6l5.7-1.8c0,0-8.7-1.4-9-8.7c-0.3-7.2-5.4-110.6-11-127.8s-13.1-37.8-41-45.8
		c-27.9-8-46.6-13.9-46.6-13.9s62.9,21.7,71,34.3c8,12.6,11.8,23.3,14.2,41.5c2.4,18.2,7.7,83,6.8,112.3l0,6.6l8.4,4.2L899.6,983.6z
		"/>
	<path class="st195" d="M1213,933.9l-13.9-3l-39.2,14.8l-36,9.2c0,0-16.3-2.1-22.2,4.6l-282,47.4l-0.8,81.4c0,0,0.8,9,15.4,7.5
		c14.7-1.5,95.7-11.7,95.7-11.7l56.1-13.2c0,0-0.4,11.3,16.6,3.4c0,0,4.1-0.8,9,2.6c4.9,3.4,9-1.5,9-6.8c0,0,23.7,0.4,22.2-12.4
		l26-6c0,0,3.4,0,4.5,3.4c0,0,22.2,0,28.6-7.2l8.7,4.5c0,0,6.8,2.3,7.2-4.9c0,0,5.3-3,4.1-10.2c0,0,39.2-7.9,54.6-13.6
		c0,0,27.1-9,39.9-18.8L1213,933.9z"/>
	<path class="st196" d="M891.7,1002.7c0,0,16.2,6,35,1.5c18.8-4.5,196.6-44.1,196.6-44.1l0.5-5.2l-15.6-5.7l-199.7,39.2
		L891.7,1002.7z"/>
	<path class="st197" d="M1108.1,810.6c0,0,47.5,15.9,57.3,109.6c0,0,3.1,5.4-6.3,7.2c-9.4,1.7-42.6,8.4-42.6,8.4L1108.1,810.6z"/>
	<path class="st198" d="M1177.2,919.3c0,0-9.4,6.6-11.9,0.9c-2.4-5.8-3.4-79.4-57.3-109.6c0,0,17.5,1.6,46.9,40.2c0,0,2,2.2-0.5,5.5
		c0,0,9.5,5.1,16.1,50.7C1170.6,907,1178.1,905,1177.2,919.3z"/>
	<path class="st199" d="M1118.4,869.5c0,0,33.1-17,36.2-13.2c3.1,3.7,9,6.4,16.1,50.7c-0.9,5.1-10.8,9.3-35.3,9.9
		c0,0-12.3,1.8-13.2-4.9C1121.2,905.4,1118.4,869.5,1118.4,869.5z"/>
	<path class="st200" d="M733,515c0,0-69,4.7-106.9,8.1s-84.8,14.5-84.8,14.5s-15.6,5.1-19.7,24.4c0,0-5.8,0.2-6,4.5
		c-0.2,4.3,1.9,4.1,1.9,4.1l0.9,271.2l12.2,15.1l134.9,35.7c0,0,21.5-49.8,80.6-38.6s79.2,79.7,88,142.7l71.8-13.7
		c0,0-6.8-134.4-22-150l3.4-36.7c0,0,2.9-8.3,14.7-10.8c11.7-2.4,189.5-32.3,189.5-32.3s-13.4-28.3-145.5-73.7c0,0-1-5.4-5.8-9
		L895.9,538c0,0-5.4-5.1-12.8-4.8c0,0-12.5-6.2-24.4-10.7C858.7,522.5,802.5,509.3,733,515z"/>
	<path class="st189" d="M839.7,542.2c0,0-53.1,5.6-119.5,11.9l-0.5-3.9l110-11.4L839.7,542.2z"/>
	<path class="st82" d="M629.3,539c0,0-14.6-9.3-54.7-1.3l-33.3-0.1c0,0,59.3-15.6,118.2-18.3l-6.9,16L629.3,539z"/>
	<path class="st82" d="M624.3,546.2c0,0-8.5-8.2-49.6-8.5c0,0,36.1-8.2,54.7,1.3L624.3,546.2z"/>
	<path class="st201" d="M523.8,555.6c0,0,66-16.5,107.3,14.4c0,0-6.1,5.3-5.3,10.7l-104.2-18.7L523.8,555.6z"/>
	<path class="st202" d="M517.6,570l111.2,20.5l-2.9-10.1l-104.2-19.2C521.6,561.3,511.3,563.4,517.6,570z"/>
	<path class="st203" d="M607.5,591.9l-47.3-6.9c0,0-12.1-2.6-13,7.8c-0.9,10.4-2,28.3-2,28.3"/>
	<polygon class="st81" points="522.4,571.5 522.7,598 517.2,597.1 517.6,570.5 	"/>
	<path class="st81" d="M642.8,607.4l11.5,93.6c0,0,4.2,18.4,19.6,18.8c0,0-20,1.2-23-18s-13.4-98.6-13.4-98.6L642.8,607.4z"/>
	<path class="st204" d="M621,597.8c0,0,2.3,11.1-0.4,17.7c0,0-3.5-6.5-13.4-7.7L621,597.8z"/>
	<path class="st203" d="M643.6,746.4l0.4-17.3c0,0,0.4-7.7-3.5-26.5c-3.8-18.8-13.4-88.3-13.4-88.3s-0.4-12.3-6.1-16.5"/>
	<path class="st203" d="M582.6,602.1l0.4,5c0,0,18,3.8,23.4,5c5.4,1.2,11.9,4.2,12.7,9.2c0.8,5,1.5,21.1,1.5,21.1"/>
	<path class="st205" d="M538.5,621.7c0,0-3.9,3.9-3.9,8.4c0,4.6-4.9,8.1-4.9,8.1l0.4-9.5c0,0,2.1-1.1,1.8-6
		C531.8,622.7,536.5,623.6,538.5,621.7z"/>
	<path class="st81" d="M534.9,724l-0.3-91.8c0,0-3.3,5.9-4.9,6l-0.1,85.2L534.9,724z"/>
	<polygon class="st81" points="532.1,727 527.5,726.2 527.5,797.9 532,799.3 	"/>
	<path class="st203" d="M721.1,770.7c0,0-37.5-8.7-38.6-10.1c-1.1-1.4-5.4-2.3-6,3.4c-0.6,5.7-0.6,67.9-0.6,67.9"/>
	<line class="st203" x1="643.3" y1="752.6" x2="642.8" y2="861.7"/>
	<path class="st203" d="M542.8,731.3c0,0,0.5,76.8,1.9,83.4"/>
	<path class="st203" d="M546.1,824.7c0,0,1.9,17.1,17.5,20.9c15.6,3.8,78.2,20.4,78.2,20.4s3.7-2.3,14.4,1.7
		c10.7,3.9,18.9,2.5,18.9,2.5"/>
	<polygon class="st81" points="518.5,841.6 555.7,850.6 565.6,866.2 530.7,856.8 	"/>
	<polygon class="st206" points="580.8,870.4 570.3,853.3 581,856.3 	"/>
	<path class="st81" d="M615.9,864.4c0,0,9.6,1.1,14.6,8c5,6.9,10,13.7,10,13.7l-59.8-15.9l0.4-13.9L615.9,864.4z"/>
	<path class="st205" d="M673.7,879.7c0,0-14.2,0-22.6-3.4c-8.4-3.4-20.7-3.8-20.7-3.8l9.6,13.7l25.6,6.4
		C665.6,892.5,668.7,884.3,673.7,879.7z"/>
	<polygon class="st206" points="556.1,863.8 518.5,841.6 530.7,856.8 	"/>
	<path class="st203" d="M783.2,825.4l-0.8-26.8c0,0-1.9-14.6-15.7-17.6c-13.8-3.1-30.3-6.5-30.3-6.5s-10.3-2.7-10,3.8
		s1.1,31.4,1.1,31.4s1.5,6.1,10.3,6.1c0,0,5.4,3.4,12.3,2.3c0,0,9.6,5.4,16.1,3.8C766.3,822,776.3,828.9,783.2,825.4z"/>
	<path class="st201" d="M940.2,670.4l-250.9,33.9c0,0-11.9,6-15.4,15.6c0,0,9.3,5.5,19.6,0.6s0-4.9,23.7-7.9
		c23.7-3,48.4-5.9,48.4-5.9s10.4-2.5,28.2,3.5c17.8,5.9,34.1,8.4,34.1,8.4s-2.5-4.9,7.4-4l-46-11.4c0,0-5.9-3-17.3-4l121.1-16.8
		c0,0,8.4-0.5,13.8,4.4c0,0,35.9-5.1,39-7.5C946,679.4,944.7,672.7,940.2,670.4z"/>
	<path class="st188" d="M757.3,733.8c0,0,94.4,30.1,130.5,54.4l4.9-4.4C892.7,783.7,829.9,741.7,757.3,733.8z"/>
	<path class="st188" d="M828,718.5c0,0,59.3,11.4,91.9,32.6c0,0,7.4-5.9-84.5-36.6C830.9,713.6,827,715.5,828,718.5z"/>
	<path class="st188" d="M946,679.4c0,0-7.3,1.6-7.8,13.9c-0.5,12.4-24.7,15.3-24.7,15.3s33.1,5.9,46.5,1c0,0,19.8,4,41.5,23.2
		c0,0-4.4-9.9-12.4-13.3c0,0,37.7,6.8,55.5,0.4C1044.5,719.8,1021.6,707,946,679.4z"/>
	<path class="st197" d="M772.1,699.2l121.1-16.8c0,0,10.4,0,13.8,4.4l39-7.5c0,0-6.9,2.6-7.8,13.9c0,0,2,10.9-24.7,15.3
		c0,0-4-16.3-33.1-12.8s-72.6,11.9-72.6,11.9l-18.3-4.4C789.4,703.2,782.1,699.6,772.1,699.2z"/>
	<path class="st197" d="M707.1,714.8c0,0,52.7,15.2,90.2,26.3c0,0-48.7-20.7-31.9-22.3c16.8-1.6,15.5-7.7,62.6-0.3
		c0,0-28.7-6.3-34.1-8.4s-19-4.8-28.2-3.5C756.6,708,707.1,714.8,707.1,714.8z"/>
	<path class="st188" d="M846.2,775.9c0,0,20,4.3,14.1,18.9l-5,8.7c0,0,11.2-1.7,12.2-10.7c0,0,1.2-6.8,8.3,1.5
		c7.1,8.3,10.5-0.2,10.5-0.2l0.7-3.2c0,0-19.8-7.8-36.9-17.6C850.1,773.2,840.5,763.1,846.2,775.9z"/>
	<path class="st207" d="M1091.6,753.1c0,0-66.2-1.8-198.9,30.6c0,0-6.9,1.9-8.3,18.1c-1.4,16.2-4,31.1-4,31.1s12.1,3.2,16,140.2
		c0,0-1.8,13.3,24.2,7.2s187-40.6,187-40.6s14.9,0.4,14.9-13c0-13.4-10.3-125.3-10.3-125.3S1105.8,755.8,1091.6,753.1z"/>
	<path class="st208" d="M900.4,794.1c0,0,13.4,5.2,14.9,25.6c1.5,20.4,8.8,68,8.8,141.1c0,0-0.4,7.3,11.9,5
		c12.3-2.3,169.9-35.4,169.9-35.4s8.5-0.4,8.5-15.8c0-15.4-4.1-105.7-9.4-128.1c0,0,0.8-7.4-13.8-6.4c-14.6,1-33.6,4.1-33.6,4.1
		s27.7-8.3,43.1-5.1c4.1,1.5,6,2.6,7.7,13.1c1.7,10.5,6,44.7,8.8,122.5c-0.3,11,0.7,15.1-13.1,18.9s-183.7,39.9-183.7,39.9
		s-8.3,3.4-6.2-8.6C916.3,952.8,915.9,799.1,900.4,794.1z"/>
	<path class="st188" d="M904.1,816.1c0,0-2.6-25.6-17.1-25.3c0,0-1.8,1.1-2.3,5.6C884.7,796.4,901.6,801.6,904.1,816.1z"/>
	<path class="st209" d="M921,810.1c0,0,84.1-22.1,170.3-30c0,0,12-2.4,13.8,6.4c1.7,8.8,7.4,47.2,9.4,128.1c0,0,1.4,12.9-8.5,15.8
		c-9.8,2.8-169.9,35.4-169.9,35.4s-11.3,4.2-11.9-5c-0.6-9.2-0.6-70-8.4-130.4C915.7,830.3,913,811.6,921,810.1z"/>
	<path class="st210" d="M1092.9,796c0,0,4-0.3,3.8-3.8c-0.3-3.5-1.1-2.7-6.5-2.2c-5.4,0.5-158.5,26.7-158.5,26.7s-7,1.1-6.5,4.6
		c0.5,3.5,3.2,2.7,8.9,1.6S1092.9,796,1092.9,796z"/>
	<path class="st211" d="M1095.5,820.5c0,0,4-0.3,3.7-3.8c-0.3-3.5-1.1-2.7-6.5-2.1c-5.4,0.6-158.3,27.9-158.3,27.9s-7,1.1-6.4,4.6
		c0.6,3.5,3.3,2.7,8.9,1.5C942.5,847.6,1095.5,820.5,1095.5,820.5z"/>
	<path class="st212" d="M1097.2,844.7c0,0,4-0.3,3.7-3.8c-0.3-3.5-1.1-2.7-6.5-2c-5.4,0.6-158,29.6-158,29.6s-7,1.2-6.4,4.7
		c0.6,3.5,3.3,2.6,8.9,1.5C944.6,873.4,1097.2,844.7,1097.2,844.7z"/>
	<path class="st213" d="M1099.6,869.7c0,0,4-0.3,3.7-3.8c-0.3-3.5-1.1-2.7-6.5-2c-5.4,0.6-158,29.8-158,29.8s-7,1.2-6.4,4.7
		c0.6,3.5,3.3,2.6,8.9,1.4S1099.6,869.7,1099.6,869.7z"/>
	<path class="st214" d="M1102.1,894.2c0,0,4-0.3,3.7-3.8c-0.3-3.5-1.1-2.7-6.5-2s-158,29.7-158,29.7s-7,1.2-6.4,4.7
		c0.6,3.5,3.3,2.6,8.9,1.4C949.5,923,1102.1,894.2,1102.1,894.2z"/>
	<path class="st215" d="M1102.1,918c0,0,4-0.4,3.7-3.9c-0.3-3.5-1.1-2.7-6.5-2c-5.4,0.7-157.9,30.3-157.9,30.3s-7,1.2-6.4,4.7
		c0.6,3.5,3.3,2.6,8.9,1.4C949.6,947.4,1102.1,918,1102.1,918z"/>
	<path class="st216" d="M929.7,976.1l-0.4,10.5c0,0-1.6,2.8,6.5,4.9c8.1,2,13.8,1.2,18.6,0s147.3-32,147.3-32l-12.5-2l-0.4-13.8
		L929.7,976.1z"/>
	<polygon class="st217" points="1065.6,959.2 961.7,981.6 964.5,985 1074.3,961.1 	"/>
	<polygon class="st217" points="948.3,972.2 950.5,984.1 957.6,986.5 	"/>
	<polygon class="st154" points="954.9,971 964.5,985 957.3,986.5 948.7,972.2 	"/>
	<polygon class="st217" points="1066.3,949 1065.6,959.2 1074.3,961.1 	"/>
	<polygon class="st154" points="1072,947.1 1081.4,959.4 1074.3,961.1 1065.7,948.4 	"/>
	<line class="st218" x1="951.3" y1="983.7" x2="935.5" y2="987.3"/>
	<line class="st218" x1="1084.7" y1="955.4" x2="1080.4" y2="956"/>
	<path class="st219" d="M1157.1,927.8c0,0,3.9,10.3,2.8,17.9l-36,9.2c0,0-15-3.4-22.2,4.6l-10-1.5l-7.8-2.5l4.7-11.8l19-4
		c0,0,7.9,0.1,11.4-4.4L1157.1,927.8z"/>
	<path class="st220" d="M1170.8,951.4l42.2-17.5l-13.9-3l-22.2,8.1c0,0-2.3,9-14.3,12.1c-12.1,3-147.7,32-147.7,32
		S1169.7,957.9,1170.8,951.4z"/>
	<path class="st221" d="M819.8,1010.3c0,0,7.9,9.4,30.8,6c23-3.4,41.4-7.5,78-8.7l-13-8L819.8,1010.3z"/>
	<path class="st222" d="M1170.8,951.4c0,0,6.5,9.7,6,72.3l36.2-89.9L1170.8,951.4z"/>
	<path class="st223" d="M1118.9,974.8c0,0-1.1-6-14.2-2.5s-106.5,24.1-106.5,24.1s-17.3,4.6-16.3,22.3c1.1,17.7,2.8,52.5,2.8,52.5
		s0.9,4.1,4.1,4.8l-4.1-57.5c0,0,0.5-17.8,13.1-20.6c12.6-2.8,106.3-23.9,106.3-23.9S1113,970.1,1118.9,974.8z"/>
	<path class="st224" d="M1122.9,974.7l-11.9,1.8l-0.2,14.5l-7.5,0.8l0.2,43.6l6.4,3.5l1,13.5l-8.7-4.5l-3.1,2.3l-8.1-2
		c0,0-4.6-15.4,5.5-16.8l-0.9-53.4C1095.7,977.9,1109.9,968.1,1122.9,974.7z"/>
	<polygon class="st225" points="1113.7,1035.9 1114,976.3 1111,976.5 1110.8,991 1103.3,991.8 1103.5,1035.4 	"/>
	<path class="st226" d="M1016.2,997.3l-9.4,2.2l0.2,22.5l5.2,0.2l1.2,55.3c0,0,6.2,2.9,7.4-7.5L1016.2,997.3z"/>
	<path class="st227" d="M1006.8,999.5l-8.2,0.5c0,0-10.6,3-9.4,16.3c0,0,1,3,6.2,2l1,47.7c0,0-1.1,6.5,6.4,8.3c0,0,4.5-1.9,10.7,3.3
		l-1.2-55.3l-5.2-0.2L1006.8,999.5z"/>
	<path class="st228" d="M1122.9,974.7c0,0,2.6-1.3,2.9,11.5c0.3,12.8,0.9,49.8,0.9,49.8l-4.4,1.3c0,0,0.1,8.9-4.1,10.2
		c0,0,0.7,6.2-7.2,4.9l-1-13.5l-6.4-3.5l10.2,0.5l0.4-59.6L1122.9,974.7z"/>
	<path class="st229" d="M928.6,1007.6l1.5,76.5l-95.7,11.7c0,0-14.7,1.9-15.4-7.5s0.8-77.9,0.8-77.9s6.9,9.3,30.8,6
		C874.5,1012.9,904.3,1007.9,928.6,1007.6z"/>
	<path class="st230" d="M940.2,670.4l-250.9,33.9c0,0-14.3,9.1-15.4,15.6c0,0-15.8,0.4-19.6-18.8s-12.5-90.5-12.5-90.5
		s15-2.4,19.8-6.2c4.8-3.9,14.4-5.3,49.2-8.3c11.9-1,55.2-7.2,138.6-15.4c36-3.2,80-9,99-11c-4.2,3.8-14.4,6.3-24.2,8
		C925.8,587.6,940.2,670.4,940.2,670.4z"/>
	<polygon class="st231" points="666.4,606.6 680.6,710.6 683,709.1 668.6,605.4 	"/>
	<polygon class="st232" points="812.6,593.5 683,709.1 668.6,605.4 	"/>
	<path class="st188" d="M923.3,538.2l25.9,26.7c0,0,1.8,4.5-0.8,4.7l-271,29.9c0,0-10.7,1.3-15.8,4.8c0,0-26.4,14.1-33.6-0.4
		c0,0-5.4-10.7-2.2-23.3c3.2-12.6,9-11.6,19.2-14.5c10.2-2.9,129-19.8,266.2-29.5C911.2,536.6,917.7,535.4,923.3,538.2z"/>
	<path class="st197" d="M664.6,590.8L645,566.2c0,0-11.3,1.6-16.8,7.9l27.1,33.2c0,0,11.8-8.2,22.1-7.7
		C677.4,599.6,664.9,597.2,664.6,590.8z"/>
	<path class="st205" d="M629.6,606.4c0,0-9.5-11.8-1.4-32.3l27.1,33.2C655.3,607.3,637.1,614.5,629.6,606.4z"/>
	<path class="st201" d="M633.1,586.8c0,0,8.7,6.9,0.9,12.1C634,598.9,626.5,594.3,633.1,586.8z"/>
	<path class="st197" d="M787.8,547.5l39.5,28.9l71-4.3l-69.6,7.2l2.3,3.2l117.3-12.8c0,0,3.7-1.8,0.8-4.7s-25.9-26.7-25.9-26.7
		s-4.1-2.1-12.1-1.6c-2.1,0.1-11.9,1-25.2,2.1C849.8,542,787.8,547.5,787.8,547.5z"/>
	<path class="st233" d="M881.9,529.6l3.8,6.9l-48.2,5.1l-7.7-2.8l-110,11.4l0.5,3.9l-47.2,6.6c0,0-6.8,0.3-14.2-2.5
		c-7.4-2.7-30.5-10.1-30.5-10.1s-6-1.1-3.3-6c2.7-4.9,5.2-6.5,5.2-6.5l34.3-6.3c0,0,102.5-10.4,140.4-8.2
		c37.9,2.2,55.9,0.5,55.9,0.5S874.3,523.6,881.9,529.6z"/>
	<path class="st234" d="M855.4,531.9l26.5-2.3c0,0-8.3-6.7-21.1-7.8L855.4,531.9z"/>
	<path class="st235" d="M848.3,532.2c0,0-5.5-0.8-5.5,3s0.4,5.8,0.4,5.8l-3.4,0.3l0-8.3C839.8,533,840.9,530.3,848.3,532.2z"/>
	<polygon class="st236" points="821.3,532.1 799.7,525.3 785.5,524.1 767.4,525 780.5,534.9 	"/>
	<polygon class="st236" points="764.9,536.8 756,529.3 748.2,525.1 727.4,526.7 735.9,538.7 	"/>
	<path class="st236" d="M727,540l-15.3,0.8c0,0,8.9,3,4.1,4s-14,1.7-14,1.7l-14.2-7.9l19.1-6L727,540z"/>
	<path class="st236" d="M696.8,548.1l-22.9,3.6l0.5,8.7c0,0-5.4,1.7-5.3,0.3c0.2-1.3,0.7-8.9,0.7-8.9s-3.8-0.3-7.1-2.3
		c-3.3-2-35-11.9-35-11.9l2.5-2l22.9-4l39.1,12.2L696.8,548.1z"/>
	<path class="st58" d="M817.4,497.1l0.5,31.4c0,0,29.7,8.9,43.2-1.5l-1.2-27.6c0,0,0.2-5.3-5.6-5.1s-31.4,0.3-31.4,0.3
		S817.9,494.3,817.4,497.1z"/>
	<path class="st58" d="M724.2,485.5l0.5,35.8l-63.2,2.1L661,485C661,485,691.3,472.5,724.2,485.5z"/>
	<path class="st190" d="M731.4,521.8c0,0-2.6-4.6-13.5-4.1s-23.6,0.7-24.4,5.3l1.5,12.4c0,0,17.2,6.1,37-0.2L731.4,521.8z"/>
	<path class="st190" d="M768.7,518.9l0.8,11.6c0,0-14,3-30.5,0.2l-1.3-11.9C737.7,518.7,750.6,512.1,768.7,518.9z"/>
	<path class="st190" d="M819.4,513.9v14.2c0,0-25.9,5-38.4-6.8l0-8C780.9,513.3,795.8,504.7,819.4,513.9z"/>
	<path class="st237" d="M694.8,509.6c0,0-28.4-5.8-42.9,1.2l-0.3,29c0,0,16.7,14,46.5,1.3L694.8,509.6z"/>
	<path class="st238" d="M620.3,593.8l-0.1-6.4l-11.2,0.5c0,0-3.1,1.6-2.8,6c0.3,4.4,0,11.3,0,11.3s-0.5,3.3,6.8,3.1
		c7.3-0.3,8.3-0.1,8.3-0.1L620.3,593.8z"/>
	<polygon class="st239" points="1002.4,1024.2 997.4,1020.8 1012.2,1022.2 1012.2,1025.2 	"/>
	<path class="st240" d="M699,859c0,0,41.2-48.4,108.5-21.8c67.3,26.6,79,78.9,81.9,146.9c0,0-1,1.6-12.9,1.3
		c-11.9-0.2-12.3,6.8-41.5,8.1c0,0-12.1-69.6-28.6-91.5C806.3,902,774.5,832.8,699,859z"/>
	<path class="st201" d="M840,883c0,0-20.9-31.3-61.6-30.3c0,0-9.5,3.8-20.4,4.3c0,0,31.8,11.9,48.4,45C806.3,902,838.1,893,840,883z
		"/>
	<path class="st241" d="M654.9,927.5c0,0,5.2-53.3,44.1-68.5c0,0,60.6-28.2,101.7,33.9c21,33.4,34.2,100.6,34.2,100.6
		s-1.1-2.3-9.2,0.9c-8.1,3.2-34.2,1.6-35.1-9.7c-0.8-11.3-12.5-67.3-41.5-81c-29-13.7-47.5-19.3-72.5,4.4c0,0-9.7,11.7-10.1,17.3
		c-0.4,5.6-2.8,6.8-7.3,4.8S654.9,927.5,654.9,927.5z"/>
	<path class="st242" d="M686.3,865.5c0,0,70.5-17.3,99.5,39.1c0,0,11.3,19.3,14.5,33.8l21.4-3.4c0,0-19.2-85.7-95.3-83.3
		C726.4,851.7,701.2,854.6,686.3,865.5z"/>
	<path class="st199" d="M789.1,923.1c0,0-7.3,42.7,21,56.8c0,0,4.1,1.3,17.7-1.8c13.6-3.1,29.9-5.3,35.8-6.4
		c5.9-1.1,17.4-0.9,15.8-11.2c-1.5-10.3-5.3-23.7-5.3-26.2c0-2.4-2.2-15-15-15C846.4,919.4,789.1,923.1,789.1,923.1z"/>
	<path class="st243" d="M813.6,971.8c0,0-5.1-42.4-12.5-49l-12,0.4c0,0-7.5,41.5,21,56.8C810,979.9,814.9,979,813.6,971.8z"/>
	<path class="st230" d="M943,572.1l1.5,65.9c0,0,0.7,10.7-2.9,15.8s-8.1,8.1-8.1,8.1l1.1-15.1c0,0,2.9,1.8,2.9-7.7
		s-2.9-66.3-2.9-66.3L943,572.1z"/>
	<path class="st203" d="M889.8,976.8l0,3.6c0,0,0-115.3-13.3-147.5c-9-21-18.4-26.2-96-51.4"/>
	<path class="st203" d="M880.4,831.3c-10.2-24-30.9-30.1-30.9-30.1S682.4,752.6,679,751.8c-3.4-0.8-3.9-4.4-9.6-3.4
		c-4.9,4.4-13.3,0.3-13.3,0.3l-126.5-25.4"/>
</g>
<g id="Layer_5">
	<path class="st244" d="M511.7,783.9l-25.7-0.7l0,10.2l0.2-2.9c-1.1-0.2-2.3,0.8-2.3,1.9l0,17.9c0,0,2.5,3.4,4.3,3.3v30.9
		c0,0,2.5,2.9,6.5,2.8L495,863c0,0,3.4,13.4,14.6,14.2c11.1,0.8,63.7,1.6,63.7,1.6s12.4-3.8-0.2-10.5l-16.2-5.1h-43.7
		c0,0-4.7-0.3-4.9-4.1c-0.2-3.8,0.2-10.5,0.2-10.5s7.7-1.5,7.9-3.9l-0.7-31.9l14.1,0.2c0,0-7.4-8-11.9-11.2
		C513.3,798.7,511.7,783.9,511.7,783.9z"/>
	<path class="st245" d="M519.3,802.5l-9.5,0.2c0,0-3.4,0.3-3.5-8c-0.1-8.3-0.5-10.9-0.5-10.9l6.9-0.1
		C512.8,783.7,514.2,800,519.3,802.5z"/>
	<path class="st246" d="M483.1,614l2.8,179.5c0,0,0,4.4,20.7,1.4l-2.5-180.8C504.2,614.1,489.6,614.8,483.1,614z"/>
	<path class="st247" d="M507.1,576.7c0,0,4.6-44.6-19.6-46.2c0,0-11.5,7.4,0,23.3c0,0,1,1,0.7,3.8s-0.3,19.5-0.3,19.5
		S496.6,581.1,507.1,576.7z"/>
	<path class="st248" d="M490,553.4c0,0,12.6-18.6-2.4-23c0,0-2.2,1.5-3.5,4c0,0,7-1.3,6.7,4.3C490.5,544.3,490,553.4,490,553.4z"/>
	<path class="st249" d="M488.3,557.6c0,0,4.6,0.6,4.4,4.8c-0.2,4.1-0.5,15.9-0.5,15.9l-4.3-1.2L488.3,557.6z"/>
	<path class="st250" d="M510.9,586.6c0,0,4-7.8-3.7-9.9c0,0-10.8,4-19.2,0.4c0,0-5,0.3-4.8,5.5c0.2,5.3,0,12.8,0,12.8
		s20.6,3.3,27.9-1.6L510.9,586.6z"/>
	<path class="st41" d="M487.4,580.4c0,0,13,7.4,24.2-0.2c0,0-1.4-3.1-4.5-3.6c0,0-7.7,2.5-14.9,1.7
		C492.2,578.3,504.8,583.3,487.4,580.4z"/>
	<path class="st251" d="M486.2,595.8v-9.7c0,0,0.6-4-3-5.4v14.7C483.1,595.4,484.4,595.7,486.2,595.8z"/>
	<path class="st252" d="M538.6,604c0,0,1.8-9.6-6.4-9.6c-8.1,0-21.2-0.6-21.2-0.6s-7,4.6-27.9,1.6c0,0-2.7-0.5-2.9,2.6s0,14,0,14
		s0.4,1.5,2.7,3.1c8.3,6.3,27.1,0.6,32.3-3.8l3.5,0.8l8.6-10.2c0,0,3.5-1.2,4.1,1.2s0.9,19.5,0.9,19.5s3.5,3.3,5.9-1.2L538.6,604z"
		/>
	<path class="st253" d="M483.6,609.2l0.1-10.3c0,0-0.3-2.5,2.4-3l-2.9-0.5c0,0-3-0.4-3.1,2.5c-0.1,2.8,0,14,0,14s0.7,2.8,5.8,4.8
		l-0.1-7.5L483.6,609.2z"/>
	<path class="st41" d="M521.5,603.1h-17.2h-2c0,0-2.3-0.2-2.3,1.2c0,1.3,0.5,1.3,2.3,1.3s19.3,0,19.3,0s1.1,0.4,1.3-1.5
		C522.9,604.1,523.3,603.5,521.5,603.1z"/>
	<path class="st205" d="M501.5,605.8l0.2,2.1l4.6-0.2c0,0,1.8-0.4,1.8,1s0,2.7,0,2.7s0.8,1.1-2,1.1s-10.9,5.3-10.9,5.3
		s11.1-0.1,20.2-6.4l3.5,0.8l4.5-5.6l-1.6-0.7L501.5,605.8z"/>
	<path class="st254" d="M500,626.2c0,0-1.1-5.3-8.9-2.1"/>
	<path class="st255" d="M492,628.5c0,0,10.6,1.3,10.2-4.9"/>
	<path class="st254" d="M500,641c0,0-1.1-5.3-8.9-2.1"/>
	<path class="st255" d="M492,643.3c0,0,10.6,1.3,10.2-4.9"/>
	<path class="st254" d="M500.4,655.8c0,0-1.1-5.3-8.9-2.1"/>
	<path class="st255" d="M492.4,658.1c0,0,10.6,1.3,10.2-4.9"/>
	<path class="st254" d="M500.2,669.8c0,0-1.1-5.3-8.9-2.1"/>
	<path class="st255" d="M492.2,672.1c0,0,10.6,1.3,10.2-4.9"/>
	<path class="st254" d="M501,685c0,0-1.1-5.3-8.9-2.1"/>
	<path class="st255" d="M493,687.3c0,0,10.6,1.3,10.2-4.9"/>
	<path class="st254" d="M501.3,699c0,0-1.1-5.3-8.9-2.1"/>
	<path class="st255" d="M493.4,701.3c0,0,10.6,1.3,10.2-4.9"/>
	<path class="st254" d="M501.3,713.8c0,0-1.1-5.3-8.9-2.1"/>
	<path class="st255" d="M493.4,716.1c0,0,10.6,1.3,10.2-4.9"/>
	<path class="st254" d="M501.5,727.5c0,0-1.1-5.3-8.9-2.1"/>
	<path class="st255" d="M493.6,729.8c0,0,10.6,1.3,10.2-4.9"/>
	<path class="st254" d="M502.1,741.7c0,0-1.1-5.3-8.9-2.1"/>
	<path class="st255" d="M494.1,744c0,0,10.6,1.3,10.2-4.9"/>
	<path class="st254" d="M502.3,756.5c0,0-1.1-5.3-8.9-2.1"/>
	<path class="st255" d="M494.3,758.8c0,0,10.6,1.3,10.2-4.9"/>
	<path class="st254" d="M502.5,771.1c0,0-1.1-5.3-8.9-2.1"/>
	<path class="st255" d="M494.5,773.4c0,0,10.6,1.3,10.2-4.9"/>
	<path class="st254" d="M503,784.8c0,0-1.1-5.3-8.9-2.1"/>
	<path class="st255" d="M495.1,787c0,0,10.6,1.3,10.2-4.9"/>
	<path class="st256" d="M483.3,621.8c0,0,5.9,0.9,4.2,4.7c0,0-3.6,1.5-4-0.6L483.3,621.8z"/>
	<path class="st256" d="M483.7,636.4c0,0,5.9,0.9,4.2,4.7c0,0-3.6,1.5-4-0.6L483.7,636.4z"/>
	<path class="st256" d="M483.7,650.5c0,0,5.9,0.9,4.2,4.7c0,0-3.6,1.5-4-0.6L483.7,650.5z"/>
	<path class="st256" d="M483.9,665.3c0,0,5.9,0.9,4.2,4.7c0,0-3.6,1.5-4-0.6L483.9,665.3z"/>
	<path class="st256" d="M484.5,679.9c0,0,5.9,0.9,4.2,4.7c0,0-3.6,1.5-4-0.6L484.5,679.9z"/>
	<path class="st256" d="M484.8,695c0,0,5.9,0.9,4.2,4.7c0,0-3.6,1.5-4-0.6L484.8,695z"/>
	<path class="st256" d="M484.8,709.1c0,0,5.9,0.9,4.2,4.7c0,0-3.6,1.5-4-0.6L484.8,709.1z"/>
	<path class="st256" d="M485,724.1c0,0,5.9,0.9,4.2,4.7c0,0-3.6,1.5-4-0.6L485,724.1z"/>
	<path class="st256" d="M485.2,738.5c0,0,5.9,0.9,4.2,4.7c0,0-3.6,1.5-4-0.6L485.2,738.5z"/>
	<path class="st256" d="M485.6,752.5c0,0,5.9,0.9,4.2,4.7c0,0-3.6,1.5-4-0.6L485.6,752.5z"/>
	<path class="st256" d="M485.8,767.1c0,0,5.9,0.9,4.2,4.7c0,0-3.6,1.5-4-0.6L485.8,767.1z"/>
	<path class="st256" d="M486,781.5c0,0,5.9,0.9,4.2,4.7c0,0-3.6,1.5-4-0.6L486,781.5z"/>
	<path class="st257" d="M518.8,612l-8,10.3c0,0-2,2.9-1.8,9.7c0.2,6.8,3.5,156.4,3.5,156.4s0.5,10.7,5.4,13.4s11.8,11.4,11.8,11.4
		s7.6,7.3,10.3,0v-10.6c0,0,0-5-6.3-5l-8.3-5.3l-3.3-154.8c0,0,1-6.9,5.3-10.9c4.3-4,5-4.1,5-4.1l-0.5-19.7c0,0-2.2-3.6-4.5-1
		C525,604.4,518.8,612,518.8,612z"/>
	<path class="st81" d="M531.1,799.4c0,0-12,4.9-11.7-9.8c0.3-14.8-4-158-4-158s2.5-7.7,7.4-13.8c4.9-6.1,9.3-9.6,9.3-9.6l0.3,14.4
		c0,0-10,7.8-10.1,15.4c-0.2,7.6,3.2,154.1,3.2,154.1l8.2,5.5L531.1,799.4z"/>
	<path class="st41" d="M520.7,629.9c0,0,5-13.1,11.5-16.9l0.2,9.5c0,0-2.7,1.7-7.1,7.2C525.3,629.7,520.6,633.6,520.7,629.9z"/>
	<path class="st258" d="M531.1,799.4c0,0,2.8-0.3,2.8,3.1c0,3.4-0.1,9.2-0.1,9.2s-0.7,2.4-1.8,2.8c0,0,4.7,0.3,4.9-4
		c0.3-4.2,0.7-13.1-3.3-13L531.1,799.4z"/>
	<path class="st259" d="M519.4,789.6c0,0,0.3,12.1-3.8,7.6c-1.8-1.3-3.2-8.9-3.2-8.9s-2.9,7.5,5.3,13.6c4.5,3.3,11.9,11.2,11.9,11.2
		l3,2.5c0,0,0.8-2.7,1.1-3.9c1-3.5,0.7-9,0.7-9s-0.6-3.1-3.3-3.3C528.3,799.2,522.6,801.5,519.4,789.6z"/>
	<path class="st81" d="M533.6,797.5c0,0,6.1-0.7,6.3,5c0.2,5.7,0,10.9,0,10.9s-2.3,6.6-8.1,1.6c0,0,4.8,0.1,5-4.4
		S538.4,800,533.6,797.5z"/>
	<path class="st260" d="M518.9,802.6l-16.2,0.3c0,0-0.2,2.6,4.2,2.8c4.4,0.2,15.2-0.3,15.2-0.3L518.9,802.6z"/>
	<path class="st260" d="M506.6,794.2V793c0,0,4.9,3.6-4.9,4.8c-5.1,0.7-20.9,0.7-15.9-5.5l0.1,1.2
		C486.8,794.8,496.2,797.2,506.6,794.2z"/>
	<path class="st261" d="M516.2,844.8l-28.1-0.2c0,0,1,2.6,6.5,2.8h13.9C508.5,847.4,513.8,847.6,516.2,844.8z"/>
	<path class="st262" d="M488.1,813.7"/>
	<path class="st81" d="M507.1,847.5l0.1-33l9.6-1.9c0,0-1.2-0.5-1.2,2.8s0.6,29.3,0.6,29.3S513.2,848.7,507.1,847.5z"/>
	<path class="st263" d="M499.8,798l-7.8,15c0,0-8.4-0.4-8.4-3.7s0.2-16.8,0.2-16.8S482,799,499.8,798z"/>
	<path class="st264" d="M492.7,844.6l-0.4-30.1c0,0-4.1-0.1-5.2-1.1c0,0,0.9-0.4,0.8,4.1c-0.1,4.5,0.1,27.1,0.1,27.1L492.7,844.6z"
		/>
	<path class="st265" d="M497.9,847.7c0,0-2.1,11.4,0.5,15.7c2.6,4.4,0.9,9.8,65.3,9.4l9.6,6l-63.7-1.6c0,0-11.2-0.6-14.6-14.2
		l-0.3-15.5L497.9,847.7z"/>
	<path class="st81" d="M500.5,847.4l9.1,0.3c0,0-2,0.5-1.4,8.3c0,0-0.6,7,3.2,7c0,0-7.1-1.5-7.1,2.4
		C504.3,865.4,505.6,851.2,500.5,847.4z"/>
	<path class="st263" d="M562.4,879c0,0,5.6-7.2-5.6-15.7l16.2,5.1c0,0,12.9,6.5,0.2,10.5L562.4,879z"/>
	<path class="st205" d="M484.1,534.5c0,0-1.7,12,5.9,19c0,0,3.7-16.2,0.9-19.2C488.1,531.3,484.1,534.5,484.1,534.5z"/>
	<path class="st81" d="M511,593.8c0,0-2.9,1.6-4.1,1.7l24.8,0.9c0,0,3.6,0.1,3.8,5.1s0.2,18.7,0.2,18.7s0,2.6-3.3,2.3
		c0,0,3.2,3.4,6.1-0.7l0.4-21.1c0,0,0.1-6.4-6.6-6.5L511,593.8z"/>
	<path class="st81" d="M503.3,595.8l0.1-12.2c0,0,6-4.7,0.3-6.2l3.5-1.2c0,0,7.7,2.2,3.6,10.3l0.2,7.2
		C511,593.8,507.8,596.2,503.3,595.8z"/>
	<path class="st266" d="M483.1,595.4c0,0,18.7,3.2,27.9-1.6"/>
	<path class="st267" d="M515.6,812.9c-31.3,1.8-31.7-2.5-31.7-2.5"/>
	<path class="st260" d="M488.1,813.7c0,0-2.1-0.4-2.3-1.6c0,0,14.7,2.9,29.2,1.1C515,813.2,503.6,816.1,488.1,813.7z"/>
	<path class="st268" d="M508.1,858.1c0,0-10.4,0.2-9.7,5.3c0,0,2.1,1.8,5-1.5C506.2,858.6,508.1,858.1,508.1,858.1z"/>
</g>
<g id="Layer_10">
	<path class="st238" d="M579.9,610.3l0.1-6.5l-8.8,0.4v4.7l-10.9-0.3l-3.2,76.6c0,0,0.4,4.2,11.2,4.6l-0.2,12.7
		c0,0-8.4,1.8-10.4,9.3s-2.1,15.9,4.7,19.8c6.8,3.9,12.9,3.1,21-2.4l7.2,5.9c0,0,4.6,6.1,11.2,1.1c0,0-0.7,8.3,19.1,6.4l-0.7-20.2
		l-18.8-1.3l-0.2,7.7c0,0-3.7,1.5-7.4-2c-3.7-3.5-6.6-5-6.6-5s3.7-12.9-10.1-19.9l-0.4-10.1c0,0,12.7-0.9,19.1,13.1
		c0,0,1.8,7.2,10.5,9c8.8,1.8,17.1,3.3,17.1,3.3s7.4,0.9,7.2-7.9c-0.2-8.8-12-85.4-12-85.4s0.9-7.7-13.8-9.6
		S579.9,610.3,579.9,610.3z"/>
	<path class="st238" d="M609.3,594.9l-45.7,1.6c0,0-18.1,2.4-18.6,19.6c-0.5,17.2-3.1,76-3.1,76s-0.1,6.8,4.1,10.1
		c4.3,3.3,11.6,9.6,11.6,9.6s2.1-4.4,4.8-6.7L549.2,695l3.6-76.4c0,0,1.5-12.3,11.7-14.1l44.6-2L609.3,594.9z"/>
	<path class="st205" d="M763.3,788.3c0,0,9.6,0.4,9.6,14.9l0.4,11.5l-3.8-0.8C769.4,813.9,770.2,791.3,763.3,788.3z"/>
	<path class="st205" d="M746.4,784.8c0,0,10,0.8,10,12.3c0,11.5,0.8,13.8,0.8,13.8l-3.8-0.4C753.3,810.5,755.6,788.7,746.4,784.8z"
		/>
	<path class="st205" d="M733,781c0,0,8-0.4,8,12.6c0,13,0.4,16.1,0.4,16.1l-2.7-0.8C738.8,809,740.7,783.7,733,781z"/>
	<path class="st81" d="M763.3,788.3l-0.4,24.1l6.5,1.5C769.4,813.9,770.2,792.5,763.3,788.3z"/>
	<path class="st81" d="M746.4,784.8V809l6.9,1.5C753.3,810.5,754.8,789.8,746.4,784.8z"/>
	<path class="st81" d="M733,781l0.4,26.4l5.4,1.5C738.8,809,740.3,783.3,733,781z"/>
</g>
</svg>
